<svg width="56" height="56" viewBox="0 0 56 56" fill="none" xmlns="http://www.w3.org/2000/svg">
    <path d="M11.41 7.49009C11.7966 7.49009 12.11 7.17669 12.11 6.79009C12.11 6.40349 11.7966 6.09009 11.41 6.09009C11.0234 6.09009 10.71 6.40349 10.71 6.79009C10.71 7.17669 11.0234 7.49009 11.41 7.49009Z" fill="#E0F0FE"/>
    <path d="M46.9 9.59009C47.2866 9.59009 47.6 9.27669 47.6 8.89009C47.6 8.50349 47.2866 8.19009 46.9 8.19009C46.5134 8.19009 46.2 8.50349 46.2 8.89009C46.2 9.27669 46.5134 9.59009 46.9 9.59009Z" fill="#E0F0FE"/>
    <path d="M45.5 52.0801C45.8866 52.0801 46.2 51.7667 46.2 51.3801C46.2 50.9935 45.8866 50.6801 45.5 50.6801C45.1134 50.6801 44.8 50.9935 44.8 51.3801C44.8 51.7667 45.1134 52.0801 45.5 52.0801Z" fill="#E0F0FE"/>
    <path d="M16.24 53.8301C16.6266 53.8301 16.94 53.5167 16.94 53.1301C16.94 52.7435 16.6266 52.4301 16.24 52.4301C15.8534 52.4301 15.54 52.7435 15.54 53.1301C15.54 53.5167 15.8534 53.8301 16.24 53.8301Z" fill="#E0F0FE"/>
    <path fill-rule="evenodd" clip-rule="evenodd" d="M42.7 28.7001C42.7 28.3135 43.0135 28.0001 43.4 28.0001H46.2C46.5866 28.0001 46.9 28.3135 46.9 28.7001C46.9 29.0867 46.5866 29.4001 46.2 29.4001H43.4C43.0135 29.4001 42.7 29.0867 42.7 28.7001Z" fill="#0079D0"/>
    <path fill-rule="evenodd" clip-rule="evenodd" d="M35.7 28.7001C35.7 28.3135 36.0134 28.0001 36.4 28.0001H39.2C39.5866 28.0001 39.9 28.3135 39.9 28.7001C39.9 29.0867 39.5866 29.4001 39.2 29.4001H36.4C36.0134 29.4001 35.7 29.0867 35.7 28.7001Z" fill="#0079D0"/>
    <path fill-rule="evenodd" clip-rule="evenodd" d="M42.7 32.2001C42.7 31.8135 43.0135 31.5001 43.4 31.5001H46.2C46.5866 31.5001 46.9 31.8135 46.9 32.2001C46.9 32.5867 46.5866 32.9001 46.2 32.9001H43.4C43.0135 32.9001 42.7 32.5867 42.7 32.2001Z" fill="#0079D0"/>
    <path fill-rule="evenodd" clip-rule="evenodd" d="M35.7 32.2001C35.7 31.8135 36.0134 31.5001 36.4 31.5001H39.2C39.5866 31.5001 39.9 31.8135 39.9 32.2001C39.9 32.5867 39.5866 32.9001 39.2 32.9001H36.4C36.0134 32.9001 35.7 32.5867 35.7 32.2001Z" fill="#0079D0"/>
    <path fill-rule="evenodd" clip-rule="evenodd" d="M17.5 23.8001C17.5 23.4135 17.8134 23.1001 18.2 23.1001H21C21.3866 23.1001 21.7 23.4135 21.7 23.8001C21.7 24.1867 21.3866 24.5001 21 24.5001H18.2C17.8134 24.5001 17.5 24.1867 17.5 23.8001Z" fill="#0079D0"/>
    <path fill-rule="evenodd" clip-rule="evenodd" d="M9.80005 23.8001C9.80005 23.4135 10.1134 23.1001 10.5 23.1001H13.3C13.6866 23.1001 14 23.4135 14 23.8001C14 24.1867 13.6866 24.5001 13.3 24.5001H10.5C10.1134 24.5001 9.80005 24.1867 9.80005 23.8001Z" fill="#0079D0"/>
    <path fill-rule="evenodd" clip-rule="evenodd" d="M17.5 27.3001C17.5 26.9135 17.8134 26.6001 18.2 26.6001H21C21.3866 26.6001 21.7 26.9135 21.7 27.3001C21.7 27.6867 21.3866 28.0001 21 28.0001H18.2C17.8134 28.0001 17.5 27.6867 17.5 27.3001Z" fill="#0079D0"/>
    <path fill-rule="evenodd" clip-rule="evenodd" d="M9.80005 27.3001C9.80005 26.9135 10.1134 26.6001 10.5 26.6001H13.3C13.6866 26.6001 14 26.9135 14 27.3001C14 27.6867 13.6866 28.0001 13.3 28.0001H10.5C10.1134 28.0001 9.80005 27.6867 9.80005 27.3001Z" fill="#0079D0"/>
    <path fill-rule="evenodd" clip-rule="evenodd" d="M25.2 23.8001C25.2 23.4135 25.5134 23.1001 25.9 23.1001H28.7C29.0866 23.1001 29.4 23.4135 29.4 23.8001C29.4 24.1867 29.0866 24.5001 28.7 24.5001H25.9C25.5134 24.5001 25.2 24.1867 25.2 23.8001Z" fill="#0079D0"/>
    <path fill-rule="evenodd" clip-rule="evenodd" d="M25.2 27.3001C25.2 26.9135 25.5134 26.6001 25.9 26.6001H28.7C29.0866 26.6001 29.4 26.9135 29.4 27.3001C29.4 27.6867 29.0866 28.0001 28.7 28.0001H25.9C25.5134 28.0001 25.2 27.6867 25.2 27.3001Z" fill="#0079D0"/>
    <path fill-rule="evenodd" clip-rule="evenodd" d="M36.4 37.1105V41.2866C36.4 41.2866 36.4001 41.2867 36.4 41.2866C36.4013 41.2896 36.4034 41.293 36.4058 41.2955C36.4078 41.2977 36.409 41.2982 36.4093 41.2983C36.4094 41.2984 36.4102 41.2987 36.412 41.2991C36.4138 41.2995 36.4177 41.3001 36.4242 41.3001H39.1556C39.1582 41.2987 39.1614 41.2967 39.165 41.2942C39.1712 41.2899 39.1778 41.2845 39.1841 41.2784C39.1904 41.2722 39.1956 41.2661 39.1995 41.2606C39.1997 41.2604 39.1999 41.2601 39.2 41.2599V37.1135C39.2 37.1135 39.2001 37.1136 39.2 37.1135C39.1988 37.1106 39.1967 37.1072 39.1943 37.1047C39.1923 37.1025 39.1911 37.102 39.1908 37.1019C39.1907 37.1018 39.1898 37.1015 39.1881 37.1011C39.1863 37.1007 39.1824 37.1001 39.1759 37.1001H36.4242C36.4242 37.1001 36.4242 37.1001 36.4242 37.1001C36.4237 37.1001 36.4197 37.1004 36.4135 37.1029C36.4077 37.1051 36.4031 37.108 36.4 37.1105ZM39.2006 37.115C39.2006 37.115 39.2006 37.1152 39.2006 37.115V37.115ZM39.1487 41.3034C39.1484 41.3035 39.1487 41.3034 39.1487 41.3034V41.3034ZM35 37.109C35 36.2389 35.7364 35.7001 36.4242 35.7001H39.1759C40.0281 35.7001 40.6 36.3997 40.6 37.109V41.2912C40.6 41.7014 40.398 42.0492 40.1634 42.2788C39.9279 42.5093 39.5794 42.7001 39.1759 42.7001H36.4242C35.572 42.7001 35 42.0004 35 41.2912V37.109Z" fill="#0079D0"/>
    <path fill-rule="evenodd" clip-rule="evenodd" d="M43.4 37.11V41.2869C43.4 41.2868 43.4001 41.287 43.4 41.2869C43.4013 41.29 43.4036 41.2936 43.4059 41.2961C43.4069 41.2972 43.4077 41.2978 43.4082 41.2981L43.4088 41.2985C43.4089 41.2985 43.4095 41.2988 43.4111 41.2991C43.4126 41.2995 43.4163 41.3001 43.4226 41.3001H46.1683C46.1758 41.3001 46.1834 41.2992 46.1908 41.2974C46.1908 41.2954 46.1908 41.2933 46.1908 41.2912V37.1133C46.1908 37.1132 46.1908 37.1134 46.1908 37.1133C46.1896 37.1102 46.1873 37.1066 46.1849 37.1041C46.1839 37.103 46.1831 37.1024 46.1827 37.1021L46.182 37.1017C46.182 37.1017 46.1813 37.1014 46.1798 37.101C46.1782 37.1007 46.1745 37.1001 46.1683 37.1001H43.4226C43.4226 37.1001 43.4227 37.1001 43.4226 37.1001C43.4226 37.1001 43.419 37.1003 43.413 37.1027C43.4075 37.1048 43.403 37.1076 43.4 37.11ZM46.1913 37.1147C46.1913 37.1147 46.1913 37.1148 46.1913 37.1147V37.1147ZM42 37.109C42 36.2403 42.7341 35.7001 43.4226 35.7001H46.1683C47.0209 35.7001 47.5908 36.4012 47.5908 37.109V41.236C47.6465 41.6645 47.4547 42.0376 47.2094 42.2783C46.9462 42.5365 46.5727 42.7001 46.1683 42.7001H43.4226C42.57 42.7001 42 41.999 42 41.2912V37.109Z" fill="#0079D0"/>
    <path d="M29.8374 8.94671C30.1393 8.7052 30.1882 8.2647 29.9467 7.96281C29.7052 7.66093 29.2647 7.61198 28.9628 7.85349L18.4628 16.2535C18.1609 16.495 18.112 16.9355 18.3535 17.2374C18.595 17.5393 19.0355 17.5882 19.3374 17.3467L29.8374 8.94671Z" fill="#2F3A43"/>
    <path d="M33.5907 9.68535C33.5684 9.55013 33.5074 9.42797 33.4194 9.33067C33.2965 9.1948 33.121 9.10739 32.925 9.10053C32.8714 9.09859 32.8175 9.10279 32.7644 9.11324C32.7169 9.12257 32.6711 9.1367 32.6276 9.1551C32.5665 9.18094 32.5099 9.21521 32.4591 9.25645L25.4628 14.8535C25.1609 15.095 25.112 15.5355 25.3535 15.8374C25.595 16.1393 26.0355 16.1882 26.3374 15.9467L32.2001 11.2565V46.9001H9.1001C8.7135 46.9001 8.4001 47.2135 8.4001 47.6001C8.4001 47.9867 8.7135 48.3001 9.1001 48.3001H32.9001C33.2867 48.3001 33.6001 47.9867 33.6001 47.6001" fill="#2F3A43"/>
    <path d="M40.6001 20.3001C40.2135 20.3001 39.9001 20.6135 39.9001 21.0001C39.9001 21.3867 40.2135 21.7001 40.6001 21.7001H46.2001C46.5867 21.7001 46.9001 21.3867 46.9001 21.0001C46.9001 20.6135 46.5867 20.3001 46.2001 20.3001H40.6001Z" fill="#2F3A43"/>
    <path d="M35.0001 23.8001C35.0001 23.4135 35.3135 23.1001 35.7001 23.1001H49.7001C50.0867 23.1001 50.4001 23.4135 50.4001 23.8001V47.6001C50.4001 47.9867 50.0867 48.3001 49.7001 48.3001H35.7001C35.3135 48.3001 35.0001 47.9867 35.0001 47.6001C35.0001 47.2135 35.3135 46.9001 35.7001 46.9001H49.0001V24.5001H35.7001C35.3135 24.5001 35.0001 24.1867 35.0001 23.8001Z" fill="#2F3A43"/>
    <path d="M7.0001 47.6701C7.0001 48.0567 6.6867 48.3701 6.3001 48.3701C5.9135 48.3701 5.6001 48.0567 5.6001 47.6701C5.6001 47.2835 5.9135 46.9701 6.3001 46.9701C6.6867 46.9701 7.0001 47.2835 7.0001 47.6701Z" fill="#2F3A43"/>
    <path fill-rule="evenodd" clip-rule="evenodd" d="M11.2001 44.8001C11.2001 44.4135 11.5135 44.1001 11.9001 44.1001H14.0001V33.6001C14.0001 33.2135 14.3135 32.9001 14.7001 32.9001H24.5001C24.8867 32.9001 25.2001 33.2135 25.2001 33.6001V44.1001H27.3001C27.6867 44.1001 28.0001 44.4135 28.0001 44.8001C28.0001 45.1867 27.6867 45.5001 27.3001 45.5001H11.9001C11.5135 45.5001 11.2001 45.1867 11.2001 44.8001ZM20.3001 44.1001V37.8001C20.3001 37.4135 19.9867 37.1001 19.6001 37.1001C19.2135 37.1001 18.9001 37.4135 18.9001 37.8001V44.1001H15.4001V34.3001H23.8001V44.1001H20.3001Z" fill="#2F3A43"/>
    <path d="M15.4001 30.8001C15.4001 30.4135 15.7135 30.1001 16.1001 30.1001H23.1001C23.4867 30.1001 23.8001 30.4135 23.8001 30.8001C23.8001 31.1867 23.4867 31.5001 23.1001 31.5001H16.1001C15.7135 31.5001 15.4001 31.1867 15.4001 30.8001Z" fill="#2F3A43"/>
    <path d="M23.6379 17.402C23.8853 17.699 23.8452 18.1404 23.5482 18.3878L21.4482 20.1378C21.3224 20.2427 21.1639 20.3001 21.0001 20.3001H7.0001V44.8001C7.0001 45.1867 6.6867 45.5001 6.3001 45.5001C5.9135 45.5001 5.6001 45.1867 5.6001 44.8001V19.6001C5.6001 19.2135 5.9135 18.9001 6.3001 18.9001H20.7467L22.652 17.3123C22.949 17.0648 23.3904 17.105 23.6379 17.402Z" fill="#2F3A43"/>
</svg>
