<svg width="56" height="56" viewBox="0 0 56 56" fill="none" xmlns="http://www.w3.org/2000/svg">
    <path fill-rule="evenodd" clip-rule="evenodd" d="M52.4999 43.4001C52.1149 43.4001 51.7999 43.0851 51.7999 42.7001C51.7999 42.3151 52.1149 42.0001 52.4999 42.0001C52.8849 42.0001 53.1999 42.3151 53.1999 42.7001C53.1999 43.0851 52.8849 43.4001 52.4999 43.4001Z" fill="#E0F0FE"/>
    <path fill-rule="evenodd" clip-rule="evenodd" d="M38.4999 2.80015C38.1149 2.80015 37.7999 2.48515 37.7999 2.10015C37.7999 1.71515 38.1149 1.40015 38.4999 1.40015C38.8849 1.40015 39.1999 1.71515 39.1999 2.10015C39.1999 2.48515 38.8849 2.80015 38.4999 2.80015Z" fill="#E0F0FE"/>
    <path fill-rule="evenodd" clip-rule="evenodd" d="M2.0999 37.8001C1.7149 37.8001 1.3999 37.4851 1.3999 37.1001C1.3999 36.7151 1.7149 36.4001 2.0999 36.4001C2.4849 36.4001 2.7999 36.7151 2.7999 37.1001C2.7999 37.4851 2.4849 37.8001 2.0999 37.8001Z" fill="#E0F0FE"/>
    <path d="M32.9001 16.1002C33.2851 16.1002 33.6001 16.4152 33.6001 16.8002C33.6001 17.1572 33.3271 17.4582 32.9841 17.4932H25.9001C25.5151 17.4932 25.2001 17.1782 25.2001 16.7932C25.2001 16.4362 25.4731 16.1352 25.8161 16.1002H32.9001Z" fill="#0079D0"/>
    <path d="M18.9001 17.5002C18.7181 17.5002 18.5431 17.4302 18.4031 17.2972L17.0031 15.8972C16.7301 15.6242 16.7301 15.1832 17.0031 14.9102C17.2761 14.6372 17.7171 14.6372 17.9901 14.9102L18.8931 15.8132L21.1961 13.5102C21.4691 13.2372 21.9101 13.2372 22.1831 13.5102C22.4561 13.7832 22.4561 14.2242 22.1831 14.4972L19.3831 17.2972C19.2431 17.4372 19.0681 17.5002 18.8861 17.5002H18.9001Z" fill="#0079D0"/>
    <path d="M35.7001 13.3002C36.0851 13.3002 36.4001 13.6152 36.4001 14.0002C36.4001 14.3572 36.1271 14.6582 35.7841 14.6932H25.9001C25.5151 14.6932 25.2001 14.3782 25.2001 13.9932C25.2001 13.6362 25.4731 13.3352 25.8161 13.3002H35.7001Z" fill="#0079D0"/>
    <path d="M32.9001 24.5002C33.2851 24.5002 33.6001 24.8152 33.6001 25.2002C33.6001 25.5572 33.3271 25.8582 32.9841 25.8932H25.9001C25.5151 25.8932 25.2001 25.5782 25.2001 25.1932C25.2001 24.8362 25.4731 24.5352 25.8161 24.5002H32.9001Z" fill="#0079D0"/>
    <path d="M18.9001 25.9002C18.7181 25.9002 18.5431 25.8302 18.4031 25.6972L17.0031 24.2972C16.7301 24.0242 16.7301 23.5832 17.0031 23.3102C17.2761 23.0372 17.7171 23.0372 17.9901 23.3102L18.8931 24.2132L21.1961 21.9102C21.4691 21.6372 21.9101 21.6372 22.1831 21.9102C22.4561 22.1832 22.4561 22.6242 22.1831 22.8972L19.3831 25.6972C19.2431 25.8372 19.0681 25.9002 18.8861 25.9002H18.9001Z" fill="#0079D0"/>
    <path d="M37.4501 50.4002C37.3381 50.4002 37.2191 50.3722 37.1141 50.3162C36.8831 50.1902 31.5001 47.1872 31.5001 39.2772C31.5001 38.9692 31.7031 38.6962 31.9971 38.6052C35.0211 37.6952 37.0721 36.5052 37.0931 36.4912C37.3101 36.3652 37.5831 36.3652 37.8001 36.4912C37.8211 36.5052 39.8721 37.6952 42.8961 38.6052C43.1901 38.6962 43.3931 38.9692 43.3931 39.2772C43.3931 47.1802 38.0031 50.1902 37.7791 50.3162C37.6741 50.3722 37.5621 50.4002 37.4431 50.4002H37.4501ZM32.9071 39.7882C33.0961 45.4652 36.3721 48.1462 37.4501 48.8742C38.5281 48.1462 41.8041 45.4722 41.9931 39.7882C39.7741 39.0742 38.1361 38.2622 37.4501 37.8982C36.7641 38.2622 35.1261 39.0812 32.9071 39.7882Z" fill="#0079D0"/>
    <path d="M35.7001 21.7002C36.0851 21.7002 36.4001 22.0152 36.4001 22.4002C36.4001 22.7572 36.1271 23.0582 35.7841 23.0932H25.9001C25.5151 23.0932 25.2001 22.7782 25.2001 22.3932C25.2001 22.0362 25.4731 21.7352 25.8161 21.7002H35.7001Z" fill="#0079D0"/>
    <path d="M32.9001 32.9001C33.2851 32.9001 33.6001 33.2151 33.6001 33.6001C33.6001 33.9571 33.3271 34.2581 32.9841 34.2931H25.9001C25.5151 34.2931 25.2001 33.9781 25.2001 33.5931C25.2001 33.2361 25.4731 32.9351 25.8161 32.9001H32.9001Z" fill="#2F3A43"/>
    <path fill-rule="evenodd" clip-rule="evenodd" d="M39.9001 8.40015H13.3001C12.9151 8.40015 12.6001 8.71515 12.6001 9.10015V46.9001C12.6001 47.2851 12.9151 47.6001 13.3001 47.6001H30.8001C31.1851 47.6001 31.5001 47.2851 31.5001 46.9001C31.5001 46.5151 31.1851 46.2001 30.8001 46.2001H14.0001V9.80015H39.2001V34.3001C39.2001 34.6851 39.5151 35.0001 39.9001 35.0001C40.2851 35.0001 40.6001 34.6851 40.6001 34.3001V9.10015C40.6001 8.71515 40.2851 8.40015 39.9001 8.40015Z" fill="#2F3A43"/>
    <path d="M42.7001 36.4001C42.3151 36.4001 42.0001 36.0851 42.0001 35.7001V14.7001C42.0001 14.3431 42.2731 14.0421 42.6161 14.0071H42.7001C43.0571 14.0001 43.3581 14.2731 43.3931 14.6161V35.7001C43.3931 36.0851 43.0781 36.4001 42.6931 36.4001H42.7001Z" fill="#2F3A43"/>
    <path d="M32.9001 49.7001C32.9001 50.0851 32.5851 50.4001 32.2001 50.4001H18.9001C18.5151 50.4001 18.2001 50.0851 18.2001 49.7001C18.2001 49.3431 18.4731 49.0421 18.8161 49.0071H32.2001C32.5851 49.0071 32.9001 49.3151 32.9001 49.7001Z" fill="#2F3A43"/>
    <path d="M35.7001 30.1001C36.0851 30.1001 36.4001 30.4151 36.4001 30.8001C36.4001 31.1571 36.1271 31.4581 35.7841 31.4931H25.9001C25.5151 31.4931 25.2001 31.1781 25.2001 30.7931C25.2001 30.4361 25.4731 30.1351 25.8161 30.1001H35.7001Z" fill="#2F3A43"/>
    <path d="M18.9001 34.3001C18.7181 34.3001 18.5431 34.2301 18.4031 34.0971L17.0031 32.6971C16.7301 32.4241 16.7301 31.9831 17.0031 31.7101C17.2761 31.4371 17.7171 31.4371 17.9901 31.7101L18.8931 32.6131L21.1961 30.3101C21.4691 30.0371 21.9101 30.0371 22.1831 30.3101C22.4561 30.5831 22.4561 31.0241 22.1831 31.2971L19.3831 34.0971C19.2431 34.2371 19.0681 34.3001 18.8861 34.3001H18.9001Z" fill="#2F3A43"/>
    <path d="M29.4001 39.2001C29.4001 39.5851 29.0851 39.9001 28.7001 39.9001H25.9001C25.5151 39.9001 25.2001 39.5851 25.2001 39.2001C25.2001 38.8431 25.4731 38.5421 25.8161 38.5071H28.7001C29.0851 38.5071 29.4001 38.8151 29.4001 39.2001Z" fill="#2F3A43"/>
    <path d="M30.1001 42.0001C30.1001 42.3851 29.7851 42.7001 29.4001 42.7001H25.9001C25.5151 42.7001 25.2001 42.3851 25.2001 42.0001C25.2001 41.6431 25.4731 41.3421 25.8161 41.3071H29.4001C29.7851 41.3071 30.1001 41.6151 30.1001 42.0001Z" fill="#2F3A43"/>
    <path d="M18.9001 42.7001C18.7181 42.7001 18.5431 42.6301 18.4031 42.4971L17.0031 41.0971C16.7301 40.8241 16.7301 40.3831 17.0031 40.1101C17.2761 39.8371 17.7171 39.8371 17.9901 40.1101L18.8931 41.0131L21.1961 38.7101C21.4691 38.4371 21.9101 38.4371 22.1831 38.7101C22.4561 38.9831 22.4561 39.4241 22.1831 39.6971L19.3831 42.4971C19.2431 42.6371 19.0681 42.7001 18.8861 42.7001H18.9001Z" fill="#2F3A43"/>
</svg>
