<svg width="56" height="56" viewBox="0 0 56 56" fill="none" xmlns="http://www.w3.org/2000/svg">
    <path fill-rule="evenodd" clip-rule="evenodd" d="M53.2001 48.9999C52.8141 48.9999 52.5001 48.6859 52.5001 48.2999C52.5001 47.9139 52.8141 47.5999 53.2001 47.5999C53.5861 47.5999 53.9001 47.9139 53.9001 48.2999C53.9001 48.6859 53.5861 48.9999 53.2001 48.9999Z" fill="#E0F0FE"/>
    <path fill-rule="evenodd" clip-rule="evenodd" d="M27.3001 2.7999C26.9141 2.7999 26.6001 2.48588 26.6001 2.0999C26.6001 1.71389 26.9141 1.3999 27.3001 1.3999C27.6861 1.3999 28.0001 1.71389 28.0001 2.0999C28.0001 2.48588 27.6861 2.7999 27.3001 2.7999Z" fill="#E0F0FE"/>
    <path fill-rule="evenodd" clip-rule="evenodd" d="M2.8001 43.3999C2.41412 43.3999 2.1001 43.0859 2.1001 42.6999C2.1001 42.3139 2.41412 41.9999 2.8001 41.9999C3.18608 41.9999 3.5001 42.3139 3.5001 42.6999C3.5001 43.0859 3.18608 43.3999 2.8001 43.3999Z" fill="#E0F0FE"/>
    <path fill-rule="evenodd" clip-rule="evenodd" d="M37.9759 30.9363L40.6945 24.3834C40.9908 23.6692 41.8099 23.3305 42.5241 23.6268C42.8652 23.7683 43.1365 24.0388 43.2791 24.3795L46.0217 30.9335C46.1791 31.3096 46.1647 31.7355 45.9824 32.1001L44.9195 34.226C44.8847 34.2955 44.8447 34.3613 44.7999 34.4229V36.9863L46.164 41.0785C46.1884 41.1517 46.2005 41.2283 46.1999 41.3051L46.1951 41.3818L45.2053 49.7818C45.167 50.1072 44.9095 50.3585 44.5909 50.3953L44.5101 50.3999H39.4897C39.1621 50.3999 38.8823 50.1736 38.8086 49.8615L38.7945 49.7818L38.4697 47.0256C38.4245 46.6416 38.6991 46.2937 39.083 46.2485C39.4395 46.2064 39.765 46.4402 39.8459 46.7812L39.8601 46.8617L40.112 48.9999H43.8871L44.7859 41.372L43.5952 37.7999H40.4039L39.164 41.5213C39.0505 41.8618 38.7005 42.0571 38.3575 41.9853L38.2785 41.964C37.938 41.8505 37.7427 41.5005 37.8145 41.1575L37.8358 41.0785L39.1999 36.9863V34.4229C39.1552 34.3613 39.1151 34.2955 39.0803 34.226L38.0168 32.0989C37.8352 31.7357 37.8202 31.3115 37.9759 30.9363ZM40.5999 34.9999V36.3999H43.3999V34.9999H40.5999ZM41.2999 26.5775L39.269 31.4728L40.3325 33.5999H43.6673L44.7302 31.474L42.6999 26.6221V30.0999C42.6999 30.4865 42.3865 30.7999 41.9999 30.7999C41.6409 30.7999 41.345 30.5297 41.3046 30.1815L41.2999 30.0999V26.5775Z" fill="#0079D0"/>
    <path d="M32.8999 37.7999C34.2198 37.7999 34.9999 38.58 34.9999 39.8999C34.9999 39.9571 34.9929 40.0141 34.979 40.0697C34.6253 41.4846 33.0524 42.4043 30.2457 42.9113L29.7923 42.9879C29.6377 43.0124 29.4797 43.0356 29.3183 43.0578L28.8239 43.121C28.7397 43.1309 28.6547 43.1406 28.5689 43.15L28.0436 43.2032L27.4978 43.2499L26.9313 43.2901L26.3443 43.324C26.2448 43.3291 26.1443 43.3339 26.0431 43.3385L25.4251 43.3629L24.7866 43.3811L24.1274 43.3932L23.0999 43.3999C22.7133 43.3999 22.3999 43.0865 22.3999 42.6999C22.3999 42.3133 22.7133 41.9999 23.0999 41.9999L23.7649 41.9969C23.8739 41.9959 23.9821 41.9946 24.0893 41.9931L24.7221 41.9811L25.3333 41.9633L25.923 41.9396L26.4912 41.9103L27.0377 41.8754L27.5627 41.835L28.0661 41.7892C28.1482 41.7811 28.2294 41.7728 28.3097 41.7642L28.7807 41.7104C29.0108 41.6822 29.2327 41.6521 29.4466 41.62L29.8634 41.5533L30.2586 41.4817L30.6321 41.4052C32.3244 41.0368 33.3076 40.5115 33.5746 39.8695L33.5978 39.8054L33.5931 39.7229C33.5607 39.3461 33.4052 39.2171 32.9923 39.2015L32.8999 39.1999C32.1727 39.1999 31.407 39.5828 30.5949 40.3949C30.1731 40.8167 29.4649 40.5493 29.4041 39.9794L29.3999 39.8999C29.3999 39.3532 29.2466 39.1999 28.6999 39.1999C27.9727 39.1999 27.207 39.5828 26.3949 40.3949C26.1215 40.6682 25.6783 40.6682 25.4049 40.3949C25.1316 40.1215 25.1316 39.6783 25.4049 39.4049C26.4595 38.3503 27.5604 37.7999 28.6999 37.7999C29.5013 37.7999 30.1037 38.0874 30.4533 38.6088L30.4807 38.6532L30.6176 38.5581C31.3017 38.0961 32.0032 37.841 32.7203 37.8045L32.8999 37.7999Z" fill="#0079D0"/>
    <path d="M39.1952 9.01827C39.1548 8.67013 38.8589 8.3999 38.5 8.3999H11.9L11.8183 8.40461C11.4702 8.44505 11.2 8.74092 11.2 9.0999V46.8999L11.2047 46.9815C11.2451 47.3297 11.541 47.5999 11.9 47.5999H34.3L34.3816 47.5952C34.7297 47.5548 35 47.2589 35 46.8999L34.9952 46.8183C34.9548 46.4701 34.6589 46.1999 34.3 46.1999H12.6V9.7999H37.8V23.0999L37.8047 23.1815C37.8451 23.5297 38.141 23.7999 38.5 23.7999C38.8865 23.7999 39.2 23.4865 39.2 23.0999V9.0999L39.1952 9.01827Z" fill="#2F3A43"/>
    <path d="M28 13.2999C28 12.9133 27.6866 12.5999 27.3 12.5999H16.1L16.0183 12.6046C15.6702 12.645 15.4 12.9409 15.4 13.2999C15.4 13.6865 15.7134 13.9999 16.1 13.9999H27.3L27.3816 13.9952C27.7297 13.9548 28 13.6589 28 13.2999Z" fill="#2F3A43"/>
    <path d="M34.3 16.7999C34.6866 16.7999 35 17.1133 35 17.4999C35 17.8589 34.7297 18.1548 34.3816 18.1952L34.3 18.1999H16.1C15.7134 18.1999 15.4 17.8865 15.4 17.4999C15.4 17.1409 15.6702 16.845 16.0183 16.8046L16.1 16.7999H34.3Z" fill="#2F3A43"/>
    <path d="M30.8 21.6999C30.8 21.3133 30.4865 20.9999 30.1 20.9999H16.1L16.0183 21.0046C15.6702 21.045 15.4 21.3409 15.4 21.6999C15.4 22.0865 15.7134 22.3999 16.1 22.3999H30.1L30.1816 22.3952C30.5297 22.3548 30.8 22.0589 30.8 21.6999Z" fill="#2F3A43"/>
    <path d="M34.3 25.1999C34.6866 25.1999 35 25.5133 35 25.8999C35 26.2589 34.7297 26.5548 34.3816 26.5952L34.3 26.5999H16.1C15.7134 26.5999 15.4 26.2865 15.4 25.8999C15.4 25.5409 15.6702 25.245 16.0183 25.2046L16.1 25.1999H34.3Z" fill="#2F3A43"/>
    <path d="M41.9952 14.6183C41.9548 14.2701 41.6589 13.9999 41.3 13.9999C40.9134 13.9999 40.6 14.3133 40.6 14.6999V20.2999L40.6047 20.3815C40.6451 20.7297 40.941 20.9999 41.3 20.9999C41.6866 20.9999 42 20.6865 42 20.2999V14.6999L41.9952 14.6183Z" fill="#2F3A43"/>
    <path d="M35.7 48.9999C36.0865 48.9999 36.4 49.3133 36.4 49.6999C36.4 50.0589 36.1297 50.3548 35.7816 50.3952L35.7 50.3999H17.5C17.1134 50.3999 16.8 50.0865 16.8 49.6999C16.8 49.3409 17.0702 49.045 17.4183 49.0046L17.5 48.9999H35.7Z" fill="#2F3A43"/>
    <path d="M30.8 30.0999C30.8 29.7133 30.4865 29.3999 30.1 29.3999H16.1L16.0183 29.4046C15.6702 29.445 15.4 29.7409 15.4 30.0999C15.4 30.4865 15.7134 30.7999 16.1 30.7999H30.1L30.1816 30.7952C30.5297 30.7548 30.8 30.4589 30.8 30.0999Z" fill="#2F3A43"/>
</svg>
