<svg width="56" height="56" viewBox="0 0 56 56" fill="none" xmlns="http://www.w3.org/2000/svg">
    <path fill-rule="evenodd" clip-rule="evenodd" d="M40.5999 3.5001C40.214 3.5001 39.9 3.18608 39.9 2.8001C39.9 2.41408 40.214 2.1001 40.5999 2.1001C40.9859 2.1001 41.2999 2.41408 41.2999 2.8001C41.2999 3.18608 40.9859 3.5001 40.5999 3.5001Z" fill="#E0F0FE"/>
    <path fill-rule="evenodd" clip-rule="evenodd" d="M15.4 53.9001C15.014 53.9001 14.7 53.5861 14.7 53.2001C14.7 52.8141 15.014 52.5001 15.4 52.5001C15.7859 52.5001 16.1 52.8141 16.1 53.2001C16.1 53.5861 15.7859 53.9001 15.4 53.9001Z" fill="#E0F0FE"/>
    <path fill-rule="evenodd" clip-rule="evenodd" d="M8.39995 9.1001C8.01397 9.1001 7.69995 8.78608 7.69995 8.4001C7.69995 8.01409 8.01397 7.7001 8.39995 7.7001C8.78593 7.7001 9.09995 8.01409 9.09995 8.4001C9.09995 8.78608 8.78593 9.1001 8.39995 9.1001Z" fill="#E0F0FE"/>
    <path d="M28.6999 9.1001C29.0865 9.1001 29.3999 9.4135 29.3999 9.8001C29.3999 10.1867 29.0865 10.5001 28.6999 10.5001C24.0607 10.5001 20.2999 14.2609 20.2999 18.9001C20.2999 23.5393 24.0607 27.3001 28.6999 27.3001C33.3391 27.3001 37.0999 23.5393 37.0999 18.9001C37.0999 17.4838 36.7496 16.1198 36.0899 14.9029C35.9056 14.563 36.0318 14.1381 36.3716 13.9539C36.7115 13.7696 37.1364 13.8958 37.3206 14.2356C38.0907 15.6561 38.4999 17.2493 38.4999 18.9001C38.4999 24.3125 34.1123 28.7001 28.6999 28.7001C23.2875 28.7001 18.8999 24.3125 18.8999 18.9001C18.8999 13.4877 23.2875 9.1001 28.6999 9.1001Z" fill="#0079D0"/>
    <path fill-rule="evenodd" clip-rule="evenodd" d="M23.7416 19.3837L23.8013 19.3366L31.2208 14.0677C31.7281 13.7074 32.4181 14.1386 32.3167 14.7525L30.8335 23.7308C30.7325 24.3428 29.9443 24.5307 29.578 24.0302L27.5171 21.2141L24.0826 20.5963C23.4976 20.491 23.3111 19.7604 23.7416 19.3837ZM29.7237 21.8583L30.6616 16.1819L25.9708 19.5132L27.5736 19.8018L28.0644 19.0164C28.2692 18.6886 28.7011 18.5889 29.029 18.7937C29.3334 18.984 29.4411 19.3699 29.2909 19.6866L29.2516 19.7583L28.7611 20.5433L29.7237 21.8583Z" fill="#0079D0"/>
    <path d="M46.9001 46.1999C47.2867 46.1999 47.6001 46.5133 47.6001 46.8999C47.6001 47.2589 47.3299 47.5548 46.9817 47.5952L46.9001 47.5999H41.3001C40.9135 47.5999 40.6001 47.2865 40.6001 46.8999C40.6001 46.541 40.8703 46.2451 41.2185 46.2047L41.3001 46.1999H46.9001Z" fill="#2F3A43"/>
    <path d="M22.4471 32.2771C22.7331 32.0171 23.1758 32.0381 23.4359 32.3242C23.6759 32.5883 23.6764 32.9858 23.4501 33.2499L23.3888 33.313L6.77097 47.4179C6.48491 47.6779 6.0422 47.6569 5.78214 47.3708C5.54209 47.1067 5.54159 46.7092 5.76793 46.4451L5.82923 46.382L22.4471 32.2771Z" fill="#2F3A43"/>
    <path d="M49.7001 18.2C50.0591 18.2 50.355 18.4702 50.3954 18.8183L50.4001 18.9V44.0999C50.4001 44.4865 50.0867 44.7999 49.7001 44.7999C49.3411 44.7999 49.0452 44.5297 49.0048 44.1816L49.0001 44.0999V19.6H41.3001C40.9411 19.6 40.6452 19.3297 40.6048 18.9816L40.6001 18.9C40.6001 18.541 40.8703 18.2451 41.2185 18.2047L41.3001 18.2H49.7001Z" fill="#2F3A43"/>
    <path d="M16.1001 18.2C16.4867 18.2 16.8001 18.5134 16.8001 18.9C16.8001 19.2589 16.5299 19.5548 16.1817 19.5952L16.1001 19.6H7.0001V46.1999H32.9001C33.2591 46.1999 33.555 46.4702 33.5954 46.8183L33.6001 46.8999C33.6001 47.2589 33.3299 47.5548 32.9817 47.5952L32.9001 47.5999H6.3001C5.94111 47.5999 5.64524 47.3297 5.60481 46.9816L5.6001 46.8999V18.9C5.6001 18.541 5.87033 18.2451 6.21846 18.2047L6.3001 18.2H16.1001Z" fill="#2F3A43"/>
    <path d="M49.0001 46.8999C49.0001 46.5133 49.3135 46.1999 49.7001 46.1999C50.0867 46.1999 50.4001 46.5133 50.4001 46.8999C50.4001 47.2865 50.0867 47.5999 49.7001 47.5999C49.3135 47.5999 49.0001 47.2865 49.0001 46.8999Z" fill="#2F3A43"/>
    <path d="M49.2417 18.371C49.5338 18.1178 49.9759 18.1494 50.2291 18.4415C50.4628 18.7112 50.4539 19.1086 50.2214 19.3673L50.1586 19.429L29.1586 37.629C28.9252 37.8312 28.5904 37.8546 28.3333 37.6962L28.2587 37.6433L5.85871 19.4433C5.55866 19.1995 5.51306 18.7586 5.75685 18.4586C5.98188 18.1816 6.37484 18.1214 6.66995 18.3056L6.74154 18.3567L28.6854 36.1858L49.2417 18.371Z" fill="#2F3A43"/>
    <path d="M34.7652 32.3768C34.4762 32.1199 34.0338 32.1459 33.7769 32.4349C33.5398 32.7016 33.5438 33.0991 33.773 33.3607L33.8351 33.4231L46.4351 44.6231C46.724 44.88 47.1665 44.854 47.4233 44.565C47.6604 44.2983 47.6564 43.9008 47.4272 43.6392L47.3652 43.5768L34.7652 32.3768Z" fill="#2F3A43"/>
</svg>
