<svg width="56" height="56" viewBox="0 0 56 56" fill="none" xmlns="http://www.w3.org/2000/svg">
    <path fill-rule="evenodd" clip-rule="evenodd" d="M4.2 23.8002C4.585 23.8002 4.9 23.4852 4.9 23.1002C4.9 22.7152 4.585 22.4002 4.2 22.4002C3.815 22.4002 3.5 22.7152 3.5 23.1002C3.5 23.4852 3.815 23.8002 4.2 23.8002Z" fill="#E0F0FE"/>
    <path fill-rule="evenodd" clip-rule="evenodd" d="M32.2 4.20017C32.585 4.20017 32.9 3.88517 32.9 3.50017C32.9 3.11517 32.585 2.80017 32.2 2.80017C31.815 2.80017 31.5 3.11517 31.5 3.50017C31.5 3.88517 31.815 4.20017 32.2 4.20017Z" fill="#E0F0FE"/>
    <path fill-rule="evenodd" clip-rule="evenodd" d="M46.2 43.4002C46.585 43.4002 46.9 43.0852 46.9 42.7002C46.9 42.3152 46.585 42.0002 46.2 42.0002C45.815 42.0002 45.5 42.3152 45.5 42.7002C45.5 43.0852 45.815 43.4002 46.2 43.4002Z" fill="#E0F0FE"/>
    <path fill-rule="evenodd" clip-rule="evenodd" d="M51.8 21.0002C52.185 21.0002 52.5 20.6852 52.5 20.3002C52.5 19.9152 52.185 19.6002 51.8 19.6002C51.415 19.6002 51.1 19.9152 51.1 20.3002C51.1 20.6852 51.415 21.0002 51.8 21.0002Z" fill="#E0F0FE"/>
    <path fill-rule="evenodd" clip-rule="evenodd" d="M25.2 51.1002C25.585 51.1002 25.9 50.7852 25.9 50.4002C25.9 50.0152 25.585 49.7002 25.2 49.7002C24.815 49.7002 24.5 50.0152 24.5 50.4002C24.5 50.7852 24.815 51.1002 25.2 51.1002Z" fill="#E0F0FE"/>
    <path fill-rule="evenodd" clip-rule="evenodd" d="M27.9999 18.4033C23.8789 18.4033 20.54 21.7422 20.54 25.8632C20.54 26.1346 20.557 26.4156 20.586 26.6882C20.587 26.6974 20.5878 26.7066 20.5884 26.7157C21.0102 30.4304 24.1675 33.3232 27.9999 33.3232C32.121 33.3232 35.4599 29.9843 35.4599 25.8632C35.4599 21.7422 32.121 18.4033 27.9999 18.4033ZM19.1913 26.8112C19.192 26.8225 19.1929 26.8339 19.1942 26.8452C19.6824 31.2727 23.4372 34.7232 27.9999 34.7232C32.8942 34.7232 36.8599 30.7575 36.8599 25.8632C36.8599 20.969 32.8942 17.0033 27.9999 17.0033C23.1057 17.0033 19.14 20.969 19.14 25.8632C19.14 26.1825 19.1594 26.5045 19.1913 26.8112Z" fill="#0079D0"/>
    <path fill-rule="evenodd" clip-rule="evenodd" d="M27.9999 34.7232C21.6311 34.7232 16.4632 39.8853 16.4632 46.2599C16.4632 46.6465 16.1498 46.9599 15.7632 46.9599C15.3766 46.9599 15.0632 46.6465 15.0632 46.2599C15.0632 39.1117 20.8584 33.3232 27.9999 33.3232C35.1417 33.3232 40.9367 39.1182 40.9367 46.2599C40.9367 46.6465 40.6233 46.9599 40.2367 46.9599C39.8501 46.9599 39.5367 46.6465 39.5367 46.2599C39.5367 39.8913 34.3685 34.7232 27.9999 34.7232Z" fill="#0079D0"/>
    <path d="M40.1758 15.1778C40.949 15.1778 41.5758 14.551 41.5758 13.7778C41.5758 13.0046 40.949 12.3778 40.1758 12.3778C39.4026 12.3778 38.7758 13.0046 38.7758 13.7778C38.7758 14.551 39.4026 15.1778 40.1758 15.1778Z" fill="#0079D0"/>
    <path fill-rule="evenodd" clip-rule="evenodd" d="M44.8312 24.002C45.2178 24.0052 45.5286 24.3211 45.5255 24.7077L45.4755 30.8635C45.4724 31.2501 45.1565 31.561 44.7699 31.5578C44.3833 31.5547 44.0724 31.2388 44.0756 30.8522L44.1255 24.6963C44.1286 24.3098 44.4446 23.9989 44.8312 24.002Z" fill="#2F3A43"/>
    <path fill-rule="evenodd" clip-rule="evenodd" d="M10.2042 8.606C10.3365 8.47322 10.5166 8.39906 10.7041 8.40016L44.942 8.59994C45.1279 8.60103 45.3057 8.67599 45.4362 8.80829C45.5667 8.9406 45.6393 9.11939 45.6379 9.30525L45.5442 21.6232C45.5413 22.0098 45.2255 22.3208 44.8389 22.3178C44.4524 22.3149 44.1413 21.9991 44.1443 21.6125L44.2326 9.99583L11.4065 9.80428L11.5997 30.8514C11.6033 31.238 11.2928 31.5543 10.9062 31.5578C10.5196 31.5614 10.2033 31.2509 10.1998 30.8643L10 9.10657C9.99828 8.91911 10.0718 8.73879 10.2042 8.606Z" fill="#2F3A43"/>
    <path fill-rule="evenodd" clip-rule="evenodd" d="M10.3982 30.3695C10.53 30.2342 10.7108 30.1578 10.8997 30.1578H17.0556C17.4422 30.1578 17.7556 30.4712 17.7556 30.8578C17.7556 31.2444 17.4422 31.5578 17.0556 31.5578H11.1952L6.55853 36.3199H13.3721C13.7586 36.3199 14.0721 36.6333 14.0721 37.0199C14.0721 37.4065 13.7586 37.7199 13.3721 37.7199H4.89997C4.61855 37.7199 4.36448 37.5514 4.25506 37.2921C4.14563 37.0328 4.20211 36.7332 4.39843 36.5316L10.3982 30.3695Z" fill="#2F3A43"/>
    <path d="M13.9964 37.0199C13.9964 37.3648 13.7169 37.6443 13.3721 37.6443C13.0272 37.6443 12.7477 37.3648 12.7477 37.0199C12.7477 36.6751 13.0272 36.3956 13.3721 36.3956C13.7169 36.3956 13.9964 36.6751 13.9964 37.0199Z" fill="#2F3A43"/>
    <path d="M13.9964 37.0199C13.9964 37.3648 13.7169 37.6443 13.3721 37.6443C13.0272 37.6443 12.7477 37.3648 12.7477 37.0199C12.7477 36.6751 13.0272 36.3956 13.3721 36.3956C13.7169 36.3956 13.9964 36.6751 13.9964 37.0199Z" fill="#2F3A43"/>
    <path d="M13.9964 37.0199C13.9964 37.3648 13.7169 37.6443 13.3721 37.6443C13.0272 37.6443 12.7477 37.3648 12.7477 37.0199C12.7477 36.6751 13.0272 36.3956 13.3721 36.3956C13.7169 36.3956 13.9964 36.6751 13.9964 37.0199Z" fill="#2F3A43"/>
    <path d="M13.9964 37.0199C13.9964 37.3648 13.7169 37.6443 13.3721 37.6443C13.0272 37.6443 12.7477 37.3648 12.7477 37.0199C12.7477 36.6751 13.0272 36.3956 13.3721 36.3956C13.7169 36.3956 13.9964 36.6751 13.9964 37.0199Z" fill="#2F3A43"/>
    <path d="M13.9964 37.0199C13.9964 37.3648 13.7169 37.6443 13.3721 37.6443C13.0272 37.6443 12.7477 37.3648 12.7477 37.0199C12.7477 36.6751 13.0272 36.3956 13.3721 36.3956C13.7169 36.3956 13.9964 36.6751 13.9964 37.0199Z" fill="#2F3A43"/>
    <path fill-rule="evenodd" clip-rule="evenodd" d="M15.75 37.0199C15.75 36.6333 16.0634 36.3199 16.45 36.3199H17.2179C17.6045 36.3199 17.9179 36.6333 17.9179 37.0199C17.9179 37.4065 17.6045 37.7199 17.2179 37.7199H16.45C16.0634 37.7199 15.75 37.4065 15.75 37.0199Z" fill="#2F3A43"/>
    <path fill-rule="evenodd" clip-rule="evenodd" d="M37.9197 30.8578C37.9197 30.4712 38.2331 30.1578 38.6197 30.1578H44.7756C44.9581 30.1578 45.1333 30.2291 45.2641 30.3565L51.5885 36.5185C51.7924 36.7173 51.8557 37.0198 51.7484 37.2836C51.6411 37.5474 51.3847 37.7199 51.1 37.7199H38.782C38.3954 37.7199 38.082 37.4065 38.082 37.0199C38.082 36.6333 38.3954 36.3199 38.782 36.3199H49.3785L44.4909 31.5578H38.6197C38.2331 31.5578 37.9197 31.2444 37.9197 30.8578Z" fill="#2F3A43"/>
    <path fill-rule="evenodd" clip-rule="evenodd" d="M13.44 12.3778C13.44 11.9912 13.7534 11.6778 14.14 11.6778H32.62C33.0066 11.6778 33.32 11.9912 33.32 12.3778C33.32 12.7644 33.0066 13.0778 32.62 13.0778H14.14C13.7534 13.0778 13.44 12.7644 13.44 12.3778Z" fill="#2F3A43"/>
    <path fill-rule="evenodd" clip-rule="evenodd" d="M13.44 15.462C13.44 15.0754 13.7534 14.762 14.14 14.762H20.3021C20.6887 14.762 21.0021 15.0754 21.0021 15.462C21.0021 15.8486 20.6887 16.162 20.3021 16.162H14.14C13.7534 16.162 13.44 15.8486 13.44 15.462Z" fill="#2F3A43"/>
    <path fill-rule="evenodd" clip-rule="evenodd" d="M13.44 18.5399C13.44 18.1533 13.7534 17.8399 14.14 17.8399H17.2179C17.6045 17.8399 17.9179 18.1533 17.9179 18.5399C17.9179 18.9265 17.6045 19.2399 17.2179 19.2399H14.14C13.7534 19.2399 13.44 18.9265 13.44 18.5399Z" fill="#2F3A43"/>
</svg>
