<svg width="106" height="81" viewBox="0 0 106 81" fill="none" xmlns="http://www.w3.org/2000/svg">
<rect y="0.787109" width="106" height="80" rx="24" fill="white"/>
<path d="M52.28 60.0271C50.52 60.5471 48.44 60.7871 46 60.7871H34C31.56 60.7871 29.48 60.5471 27.72 60.0271C28.16 54.8271 33.5 50.7271 40 50.7271C46.5 50.7271 51.84 54.8271 52.28 60.0271Z" fill="white"/>
<path d="M46 20.7871H34C24 20.7871 20 24.7871 20 34.7871V46.7871C20 54.3471 22.28 58.4871 27.72 60.0271C28.16 54.8271 33.5 50.7271 40 50.7271C46.5 50.7271 51.84 54.8271 52.28 60.0271C57.72 58.4871 60 54.3471 60 46.7871V34.7871C60 24.7871 56 20.7871 46 20.7871ZM40 45.1271C36.04 45.1271 32.84 41.9071 32.84 37.9471C32.84 33.9871 36.04 30.7871 40 30.7871C43.96 30.7871 47.16 33.9871 47.16 37.9471C47.16 41.9071 43.96 45.1271 40 45.1271Z" fill="white"/>
<path d="M47.16 37.9471C47.16 41.9071 43.96 45.1271 40 45.1271C36.04 45.1271 32.84 41.9071 32.84 37.9471C32.84 33.9871 36.04 30.7871 40 30.7871C43.96 30.7871 47.16 33.9871 47.16 37.9471Z" fill="white"/>
<path d="M52.28 60.0271C50.52 60.5471 48.44 60.7871 46 60.7871H34C31.56 60.7871 29.48 60.5471 27.72 60.0271M52.28 60.0271C51.84 54.8271 46.5 50.7271 40 50.7271C33.5 50.7271 28.16 54.8271 27.72 60.0271M52.28 60.0271C57.72 58.4871 60 54.3471 60 46.7871V34.7871C60 24.7871 56 20.7871 46 20.7871H34C24 20.7871 20 24.7871 20 34.7871V46.7871C20 54.3471 22.28 58.4871 27.72 60.0271M40 45.1271C36.04 45.1271 32.84 41.9071 32.84 37.9471C32.84 33.9871 36.04 30.7871 40 30.7871C43.96 30.7871 47.16 33.9871 47.16 37.9471C47.16 41.9071 43.96 45.1271 40 45.1271Z" stroke="#08416A" stroke-width="4" stroke-linecap="round" stroke-linejoin="round"/>
<path d="M78.28 60.0271C76.52 60.5471 74.44 60.7871 72 60.7871H60C57.56 60.7871 55.48 60.5471 53.72 60.0271C54.16 54.8271 59.5 50.7271 66 50.7271C72.5 50.7271 77.84 54.8271 78.28 60.0271Z" fill="white"/>
<path d="M72 20.7871H60C50 20.7871 46 24.7871 46 34.7871V46.7871C46 54.3471 48.28 58.4871 53.72 60.0271C54.16 54.8271 59.5 50.7271 66 50.7271C72.5 50.7271 77.84 54.8271 78.28 60.0271C83.72 58.4871 86 54.3471 86 46.7871V34.7871C86 24.7871 82 20.7871 72 20.7871ZM66 45.1271C62.04 45.1271 58.84 41.9071 58.84 37.9471C58.84 33.9871 62.04 30.7871 66 30.7871C69.96 30.7871 73.16 33.9871 73.16 37.9471C73.16 41.9071 69.96 45.1271 66 45.1271Z" fill="white"/>
<path d="M73.16 37.9471C73.16 41.9071 69.96 45.1271 66 45.1271C62.04 45.1271 58.84 41.9071 58.84 37.9471C58.84 33.9871 62.04 30.7871 66 30.7871C69.96 30.7871 73.16 33.9871 73.16 37.9471Z" fill="white"/>
<path d="M78.28 60.0271C76.52 60.5471 74.44 60.7871 72 60.7871H60C57.56 60.7871 55.48 60.5471 53.72 60.0271M78.28 60.0271C77.84 54.8271 72.5 50.7271 66 50.7271C59.5 50.7271 54.16 54.8271 53.72 60.0271M78.28 60.0271C83.72 58.4871 86 54.3471 86 46.7871V34.7871C86 24.7871 82 20.7871 72 20.7871H60C50 20.7871 46 24.7871 46 34.7871V46.7871C46 54.3471 48.28 58.4871 53.72 60.0271M66 45.1271C62.04 45.1271 58.84 41.9071 58.84 37.9471C58.84 33.9871 62.04 30.7871 66 30.7871C69.96 30.7871 73.16 33.9871 73.16 37.9471C73.16 41.9071 69.96 45.1271 66 45.1271Z" stroke="#08416A" stroke-width="4" stroke-linecap="round" stroke-linejoin="round"/>
</svg>
