<svg width="196" height="197" viewBox="0 0 196 197" fill="none" xmlns="http://www.w3.org/2000/svg">
<g filter="url(#filter0_d_7671_18864)">
<path d="M11.5059 34.1804L24.9727 158.374C25.0929 159.482 26.0961 160.278 27.2028 160.144L152.531 144.884C153.577 144.757 154.344 143.841 154.287 142.79L149.335 52.4315C149.277 51.3674 148.398 50.5359 147.333 50.5407C128.477 50.6257 92.5136 50.7314 85.535 50.532C78.7429 50.3379 71.7226 39.4804 68.5523 33.1127C68.2055 32.4161 67.5015 31.9648 66.7233 31.9648H13.4942C12.3043 31.9648 11.3776 32.9975 11.5059 34.1804Z" fill="url(#paint0_linear_7671_18864)"/>
</g>
<mask id="mask0_7671_18864" style="mask-type:alpha" maskUnits="userSpaceOnUse" x="11" y="31" width="144" height="130">
<path d="M11.5059 34.1804L24.9727 158.374C25.0929 159.482 26.0961 160.278 27.2028 160.144L152.531 144.884C153.577 144.757 154.344 143.841 154.287 142.79L149.335 52.4315C149.277 51.3674 148.398 50.5359 147.333 50.5407C128.477 50.6257 92.5136 50.7314 85.535 50.532C78.7429 50.3379 71.7226 39.4804 68.5523 33.1127C68.2055 32.4161 67.5015 31.9648 66.7233 31.9648H13.4942C12.3043 31.9648 11.3776 32.9975 11.5059 34.1804Z" fill="url(#paint1_linear_7671_18864)"/>
</mask>
<g mask="url(#mask0_7671_18864)">
<g filter="url(#filter1_f_7671_18864)">
<ellipse cx="104.85" cy="129.221" rx="91.4858" ry="59.4736" transform="rotate(-5.2541 104.85 129.221)" fill="#8A391A"/>
</g>
<g filter="url(#filter2_f_7671_18864)">
<ellipse cx="104.85" cy="2.63904" rx="91.4858" ry="59.4736" transform="rotate(-5.2541 104.85 2.63904)" fill="#FFE89C"/>
</g>
</g>
<path d="M22.8857 52.2818L160.594 45.25L158.015 123.9L28.5592 151.506L22.8857 52.2818Z" fill="#CECDCD"/>
<path d="M23.3438 54.7364L161.052 47.7734L158.473 125.653L29.0172 152.989L23.3438 54.7364Z" fill="#D9D9D9"/>
<path d="M24.791 55.8927L162.499 48.9297L159.92 126.81L30.4644 154.145L24.791 55.8927Z" fill="#CDCDCD"/>
<path d="M25.8193 56.7325L163.527 49.7695L160.948 127.649L31.4927 154.985L25.8193 56.7325Z" fill="#E4E4E4"/>
<path d="M26.5898 57.2482L164.298 50.2852L161.719 128.165L32.2633 155.501L26.5898 57.2482Z" fill="#D9D9D9"/>
<path d="M30.8226 54.7348L166.21 51.6406L157.527 134.72L29.0176 152.987L30.8226 54.7348Z" fill="#5779D0"/>
<rect x="13.6064" y="103.531" width="46.2076" height="54.6947" transform="rotate(-17.2274 13.6064 103.531)" fill="#E6E6E6"/>
<rect x="18.6914" y="106.398" width="37.9562" height="34.6555" transform="rotate(-17.2274 18.6914 106.398)" fill="#C0C0C0"/>
<path d="M35.2059 59.6336L166.725 56.5396L160.363 136.525L31.8535 154.792L35.2059 59.6336Z" fill="url(#paint2_linear_7671_18864)"/>
<path d="M36.3641 60.5007L167.883 57.4068L161.521 137.392L33.0117 155.659L36.3641 60.5007Z" fill="url(#paint3_linear_7671_18864)"/>
<path d="M45.2633 61.6211L172.656 63.9415L165.693 139.242L31.8535 155.231L45.2633 61.6211Z" fill="url(#paint4_linear_7671_18864)"/>
<path d="M45.8235 62.4922L167.535 64.7092L160.883 136.652L33.0117 151.928L45.8235 62.4922Z" fill="url(#paint5_linear_7671_18864)"/>
<path d="M47.7076 63.375L156.665 65.5481L150.71 136.069L36.2383 151.042L47.7076 63.375Z" fill="#ECECEC"/>
<path d="M49.2554 64.2578L158.213 66.4309L152.258 136.951L37.7861 151.925L49.2554 64.2578Z" fill="#E2E2E2"/>
<path d="M50.5455 65.3203L159.503 67.4934L153.548 138.014L39.0762 152.987L50.5455 65.3203Z" fill="#D1D1D1"/>
<g filter="url(#filter3_d_7671_18864)">
<path d="M57.4972 69.2622L31.0377 158.973C30.8376 159.651 31.3857 160.317 32.0898 160.251L162.51 148.072C162.91 148.035 163.249 147.762 163.37 147.379L190.07 62.9969C190.281 62.3312 189.762 61.6601 189.064 61.6966L58.404 68.5464C57.9806 68.5686 57.6172 68.8555 57.4972 69.2622Z" fill="url(#paint6_linear_7671_18864)"/>
</g>
<mask id="mask1_7671_18864" style="mask-type:alpha" maskUnits="userSpaceOnUse" x="30" y="61" width="161" height="100">
<path d="M57.4972 69.2622L31.0377 158.973C30.8376 159.651 31.3857 160.317 32.0898 160.251L162.51 148.072C162.91 148.035 163.249 147.762 163.37 147.379L190.07 62.9969C190.281 62.3312 189.762 61.6601 189.064 61.6966L58.404 68.5464C57.9806 68.5686 57.6172 68.8555 57.4972 69.2622Z" fill="url(#paint7_linear_7671_18864)"/>
</mask>
<g mask="url(#mask1_7671_18864)">
<g filter="url(#filter4_f_7671_18864)">
<path d="M181.069 154.002C182.438 168.897 146.847 184.346 101.572 188.509C56.2983 192.673 18.486 183.974 17.1164 169.079C15.7467 154.185 51.3383 138.736 96.6124 134.572C141.887 130.409 179.699 139.108 181.069 154.002Z" fill="#8A391A"/>
</g>
<g filter="url(#filter5_f_7671_18864)">
<ellipse cx="149.767" cy="27.139" rx="91.4858" ry="59.4736" transform="rotate(-5.2541 149.767 27.139)" fill="#FFE89C"/>
</g>
</g>
<defs>
<filter id="filter0_d_7671_18864" x="8.49414" y="31.9648" width="146.796" height="132.195" filterUnits="userSpaceOnUse" color-interpolation-filters="sRGB">
<feFlood flood-opacity="0" result="BackgroundImageFix"/>
<feColorMatrix in="SourceAlpha" type="matrix" values="0 0 0 0 0 0 0 0 0 0 0 0 0 0 0 0 0 0 127 0" result="hardAlpha"/>
<feOffset dx="-1" dy="2"/>
<feGaussianBlur stdDeviation="1"/>
<feComposite in2="hardAlpha" operator="out"/>
<feColorMatrix type="matrix" values="0 0 0 0 0 0 0 0 0 0 0 0 0 0 0 0 0 0 0.14 0"/>
<feBlend mode="normal" in2="BackgroundImageFix" result="effect1_dropShadow_7671_18864"/>
<feBlend mode="normal" in="SourceGraphic" in2="effect1_dropShadow_7671_18864" result="shape"/>
</filter>
<filter id="filter1_f_7671_18864" x="6.58301" y="62.3984" width="196.534" height="133.645" filterUnits="userSpaceOnUse" color-interpolation-filters="sRGB">
<feFlood flood-opacity="0" result="BackgroundImageFix"/>
<feBlend mode="normal" in="SourceGraphic" in2="BackgroundImageFix" result="shape"/>
<feGaussianBlur stdDeviation="3.5" result="effect1_foregroundBlur_7671_18864"/>
</filter>
<filter id="filter2_f_7671_18864" x="-43.417" y="-114.184" width="296.534" height="233.645" filterUnits="userSpaceOnUse" color-interpolation-filters="sRGB">
<feFlood flood-opacity="0" result="BackgroundImageFix"/>
<feBlend mode="normal" in="SourceGraphic" in2="BackgroundImageFix" result="shape"/>
<feGaussianBlur stdDeviation="28.5" result="effect1_foregroundBlur_7671_18864"/>
</filter>
<filter id="filter3_d_7671_18864" x="27.9961" y="60.6953" width="165.121" height="104.562" filterUnits="userSpaceOnUse" color-interpolation-filters="sRGB">
<feFlood flood-opacity="0" result="BackgroundImageFix"/>
<feColorMatrix in="SourceAlpha" type="matrix" values="0 0 0 0 0 0 0 0 0 0 0 0 0 0 0 0 0 0 127 0" result="hardAlpha"/>
<feOffset dy="2"/>
<feGaussianBlur stdDeviation="1.5"/>
<feComposite in2="hardAlpha" operator="out"/>
<feColorMatrix type="matrix" values="0 0 0 0 0 0 0 0 0 0 0 0 0 0 0 0 0 0 0.08 0"/>
<feBlend mode="normal" in2="BackgroundImageFix" result="effect1_dropShadow_7671_18864"/>
<feBlend mode="normal" in="SourceGraphic" in2="effect1_dropShadow_7671_18864" result="shape"/>
</filter>
<filter id="filter4_f_7671_18864" x="-39.9219" y="76.5312" width="278.028" height="170.02" filterUnits="userSpaceOnUse" color-interpolation-filters="sRGB">
<feFlood flood-opacity="0" result="BackgroundImageFix"/>
<feBlend mode="normal" in="SourceGraphic" in2="BackgroundImageFix" result="shape"/>
<feGaussianBlur stdDeviation="28.5" result="effect1_foregroundBlur_7671_18864"/>
</filter>
<filter id="filter5_f_7671_18864" x="1.5" y="-89.6836" width="296.534" height="233.645" filterUnits="userSpaceOnUse" color-interpolation-filters="sRGB">
<feFlood flood-opacity="0" result="BackgroundImageFix"/>
<feBlend mode="normal" in="SourceGraphic" in2="BackgroundImageFix" result="shape"/>
<feGaussianBlur stdDeviation="28.5" result="effect1_foregroundBlur_7671_18864"/>
</filter>
<linearGradient id="paint0_linear_7671_18864" x1="82.8273" y1="31.9648" x2="22.2028" y2="174.263" gradientUnits="userSpaceOnUse">
<stop stop-color="#D19952"/>
<stop offset="1" stop-color="#E6C88F"/>
</linearGradient>
<linearGradient id="paint1_linear_7671_18864" x1="82.8273" y1="31.9648" x2="22.2028" y2="174.263" gradientUnits="userSpaceOnUse">
<stop stop-color="#D19952"/>
<stop offset="1" stop-color="#E6C88F"/>
</linearGradient>
<linearGradient id="paint2_linear_7671_18864" x1="31.8535" y1="68.8171" x2="171.921" y2="137.09" gradientUnits="userSpaceOnUse">
<stop offset="0.0001" stop-color="#E9F1F3"/>
<stop offset="1" stop-color="#E4E4E4"/>
</linearGradient>
<linearGradient id="paint3_linear_7671_18864" x1="33.0117" y1="69.6843" x2="173.079" y2="137.957" gradientUnits="userSpaceOnUse">
<stop offset="0.0001" stop-color="#DAE4E8"/>
<stop offset="1" stop-color="#E4E4E4"/>
</linearGradient>
<linearGradient id="paint4_linear_7671_18864" x1="31.8535" y1="73.319" x2="172.656" y2="148.522" gradientUnits="userSpaceOnUse">
<stop offset="0.0001" stop-color="#DEE4E6"/>
<stop offset="1" stop-color="#E4E4E4"/>
</linearGradient>
<linearGradient id="paint5_linear_7671_18864" x1="33.0117" y1="73.6684" x2="167.535" y2="145.518" gradientUnits="userSpaceOnUse">
<stop offset="0.0001" stop-color="#D5D5D5"/>
<stop offset="1" stop-color="#E4E4E4"/>
</linearGradient>
<linearGradient id="paint6_linear_7671_18864" x1="196.674" y1="56.1942" x2="-8.63012" y2="185.543" gradientUnits="userSpaceOnUse">
<stop offset="0.326098" stop-color="#E6C78C"/>
<stop offset="1" stop-color="#9C4921"/>
</linearGradient>
<linearGradient id="paint7_linear_7671_18864" x1="196.674" y1="56.1943" x2="30.6201" y2="160.389" gradientUnits="userSpaceOnUse">
<stop stop-color="#E5CB94"/>
<stop offset="1" stop-color="#9C4921"/>
</linearGradient>
</defs>
</svg>
