<svg width="48" height="48" viewBox="0 0 48 48" fill="none" xmlns="http://www.w3.org/2000/svg">
<path d="M28.0365 4.20578L32.1431 12.4191C32.7031 13.5624 34.1965 14.6591 35.4565 14.8691L42.8998 16.1058C47.6598 16.8991 48.7798 20.3524 45.3498 23.7591L39.5631 29.5458C38.5831 30.5258 38.0465 32.4158 38.3498 33.7691L40.0065 40.9325C41.3131 46.6025 38.3031 48.7958 33.2865 45.8325L26.3098 41.7025C25.0498 40.9558 22.9731 40.9558 21.6898 41.7025L14.7131 45.8325C9.71979 48.7958 6.68645 46.5791 7.99312 40.9325L9.64979 33.7691C9.95312 32.4158 9.41645 30.5258 8.43645 29.5458L2.64979 23.7591C-0.756879 20.3524 0.339788 16.8991 5.09979 16.1058L12.5431 14.8691C13.7798 14.6591 15.2731 13.5624 15.8331 12.4191L19.9398 4.20578C22.1798 -0.250885 25.8198 -0.250885 28.0365 4.20578Z" fill="url(#paint0_linear_8204_1714)"/>
<defs>
<linearGradient id="paint0_linear_8204_1714" x1="24.0049" y1="0.863281" x2="24.0049" y2="47.1526" gradientUnits="userSpaceOnUse">
<stop stop-color="#FADB3C"/>
<stop offset="1" stop-color="#F2903A"/>
</linearGradient>
</defs>
</svg>
