<svg width="57" height="20" viewBox="0 0 57 20" fill="none" xmlns="http://www.w3.org/2000/svg">
<rect x="2" width="55" height="20" fill="white"/>
<path d="M56.8326 0H35.3829C35.4544 0.0239143 35.523 0.0559193 35.5873 0.0953971L36.127 0.383973C36.4139 0.518133 36.66 0.726372 36.8403 0.98736C36.914 1.10184 37.0281 1.3284 36.952 1.47865C36.8759 1.66945 36.8403 1.96995 36.6501 2.04627C36.4001 2.14855 36.1256 2.17508 35.8608 2.12259C35.7069 2.11569 35.5544 2.09006 35.4066 2.04627C35.9725 2.27284 36.5003 2.53756 36.8759 3.06702C36.914 3.14333 37.0661 3.18149 37.2159 3.18149C37.254 3.18149 37.254 3.25543 37.254 3.29358C37.1779 3.3699 37.1042 3.40806 37.1398 3.52015H37.254C37.4418 3.44384 37.4037 3.06702 37.6676 3.18149C37.76 3.23851 37.8273 3.32876 37.8555 3.43382C37.8838 3.53888 37.871 3.6508 37.8198 3.74672C37.678 3.88423 37.5262 4.01098 37.3657 4.12592C37.3481 4.16782 37.3391 4.21283 37.3391 4.25829C37.3391 4.30375 37.3481 4.34875 37.3657 4.39065C37.4611 4.52606 37.526 4.68068 37.5559 4.84379C37.6676 5.10851 37.7057 5.4114 37.8198 5.67374C37.9978 6.2236 38.0869 6.79848 38.0837 7.37658C38.0837 7.67708 37.9315 7.94181 38.0457 8.24469C38.1452 8.52783 38.2845 8.79525 38.4593 9.03887C38.61 9.23088 38.7482 9.43243 38.873 9.64226C39.0989 10.0215 39.515 10.3983 39.3271 10.8538C39.213 11.1185 38.7993 11.0923 38.5354 11.2306C38.3096 11.419 38.4974 11.7219 38.6091 11.9103C38.7993 12.2514 38.3833 12.4779 38.1194 12.5924C38.1954 12.7045 38.3571 12.6663 38.3833 12.7427C38.4213 12.9311 38.6091 13.0456 38.4974 13.234C38.3452 13.4605 37.8935 13.575 38.1194 13.9137C38.2715 14.1784 38.174 14.4717 38.0837 14.746C38.0265 14.89 37.9343 15.0173 37.8156 15.1164C37.6968 15.2155 37.5552 15.2833 37.4037 15.3136C37.172 15.3809 36.9278 15.3931 36.6905 15.3494C36.6179 15.3068 36.5366 15.2815 36.4527 15.2755C35.8132 15.1991 35.1713 15.0107 34.5317 15.0107C34.3504 15.039 34.1731 15.0895 34.0039 15.161C33.8401 15.2823 33.6873 15.418 33.5475 15.5664L33.4666 15.657L33.4167 15.7167C33.4167 15.7167 33.3953 15.7405 33.3858 15.7548C33.2762 15.8928 33.1769 16.0387 33.0886 16.1913L33.072 16.2199L33.0434 16.2724C32.9238 16.4928 32.8281 16.7254 32.7581 16.9664C32.5014 17.8321 32.6131 18.5738 32.7938 18.7551C32.8437 18.8052 34.0372 19.1748 34.8693 19.5445C35.1767 19.6754 35.4746 19.8276 35.7609 20H56.8231L56.8326 0Z" fill="#E1000F"/>
<path d="M36.6581 7.29547C36.8079 7.33363 37.0337 7.33363 37.0337 7.40995C36.96 7.71283 36.5059 7.78676 36.2801 8.08965H36.1683C36.0542 8.16597 36.0922 8.35438 35.9781 8.35438C35.8645 8.32906 35.7457 8.34249 35.6405 8.39254C35.7078 8.47619 35.7947 8.54178 35.8934 8.58341C35.9922 8.62504 36.0997 8.6414 36.2063 8.63103C36.2378 8.64268 36.2652 8.66336 36.2851 8.6905C36.305 8.71764 36.3164 8.75004 36.3181 8.78366C36.3473 8.78079 36.3744 8.7672 36.3942 8.74551C36.4322 8.74551 36.4703 8.74551 36.4703 8.78366V8.93391C36.3561 9.08417 36.1683 9.01023 36.0162 9.04601C36.3004 9.12242 36.5997 9.12242 36.8839 9.04601C37.1217 8.97207 36.8839 8.59287 37.0337 8.40446C36.96 8.40446 37.0337 8.29237 36.96 8.29237C37.0337 8.21605 37.1098 8.10158 37.1859 8.05388C37.2298 8.05514 37.2733 8.04558 37.3127 8.02604C37.3521 8.0065 37.3861 7.97757 37.4117 7.94178C37.4117 7.86547 37.2596 7.82731 37.2976 7.75337C37.5235 7.60074 37.7113 7.37417 37.6376 7.1476C37.5996 7.03551 37.2976 7.03551 37.1098 6.95919C36.8969 6.91566 36.6764 6.92881 36.4703 6.99735C36.2773 7.0292 36.0878 7.07951 35.9044 7.1476C35.6483 7.23575 35.4076 7.36371 35.1912 7.52681C35.4601 7.42504 35.7368 7.34529 36.0185 7.28831C36.2311 7.26347 36.4461 7.26587 36.6581 7.29547Z" fill="#9D9D9C"/>
<path d="M24.667 17.6485C24.8809 17.4338 25.0973 17.2049 25.3137 16.9735C25.7009 16.5147 26.1204 16.0843 26.569 15.6857C26.6991 15.5674 26.8364 15.4575 26.9803 15.3565C27.0159 15.3208 27.0159 15.2445 27.054 15.2063C26.8661 15.2826 26.752 15.4448 26.5642 15.5092C26.5262 15.5092 26.4905 15.471 26.5262 15.4329L26.9303 15.13H26.9042C26.8661 15.13 26.8661 15.0942 26.8661 15.056C26.3764 14.9797 25.9984 15.3208 25.6608 15.6213C25.5847 15.6594 25.5086 15.5855 25.4729 15.5855C24.9071 15.7739 24.4934 16.2652 23.9276 16.4918V16.4083C23.7017 16.4846 23.4806 16.6206 23.25 16.673C22.9356 16.7236 22.6164 16.7364 22.299 16.7112C21.8383 16.7641 21.3811 16.8437 20.9296 16.9497H20.8915C20.6429 17.0142 20.4033 17.1095 20.1783 17.2335L20.1521 17.2478C20.1359 17.2702 20.1184 17.2917 20.0998 17.3122C20.0293 17.4074 19.9413 17.4884 19.8407 17.5507C19.6158 17.6923 19.4063 17.8569 19.2154 18.042C19.1984 18.055 19.1774 18.0618 19.156 18.0611C18.9539 18.2566 18.7542 18.4522 18.5473 18.643C18.5119 18.6603 18.4718 18.6653 18.4332 18.6573C18.4403 18.6448 18.4482 18.6329 18.457 18.6215C18.4879 18.5667 18.5188 18.5142 18.5521 18.4617C18.5854 18.4093 18.6258 18.3449 18.6638 18.2852C18.7019 18.2256 18.7684 18.1302 18.8255 18.0467C18.832 18.0401 18.8357 18.0311 18.8357 18.0217C18.8357 18.0123 18.832 18.0033 18.8255 17.9967C18.8112 17.9837 18.7924 17.9768 18.7732 17.9776C18.9658 17.7957 19.1779 17.6358 19.4056 17.5006C19.3794 17.5006 19.3438 17.5006 19.3628 17.4648C19.3818 17.429 19.4056 17.3957 19.427 17.3599L19.4413 17.3265L19.4127 17.2979C19.3496 17.3337 19.29 17.3752 19.2344 17.4219C19.1441 17.503 19.0727 17.6604 18.9372 17.6604H18.8802C18.8657 17.6589 18.8519 17.654 18.8398 17.6461C18.8452 17.6345 18.8515 17.6233 18.8588 17.6127L18.8754 17.5817L18.8897 17.5555L18.9158 17.5078L18.9372 17.472C18.9515 17.4434 18.9681 17.4171 18.9848 17.3885L19.0086 17.348L19.049 17.2812C19.068 17.2478 19.049 17.2239 19.0204 17.212C19.0897 17.1203 19.1771 17.044 19.2772 16.9878C19.4199 16.9139 19.5649 16.8257 19.7099 16.7493L19.7717 16.6945C19.5599 16.7672 19.3585 16.8674 19.1726 16.9926C19.1498 17.0009 19.1283 17.0121 19.1084 17.026C19.091 17.0299 19.0729 17.0289 19.0561 17.023C19.0393 17.0171 19.0244 17.0065 19.0133 16.9926C19.0105 16.9833 19.0105 16.9733 19.0133 16.964C19.0513 16.8877 19.1631 16.8495 19.2511 16.7756C19.2891 16.7756 19.3248 16.7756 19.3248 16.8137C20.5325 15.8598 22.1777 16.0983 23.5828 15.6046L23.9228 15.3661C24.1106 15.2922 24.2604 15.1037 24.4887 14.9893C24.7922 14.7783 25.0172 14.4721 25.1282 14.1188C25.1237 14.0907 25.1104 14.0648 25.0902 14.0448C24.6145 14.5574 24.0508 14.9799 23.4259 15.2922C22.6342 15.7071 21.7617 15.6308 20.9391 15.7453C20.9771 15.669 21.0508 15.669 21.1269 15.669C21.1269 15.5569 21.203 15.5187 21.2791 15.4424H21.3908C21.4288 15.4424 21.4288 15.3661 21.4669 15.3661C21.5406 15.3661 21.6547 15.3303 21.6167 15.3303C21.5049 15.1777 21.2791 15.4424 21.0889 15.3303C21.1649 15.254 21.1269 15.1395 21.203 15.1037H21.3528C21.3608 15.0459 21.3875 14.9923 21.4288 14.9511C21.9947 14.6101 22.5225 14.3477 23.0479 14.0448C22.9362 14.0448 22.8601 14.1569 22.7483 14.083C22.822 14.083 22.7483 13.9685 22.822 13.9685C23.2381 13.8564 23.5757 13.6275 23.9918 13.4772C23.8396 13.4772 23.7279 13.5917 23.5757 13.4772C23.6518 13.4391 23.6898 13.3651 23.8135 13.3651V13.2507C23.8135 13.2125 23.8515 13.2125 23.8895 13.2125C23.8607 13.2085 23.834 13.1951 23.8135 13.1743C23.8515 13.1004 23.9656 13.1362 24.0512 13.0622C24.0155 13.0622 23.9395 13.0622 23.9395 13.0241C24.0691 12.8904 24.2436 12.8096 24.4292 12.7975C24.3912 12.7212 24.2771 12.7975 24.2771 12.7212C24.2771 12.683 24.3151 12.683 24.3531 12.683H24.2771C24.2034 12.6449 24.2414 12.571 24.2414 12.5328C24.4792 12.2681 24.4792 11.927 24.579 11.6265C24.541 11.6265 24.5053 11.6265 24.5053 11.5884C24.1273 12.0033 23.5258 12.1536 22.9599 12.3038H22.7555C22.6519 12.3436 22.5411 12.3608 22.4304 12.3542C22.3197 12.3476 22.2117 12.3175 22.1136 12.2657C21.977 12.1722 21.8497 12.066 21.7332 11.9485C21.4351 11.7603 21.1159 11.6082 20.7822 11.4953C19.846 11.1885 18.8636 11.048 17.8792 11.0804C18.2953 10.8419 18.7518 10.8419 19.1987 10.7012C19.8383 10.5128 20.4422 10.2862 21.1198 10.3244C20.9953 10.3053 20.8686 10.3053 20.7441 10.3244C20.2163 10.2862 19.6885 10.4364 19.1227 10.5628C18.747 10.6368 18.4094 10.7894 18.0314 10.8657C17.8055 10.9397 17.6914 11.1662 17.4275 11.1305V11.016C17.8055 10.5628 18.2573 10.1097 18.854 10.062C19.534 9.94753 20.1735 10.062 20.8511 10.1359C21.3325 10.1885 21.8093 10.277 22.2776 10.4007C22.4678 10.4007 22.5153 10.7036 22.6556 10.7417C22.8934 10.818 23.1073 10.7417 23.3332 10.892C23.3332 10.818 23.2952 10.7417 23.3332 10.6654C23.4854 10.5151 23.6732 10.7036 23.823 10.6272C24.1249 10.4388 23.5591 10.1002 23.4093 9.83544C23.4133 9.80651 23.4267 9.7797 23.4473 9.75912C23.7469 10.0238 23.9751 10.3267 24.3508 10.5151C24.5386 10.5915 24.9903 10.7036 24.9166 10.477C24.7288 10.062 24.3508 9.72096 24.0488 9.34414V9.19151C23.9751 9.19151 23.9751 9.15335 23.9371 9.11758V8.96494C23.7849 8.88862 23.823 8.73837 23.7469 8.62628C23.6351 8.43549 23.7112 8.17076 23.6351 7.94419C23.5662 7.73528 23.516 7.52057 23.4854 7.30265C23.3974 6.65633 23.2452 6.0911 23.1596 5.48533C23.0836 4.76985 23.5733 4.19986 23.9133 3.55831C24.1586 3.07286 24.5216 2.65706 24.9689 2.34915C25.1169 1.89921 25.3602 1.48672 25.6822 1.14C26.0084 0.803874 26.4057 0.545513 26.8448 0.383973C27.1752 0.237702 27.5133 0.109523 27.8576 0L2 0V20H20.3067C21.0199 19.4825 21.7332 19.2368 22.7412 18.7408C23.2191 18.507 24.3008 18.011 24.667 17.6485ZM18.8802 14.9344C18.8065 14.9344 18.6424 14.9726 18.6923 14.8963C18.7304 14.7078 18.9943 14.7078 19.1441 14.6315C19.2201 14.5934 19.3319 14.5194 19.408 14.5576C19.484 14.6697 19.5958 14.6315 19.6719 14.7078C19.4389 14.9344 19.1369 14.8223 18.8802 14.9344ZM13.11 14.1021C13.0892 14.0826 13.0758 14.0564 13.072 14.0281C13.5346 13.4262 13.9383 12.7809 14.2773 12.1011C14.7554 11.8182 15.1856 11.4608 15.5517 11.0422C16.1455 10.3596 16.8606 9.79348 17.6605 9.37276C17.9814 9.27128 18.3274 9.28392 18.64 9.40854C18.5283 9.56117 18.3381 9.52302 18.1883 9.64703C18.1679 9.64955 18.1471 9.64766 18.1274 9.64149C18.1077 9.63532 18.0896 9.62501 18.0742 9.61126C18.0886 9.5962 18.0995 9.57812 18.1061 9.55832C18.1127 9.53852 18.1148 9.5175 18.1122 9.49678C17.7366 9.91176 17.2088 10.1026 16.9069 10.5938C16.6881 10.9707 16.5383 11.4477 16.0486 11.5717C15.8964 11.6098 16.0866 11.4572 16.0105 11.4953C14.8384 12.2132 14.0134 13.0837 13.11 14.1021ZM16.2364 11.6098C16.1984 11.6838 16.1579 11.6933 16.1223 11.7601C16.0938 11.8279 16.0401 11.8818 15.9725 11.9103C15.9345 11.9103 15.8964 11.9103 15.8964 11.8722C15.9147 11.795 15.9519 11.7236 16.0046 11.6645C16.0573 11.6053 16.1239 11.5603 16.1984 11.5335C16.2364 11.5335 16.2364 11.5717 16.2364 11.6098ZM17.9862 17.2716C17.9637 17.3146 17.932 17.352 17.8935 17.3813C17.9411 17.3813 17.9743 17.4124 17.9434 17.441C17.8631 17.5261 17.7659 17.5935 17.6581 17.6389C17.6384 17.6417 17.6184 17.6417 17.5987 17.6389C17.5535 17.6842 17.506 17.7272 17.4584 17.7701C17.4109 17.813 17.2064 17.7701 17.2706 17.7248C17.3348 17.6795 17.4537 17.5483 17.5488 17.4624C17.6011 17.4124 17.6581 17.367 17.7057 17.3122C17.7289 17.2802 17.756 17.2514 17.7865 17.2263C17.8174 17.2144 18.0171 17.1977 17.9862 17.2716ZM17.311 16.9592C17.1708 17.0594 17.0305 17.1596 16.8807 17.2454C16.7309 17.3313 16.5502 17.4124 16.3838 17.4839C16.3766 17.4741 16.3662 17.4673 16.3544 17.4646C16.3426 17.462 16.3302 17.4638 16.3196 17.4696C16.1809 17.5478 16.0537 17.645 15.9416 17.7582C15.923 17.7744 15.9055 17.792 15.8893 17.8106L15.837 17.8631C15.8108 17.8893 15.7847 17.9156 15.7538 17.9513C15.741 17.9722 15.724 17.99 15.7038 18.0038C15.6801 18.0181 15.6159 18.0181 15.623 17.9752L15.5564 18.0086C15.5359 18.0183 15.516 18.0294 15.497 18.042C15.4885 18.0395 15.4794 18.0395 15.4708 18.042C15.4624 18.0387 15.4531 18.0387 15.4447 18.042C15.3971 18.0777 15.352 18.1159 15.3068 18.1565C15.2278 18.2294 15.1554 18.3092 15.0905 18.3949L15.0786 18.4093V18.4259L15.0524 18.4617C15.0439 18.4702 15.0332 18.476 15.0215 18.4784L15.0072 18.4546C15.0027 18.4486 14.9988 18.4422 14.9954 18.4355C14.9954 18.4164 14.974 18.3973 14.9644 18.3759C14.9636 18.3695 14.9636 18.3631 14.9644 18.3568C15.0049 18.3139 15.0429 18.2685 15.0833 18.2208L15.1214 18.1731L15.1237 18.1254L15.1451 18.0968C15.1879 18.042 15.226 17.9895 15.264 17.937L15.2807 17.9132C15.2997 17.887 15.3163 17.8583 15.333 17.8321C15.3478 17.8074 15.3613 17.782 15.3734 17.7558V17.7415L15.409 17.6532C15.4081 17.6445 15.4081 17.6357 15.409 17.627C15.4083 17.6135 15.4083 17.6 15.409 17.5865L15.4233 17.5316C15.4252 17.5275 15.4262 17.523 15.4262 17.5185C15.4262 17.514 15.4252 17.5095 15.4233 17.5054C15.4666 17.4323 15.5167 17.3637 15.5731 17.3003L15.5564 17.3122C15.5018 17.3456 15.4661 17.3957 15.4162 17.4314C15.3662 17.4672 15.2997 17.4124 15.3472 17.3766C15.3774 17.3522 15.4059 17.3259 15.4328 17.2979C15.4928 17.2302 15.5571 17.1664 15.6254 17.1071C15.6682 17.0761 15.7062 17.0475 15.7395 17.0188C15.7462 17.0146 15.7519 17.0089 15.7561 17.0021C15.7827 16.9687 15.8113 16.9368 15.8417 16.9067C16.2007 16.5562 16.8094 16.5729 17.2849 16.3511C17.4727 16.2747 17.6986 16.3868 17.8864 16.3511C18.0046 16.3398 18.1234 16.3656 18.2264 16.425C17.9292 16.5562 17.6201 16.766 17.311 16.9592ZM18.0813 14.3358C18.0457 14.2976 18.1954 14.3358 18.2335 14.2595H17.9292C17.8911 14.2595 17.8911 14.2213 17.8911 14.1832C17.7033 14.2213 17.4774 14.2976 17.2896 14.3358C17.0257 14.4097 16.7999 14.5981 16.4979 14.6745C16.0842 14.8271 15.7443 15.1658 15.2925 15.3184C15.2545 15.3184 15.2545 15.2802 15.2545 15.2421C15.2925 15.1276 15.4423 15.0918 15.5184 14.9773C15.5184 14.9392 15.5184 14.901 15.4804 14.901C15.7823 14.486 16.1936 14.2595 16.574 13.9184V13.8063C16.6857 13.6537 16.8736 13.5798 16.9496 13.389C17.0268 13.231 17.1625 13.1095 17.3277 13.0503C17.2896 13.0122 17.2135 13.0122 17.2135 12.9358C17.0638 12.9358 16.9116 13.0122 16.7618 12.8977C16.8285 12.8337 16.9103 12.7877 16.9996 12.7641C16.9651 12.7574 16.9345 12.7378 16.914 12.7093C16.8759 12.633 16.9877 12.5495 17.1018 12.5209C17.254 12.4827 17.4418 12.4827 17.5559 12.3682C17.292 12.3325 16.9901 12.4446 16.7262 12.2943C16.8882 11.8086 17.2282 11.4029 17.6772 11.1591C17.7152 11.1591 17.7913 11.1591 17.7913 11.1972C17.7945 11.2862 17.7658 11.3734 17.7104 11.443C17.655 11.5126 17.5766 11.5599 17.4893 11.5764C17.7986 11.6146 18.102 11.6907 18.3928 11.803C18.3547 11.8769 18.281 11.8412 18.243 11.8412C18.4308 11.9533 18.6567 11.8769 18.8445 12.0296C18.7328 12.1417 18.6068 12.0296 18.5069 12.0296C19.6742 12.3682 20.9177 12.633 21.8972 13.389C21.0697 13.7676 20.196 14.0347 19.2986 14.1832C19.1965 14.1895 19.094 14.1766 18.9967 14.145C18.9967 14.1832 18.9967 14.2595 18.9586 14.2595C18.8285 14.2438 18.6968 14.2706 18.583 14.3358C18.5072 14.382 18.4201 14.406 18.3315 14.4052C18.2428 14.4043 18.1562 14.3787 18.0813 14.331V14.3358Z" fill="#000091"/>
</svg>
