<svg width="156" height="156" viewBox="0 0 156 156" fill="none" xmlns="http://www.w3.org/2000/svg">
<g clip-path="url(#clip0_8618_17006)">
<path d="M78.0014 155.443C120.772 155.443 155.444 120.771 155.444 78.0005C155.444 35.23 120.772 0.557617 78.0014 0.557617C35.2309 0.557617 0.558594 35.23 0.558594 78.0005C0.558594 120.771 35.2309 155.443 78.0014 155.443Z" stroke="#08416A"/>
<path d="M39.207 92.4859H46.7441V81.265H48.5225L55.9748 92.4859H64.7821L55.7208 79.91C58.6848 78.3857 60.3785 75.6758 60.3785 72.0766C60.3785 66.2757 56.1018 62.8459 49.1576 62.8459H39.207V92.4859ZM49.6234 69.0703C51.5288 69.0703 52.6297 70.2982 52.6297 71.9919C52.6297 73.8127 51.5288 75.0406 49.6234 75.0406H46.7441V69.0703H49.6234ZM81.7898 86.2615C76.8357 86.2615 73.2365 82.6623 73.2365 77.6659C73.2365 72.7118 76.624 69.0703 81.3664 69.0703C84.3304 69.0703 86.5746 70.5099 87.9719 72.5424L93.9422 67.9694C91.1899 64.3702 86.7863 61.999 81.3664 61.999C71.9239 61.999 65.4878 69.1973 65.4878 77.6659C65.4878 86.1344 72.0933 93.3327 81.7898 93.3327C87.3791 93.3327 91.9944 91.0039 94.7891 87.3201V74.1938H80.4348V80.5875H87.252V84.4831C85.8547 85.584 83.9916 86.2615 81.7898 86.2615ZM98.2264 88.3363C100.936 91.4273 104.366 93.3327 109.828 93.3327C115.418 93.3327 120.075 89.9453 120.16 84.0173C120.16 73.6433 107.118 75.1253 107.118 70.7217C107.118 69.4937 108.177 68.5622 109.701 68.5622C111.691 68.5622 113.554 70.0442 115.29 72.0766L120.753 67.0802C118 64.0315 114.359 61.999 109.659 61.999C103.646 61.999 99.4967 66.1063 99.4967 71.0604C99.4967 81.2227 112.538 79.7407 112.538 84.2714C112.538 85.9651 111.48 86.7273 109.744 86.7273C107.584 86.7273 105.255 85.3723 103.689 83.2975L98.2264 88.3363Z" fill="#08416A"/>
<path d="M25.0484 106.376L24.4831 105.239L21.5293 106.706L21.1128 105.868C21.093 105.828 21.0731 105.788 21.0484 105.738L23.0352 102.325L22.3608 100.968L20.2783 104.765C19.6071 104.19 18.7701 104.083 17.9219 104.505C16.6845 105.12 16.3525 106.404 17.0813 107.871L18.0631 109.847L25.0484 106.376ZM18.0196 107.331C17.6675 106.622 17.8633 106.015 18.492 105.702C19.1606 105.37 19.7631 105.581 20.1151 106.289L20.5613 107.187L18.4658 108.229L18.0196 107.331Z" fill="#08416A"/>
<path d="M14.1768 96.8866L12.0156 96.1942L12.4006 97.4048L14.5145 97.9484L14.1768 96.8866ZM18.8893 93.248L18.5056 94.247C19.0562 94.4343 19.5152 94.8847 19.7211 95.5324C20.0487 96.5625 19.6698 97.4664 18.5254 97.9123L17.269 93.9621C17.0962 93.9703 16.8418 94.0161 16.5977 94.0938C15.2385 94.5261 14.5336 95.8026 15.003 97.2786C15.5435 98.9776 17.1525 99.5883 18.7559 99.0784C20.3169 98.5819 21.2964 97.066 20.7087 95.2184C20.3913 94.2203 19.7171 93.5343 18.8893 93.248ZM15.923 97.0094C15.6494 96.1493 16.1134 95.4756 16.7756 95.2416L17.6908 98.1192C16.8085 98.2127 16.1764 97.8058 15.923 97.0094Z" fill="#08416A"/>
<path d="M13.6247 90.9385L14.6452 90.7584L14.4612 89.716L18.9713 88.9199L18.7698 87.7788L14.2599 88.5747L13.9364 86.7422L12.9159 86.9223L13.2393 88.7548L12.5699 88.8729C11.9445 88.9833 11.4945 88.678 11.3958 88.1184C11.3415 87.8111 11.3977 87.5523 11.5075 87.3406L10.4676 87.0262C10.3481 87.3754 10.2901 87.8157 10.3791 88.3205C10.6057 89.6043 11.6301 90.2156 12.8043 90.0084L13.4407 89.8961L13.6247 90.9385Z" fill="#08416A"/>
<path d="M11.4729 79.4019L9.57031 78.1649L9.62294 79.434L11.5191 80.5153L11.4729 79.4019ZM16.9773 77.1328L16.344 77.9955C16.8259 78.3212 17.15 78.8766 17.1782 79.5557C17.223 80.6357 16.6193 81.4079 15.3978 81.5366L15.2261 77.395C15.0573 77.3575 14.7998 77.3346 14.5437 77.3452C13.1187 77.4044 12.1026 78.4502 12.1667 79.9978C12.2406 81.7791 13.6321 82.7919 15.3133 82.7223C16.9498 82.6544 18.294 81.45 18.2136 79.5127C18.1702 78.4663 17.7004 77.627 16.9773 77.1328ZM13.1251 79.9803C13.0878 79.0785 13.7127 78.5507 14.4131 78.4994L14.5383 81.5165C13.6625 81.3743 13.1598 80.8153 13.1251 79.9803Z" fill="#08416A"/>
<path d="M18.1552 73.3358L18.268 72.1937L14.5421 71.8256C14.0938 71.4902 13.7628 70.9872 13.8329 70.2775C13.8559 70.0447 13.9067 69.8706 13.9685 69.6976L12.8485 69.5869C12.7899 69.7266 12.7402 69.8897 12.7227 70.0672C12.6549 70.7547 12.9172 71.2733 13.3113 71.7041L12.6792 71.6417L12.5664 72.7838L18.1552 73.3358Z" fill="#08416A"/>
<path d="M19.605 60.3012L18.758 60.9554C19.1312 61.4015 19.2894 62.0247 19.1289 62.6853C18.8737 63.7356 18.0802 64.311 16.8708 64.0974L17.8494 60.0695C17.6976 59.9867 17.4564 59.8938 17.2074 59.8333C15.8214 59.4964 14.556 60.2211 14.1903 61.7261C13.7694 63.4585 14.8269 64.8164 16.4619 65.2136C18.0536 65.6004 19.6781 64.814 20.1358 62.93C20.3832 61.9121 20.1635 60.9758 19.605 60.3012ZM15.1162 61.9741C15.3294 61.097 16.0757 60.7623 16.7631 60.9065L16.0502 63.8407C15.2477 63.4623 14.9189 62.7861 15.1162 61.9741Z" fill="#08416A"/>
<path d="M21.7455 57.0178L22.1835 55.9569L18.6817 54.511C18.3392 54.056 18.0707 53.451 18.3641 52.7403C18.6703 51.9987 19.3518 51.7497 20.1758 52.0899L23.2552 53.3615L23.6976 52.2903L20.5768 51.0018C19.0732 50.3809 17.9392 50.9374 17.4672 52.0805C17.161 52.8221 17.247 53.4604 17.4974 54.0219L16.9927 53.8136L16.5547 54.8744L21.7455 57.0178Z" fill="#08416A"/>
<path d="M24.3573 47.0021C25.5342 47.7047 26.4815 47.4656 27.1554 46.3366C27.3781 45.9634 27.4902 45.667 27.5316 45.3802L26.661 44.8605C26.6251 45.0727 26.5321 45.3155 26.3378 45.6409C26.018 46.1767 25.602 46.3955 24.9513 46.0071L22.6932 44.6592L23.6471 43.0615L22.7573 42.5303L21.8035 44.128L20.5979 43.4084L20.0039 44.4035L21.2095 45.1231L20.6669 46.032L21.5568 46.5632L22.0993 45.6543L24.3573 47.0021Z" fill="#08416A"/>
<path d="M25.2412 36.9272C25.5001 36.5923 25.4361 36.0921 25.1011 35.8331C24.766 35.5741 24.2658 35.6381 24.0069 35.9732C23.7479 36.3081 23.812 36.8083 24.147 37.0673C24.482 37.3262 24.9822 37.2623 25.2412 36.9272ZM30.3173 41.5837L31.0193 40.6757L26.5761 37.2409L25.8741 38.1489L30.3173 41.5837Z" fill="#08416A"/>
<path d="M37.3346 32.5208L36.2711 32.6396C36.3582 33.2148 36.1695 33.8295 35.6893 34.3105C34.9256 35.0754 33.9485 35.1548 33.0261 34.3439L35.955 31.4108C35.8682 31.2612 35.7105 31.0564 35.5292 30.8753C34.5198 29.8675 33.0621 29.8292 31.9678 30.9252C30.708 32.1868 30.9063 33.8965 32.0969 35.0853C33.256 36.2427 35.0526 36.4147 36.4226 35.0427C37.1626 34.3015 37.4613 33.3873 37.3346 32.5208ZM32.6301 31.6181C33.2678 30.9794 34.0795 31.0812 34.592 31.5615L32.4583 33.6983C31.9692 32.958 32.0397 32.2094 32.6301 31.6181Z" fill="#08416A"/>
<path d="M40.9726 30.79L41.8795 30.0868L36.7586 23.4824L35.8516 24.1856L40.9726 30.79Z" fill="#08416A"/>
<path d="M51.5994 25.1927C52.0741 26.2377 53.3108 26.3735 54.8832 25.6593C56.4354 24.9542 57.133 23.6337 56.6307 22.5279C56.2114 21.6047 55.2432 21.2245 53.9242 21.8236L52.5343 22.4549C52.2604 22.5794 52.0935 22.5083 51.9967 22.2953C51.9276 22.1432 51.9498 21.9495 52.0522 21.7438C52.2634 21.6969 52.4802 21.6352 52.7034 21.5338C53.9714 20.9577 54.3591 19.7903 53.9075 18.7961C53.7968 18.5526 53.6356 18.3322 53.4475 18.1606L54.4518 17.7043L54.0463 16.8115L52.1593 17.6687C51.8153 17.6658 51.4482 17.747 51.0627 17.922C49.8149 18.4889 49.4227 19.6462 49.8696 20.6302C50.1277 21.1984 50.6164 21.6005 51.2149 21.7325C50.9436 22.1862 50.8983 22.5985 51.0826 23.0043C51.2025 23.268 51.4385 23.4912 51.7493 23.5826C51.4337 24.1543 51.3644 24.6753 51.5994 25.1927ZM52.3494 20.7277C51.6899 21.0272 51.1063 20.7661 50.8436 20.1878C50.5856 19.6196 50.7775 19.0185 51.437 18.719C52.0964 18.4193 52.6754 18.6704 52.9335 19.2384C53.1962 19.8168 53.0088 20.4282 52.3494 20.7277ZM52.5292 24.599C52.3633 24.2338 52.4316 23.8723 52.6143 23.5201L54.2375 22.7828C55.0187 22.428 55.429 22.6576 55.6271 23.0939C55.8991 23.6925 55.4904 24.3555 54.4759 24.8162C53.5121 25.254 52.7873 25.1672 52.5292 24.599Z" fill="#08416A"/>
<path d="M61.0195 13.6741L61.7723 11.5332L60.5515 11.884L59.9486 13.9818L61.0195 13.6741ZM64.5241 18.4871L63.5362 18.0753C63.3335 18.6205 62.8704 19.0667 62.2171 19.2543C61.1783 19.5528 60.2854 19.1486 59.8719 17.992L63.8558 16.8473C63.8526 16.6744 63.8139 16.4188 63.7431 16.1725C63.3491 14.8016 62.093 14.0613 60.6043 14.489C58.8909 14.9814 58.2351 16.5727 58.6998 18.1898C59.1522 19.7641 60.6399 20.7858 62.5034 20.2504C63.51 19.9611 64.2147 19.3065 64.5241 18.4871ZM60.8476 15.4162C61.715 15.1669 62.3755 15.6496 62.5908 16.3181L59.6885 17.1521C59.6198 16.2675 60.0444 15.6469 60.8476 15.4162Z" fill="#08416A"/>
<path d="M68.4356 18.7213L69.574 18.5764L69.0958 14.8182C69.3213 14.2952 69.714 13.7623 70.4767 13.6652C71.2726 13.5639 71.8265 14.0326 71.939 14.9169L72.3597 18.222L73.5091 18.0757L73.0829 14.7263C72.8776 13.1125 71.8325 12.4031 70.6055 12.5592C69.8097 12.6605 69.2978 13.0514 68.934 13.547L68.8651 13.0053L67.7266 13.1502L68.4356 18.7213Z" fill="#08416A"/>
<path d="M81.2313 11.5354L82.595 9.72134L81.3252 9.6875L80.1175 11.5057L81.2313 11.5354ZM83.1207 17.1814L82.3032 16.4908C81.9454 16.9494 81.3693 17.235 80.6898 17.217C79.6093 17.1881 78.88 16.5334 78.8346 15.306L82.9783 15.4164C83.0272 15.2505 83.0676 14.9952 83.0744 14.739C83.1124 13.3133 82.138 12.2283 80.5897 12.1871C78.8075 12.1395 77.7023 13.4588 77.6575 15.1408C77.6138 16.7783 78.724 18.2012 80.6622 18.2528C81.7093 18.2808 82.5785 17.8692 83.1207 17.1814ZM80.5419 13.1444C81.4442 13.1685 81.9282 13.8279 81.9318 14.5302L78.9132 14.4498C79.1145 13.5856 79.7066 13.1222 80.5419 13.1444Z" fill="#08416A"/>
<path d="M86.832 18.6155L87.9638 18.8057L88.5845 15.1135C88.9496 14.6891 89.474 14.393 90.1772 14.5112C90.408 14.5501 90.5782 14.6126 90.7467 14.6861L90.9333 13.5762C90.7979 13.5083 90.6385 13.4476 90.4627 13.418C89.7814 13.3035 89.2462 13.5299 88.7896 13.8938L88.8949 13.2675L87.763 13.0771L86.832 18.6155Z" fill="#08416A"/>
<path d="M96.0525 20.9179C96.7112 21.1264 97.4746 21.0407 98.005 20.6943L97.8133 21.2998L98.9076 21.6461L100.027 18.1083C100.4 16.9291 99.8723 15.8272 98.4275 15.37C97.4713 15.0673 96.5787 15.229 95.8989 15.7152L96.5186 16.6008C96.9646 16.2627 97.5053 16.1417 98.0897 16.3266C98.7802 16.5451 99.1412 17.1035 98.9327 17.7621L98.8454 18.0384L97.023 17.7772C95.8257 17.6088 95.014 17.9947 94.7585 18.8021C94.4593 19.7477 94.9902 20.5818 96.0525 20.9179ZM95.8768 19.1092C96.0046 18.7056 96.3715 18.5061 97.0778 18.6011L98.5999 18.8139L98.3075 19.7381C97.8274 20.1473 97.206 20.3012 96.5367 20.0894C95.9843 19.9146 95.7458 19.5236 95.8768 19.1092Z" fill="#08416A"/>
<path d="M102.949 23.3826L103.991 23.8642L107.498 16.2785L106.456 15.7969L102.949 23.3826Z" fill="#08416A"/>
<path d="M115.29 27.3255C114.269 28.6065 114.264 30.3832 115.65 31.4875C116.277 31.9874 116.928 32.1359 117.607 32.0355L117.252 32.4798L118.167 33.209L123.376 26.6735L122.46 25.9443L120.398 28.5324C120.344 27.8485 120.055 27.247 119.427 26.747C118.042 25.6428 116.311 26.0445 115.29 27.3255ZM116.241 28.0824C116.928 27.2197 118.022 27.0089 118.867 27.6825C119.416 28.1201 119.694 28.7547 119.635 29.4909L118.371 31.0768C117.706 31.3026 117.003 31.1838 116.437 30.7324C115.591 30.0588 115.553 28.9451 116.241 28.0824Z" fill="#08416A"/>
<path d="M125.23 39.2559L125.155 38.1883C124.577 38.2515 123.971 38.0376 123.511 37.5377C122.777 36.743 122.738 35.7635 123.588 34.8755L126.397 37.9235C126.549 37.8429 126.761 37.6938 126.949 37.5201C127.998 36.5535 128.097 35.0987 127.047 33.9597C125.838 32.6488 124.122 32.776 122.886 33.9164C121.681 35.0266 121.435 36.8144 122.748 38.24C123.458 39.0102 124.36 39.3466 125.23 39.2559ZM126.328 34.5929C126.939 35.2564 126.803 36.0632 126.303 36.5554L124.256 34.3349C125.016 33.8771 125.76 33.9783 126.328 34.5929Z" fill="#08416A"/>
<path d="M130.676 47.431C130.367 48.1945 130.37 48.9922 130.823 49.8242C131.323 50.7443 132.327 51.2133 133.301 50.6959C134.995 49.7747 133.347 47.538 134.335 47.0003C134.668 46.8193 135.07 46.9051 135.326 47.3749C135.549 47.7861 135.49 48.2618 135.282 48.7177L136.251 49.0781C136.53 48.4701 136.537 47.6422 136.142 46.9179C135.604 45.9292 134.586 45.5955 133.773 46.0374C132.031 46.9852 133.709 49.2059 132.71 49.749C132.338 49.9513 131.9 49.8468 131.639 49.3671C131.373 48.8777 131.424 48.3424 131.661 47.7958L130.676 47.431Z" fill="#08416A"/>
<path d="M140.896 56.0254L143.09 56.6082L142.644 55.4186L140.506 54.9819L140.896 56.0254ZM136.373 59.8967L136.706 58.8796C136.147 58.7202 135.665 58.2935 135.427 57.657C135.048 56.6446 135.381 55.7228 136.501 55.2199L137.955 59.1019C138.127 59.085 138.378 59.0264 138.619 58.9366C139.954 58.4364 140.595 57.126 140.051 55.6755C139.426 54.0059 137.788 53.4768 136.212 54.067C134.678 54.6413 133.776 56.2046 134.456 58.0203C134.824 59.0012 135.531 59.6523 136.373 59.8967ZM139.146 55.9907C139.463 56.836 139.033 57.5322 138.383 57.7993L137.324 54.9712C138.201 54.8335 138.853 55.2081 139.146 55.9907Z" fill="#08416A"/>
<path d="M137.83 66.234C137.601 65.1664 138.255 64.2282 139.343 63.9941C140.422 63.7622 141.414 64.3469 141.641 65.4035C141.777 66.0354 141.58 66.6022 141.22 66.9985L142.086 67.7357C142.653 67.0894 142.914 66.1787 142.697 65.1764C142.302 63.3353 140.692 62.4733 139.09 62.8175C137.489 63.1617 136.376 64.6092 136.772 66.4503C136.989 67.4634 137.598 68.1759 138.382 68.5319L138.868 67.5043C138.377 67.2906 137.964 66.855 137.83 66.234Z" fill="#08416A"/>
<path d="M140.525 76.1602C139.557 76.2168 138.949 75.7278 138.898 74.8713C138.846 73.9925 139.395 73.447 140.363 73.3903L143.566 73.2027L143.498 72.0459L140.35 72.2302C138.671 72.3286 137.726 73.355 137.819 74.9345C137.911 76.5029 138.969 77.4121 140.648 77.3138L143.797 77.1295L143.729 75.9725L140.525 76.1602Z" fill="#08416A"/>
<path d="M137.992 82.1455L137.891 83.2888L141.62 83.618C142.073 83.9489 142.408 84.4483 142.346 85.1588C142.325 85.3919 142.276 85.5665 142.216 85.7402L143.337 85.8392C143.394 85.6988 143.442 85.5352 143.458 85.3577C143.519 84.6695 143.251 84.1536 142.853 83.7269L143.485 83.7827L143.586 82.6395L137.992 82.1455Z" fill="#08416A"/>
<path d="M143.493 92.1055C143.406 92.5198 143.681 92.9424 144.096 93.0298C144.51 93.1172 144.933 92.842 145.02 92.4277C145.108 92.0134 144.832 91.5908 144.418 91.5034C144.003 91.416 143.581 91.6912 143.493 92.1055ZM136.898 90.1211L136.66 91.2441L142.155 92.4038L142.392 91.2808L136.898 90.1211Z" fill="#08416A"/>
<path d="M137.043 97.2114C135.746 96.7699 134.869 97.2015 134.446 98.4462C134.306 98.8576 134.258 99.171 134.278 99.46L135.237 99.7866C135.228 99.5717 135.268 99.3146 135.391 98.956C135.592 98.3652 135.953 98.0644 136.67 98.3084L139.159 99.1554L138.56 100.917L139.542 101.251L140.141 99.4892L141.471 99.9414L141.844 98.8443L140.514 98.3921L140.855 97.3899L139.874 97.0562L139.533 98.0584L137.043 97.2114Z" fill="#08416A"/>
<path d="M136.84 109.332L137.898 111.34L138.471 110.206L137.343 108.338L136.84 109.332ZM130.928 108.63L131.902 108.185C131.64 107.666 131.628 107.023 131.934 106.417C132.421 105.452 133.325 105.072 134.454 105.555L132.585 109.255C132.714 109.37 132.927 109.515 133.157 109.631C134.429 110.274 135.826 109.856 136.525 108.474C137.328 106.883 136.608 105.32 135.105 104.561C133.644 103.822 131.883 104.219 131.009 105.949C130.537 106.884 130.538 107.846 130.928 108.63ZM135.679 108.022C135.273 108.827 134.469 108.983 133.833 108.687L135.195 105.992C135.89 106.543 136.056 107.276 135.679 108.022Z" fill="#08416A"/>
<path fill-rule="evenodd" clip-rule="evenodd" d="M25.6953 115.886C37.2423 132.709 56.6115 143.743 78.5578 143.743C100.504 143.743 119.873 132.709 131.42 115.886H124.504C113.791 129.459 97.1919 138.171 78.5578 138.171C59.9238 138.171 43.3247 129.459 32.6116 115.886H25.6953Z" fill="#08416A"/>
</g>
<defs>
<clipPath id="clip0_8618_17006">
<rect width="156" height="156" fill="white"/>
</clipPath>
</defs>
</svg>
