<svg width="156" height="156" viewBox="0 0 156 156" fill="none" xmlns="http://www.w3.org/2000/svg">
<path d="M59.9766 101.4H61.6472L62.3885 99.3718H65.4864L66.2276 101.4H67.8983L64.9664 93.5998H62.9085L59.9766 101.4ZM62.8753 98.0235L63.9374 95.0929L64.9995 98.0235H62.8753ZM69.2411 101.4H70.6462V97.8007C70.8564 97.4441 71.299 97.0652 71.9849 97.0652C72.2394 97.0652 72.4275 97.0987 72.6045 97.1432V95.7504C72.4717 95.7058 72.3058 95.6724 72.1177 95.6724C71.4871 95.6724 71.0113 95.9621 70.6462 96.341V95.7838H69.2411V101.4ZM74.4571 99.3495C74.4571 100.72 75.121 101.511 76.515 101.511C76.9797 101.511 77.3116 101.456 77.5882 101.333V100.096C77.4001 100.174 77.1456 100.219 76.7584 100.219C76.2052 100.219 75.8733 99.9735 75.8733 99.3495V97.0541H77.5771V95.7838H75.8733V94.3798H74.4571V95.7838H73.4171V97.0541H74.4571V99.3495ZM79.7803 101.534C80.3003 101.534 80.7539 101.099 80.7539 100.564C80.7539 100.04 80.3003 99.5947 79.7803 99.5947C79.2382 99.5947 78.8067 100.04 78.8067 100.564C78.8067 101.099 79.2382 101.534 79.7803 101.534ZM90.3358 99.1712C90.3358 98.3132 89.9044 97.6112 89.1188 97.2101C89.6941 96.8089 90.0039 96.1961 90.0039 95.4718C90.0039 94.1904 88.9529 93.377 87.5367 93.377C86.2865 93.377 85.4124 93.923 84.8482 94.8478L86.0652 95.6055C86.3861 95.0484 86.8065 94.7141 87.4261 94.7141C88.0346 94.7141 88.4771 95.0484 88.4771 95.639C88.4771 96.2407 88.0014 96.6084 87.3486 96.6084H86.1758V97.9455H87.4482C88.2669 97.9455 88.8201 98.3912 88.8201 99.1044C88.8201 99.8287 88.2558 100.286 87.5035 100.286C86.7401 100.286 86.2201 99.9067 85.7886 99.0487L84.4831 99.8621C85.1137 100.976 86.0541 101.623 87.5146 101.623C89.1299 101.623 90.3358 100.653 90.3358 99.1712ZM91.2993 101.4H96.6542V100.04H93.1248L94.9946 98.2241C95.758 97.4775 96.455 96.653 96.455 95.5832C96.455 94.2461 95.3708 93.377 94.021 93.377C92.6712 93.377 91.7086 94.0455 91.0559 95.1152L92.2729 95.8618C92.6823 95.1709 93.1359 94.7141 93.8772 94.7141C94.4857 94.7141 94.9282 95.0929 94.9282 95.7392C94.9282 96.3744 94.5521 96.7978 93.9546 97.4107L91.2993 100.04V101.4Z" fill="#08416A"/>
<path d="M77.4479 132.322C107.236 132.322 131.384 108.001 131.384 78.0002C131.384 47.9993 107.236 23.6787 77.4479 23.6787C47.6598 23.6787 23.5117 47.9993 23.5117 78.0002C23.5117 108.001 47.6598 132.322 77.4479 132.322Z" stroke="#08416A" stroke-width="0.5"/>
<path d="M77.4483 155.443C119.916 155.443 154.342 120.771 154.342 78.0005C154.342 35.23 119.916 0.557617 77.4483 0.557617C34.9812 0.557617 0.554688 35.23 0.554688 78.0005C0.554688 120.771 34.9812 155.443 77.4483 155.443Z" stroke="#08416A"/>
<path d="M36.3516 84.6857H41.8658V76.4177H43.1669L48.6191 84.6857H55.0627L48.4333 75.4193C50.6018 74.2961 51.8409 72.2993 51.8409 69.6473C51.8409 65.3729 48.7121 62.8457 43.6316 62.8457H36.3516V84.6857ZM43.9723 67.4321C45.3664 67.4321 46.1718 68.3369 46.1718 69.5849C46.1718 70.9265 45.3664 71.8313 43.9723 71.8313H41.8658V67.4321H43.9723ZM67.5058 80.0993C63.8812 80.0993 61.248 77.4473 61.248 73.7657C61.248 70.1153 63.7263 67.4321 67.196 67.4321C69.3645 67.4321 71.0063 68.4929 72.0286 69.9905L76.3966 66.6209C74.383 63.9689 71.1612 62.2217 67.196 62.2217C60.2877 62.2217 55.5789 67.5257 55.5789 73.7657C55.5789 80.0057 60.4116 85.3097 67.5058 85.3097C71.5949 85.3097 74.9716 83.5937 77.0162 80.8793V71.2073H66.5144V75.9185H71.502V78.7889C70.4797 79.6001 69.1166 80.0993 67.5058 80.0993ZM81.7306 84.6857H87.2448V76.4177H89.4753C94.5558 76.4177 97.6847 73.8905 97.6847 69.6473C97.6847 65.3729 94.5558 62.8457 89.4753 62.8457H81.7306V84.6857ZM89.7851 67.4321C91.1791 67.4321 91.9846 68.3369 91.9846 69.5849C91.9846 70.9265 91.1791 71.8313 89.7851 71.8313H87.2448V67.4321H89.7851ZM101.213 84.6857H109.887C116.796 84.6857 121.505 79.6625 121.505 73.7657C121.505 67.8689 116.796 62.8457 109.887 62.8457H101.213V84.6857ZM109.918 67.8689C113.326 67.8689 115.805 70.3649 115.805 73.7657C115.805 77.1353 113.326 79.6625 109.918 79.6625H106.727V67.8689H109.918Z" fill="#08416A"/>
<path d="M77.4471 145.972C78.6692 145.972 79.6599 144.974 79.6599 143.743C79.6599 142.512 78.6692 141.515 77.4471 141.515C76.2251 141.515 75.2344 142.512 75.2344 143.743C75.2344 144.974 76.2251 145.972 77.4471 145.972Z" fill="#08416A"/>
<path d="M68.4717 139.26L67.2296 139.039L66.665 142.287L65.7498 142.124C65.7062 142.117 65.6626 142.11 65.6082 142.1L64.0482 138.473L62.5664 138.21L64.3767 142.141C63.5222 142.34 62.9445 142.95 62.7823 143.883C62.5457 145.244 63.3775 146.274 64.9791 146.559L67.1364 146.943L68.4717 139.26ZM65.0988 145.483C64.3252 145.346 63.9548 144.827 64.075 144.136C64.2029 143.4 64.7258 143.04 65.4994 143.177L66.48 143.352L66.0794 145.657L65.0988 145.483Z" fill="#08416A"/>
<path d="M56.2197 142.948L55.1683 142.601L55.6944 144.721L56.893 145.117L56.2197 142.948ZM54.8864 136.621L55.4699 137.518C55.9394 137.181 56.5678 137.071 57.2092 137.282C58.2291 137.619 58.7387 138.455 58.4363 139.645L54.5251 138.355C54.4317 138.5 54.3217 138.734 54.243 138.977C53.8055 140.334 54.4271 141.653 55.8885 142.135C57.5708 142.69 58.9937 141.74 59.5098 140.14C60.0122 138.582 59.3565 136.901 57.5271 136.297C56.5387 135.971 55.5959 136.118 54.8864 136.621ZM56.2035 141.231C55.3519 140.949 55.077 140.179 55.2713 139.504L58.1205 140.444C57.6857 141.215 56.992 141.491 56.2035 141.231Z" fill="#08416A"/>
<path d="M53.2221 133.765C53.7166 132.731 53.0348 131.692 51.4923 130.937C49.9697 130.193 48.5211 130.499 47.9978 131.594C47.561 132.507 47.8863 133.497 49.18 134.13L50.5434 134.796C50.8121 134.928 50.864 135.102 50.7631 135.313C50.6912 135.464 50.5295 135.57 50.3079 135.623C50.138 135.49 49.9534 135.362 49.7345 135.255C48.4905 134.647 47.3552 135.095 46.8848 136.079C46.7696 136.319 46.7041 136.586 46.6928 136.84L45.7076 136.357L45.2852 137.241L47.1362 138.147C47.3524 138.413 47.6473 138.645 48.0254 138.83C49.2496 139.428 50.3799 138.99 50.8456 138.016C51.1145 137.455 51.1105 136.821 50.831 136.275C51.3488 136.193 51.6915 135.965 51.8835 135.564C52.0083 135.303 52.0285 134.978 51.9007 134.68C52.5365 134.558 52.9773 134.278 53.2221 133.765ZM49.3453 136.044C49.9922 136.361 50.1639 136.977 49.8903 137.549C49.6214 138.111 49.0417 138.348 48.3948 138.032C47.7479 137.715 47.5713 137.108 47.8401 136.547C48.1137 135.974 48.6983 135.728 49.3453 136.044ZM52.1796 133.429C52.0068 133.791 51.6881 133.969 51.3039 134.054L49.7116 133.275C48.9452 132.9 48.8597 132.437 49.0661 132.005C49.3493 131.413 50.1137 131.304 51.1089 131.791C52.0543 132.253 52.4484 132.867 52.1796 133.429Z" fill="#08416A"/>
<path d="M44.9556 130.403L43.9957 129.784L39.5508 136.841L40.5108 137.459L44.9556 130.403Z" fill="#08416A"/>
<path d="M35.6488 124.482L35.8724 125.53C36.4307 125.387 37.0556 125.513 37.5778 125.944C38.4081 126.628 38.5843 127.594 37.8772 128.595L34.6926 125.969C34.5537 126.071 34.3677 126.249 34.2073 126.447C33.3148 127.555 33.4228 129.013 34.6127 129.993C35.9824 131.123 37.6479 130.753 38.7009 129.447C39.7259 128.176 39.7158 126.367 38.2262 125.139C37.4216 124.475 36.4904 124.269 35.6488 124.482ZM35.2295 129.263C34.5361 128.692 34.5553 127.873 34.9774 127.313L37.2974 129.226C36.6166 129.788 35.8715 129.792 35.2295 129.263Z" fill="#08416A"/>
<path d="M34.0107 121.567L33.2551 120.708L30.4499 123.233C29.9191 123.351 29.2774 123.361 28.8078 122.828C28.3236 122.277 28.3932 121.618 29.0037 121.068L31.553 118.774L30.79 117.906L28.2076 120.23C28.1252 120.304 28.051 120.371 27.984 120.446C27.3899 120.577 26.7902 120.534 26.3501 120.034C25.8732 119.491 25.9354 118.823 26.5459 118.274L29.0953 115.979L28.3323 115.112L25.7499 117.436C24.6031 118.467 24.6034 119.678 25.3737 120.553C26.012 121.279 26.7171 121.392 27.4157 121.346C27.1555 122.059 27.3253 122.772 27.8315 123.348C28.323 123.906 28.8988 124.091 29.4847 124.101L29.0969 124.45L29.8526 125.309L34.0107 121.567Z" fill="#08416A"/>
<path d="M23.4518 108.873L23.3371 109.939C23.9123 109.979 24.4662 110.296 24.8278 110.87C25.4028 111.782 25.2688 112.755 24.2851 113.482L22.0801 109.982C21.9166 110.034 21.6845 110.144 21.4701 110.283C20.2773 111.051 19.9255 112.469 20.7494 113.777C21.6978 115.282 23.3944 115.458 24.8017 114.551C26.1715 113.669 26.7259 111.948 25.6945 110.311C25.1372 109.427 24.3174 108.937 23.4518 108.873ZM21.5627 113.279C21.0825 112.517 21.3564 111.745 21.9316 111.348L23.5379 113.897C22.7162 114.215 22.0073 113.984 21.5627 113.279Z" fill="#08416A"/>
<path d="M22.8051 105.489L22.3359 104.443L18.9129 106.014C18.3514 105.954 17.7318 105.736 17.4174 105.035C17.0894 104.304 17.3722 103.636 18.1775 103.266L21.1878 101.884L20.7139 100.828L17.6635 102.228C16.1937 102.903 15.8258 104.113 16.3315 105.24C16.6596 105.971 17.1793 106.345 17.7551 106.546L17.2619 106.772L17.7311 107.818L22.8051 105.489Z" fill="#08416A"/>
<path d="M17.509 97.2606C18.8122 96.866 19.2732 96.0051 18.9003 94.7449C18.7771 94.3285 18.6356 94.0456 18.4538 93.8213L17.4896 94.1132C17.6207 94.283 17.7357 94.5158 17.8432 94.8789C18.0202 95.4769 17.9008 95.9319 17.1803 96.15L14.6798 96.9071L14.152 95.1238L13.1667 95.4222L13.6944 97.2055L12.3594 97.6096L12.6881 98.7202L14.0232 98.3161L14.3233 99.3305L15.3088 99.0321L15.0085 98.0177L17.509 97.2606Z" fill="#08416A"/>
<path d="M17.8503 84.2645C18.9875 84.1913 19.5498 83.0833 19.4413 81.3596C19.3344 79.6582 18.3548 78.5377 17.1514 78.6151C16.1465 78.6797 15.4523 79.4501 15.5431 80.8958L15.6389 82.4194C15.6579 82.7196 15.5331 82.8504 15.3012 82.8653C15.1355 82.876 14.9637 82.7865 14.8089 82.6178C14.8398 82.4038 14.8589 82.1793 14.8436 81.9346C14.7562 80.5445 13.8093 79.7679 12.7273 79.8376C12.4623 79.8546 12.2009 79.9273 11.9753 80.0423L11.906 78.9414L10.9344 79.0039L11.0644 81.0723C10.9405 81.3929 10.8863 81.7649 10.9129 82.1875C10.9989 83.5553 11.9347 84.3325 13.0056 84.2636C13.624 84.2239 14.1695 83.9095 14.5031 83.3968C14.8285 83.8113 15.1952 83.9999 15.6368 83.9715C15.9239 83.953 16.2144 83.8115 16.4088 83.5534C16.8281 84.0511 17.2872 84.3007 17.8503 84.2645ZM13.9706 81.9796C14.0161 82.7024 13.5679 83.1555 12.9385 83.196C12.3202 83.2358 11.8299 82.843 11.7844 82.1202C11.7389 81.3974 12.1761 80.945 12.7944 80.9052C13.4237 80.8647 13.9251 81.2567 13.9706 81.9796ZM17.6272 83.1847C17.2297 83.2102 16.9182 83.0181 16.6558 82.7224L16.5438 80.9431C16.4901 80.0868 16.848 79.7847 17.3227 79.7541C17.9742 79.7122 18.4454 80.3294 18.5153 81.4415C18.5817 82.4979 18.2455 83.1449 17.6272 83.1847Z" fill="#08416A"/>
<path d="M10.4225 71.9244L8.68403 70.4806L8.59375 71.7475L10.3433 73.0358L10.4225 71.9244ZM16.1071 70.2909L15.3857 71.0766C15.8246 71.4547 16.0821 72.043 16.0339 72.7211C15.957 73.7991 15.2749 74.4982 14.0555 74.4883L14.3501 70.3539C14.1878 70.2974 13.9363 70.2457 13.6825 70.2274C12.27 70.1253 11.1503 71.0497 11.0402 72.5947C10.9135 74.373 12.1727 75.5364 13.8392 75.6569C15.4613 75.7741 16.9223 74.7291 17.0602 72.7952C17.1346 71.7504 16.7652 70.8635 16.1071 70.2909ZM11.9877 72.6855C12.0518 71.7853 12.7276 71.3313 13.4244 71.3594L13.2097 74.3713C12.3617 74.1313 11.9283 73.5191 11.9877 72.6855Z" fill="#08416A"/>
<path d="M17.5781 67.1827L17.8179 66.0608L14.142 65.2567C13.7267 64.8695 13.3573 64.3211 13.518 63.5696C13.6857 62.7852 14.3072 62.4194 15.1721 62.6086L18.4049 63.3156L18.647 62.1827L15.3711 61.4662C13.7925 61.121 12.7837 61.8696 12.5252 63.0787C12.3575 63.8631 12.5546 64.4762 12.8986 64.9848L12.3688 64.8689L12.1289 65.9909L17.5781 67.1827Z" fill="#08416A"/>
<path d="M14.8431 53.2763L13.5726 51.3984L13.1367 52.5904L14.4607 54.322L14.8431 53.2763ZM20.7493 53.3107L19.8402 53.862C20.1573 54.3492 20.2424 54.9872 20.009 55.625C19.6382 56.6393 18.7908 57.1187 17.6232 56.7651L19.0456 52.8753C18.9053 52.7754 18.6783 52.6547 18.4397 52.5654C17.1122 52.0688 15.7827 52.6413 15.2512 54.0947C14.6395 55.7677 15.5274 57.241 17.0935 57.8269C18.6181 58.3973 20.3083 57.8052 20.9736 55.9858C21.333 55.003 21.2229 54.0465 20.7493 53.3107ZM16.1356 54.4492C16.4452 53.6024 17.2188 53.3568 17.8799 53.5804L16.8438 56.4141C16.096 55.944 15.8488 55.2335 16.1356 54.4492Z" fill="#08416A"/>
<path d="M23.058 50.6981L23.5858 49.6809L20.2972 47.9351C20.0095 47.455 19.8919 46.8635 20.2198 46.2315C20.3275 46.0241 20.4389 45.8817 20.5599 45.7444L19.5714 45.2197C19.4657 45.3274 19.3594 45.4599 19.2774 45.6179C18.9598 46.2302 19.0083 46.8103 19.2107 47.3585L18.6529 47.0623L18.125 48.0795L23.058 50.6981Z" fill="#08416A"/>
<path d="M27.8089 43.0069C28.202 42.4408 28.3484 41.6857 28.1789 41.0744L28.6941 41.4404L29.3473 40.5L26.3366 38.3611C25.3331 37.6482 24.1343 37.8192 23.272 39.061C22.7013 39.8829 22.5882 40.7844 22.8453 41.5806L23.8671 41.2565C23.6802 40.7283 23.7269 40.1752 24.0756 39.673C24.4878 39.0794 25.123 38.9034 25.6835 39.3017L25.9186 39.4686L25.1291 41.1304C24.6134 42.2231 24.7366 43.1151 25.4236 43.6033C26.2283 44.1749 27.1748 43.9201 27.8089 43.0069ZM26.047 42.6279C25.7033 42.3838 25.6241 41.973 25.9242 41.3271L26.5786 39.9375L27.3651 40.4963C27.6089 41.0785 27.5694 41.7187 27.17 42.294C26.8401 42.7688 26.3995 42.8784 26.047 42.6279Z" fill="#08416A"/>
<path d="M31.8643 37.5367L32.6216 36.6792L26.4448 31.0986L25.6875 31.9562L31.8643 37.5367Z" fill="#08416A"/>
<path d="M39.6579 29.0263C40.4485 29.2287 41.2316 29.1182 41.9888 28.5565C42.8261 27.9353 43.1537 26.8757 42.5167 25.9783C41.3877 24.4215 39.4094 26.3598 38.7503 25.4509C38.5285 25.145 38.5595 24.7344 38.9871 24.4172C39.3613 24.1396 39.8361 24.1334 40.3115 24.2788L40.5371 23.2673C39.9032 23.0733 39.0892 23.1789 38.43 23.6679C37.5303 24.3354 37.3375 25.392 37.879 26.1389C39.0406 27.7405 40.9994 25.7753 41.665 26.6931C41.9129 27.0351 41.8682 27.4835 41.4318 27.8073C40.9863 28.1377 40.4538 28.1591 39.8858 27.9993L39.6579 29.0263Z" fill="#08416A"/>
<path d="M48.9094 21.1961C49.3673 22.0487 49.1847 22.8091 48.4367 23.2201C47.6696 23.6417 46.949 23.3776 46.491 22.525L44.975 19.7024L43.9648 20.2574L45.4546 23.031C46.2495 24.5109 47.5682 24.9286 48.9474 24.1708C50.3168 23.4183 50.688 22.0719 49.8932 20.592L48.4033 17.8184L47.3933 18.3734L48.9094 21.1961Z" fill="#08416A"/>
<path d="M54.8411 21.1461L55.906 20.7376L54.5927 17.235C54.6934 16.6837 54.9948 16.1626 55.6565 15.9088C55.8736 15.8255 56.0507 15.7934 56.2319 15.7715L55.8371 14.7188C55.6871 14.7286 55.5202 14.7567 55.3548 14.8203C54.7138 15.0662 54.3683 15.5325 54.1588 16.078L53.936 15.4837L52.8711 15.8922L54.8411 21.1461Z" fill="#08416A"/>
<path d="M67.8463 17.5218L68.9723 17.3455L67.708 9.08594L66.582 9.26227L67.8463 17.5218Z" fill="#08416A"/>
<path d="M75.2577 16.96C75.9432 16.9345 76.6283 16.5966 77.0085 16.0918L77.0317 16.7265L78.1705 16.6841L78.0353 12.976C77.9902 11.74 77.1285 10.8801 75.6248 10.9362C74.6297 10.9733 73.8492 11.4261 73.376 12.1128L74.2513 12.7381C74.5553 12.2695 75.0205 11.9734 75.6286 11.9507C76.3473 11.924 76.8713 12.3281 76.8965 13.0185L76.907 13.308L75.1158 13.6758C73.9401 13.9204 73.3102 14.5572 73.3409 15.4035C73.3771 16.3946 74.1521 17.0012 75.2577 16.96ZM74.4892 15.3161C74.4737 14.893 74.7502 14.5815 75.4424 14.4331L76.9367 14.1209L76.972 15.0897C76.6597 15.6365 76.1302 15.9908 75.4336 16.0167C74.8588 16.0382 74.5051 15.7504 74.4892 15.3161Z" fill="#08416A"/>
<path d="M87.3086 20.3211L88.4246 20.5532L89.0859 17.3001C89.4497 17.8991 89.9771 18.3046 90.768 18.4691C92.4801 18.8251 93.8301 17.6836 94.1562 16.0788C94.4824 14.4741 93.6871 12.8865 91.9751 12.5305C91.1841 12.366 90.5413 12.5282 89.9733 12.9335L90.0887 12.3658L88.9727 12.1338L87.3086 20.3211ZM91.6191 13.5602C92.67 13.7787 93.2057 14.7548 92.986 15.8356C92.7664 16.9162 91.8934 17.5995 90.8425 17.3809C90.1382 17.2344 89.6088 16.783 89.3322 16.0884L89.727 14.1452C90.2392 13.6259 90.9039 13.4114 91.6191 13.5602Z" fill="#08416A"/>
<path d="M96.5977 19.8819L97.6723 20.2638L98.9 16.73C99.3284 16.3741 99.8909 16.1723 100.559 16.4096C100.778 16.4874 100.934 16.5783 101.086 16.6797L101.455 15.6175C101.334 15.5272 101.188 15.4399 101.022 15.3807C100.375 15.1508 99.8134 15.2821 99.3056 15.5625L99.514 14.9629L98.4393 14.5811L96.5977 19.8819Z" fill="#08416A"/>
<path d="M108.433 18.6531C106.829 17.8227 105.119 18.4783 104.37 19.9576C103.621 21.4368 104.096 23.2233 105.699 24.0538C107.313 24.8893 109.014 24.2285 109.762 22.7493C110.511 21.2701 110.046 19.4885 108.433 18.6531ZM106.197 23.0958C105.242 22.6016 104.945 21.4708 105.433 20.5077C105.92 19.5447 107.001 19.127 107.955 19.6211C108.89 20.1051 109.192 21.2262 108.699 22.199C108.217 23.1521 107.131 23.5798 106.197 23.0958Z" fill="#08416A"/>
<path d="M112.702 25.7807C111.927 26.907 112.098 27.8706 113.168 28.6242C113.521 28.8733 113.807 29.0063 114.088 29.0679L114.661 28.2347C114.454 28.1839 114.22 28.0735 113.912 27.8565C113.404 27.4988 113.217 27.0675 113.645 26.4448L115.133 24.2838L116.647 25.3502L117.233 24.4986L115.72 23.4321L116.514 22.2784L115.57 21.6143L114.776 22.768L113.915 22.1614L113.329 23.013L114.189 23.6196L112.702 25.7807Z" fill="#08416A"/>
<path d="M121.578 34.4994L121.41 33.4404C120.845 33.5547 120.228 33.3949 119.729 32.9368C118.936 32.2085 118.812 31.2343 119.571 30.2727L122.611 33.0658C122.755 32.9719 122.951 32.8043 123.121 32.6142C124.072 31.5563 124.041 30.0954 122.904 29.0517C121.597 27.8503 119.914 28.1296 118.793 29.3776C117.702 30.5925 117.617 32.3989 119.039 33.7054C119.808 34.4113 120.726 34.6672 121.578 34.4994ZM122.249 29.7475C122.912 30.3557 122.849 31.1729 122.398 31.7086L120.183 29.6737C120.892 29.1492 121.636 29.1843 122.249 29.7475Z" fill="#08416A"/>
<path d="M125.413 39.0824C124.717 38.2446 124.856 37.1075 125.701 36.3892C126.538 35.6782 127.678 35.7308 128.366 36.5601C128.778 37.056 128.867 37.6503 128.737 38.1698L129.835 38.4171C130.034 37.5785 129.84 36.6499 129.187 35.8634C127.988 34.4186 126.179 34.4101 124.935 35.4659C123.692 36.5217 123.386 38.3257 124.586 39.7705C125.245 40.5656 126.109 40.9111 126.96 40.859L126.909 39.7212C126.381 39.7619 125.818 39.5697 125.413 39.0824Z" fill="#08416A"/>
<path d="M129.903 43.4696C128.759 44.2107 128.55 45.1669 129.252 46.2757C129.484 46.6422 129.697 46.8752 129.933 47.0404L130.779 46.4922C130.608 46.3652 130.433 46.1732 130.232 45.8537C129.899 45.3274 129.889 44.8567 130.522 44.4469L132.719 43.0251L133.711 44.5943L134.577 44.0341L133.584 42.4647L134.757 41.7056L134.138 40.7283L132.966 41.4875L132.4 40.5947L131.535 41.1551L132.1 42.0478L129.903 43.4696Z" fill="#08416A"/>
<path d="M138.215 48.3049C138.401 48.6849 138.874 48.8464 139.251 48.6583C139.628 48.4701 139.788 47.9917 139.602 47.6118C139.418 47.2318 138.944 47.0702 138.567 47.2584C138.191 47.4465 138.03 47.925 138.215 48.3049ZM131.855 50.8348L132.359 51.8647L137.354 49.3694L136.851 48.3395L131.855 50.8348Z" fill="#08416A"/>
<path d="M140.569 56.7935C139.977 55.0779 138.289 54.363 136.733 54.9122C135.177 55.4615 134.297 57.0832 134.889 58.7989C135.484 60.525 137.168 61.2293 138.723 60.6801C140.28 60.1308 141.164 58.5196 140.569 56.7935ZM135.905 58.4518C135.552 57.4309 136.112 56.4065 137.126 56.0489C138.138 55.6913 139.207 56.1406 139.56 57.1615C139.904 58.1615 139.355 59.1821 138.332 59.5433C137.329 59.8972 136.251 59.4517 135.905 58.4518Z" fill="#08416A"/>
<path d="M136.832 64.9447L137.044 66.0722L140.74 65.3599C141.271 65.5523 141.823 65.911 141.966 66.6664C142.114 67.4546 141.684 68.0368 140.814 68.2045L137.564 68.831L137.779 69.9696L141.072 69.3346C142.658 69.0288 143.298 67.941 143.069 66.7259C142.92 65.9376 142.502 65.451 141.989 65.1188L142.521 65.0162L142.309 63.8887L136.832 64.9447Z" fill="#08416A"/>
<path d="M141.075 79.6828C139.451 79.5884 138.008 80.6095 137.908 82.3783C137.862 83.1794 138.116 83.7968 138.586 84.2929L138.023 84.2601L137.956 85.4282L146.24 85.9096L146.306 84.7415L143.026 84.5509C143.55 84.1125 143.871 83.5285 143.916 82.7276C144.017 80.9587 142.699 79.7772 141.075 79.6828ZM141.007 80.8953C142.1 80.959 142.898 81.7308 142.836 82.8099C142.797 83.5108 142.441 84.104 141.811 84.4803L139.801 84.3634C139.236 83.9513 138.93 83.3083 138.971 82.5853C139.032 81.5062 139.912 80.8318 141.007 80.8953Z" fill="#08416A"/>
<path d="M137.252 94.1657L138.067 93.4788C137.678 93.0474 137.497 92.4305 137.629 91.764C137.84 90.7044 138.604 90.0982 139.811 90.2647L139.003 94.3289C139.156 94.4058 139.4 94.4894 139.649 94.5402C141.037 94.8229 142.263 94.0493 142.565 92.5307C142.914 90.7827 141.811 89.4666 140.172 89.1331C138.579 88.8084 136.999 89.6577 136.621 91.5587C136.416 92.5857 136.672 93.513 137.252 94.1657ZM141.637 92.319C141.461 93.2039 140.734 93.5674 140.047 93.4502L140.636 90.4894C141.447 90.8364 141.801 91.4995 141.637 92.319Z" fill="#08416A"/>
<path d="M136.292 96.8359C135.529 97.1268 134.949 97.6693 134.648 98.5664C134.314 99.5586 134.648 100.615 135.682 100.982C137.493 101.605 138.013 98.8759 139.07 99.2394C139.427 99.3619 139.635 99.716 139.464 100.223C139.315 100.666 138.929 100.945 138.456 101.101L138.847 102.059C139.478 101.852 140.085 101.296 140.347 100.515C140.706 99.4485 140.263 98.472 139.394 98.1732C137.53 97.5324 137.041 100.273 135.974 99.9052C135.575 99.7684 135.357 99.3755 135.531 98.8583C135.708 98.3305 136.133 98.0056 136.69 97.8085L136.292 96.8359Z" fill="#08416A"/>
<path d="M132.529 110.598C131.154 109.724 129.404 109.916 128.47 111.417C128.047 112.097 127.974 112.762 128.149 113.426L127.671 113.123L127.055 114.115L134.071 118.577L134.688 117.585L131.91 115.818C132.577 115.688 133.136 115.333 133.559 114.653C134.493 113.151 133.904 111.473 132.529 110.598ZM131.89 111.628C132.816 112.217 133.145 113.283 132.576 114.199C132.206 114.794 131.612 115.141 130.881 115.163L129.178 114.08C128.881 113.444 128.92 112.731 129.302 112.117C129.87 111.201 130.964 111.039 131.89 111.628Z" fill="#08416A"/>
<path d="M127.562 122.741C128.732 121.359 128.498 119.524 127.249 118.441C126 117.358 124.171 117.405 123 118.786C121.822 120.176 122.063 122.002 123.313 123.085C124.563 124.168 126.384 124.131 127.562 122.741ZM123.807 119.5C124.503 118.677 125.66 118.652 126.473 119.357C127.286 120.061 127.438 121.222 126.741 122.045C126.058 122.849 124.91 122.883 124.089 122.171C123.284 121.473 123.124 120.305 123.807 119.5Z" fill="#08416A"/>
<path d="M118.732 123.582L117.872 124.336L120.331 127.203C120.433 127.764 120.402 128.427 119.827 128.932C119.226 129.459 118.511 129.376 117.933 128.702L115.77 126.181L114.902 126.943L117.094 129.497C118.151 130.728 119.402 130.738 120.328 129.926C120.929 129.399 121.136 128.788 121.163 128.173L121.517 128.586L122.377 127.832L118.732 123.582Z" fill="#08416A"/>
<path d="M111.711 129.234L110.752 129.854L112.766 133.053C112.785 133.622 112.658 134.273 112.015 134.688C111.343 135.12 110.649 134.933 110.175 134.181L108.403 131.367L107.434 131.991L109.229 134.843C110.095 136.216 111.331 136.411 112.366 135.745C113.036 135.313 113.331 134.739 113.448 134.135L113.739 134.596L114.698 133.977L111.711 129.234Z" fill="#08416A"/>
<path d="M103.84 140.971L103.408 143.203L104.556 142.676L104.847 140.51L103.84 140.971ZM99.7109 136.719L100.739 136.982C100.86 136.413 101.251 135.902 101.865 135.622C102.841 135.173 103.776 135.442 104.347 136.526L100.602 138.246C100.63 138.416 100.704 138.664 100.809 138.898C101.392 140.197 102.731 140.746 104.13 140.104C105.741 139.364 106.157 137.692 105.469 136.159C104.799 134.667 103.193 133.873 101.441 134.677C100.495 135.111 99.8973 135.862 99.7109 136.719ZM103.759 139.221C102.943 139.595 102.226 139.214 101.919 138.583L104.648 137.332C104.842 138.198 104.514 138.875 103.759 139.221Z" fill="#08416A"/>
<path d="M91.7305 139.229L92.7147 139.63C92.9104 139.082 93.3655 138.629 94.0118 138.434C95.0397 138.124 95.9296 138.517 96.3513 139.669L92.4097 140.862C92.4148 141.035 92.4556 141.29 92.5283 141.535C92.9327 142.903 94.1864 143.629 95.6591 143.182C97.3546 142.67 97.9894 141.07 97.5124 139.457C97.048 137.887 95.5618 136.883 93.7181 137.44C92.7221 137.742 92.0294 138.405 91.7305 139.229ZM95.4086 142.259C94.5504 142.518 93.8904 142.042 93.6702 141.376L96.5416 140.507C96.6185 141.392 96.2034 142.018 95.4086 142.259Z" fill="#08416A"/>
<path d="M88.9627 139.621C88.3485 139.08 87.6003 138.819 86.6722 138.972C85.6459 139.141 84.8771 139.935 85.0418 141.025C85.3487 142.928 87.9852 142.109 88.1644 143.22C88.2248 143.594 88.0124 143.945 87.4883 144.032C87.0298 144.108 86.6033 143.895 86.2446 143.548L85.5885 144.345C86.0668 144.808 86.8403 145.087 87.6482 144.953C88.751 144.772 89.3982 143.919 89.251 143.007C88.9352 141.049 86.304 141.901 86.123 140.779C86.0556 140.361 86.2971 139.983 86.8322 139.894C87.3781 139.804 87.8627 140.029 88.2976 140.432L88.9627 139.621Z" fill="#08416A"/>
</svg>
