<svg width="20" height="21" viewBox="0 0 20 21" fill="none" xmlns="http://www.w3.org/2000/svg">
<path d="M7.49999 18.8333H12.5C16.6667 18.8333 18.3333 17.1667 18.3333 13V8C18.3333 3.83333 16.6667 2.16666 12.5 2.16666H7.49999C3.33332 2.16666 1.66666 3.83333 1.66666 8V13C1.66666 17.1667 3.33332 18.8333 7.49999 18.8333Z" stroke="#CBD5E1" stroke-width="1.5" stroke-linecap="round" stroke-linejoin="round"/>
<path d="M12.9749 15.9167V12.6667" stroke="#CBD5E1" stroke-width="1.5" stroke-miterlimit="10" stroke-linecap="round" stroke-linejoin="round"/>
<path d="M12.9749 6.70834V5.08334" stroke="#CBD5E1" stroke-width="1.5" stroke-miterlimit="10" stroke-linecap="round" stroke-linejoin="round"/>
<path d="M12.975 11.0417C14.1716 11.0417 15.1417 10.0716 15.1417 8.875C15.1417 7.67834 14.1716 6.70829 12.975 6.70829C11.7783 6.70829 10.8083 7.67834 10.8083 8.875C10.8083 10.0716 11.7783 11.0417 12.975 11.0417Z" stroke="#CBD5E1" stroke-width="1.5" stroke-miterlimit="10" stroke-linecap="round" stroke-linejoin="round"/>
<path d="M7.02505 15.9167V14.2917" stroke="#CBD5E1" stroke-width="1.5" stroke-miterlimit="10" stroke-linecap="round" stroke-linejoin="round"/>
<path d="M7.02505 8.33334V5.08334" stroke="#CBD5E1" stroke-width="1.5" stroke-miterlimit="10" stroke-linecap="round" stroke-linejoin="round"/>
<path d="M7.02497 14.2918C8.22159 14.2918 9.19167 13.3217 9.19167 12.1251C9.19167 10.9285 8.22159 9.95842 7.02497 9.95842C5.82836 9.95842 4.85831 10.9285 4.85831 12.1251C4.85831 13.3217 5.82836 14.2918 7.02497 14.2918Z" stroke="#CBD5E1" stroke-width="1.5" stroke-miterlimit="10" stroke-linecap="round" stroke-linejoin="round"/>
</svg>
