<svg width="180" height="180" viewBox="0 0 180 180" fill="none" xmlns="http://www.w3.org/2000/svg">
<path d="M150.955 57.9244C138.234 54.9384 125.295 58.0439 112.913 61.1991C104.104 63.8567 93.971 63.8567 86.7248 57.4466C81.9172 53.3856 77.8761 47.7519 71.476 46.2589C55.0825 43.6709 43.8449 61.0399 37.0068 73.6908C24.4952 96.8428 26.9736 86.0034 10.7792 96.7632C-6.57977 108.439 -2.54858 135.96 19.817 137.563C38.3506 139.444 53.6591 125.808 71.2769 123.24C88.387 120.204 102.929 132.039 119.064 134.955C144.983 138.19 178.487 125.27 180 95.3697C179.89 78.4586 167.329 61.7665 150.945 57.9145L150.955 57.9244Z" fill="#EFF6FF"/>
<path d="M113.53 97.0505C113.53 97.0505 113.55 96.5305 113.55 96.3105C113.63 96.1805 113.61 96.0205 113.6 95.8905C113.57 95.6505 113.6 95.3905 113.49 95.1705C113.46 95.1105 113.41 95.0705 113.35 95.0405C113.35 95.0105 113.37 94.9905 113.38 94.9605C113.98 93.5005 114.83 92.5005 114.82 90.8005C114.82 89.2705 114.64 86.8305 113.3 85.8605C112.14 85.2305 109.62 86.6105 109.84 85.0905C109.95 84.0305 109.93 82.6005 108.76 82.1505C107.7 81.6305 106.6 81.1805 105.5 80.7705C103.9 80.1905 102.06 80.2805 100.57 81.1305C99.9005 81.5005 99.1605 81.9105 98.8505 82.6405C98.6305 83.0305 98.6905 84.1505 98.0305 83.9505C97.5305 83.8205 96.8005 83.5305 96.6105 83.0005C96.6805 81.8005 96.9805 80.4605 96.4805 79.3305C95.7705 78.1205 94.2705 77.7305 92.9505 77.7105C91.7905 77.6605 90.6205 77.6105 89.4605 77.7505C88.3405 77.9305 85.8505 78.0805 85.5205 79.3705C85.3005 80.2405 85.4605 81.1605 85.3705 82.0505C85.3405 82.4705 85.2905 83.0005 85.1105 83.4105C84.9405 83.6805 84.6105 83.7805 84.3205 83.8805C84.1505 83.9505 83.9405 84.0105 83.7505 84.0905C83.5505 83.4205 83.4205 82.7105 83.0105 82.1405C82.1505 81.2905 80.6305 80.8705 79.4805 80.5405C78.2205 80.1405 76.9105 80.5405 75.7005 80.9605C74.0705 81.6105 72.6105 82.0005 72.1305 83.9005C71.9905 84.4505 71.9405 85.0205 71.9205 85.5905C71.1805 84.8205 70.1805 84.3305 69.1005 84.7205C67.4905 85.3005 67.2605 86.4605 67.1905 88.0105C67.0205 90.2505 66.8205 92.9705 68.6405 94.6105C68.6405 95.1805 68.7205 95.7505 68.6905 96.3305C68.4305 101.29 68.2705 106.25 68.1605 111.22C67.9805 114.28 67.5905 117.33 67.4605 120.4C67.3205 122.56 65.8005 145.01 65.4805 148.89C69.9305 153.52 80.2805 157.64 91.7805 157.64C102.69 157.64 110.91 155.78 116.97 149.26C116.7 146.97 113.55 97.1205 113.53 97.0505Z" fill="white"/>
<path d="M81.5303 124.781C81.5503 125.241 81.5903 125.701 81.5803 126.151C81.5803 126.331 81.4403 126.501 81.2503 126.481C81.2503 126.481 81.2503 126.491 81.2503 126.501C81.2903 126.861 80.9303 126.951 80.6403 126.961C80.4203 126.981 80.2003 127.001 79.9903 126.961C79.9003 126.951 79.8003 126.911 79.7303 126.851C79.6503 126.851 79.5703 126.871 79.4903 126.851C79.2503 126.831 79.1303 126.571 79.2103 126.371C79.1403 126.361 79.0803 126.321 79.0303 126.271C78.9603 126.201 78.9303 126.111 78.9203 126.011C78.9103 125.751 78.9003 125.491 78.8903 125.231C78.8603 124.441 78.8303 123.641 78.8003 122.851C78.6003 119.371 78.6203 115.881 78.7803 112.391C78.8803 109.581 78.8103 106.761 78.9403 103.941C78.9403 103.901 78.9403 103.851 78.9403 103.811C78.8603 103.721 78.8403 103.601 78.8703 103.491C78.8403 103.481 78.8103 103.461 78.7903 103.451C78.5603 103.271 78.6703 102.891 78.9503 102.841C79.1003 102.801 79.2603 102.801 79.4203 102.801C79.4903 102.801 79.5503 102.821 79.6003 102.841C79.7003 102.801 79.8203 102.781 79.9303 102.781C80.0603 102.781 80.2203 102.751 80.3403 102.831C80.3803 102.861 80.4203 102.891 80.4503 102.931C80.4903 102.911 80.5403 102.901 80.5903 102.901C80.7903 102.901 80.9603 103.071 80.9603 103.271C81.0203 104.251 81.0803 105.231 81.1303 106.211C81.3903 111.351 81.4503 116.491 81.4303 121.631C81.4303 122.681 81.4503 123.721 81.5203 124.761L81.5303 124.781Z" fill="#3F3D56"/>
<path d="M103.34 126.241C103.37 126.441 103.32 126.681 103.14 126.741C103.14 126.911 103.04 127.081 102.83 127.111C102.5 127.141 102.15 127.131 101.83 127.161C101.65 127.171 101.44 127.201 101.29 127.061C101.18 126.951 101.16 126.781 101.24 126.651C101.24 126.651 101.24 126.641 101.25 126.631C101.11 126.591 101 126.481 100.99 126.281C101.05 123.431 100.89 120.591 100.68 117.771C100.55 115.691 100.51 113.601 100.51 111.511C100.51 109.451 100.41 107.381 100.51 105.321C100.55 104.931 100.54 104.141 100.68 103.631C100.54 103.381 100.77 103.131 101.01 103.141C101.36 103.111 101.71 103.141 102.06 103.111C102.09 103.111 102.13 103.101 102.16 103.101C102.37 102.931 102.76 103.011 102.77 103.381C102.8 104.201 102.85 105.031 102.9 105.851V105.871C102.98 106.941 103 108.021 103.03 109.101C103.08 110.671 103.18 112.251 103.21 113.821C103.26 116.521 103.08 119.221 103.15 121.931C103.17 122.971 103.23 124.021 103.29 125.061C103.31 125.461 103.33 125.861 103.34 126.261V126.241Z" fill="#3F3D56"/>
<path d="M70.8604 84.6603C71.6904 84.8703 71.9704 85.8303 71.7604 86.5803C71.4504 87.3603 70.4204 87.9703 69.6004 88.0103C69.0604 88.0003 69.0404 87.3903 69.0004 86.9803C68.9404 86.5003 68.9404 86.0103 68.8704 85.5303C68.7204 85.3903 68.7704 85.0803 68.9704 85.0203C68.9504 84.5803 69.5604 84.6303 69.8604 84.5803C70.2004 84.5503 70.5404 84.5603 70.8604 84.6603Z" fill="#70C4FF"/>
<path d="M82.6597 81.8504C83.1197 82.2504 83.9297 83.2504 83.3397 83.8104C83.1497 83.9304 82.9097 83.9704 82.6997 84.0204C82.2797 84.1204 81.8497 84.1904 81.4197 84.2504C81.0197 84.2904 80.5897 84.3904 80.2097 84.2504C79.7397 84.0404 79.8597 83.3204 79.7997 82.8904C79.7697 82.4704 79.7497 82.0504 79.6897 81.6404C79.6697 81.4804 79.6297 81.3304 79.5897 81.1804C79.5497 81.0404 79.4897 80.8904 79.5697 80.7604C79.6297 80.6504 79.7897 80.6004 79.8997 80.6604C80.0997 80.6104 80.2797 80.7704 80.4697 80.8204C81.2197 81.1104 82.0297 81.3304 82.6497 81.8604L82.6597 81.8504Z" fill="#70C4FF"/>
<path d="M101.79 80.5105C102.44 80.4105 102.43 80.9305 102.35 81.4005C102.27 82.7905 101.96 84.3205 100.22 84.1705C99.5505 84.1705 98.3405 84.1805 98.6005 83.1905C98.7005 82.8105 98.8105 82.1505 99.1505 81.9305C99.9005 81.2805 100.79 80.7005 101.78 80.5105H101.79Z" fill="#70C4FF"/>
<path d="M111.07 87.3806C110.59 87.1006 110.1 86.6606 109.98 86.1006C109.94 85.8406 110.26 85.6506 110.46 85.8306C110.65 85.6106 110.96 85.6406 111.22 85.5706C111.48 85.5306 111.87 85.4206 112.03 85.7106C112.15 85.9506 112 86.2206 111.95 86.4606C111.84 86.8606 111.64 87.6006 111.08 87.3806H111.07Z" fill="#70C4FF"/>
<path d="M107.46 71.4309C107.64 71.0709 108.29 71.2809 108.04 71.7309C107.91 71.9409 107.71 72.0809 107.52 72.2309C106.07 73.3709 104.24 74.0909 102.38 74.1109C101.02 74.1109 99.7698 73.5209 98.5098 73.0709C96.2998 72.2509 94.0498 71.4909 91.6698 71.6409C91.6098 71.6409 91.5498 71.6209 91.4998 71.5909C91.4398 71.6209 91.3798 71.6409 91.3098 71.6209C91.2798 71.6209 91.2598 71.6109 91.2298 71.6009C91.1898 71.6309 91.1398 71.6609 91.0898 71.6609C90.9398 71.6809 90.7598 71.5709 90.7498 71.4009C90.6498 69.9809 90.6098 68.5509 90.5898 67.1309C90.5898 66.6809 90.5898 66.2309 90.5898 65.7809C90.6098 65.4409 90.5398 65.0809 90.6498 64.7509C90.7998 64.5409 91.0298 64.5909 91.1298 64.7609C93.2898 64.2509 96.2198 65.1009 98.1198 66.1109C100.51 67.3409 102.36 69.3809 104.68 70.6909C105.55 71.1309 106.51 71.3309 107.47 71.4209L107.46 71.4309Z" fill="#F26389"/>
<path d="M109 70.9407C106.91 71.4907 104.82 70.4407 103.12 69.3007C99.5899 66.8707 97.2299 64.3207 92.5999 64.2207C92.1499 64.2207 91.6999 64.2407 91.2499 64.3307C91.0699 64.3707 90.8899 64.4107 90.7199 64.4807C90.6999 64.3807 90.6199 64.3007 90.5199 64.2807C90.3599 64.2407 90.1899 64.3607 90.1699 64.5207C90.1699 64.5907 90.1699 64.6607 90.1699 64.7307C90.1699 64.8107 90.1699 64.8907 90.1699 64.9707C90.1699 65.1407 90.1699 65.3007 90.1799 65.4707C90.1799 65.7907 90.1999 66.1207 90.2099 66.4407C90.2399 67.6207 90.2699 68.8007 90.3099 69.9807C90.3399 71.1007 90.3699 72.2107 90.3999 73.3307C90.4299 74.2907 90.4599 75.2507 90.4799 76.2107C90.4899 76.6807 90.5099 77.1407 90.5199 77.6107C90.5199 77.7707 90.6599 77.9007 90.8199 77.9007C90.9799 77.9007 91.1199 77.7607 91.1099 77.5907C91.1099 77.3207 91.0899 77.0507 91.0899 76.7907C91.0699 76.1407 91.0499 75.4907 91.0299 74.8307C90.9999 73.9107 90.9799 72.9807 90.9499 72.0607C91.0199 72.0607 91.0899 72.0407 91.1599 72.0307C91.3099 72.0307 91.4599 72.0207 91.6099 72.0207C91.7799 72.0207 91.9499 72.0207 92.1199 72.0207C92.4399 72.0207 92.7599 72.0207 93.0799 72.0407C93.5499 72.0707 94.0299 72.1307 94.5099 72.2207C95.0699 72.3307 95.6199 72.4807 96.1599 72.6607C96.4699 72.7607 96.7799 72.8807 97.0899 72.9907C98.0899 73.3707 99.0799 73.8107 100.1 74.1307C100.59 74.2907 101.1 74.4107 101.61 74.4907C101.97 74.5407 102.33 74.5707 102.7 74.5707C102.86 74.5707 103.02 74.5707 103.19 74.5507C103.73 74.5207 104.27 74.4307 104.78 74.2707C105.27 74.1207 105.75 73.9107 106.2 73.6607C106.65 73.4207 107.08 73.1407 107.5 72.8407C107.9 72.5607 108.28 72.2707 108.66 71.9607C108.77 71.8707 108.81 71.7207 108.75 71.5907C108.88 71.5707 109.01 71.5407 109.14 71.5107C109.52 71.3907 109.35 70.8307 108.98 70.9307L109 70.9407ZM106.88 72.5607C106.5 72.8207 106.1 73.0507 105.69 73.2607C105.42 73.3907 105.14 73.5107 104.85 73.6207C104.63 73.7007 104.4 73.7607 104.17 73.8107C103.89 73.8707 103.61 73.9107 103.32 73.9307C103.02 73.9507 102.69 73.9607 102.35 73.9407C102.05 73.9207 101.72 73.8807 101.38 73.8207C100.96 73.7407 100.54 73.6207 100.13 73.4907C99.9899 73.4407 99.8499 73.4007 99.7199 73.3507C98.6999 72.9807 97.6999 72.5307 96.6699 72.1807C95.6699 71.8307 94.6399 71.5707 93.5799 71.4707C93.0399 71.4207 92.4899 71.4107 91.9499 71.4207C91.8099 71.4207 91.6699 71.4207 91.5199 71.4307C91.4599 71.4307 91.3899 71.4307 91.3299 71.4307C91.2599 71.4307 91.1799 71.4307 91.1099 71.4407C91.0599 71.4407 90.9999 71.4607 90.9499 71.4707C90.9199 70.3207 90.8799 69.1607 90.8499 68.0107C90.8299 67.4107 90.8099 66.8107 90.7999 66.2107C90.7999 65.9107 90.7799 65.6207 90.7699 65.3307C90.7699 65.2407 90.7699 65.1507 90.7699 65.0507C90.8099 65.0307 90.8399 65.0207 90.8799 65.0007C91.9899 64.6607 93.1799 64.7807 94.2999 64.9607C95.5599 65.1907 96.7799 65.6407 97.8799 66.3007C101.01 68.1107 103.88 71.4807 107.67 71.6607C107.73 71.6607 107.79 71.6607 107.85 71.6607C107.92 71.6607 108 71.6607 108.07 71.6607C107.68 71.9607 107.28 72.2607 106.88 72.5407V72.5607Z" fill="black"/>
<path d="M117.14 149.03C117.14 149.03 117.14 148.98 117.14 148.96C117.14 148.92 117.13 148.88 117.12 148.83C117.09 148.38 117.07 147.93 117.04 147.48C116.9 145.15 116.76 142.82 116.62 140.49C116.48 138.07 116.33 135.65 116.18 133.23C116.03 130.73 115.88 128.22 115.73 125.72C115.59 123.31 115.44 120.9 115.3 118.49C115.16 116.1 115.01 113.72 114.87 111.33C114.73 109.03 114.59 106.73 114.45 104.43C114.31 102.03 114.16 99.6305 114.01 97.2305C113.97 96.6505 113.93 96.0305 113.89 95.4105C113.87 95.1205 113.85 94.8205 113.83 94.5305C113.83 94.5105 113.83 94.5005 113.83 94.4805C114.04 94.2405 114.22 93.8305 114.4 93.7005C115.35 92.8805 115.41 91.5705 115.31 90.4005C115.13 89.0905 114.92 87.7705 114.59 86.4805C114.33 85.5205 113.94 84.6805 110.63 85.4005C110.49 85.4305 110.29 85.4505 110.13 85.4905C110.11 84.6505 110.5 83.7705 110.06 82.9405C109.6 81.8305 108.35 81.4305 107.33 81.0005C106.41 80.6505 105.48 80.2905 104.52 80.0605C103.7 79.8605 102.72 80.0305 102.68 80.0405C101.85 80.2805 101.08 80.7005 100.31 81.0705C99.3598 81.5205 98.8198 81.9605 98.6698 83.0605C98.6698 83.2305 98.5798 83.4905 98.5898 83.6905C98.3898 83.6605 98.1898 83.6305 97.9898 83.5905C97.5598 83.4805 96.7898 83.3905 96.9498 82.7605C97.0598 81.5505 97.2998 80.2605 96.8498 79.0905C96.0698 77.3605 92.4198 77.4005 90.7698 77.4005C89.2698 77.4805 86.1498 77.7805 85.0798 78.8305C84.7798 79.3305 84.8898 79.9705 84.8798 80.5205C84.8798 81.4205 85.0598 82.3505 84.8998 83.2405C84.5798 83.3305 84.2598 83.4105 83.9398 83.4805C83.9598 83.3205 83.8898 83.1105 83.8398 82.9505C83.6998 82.5205 83.5098 82.0905 83.1798 81.7705C82.5798 81.2505 81.8298 80.9505 81.0898 80.6505C80.3698 80.3805 79.3298 79.8905 77.9898 79.9205C76.3298 80.1805 74.6798 80.7605 73.2398 81.6205C72.5098 82.1205 71.7598 82.7905 71.6198 83.7005C71.5798 84.0205 71.5798 84.3405 71.5798 84.6605C71.4798 84.5605 71.3698 84.4805 71.2498 84.4105C70.8398 84.2005 70.3598 84.2505 69.9098 84.2905C69.4198 84.3305 68.9698 84.5105 68.5298 84.7305C67.8898 85.0205 67.1098 85.4605 66.9398 86.2205C66.7598 87.4005 66.7698 88.6105 66.7598 89.8105C66.8098 91.3805 66.6598 93.8605 68.2398 94.7305C68.2798 94.7505 68.3198 94.7805 68.3698 94.8005C68.3198 95.7005 68.2698 96.6005 68.2198 97.5005C68.0898 99.8305 67.9598 102.15 67.8198 104.48C67.6798 106.84 67.5498 109.21 67.4198 111.57C67.2798 114.02 67.1398 116.47 66.9998 118.92C66.8598 121.44 66.7098 123.96 66.5698 126.49C66.4298 129.01 66.2798 131.53 66.1398 134.05C65.9998 136.55 65.8598 139.04 65.7098 141.54C65.5798 143.83 65.4498 146.11 65.3198 148.4C65.3198 148.44 65.3198 148.49 65.3198 148.53C65.3198 148.53 65.3198 148.53 65.3198 148.54C65.3198 148.7 65.3098 148.85 65.2998 149.01C65.2998 149.06 65.2998 149.11 65.2998 149.15C65.3098 149.16 65.3298 149.17 65.3398 149.18C66.1498 149.86 66.9998 150.49 67.8898 151.07C69.4398 152.09 71.0798 152.96 72.7598 153.72C74.7198 154.59 76.7298 155.32 78.7898 155.91C80.8498 156.5 82.9598 156.97 85.0698 157.3C87.2398 157.64 89.4198 157.86 91.6198 157.94C92.2698 157.96 92.9198 157.98 93.5698 157.98C94.9198 157.98 96.2798 157.93 97.6298 157.82C99.5698 157.66 101.5 157.39 103.4 156.98C105.34 156.56 107.26 155.99 109.09 155.23C110.89 154.49 112.63 153.55 114.17 152.35C114.91 151.78 115.6 151.14 116.21 150.44C116.47 150.14 116.72 149.82 116.95 149.49C117.02 149.39 117.09 149.29 117.15 149.18C117.15 149.15 117.15 149.12 117.15 149.09C117.15 149.06 117.15 149.03 117.15 149.01L117.14 149.03ZM110.36 86.0705C110.72 86.0005 111.08 85.9505 111.45 85.8905C111.56 85.8605 111.71 85.8505 111.86 85.8305C111.79 86.0505 111.77 86.3005 111.73 86.5005C111.69 86.6505 111.65 86.8605 111.57 87.0205C111.49 87.1905 111.28 87.2505 111.12 87.1505C110.76 86.9405 110.48 86.6005 110.3 86.2305C110.28 86.1805 110.26 86.1405 110.24 86.0905C110.28 86.0905 110.33 86.0705 110.37 86.0605L110.36 86.0705ZM99.1698 83.7405C99.2398 83.1905 99.2598 82.5405 99.6998 82.1405C100.43 81.6005 101.3 81.2805 102.11 80.8705C101.85 81.7705 102.1 83.1005 101.57 83.7905C101.26 83.9505 100.89 83.9205 100.53 83.8805C100.36 83.8605 100.19 83.8505 100.03 83.8505C99.7398 83.8305 99.4598 83.8005 99.1698 83.7705C99.1698 83.7605 99.1698 83.7505 99.1698 83.7305V83.7405ZM80.8398 81.2105C81.4998 81.4805 82.1698 81.7405 82.7298 82.1805C83.0898 82.5205 83.2498 83.0105 83.3498 83.4805C83.3498 83.5205 83.3698 83.5505 83.3898 83.5805C82.9698 83.6505 82.5498 83.7105 82.1298 83.7805C81.4598 83.8405 80.7898 84.0605 80.1098 83.9705C80.0698 83.0505 80.1198 81.6705 79.6698 80.7805C80.0498 80.9005 80.4298 81.0405 80.8298 81.2005L80.8398 81.2105ZM70.2698 84.8905C70.5898 84.8705 70.9798 84.8705 71.1998 85.1505C71.3598 85.3505 71.4698 85.5805 71.5698 85.8205C71.5698 85.8205 71.5698 85.8205 71.5698 85.8305C71.5498 86.1705 71.4998 86.5005 71.3898 86.8305C70.9898 87.2805 70.3898 87.5505 69.8198 87.7505C69.6698 87.8005 69.5098 87.7105 69.4798 87.5505C69.3398 86.7605 69.3398 85.9505 69.2898 85.1505C69.2898 85.1305 69.2898 85.1005 69.2898 85.0805C69.5998 84.9705 69.9298 84.9005 70.2698 84.9005V84.8905ZM67.5498 92.5605C67.5498 92.5605 67.5498 92.5305 67.5398 92.5105C67.3498 91.4805 67.3698 90.4205 67.3598 89.3805C67.3598 88.5505 67.3898 87.7205 67.4598 86.8905C67.4798 86.4405 67.5498 86.0805 67.9398 85.7905C68.1798 85.5905 68.4598 85.4505 68.7398 85.3205C68.7398 86.1005 68.7798 86.8905 68.9098 87.6605C68.9798 89.0205 70.2498 88.1005 70.9998 87.8705C72.8698 87.3005 71.9998 84.4005 72.3498 83.3905C73.3598 81.7005 75.8598 81.0305 77.6798 80.5905C79.6098 80.0205 79.4698 82.3905 79.4898 83.6505C79.3898 84.5605 80.0798 84.7105 80.8198 84.5805C82.1698 84.4005 83.5198 84.2205 84.8398 83.9005C85.8598 83.7405 85.4898 82.4405 85.5298 81.7105C85.5398 81.1005 85.3698 80.1605 85.4898 79.5005C85.5298 79.2905 85.6598 79.1105 85.8498 79.0105C86.8898 78.4605 88.1398 78.3205 89.2898 78.1305C91.3598 77.9305 93.5698 77.8805 95.5298 78.6405C96.8098 79.1905 96.4898 80.8405 96.4198 81.9805C96.3798 82.5705 96.1298 83.3105 96.6798 83.7305C97.6698 84.3605 98.9498 84.3205 100.09 84.4505C101.89 84.6505 102.47 84.3305 102.52 82.4505C102.61 81.8405 102.43 80.8005 103.15 80.5505C104.49 80.4505 105.73 81.1005 106.98 81.5305C108.23 81.9905 109.85 82.6105 109.65 84.2305C109.61 84.7705 109.43 85.3105 109.53 85.8605C109.71 86.7405 110.47 87.8305 111.43 87.8605C112.34 87.6205 112.19 86.4705 112.51 85.7905C114.03 85.5105 114.14 87.1805 114.33 88.2605C114.52 89.3205 114.78 90.3905 114.71 91.4805C114.68 91.8205 114.66 92.1905 114.52 92.5105C114.34 92.3005 114.14 92.1005 113.94 91.9205C113.67 91.6705 113.37 91.4305 113.07 91.2105C112.22 90.5805 111.28 90.0705 110.33 89.6205C109.23 89.1005 108.09 88.6805 106.93 88.3105C105.7 87.9205 104.44 87.5905 103.18 87.3105C102.1 87.0705 101.02 86.8705 99.9298 86.7105C98.3498 86.4705 96.7698 86.2905 95.1698 86.1705C93.6498 86.0605 92.1198 85.9905 90.5998 85.9805C89.1298 85.9805 87.6598 86.0105 86.1898 86.0905C84.4898 86.1905 82.7898 86.3605 81.1098 86.6105C79.3598 86.8705 77.6098 87.2205 75.9098 87.7005C74.2198 88.1705 72.5398 88.7705 70.9898 89.6005C70.2198 90.0105 69.4798 90.4905 68.8198 91.0605C68.3198 91.4905 67.8698 91.9905 67.5398 92.5605H67.5498ZM67.7598 93.3305C67.8998 93.0905 68.1298 92.7205 68.2098 92.6105C68.3498 92.4205 68.4998 92.2305 68.6498 92.0605C68.8598 91.8305 69.0898 91.6205 69.3298 91.4205C69.6898 91.1205 70.0798 90.8505 70.4798 90.5905C71.0498 90.2405 71.6398 89.9305 72.2498 89.6505C73.2698 89.1905 74.3298 88.8005 75.3998 88.4805C77.0798 87.9805 78.8098 87.6005 80.5498 87.3205C80.5498 87.3205 80.5598 87.3205 80.5698 87.3205C81.4098 87.1905 82.2498 87.0705 83.0998 86.9705C84.7898 86.7805 86.4798 86.6605 88.1798 86.6105C89.4198 86.5705 90.6998 86.5705 91.9798 86.6105C93.5498 86.6505 95.1198 86.7505 96.6898 86.9105C97.8098 87.0205 98.9598 87.1705 100.1 87.3505C101.27 87.5405 102.44 87.7605 103.59 88.0205C104.04 88.1205 104.52 88.2405 105 88.3705C106.06 88.6505 107.11 88.9805 108.14 89.3605C109.07 89.7005 109.99 90.1005 110.88 90.5605C111.43 90.8505 111.99 91.1805 112.51 91.5405C112.51 91.5405 112.53 91.5505 112.54 91.5605C112.87 91.7905 113.21 92.0605 113.54 92.3505C113.77 92.5605 113.99 92.7905 114.2 93.0305C113.85 93.4205 113.26 94.0005 113.28 94.3905C112.96 94.0805 112.6 93.7405 112.42 93.5905C112.01 93.2405 111.57 92.9405 111.11 92.6605C110.47 92.2705 109.8 91.9405 109.11 91.6505C108.04 91.1905 106.94 90.8205 105.82 90.5105C104.22 90.0605 102.59 89.7305 100.95 89.4705C99.3998 89.2305 97.8298 89.0605 96.2598 88.9405C94.6398 88.8205 93.0098 88.7705 91.3798 88.7805C89.7298 88.7805 88.0898 88.8505 86.4498 88.9805C85.1298 89.0805 83.8198 89.2205 82.5098 89.4105C81.2698 89.5905 80.0298 89.8005 78.7998 90.0705C77.4798 90.3605 76.1698 90.7005 74.8798 91.1205C73.6498 91.5205 72.4398 92.0005 71.2798 92.5905C70.6898 92.8905 70.1098 93.2305 69.5698 93.6205C69.3698 93.7605 69.1798 93.9105 68.9898 94.0705C68.9298 94.1205 68.8798 94.1705 68.8198 94.2205C68.7898 94.2505 68.7198 94.2905 68.6498 94.3305C68.1898 94.0405 67.9298 93.7305 67.7698 93.3305H67.7598ZM115.26 150.62C114.79 151.09 114.3 151.52 113.78 151.93C113.11 152.45 112.4 152.91 111.66 153.34C110.74 153.86 109.78 154.32 108.81 154.73C107.56 155.24 106.28 155.66 104.98 156.01C103.33 156.45 101.64 156.77 99.9498 157C99.8898 157 99.7898 157.02 99.6798 157.03C97.7098 157.28 95.7398 157.4 93.7598 157.41C93.6698 157.41 93.5598 157.41 93.4498 157.41C92.4098 157.41 91.3798 157.37 90.3398 157.31C89.2498 157.24 88.1698 157.14 87.0898 157.01H87.0798C87.0798 157.01 87.0798 157.01 87.0698 157.01C86.9198 156.99 86.7698 156.97 86.6098 156.95C84.4698 156.67 82.3498 156.26 80.2498 155.72C79.2998 155.47 78.3498 155.2 77.4098 154.9C76.4698 154.6 75.5298 154.26 74.6098 153.89C73.0898 153.28 71.5698 152.57 70.0998 151.75C68.9598 151.11 67.8598 150.41 66.8198 149.63C66.5098 149.4 66.1998 149.15 65.8798 148.89C65.9498 147.73 66.0198 146.56 66.0798 145.4C66.2198 142.94 66.3598 140.49 66.4998 138.03C66.6398 135.5 66.7898 132.98 66.9298 130.45C67.0698 127.95 67.2198 125.45 67.3598 122.94C67.4998 120.43 67.6498 117.92 67.7898 115.41C67.9298 112.98 68.0698 110.55 68.2098 108.12C68.3398 105.83 68.4698 103.54 68.5998 101.24C68.7198 99.0905 68.8398 96.9505 68.9698 94.8005C68.9698 94.8005 68.9698 94.7905 68.9698 94.7805C69.0598 94.7105 69.4198 94.4505 69.5098 94.3805C69.7798 94.1705 70.0698 93.9805 70.3598 93.7905C70.9898 93.3905 71.6598 93.0405 72.3298 92.7305C73.4398 92.2205 74.5998 91.8105 75.7698 91.4505C76.3198 91.2805 76.9098 91.1205 77.5098 90.9705C78.8198 90.6405 80.1398 90.3705 81.4798 90.1605C82.6398 89.9705 83.8398 89.8105 85.0398 89.6905C86.5298 89.5405 88.0298 89.4405 89.5298 89.4005C89.8598 89.3905 90.2298 89.3805 90.5998 89.3805C92.2398 89.3605 93.8898 89.3805 95.5298 89.4905C95.9198 89.5105 96.3098 89.5405 96.6998 89.5705C96.8798 89.5805 97.0498 89.6005 97.2298 89.6105C97.3398 89.6105 97.4498 89.6305 97.5598 89.6405C97.6098 89.6405 97.6698 89.6405 97.7198 89.6605C97.7298 89.6605 97.7398 89.6605 97.7498 89.6605H97.8898C98.2798 89.7105 98.6798 89.7605 99.0698 89.8005C100.72 90.0005 102.37 90.2705 103.99 90.6405C105.26 90.9305 106.55 91.3005 107.81 91.7605C108.55 92.0305 109.32 92.3605 110.05 92.7405C110.05 92.7405 110.07 92.7405 110.07 92.7505C110.53 92.9905 111 93.2705 111.44 93.5805C111.72 93.7805 111.99 93.9905 112.25 94.2205C112.44 94.4005 113.15 95.0805 113.32 95.2805C113.32 95.2805 113.32 95.2905 113.33 95.3005C113.33 95.3005 113.33 95.3005 113.34 95.3105C113.34 95.4505 113.35 95.5905 113.36 95.7305C113.49 98.0805 113.63 100.42 113.77 102.77C113.91 105.1 114.05 107.44 114.19 109.77C114.33 112.11 114.47 114.45 114.61 116.8C114.75 119.2 114.9 121.6 115.04 124C115.19 126.48 115.34 128.96 115.49 131.44C115.64 133.89 115.78 136.33 115.93 138.78C116.07 141.16 116.22 143.55 116.36 145.93C116.42 146.98 116.49 148.04 116.55 149.09C116.5 149.16 116.45 149.23 116.4 149.3C116.05 149.76 115.67 150.2 115.26 150.62Z" fill="black"/>
<path d="M79.0704 127.261C78.9704 127.261 78.8804 127.221 78.8204 127.171C78.7504 127.111 78.7304 127.051 78.7304 126.971C78.7304 126.931 78.7304 126.901 78.7304 126.871C78.7304 126.871 78.7304 126.861 78.7304 126.851C78.7104 125.971 78.7004 125.081 78.6804 124.201C78.6604 123.151 78.6404 122.111 78.6204 121.061C78.6004 120.051 78.5804 119.031 78.5704 118.011C78.5504 116.961 78.5304 115.911 78.5204 114.861C78.5004 113.831 78.4904 112.791 78.4704 111.761C78.4704 111.241 78.4504 110.721 78.4504 110.211V110.191C78.4504 110.071 78.4504 109.951 78.4504 109.831C78.4504 109.821 78.4504 109.811 78.4504 109.791C78.4504 109.651 78.4504 109.521 78.4504 109.381C78.4504 109.371 78.4504 109.361 78.4504 109.341C78.4504 109.101 78.4504 108.851 78.4404 108.611C78.4204 107.601 78.4104 106.581 78.4004 105.571C78.4004 105.131 78.4004 104.691 78.4004 104.251C78.4004 104.031 78.4004 103.821 78.4004 103.601C78.4004 103.421 78.4004 103.241 78.4104 103.051C78.4104 103.051 78.4104 103.041 78.4104 103.031C78.4104 103.001 78.4204 102.981 78.4404 102.951C78.4404 102.931 78.4604 102.921 78.4704 102.911C78.4704 102.911 78.4704 102.911 78.4804 102.901C78.5104 102.871 78.5504 102.851 78.6004 102.841C78.7104 102.811 78.8404 102.841 78.9204 102.901C78.9604 102.941 78.9904 102.981 78.9904 103.031C78.9904 103.031 78.9904 103.051 78.9904 103.061C79.0104 103.271 79.0104 103.481 79.0204 103.681C79.0204 103.931 79.0404 104.181 79.0504 104.431C79.0704 104.941 79.0804 105.451 79.0904 105.951C79.1204 106.951 79.1404 107.961 79.1604 108.921C79.1604 108.981 79.1604 109.041 79.1604 109.101C79.1604 109.151 79.1604 109.211 79.1604 109.251C79.1604 109.251 79.1604 109.261 79.1604 109.271C79.1604 109.271 79.1604 109.311 79.1604 109.341C79.1604 109.381 79.1604 109.421 79.1604 109.461C79.1604 109.511 79.1604 109.561 79.1604 109.611C79.1604 109.611 79.1604 109.621 79.1604 109.631C79.1604 109.631 79.1604 109.631 79.1604 109.641C79.1604 109.641 79.1604 109.651 79.1604 109.661C79.1604 109.691 79.1604 109.731 79.1604 109.761C79.1604 109.761 79.1604 109.761 79.1604 109.771C79.1604 109.831 79.1604 109.891 79.1604 109.911C79.1604 109.951 79.1604 109.991 79.1604 110.011V110.051C79.1604 110.051 79.1604 110.081 79.1604 110.091C79.1604 110.131 79.1604 110.161 79.1604 110.201C79.1604 110.201 79.1604 110.211 79.1604 110.221C79.1604 110.221 79.1604 110.231 79.1604 110.241C79.1604 110.251 79.1604 110.271 79.1604 110.281C79.1604 110.281 79.1604 110.281 79.1604 110.271C79.1604 110.271 79.1604 110.271 79.1604 110.261C79.1604 110.291 79.1604 110.331 79.1604 110.351V110.391C79.1604 110.451 79.1604 110.511 79.1604 110.581C79.1604 110.641 79.1604 110.711 79.1604 110.731C79.1704 111.271 79.1804 111.811 79.1904 112.341C79.1904 112.401 79.1904 112.461 79.1904 112.521C79.1904 112.581 79.1904 112.631 79.1904 112.691C79.1904 112.751 79.1904 112.821 79.1904 112.881C79.1904 112.941 79.1904 113.001 79.1904 113.031C79.1904 113.101 79.1904 113.161 79.1904 113.231C79.2004 113.811 79.2104 114.381 79.2204 114.961C79.2204 115.151 79.2204 115.331 79.2304 115.521C79.2504 116.441 79.2604 117.361 79.2804 118.281C79.2804 118.411 79.2804 118.551 79.2804 118.681C79.3004 119.701 79.3204 120.721 79.3404 121.741C79.3604 122.791 79.3804 123.841 79.4004 124.891C79.4104 125.591 79.4204 126.301 79.4404 127.001C79.4404 127.141 79.2604 127.251 79.0804 127.261C79.0704 127.261 79.0604 127.261 79.0504 127.261H79.0704Z" fill="black"/>
<path d="M81.4796 127.191C81.3796 127.191 81.2896 127.151 81.2296 127.101C81.1596 127.041 81.1396 126.981 81.1396 126.901C81.1396 126.861 81.1396 126.831 81.1396 126.801C81.1396 126.801 81.1396 126.791 81.1396 126.781C81.1196 125.901 81.1096 125.011 81.0896 124.131C81.0696 123.081 81.0496 122.041 81.0296 120.991C81.0096 119.981 80.9896 118.961 80.9796 117.941C80.9596 116.891 80.9396 115.841 80.9296 114.791C80.9096 113.761 80.8996 112.721 80.8796 111.691C80.8796 111.171 80.8596 110.651 80.8596 110.141V110.121C80.8596 110.001 80.8596 109.881 80.8596 109.761C80.8596 109.751 80.8596 109.741 80.8596 109.721C80.8596 109.581 80.8596 109.451 80.8596 109.311C80.8596 109.301 80.8596 109.291 80.8596 109.271C80.8596 109.031 80.8596 108.781 80.8496 108.541C80.8296 107.531 80.8196 106.511 80.8096 105.501C80.8096 105.061 80.8096 104.621 80.8096 104.181C80.8096 103.961 80.8096 103.751 80.8096 103.531C80.8096 103.351 80.8096 103.171 80.8196 102.981C80.8196 102.981 80.8196 102.971 80.8196 102.961C80.8196 102.931 80.8296 102.911 80.8496 102.881C80.8496 102.861 80.8696 102.851 80.8796 102.841C80.8796 102.841 80.8796 102.841 80.8896 102.831C80.9196 102.801 80.9596 102.781 81.0096 102.771C81.1196 102.741 81.2496 102.771 81.3296 102.831C81.3696 102.871 81.3996 102.911 81.3996 102.961C81.3996 102.961 81.3996 102.981 81.3996 102.991C81.4196 103.201 81.4196 103.411 81.4296 103.611C81.4296 103.861 81.4496 104.111 81.4596 104.361C81.4796 104.871 81.4896 105.381 81.4996 105.881C81.5296 106.881 81.5496 107.891 81.5696 108.851C81.5696 108.911 81.5696 108.971 81.5696 109.031C81.5696 109.081 81.5696 109.141 81.5696 109.181C81.5696 109.181 81.5696 109.191 81.5696 109.201C81.5696 109.201 81.5696 109.241 81.5696 109.271C81.5696 109.311 81.5696 109.351 81.5696 109.391C81.5696 109.441 81.5696 109.491 81.5696 109.541C81.5696 109.541 81.5696 109.551 81.5696 109.561C81.5696 109.561 81.5696 109.561 81.5696 109.571C81.5696 109.571 81.5696 109.581 81.5696 109.591C81.5696 109.621 81.5696 109.661 81.5696 109.691C81.5696 109.691 81.5696 109.691 81.5696 109.701C81.5696 109.761 81.5696 109.821 81.5696 109.841C81.5696 109.881 81.5696 109.921 81.5696 109.941V109.981C81.5696 109.981 81.5696 110.011 81.5696 110.021C81.5696 110.061 81.5696 110.091 81.5696 110.131C81.5696 110.131 81.5696 110.141 81.5696 110.151C81.5696 110.151 81.5696 110.161 81.5696 110.171C81.5696 110.181 81.5696 110.201 81.5696 110.211C81.5696 110.211 81.5696 110.211 81.5696 110.201C81.5696 110.201 81.5696 110.201 81.5696 110.191C81.5696 110.221 81.5696 110.261 81.5696 110.281V110.321C81.5696 110.381 81.5696 110.441 81.5696 110.511C81.5696 110.571 81.5696 110.641 81.5696 110.661C81.5796 111.201 81.5896 111.741 81.5996 112.271C81.5996 112.331 81.5996 112.391 81.5996 112.451C81.5996 112.511 81.5996 112.561 81.5996 112.621C81.5996 112.681 81.5996 112.751 81.5996 112.811C81.5996 112.871 81.5996 112.931 81.5996 112.961C81.5996 113.031 81.5996 113.091 81.5996 113.161C81.6096 113.741 81.6196 114.311 81.6296 114.891C81.6296 115.081 81.6296 115.261 81.6396 115.451C81.6596 116.371 81.6696 117.291 81.6896 118.211C81.6896 118.341 81.6896 118.481 81.6896 118.611C81.7096 119.631 81.7296 120.651 81.7496 121.671C81.7696 122.721 81.7896 123.771 81.8096 124.821C81.8196 125.521 81.8296 126.231 81.8496 126.931C81.8496 127.071 81.6696 127.181 81.4896 127.191C81.4796 127.191 81.4696 127.191 81.4596 127.191H81.4796Z" fill="black"/>
<path d="M80.56 103.241C80.06 103.241 79.56 103.241 79.06 103.241C78.78 103.241 78.26 103.271 78.31 102.961C78.4 102.631 79.21 102.731 79.56 102.711C80.05 102.711 80.54 102.711 81.02 102.711C81.4 102.751 81.42 103.181 81.04 103.231C80.88 103.251 80.72 103.241 80.56 103.251V103.241Z" fill="black"/>
<path d="M79.1504 127.39C79.0304 127.39 78.9104 127.39 78.8104 127.33C78.6904 127.26 78.6604 127.1 78.7704 127.01C78.8304 126.96 78.9004 126.93 78.9804 126.92C79.0304 126.92 79.0804 126.91 79.1304 126.9C79.2404 126.89 79.3504 126.88 79.4604 126.87C79.7004 126.85 79.9404 126.84 80.1704 126.82C80.4404 126.8 80.7004 126.78 80.9704 126.77C81.0904 126.77 81.2104 126.76 81.2804 126.75C81.3204 126.75 81.3604 126.75 81.4004 126.75C81.6004 126.75 81.7804 126.85 81.7904 127C81.8104 127.15 81.6504 127.28 81.4604 127.29C81.0304 127.31 80.6004 127.33 80.1704 127.35C79.9404 127.35 79.7104 127.37 79.4804 127.38C79.4304 127.38 79.3804 127.38 79.3304 127.38C79.2704 127.38 79.2004 127.38 79.1404 127.38L79.1504 127.39Z" fill="black"/>
<path d="M100.96 127.261C100.86 127.261 100.77 127.221 100.71 127.171C100.64 127.111 100.62 127.051 100.62 126.971C100.62 126.931 100.62 126.901 100.62 126.871C100.62 126.871 100.62 126.861 100.62 126.851C100.6 125.971 100.59 125.081 100.57 124.201C100.55 123.151 100.53 122.111 100.51 121.061C100.49 120.051 100.47 119.031 100.46 118.011C100.44 116.961 100.42 115.911 100.41 114.861C100.39 113.831 100.38 112.791 100.36 111.761C100.36 111.241 100.34 110.721 100.34 110.211V110.191C100.34 110.071 100.34 109.951 100.34 109.831C100.34 109.821 100.34 109.811 100.34 109.791C100.34 109.651 100.34 109.521 100.34 109.381C100.34 109.371 100.34 109.361 100.34 109.341C100.34 109.101 100.34 108.851 100.33 108.611C100.31 107.601 100.3 106.581 100.29 105.571C100.29 105.131 100.29 104.691 100.29 104.251C100.29 104.031 100.29 103.821 100.29 103.601C100.29 103.421 100.29 103.241 100.3 103.051C100.3 103.051 100.3 103.041 100.3 103.031C100.3 103.001 100.31 102.981 100.33 102.951C100.33 102.931 100.35 102.921 100.36 102.911C100.36 102.911 100.36 102.911 100.37 102.901C100.4 102.871 100.44 102.851 100.49 102.841C100.6 102.811 100.73 102.841 100.81 102.901C100.85 102.941 100.88 102.981 100.88 103.031C100.88 103.031 100.88 103.051 100.88 103.061C100.9 103.271 100.9 103.481 100.91 103.681C100.91 103.931 100.93 104.181 100.94 104.431C100.96 104.941 100.97 105.451 100.98 105.951C101.01 106.951 101.03 107.961 101.05 108.921C101.05 108.981 101.05 109.041 101.05 109.101C101.05 109.151 101.05 109.211 101.05 109.251C101.05 109.251 101.05 109.261 101.05 109.271C101.05 109.271 101.05 109.311 101.05 109.341C101.05 109.381 101.05 109.421 101.05 109.461C101.05 109.511 101.05 109.561 101.05 109.611C101.05 109.611 101.05 109.621 101.05 109.631C101.05 109.631 101.05 109.631 101.05 109.641C101.05 109.641 101.05 109.651 101.05 109.661C101.05 109.691 101.05 109.731 101.05 109.761C101.05 109.761 101.05 109.761 101.05 109.771C101.05 109.831 101.05 109.891 101.05 109.911C101.05 109.951 101.05 109.991 101.05 110.011V110.051C101.05 110.051 101.05 110.081 101.05 110.091C101.05 110.131 101.05 110.161 101.05 110.201C101.05 110.201 101.05 110.211 101.05 110.221C101.05 110.221 101.05 110.231 101.05 110.241C101.05 110.251 101.05 110.271 101.05 110.281C101.05 110.281 101.05 110.281 101.05 110.271C101.05 110.271 101.05 110.271 101.05 110.261C101.05 110.291 101.05 110.331 101.05 110.351V110.391C101.05 110.451 101.05 110.511 101.05 110.581C101.05 110.641 101.05 110.711 101.05 110.731C101.06 111.271 101.07 111.811 101.08 112.341C101.08 112.401 101.08 112.461 101.08 112.521C101.08 112.581 101.08 112.631 101.08 112.691C101.08 112.751 101.08 112.821 101.08 112.881C101.08 112.941 101.08 113.001 101.08 113.031C101.08 113.101 101.08 113.161 101.08 113.231C101.09 113.811 101.1 114.381 101.11 114.961C101.11 115.151 101.11 115.331 101.12 115.521C101.14 116.441 101.15 117.361 101.17 118.281C101.17 118.411 101.17 118.551 101.17 118.681C101.19 119.701 101.21 120.721 101.23 121.741C101.25 122.791 101.27 123.841 101.29 124.891C101.3 125.591 101.31 126.301 101.33 127.001C101.33 127.141 101.15 127.251 100.97 127.261C100.96 127.261 100.95 127.261 100.94 127.261H100.96Z" fill="black"/>
<path d="M103.37 127.191C103.27 127.191 103.18 127.151 103.12 127.101C103.05 127.041 103.03 126.981 103.03 126.901C103.03 126.861 103.03 126.831 103.03 126.801C103.03 126.801 103.03 126.791 103.03 126.781C103.01 125.901 103 125.011 102.98 124.131C102.96 123.081 102.94 122.041 102.92 120.991C102.9 119.981 102.88 118.961 102.87 117.941C102.85 116.891 102.83 115.841 102.82 114.791C102.8 113.761 102.79 112.721 102.77 111.691C102.77 111.171 102.75 110.651 102.75 110.141V110.121C102.75 110.001 102.75 109.881 102.75 109.761C102.75 109.751 102.75 109.741 102.75 109.721C102.75 109.581 102.75 109.451 102.75 109.311C102.75 109.301 102.75 109.291 102.75 109.271C102.75 109.031 102.75 108.781 102.74 108.541C102.72 107.531 102.71 106.511 102.7 105.501C102.7 105.061 102.7 104.621 102.7 104.181C102.7 103.961 102.7 103.751 102.7 103.531C102.7 103.351 102.7 103.171 102.71 102.981C102.71 102.981 102.71 102.971 102.71 102.961C102.71 102.931 102.72 102.911 102.74 102.881C102.74 102.861 102.76 102.851 102.77 102.841C102.77 102.841 102.77 102.841 102.78 102.831C102.81 102.801 102.85 102.781 102.9 102.771C103.01 102.741 103.14 102.771 103.22 102.831C103.26 102.871 103.29 102.911 103.29 102.961C103.29 102.961 103.29 102.981 103.29 102.991C103.31 103.201 103.31 103.411 103.32 103.611C103.32 103.861 103.34 104.111 103.35 104.361C103.37 104.871 103.38 105.381 103.39 105.881C103.42 106.881 103.44 107.891 103.46 108.851C103.46 108.911 103.46 108.971 103.46 109.031C103.46 109.081 103.46 109.141 103.46 109.181C103.46 109.181 103.46 109.191 103.46 109.201C103.46 109.201 103.46 109.241 103.46 109.271C103.46 109.311 103.46 109.351 103.46 109.391C103.46 109.441 103.46 109.491 103.46 109.541C103.46 109.541 103.46 109.551 103.46 109.561C103.46 109.561 103.46 109.561 103.46 109.571C103.46 109.571 103.46 109.581 103.46 109.591C103.46 109.621 103.46 109.661 103.46 109.691C103.46 109.691 103.46 109.691 103.46 109.701C103.46 109.761 103.46 109.821 103.46 109.841C103.46 109.881 103.46 109.921 103.46 109.941V109.981C103.46 109.981 103.46 110.011 103.46 110.021C103.46 110.061 103.46 110.091 103.46 110.131C103.46 110.131 103.46 110.141 103.46 110.151C103.46 110.151 103.46 110.161 103.46 110.171C103.46 110.181 103.46 110.201 103.46 110.211C103.46 110.211 103.46 110.211 103.46 110.201C103.46 110.201 103.46 110.201 103.46 110.191C103.46 110.221 103.46 110.261 103.46 110.281V110.321C103.46 110.381 103.46 110.441 103.46 110.511C103.46 110.571 103.46 110.641 103.46 110.661C103.47 111.201 103.48 111.741 103.49 112.271C103.49 112.331 103.49 112.391 103.49 112.451C103.49 112.511 103.49 112.561 103.49 112.621C103.49 112.681 103.49 112.751 103.49 112.811C103.49 112.871 103.49 112.931 103.49 112.961C103.49 113.031 103.49 113.091 103.49 113.161C103.5 113.741 103.51 114.311 103.52 114.891C103.52 115.081 103.52 115.261 103.53 115.451C103.55 116.371 103.56 117.291 103.58 118.211C103.58 118.341 103.58 118.481 103.58 118.611C103.6 119.631 103.62 120.651 103.64 121.671C103.66 122.721 103.68 123.771 103.7 124.821C103.71 125.521 103.72 126.231 103.74 126.931C103.74 127.071 103.56 127.181 103.38 127.191C103.37 127.191 103.36 127.191 103.35 127.191H103.37Z" fill="black"/>
<path d="M102.45 103.241C101.95 103.241 101.45 103.241 100.95 103.241C100.67 103.241 100.15 103.271 100.2 102.961C100.29 102.631 101.1 102.731 101.45 102.711C101.94 102.711 102.43 102.711 102.91 102.711C103.29 102.751 103.31 103.181 102.93 103.231C102.77 103.251 102.61 103.241 102.45 103.251V103.241Z" fill="black"/>
<path d="M101.04 127.39C100.92 127.39 100.8 127.39 100.7 127.33C100.58 127.26 100.55 127.1 100.66 127.01C100.72 126.96 100.79 126.93 100.87 126.92C100.92 126.92 100.97 126.91 101.02 126.9C101.13 126.89 101.24 126.88 101.35 126.87C101.59 126.85 101.83 126.84 102.06 126.82C102.33 126.8 102.59 126.78 102.86 126.77C102.98 126.77 103.1 126.76 103.17 126.75C103.21 126.75 103.25 126.75 103.29 126.75C103.49 126.75 103.67 126.85 103.68 127C103.7 127.15 103.54 127.28 103.35 127.29C102.92 127.31 102.49 127.33 102.06 127.35C101.83 127.35 101.6 127.37 101.37 127.38C101.32 127.38 101.27 127.38 101.22 127.38C101.16 127.38 101.09 127.38 101.03 127.38L101.04 127.39Z" fill="black"/>
<path d="M113.26 28.3809C113.37 29.1609 113.48 29.9809 113.26 30.7609C112.95 31.8409 112 32.6509 110.87 32.7209C108.97 32.7009 107.05 31.8909 105.41 30.9609C104.66 30.5509 103.68 29.8009 102.8 29.9009C102.48 30.0509 102.3 31.2609 102.19 31.6309C102.08 32.2609 101.95 32.8909 101.8 33.5109C101.83 33.6409 101.78 33.7809 101.7 33.9209C101.58 34.3909 101.43 34.8609 101.27 35.3309C101.2 35.4909 101.16 35.7609 101.04 35.9209C102.09 35.7109 103.27 35.3209 104.27 35.9009C104.74 36.2209 105.16 36.6309 105.59 37.0009C106.38 37.7409 107.28 38.5309 107.4 39.6709C107.5 40.1909 107.25 40.8509 106.62 40.5209C106.34 40.3809 106.19 39.9609 105.86 39.9409C105.71 40.3009 105.81 40.7209 105.63 41.0809C105.55 41.2409 105.36 41.3409 105.18 41.3209C104.86 41.2809 104.73 40.9509 104.56 40.7209C104.38 41.0709 104.24 41.4409 104.07 41.7909C104 41.9409 103.94 42.1009 103.79 42.1909C103.53 42.3609 103.18 42.1209 103.22 41.8209C103.44 40.6009 103.13 39.4409 101.97 38.8309C101.3 38.5309 100.53 38.6109 99.8198 38.7009C99.2598 38.8409 98.9598 39.3809 98.4898 39.6709C98.0198 39.9609 97.5198 40.3209 96.9598 40.3609C97.4398 42.1109 97.5398 44.0009 97.0598 45.7609C96.5498 47.2309 95.2398 48.2509 94.2798 49.4109C94.0198 49.6509 93.8498 50.0509 93.4998 50.1509C93.2698 50.1809 93.0498 49.9809 93.0798 49.7309C93.2298 49.3209 93.4698 48.9409 93.6098 48.5209C93.7698 47.9509 93.4398 48.1809 93.1198 48.3109C92.7498 48.4509 92.2498 48.9509 91.8798 48.6209C91.7398 48.4809 91.7298 48.2609 91.8398 48.1009C92.1698 47.6109 92.6398 47.1409 92.6498 46.5209C92.6298 46.3709 92.4798 46.2809 92.4398 46.1409C92.3898 46.1509 92.3498 46.1709 92.2998 46.1909C92.0398 46.4609 91.7598 46.7209 91.4698 46.9609C91.3198 47.0909 91.0698 47.0509 90.9498 46.8909C90.7898 46.6909 90.8998 46.4309 91.0998 46.3009C91.2398 46.1709 91.3898 46.0409 91.5198 45.9109C91.5398 45.7709 91.6498 45.6509 91.7998 45.6109C91.8098 45.6109 91.8298 45.6009 91.8398 45.5909C91.9898 45.4409 92.1298 45.2909 92.2598 45.1409C92.7698 44.4409 94.0598 43.1909 94.0598 42.3609C92.6298 42.4309 91.1898 42.4909 89.7598 42.2909C87.8298 42.0709 85.8198 41.7709 84.2398 40.5409C83.8098 40.2209 83.3898 39.8909 82.9498 39.5909C82.9298 39.5809 82.9098 39.5609 82.8898 39.5509C82.8898 39.6309 82.8598 39.7209 82.7798 39.7909C82.2698 40.2509 81.6598 41.1709 82.2098 41.8009C82.8998 42.4809 83.8498 42.9109 84.8198 42.9409C85.1598 42.9409 85.2698 43.1309 85.2198 43.3209C85.2198 43.3209 85.2198 43.3209 85.2198 43.3309C85.2198 43.5209 85.0498 43.7109 84.8498 43.7009C83.1098 43.7909 84.2298 44.5709 83.4398 44.9009C83.6298 45.4009 84.1398 46.7809 83.1198 46.5609C82.7298 46.3409 82.4198 46.0009 82.0398 45.7709C81.2898 45.2909 80.4598 44.9209 79.7998 44.3109C78.2398 43.1009 79.9598 39.0609 77.3498 38.9909C77.3298 38.9709 77.3098 38.9509 77.2998 38.9309C77.2198 39.0209 77.1498 39.1209 77.0798 39.2109C76.8498 39.7009 76.6998 40.2209 76.5898 40.7409C76.4698 41.2909 76.4398 41.7709 76.4698 42.3109C76.4898 42.4109 76.4898 42.5209 76.4598 42.6109C76.6198 42.8709 76.7898 43.1409 76.9698 43.4409C77.5198 44.4309 78.1198 45.3909 78.6298 46.4009C79.1098 47.4509 79.1698 48.6309 79.0498 49.7609C78.9498 50.6309 78.7598 51.4909 78.4598 52.3009C78.1598 53.0409 77.7598 53.7409 77.3198 54.4009C76.6598 55.4009 75.9198 56.3509 74.9698 57.0809C73.3798 58.4609 72.3798 58.9209 70.2598 59.0909C69.2098 59.2309 68.1498 59.2009 67.1098 59.0309C66.0698 58.8609 64.5098 58.6909 63.8398 57.8009C63.7998 57.7209 63.7998 57.6309 63.8398 57.5509C63.4398 57.4409 63.1898 57.2609 63.2598 56.9909C63.3998 56.5509 63.8898 56.7909 64.1998 56.8509C64.4798 56.9109 64.7598 56.9509 65.0498 56.9709C66.8698 57.1009 68.6298 56.7909 70.3398 56.2009C71.4498 55.8509 72.4398 55.2409 73.3098 54.4809C74.0798 53.8509 75.0298 53.2809 75.1498 52.2009C75.4798 50.7109 75.1998 49.1809 74.9398 47.7009C74.3798 45.9009 72.9598 44.5109 71.5898 43.2909C70.5198 42.3409 69.3098 41.5309 68.3598 40.4409C65.9498 37.7209 65.0698 33.9009 66.7998 30.5809C67.0698 30.0709 68.0598 27.9909 68.6298 27.6909C68.7698 27.1709 69.5598 26.5109 69.8598 26.3309C70.9498 25.5609 72.3298 25.4209 73.6198 25.4209C74.9098 25.4409 76.1298 25.9109 77.3598 26.2509C79.0598 26.7109 80.7498 27.2509 82.2798 28.1309C82.6098 28.3009 82.9298 28.4909 83.2498 28.6709C83.3498 28.5009 83.5698 28.4009 83.7798 28.5609C85.3898 30.0009 87.6398 30.6209 89.7198 29.9309C92.1198 29.1909 91.3398 24.6709 91.7898 22.7109C91.9898 21.8009 92.5498 20.1309 93.6198 20.0109C93.9098 20.0409 94.1798 20.2009 94.4798 20.2309C94.8598 20.3109 95.2598 20.2809 95.6398 20.3609C96.7598 20.6709 97.0498 22.1809 98.7498 21.8609C99.9998 21.6709 99.9198 20.5009 99.2598 19.7009C98.7998 19.2009 98.1698 18.8909 97.6898 18.4109C97.5298 18.2509 97.3498 18.0709 97.2698 17.8509C97.1298 17.9209 96.9598 17.9209 96.8498 17.7809C96.4198 17.2009 98.1998 16.3509 98.6598 16.3809C99.6698 16.4209 99.8798 17.6409 100.55 18.1909C102.12 19.3709 102.37 17.6309 102.88 16.5109C103.2 15.8909 103.85 14.0109 104.55 13.9209C105.7 13.9509 105.27 16.2009 105.24 16.9309C105.07 18.0509 105.5 18.3109 106.43 18.7709C107.25 19.2109 108.12 19.6009 108.8 20.2509C109.38 20.8109 109.8 21.5109 110.3 22.1409C110.34 22.1909 110.36 22.2509 110.37 22.3009C110.8 22.8809 111.19 23.5009 111.59 24.1109C112.45 25.3809 113.04 26.8309 113.3 28.3409L113.26 28.3809Z" fill="#C2E3FA"/>
<path d="M70.2802 43.9307C68.9402 44.1307 67.7802 43.6307 67.5502 42.1907C67.4502 41.7507 67.4802 41.2907 67.5902 40.8607C67.7302 40.5207 68.1302 40.5407 68.3502 40.8007C68.6002 41.0107 68.8502 41.2307 69.1102 41.4307C69.6702 41.9007 70.3002 42.2907 70.7602 42.8607C71.2502 43.4307 71.0402 43.9007 70.2902 43.9407L70.2802 43.9307Z" fill="#0079D0"/>
<path d="M74.32 47.36C74.56 48.03 75.31 49.66 74.05 49.65C72.56 49.53 71.16 48.22 71.36 46.66C71.44 45.94 71.88 45.32 72.44 44.89C72.58 44.78 72.76 44.65 72.95 44.69C73.17 44.74 73.28 45 73.18 45.19C73.34 45.3 73.4 45.5 73.51 45.65C73.83 46.2 74.11 46.76 74.34 47.35L74.32 47.36Z" fill="#0079D0"/>
<path d="M72.55 54.3708C72.38 53.8908 72.23 53.3708 72.33 52.8608C72.6 51.9308 73.46 51.1808 74.42 51.0608C74.69 51.0508 74.96 51.3108 74.91 51.5908C74.8 52.0008 74.59 52.3908 74.42 52.7708C74.17 53.2908 73.22 55.4108 72.55 54.3708ZM73.1 53.6308C73.47 53.1108 73.72 52.5208 73.99 51.9408C73.39 52.2608 72.85 52.9208 73.1 53.6308Z" fill="#0079D0"/>
<path d="M72.7498 53.9409C72.2598 53.6009 73.1198 52.2409 73.3798 51.8809C73.6698 51.4909 74.2498 51.9109 73.9798 52.3109C73.5998 52.8009 73.4298 53.3109 73.2398 53.8709C73.2498 53.8609 73.2598 53.8409 73.2698 53.8309C73.1698 54.0209 72.9098 54.0709 72.7398 53.9509L72.7498 53.9409Z" fill="#0079D0"/>
<path d="M68.8399 56.57C67.3499 56.54 68.4399 54.5 68.9399 55.31C69.2399 55.16 69.5099 54.95 69.8599 54.92C70.2199 54.89 70.6799 54.86 70.9599 55.14C71.2399 54.99 71.5899 55.31 71.4599 55.6C71.3699 55.88 71.0899 55.96 70.8199 55.96C70.2199 56.29 69.5199 56.52 68.8299 56.56L68.8399 56.57Z" fill="#0079D0"/>
<path d="M66.95 38.1303C67 38.2303 67.01 38.3403 66.97 38.4303C67.01 38.6403 66.83 38.8503 66.62 38.8403C64.27 38.5803 63.36 36.8003 64.24 34.6603C64.36 34.3803 64.51 34.1103 64.68 33.8503C64.85 33.5103 65.2 33.1203 65.57 33.4703C65.76 33.6903 65.75 34.0103 65.79 34.2903C65.83 34.6403 65.86 34.9903 65.91 35.3403C66.02 36.0403 66.3 36.7903 66.59 37.4003C66.7 37.6503 66.83 37.8903 66.96 38.1303H66.95Z" fill="#0079D0"/>
<path d="M68.7103 26.6504C68.8703 26.8804 68.7103 27.1504 68.5303 27.3204C68.2003 27.6804 67.8903 28.0604 67.5903 28.4504C67.0303 29.1504 66.5503 29.9204 66.3303 30.7904C66.2403 31.0204 66.2503 31.5104 65.9303 31.5204C65.6103 31.4704 65.6403 31.0304 65.6703 30.7904C65.5203 30.7904 65.3703 30.6904 65.3203 30.5404C65.1803 30.0004 65.1503 29.4304 65.2503 28.8804C65.4703 27.6404 66.5103 26.6004 67.7703 26.4604C68.0803 26.4304 68.4903 26.3804 68.7003 26.6604L68.7103 26.6504Z" fill="#0079D0"/>
<path d="M76.1198 24.6801C76.2798 24.8401 76.4798 25.0201 76.4298 25.2701C76.3798 25.5201 76.0898 25.6301 75.8598 25.5701C75.4098 25.4801 74.9598 25.3501 74.4998 25.2801C73.9898 25.2001 73.4798 25.2301 72.9698 25.2801C72.6698 25.3101 72.3798 25.3801 72.0998 25.4701C71.8498 25.5501 71.5198 25.7201 71.3398 25.4401C71.2198 25.4901 71.0598 25.4401 70.9998 25.3101C70.9098 25.0401 71.1398 24.7901 71.2798 24.5801C71.5898 24.2001 71.9898 23.9101 72.4098 23.6901C73.8698 22.9601 75.0798 23.5901 76.1098 24.6801H76.1198Z" fill="#0079D0"/>
<path d="M81.4 27.3703C80.69 27.1603 80.02 26.8403 79.3 26.6603C78.97 26.5103 78.43 26.5903 78.27 26.2203C77.81 25.9503 78.34 25.5103 78.65 25.4003C79.15 25.1603 79.73 25.0503 80.28 25.2003C80.7 25.3103 81.07 25.5703 81.38 25.8703C81.54 26.0403 81.67 26.2403 81.79 26.4503C81.88 26.6103 82 26.8003 81.99 26.9903C81.97 27.2703 81.66 27.4303 81.41 27.3603L81.4 27.3703Z" fill="#0079D0"/>
<path d="M91.1804 26.5201C91.4204 26.7101 91.2904 27.0401 91.2304 27.2901C91.0704 27.8801 90.9104 28.4801 90.5304 28.9701C89.9904 29.6501 89.0004 30.2101 88.1304 30.1901C87.5504 30.0301 87.8604 29.4501 88.0304 29.0901C88.3604 28.2901 88.8204 27.5301 89.4904 26.9801C89.8204 26.7101 90.8704 25.9801 91.1804 26.5301V26.5201Z" fill="#0079D0"/>
<path d="M91.1096 23.3402C90.6996 23.3402 90.6596 22.8702 90.6196 22.5602C90.5796 22.3102 90.5496 22.0502 90.5396 21.7902C90.5096 21.2802 90.5996 20.7302 90.8996 20.3102C91.2296 19.8102 91.9996 19.4702 92.5296 19.8502C92.6896 19.9802 92.6896 20.2602 92.4896 20.3502C92.4896 20.4702 92.4296 20.5702 92.3796 20.6702C92.1996 20.9802 92.0396 21.3702 91.9496 21.7102C91.7896 22.1302 91.6596 23.3202 91.1196 23.3402H91.1096Z" fill="#0079D0"/>
<path d="M100.07 8.08029C101.17 8.77029 101.85 10.0403 101.72 11.3403C101.68 11.9603 101.55 12.5603 101.43 13.1703C101.3 13.7603 101.25 14.3603 101.5 14.9303C101.77 15.7003 102.31 16.3903 102.41 17.2103C102.44 17.9403 101.88 18.5203 101.14 18.4403C99.9001 18.3003 100.18 16.7303 99.7701 15.9003C99.4001 15.1103 98.5801 14.8203 97.9601 14.3003C96.8901 13.2903 98.0101 11.8003 97.7901 10.5903C97.5101 9.36029 96.0301 9.42029 95.0401 9.14029C94.1601 8.89029 93.2201 8.60029 92.5801 7.91029C92.0801 7.27029 91.7601 6.42029 91.8601 5.60029C91.8601 5.28029 92.1301 4.95029 92.4501 5.20029C92.6501 5.41029 92.5101 5.71029 92.5501 5.97029C93.6401 6.77029 94.6201 7.07029 95.9601 7.00029C97.6401 7.06029 98.7101 6.89029 100.08 8.08029H100.07Z" fill="#0079D0"/>
<path d="M87.7897 13.9704C88.3797 16.0704 88.3597 18.2804 88.1997 20.4304C88.1097 21.7104 88.0797 23.0004 87.8897 24.2604C87.7097 25.4204 87.2397 26.5904 86.9297 27.7004C86.6997 28.2804 86.6997 29.8304 85.7797 29.5304C84.2997 29.0204 84.7597 28.4404 85.0297 27.2404C85.5097 24.3404 83.2497 21.8304 81.1297 20.1804C79.9597 19.2304 78.5397 18.6704 77.0997 18.2704C76.7697 18.1304 76.1297 18.1904 75.9497 17.8704C75.7797 17.4604 76.2397 17.2904 76.5697 17.4004C76.4397 17.1704 76.6197 16.9504 76.7997 16.8104C77.0697 16.5004 77.4597 16.2104 77.5397 15.7904C77.5397 15.7204 77.5297 15.6204 77.4397 15.5904C77.1897 15.4904 76.9397 15.4104 76.6897 15.3304C75.6997 14.9904 74.7197 14.6604 73.7397 14.3004C73.2297 14.0804 72.4397 13.8604 72.1897 13.3404C72.0497 12.6604 72.9297 12.6604 73.3797 12.5904C74.2397 12.4604 76.1597 12.2104 76.7897 11.6804C76.2097 11.1604 75.5397 10.7304 74.8997 10.2904C74.5097 10.0304 74.1097 9.79043 73.7097 9.54043C73.4597 9.40043 73.1197 9.14043 73.2797 8.81043C73.4197 8.54043 73.7297 8.58043 73.9797 8.60043C74.2897 8.61043 74.5897 8.62043 74.8997 8.63043C75.3397 8.63043 75.7797 8.62043 76.2197 8.60043C76.7297 8.57043 77.2597 8.64043 77.7497 8.48043C77.2797 7.04043 76.7197 5.61043 75.8497 4.37043C75.7197 4.19043 75.5597 3.99043 75.5997 3.75043C75.6697 3.42043 76.0597 3.36043 76.3197 3.51043C77.0997 3.88043 77.8997 4.19043 78.6997 4.50043C80.7897 5.37043 82.8297 6.51043 84.3997 8.16043C85.0097 8.85043 85.4897 9.63043 86.0097 10.3904C86.7897 11.4704 87.4097 12.6704 87.7697 13.9604L87.7897 13.9704Z" fill="#0079D0"/>
<path d="M86.0495 29.8205C85.8695 29.5105 86.6495 28.2705 86.7695 27.7605C87.1095 26.8505 87.3695 25.9205 87.5995 24.9805C88.6595 20.2905 88.5195 15.0705 86.0395 10.8405C84.9095 8.99049 83.2695 7.48049 81.5695 6.16049C79.8895 4.91049 77.9095 4.13049 75.8595 3.76049C76.6495 4.67049 77.2095 5.74049 77.6295 6.87049C78.1795 8.20049 78.4795 9.11049 76.5995 8.91049C75.5195 8.87049 74.3895 8.75049 73.3295 9.00049C73.8795 9.58049 78.4895 11.4805 76.4095 12.2805C75.2795 12.4505 74.1395 12.5405 73.0395 12.9005C72.8095 13.0005 72.4495 13.0105 72.3195 13.2305C72.6895 13.8105 73.4595 13.9405 74.0695 14.1405C74.9595 14.4105 75.8695 14.6405 76.7495 14.9505C77.2095 15.1205 77.8395 15.2905 77.9095 15.8605C77.8995 16.7005 76.8795 17.1405 76.4095 17.7305C79.9095 18.6105 83.4295 20.5805 84.8995 24.0405C85.5695 25.5105 85.5395 27.1705 85.4095 28.7405C85.3895 29.1905 84.6995 29.1705 84.7195 28.7205C84.7995 27.7005 84.8395 26.7505 84.6995 25.7705C84.0995 22.5105 81.2495 20.1705 78.2695 19.0505C77.7395 18.8405 77.1995 18.7005 76.6495 18.5505C76.1295 18.4705 75.4995 18.0805 75.7595 17.4705C76.0995 16.8505 76.8595 16.5505 77.2095 15.9305C75.7495 15.1305 73.9495 15.0505 72.4595 14.2705C71.9295 14.0005 71.3195 13.3405 71.7795 12.7505C72.4895 12.0305 75.0795 11.7405 76.1095 11.6305C75.1095 10.7705 73.8595 10.2905 72.8295 9.48049C71.3495 7.57049 76.5195 8.31049 77.3495 8.21049C76.9495 6.86049 76.3895 5.52049 75.4995 4.42049C75.2495 4.05049 74.6095 3.59049 75.0095 3.13049C75.4895 2.76049 76.7495 3.31049 77.3395 3.40049C81.1495 4.36049 84.5695 7.28049 86.6695 10.5505C89.5095 15.4705 89.4095 21.5905 87.7995 26.9105C87.5195 27.8405 87.1495 28.7505 86.7095 29.6205C86.5495 29.9505 86.4695 30.3605 86.0595 29.8405L86.0495 29.8205Z" fill="black"/>
<path d="M83.7602 21.3207C84.2202 23.2107 84.7702 25.0807 84.9802 27.0307C85.0202 27.6107 85.4802 28.9507 84.5402 28.9307C83.9002 28.7907 83.4602 28.2507 83.2402 27.6507C83.0202 27.1307 82.7702 26.6207 82.4802 26.1207C81.7702 24.8707 80.7702 23.7507 79.5402 23.0307C78.0902 22.2307 76.4202 21.9507 74.8102 21.6607C73.7202 21.4607 72.5902 21.3907 71.5302 21.6907C71.0302 21.8007 70.0602 22.2807 69.9302 21.4807C69.9302 21.2407 70.0902 21.0407 70.2102 20.8407C70.4702 20.4007 70.6802 19.8207 70.3902 19.3507C70.1302 18.9007 69.5502 19.0107 69.1102 19.0207C68.4402 19.0707 67.7802 19.1707 67.1202 19.3107C66.2702 19.4507 65.4002 19.8507 64.5402 19.6207C64.2102 19.5407 64.0702 19.1107 64.3002 18.8607C64.2302 18.7007 64.2902 18.5107 64.4302 18.4107C64.7502 18.1907 65.0802 18.0007 65.4102 17.7907C65.8502 17.5207 66.2802 17.2407 66.6902 16.9307C66.9802 16.6907 67.3202 16.4707 67.5102 16.1307C67.2602 15.8707 66.8502 15.8307 66.5202 15.7107C65.4902 15.4107 64.4302 15.2907 63.3802 15.0907C63.0702 15.0007 62.9702 14.6007 63.2202 14.3807C63.6802 14.0707 64.2202 13.8807 64.7402 13.6807C65.2502 13.4907 65.7702 13.3107 66.2802 13.1107C66.6502 12.9507 67.0502 12.8107 67.3502 12.5307C66.6102 11.6507 65.7502 10.8807 64.8502 10.1707C64.5002 9.90067 64.1402 9.65067 63.7702 9.42067C63.5002 9.20067 63.0602 9.11067 62.9502 8.74067C62.9102 8.53067 63.0502 8.32067 63.2502 8.27067C63.5402 8.20067 63.8302 8.16067 64.1202 8.09067C64.9202 7.90067 65.7202 7.64067 66.5502 7.65067C67.0102 7.65067 67.4702 7.71067 67.9202 7.77067C69.5902 7.98067 71.2702 8.15067 72.8702 8.70067C73.7802 9.01067 74.6402 9.45067 75.4902 9.90067C76.3902 10.3607 77.1702 10.9907 77.8302 11.7507C78.9902 13.0307 80.3602 14.1407 81.2402 15.6507C81.7802 16.5407 82.2602 17.4707 82.7202 18.4107C83.1902 19.3307 83.5402 20.3007 83.7602 21.3107V21.3207Z" fill="#0079D0"/>
<path d="M99.41 20.1309C99.96 20.7909 99.71 21.8309 98.76 21.8409C97.75 21.8409 97.13 20.8709 96.23 20.5709C95.33 20.3309 94.16 20.5509 93.52 19.7209C92.75 18.6809 93.18 16.6109 91.55 16.3409C90.55 16.1809 89.63 16.7809 88.8 17.2309C88.28 17.5109 87.7 17.7909 87.09 17.8009C86.22 17.7609 85.47 17.1309 84.99 16.4509C84.83 16.2309 84.54 15.8609 84.78 15.6109C84.95 15.4309 85.23 15.5109 85.32 15.7309C86.75 16.0509 87.4 15.7109 88.59 14.9809C89.45 14.4509 90.38 13.9809 91.38 13.7509C92.03 13.6109 92.7 13.7109 93.33 13.8809C96.16 14.6209 95.61 16.0309 96.9 18.0209C97.24 18.4809 97.71 18.8209 98.17 19.1609C98.61 19.4609 99.09 19.7209 99.4 20.1709L99.41 20.1309Z" fill="#0079D0"/>
<path d="M106.71 23.7605C106.6 23.6605 106.44 23.6705 106.3 23.6705C105.24 23.6405 104.17 23.6205 103.11 23.7905C102.68 23.7905 102.63 24.4105 103.05 24.4905C103.27 24.5305 103.49 24.4705 103.71 24.4505C104.63 24.3405 105.56 24.4005 106.48 24.4105C106.8 24.4105 106.95 23.9605 106.7 23.7605H106.71Z" fill="black"/>
<path d="M110.93 29.3805C110.91 29.5105 110.9 29.6405 110.84 29.7505C110.51 29.5205 110.3 29.1105 110.28 28.7105C110.29 28.5905 110.31 28.4605 110.22 28.3605C110.07 28.1905 109.8 28.2605 109.69 28.4305C109.34 29.1705 110.01 30.2805 110.76 30.5005C111.37 30.6205 111.88 29.6905 111.58 29.2105C111.4 28.9905 110.99 29.0905 110.94 29.3805H110.93Z" fill="black"/>
<path d="M102.46 21.8505C101.89 22.0405 100.41 22.7905 100.72 23.5305C100.95 23.8405 101.27 23.6305 101.41 23.3505C101.57 23.1405 101.79 22.9905 102.02 22.8505C102.23 22.7305 102.46 22.6205 102.69 22.5405C103.15 22.3805 102.92 21.6905 102.46 21.8405V21.8505Z" fill="black"/>
<path d="M97.59 24.2902C97.07 24.6002 96.57 24.9502 96.05 25.2602C95.1 25.8102 93.97 25.9102 95.01 24.5702C95.49 24.0202 96.12 23.5802 96.8 23.3002C96.97 23.2202 97.16 23.1902 97.33 23.1202C97.69 22.9302 97.45 22.4402 97.08 22.5002C95.88 22.7202 94.7 23.5802 94.08 24.6202C93.5 25.5102 94.03 26.5102 95.12 26.3702C96.32 26.1702 97.26 25.2902 98.3 24.7202C98.47 24.6102 98.52 24.3802 98.41 24.2102C98.19 23.8802 97.82 24.1202 97.58 24.2802L97.59 24.2902Z" fill="black"/>
<path d="M112.43 24.2409C111.42 22.3409 109.89 20.7809 108.21 19.4509C107.37 18.8209 106.42 18.3609 105.49 17.8709C105.46 17.8509 105.42 17.8309 105.39 17.8109C105.4 17.7909 105.41 17.7609 105.42 17.7409C105.5 17.4509 105.56 17.1409 105.61 16.8409C105.72 16.0909 105.84 15.3309 105.71 14.5809C105.62 13.7609 105.08 13.0209 104.2 13.4409C103.37 13.9209 103.02 15.0809 102.68 15.9309C102.66 16.0009 102.63 16.0809 102.6 16.1509C102.35 15.6809 102.02 15.2409 101.86 14.7409C101.47 12.4709 103.29 11.4809 101.38 8.77086C100.36 7.34086 98.7597 6.49086 96.9897 6.54086C96.0297 6.51086 95.0297 6.63086 94.1097 6.29086C92.6497 5.66086 93.1397 5.05086 92.4497 4.55086C91.4197 4.22086 91.2897 5.79086 91.3497 6.49086C91.5797 8.46086 93.3397 9.58086 95.2297 9.50086C96.1597 9.50086 97.7497 9.74086 97.6197 10.9809C97.4897 11.7509 97.0297 12.4509 97.0497 13.2509C97.0297 13.8609 97.2097 14.4909 97.6597 14.9209C98.0397 15.3409 98.6397 15.4809 98.9897 15.9209C99.0097 15.9509 99.0297 15.9909 99.0497 16.0209C98.9797 16.0209 98.9097 16.0409 98.8397 16.0509C98.6697 16.0809 98.5097 16.1109 98.3397 16.1509C98.1197 16.2109 97.9097 16.2709 97.7097 16.3609C97.4897 16.4509 97.2697 16.5509 97.0697 16.6709C97.0197 16.7009 96.9697 16.7309 96.9197 16.7709C96.5297 15.6309 96.3397 14.5509 94.3097 13.7009C92.7297 13.0509 90.9697 13.1909 89.5397 14.1409C88.7397 14.6209 87.9697 15.2309 87.0397 15.4309C85.5097 15.6709 85.5897 14.9109 84.7697 14.8609C83.7497 15.1209 84.4597 16.4809 84.8697 17.0309C86.0797 18.5309 88.1097 18.5509 89.6297 17.5009C90.3997 17.0109 91.8297 16.3809 92.3697 17.4809C92.6597 18.1609 92.6397 18.9409 93.0397 19.5809C92.8597 19.4409 92.5297 19.4009 92.3197 19.3509C90.1497 19.0709 89.8997 21.2209 90.2497 22.8509C90.3897 23.4409 90.6397 24.0109 90.9797 24.5209C90.9597 24.9909 90.9797 25.4709 90.9797 25.9509C90.6997 25.9709 90.3897 26.0809 90.1997 26.1509C89.5597 26.4309 89.0097 26.8909 88.5597 27.4209C88.3497 27.6709 88.1797 27.9509 88.0397 28.2509C87.8897 28.5409 87.6497 29.3709 87.7197 29.9309C87.2397 29.8709 86.7697 29.7109 86.3297 29.5309C86.0497 29.3909 85.7497 29.2509 85.4397 29.0909C85.4897 28.8709 85.4697 28.5809 85.4697 28.4009C85.4897 27.3609 85.4197 26.3309 85.2597 25.3009C84.3497 19.4609 81.6097 13.5509 76.6197 10.1409C73.0997 7.98086 68.4697 6.76086 64.3797 7.60086C63.7697 7.79086 62.3197 7.85086 62.0197 8.42086C61.8497 9.05086 62.6797 9.19086 63.0897 9.43086C64.4497 10.0809 65.6097 11.1009 66.6197 12.2109C65.8697 12.6909 60.5697 14.3709 62.8697 15.5209C64.2297 15.8209 65.6497 15.7009 67.0097 16.0609C66.0697 16.6409 63.7197 18.1209 63.3697 19.1409C63.1997 19.9209 64.0897 20.2709 64.7197 20.2809C66.5097 20.3409 68.2697 19.5809 70.0397 19.6709C69.9897 20.4309 69.3997 21.0609 69.3597 21.8109C69.3897 22.5109 70.1697 22.6009 70.7097 22.4409C71.2997 22.3209 71.8897 22.2109 72.4897 22.1709C75.8597 21.8709 79.6797 22.8009 81.7497 25.6409C82.2197 26.3409 82.5697 27.0609 82.8897 27.8409C82.7597 27.7809 82.6297 27.7209 82.4997 27.6509C82.4097 27.4109 82.1997 26.9109 82.1697 26.8209C81.6397 25.0909 80.1697 24.0309 78.4297 24.9509C78.1997 25.0909 77.8397 25.3809 77.6597 25.6909C77.4297 25.6209 77.1897 25.5509 76.9597 25.4809C76.5697 24.7609 75.7397 23.6709 75.0397 23.3509C73.1797 22.5009 71.0797 23.3909 70.3597 25.2909C70.3497 25.3409 70.3297 25.4009 70.3297 25.4709C70.0897 25.5709 69.8597 25.6909 69.6297 25.8309C69.4197 25.9709 69.2197 26.1309 69.0297 26.2909C69.0097 26.2709 68.9797 26.2609 68.9597 26.2509C66.8997 25.4609 64.3997 27.3309 64.7497 29.5509C64.7897 30.1309 65.1897 31.2909 65.7497 31.8509C65.6797 32.1709 65.6197 32.4909 65.5797 32.8109C65.4597 32.8409 65.3497 32.8909 65.2497 32.9409C65.0197 33.0609 64.8097 33.2109 64.6097 33.3809C64.4197 33.5509 64.2497 33.7309 64.0997 33.9309C63.9697 34.1109 63.8597 34.3009 63.7597 34.5009C63.4997 35.0409 63.3397 35.6409 63.3897 36.2409C63.3997 36.3909 63.4297 36.5309 63.4597 36.6809C63.4897 36.8109 63.5197 36.9409 63.5697 37.0709C63.6097 37.1809 63.6497 37.2809 63.7097 37.3909C63.7897 37.5509 63.8697 37.7109 63.9897 37.8409C64.1697 38.0509 64.3697 38.2509 64.5797 38.4309C64.7897 38.6009 65.0097 38.7409 65.2497 38.8609C65.5997 39.0309 65.9897 39.1409 66.3697 39.1909C66.3897 39.1909 66.6097 39.1909 66.7797 39.1909C66.8297 39.2809 66.8797 39.3709 66.9297 39.4509C67.0797 39.7109 67.2397 39.9609 67.4097 40.2009C66.2897 41.7409 67.4997 44.1009 69.3897 44.3109C69.7897 44.4309 71.0197 44.2209 71.4897 43.7909C71.7897 44.0409 72.0897 44.3009 72.3597 44.5809C72.0197 44.7609 71.6797 45.1609 71.4797 45.3709C69.6697 47.6509 71.9297 49.9409 74.4197 49.7809C74.4897 49.7809 74.5597 49.7809 74.6197 49.7709C74.6297 50.0909 74.6197 50.4009 74.5997 50.7209C74.5097 50.7409 74.3797 50.7609 74.2097 50.7909C73.9097 50.8709 73.6197 50.9809 73.3597 51.1409C72.7097 51.5209 72.1097 52.0809 71.9197 52.8309C71.7497 53.4509 71.9097 54.4009 72.4097 54.8709C72.2697 54.9609 72.1197 55.0509 71.9697 55.1409C71.7197 54.9409 71.3197 54.7709 71.1497 54.7109C70.6097 54.4909 70.0097 54.4009 69.4297 54.5109C68.5497 54.6609 67.6297 55.3509 67.4997 56.5409C66.5697 56.6909 65.6897 56.7709 64.9597 56.7909C64.5297 56.7909 64.0997 56.7809 63.6697 56.7409C63.3197 56.7209 62.8397 56.5909 62.6497 56.9809C62.4097 57.6009 63.4197 58.1009 63.8297 58.4109C65.5497 59.5209 67.6397 59.9109 69.6697 59.7909C73.4397 59.6009 75.8397 57.6809 77.8497 54.6309C79.4197 52.0309 80.4397 49.8709 79.2297 46.8609C78.7397 45.6909 77.8697 44.7109 77.3497 43.5509C76.7497 42.2709 76.5897 40.6709 77.3997 39.4609C77.6397 39.5909 77.8897 39.7109 78.1097 39.8909C78.8097 40.7209 78.1297 42.2409 78.7697 43.3909C79.2497 44.6109 80.3697 45.2209 81.4797 45.7509C82.2197 46.1509 82.8197 46.7409 83.4497 47.2909C84.6297 47.7909 84.2497 46.0009 83.8597 45.4809C84.2397 45.6609 84.5197 46.0109 84.8897 46.2009C85.3297 46.4309 85.8397 46.0609 85.7097 45.5709C85.5697 45.0409 85.0697 44.7109 84.6697 44.3809C86.3697 44.6209 86.3097 43.2609 84.9097 42.7809C84.0797 42.4009 82.9697 42.2409 82.4797 41.3909C82.4797 41.0609 82.7597 40.7709 82.9397 40.5009C82.9397 40.4909 82.9597 40.4809 82.9697 40.4709C85.2597 42.3009 88.2597 43.3309 91.1997 43.2109C91.8697 43.1909 92.5297 43.1109 93.1797 42.9709C93.1397 43.1009 93.0897 43.2309 93.0297 43.3509C92.7597 43.8909 92.4097 44.3909 92.0097 44.8509C91.4297 45.5209 90.7397 46.0909 90.0197 46.5909C89.7397 46.7909 89.3197 47.0009 89.0897 47.2909C88.4397 48.9809 91.7497 47.4309 92.2997 47.1109C91.7897 47.9509 90.8997 48.4309 90.1997 49.0809C90.0297 49.2509 89.9197 49.5509 90.0897 49.7609C90.5697 50.3809 92.6197 49.1309 93.1497 48.8009C92.9897 49.1209 92.8097 49.3909 92.6097 49.6909C92.4297 50.0409 91.8897 50.4109 92.1697 50.8309C92.6597 51.3709 93.9197 50.2509 94.3697 49.9309C96.9097 47.8209 98.4197 44.1609 97.7597 40.8809C98.2697 40.5109 98.7497 40.1109 99.1897 39.6809C99.2997 39.5609 99.3997 39.4409 99.5097 39.3209C99.8297 39.2409 100.15 39.1609 100.47 39.1209C101.92 38.8609 102.98 39.7009 102.91 41.2009C102.9 41.7309 102.78 42.2509 102.69 42.7709C102.62 43.1709 102.44 43.7809 102.93 43.9809C103.85 44.1709 104.44 42.0109 104.57 41.3309C104.86 41.7809 104.96 42.3109 105.06 42.8309C105.1 43.0509 105.11 43.3409 105.35 43.4509C105.49 43.5109 105.66 43.5009 105.78 43.3909C106.17 42.9609 106.24 41.2109 106.18 40.6109C106.45 40.8809 106.62 41.2409 106.77 41.5909C106.86 41.8109 106.94 42.0909 107.19 42.1709C107.9 42.3309 107.99 41.3709 107.98 40.8709C107.88 39.1009 106.95 37.3909 105.71 36.1509C104.42 34.8809 103.26 35.2009 101.94 35.3709C102.61 33.7609 102.74 31.9909 103.16 30.3109C105.45 31.6209 107.71 33.1109 110.38 33.3009C115.16 33.3809 114.09 27.0509 112.45 24.2809L112.43 24.2409ZM92.2797 7.11086C92.0597 6.58086 91.9997 5.99086 92.1897 5.42086C92.3597 5.87086 92.6597 6.24086 93.0297 6.53086C92.9097 6.64086 92.8097 6.79086 92.6997 6.88086C92.5797 6.99086 92.4397 7.07086 92.2897 7.12086L92.2797 7.11086ZM95.0397 7.28086C95.0497 7.83086 94.7797 8.36086 94.3497 8.69086C94.2097 8.67086 94.0797 8.64086 93.9397 8.61086C93.4297 8.46086 92.9797 8.14086 92.6597 7.73086C93.0597 7.57086 93.5197 7.21086 93.6297 6.88086C94.0297 7.07086 94.4797 7.19086 94.9097 7.23086C94.9597 7.23086 95.0097 7.23086 95.0497 7.24086C95.0497 7.25086 95.0497 7.26086 95.0497 7.27086L95.0397 7.28086ZM97.0597 9.03086C97.0597 9.03086 97.0297 9.04086 97.0097 9.05086C96.9697 9.03086 96.9197 9.02086 96.8797 9.00086C96.3697 8.82086 95.8297 8.80086 95.2897 8.77086C95.6097 8.33086 95.7997 7.74086 95.7797 7.29086C96.3797 7.29086 96.9897 7.28086 97.5897 7.33086C97.5397 7.69086 97.7797 8.29086 97.0597 9.03086ZM86.2397 17.1909V17.2109C85.6497 16.9009 85.1797 16.3709 84.9997 15.6909C85.3697 15.9809 85.8097 16.1209 86.2697 16.1709C86.2697 16.2909 86.3097 16.4209 86.3097 16.5509C86.3197 16.7609 86.2997 16.9809 86.2497 17.1809L86.2397 17.1909ZM103.31 16.2409C103.5 15.8509 104.22 13.7409 104.79 14.1209C105.07 14.6409 105.04 15.2609 104.99 15.8309C104.95 16.3809 104.85 16.9209 104.73 17.4509C104.25 17.2009 103.75 16.9609 103.24 16.7809C103.16 16.7509 103.09 16.7509 103.03 16.7709C103.16 16.6309 103.23 16.4009 103.31 16.2409ZM101.64 16.0409C101.86 16.5309 102.12 17.2009 102.12 17.5309C102.12 18.1009 101.07 18.4209 100.69 18.0009C100.45 17.7409 100.19 17.0309 100.04 16.5909H100.06C100.59 16.6109 101.14 16.4409 101.55 16.1109C101.58 16.0909 101.6 16.0709 101.63 16.0409H101.64ZM97.6397 9.41086C97.6897 9.36086 97.7297 9.31086 97.7697 9.27086C98.0397 8.96086 98.2197 8.59086 98.2897 8.19086C98.3097 8.00086 98.3497 7.70086 98.3197 7.45086C98.4997 7.49086 98.6797 7.55086 98.8497 7.62086C99.5697 7.96086 100.24 8.48086 100.72 9.13086C100.66 9.21086 100.61 9.30086 100.56 9.39086C100.4 9.61086 100.23 9.83086 100.03 10.0109C99.5797 10.3809 99.0097 10.5709 98.4297 10.6109C98.3997 10.6109 98.3797 10.6109 98.3497 10.6109C98.2997 10.1309 98.0097 9.71086 97.6297 9.40086L97.6397 9.41086ZM97.7997 13.1509C97.8697 12.5609 98.1597 11.9309 98.2997 11.3309C98.4497 11.3309 98.6097 11.3309 98.7197 11.3209C99.3297 11.2609 99.9197 11.0309 100.42 10.6709C100.71 10.4409 100.96 10.1609 101.17 9.84086C101.34 10.1809 101.45 10.5409 101.51 10.9209C101.59 11.5609 101.4 12.1809 101.24 12.8109C100.46 13.2909 99.2497 13.4909 98.3597 13.3109C98.1897 13.2709 98.0297 13.2209 97.8597 13.1709C97.8397 13.1709 97.8197 13.1609 97.7997 13.1509ZM98.3797 14.5709C98.1097 14.3609 97.9497 14.1409 97.8697 13.9009C97.9497 13.9309 98.0297 13.9509 98.0897 13.9709C98.5197 14.0909 98.9797 14.1209 99.4197 14.1009C99.8797 14.0809 100.32 13.9809 100.75 13.8109C100.84 13.7709 100.96 13.7309 101.08 13.6709C101.01 14.2309 101.07 14.8109 101.3 15.3309C100.99 15.7109 100.49 15.8509 100.02 15.8709C99.9597 15.8709 99.8997 15.8709 99.8397 15.8809C99.5597 15.2609 98.9897 14.9109 98.3897 14.5609L98.3797 14.5709ZM96.7397 18.1409C96.9997 18.6109 97.3797 19.0109 97.8497 19.2809C97.9497 19.3309 98.0597 19.3809 98.1697 19.4409C98.0597 20.0209 97.5797 20.4709 97.0097 20.6009C96.4097 20.0009 95.6497 20.0109 94.8497 20.0409C94.5897 20.0109 94.3797 19.9409 94.1997 19.8409C95.1197 19.8409 95.9697 19.2809 96.4997 18.5509C96.5597 18.4509 96.6497 18.3109 96.7397 18.1509V18.1409ZM98.8397 19.8009C99.0897 19.9709 99.5097 20.4109 99.5997 20.7509C99.7397 21.2609 99.2997 21.7409 98.7797 21.6309C98.4297 21.5609 97.8397 21.3209 97.5997 21.1309C98.1797 20.9109 98.6397 20.3909 98.8297 19.8009H98.8397ZM95.3297 15.1809C95.3997 15.2509 95.4697 15.3209 95.5297 15.3909C95.9497 15.9009 96.0997 16.5509 96.3197 17.1709C96.2897 17.2109 96.2597 17.2709 96.2597 17.3309C96.1097 18.0309 95.5897 18.6009 94.9697 18.9309C94.5697 19.1409 94.1097 19.1509 93.6697 19.1809C93.3997 18.6309 93.3197 17.9109 93.0997 17.3209C94.0797 17.1809 94.9597 16.3809 95.2697 15.4609C95.2997 15.3809 95.3297 15.2909 95.3497 15.1909L95.3297 15.1809ZM89.0197 16.7709C89.0197 16.8609 88.9897 16.9409 88.9797 17.0309C88.6997 17.1909 88.4097 17.3309 88.0997 17.4309C87.6897 17.5509 87.2597 17.5509 86.8497 17.4509C87.0497 17.0909 87.0497 16.5109 86.9797 16.1709C87.3997 16.1109 87.8097 15.9809 88.1697 15.8009C88.3797 15.7009 88.5897 15.5809 88.7897 15.4609C88.8097 15.5309 88.8397 15.5909 88.8697 15.6509C88.9897 16.0109 89.0397 16.4009 89.0097 16.7809L89.0197 16.7709ZM91.3497 15.7409C91.2997 15.8809 91.2397 16.0109 91.1697 16.1409C91.0197 16.1409 90.8697 16.1709 90.7197 16.2109C90.3597 16.2909 90.0397 16.4409 89.7197 16.6109C89.7697 16.0909 89.6597 15.5609 89.4297 15.1009C89.4297 15.0909 89.4097 15.0809 89.3997 15.0609C90.0097 14.6709 90.6297 14.3009 91.3297 14.1109C91.4997 14.6309 91.5197 15.2109 91.3397 15.7309L91.3497 15.7409ZM92.7897 16.7309C92.7897 16.7309 92.7697 16.7309 92.7597 16.7309C92.5397 16.4709 92.2297 16.3009 91.8997 16.2109C91.9697 16.0709 92.0297 15.9209 92.0797 15.7909C92.2497 15.2809 92.2397 14.7409 92.1397 14.2209C92.1297 14.1509 92.1097 14.0809 92.0897 14.0109C92.9997 13.9809 93.9397 14.2009 94.7097 14.6909C94.6197 14.8609 94.5997 15.1209 94.5297 15.2909C94.2397 16.0109 93.5397 16.5509 92.7997 16.7209L92.7897 16.7309ZM90.9797 20.7309C91.1397 20.1609 91.7797 19.9509 92.3097 20.0909C92.3797 20.1109 92.4597 20.1309 92.5297 20.1509C91.9297 20.8909 91.4097 22.2209 91.2797 22.7109C91.2197 22.8909 91.1597 23.0609 91.1197 23.2409C90.8297 22.4409 90.7397 21.5409 90.9697 20.7309H90.9797ZM88.4297 29.6609C88.4797 28.7909 88.9097 27.9709 89.5797 27.4109C89.9497 27.0909 90.3597 26.8009 90.8497 26.7009C90.8897 26.7009 90.9397 26.6909 90.9897 26.6809C90.9697 27.2309 90.9097 27.7709 90.7397 28.3009C90.3997 29.2209 89.4697 29.7209 88.5497 29.9009C88.5097 29.9009 88.4797 29.9009 88.4397 29.9109C88.4397 29.8209 88.4397 29.7309 88.4397 29.6509L88.4297 29.6609ZM81.1697 23.8809C78.1597 21.2509 73.8697 20.9909 70.1097 21.7609C70.2797 20.9809 71.0597 20.0809 70.6797 19.2709C70.3497 18.7509 69.6697 18.8809 69.1497 18.9309C68.1597 19.0409 67.1897 19.2409 66.2097 19.3909C65.5297 19.4709 64.7297 19.7009 64.1097 19.3209C64.1297 19.0509 64.4797 18.8709 64.6497 18.6709C65.5397 17.8209 66.5897 17.2009 67.5897 16.5209C69.2097 14.7909 63.9197 15.1109 63.1197 14.8009C64.0197 14.0709 65.1497 13.6609 66.2097 13.2009C68.1097 12.5309 67.3997 11.7909 66.2597 10.7709C65.3397 9.88086 64.2997 9.12086 63.1297 8.61086C65.2697 8.02086 67.5197 7.86086 69.7097 8.28086C71.9597 8.76086 74.2197 9.45086 76.1597 10.7009C80.4897 13.6109 83.0397 18.5509 84.1897 23.5309C84.4097 24.5409 84.5897 25.5509 84.6797 26.5809C84.7597 26.9609 84.6897 28.0309 84.7497 28.7209C84.4597 28.5809 84.1597 28.4309 83.8497 28.2709C83.2397 26.7509 82.3197 24.8209 81.1597 23.8609L81.1697 23.8809ZM80.2297 25.4209C80.9597 25.6909 81.3097 26.4809 81.5497 27.1909C80.5297 26.7309 79.4697 26.2809 78.3997 25.9109C78.8497 25.4109 79.5897 25.2209 80.2297 25.4209ZM71.2697 25.0609C71.6897 24.4609 72.3097 23.9309 73.0397 23.7809C73.8797 23.6609 74.8697 23.8409 75.4297 24.5309C75.6097 24.7309 75.7597 24.9509 75.8897 25.1809C74.2397 24.8209 72.6397 24.7409 71.2097 25.1309C71.2297 25.1009 71.2497 25.0809 71.2697 25.0509V25.0609ZM65.6397 30.2409C65.3497 29.4109 65.3697 28.4009 65.9697 27.7209C66.5797 27.0709 67.5097 26.6309 68.4097 26.8409C68.4097 26.8409 68.4197 26.8409 68.4297 26.8409C67.5297 27.7809 66.8397 28.9209 66.3197 30.1009C66.1897 30.3909 66.0797 30.6809 65.9797 30.9709C65.8497 30.7409 65.7397 30.5109 65.6297 30.2309L65.6397 30.2409ZM66.2197 38.4109C66.0997 38.3809 65.9797 38.3509 65.8597 38.3109C65.7497 38.2709 65.6397 38.2209 65.5297 38.1709C65.4297 38.1209 65.3397 38.0709 65.2497 38.0109C65.1497 37.9409 65.0597 37.8709 64.9797 37.8009C64.8497 37.6809 64.7197 37.5509 64.5997 37.4109C64.5697 37.3709 64.5297 37.3409 64.4997 37.3009C64.4597 37.2309 64.4197 37.1609 64.3797 37.0909C64.3297 36.9909 64.2897 36.8909 64.2497 36.7809C64.2097 36.6609 64.1797 36.5409 64.1597 36.4209C64.1397 36.3409 64.1297 36.2609 64.1297 36.1809C64.1297 36.0709 64.1297 35.9609 64.1297 35.8509C64.1297 35.7609 64.1497 35.6809 64.1697 35.5909C64.1997 35.4509 64.2397 35.3109 64.2897 35.1709C64.3397 35.0209 64.3997 34.8809 64.4697 34.7409C64.5197 34.6509 64.5697 34.5609 64.6297 34.4709C64.6997 34.3809 64.7697 34.2909 64.8397 34.2009C64.9297 34.1009 65.0197 34.0109 65.1197 33.9209C65.2197 33.8309 65.3297 33.7509 65.4497 33.6709C65.4697 33.6609 65.4897 33.6409 65.5197 33.6309C65.4397 35.2809 65.7497 36.9509 66.4297 38.4609C66.3697 38.4609 66.2997 38.4409 66.2397 38.4309L66.2197 38.4109ZM68.5497 43.2009C67.8197 42.6609 67.4997 41.5909 67.9097 40.7909C68.7897 41.7509 69.8897 42.5109 70.9297 43.3309C70.1797 43.7209 69.2397 43.7509 68.5497 43.2109V43.2009ZM73.3397 48.9509C71.5997 48.4609 70.9397 46.8609 72.3297 45.5309C72.4597 45.3609 72.6997 45.2509 72.8697 45.1009C72.8997 45.1409 72.9297 45.1709 72.9597 45.2109C73.8097 46.3209 74.3797 47.6609 74.5697 49.0509C74.1597 49.0709 73.7497 49.0509 73.3497 48.9509H73.3397ZM72.8697 52.4909C73.2397 52.0109 73.7797 51.6709 74.3597 51.4909C74.3997 51.4909 74.4497 51.4709 74.4897 51.4609C74.2997 52.4609 73.9597 53.4609 73.2097 54.1909C73.1197 54.2809 73.0297 54.3709 72.9297 54.4609C72.3897 53.7709 72.4697 53.0009 72.8697 52.4909ZM68.4697 55.9409C68.7597 55.4409 69.3397 55.1809 69.9097 55.1709C70.3097 55.1709 70.6997 55.2709 71.0497 55.4409C71.0797 55.4609 71.1297 55.4909 71.1797 55.5109C70.2997 55.8909 69.3097 56.1709 68.3197 56.3709C68.3497 56.2209 68.3997 56.0709 68.4697 55.9409ZM97.1797 42.5909C97.0397 45.3109 95.7397 48.0109 93.5097 49.6209C93.8197 49.1309 94.6297 47.7009 93.5097 47.7409C92.8997 47.9409 92.4297 48.4309 91.8297 48.6709C92.3897 48.2709 94.0097 46.5109 92.7097 46.1809C92.3497 46.1609 92.0597 46.4009 91.7397 46.5409C91.4197 46.7009 91.0497 46.8709 90.6797 47.0009C91.7997 46.2009 92.7997 45.2209 93.4897 44.0209C93.6397 43.7309 93.9197 43.1909 93.9697 42.7409C95.0697 42.4109 96.1297 41.9109 97.1097 41.2909C97.1697 41.7209 97.2197 42.1209 97.1897 42.5909H97.1797ZM111.61 32.3309C108.57 33.3409 104.09 29.6809 101.3 28.4609C100.95 28.2909 100.59 28.1509 100.24 27.9909C99.7797 27.7709 99.4797 28.5009 99.9597 28.6709C100.5 28.8609 101 29.1309 101.51 29.3909C101.85 29.5609 102.18 29.7309 102.51 29.9109C102.49 29.9409 102.47 29.9709 102.45 30.0109C102.09 31.2009 102.04 32.4509 101.7 33.6409C101.55 34.2109 101.34 34.8109 101.07 35.4009C100.93 35.4009 100.79 35.4009 100.64 35.4009C99.3497 35.2409 98.4097 34.0009 98.2597 32.7609C98.2197 32.2809 97.5097 32.3209 97.5197 32.8009C97.6697 34.2709 98.7097 35.7709 100.19 36.0609C101.67 36.3509 102.56 35.6509 104.11 35.9709C105.77 36.5309 107.13 39.1209 107.22 40.8009C106.96 40.2409 106.05 39.1109 105.46 39.8809C105.29 40.3609 105.51 40.8909 105.43 41.3909C105.26 40.8709 104.63 39.9809 104.05 40.5609C103.9 40.7409 103.88 40.9809 103.82 41.2009C103.73 41.5909 103.63 41.9609 103.48 42.3409C104.07 39.8709 102.85 37.8909 100.2 38.3609C98.6597 38.8509 97.4497 38.8409 96.9197 38.0909C96.5597 37.6109 96.3397 37.0409 96.1197 36.4809C95.9797 36.0009 95.2697 36.2409 95.4397 36.7109C95.8497 38.0109 96.6697 39.5509 98.2397 39.4809C98.0797 39.6309 97.9097 39.7709 97.7497 39.9009C93.4197 43.3809 87.8797 43.1909 83.4597 39.9609C83.4397 39.9409 83.4097 39.9309 83.3897 39.9109C84.0997 39.0009 84.5897 38.0409 84.1597 36.7909C84.0697 36.4909 83.5997 36.4709 83.4797 36.7509C83.3797 37.0709 83.6097 37.3909 83.5797 37.7209C83.6397 39.2309 81.7297 39.9709 81.7197 41.4309C82.1097 42.8609 83.8797 43.0109 84.9897 43.6309C84.5797 43.6209 84.1097 43.5509 83.7597 43.8209C83.4897 44.0309 83.5597 44.4409 83.8097 44.6309C83.2497 44.3809 82.7297 44.8109 82.9597 45.3909C83.0797 45.6809 83.2997 45.9209 83.3897 46.2309C82.8197 45.7009 82.1797 45.2609 81.4897 44.9009C80.7497 44.5509 79.9997 44.1409 79.5897 43.4009C79.0697 42.5909 79.1797 41.6409 79.1497 40.7309C79.1297 40.0609 78.8397 39.3909 78.2397 39.0509C76.4197 38.4009 76.2097 36.5309 76.5797 34.8509C76.6197 34.6109 76.7997 34.3609 76.6897 34.1309C76.4297 33.7309 76.0397 34.0609 75.9597 34.4109C75.5097 35.8309 75.5297 37.6309 76.5397 38.8109C76.5997 38.8909 76.6697 38.9609 76.7397 39.0209C76.4297 39.4309 76.2397 40.1109 76.1497 40.5209C75.8597 41.9309 76.3297 43.3609 77.0297 44.5809C78.0397 46.1809 78.9397 47.4309 79.0097 49.4309C78.9397 51.3809 77.8097 53.2909 76.7197 54.8609C75.7097 56.1909 74.4997 57.5509 72.9197 58.2309C69.9997 59.4609 66.3697 59.3609 63.7597 57.4509C66.0197 57.6309 68.2697 57.1809 70.4297 56.5409C73.1797 55.7309 74.9297 54.0509 75.2597 51.1309C75.6197 48.5709 74.6797 45.8609 72.8797 44.0209C71.4097 42.5709 69.4997 41.5809 68.1797 39.9709C68.1697 39.9509 68.1497 39.9309 68.1297 39.9109C66.6597 37.9809 65.9597 35.4209 66.2597 32.9909C66.5297 30.8309 67.5397 28.7909 69.0297 27.2209C71.8297 24.3109 76.3197 25.9109 79.5897 27.1309C80.8597 27.6409 82.1197 28.1909 83.3297 28.8209C84.6097 29.4809 85.8597 30.2609 87.2797 30.5609C88.9197 30.9309 90.9097 30.0409 91.4297 28.3809C91.7797 27.0909 91.6697 24.6309 91.6797 24.4809C91.7197 23.7109 91.8397 22.9109 92.2397 22.0709C92.4897 21.4909 92.7797 20.9009 93.2097 20.4309C93.2997 20.3509 93.4097 20.2709 93.4997 20.1909C93.7597 20.4209 94.0597 20.6009 94.4097 20.6709C94.9397 20.8209 95.4997 20.6209 96.0197 20.8009C96.5597 21.0309 96.8897 21.5809 97.3797 21.8909C97.9797 22.3209 98.8297 22.4009 99.5097 22.1409C99.5697 22.1109 99.6197 22.0709 99.6697 22.0309C100.27 21.5409 100.31 20.5609 99.9297 19.9109C99.4897 19.0509 98.4497 18.9209 97.7697 18.3309C97.5097 18.0409 97.3197 17.7409 97.1797 17.4509C97.1897 17.4509 97.1997 17.4309 97.2097 17.4209C97.2797 17.3709 97.3497 17.3209 97.4297 17.2709C97.5797 17.1809 97.7497 17.1009 97.9097 17.0309C98.1897 16.9109 98.4797 16.8009 98.7797 16.7209C98.9397 16.6809 99.0997 16.6409 99.2597 16.6109C99.3497 16.9409 99.4097 17.2909 99.5497 17.6009C99.8397 18.3009 100.53 18.8409 101.27 18.9809C102.12 19.0009 102.76 18.1909 102.84 17.3909C102.87 17.4209 102.92 17.4509 102.97 17.4609C103.84 17.7609 104.63 18.2409 105.44 18.6709C105.61 18.7509 105.78 18.8409 105.95 18.9309C105.65 19.3909 105.26 20.2309 105.72 20.5309C106.06 20.6809 106.22 20.3309 106.25 20.0409C106.33 19.7709 106.43 19.5209 106.6 19.2909C106.98 19.5209 107.36 19.7609 107.72 20.0209C107.88 20.5509 108.15 21.0509 108.34 21.5709C108.46 21.8009 108.48 22.1309 108.72 22.2709C109 22.4209 109.35 22.1209 109.23 21.8209C109.12 21.5409 109.01 21.2609 108.89 20.9909C109.05 21.1409 109.21 21.3009 109.37 21.4609C110.97 22.9809 112.19 24.9209 112.75 27.0809C112.8 27.3009 112.85 27.5309 112.9 27.7609C112.84 27.8109 112.79 27.8709 112.75 27.9609C112.59 27.8309 112.48 27.6509 112.4 27.4609C112.32 27.2709 112.31 27.0209 112.11 26.9209C111.76 26.7609 111.55 27.1609 111.65 27.4609C111.76 27.9609 112.08 28.4709 112.56 28.6909C112.73 28.7609 112.9 28.7309 113.04 28.6609C113.18 30.1109 112.98 31.6409 111.59 32.3109L111.61 32.3309Z" fill="black"/>
</svg>
