<svg width="96" height="96" viewBox="0 0 96 96" fill="none" xmlns="http://www.w3.org/2000/svg">
<path fill-rule="evenodd" clip-rule="evenodd" d="M7.2 16.7995C6.53832 16.7995 6 16.2612 6 15.5995C6 14.9378 6.53832 14.3995 7.2 14.3995C7.86168 14.3995 8.4 14.9378 8.4 15.5995C8.4 16.2612 7.86168 16.7995 7.2 16.7995Z" fill="#EAF5FF"/>
<path fill-rule="evenodd" clip-rule="evenodd" d="M70.8 87.5995C70.1383 87.5995 69.6 87.0612 69.6 86.3995C69.6 85.7378 70.1383 85.1995 70.8 85.1995C71.4617 85.1995 72 85.7378 72 86.3995C72 87.0612 71.4617 87.5995 70.8 87.5995Z" fill="#EAF5FF"/>
<path fill-rule="evenodd" clip-rule="evenodd" d="M75.6 10.7995C74.9383 10.7995 74.4 10.2612 74.4 9.59954C74.4 8.9378 74.9383 8.39954 75.6 8.39954C76.2617 8.39954 76.8 8.9378 76.8 9.59954C76.8 10.2612 76.2617 10.7995 75.6 10.7995Z" fill="#EAF5FF"/>
<path fill-rule="evenodd" clip-rule="evenodd" d="M90 61.1995C89.3383 61.1995 88.8 60.6612 88.8 59.9995C88.8 59.3378 89.3383 58.7995 90 58.7995C90.6617 58.7995 91.2 59.3378 91.2 59.9995C91.2 60.6612 90.6617 61.1995 90 61.1995Z" fill="#EAF5FF"/>
<path fill-rule="evenodd" clip-rule="evenodd" d="M33.6361 56.1063C33.7981 55.4637 34.4503 55.074 35.093 55.2359C35.7356 55.3979 36.1253 56.0501 35.9634 56.6928C34.7629 61.4564 30.384 64.7995 25.1997 64.7995C20.1494 64.7995 15.8586 61.4719 14.4497 56.7421C14.2605 56.1069 14.622 55.4387 15.2572 55.2495C15.8923 55.0603 16.5606 55.4218 16.7498 56.057C17.8608 59.7867 21.23 62.3995 25.1997 62.3995C29.2941 62.3995 32.7068 59.7941 33.6361 56.1063ZM79.2361 56.1063C79.3981 55.4637 80.0503 55.074 80.693 55.2359C81.3356 55.3979 81.7253 56.0501 81.5634 56.6928C80.363 61.4564 75.9841 64.7995 70.7997 64.7995C65.7494 64.7995 61.4586 61.4719 60.0497 56.7421C59.8605 56.1069 60.222 55.4387 60.8572 55.2495C61.4923 55.0603 62.1606 55.4218 62.3498 56.057C63.4608 59.7867 66.83 62.3995 70.7997 62.3995C74.8941 62.3995 78.3068 59.7941 79.2361 56.1063ZM70.7997 38.3995C71.4151 38.3995 71.9223 38.8628 71.9917 39.4596L71.9997 39.5995V43.9015L78.8483 50.751C79.3169 51.2196 79.3169 51.9794 78.8483 52.4481C78.4157 52.8806 77.735 52.9139 77.2643 52.5479L77.1512 52.4481L70.7997 46.0975L64.4483 52.4481C63.9796 52.9167 63.2198 52.9167 62.7512 52.4481C62.3186 52.0155 62.2854 51.3348 62.6514 50.8641L62.7512 50.751L69.5997 43.9003V39.5995C69.5997 38.9368 70.137 38.3995 70.7997 38.3995ZM25.1997 38.3995C25.8151 38.3995 26.3223 38.8628 26.3917 39.4596L26.3997 39.5995V43.9015L30.8955 48.3982C31.3641 48.8669 31.3641 49.6267 30.8955 50.0953C30.4629 50.5279 29.7822 50.5611 29.3115 50.1951L29.1984 50.0953L25.1997 46.0963L18.8483 52.4481C18.3796 52.9167 17.6198 52.9167 17.1512 52.4481C16.7186 52.0155 16.6853 51.3348 17.0514 50.8641L17.1512 50.751L23.9997 43.9003V39.5995C23.9997 38.9368 24.537 38.3995 25.1997 38.3995ZM33.2483 50.751C33.7169 51.2196 33.7169 51.9794 33.2483 52.4481C32.7796 52.9167 32.0198 52.9167 31.5512 52.4481C31.0826 51.9794 31.0826 51.2196 31.5512 50.751C32.0198 50.2824 32.7796 50.2824 33.2483 50.751Z" fill="#0279D0"/>
<path fill-rule="evenodd" clip-rule="evenodd" d="M48.0004 14.3995C45.3494 14.3995 43.2004 16.5486 43.2004 19.1995C43.2004 21.3984 44.6789 23.2519 46.696 23.8202C46.0408 26.9606 42.3258 29.3843 36.2517 31.0608L35.3787 31.2925L34.4747 31.5142C33.5555 31.731 32.5905 31.9328 31.5819 32.1196C28.0913 32.766 24.3409 33.1827 20.589 33.4143C20.1509 33.4414 19.7232 33.4652 19.3073 33.486L18.0956 33.5396C17.7041 33.5546 17.3255 33.5669 16.9608 33.5765L16.4211 33.589L15.6553 33.5994L15.4604 33.6076C14.8636 33.6769 14.4004 34.1841 14.4004 34.7995C14.4004 35.4623 14.9376 35.9995 15.6004 35.9995L16.7375 35.9828L17.5953 35.9588L18.7971 35.9127L20.0732 35.8488L20.7368 35.8098C24.5786 35.5726 28.422 35.1456 32.0189 34.4795C32.7071 34.352 33.3781 34.2177 34.0311 34.0764L34.9971 33.859C40.3602 32.605 44.4219 30.8393 46.8004 28.4287V49.1995L46.8085 49.3395C46.8778 49.9363 47.385 50.3995 48.0004 50.3995C48.6631 50.3995 49.2004 49.8623 49.2004 49.1995V28.4287C51.5789 30.8393 55.6406 32.605 61.0037 33.859L61.9697 34.0764C62.6227 34.2177 63.2936 34.352 63.9819 34.4795C67.5788 35.1456 71.4221 35.5726 75.264 35.8098L75.9276 35.8488L77.2037 35.9127L78.4055 35.9588L79.2632 35.9828L80.4004 35.9995C81.0631 35.9995 81.6004 35.4623 81.6004 34.7995C81.6004 34.1841 81.1371 33.6769 80.5403 33.6076L80.3455 33.5994L79.5797 33.589L79.0399 33.5765C78.6753 33.5669 78.2967 33.5546 77.9052 33.5396L76.6935 33.486C76.2775 33.4652 75.8499 33.4414 75.4118 33.4143C71.6599 33.1827 67.9095 32.766 64.4189 32.1196C63.4102 31.9328 62.4453 31.731 61.5261 31.5142L60.6221 31.2925L59.7491 31.0608C53.675 29.3843 49.96 26.9606 49.3048 23.8202C51.3219 23.2519 52.8004 21.3984 52.8004 19.1995C52.8004 16.5486 50.6514 14.3995 48.0004 14.3995ZM50.4004 19.1995C50.4004 17.8741 49.3259 16.7995 48.0004 16.7995C46.6749 16.7995 45.6004 17.8741 45.6004 19.1995C45.6004 20.525 46.6749 21.5995 48.0004 21.5995C49.3259 21.5995 50.4004 20.525 50.4004 19.1995Z" fill="#2F3A43"/>
<path d="M48.0004 62.3995C48.6158 62.3995 49.123 62.8628 49.1923 63.4596L49.2004 63.5995V69.5995H61.2004C61.8631 69.5995 62.4004 70.1368 62.4004 70.7995C62.4004 71.4149 61.9371 71.9221 61.3403 71.9915L61.2004 71.9995H37.0913C36.5437 71.9995 36.0725 72.4523 36.0079 73.0573L36.0004 73.1995V74.3995H73.2004C75.1176 74.3995 76.6848 75.8982 76.7943 77.788L76.8004 77.9995V79.1995H80.4004C81.0631 79.1995 81.6004 79.7368 81.6004 80.3995C81.6004 81.0149 81.1372 81.5221 80.5403 81.5915L80.4004 81.5995H58.8004C58.1377 81.5995 57.6004 81.0623 57.6004 80.3995C57.6004 79.7841 58.0636 79.2769 58.6605 79.2076L58.8004 79.1995H74.4004V77.9995C74.4004 77.3841 73.9372 76.8769 73.3403 76.8076L73.2004 76.7995H22.8004C22.185 76.7995 21.6778 77.2628 21.6085 77.8596L21.6004 77.9995V79.1995H30.0004C30.6631 79.1995 31.2004 79.7368 31.2004 80.3995C31.2004 81.0149 30.7372 81.5221 30.1403 81.5915L30.0004 81.5995H15.6004C14.9377 81.5995 14.4004 81.0623 14.4004 80.3995C14.4004 79.7841 14.8636 79.2769 15.4605 79.2076L15.6004 79.1995H19.2004V77.9995C19.2004 76.0823 20.6991 74.5151 22.5889 74.4056L22.8004 74.3995H33.6004V73.1995C33.6004 71.294 35.0418 69.716 36.8849 69.6057L37.0913 69.5995H46.8004V63.5995C46.8004 62.9368 47.3377 62.3995 48.0004 62.3995Z" fill="#2F3A43"/>
<path d="M48.0004 59.9995C48.6631 59.9995 49.2004 59.4623 49.2004 58.7995C49.2004 58.1368 48.6631 57.5995 48.0004 57.5995C47.3377 57.5995 46.8004 58.1368 46.8004 58.7995C46.8004 59.4623 47.3377 59.9995 48.0004 59.9995Z" fill="#2F3A43"/>
</svg>
