<svg width="96" height="96" viewBox="0 0 96 96" fill="none" xmlns="http://www.w3.org/2000/svg">
<path fill-rule="evenodd" clip-rule="evenodd" d="M7.2 40.7995C7.86 40.7995 8.4 40.2595 8.4 39.5995C8.4 38.9395 7.86 38.3995 7.2 38.3995C6.54 38.3995 6 38.9395 6 39.5995C6 40.2595 6.54 40.7995 7.2 40.7995Z" fill="#EAF5FF"/>
<path fill-rule="evenodd" clip-rule="evenodd" d="M55.2 7.1995C55.86 7.1995 56.4 6.6595 56.4 5.9995C56.4 5.3395 55.86 4.7995 55.2 4.7995C54.54 4.7995 54 5.3395 54 5.9995C54 6.6595 54.54 7.1995 55.2 7.1995Z" fill="#EAF5FF"/>
<path fill-rule="evenodd" clip-rule="evenodd" d="M79.2 74.3995C79.86 74.3995 80.4 73.8595 80.4 73.1995C80.4 72.5395 79.86 71.9995 79.2 71.9995C78.54 71.9995 78 72.5395 78 73.1995C78 73.8595 78.54 74.3995 79.2 74.3995Z" fill="#EAF5FF"/>
<path fill-rule="evenodd" clip-rule="evenodd" d="M88.8 35.9995C89.46 35.9995 90 35.4595 90 34.7995C90 34.1395 89.46 33.5995 88.8 33.5995C88.14 33.5995 87.6 34.1395 87.6 34.7995C87.6 35.4595 88.14 35.9995 88.8 35.9995Z" fill="#EAF5FF"/>
<path fill-rule="evenodd" clip-rule="evenodd" d="M43.2 87.5995C43.86 87.5995 44.4 87.0595 44.4 86.3995C44.4 85.7395 43.86 85.1995 43.2 85.1995C42.54 85.1995 42 85.7395 42 86.3995C42 87.0595 42.54 87.5995 43.2 87.5995Z" fill="#EAF5FF"/>
<path fill-rule="evenodd" clip-rule="evenodd" d="M47.9995 31.5478C40.9349 31.5478 35.2111 37.2717 35.2111 44.3363C35.2111 44.8015 35.2402 45.2831 35.2899 45.7505C35.2916 45.7663 35.293 45.782 35.294 45.7977C36.017 52.1657 41.4296 57.1247 47.9995 57.1247C55.0641 57.1247 60.7879 51.4009 60.7879 44.3363C60.7879 37.2717 55.0641 31.5478 47.9995 31.5478ZM32.8989 45.9614C32.9001 45.9807 32.9018 46.0002 32.9039 46.0197C33.7408 53.6096 40.1776 59.5247 47.9995 59.5247C56.3896 59.5247 63.1879 52.7264 63.1879 44.3363C63.1879 35.9462 56.3896 29.1478 47.9995 29.1478C39.6094 29.1478 32.8111 35.9462 32.8111 44.3363C32.8111 44.8835 32.8443 45.4356 32.8989 45.9614Z" fill="#0279D0"/>
<path fill-rule="evenodd" clip-rule="evenodd" d="M47.9995 59.5247C37.0815 59.5247 28.2223 68.3741 28.2223 79.302C28.2223 79.9648 27.685 80.502 27.0223 80.502C26.3595 80.502 25.8223 79.9648 25.8223 79.302C25.8223 67.0479 35.7568 57.1247 47.9995 57.1247C60.2425 57.1247 70.1769 67.059 70.1769 79.302C70.1769 79.9648 69.6396 80.502 68.9769 80.502C68.3141 80.502 67.7769 79.9648 67.7769 79.302C67.7769 68.3845 58.9171 59.5247 47.9995 59.5247Z" fill="#0279D0"/>
<path d="M68.8724 26.0184C70.1979 26.0184 71.2724 24.9439 71.2724 23.6184C71.2724 22.2929 70.1979 21.2184 68.8724 21.2184C67.5469 21.2184 66.4724 22.2929 66.4724 23.6184C66.4724 24.9439 67.5469 26.0184 68.8724 26.0184Z" fill="#0279D0"/>
<path fill-rule="evenodd" clip-rule="evenodd" d="M76.8537 41.1457C77.5164 41.151 78.0493 41.6926 78.0439 42.3553L77.9583 52.9082C77.9529 53.5709 77.4113 54.1038 76.7486 54.0984C76.0859 54.0931 75.553 53.5515 75.5584 52.8887L75.644 42.3359C75.6494 41.6732 76.191 41.1403 76.8537 41.1457Z" fill="#2F3A43"/>
<path fill-rule="evenodd" clip-rule="evenodd" d="M17.4931 14.7524C17.72 14.5248 18.0287 14.3977 18.3501 14.3996L77.0437 14.742C77.3623 14.7439 77.6671 14.8724 77.8909 15.0992C78.1147 15.326 78.2391 15.6325 78.2367 15.9511L78.0761 37.0676C78.0711 37.7303 77.5298 38.2635 76.867 38.2584C76.2043 38.2534 75.6712 37.7121 75.6762 37.0493L75.8276 17.135L19.5542 16.8066L19.8855 52.8874C19.8916 53.5502 19.3593 54.0923 18.6966 54.0984C18.0339 54.1045 17.4917 53.5722 17.4856 52.9095L17.1431 15.6106C17.1402 15.2892 17.2663 14.9801 17.4931 14.7524Z" fill="#2F3A43"/>
<path fill-rule="evenodd" clip-rule="evenodd" d="M17.8257 52.0613C18.0516 51.8293 18.3617 51.6984 18.6855 51.6984H29.2384C29.9011 51.6984 30.4384 52.2357 30.4384 52.8984C30.4384 53.5612 29.9011 54.0984 29.2384 54.0984H19.192L11.2435 62.262H22.9238C23.5865 62.262 24.1238 62.7992 24.1238 63.462C24.1238 64.1247 23.5865 64.662 22.9238 64.662H8.40023C7.91779 64.662 7.48225 64.3731 7.29466 63.9286C7.10707 63.4841 7.2039 62.9705 7.54045 62.6249L17.8257 52.0613Z" fill="#2F3A43"/>
<path d="M23.9941 63.4621C23.9941 64.0531 23.5149 64.5323 22.9238 64.5323C22.3327 64.5323 21.8535 64.0531 21.8535 63.4621C21.8535 62.871 22.3327 62.3918 22.9238 62.3918C23.5149 62.3918 23.9941 62.871 23.9941 63.4621Z" fill="#2F3A43"/>
<path d="M23.9941 63.4621C23.9941 64.0531 23.5149 64.5323 22.9238 64.5323C22.3327 64.5323 21.8535 64.0531 21.8535 63.4621C21.8535 62.871 22.3327 62.3918 22.9238 62.3918C23.5149 62.3918 23.9941 62.871 23.9941 63.4621Z" fill="#2F3A43"/>
<path d="M23.9941 63.4621C23.9941 64.0531 23.5149 64.5323 22.9238 64.5323C22.3327 64.5323 21.8535 64.0531 21.8535 63.4621C21.8535 62.871 22.3327 62.3918 22.9238 62.3918C23.5149 62.3918 23.9941 62.871 23.9941 63.4621Z" fill="#2F3A43"/>
<path d="M23.9941 63.4621C23.9941 64.0531 23.5149 64.5323 22.9238 64.5323C22.3327 64.5323 21.8535 64.0531 21.8535 63.4621C21.8535 62.871 22.3327 62.3918 22.9238 62.3918C23.5149 62.3918 23.9941 62.871 23.9941 63.4621Z" fill="#2F3A43"/>
<path d="M23.9941 63.4621C23.9941 64.0531 23.5149 64.5323 22.9238 64.5323C22.3327 64.5323 21.8535 64.0531 21.8535 63.4621C21.8535 62.871 22.3327 62.3918 22.9238 62.3918C23.5149 62.3918 23.9941 62.871 23.9941 63.4621Z" fill="#2F3A43"/>
<path fill-rule="evenodd" clip-rule="evenodd" d="M27.0002 63.462C27.0002 62.7992 27.5375 62.262 28.2002 62.262H29.5167C30.1794 62.262 30.7167 62.7992 30.7167 63.462C30.7167 64.1247 30.1794 64.662 29.5167 64.662H28.2002C27.5375 64.662 27.0002 64.1247 27.0002 63.462Z" fill="#2F3A43"/>
<path fill-rule="evenodd" clip-rule="evenodd" d="M65.0055 52.8984C65.0055 52.2357 65.5428 51.6984 66.2055 51.6984H76.7584C77.0712 51.6984 77.3717 51.8206 77.5958 52.0389L88.4376 62.6025C88.7873 62.9432 88.8957 63.4618 88.7118 63.914C88.5279 64.3662 88.0884 64.662 87.6002 64.662H66.4838C65.821 64.662 65.2838 64.1247 65.2838 63.462C65.2838 62.7992 65.821 62.262 66.4838 62.262H84.6491L76.2704 54.0984H66.2055C65.5428 54.0984 65.0055 53.5612 65.0055 52.8984Z" fill="#2F3A43"/>
<path fill-rule="evenodd" clip-rule="evenodd" d="M23.0403 21.2184C23.0403 20.5557 23.5775 20.0184 24.2403 20.0184H55.9203C56.583 20.0184 57.1203 20.5557 57.1203 21.2184C57.1203 21.8812 56.583 22.4184 55.9203 22.4184H24.2403C23.5775 22.4184 23.0403 21.8812 23.0403 21.2184Z" fill="#2F3A43"/>
<path fill-rule="evenodd" clip-rule="evenodd" d="M23.0403 26.5056C23.0403 25.8429 23.5775 25.3056 24.2403 25.3056H34.8038C35.4666 25.3056 36.0038 25.8429 36.0038 26.5056C36.0038 27.1684 35.4666 27.7056 34.8038 27.7056H24.2403C23.5775 27.7056 23.0403 27.1684 23.0403 26.5056Z" fill="#2F3A43"/>
<path fill-rule="evenodd" clip-rule="evenodd" d="M23.0403 31.782C23.0403 31.1192 23.5775 30.582 24.2403 30.582H29.5167C30.1794 30.582 30.7167 31.1192 30.7167 31.782C30.7167 32.4447 30.1794 32.982 29.5167 32.982H24.2403C23.5775 32.982 23.0403 32.4447 23.0403 31.782Z" fill="#2F3A43"/>
</svg>
