<svg width="96" height="96" viewBox="0 0 96 96" fill="none" xmlns="http://www.w3.org/2000/svg">
<path fill-rule="evenodd" clip-rule="evenodd" d="M81.5998 15.5995C80.9381 15.5995 80.3998 15.0612 80.3998 14.3995C80.3998 13.7378 80.9381 13.1995 81.5998 13.1995C82.2615 13.1995 82.7998 13.7378 82.7998 14.3995C82.7998 15.0612 82.2615 15.5995 81.5998 15.5995Z" fill="#EAF5FF"/>
<path fill-rule="evenodd" clip-rule="evenodd" d="M49.1998 91.1995C48.5381 91.1995 47.9998 90.6612 47.9998 89.9995C47.9998 89.3377 48.5381 88.7995 49.1998 88.7995C49.8615 88.7995 50.3998 89.3377 50.3998 89.9995C50.3998 90.6612 49.8615 91.1995 49.1998 91.1995Z" fill="#EAF5FF"/>
<path fill-rule="evenodd" clip-rule="evenodd" d="M17.9998 11.9995C17.3381 11.9995 16.7998 11.4612 16.7998 10.7995C16.7998 10.1378 17.3381 9.59949 17.9998 9.59949C18.6615 9.59949 19.1998 10.1378 19.1998 10.7995C19.1998 11.4612 18.6615 11.9995 17.9998 11.9995Z" fill="#EAF5FF"/>
<path fill-rule="evenodd" clip-rule="evenodd" d="M44.8068 55.8943L37.1482 46.841L37.0012 46.6829C36.086 45.7987 34.6977 45.7825 33.784 46.6358C32.8197 47.5363 32.7336 49.0742 33.5887 50.0848L43.4239 61.7095C43.4866 61.7836 43.5552 61.8525 43.629 61.9155C44.3849 62.5612 45.521 62.4718 46.1667 61.7159L67.2039 37.0881L67.3368 36.917C68.0548 35.8842 67.9185 34.4812 67.0243 33.6382C66.0474 32.717 64.5338 32.803 63.6592 33.8268L44.8068 55.8943Z" fill="#0279D0"/>
<path d="M13.7288 54.0425C10.3914 35.115 23.0297 17.0657 41.9572 13.7282C53.9824 11.6079 66.0351 15.9214 74.0085 24.871C74.4494 25.3659 74.4057 26.1244 73.9108 26.5653C73.416 27.0061 72.6574 26.9624 72.2166 26.4675C64.7911 18.1328 53.5712 14.1174 42.374 16.0918C24.7518 19.199 12.9851 36.0036 16.0924 53.6257C19.1996 71.2479 36.0042 83.0146 53.6264 79.9073C71.2485 76.8001 83.0152 59.9955 79.9079 42.3733C79.7928 41.7207 80.2286 41.0983 80.8813 40.9832C81.534 40.8681 82.1564 41.3039 82.2715 41.9566C85.6089 60.8841 72.9706 78.9334 54.0431 82.2709C35.1156 85.6083 17.0663 72.97 13.7288 54.0425Z" fill="#2F3A43"/>
<path d="M84.2689 56.3087C84.4163 55.6626 85.0596 55.2583 85.7058 55.4057C86.3519 55.5531 86.7562 56.1964 86.6088 56.8425C84.9948 63.918 81.4589 70.3799 76.4315 75.5643C75.9702 76.0401 75.2105 76.0518 74.7347 75.5904C74.2589 75.1291 74.2472 74.3694 74.7086 73.8936C79.4321 69.0224 82.7532 62.953 84.2689 56.3087Z" fill="#2F3A43"/>
<path d="M86.4001 50.3995C85.7374 50.3995 85.2001 50.9368 85.2001 51.5995C85.2001 52.2623 85.7374 52.7995 86.4001 52.7995C87.0629 52.7995 87.6001 52.2623 87.6001 51.5995C87.6001 50.9368 87.0629 50.3995 86.4001 50.3995Z" fill="#2F3A43"/>
</svg>
