<svg width="288" height="147" viewBox="0 0 288 147" fill="none" xmlns="http://www.w3.org/2000/svg">
<path opacity="0.8" d="M286.434 74.4787C293.364 96.1172 276.038 111.328 259.117 114.818C239.058 118.957 217.731 114.3 197.912 121.06C176.611 127.699 160.104 144.215 136.237 146.371C101.975 149.465 81.9835 138.844 52.4146 128.016C29.3903 121.995 -3.05837 124.563 0.23178 90.4153C3.14034 60.2224 45.9428 58.7381 68.8823 43.5377C91.8302 28.3305 114.861 5.63211 145.612 4.95218C175.514 4.291 194.493 28.5895 217.977 42.3091C240.497 53.8389 273.484 48.2273 286.432 74.4787H286.434Z" fill="white"/>
<path d="M180.3 34.3135C180.58 46.5829 180.03 80.7071 180.03 80.7071C144.98 81.1382 66.1621 80.8417 66.1621 80.8417C66.8812 64.8472 66.2554 45.9626 66.3215 28.794C66.3249 27.7681 67.9276 26.1731 68.9486 26.1731C71.0074 26.1731 153.975 25.7692 177.423 25.8254C180.605 25.8323 180.234 31.4659 180.3 34.3135Z" fill="#0079D0"/>
<path d="M109.356 98.6359C109.256 98.6222 109.3 98.6785 109.339 98.7347C109.346 98.7023 109.351 98.6683 109.356 98.6359ZM128.578 97.4805C133.139 97.4107 120.643 97.2982 113.535 97.3033C113.13 97.3033 113.111 97.9134 113.516 97.9338C118.189 98.1758 123.947 97.1175 128.551 97.4805C128.56 97.4805 128.57 97.4805 128.578 97.4805ZM180.134 80.9748C180.276 80.9918 180.388 81.1009 180.408 81.244C181.048 85.9814 180.49 96.0184 179.231 96.303C167.661 98.9205 145.695 97.4703 136.51 97.6288C136.319 97.6322 136.176 97.8043 136.205 97.9951C136.492 99.839 137.278 107.898 139.264 109.724C139.843 110.256 141.81 110.253 143.594 110.22C144.174 110.21 144.776 111.776 143.998 111.764C134.478 111.601 122.173 111.764 112.119 111.764C109.302 111.764 97.4507 112.679 102.101 110.19C102.125 110.176 102.152 110.166 102.177 110.159C104.151 109.658 107.616 111.089 107.994 108.112C107.998 108.092 108.003 108.07 108.01 108.049C109.438 104.186 109.372 99.3329 109.087 97.8537C109.056 97.6986 108.919 97.5896 108.761 97.5964C104.602 97.7975 75.8934 98.0769 69.9423 97.8844C69.8507 97.881 66.318 95.393 66.318 95.301C66.1349 79.5689 65.6159 80.9441 66.162 80.8453C66.1722 80.8453 175.107 80.3988 180.134 80.9765V80.9748Z" fill="#A8A7B6"/>
<path d="M84.9766 25.7726C84.9342 25.7675 84.8884 25.759 84.846 25.7488C84.8375 25.7471 84.829 25.7436 84.8223 25.7419C85.1292 25.7471 85.4362 25.7505 85.7432 25.7539C85.5447 25.7539 85.3463 25.7573 85.1496 25.7675C85.1089 25.7709 85.0699 25.7743 85.0292 25.7743C85.0122 25.7743 84.9936 25.7743 84.9766 25.7726Z" fill="black"/>
<path d="M83.3848 25.718C83.6714 25.7231 83.9563 25.7282 84.2429 25.7334C84.2022 25.7351 84.1615 25.7368 84.1208 25.7385C84.0377 25.7351 83.9512 25.7419 83.8647 25.7487C83.7935 25.7538 83.7222 25.7606 83.651 25.7606C83.5594 25.7606 83.4696 25.7504 83.3865 25.718H83.3848Z" fill="black"/>
<path d="M122.433 91.8329C122.204 91.8022 121.975 91.7273 121.761 91.6404C121.32 91.458 120.952 91.1445 120.672 90.7611C120.533 90.5702 120.413 90.3589 120.333 90.1356C120.241 89.8817 120.191 89.6125 120.177 89.3433C120.163 89.057 120.214 88.769 120.304 88.498C120.404 88.1947 120.55 87.9101 120.757 87.6664C121.149 87.2097 121.675 86.8826 122.265 86.7633C122.833 86.6491 123.443 86.7156 123.971 86.9575C124.459 87.1808 124.861 87.5812 125.111 88.0584C125.26 88.343 125.36 88.6514 125.407 88.9701C125.453 89.2853 125.429 89.6125 125.358 89.9226C125.292 90.2106 125.175 90.4918 125.01 90.7372C124.865 90.9553 124.685 91.1428 124.475 91.2995C124.334 91.4035 124.176 91.487 124.017 91.5569C123.959 91.5824 123.9 91.6046 123.839 91.6233C123.645 91.7119 123.44 91.7716 123.231 91.8125C123.074 91.8414 122.913 91.8585 122.753 91.8585C122.645 91.8585 122.538 91.8517 122.431 91.8363L122.433 91.8329ZM123.045 91.2689C123.116 91.262 123.187 91.2535 123.257 91.2399C123.347 91.2194 123.437 91.1939 123.523 91.1649C123.555 91.153 123.588 91.1411 123.618 91.1274C123.65 91.107 123.683 91.0865 123.715 91.0661C123.789 91.015 123.861 90.9604 123.928 90.9025C123.998 90.8377 124.066 90.7713 124.129 90.6997C124.201 90.6145 124.271 90.5259 124.335 90.4339C124.385 90.3572 124.432 90.2805 124.475 90.2004C124.512 90.1237 124.546 90.047 124.575 89.9686C124.6 89.8903 124.622 89.8102 124.641 89.7301C124.658 89.6449 124.668 89.5597 124.675 89.4728C124.678 89.3961 124.676 89.3194 124.673 89.2427C124.664 89.1524 124.653 89.0621 124.637 88.9735C124.622 88.907 124.605 88.8405 124.585 88.7758C124.559 88.7042 124.53 88.6344 124.497 88.5645C124.461 88.4946 124.422 88.4265 124.38 88.3617C124.337 88.3004 124.293 88.2407 124.244 88.1845C124.195 88.1299 124.142 88.0771 124.088 88.026C124.015 87.9629 123.94 87.9033 123.862 87.8488C123.784 87.7976 123.705 87.7516 123.623 87.7073C123.545 87.6698 123.467 87.6358 123.386 87.6051C123.318 87.5829 123.252 87.5642 123.182 87.5489C123.108 87.5352 123.033 87.525 122.957 87.5182C122.89 87.5148 122.824 87.5165 122.757 87.5182C122.684 87.525 122.612 87.5335 122.541 87.5471C122.463 87.5642 122.387 87.5863 122.31 87.6119C122.236 87.6392 122.163 87.6698 122.092 87.7039C122.022 87.7397 121.954 87.7789 121.89 87.8215C121.831 87.8641 121.773 87.9084 121.717 87.9544C121.663 88.0038 121.61 88.0567 121.559 88.1112C121.508 88.1708 121.461 88.2322 121.415 88.2969C121.364 88.3753 121.317 88.4537 121.274 88.5355C121.235 88.6173 121.198 88.7008 121.167 88.786C121.149 88.8423 121.133 88.8985 121.122 88.9564C121.1 89.0825 121.083 89.2086 121.072 89.3364C121.069 89.4097 121.067 89.483 121.071 89.5563C121.078 89.6398 121.089 89.7216 121.105 89.8051C121.125 89.9005 121.15 89.9959 121.181 90.0896C121.205 90.1561 121.232 90.2191 121.262 90.2839C121.293 90.3435 121.327 90.4015 121.362 90.4594C121.403 90.5191 121.447 90.577 121.495 90.6332C121.551 90.6946 121.61 90.7542 121.671 90.8088C121.739 90.8684 121.81 90.9229 121.885 90.9741C121.949 91.0167 122.015 91.0559 122.085 91.0916C122.144 91.1206 122.205 91.1462 122.266 91.1683C122.341 91.1922 122.414 91.2126 122.49 91.228C122.589 91.2467 122.687 91.262 122.787 91.2706C122.874 91.2757 122.958 91.2774 123.045 91.2706V91.2689Z" fill="black"/>
<path d="M123.909 37.4832C122.39 24.2289 126.81 36.776 131.782 32.7237C130.617 34.9305 130.449 36.4659 129.738 36.9992C127.91 38.3676 125.899 35.3514 123.909 37.4849V37.4832Z" fill="#EAF5FF"/>
<path d="M133.925 69.5403C136.018 75.3172 112.354 74.385 112.849 69.4006C113.102 66.8462 115.476 46.2302 116.228 40.6527L119.108 40.7277C119.257 41.4775 118.897 43.4065 118.985 44.1887C118.985 44.1887 121.445 44.4665 121.592 44.0115C121.969 42.8595 122.077 40.513 122.077 40.513C123.865 40.0052 125.242 40.5368 125.242 40.5368L125.41 43.916C125.883 44.5568 127.357 44.4051 128.42 43.8922L128.556 40.484L131.405 40.1892C131.948 42.8765 133.967 63.1244 133.927 69.5403H133.925Z" fill="#ADDDFF"/>
<path d="M133.231 32.0881C133.201 32.0165 133.116 31.9824 133.045 32.0114C132.955 32.0472 132.868 32.0898 132.78 32.1324C132.738 32.1154 132.689 32.1085 132.634 32.1154C130.358 32.5073 130.026 34.4943 127.597 32.601C126.653 31.979 125.776 31.0043 124.558 31.0452C124.255 31.052 123.943 31.1628 123.737 31.3945C123.559 31.3366 123.339 31.4661 123.344 31.6757C123.293 33.1361 123.383 34.5999 123.473 36.0586C123.532 37.122 123.573 38.187 123.605 39.2521C123.637 39.6065 123.583 39.9933 123.705 40.329C123.987 40.5676 123.943 39.8451 123.963 39.6866C123.98 39.3253 123.988 38.9641 123.992 38.6011C124.015 36.9839 123.919 35.3702 123.897 33.7547C123.895 33.2332 123.893 32.7118 123.909 32.192C123.893 32.008 123.97 31.7865 123.922 31.6058C124.283 31.4371 124.694 31.4627 125.062 31.5973C125.688 31.8069 126.176 32.2704 126.687 32.6726C127.331 33.1685 127.981 33.7087 128.764 33.9643C129.702 34.2693 130.552 33.7683 131.349 33.3116C131.004 33.7956 130.76 34.3613 130.614 34.9305C130.389 35.9768 130.394 36.3193 129.392 36.8697C127.762 37.7116 127.014 36.091 125.567 36.3313C125.092 36.4096 124.589 36.6073 124.295 37.0095C124.234 37.0981 124.178 37.1935 124.163 37.3009C124.146 37.4014 124.275 37.473 124.35 37.4082C124.602 37.1202 124.947 36.9601 125.318 36.8868C125.615 36.8323 125.925 36.8067 126.21 36.9209C126.658 37.0759 127.029 37.3844 127.468 37.5531C127.786 37.6775 128.126 37.732 128.466 37.7508C129.271 37.7593 129.995 37.2566 130.506 36.6687C130.877 36.1983 130.896 35.5695 131.011 35.0055C131.121 34.4704 131.335 33.9575 131.635 33.5008C131.786 33.269 131.971 33.0662 132.176 32.8856C132.361 32.8123 132.551 32.7476 132.748 32.693C132.914 32.6453 132.975 32.5005 132.957 32.3676C133.021 32.3352 133.085 32.3045 133.152 32.2755C133.223 32.2432 133.258 32.1614 133.228 32.0864L133.231 32.0881Z" fill="black"/>
<path d="M131.513 40.8248C131.345 40.7856 131.308 40.5913 131.216 40.4687C130.984 40.1892 131.484 39.9659 131.549 40.3834C131.588 40.3647 131.63 40.4107 131.593 40.4414C131.593 40.5368 131.64 40.622 131.654 40.714C131.652 40.7839 131.581 40.8418 131.513 40.8265V40.8248Z" fill="black"/>
<path d="M134.338 69.0906C134.099 59.7642 133.111 50.4633 132.021 41.1999C131.848 40.1485 131.66 39.6219 130.476 39.8809C126.923 40.0667 128.622 41.2868 128.041 43.8787C128.002 43.8838 127.963 43.8975 127.929 43.9247C127.245 43.952 126.243 44.2996 125.693 43.7952C125.576 42.7285 125.821 41.7571 125.678 40.6887C125.614 39.9832 125.093 39.9883 124.789 40.0275C120.182 39.8435 122.145 40.7176 121.221 43.9605C120.597 43.9776 119.973 43.9077 119.352 43.8634C119.408 42.8017 119.564 41.6123 119.366 40.5404C119.13 39.9832 118.163 40.3291 117.68 40.3087C117.261 40.445 115.911 40.1008 115.869 40.6682C114.634 49.492 113.371 58.3191 112.635 67.2093C110.257 75.5354 127.291 73.8177 131.884 72.751C133.154 72.4562 133.081 72.2738 133.697 71.8938C134.685 71.2855 134.249 70.0108 134.339 69.0855L134.338 69.0906ZM133.515 71.2786C129.95 73.6252 115.72 73.9132 113.182 70.1199C113.123 70.0313 113.099 69.9239 113.106 69.8182C113.713 60.226 115.16 50.7019 116.194 41.1556C116.211 40.9971 116.35 40.8847 116.51 40.8949C117.192 40.9409 117.856 40.9051 118.536 40.8744C118.696 40.8676 118.833 40.9886 118.843 41.1488C118.903 42.161 118.452 43.2891 118.821 44.2349C118.854 44.3184 118.927 44.378 119.013 44.4019C119.71 44.5995 120.923 44.7342 121.56 44.4734C121.601 44.4564 121.638 44.4308 121.666 44.3951C122.101 43.8429 122.313 41.8526 122.193 40.9835C122.173 40.8301 122.274 40.6887 122.424 40.658C123.25 40.4859 124.169 40.5541 125.012 40.5643C125.057 40.5643 125.102 40.5762 125.141 40.5984C125.159 40.6086 125.18 40.6154 125.2 40.6205C125.151 43.6828 124.354 45.1278 128.203 44.424C128.275 44.4104 128.342 44.3729 128.385 44.315C129.08 43.3709 128.456 41.8969 128.712 40.808C128.853 40.307 130.159 40.4791 130.846 40.4706C130.99 40.4689 131.115 40.5694 131.142 40.7108C132.991 50.6388 133.432 60.94 133.644 71.0316C133.646 71.1304 133.6 71.2258 133.517 71.2804L133.515 71.2786Z" fill="black"/>
<path d="M267.41 55.7699C267.41 55.7425 267.432 55.7202 267.46 55.7202C267.487 55.7202 267.509 55.7425 267.509 55.7699C267.509 55.7973 267.487 55.8196 267.46 55.8196C267.432 55.8196 267.41 55.7973 267.41 55.7699Z" fill="#FDC82E"/>
<path d="M267.732 56.2234C267.732 56.1993 267.751 56.1804 267.775 56.1804C267.799 56.1804 267.818 56.1993 267.818 56.2234C267.818 56.2475 267.799 56.2664 267.775 56.2664C267.751 56.2664 267.732 56.2475 267.732 56.2234Z" fill="#FDC82E"/>
<path d="M267.58 55.7699C267.58 55.7425 267.602 55.7202 267.63 55.7202C267.657 55.7202 267.679 55.7425 267.679 55.7699C267.679 55.7973 267.657 55.8196 267.63 55.8196C267.602 55.8196 267.58 55.7973 267.58 55.7699Z" fill="#FDC82E"/>
<path d="M267.902 56.2234C267.902 56.1993 267.921 56.1804 267.945 56.1804C267.969 56.1804 267.988 56.1993 267.988 56.2234C267.988 56.2475 267.969 56.2664 267.945 56.2664C267.921 56.2664 267.902 56.2475 267.902 56.2234Z" fill="#FDC82E"/>
<path d="M96.1221 96.5279C96.1322 96.337 96.1407 96.1461 96.1475 95.957C96.1492 95.8956 96.1509 95.8343 96.1526 95.7729C96.3493 95.7849 96.5427 95.7968 96.7343 95.807C96.7496 96.0609 96.7648 96.3149 96.7835 96.5671C96.563 96.5551 96.3425 96.5415 96.1221 96.5279Z" fill="black"/>
<path d="M93.3076 96.3557C93.3144 96.1018 93.3195 95.8479 93.3229 95.5957C94.0488 95.6434 94.7492 95.6877 95.4191 95.7286C95.3903 95.9808 95.358 96.2313 95.3224 96.4818C94.6508 96.4409 93.9792 96.4 93.3076 96.3574V96.3557Z" fill="black"/>
<path d="M89.8665 96.124V96.1035C89.8665 95.853 89.8546 95.6026 89.8428 95.3521C90.7467 95.4185 91.6235 95.4799 92.4647 95.5378C92.4478 95.7917 92.4291 96.0456 92.4087 96.2978C91.5608 96.2416 90.7128 96.1853 89.8665 96.1257V96.124Z" fill="black"/>
<path d="M86.6131 95.8837C86.5843 95.6213 86.5555 95.3606 86.5283 95.0981C87.3865 95.1663 88.2243 95.2311 89.04 95.2924C89.0332 95.5378 89.0265 95.7849 89.018 96.0303C89.018 96.0422 89.018 96.0524 89.0163 96.0644C88.2141 96.0064 87.4136 95.9468 86.6131 95.8837Z" fill="black"/>
<path d="M83.8933 95.664C83.917 95.4817 83.9357 95.2993 83.9425 95.1153C83.9459 95.0386 83.9476 94.9602 83.9493 94.8835C84.5445 94.9347 85.133 94.9841 85.7114 95.0318C85.7164 95.2925 85.7232 95.5532 85.73 95.814C85.1161 95.7646 84.5038 95.7151 83.8916 95.664H83.8933Z" fill="black"/>
<path d="M56.9457 92.4417C49.4038 91.1704 41.8263 89.7015 34.8203 87.142C34.7592 86.8506 34.7253 86.5541 34.6914 86.2593C46.2544 90.8092 67.4013 93.4522 83.3958 94.8376C83.3754 95.0984 83.3314 95.3574 83.2754 95.613C74.4412 94.8615 65.6493 93.8424 56.944 92.4417H56.9457Z" fill="black"/>
<path d="M34.3244 86.9577C34.031 86.8453 33.7274 86.7243 33.4187 86.5965C33.3916 86.3903 33.3645 86.1841 33.3373 85.9779C33.3238 85.8774 33.3102 85.7768 33.2949 85.678C33.6324 85.8262 33.9801 85.9728 34.3379 86.1159C34.36 86.3903 34.3854 86.6663 34.4193 86.9407C34.421 86.9594 34.4244 86.9765 34.4261 86.9952C34.3922 86.9833 34.3583 86.9697 34.3244 86.9577Z" fill="black"/>
<path d="M32.2476 86.0956C32.2103 85.8349 32.1781 85.5725 32.1476 85.3101C32.1408 85.2521 32.1357 85.1942 32.1289 85.1379C32.4121 85.276 32.7055 85.414 33.0074 85.5486C33.0074 85.5554 33.0074 85.5622 33.0074 85.5691C33.0193 85.7719 33.0278 85.9729 33.0345 86.174C33.0379 86.2626 33.0396 86.3512 33.0413 86.4381C32.7785 86.3274 32.5139 86.2132 32.2459 86.0922L32.2476 86.0956Z" fill="black"/>
<path d="M30.9082 85.4566C30.8624 85.201 30.815 84.9454 30.759 84.6915C30.7369 84.5875 30.7132 84.4836 30.6895 84.3779C30.9761 84.5432 31.2763 84.7051 31.5866 84.8653C31.5951 85.0902 31.5985 85.3152 31.5985 85.5401C31.5985 85.6253 31.5985 85.7105 31.5985 85.7957C31.3678 85.6867 31.1372 85.5725 30.9082 85.4566Z" fill="black"/>
<path d="M29.7584 84.8293C29.7415 84.485 29.7245 84.1408 29.7109 83.7966C29.7126 83.7915 29.7143 83.7847 29.716 83.7795C29.9009 83.9022 30.0942 84.0232 30.291 84.1425C30.3045 84.2516 30.3164 84.3623 30.3283 84.4731C30.3435 84.698 30.3588 84.9196 30.3673 85.1462C30.3673 85.1547 30.3673 85.165 30.3673 85.1735C30.1621 85.061 29.9569 84.9468 29.7567 84.8293H29.7584Z" fill="black"/>
<path d="M46.9531 69.2949C47.1295 69.2591 47.3042 69.2233 47.4772 69.1892C47.4772 69.3903 47.4653 69.5914 47.4551 69.7925C47.3059 69.8265 47.1516 69.864 46.9887 69.9015C46.9769 69.6987 46.9667 69.4959 46.9531 69.2932V69.2949Z" fill="black"/>
<path d="M48.0137 69.4878C47.9951 69.3566 47.9764 69.2253 47.9561 69.0958C48.1714 69.0549 48.3851 69.014 48.5954 68.9749C48.5903 69.164 48.5853 69.3532 48.5751 69.5423C48.3953 69.5815 48.2155 69.6207 48.0358 69.6599C48.029 69.6019 48.0222 69.544 48.0137 69.4878Z" fill="black"/>
<path d="M48.9935 69.4058C48.9935 69.4143 48.9969 69.4229 48.9986 69.4331L48.9918 69.4007C48.9918 69.4007 48.9918 69.4007 48.9918 69.4024C48.9647 69.2405 48.9409 69.0786 48.9121 68.915C49.2343 68.8554 49.5498 68.7992 49.8585 68.7463C49.8585 68.915 49.8551 69.0837 49.8534 69.2525C49.5701 69.3172 49.2852 69.382 49.0003 69.4467L48.9918 69.4041L48.9935 69.4058Z" fill="black"/>
<path d="M50.1361 68.961C50.1276 68.8741 50.1225 68.7889 50.1191 68.7003C58.7821 67.3966 57.695 67.4716 50.1581 69.1825C50.1514 69.1093 50.1446 69.0343 50.1361 68.961Z" fill="black"/>
<path d="M101.731 96.1791C101.731 96.1791 101.729 96.1755 101.728 96.1719C101.732 96.1791 101.736 96.1881 101.741 96.1953C101.737 96.1899 101.734 96.1845 101.731 96.1773V96.1791Z" fill="black"/>
<path d="M101.69 96.1104C101.697 96.1222 101.704 96.1323 101.709 96.1424C101.702 96.1323 101.697 96.1222 101.69 96.1104Z" fill="black"/>
<path d="M194.152 94.3111C194.128 94.0554 193.954 93.8118 193.72 93.7061C194.625 93.6022 195.531 93.4965 196.437 93.3857C196.447 93.4914 196.455 93.5971 196.46 93.7027C196.467 93.8459 196.465 93.989 196.464 94.1321C196.464 94.1458 196.464 94.1577 196.462 94.1713C195.694 94.2651 194.924 94.3554 194.154 94.4423C194.157 94.3997 194.157 94.3554 194.154 94.3111H194.152Z" fill="black"/>
<path d="M197.46 94.0246C197.448 93.8507 197.429 93.6803 197.406 93.5082C197.394 93.4281 197.379 93.3498 197.363 93.2697C198.328 93.1487 199.292 93.0243 200.255 92.8931C200.243 93.0141 200.235 93.1333 200.226 93.2543C200.216 93.4009 200.206 93.5457 200.196 93.6923C199.286 93.815 198.374 93.9325 197.463 94.0467C197.463 94.0382 197.463 94.0314 197.462 94.0229L197.46 94.0246Z" fill="black"/>
<path d="M200.903 93.1572C200.9 93.0414 200.898 92.9238 200.896 92.8079C201.853 92.6767 202.808 92.5404 203.761 92.4006C203.758 92.4654 203.756 92.5301 203.752 92.5932C203.742 92.796 203.729 92.9971 203.719 93.1981C202.789 93.3345 201.86 93.4674 200.927 93.5952C200.919 93.4486 200.91 93.3038 200.903 93.1572Z" fill="black"/>
<path d="M204.581 92.2779C205.794 92.0956 207.003 91.9047 208.21 91.707C208.217 91.7905 208.224 91.8757 208.229 91.9592V91.9354C208.238 92.1194 208.246 92.3035 208.255 92.4875C207.055 92.6869 205.853 92.8777 204.649 93.0584C204.622 92.7976 204.6 92.5386 204.583 92.2762L204.581 92.2779Z" fill="black"/>
<path d="M208.854 91.5996C211.018 91.2383 213.176 90.8498 215.323 90.4306C220.673 89.3468 225.951 88.0994 230.91 86.2045C232.745 85.4871 234.579 84.6435 236.108 83.6109C244.868 77.6006 230.096 72.9569 223.982 71.3227C216.395 69.3511 208.612 67.9674 200.746 66.9143C200.746 66.8887 200.746 66.8648 200.746 66.8393C200.746 66.7865 200.739 66.7319 200.736 66.6791C200.729 66.5905 200.721 66.5002 200.704 66.4133C200.692 66.3451 200.68 66.2752 200.663 66.2071C200.656 66.1832 200.649 66.1594 200.643 66.1355C205.693 66.8137 210.715 67.6198 215.684 68.603C221.086 69.7004 226.472 70.9768 231.48 72.9143C236.529 74.8382 243.016 78.6332 238.035 83.19C236.582 84.4834 234.726 85.4598 232.806 86.2931C229.245 87.8216 225.405 88.9106 221.533 89.8597C217.38 90.8259 213.182 91.6541 208.953 92.3698C208.924 92.1125 208.892 91.8552 208.856 91.5996H208.854Z" fill="black"/>
<path d="M198.351 66.6025C198.339 66.3452 198.331 66.0845 198.302 65.8289C198.994 65.9089 199.708 66.0197 200.381 66.0998C200.42 66.185 200.437 66.2787 200.451 66.3708C200.451 66.3656 200.451 66.3605 200.449 66.3554C200.461 66.4474 200.471 66.5395 200.476 66.6332V66.6161C200.476 66.669 200.476 66.7218 200.476 66.7763C200.476 66.7712 200.476 66.7661 200.476 66.7593C200.476 66.7985 200.476 66.8377 200.474 66.8769C199.767 66.7831 199.06 66.6911 198.353 66.6025H198.351Z" fill="black"/>
<path d="M196.528 66.3794C196.507 66.1203 196.489 65.8613 196.467 65.6023C196.923 65.6568 197.379 65.7131 197.834 65.771C197.841 66.0249 197.822 66.2805 197.795 66.5344C197.372 66.4816 196.95 66.4305 196.526 66.3794H196.528Z" fill="black"/>
<path d="M194.035 66.0913C194.022 65.8323 194.011 65.5732 194.003 65.3142C194.63 65.3858 195.258 65.4591 195.885 65.5323C195.88 65.7879 195.874 66.0453 195.86 66.3009C195.253 66.2293 194.644 66.1594 194.035 66.0913Z" fill="black"/>
<path d="M191.436 65.8082C191.384 65.5356 191.301 65.2698 191.211 65.0073C191.969 65.0874 192.729 65.1709 193.487 65.2561C193.465 65.5117 193.443 65.7673 193.424 66.0229C192.763 65.9497 192.1 65.8781 191.436 65.8082Z" fill="black"/>
<path d="M188.865 65.5461C188.855 65.2871 188.852 65.0264 188.865 64.7673C189.403 64.8219 189.939 64.8764 190.475 64.9326C190.538 65.1934 190.588 65.4592 190.621 65.725C190.036 65.6637 189.45 65.6057 188.864 65.5478L188.865 65.5461Z" fill="black"/>
<path d="M185.294 65.2036C185.297 64.9462 185.367 64.677 185.309 64.4231C186.295 64.5151 187.278 64.6088 188.264 64.706C188.208 64.9582 188.18 65.2172 188.164 65.4762C187.207 65.3825 186.25 65.2922 185.294 65.2036Z" fill="black"/>
<path d="M121.099 54.3399C121.153 54.1712 121.202 54.0008 121.25 53.8321C121.253 53.8184 121.256 53.8048 121.26 53.7912C130.216 53.861 139.174 53.6719 148.112 53.222C160.299 52.5608 172.552 51.5128 184.407 49.2038C188.262 48.4233 192.066 47.5253 195.639 46.1586C196.962 45.6422 198.283 45.0339 199.386 44.2892C205.698 39.9591 195.052 36.6123 190.648 35.4348C188.959 34.9968 187.254 34.5981 185.54 34.2334C185.54 34.1107 185.533 33.9897 185.521 33.867C185.514 33.7938 185.504 33.7188 185.492 33.6438C189.106 34.397 192.697 35.2831 196.05 36.5816C199.689 37.9671 204.363 40.7021 200.773 43.9876C199.725 44.9197 198.39 45.6235 197.006 46.2233C194.44 47.3242 191.672 48.1098 188.883 48.7948C175.786 51.84 162.09 52.98 148.497 53.7554C140.67 54.1609 132.824 54.3586 124.979 54.3586C123.685 54.3586 122.393 54.3535 121.099 54.3433V54.3399Z" fill="black"/>
<path d="M119.317 54.3212C119.229 54.1337 119.129 53.9497 119.025 53.7673C119.175 53.769 119.324 53.7707 119.471 53.7724C119.439 53.8917 119.405 54.011 119.373 54.1303C119.356 54.1934 119.337 54.2581 119.32 54.3212C119.32 54.3212 119.319 54.3212 119.317 54.3212Z" fill="black"/>
<path d="M95.0067 52.8231C94.447 52.7839 93.8687 52.7413 93.2734 52.697C93.2904 52.8828 93.3023 53.0702 93.3124 53.256C93.8534 53.2952 94.3928 53.3344 94.9338 53.3701C94.9372 53.3378 94.9422 53.3071 94.9456 53.2747C94.9422 53.2986 94.9389 53.3207 94.9372 53.3446C94.9592 53.1708 94.9829 52.9969 95.0067 52.8231Z" fill="black"/>
<path d="M91.7236 52.5762C91.7287 52.7636 91.7321 52.9511 91.7355 53.1385C92.0832 53.1658 92.4291 53.1913 92.7768 53.2169C92.7802 53.0312 92.7802 52.8454 92.7768 52.658C92.4308 52.6307 92.0798 52.6034 91.7236 52.5745V52.5762Z" fill="black"/>
<path d="M89.5865 52.9647C90.1242 53.0107 90.6618 53.0533 91.1994 53.0959C91.2079 52.9596 91.2147 52.8232 91.2214 52.6869C91.2231 52.6375 91.2265 52.5864 91.2282 52.5369C90.6754 52.4926 90.1123 52.4449 89.5391 52.3955C89.556 52.5847 89.5713 52.7755 89.5865 52.9647Z" fill="black"/>
<path d="M88.9117 52.3411C88.3521 52.2917 87.7839 52.2406 87.209 52.1877C87.209 52.3786 87.209 52.5678 87.209 52.7586C87.7771 52.8114 88.3453 52.8609 88.9134 52.9103C88.9134 52.7535 88.9134 52.5984 88.9117 52.4434C88.9117 52.4093 88.9117 52.3769 88.91 52.3428L88.9117 52.3411Z" fill="black"/>
<path d="M85.0789 52.5523C85.4859 52.5932 85.893 52.6324 86.3017 52.6716C86.3034 52.583 86.3068 52.4944 86.3085 52.4058C86.3119 52.3052 86.3136 52.203 86.3169 52.1024C85.898 52.0615 85.4757 52.0206 85.0518 51.978C85.0619 52.1689 85.0721 52.3614 85.0789 52.5523Z" fill="black"/>
<path d="M83.709 52.4127C83.9278 52.4348 84.1448 52.4587 84.3636 52.4809C84.3636 52.4536 84.367 52.4263 84.3687 52.3974C84.3772 52.2355 84.384 52.0736 84.3908 51.9117C84.1957 51.8912 83.999 51.8725 83.804 51.8521C83.7734 52.0395 83.7412 52.2269 83.709 52.4144V52.4127Z" fill="black"/>
<path d="M48.8493 42.8067C46.051 38.2875 59.6186 35.2304 63.7347 34.2624C64.5488 34.0886 65.3577 33.8995 66.1667 33.712C66.1752 33.6115 66.1854 33.5092 66.1938 33.4087C60.5005 34.3102 50.2417 36.7368 48.1302 40.2949C46.4411 43.3554 50.9523 45.5332 53.9745 46.7022C59.1234 48.6296 64.7133 49.7151 70.2777 50.654C74.4057 51.3186 78.5624 51.8639 82.7362 52.3138C82.7752 52.128 82.8125 51.9406 82.8498 51.7548C68.7649 50.2484 52.3854 47.4895 48.8493 42.8101V42.8067Z" fill="black"/>
<path d="M68.3428 33.1294C68.3667 33.1551 68.3906 33.1791 68.4162 33.2048C68.3974 33.2082 68.3786 33.2134 68.3599 33.2168C68.3547 33.1876 68.3479 33.1585 68.3428 33.1294Z" fill="black"/>
<path d="M111.252 139.343C99.0329 138.92 86.8017 138.246 74.6536 137.085C74.4399 137.065 74.272 136.894 74.2516 136.681C74.2431 136.591 74.2296 136.496 74.2109 136.407C74.1821 136.279 74.2855 136.162 74.4144 136.173C84.3866 137.138 93.1819 137.692 98.3613 137.939C113.898 138.733 144.969 138.801 145.048 138.799C145.126 138.798 145.273 139.127 145.137 139.317C145.002 139.508 138.713 139.726 135.091 139.726C127.142 139.726 119.194 139.595 111.251 139.341L111.252 139.343Z" fill="black"/>
<path d="M61.3999 135.016C61.3999 135.016 61.3999 135.008 61.3999 135.004C61.3999 135.004 61.3999 135.003 61.3999 135.001C61.3999 134.996 61.3999 134.989 61.3999 134.984C61.3999 134.996 61.3982 135.008 61.3965 135.02V135.016H61.3999Z" fill="black"/>
<path d="M61.405 134.963C61.405 134.963 61.405 134.95 61.4067 134.943C61.4067 134.953 61.405 134.965 61.4033 134.975C61.4033 134.972 61.4033 134.968 61.4033 134.963H61.405Z" fill="black"/>
<path d="M45.0898 133.111C45.2815 132.859 45.4714 132.607 45.6614 132.354C45.892 132.395 46.121 132.438 46.3533 132.479C46.3482 132.496 46.3432 132.511 46.3398 132.528C46.2634 132.784 46.1871 133.041 46.1108 133.297C45.7699 133.236 45.4307 133.174 45.0915 133.113L45.0898 133.111Z" fill="black"/>
<path d="M42.4658 132.615C42.5438 132.343 42.6168 132.07 42.6897 131.797C43.268 131.91 43.8531 132.022 44.4416 132.131C44.2584 132.384 44.0753 132.637 43.8921 132.89C43.4156 132.799 42.9407 132.709 42.4658 132.617V132.615Z" fill="black"/>
<path d="M39.8867 132.094C39.9613 131.945 40.0411 131.801 40.1258 131.657C40.1954 131.543 40.2666 131.433 40.3412 131.322C40.945 131.448 41.5538 131.572 42.1695 131.693C42.0864 131.964 42.0033 132.237 41.9117 132.506C41.235 132.371 40.5617 132.235 39.8884 132.094H39.8867Z" fill="black"/>
<path d="M24.583 127.813C-1.96719 117.386 34.0345 108.705 45.7688 106.809C47.9108 106.463 49.1132 106.175 49.4083 106.35C24.008 110.765 -5.62537 121.249 40.0925 131.269C39.9381 131.521 39.7855 131.775 39.66 132.044C34.4907 130.952 29.4113 129.619 24.583 127.811V127.813Z" fill="black"/>
<path d="M154.464 138.849C154.478 138.769 154.49 138.687 154.503 138.607C155.12 138.59 155.736 138.573 156.353 138.554C156.241 138.85 156.116 139.14 155.98 139.426C155.443 139.442 154.907 139.457 154.369 139.471C154.4 139.263 154.432 139.057 154.466 138.849H154.464Z" fill="black"/>
<path d="M159.223 139.266C159.197 139.137 159.172 139.007 159.146 138.876C159.129 138.792 159.192 138.714 159.277 138.711C160.357 138.675 161.436 138.636 162.516 138.593C162.618 138.59 162.689 138.694 162.648 138.786C162.56 138.988 162.467 139.188 162.37 139.386C162.348 139.432 162.302 139.46 162.252 139.464C161.471 139.493 159.982 139.491 159.452 139.464C159.34 139.459 159.246 139.375 159.224 139.265L159.223 139.266Z" fill="black"/>
<path d="M166.304 138.655C166.255 138.539 166.219 138.414 166.178 138.293C166.167 138.261 166.156 138.229 166.145 138.195C167.793 138.123 169.441 138.046 171.088 137.963C171.375 137.947 171.66 137.932 171.946 137.915C171.79 138.213 171.631 138.511 171.46 138.801C169.796 138.886 168.13 138.966 166.467 139.04C166.412 138.91 166.358 138.782 166.304 138.653V138.655Z" fill="black"/>
<path d="M174.716 137.76C190.761 136.821 222.435 132.568 224.499 132.286C224.555 132.28 224.602 132.324 224.601 132.38C224.589 132.61 224.567 132.838 224.54 133.067C224.533 133.121 224.49 133.166 224.436 133.176C208.286 136.172 191.675 137.595 175.128 138.59C174.984 138.317 174.85 138.039 174.716 137.76Z" fill="black"/>
<path d="M227.808 131.997C227.772 131.893 227.74 131.787 227.706 131.683C228.768 131.468 229.828 131.247 230.884 131.015C230.818 131.157 230.742 131.295 230.669 131.433C230.577 131.591 230.484 131.744 230.381 131.893C230.35 131.934 230.318 131.973 230.286 132.014C229.519 132.176 228.752 132.334 227.984 132.489C227.923 132.326 227.864 132.164 227.808 131.997Z" fill="black"/>
<path d="M232.655 131.318C232.648 131.107 232.655 130.896 232.66 130.685C232.664 130.662 232.665 130.64 232.669 130.618C233.656 130.391 234.639 130.155 235.618 129.906C235.515 130.092 235.408 130.276 235.292 130.453C235.169 130.632 235.038 130.807 234.896 130.974C234.892 130.978 234.889 130.983 234.885 130.986C234.772 131.015 234.656 131.042 234.543 131.071C233.92 131.216 233.298 131.358 232.674 131.497C232.667 131.438 232.662 131.38 232.657 131.32L232.655 131.318Z" fill="black"/>
<path d="M237.587 129.572C237.587 129.572 237.587 129.579 237.587 129.582C237.587 129.517 237.587 129.453 237.582 129.388C238.695 129.083 239.799 128.761 240.893 128.417C240.608 128.751 240.326 129.086 240.043 129.42C239.97 129.502 239.897 129.584 239.824 129.664C239.086 129.88 238.342 130.088 237.596 130.288C237.582 130.049 237.584 129.81 237.585 129.572H237.587Z" fill="black"/>
<path d="M243.94 128.089C243.913 128.006 243.886 127.924 243.849 127.844C243.813 127.766 243.769 127.692 243.725 127.619C243.698 127.576 243.666 127.537 243.628 127.5C244.107 127.329 244.583 127.152 245.058 126.971C247.117 126.167 249.172 125.221 250.889 124.063C260.713 117.321 244.146 112.114 237.291 110.28C231.178 108.692 224.953 107.443 218.661 106.427C218.661 106.425 218.657 106.422 218.657 106.42C218.628 106.228 218.608 106.033 218.613 105.839C218.613 105.832 218.615 105.824 218.616 105.817C218.618 105.81 218.62 105.803 218.623 105.797C218.635 105.771 218.649 105.745 218.662 105.72C218.666 105.716 218.667 105.713 218.669 105.71C218.678 105.699 218.688 105.691 218.696 105.682C218.732 105.652 218.767 105.621 218.803 105.59C221.878 106.083 224.941 106.626 227.983 107.23C234.041 108.46 240.082 109.891 245.699 112.064C251.362 114.222 258.636 118.478 253.049 123.589C251.418 125.039 249.339 126.135 247.187 127.07C246.145 127.517 245.082 127.931 244.002 128.318C243.985 128.241 243.966 128.164 243.942 128.089H243.94Z" fill="black"/>
<path d="M62.1032 141.512C63.5634 139.605 64.1502 136.052 62.0353 134.444C60.86 134.541 62.2032 135.877 62.2236 136.49C63.1716 139.9 59.8391 143.714 56.3386 143.029C55.6874 142.906 55.5042 143.93 56.1605 144.041C58.4179 144.486 60.7667 143.336 62.1032 141.512Z" fill="black"/>
<path d="M63.2037 144.757C63.4785 144.486 63.6684 144.131 63.9058 143.828C65.054 141.752 66.1496 139.408 65.9393 136.972C65.9088 133.779 62.9798 130.662 59.8338 132.635C57.7665 134.103 59.0808 136.775 58.8638 138.816C57.2119 142.758 53.2519 136.817 53.9082 134.51C54.1049 129.59 58.9129 126.385 63.548 127.44C66.7703 128.346 69.321 131.049 70.3623 134.198C70.7422 134.873 70.342 136.783 71.1662 136.853C71.4443 136.863 71.6886 136.638 71.697 136.359C71.5529 129.464 63.7837 123.802 57.4273 127.274C54.2745 128.817 52.5887 132.455 52.8974 135.88C53.3604 138.131 54.8715 140.968 57.4086 141.135C62.0115 140.481 58.4635 135.904 60.1832 133.69C63.5514 131.277 65.556 136.141 64.8233 138.951C64.4774 140.372 63.8583 141.696 63.2478 143.015C62.9035 143.45 61.8876 145.316 63.2054 144.76L63.2037 144.757Z" fill="black"/>
<path d="M71.2316 136.373C71.2128 136.347 71.1769 136.34 71.1513 136.359C71.1257 136.378 71.1189 136.414 71.1377 136.44C71.1564 136.465 71.1923 136.472 71.2179 136.453C71.2436 136.435 71.2504 136.399 71.2316 136.373Z" fill="black"/>
<path d="M68.1281 141.219C71.5522 135.621 65.1822 125.419 58.6274 129.488C55.9664 131.366 55.0167 135.565 56.3158 138.455C57.4317 138.854 56.9925 137.486 56.8856 136.894C56.7839 136.155 56.7669 135.405 56.8534 134.662C57.7031 127.9 64.9516 128.253 67.2547 133.955C68.0077 135.701 68.2315 137.693 67.7787 139.549C67.5973 140.103 66.9494 142.063 68.1281 141.217V141.219Z" fill="black"/>
<path d="M68.5514 126.189C67.3846 124.132 64.3776 123.614 62.1678 123.505C56.3287 123.393 50.3538 127.98 50.0621 134.053C50.0485 134.333 50.2741 134.577 50.5522 134.589C51.4409 134.485 50.9949 133.183 51.2985 132.569C52.8757 125.954 61.3114 122.481 67.1285 125.831C67.1098 125.821 67.1234 125.828 67.0793 125.806C67.4914 125.934 68.2427 126.769 68.5531 126.189H68.5514Z" fill="black"/>
<path d="M62.6294 121.298C61.3897 120.122 59.1866 120.54 57.6247 120.782C54.2328 121.551 51.0291 123.963 49.9657 127.375C49.7673 128.007 50.751 128.321 50.9426 127.68C52.0043 124.328 55.3148 122.128 58.6643 121.625C59.4444 121.251 62.7566 122.04 62.6294 121.3V121.298Z" fill="black"/>
<path d="M59.4154 118.901C59.719 117.792 56.5527 118.381 55.9438 118.569C53.812 119.179 51.7209 120.283 50.2759 122.006C49.9639 122.461 49.1787 123.333 49.9011 123.749C50.298 123.921 50.5829 123.584 50.6898 123.231C52.5485 120.315 56.2338 119.346 59.4154 118.901Z" fill="black"/>
<path d="M165.106 11.5541C165.094 11.5369 165.072 11.5334 165.055 11.5455C165.038 11.5575 165.034 11.5798 165.046 11.597C165.058 11.6142 165.08 11.6177 165.098 11.6056C165.115 11.5936 165.118 11.5713 165.106 11.5541Z" fill="black"/>
<path d="M160.09 11.992C160.103 11.5421 159.393 9.64717 158.928 10.5708C159.703 11.9187 159.622 13.6466 158.474 14.7816C157.751 15.545 156.657 16.0102 155.607 15.7972C155.194 15.7188 155.075 16.3732 155.494 16.443C157.984 16.9321 160.395 14.4731 160.09 11.9903V11.992Z" fill="black"/>
<path d="M165.394 11.1977C165.109 8.01104 162.187 5.00675 158.938 5.06128C155.398 5.11922 152.451 8.62792 153.655 12.106C154.119 13.7572 156.462 15.7697 157.706 13.7129C158.395 12.353 156.682 9.58221 159.08 9.44588C161.27 9.55324 161.404 12.5865 160.727 14.1577C160.437 15.0762 159.826 15.8754 159.557 16.7785C159.799 17.3613 160.257 16.5536 160.434 16.3065C164.177 10.4291 158.9 6.4501 157.147 10.1974C156.747 11.3562 157.851 12.9239 156.767 13.7964C155.398 14.3724 154.489 12.5456 154.126 11.4806C153.901 10.453 154.172 9.34875 154.543 8.38765C156.326 5.01186 161.095 4.9437 163.301 7.91562C164.136 8.92614 164.746 10.1855 164.75 11.518C164.874 12.1963 165.594 11.7481 165.393 11.196L165.394 11.1977Z" fill="black"/>
<path d="M163.125 9.65552C160.427 3.79348 153.572 7.19142 155.592 12.8814C156.548 13.1114 155.77 11.6715 155.898 11.1756C155.664 8.69442 158.115 6.16897 160.52 7.6413C162.511 8.78815 163.43 11.3801 162.903 13.58C162.874 13.9634 162.394 14.5888 162.867 14.7814C164.215 13.7078 163.725 11.0921 163.123 9.65382L163.125 9.65552Z" fill="black"/>
<path d="M154.649 5.65101C156.813 3.87195 160.03 3.44081 162.489 4.82964C162.477 4.82282 162.486 4.82794 162.457 4.8126C164.926 6.12304 162.186 3.11533 159.325 3.34538C155.6 3.27381 151.789 6.19972 151.603 10.0731C151.594 10.252 151.739 10.4071 151.915 10.4156C152.481 10.3492 152.198 9.51927 152.392 9.12733C152.719 7.74192 153.557 6.53713 154.647 5.65101H154.649Z" fill="black"/>
<path d="M151.756 6.22333C152.294 6.31705 152.236 5.51443 152.496 5.20769C152.858 4.53799 153.323 4.01313 153.896 3.5394C155.328 2.3704 157.227 1.89326 159.042 2.13524C159.234 2.15228 159.63 2.23237 159.617 1.93586C157.568 0.637347 154.514 1.96823 152.909 3.55473C152.49 4.03017 151.037 5.72403 151.754 6.22333H151.756Z" fill="black"/>
<path d="M151.931 3.33338C153.01 1.33619 155.511 0.707387 157.569 0.409173C157.774 0.114366 157.258 0.0513161 157.065 0.0172345C155.418 -0.0935309 153.787 0.654561 152.498 1.63952C152.084 2.05191 150.905 2.91588 151.499 3.50208C151.657 3.57195 151.865 3.50208 151.93 3.33508L151.931 3.33338Z" fill="black"/>
<path d="M253.757 76.0584C254.159 81.9698 241.173 77.1933 239.494 74.1771C238.453 72.9655 240.257 69.6391 241.909 70.912C244.424 68.194 250.263 66.2446 249.617 71.9941C249.505 72.4985 249.273 73.1648 250.033 73.2074C251.861 72.8189 253.438 74.1225 253.757 76.0584Z" fill="white"/>
<path d="M222.783 53.2988C222.206 56.269 212.922 59.7811 211.871 59.1012C210.604 58.2815 209.868 54.9125 208.971 50.1343C208.501 47.6361 216.565 45.5997 219.469 45.3594C221.155 45.2214 223.142 51.4515 222.784 53.2988H222.783Z" fill="#ADDDFF"/>
<path d="M114.552 51.3834C115.911 51.5845 117.212 53.9549 116.233 55.8651C115.426 57.4431 103.176 56.6013 102.608 55.4391C100.866 53.8799 101.156 50.8705 104.718 51.1312C105.574 49.923 106.324 46.2115 109.285 46.7636C113.609 47.3157 111.742 51.6884 114.552 51.3834Z" fill="#EAF5FF"/>
<path d="M41.8059 73.2587C42.7659 74.8247 41.6703 78.2908 40.88 80.1142C38.95 83.7132 33.1905 78.906 31.5997 77.691C29.7799 76.5135 32.4646 71.8494 33.1413 70.0414C32.9751 68.9797 41.4498 72.2158 41.8059 73.2604V73.2587Z" fill="white"/>
<path d="M217.249 52.9953C218.317 51.8655 217.534 50.0166 215.916 50.1904C214.057 50.3898 213.842 53.1436 215.558 53.5082C215.361 55.652 218.375 54.7318 217.249 52.9953Z" fill="black"/>
<path d="M222.169 48.4081C221.742 46.9034 221.003 44.2604 218.989 44.6762C216.413 44.8858 213.895 46.0343 211.446 46.8796C210.764 44.2502 209.667 41.6804 209.275 38.9914C208.97 36.8902 210.087 34.7942 212.045 33.9899C212.786 33.6849 213.588 33.7275 214.356 33.9047C214.431 33.9217 214.505 33.9439 214.577 33.9729C216.025 34.5335 216.715 35.9717 217.248 37.3367C217.565 37.8991 217.451 39.2112 218.365 39.0629C218.664 38.9812 218.847 38.6591 218.764 38.3592C217.789 31.8121 210.233 30.0824 208.21 36.5954C207.671 38.3302 209.624 44.8977 210.405 47.3056C207.996 48.4371 207.876 49.8549 208.744 53.016C209.423 55.4852 209.424 59.2478 211.721 59.7692C213.963 60.0726 215.972 58.6991 217.967 57.8828C223.687 55.4613 224.445 54.4832 222.168 48.4098L222.169 48.4081ZM219.018 56.0765C217.27 56.6661 212.036 60.5276 211.051 57.4653C210.547 55.9027 209.621 53.2648 209.429 51.225C209.312 49.9878 209.989 48.8001 211.103 48.2616C213.043 47.3243 215.34 47.0721 217.287 46.14C220.351 44.8125 220.68 47.6157 221.46 49.8379C222.688 53.2136 222.734 54.8922 219.02 56.0782L219.018 56.0765Z" fill="black"/>
<path d="M207.416 43.2258C206.861 42.9906 205.866 36.8747 207.207 37.9499C207.355 39.5347 207.83 41.082 208.186 42.6328C208.32 43.0775 207.791 43.4678 207.417 43.2258H207.416Z" fill="black"/>
<path d="M211.41 63.3852C209.373 63.2028 207.828 61.7527 207.436 59.747C207.275 58.8745 207.093 57.9321 207.361 57.0647C207.416 56.9301 207.617 56.9284 207.67 57.0647C207.794 57.4226 207.797 57.8162 207.923 58.1758C208.084 58.6666 208.202 59.1693 208.365 59.6584C208.723 60.5734 209.307 61.4817 210.224 61.9009C210.665 62.1225 211.157 62.1838 211.627 62.3201C212.242 62.5025 212.086 63.3886 211.484 63.3886C211.46 63.3886 211.435 63.3886 211.408 63.3835L211.41 63.3852Z" fill="black"/>
<path d="M207.995 64.3652C207.617 64.2493 207.293 64.0227 206.993 63.7704C206.5 63.387 206.049 62.9303 205.825 62.3356C205.648 61.8602 205.409 61.3234 205.526 60.8139C205.625 60.56 205.989 60.5157 206.149 60.7338C206.406 61.2126 206.552 61.7596 206.861 62.2163C207.249 62.6986 207.778 63.1093 208.347 63.3512C208.901 63.5813 208.676 64.389 208.153 64.389C208.104 64.389 208.051 64.3822 207.997 64.3652H207.995Z" fill="black"/>
<path d="M36.4249 73.9147C35.6787 73.8653 35.1987 74.1601 34.9579 74.915C34.8086 75.3853 34.9731 75.9187 35.2971 76.2885C35.2462 76.3567 35.2072 76.4333 35.1936 76.5202C35.0885 76.7315 35.0376 76.9769 35.1359 77.2019C35.2716 77.5325 35.5989 77.7983 35.9585 77.7983C36.0009 77.7983 36.0433 77.7949 36.0857 77.7864C36.5979 77.679 36.7963 77.1712 36.7301 76.7196C38.1819 76.4112 38.0445 74.0204 36.4266 73.913L36.4249 73.9147Z" fill="black"/>
<path d="M41.0829 71.4811C41.7511 69.4414 42.2361 67.3385 42.6533 65.2255C42.9416 64.3291 43.2452 63.3476 42.9433 62.4137C41.7222 58.4995 36.1816 57.5247 34.7417 61.8804C34.4161 62.5228 34.2227 63.2198 34.0158 63.9065C33.9446 64.1604 34.1006 64.4331 34.3533 64.5012C35.1233 64.6256 35.0317 63.518 35.298 63.0408C35.7593 61.8582 36.3579 60.4779 37.6469 60.0348C39.6209 59.5083 41.9173 61.2328 42.1564 63.2283C42.0496 65.9514 40.8827 68.5007 40.2044 71.1165C38.1353 70.3922 36.0052 69.4294 33.8242 69.2488C32.1214 68.8995 31.4956 71.1284 31.1344 72.4048C30.5713 74.1276 29.374 76.7825 30.8173 78.3196C31.8874 79.3745 33.4341 79.6488 34.6874 80.4191C36.3732 81.1109 38.0742 82.2731 39.9703 82.0158C41.9308 81.5506 41.8274 77.9243 42.4888 76.302C43.1875 73.6232 43.2554 72.4985 41.0795 71.4794L41.0829 71.4811ZM41.1558 77.667C40.6741 78.8087 40.9065 81.3699 39.1427 81.0785C37.233 80.782 35.5473 79.6659 33.8021 78.8939C32.23 78.2293 30.6731 77.759 31.1751 75.6749C31.572 74.0339 32.0163 72.3349 32.8151 70.8523C33.9208 69.2744 36.0018 71.0483 37.4264 71.2545C38.4033 71.5664 39.414 71.7964 40.3485 72.2241C43.0688 72.8274 41.5153 75.7635 41.1541 77.6653L41.1558 77.667Z" fill="black"/>
<path d="M43.6146 68.0239C44.0844 67.7921 44.9324 62.6935 43.791 63.5609C43.6655 64.902 43.2635 66.209 42.9634 67.5212C42.8497 67.8978 43.2975 68.2284 43.6129 68.0222L43.6146 68.0239Z" fill="black"/>
<path d="M40.2374 85.0766C41.9605 84.9215 43.2681 83.6962 43.5988 81.999C43.6446 81.7826 43.7938 80.9442 43.7819 80.3409C43.7768 80.0342 43.3359 79.9899 43.2664 80.2881C42.9475 81.6531 42.5727 83.1748 41.238 83.8206C40.8649 84.0081 40.4477 84.0592 40.0525 84.1751C39.4979 84.3404 39.6964 85.1515 40.2357 85.0749L40.2374 85.0766Z" fill="black"/>
<path d="M43.1241 85.9046C44.0314 85.7376 44.413 84.7032 44.5725 83.8802C44.6165 83.6484 44.313 83.524 44.1841 83.7217C43.8398 84.25 43.3514 84.8549 42.829 85.0475C42.2965 85.2707 42.6255 86.0699 43.1258 85.9063L43.1241 85.9046Z" fill="black"/>
<path d="M126.537 94.822C126.537 94.822 126.53 94.8272 126.526 94.8289C126.531 94.8255 126.534 94.8237 126.537 94.822Z" fill="black"/>
<path d="M127.011 93.8733C127.011 93.8733 127.023 93.856 127.028 93.8474C127.025 93.8578 127.019 93.8681 127.016 93.8768C127.016 93.8768 127.012 93.8733 127.011 93.8716V93.8733Z" fill="black"/>
<path d="M114.608 90.1819C114.608 90.1819 114.613 90.1892 114.615 90.1929C114.612 90.1892 114.61 90.1855 114.608 90.1819Z" fill="black"/>
<path d="M118.648 98.135C118.648 98.135 118.656 98.1402 118.661 98.1437C118.658 98.1402 118.653 98.1385 118.648 98.135Z" fill="black"/>
<path d="M59.5649 65.2118C59.3411 65.3618 59.1138 65.5066 58.8866 65.6498C58.8509 65.297 58.7119 63.8877 58.2268 64.6154C58.2268 64.6154 58.2268 64.6154 58.2251 64.6137C58.1641 65.0891 58.2116 65.5594 58.2641 66.0315C56.5885 66.7029 57.5366 67.5038 58.2065 66.984C58.254 66.9466 58.3133 66.9278 58.3659 66.8988C58.4812 67.3317 58.315 67.9043 58.6322 68.2485C58.9476 68.5092 59.436 68.1752 59.3207 67.785C59.2291 67.3555 59.1494 66.9449 59.0629 66.5222C59.3818 66.345 59.6989 66.1627 60.0144 65.982C60.5147 65.6821 60.0669 64.9187 59.5666 65.2118H59.5649Z" fill="black"/>
<path d="M99.4666 52.6324C99.4106 52.4262 99.1884 52.295 98.9815 52.3563C98.9323 52.37 98.8204 52.4024 98.6746 52.4484C98.583 51.9917 98.5406 51.523 98.4253 51.0698C98.3167 50.7528 97.9114 50.8295 97.9436 51.1669C97.9283 51.673 97.9623 52.1774 97.9979 52.6835C97.3076 52.9494 96.597 53.3157 97.06 53.5765C97.1652 53.6037 97.272 53.556 97.3738 53.5339C97.4365 53.5339 97.5077 53.5339 97.5467 53.4793C97.7113 53.4282 97.8775 53.3839 98.0437 53.3481C98.0589 53.5918 98.0691 53.8338 98.0708 54.0775C98.1336 54.5035 98.739 54.5461 98.8543 54.1303C98.929 53.8304 98.8866 53.5219 98.8238 53.2152C99.1647 53.1539 99.5615 53.0414 99.4683 52.6307L99.4666 52.6324Z" fill="black"/>
<path d="M119.766 54.7183C119.629 54.3912 119.778 52.5916 119.142 52.9802C119.142 52.9802 119.142 52.9785 119.142 52.9768C119.061 53.0671 119.05 53.2068 119.042 53.3244C119.028 53.4829 119.018 53.6414 119.008 53.7998C118.659 53.8936 118.301 53.9992 118.024 54.2429C117.738 54.4184 117.74 54.9399 118.116 54.9944C118.287 55.02 118.45 54.8785 118.448 54.703C118.579 54.6178 118.767 54.5991 118.956 54.582C118.94 54.7848 118.94 54.991 119.03 55.1665C119.324 55.6573 120.056 55.2125 119.766 54.7218V54.7183Z" fill="black"/>
<path d="M184.482 34.2013C184.419 33.7821 184.355 33.3629 184.267 32.9471C184.24 32.7324 184.118 32.337 183.839 32.5177C183.741 32.5977 183.746 32.729 183.739 32.8448C183.738 33.0817 183.745 33.3186 183.75 33.5554C183.439 33.6202 183.1 33.5691 182.81 33.702C182.389 33.9303 182.613 34.4484 183.031 34.4893C183.092 34.4978 183.449 34.4842 183.767 34.3887C183.899 34.7585 184.538 34.6699 184.484 34.2013H184.482Z" fill="black"/>
<path d="M189.939 51.0135C189.951 50.5023 196.772 47.5985 198.414 46.8146C198.636 46.709 198.933 46.6374 199.118 46.7993C199.791 47.3906 189.923 51.7105 189.939 51.0152V51.0135Z" fill="black"/>
<path d="M47.3997 93.2884C44.4233 92.8096 41.6266 91.6508 38.7791 90.7017C37.7836 90.3677 36.783 90.0473 35.8417 89.5735C35.5839 89.3997 34.5138 89.0743 34.8835 88.6721C34.9412 88.6142 35.0412 88.5903 35.1159 88.6193C35.5534 88.7863 35.9825 88.9771 36.4201 89.1424C37.7683 89.6468 39.1709 89.9876 40.5344 90.4477C41.9217 90.8874 43.2988 91.3611 44.6963 91.765C45.6359 92.0308 46.5975 92.2064 47.5506 92.4126C48.1187 92.5301 47.9763 93.3788 47.3997 93.2902V93.2884Z" fill="black"/>
<path d="M32.4382 108.596C32.5417 108.056 34.397 107.615 34.9194 107.388C36.5713 106.844 38.2655 106.372 39.9309 105.899C41.0876 105.663 42.2459 105.077 43.4043 105.014C43.6824 105.144 43.6536 105.585 43.3585 105.675C39.8733 106.923 36.1948 107.507 32.674 108.555C32.5518 108.581 32.4467 108.743 32.4365 108.596H32.4382Z" fill="black"/>
<path d="M86.3773 139.784C82.5088 139.392 78.62 138.89 74.8092 138.169C74.7431 138.141 74.6871 138.085 74.66 138.019C74.6193 137.922 74.7024 137.818 74.8075 137.818C77.7008 137.813 80.6806 138.518 83.6044 138.736C84.5643 138.833 85.5242 138.93 86.4824 139.029C86.9692 139.101 86.8793 139.844 86.379 139.784H86.3773Z" fill="black"/>
<path d="M139.435 140.96C139.423 140.96 139.413 140.962 139.401 140.963C139.366 140.969 139.327 140.955 139.306 140.919C139.234 140.715 139.598 140.75 139.719 140.706C141.733 140.359 143.792 140.515 145.815 140.287C146.509 140.193 147.198 140.067 147.888 139.953C148.066 139.922 148.239 140.062 148.263 140.239C148.287 140.42 148.158 140.59 147.978 140.616C147.457 140.691 146.937 140.762 146.416 140.836C145.088 141.032 143.75 140.909 142.415 140.897C141.416 140.868 140.419 140.924 139.423 140.963H139.437L139.435 140.96Z" fill="black"/>
<path d="M220.434 91.7496C220.363 91.5366 220.481 91.3117 220.688 91.235C221.343 90.9947 221.999 90.7595 222.654 90.5244C225.45 89.5326 228.376 88.9532 231.159 87.9188C232.692 87.3633 234.171 86.6766 235.587 85.8688C235.896 85.6967 236.203 85.5229 236.512 85.3508C236.678 85.2758 236.908 85.0526 237.049 85.2554C237.212 85.8347 235.781 86.726 235.355 87.0293C232.512 88.8527 229.141 89.5513 225.936 90.463C224.877 90.7561 223.821 91.0509 222.779 91.4003C222.167 91.6031 221.557 91.8058 220.944 92.0052C220.739 92.0734 220.503 91.9626 220.432 91.7496H220.434Z" fill="black"/>
<path d="M246.435 111.152C243.217 109.602 239.865 108.361 236.463 107.286C236.463 107.286 236.463 107.286 236.465 107.284C236.253 107.257 236.246 106.928 236.46 106.889C236.67 106.848 236.891 106.914 237.098 106.954C239.572 107.557 241.994 108.388 244.348 109.361C244.334 109.356 244.321 109.351 244.307 109.346C245.138 109.692 245.952 110.072 246.771 110.445C247.227 110.679 246.9 111.362 246.434 111.152H246.435Z" fill="black"/>
<path d="M160.354 140.04C160.347 139.461 160.332 137.864 160.401 137.658C160.602 137.264 161.065 137.489 161.12 137.857C161.231 138.576 161.243 139.314 161.258 140.04C161.258 140.287 161.054 140.493 160.807 140.493C160.559 140.493 160.359 140.287 160.356 140.04H160.354Z" fill="black"/>
<path d="M164.473 139.244C163.835 139.137 163.574 138.321 164.364 138.23C164.656 138.232 165.003 138.36 165.073 138.677C165.161 139.019 164.798 139.321 164.473 139.244Z" fill="black"/>
<path d="M152.38 139.704C152.174 139.667 151.957 139.546 151.871 139.346C151.832 139.208 151.801 139.045 151.844 138.905C151.968 138.677 152.266 138.532 152.52 138.61C152.79 138.677 153.18 138.9 153.063 139.232C152.988 139.541 152.707 139.771 152.381 139.704H152.38Z" fill="black"/>
<path d="M173.163 138.765C172.635 138.544 172.974 137.634 173.509 137.901C174.082 138.201 173.8 139.014 173.163 138.765Z" fill="black"/>
<path d="M113.374 50.5791C112.76 45.0102 105.339 45.397 104.623 50.7205C100.721 49.9844 99.8049 54.0588 102.839 56.0986C103.066 56.4173 103.561 56.3849 103.914 56.4514C107.523 56.799 111.136 56.7496 114.738 57.0836C119.302 56.9762 116.992 50.165 113.376 50.5791H113.374ZM116.283 54.5939C116.14 56.8501 113.459 55.9981 111.941 56.0697C109.513 56.056 107.087 55.7902 104.66 55.8021C103.641 55.8072 102.688 55.2449 102.244 54.3247C101.952 53.7214 101.794 53.0773 101.966 52.5507C102.286 51.4993 103.935 51.0307 104.813 51.6561C105.161 51.7958 105.452 51.4482 105.396 51.1108C105.327 47.4947 110.077 45.2607 112.002 48.8137C112.776 49.8872 112.201 51.3255 112.73 51.5982C112.96 51.7277 113.198 51.5828 113.406 51.4823C114.933 51.3016 116.363 53.1506 116.283 54.5939Z" fill="black"/>
<path d="M253.539 73.9862C252.723 72.8632 251.277 72.6707 249.988 72.6741C251.331 66.432 244.676 66.4286 242.1 70.5576C242.025 70.7025 241.791 71.2648 242.132 71.1881C242.175 71.2052 242.214 71.1694 242.195 71.1285C243.399 69.3937 245.387 68.4752 247.49 68.6235C248.724 68.6201 249.097 70.0873 249.162 71.0961C249.267 71.805 248.845 72.4986 248.972 73.1819C249.564 74.3151 252.12 72.6741 253.271 75.4824C254.05 78.8139 250.139 78.9502 247.951 78.1084C247.953 78.1084 247.954 78.1084 247.956 78.1084C244.895 77.3075 240.599 76.3276 239.563 72.9075C239.444 71.7931 240.499 70.6087 241.644 70.9478C241.598 71.1251 241.411 71.6141 241.71 71.1983C242.309 70.6411 241.313 70.2815 240.843 70.3156C239.364 70.3889 238.355 72.0214 238.698 73.4171C240.104 77.1746 244.919 78.0522 248.339 79.2723C252.038 80.5895 256.377 77.5767 253.537 73.9845L253.539 73.9862Z" fill="black"/>
<path d="M247.673 80.8893C247.507 80.8637 246.383 80.5519 246.055 80.2622C245.954 80.1719 246.045 80.0049 246.176 80.0389C246.701 80.1753 247.232 80.3133 247.782 80.3559C248.157 80.4207 248.045 80.9796 247.673 80.891V80.8893Z" fill="black"/>
<path d="M180.839 73.7511C180.749 62.2332 180.683 50.7153 180.683 39.1975C180.683 35.6052 182.836 25.2598 177.209 25.2598C147.204 25.2598 117.193 25.2632 87.1915 25.7778C87.1999 25.7778 87.2084 25.7778 87.2169 25.7778C86.7386 25.7693 86.2604 25.7642 85.7821 25.7574C85.7821 25.7574 85.7838 25.7574 85.7855 25.7574C82.3309 25.7301 78.8779 25.5665 75.4232 25.6159C75.4232 25.6159 75.4249 25.6159 75.4266 25.6159C61.6402 24.8593 66.3516 28.2862 65.5697 39.8194C65.217 56.6865 65.1152 73.5569 65.1152 90.429C65.1152 101.166 73.3186 98.3785 79.7785 98.4825C84.0065 98.4603 95.1624 98.4586 108.608 98.416C108.013 102.053 107.97 105.817 106.658 109.3C105.715 109.66 101.258 109.278 100.968 109.862C100.678 110.447 100.515 111.299 100.893 111.931C101.271 112.563 103.853 112.435 104.994 112.417C108.437 112.361 111.878 112.342 115.321 112.386C125.074 112.313 134.958 111.87 144.652 112.044C145.39 112.057 144.503 109.84 143.273 109.741C142.186 109.654 141.084 109.61 139.988 109.612C139.669 109.612 139.378 109.438 139.23 109.155C137.461 105.764 137.22 102 136.474 98.2712C238.594 96.2552 93.653 96.9744 70.9357 97.1618C70.9357 97.1618 70.9358 97.1618 70.9374 97.1618C67.1792 97.1618 66.3567 92.2251 66.3567 92.2387C66.3753 91.5349 66.4262 87.273 66.4873 81.1912C104.175 81.5217 141.9 81.1162 179.597 81.3803C179.35 85.5996 179.494 89.7047 179.697 93.5338C179.484 96.9301 178.432 96.2399 175.83 96.8448C175.39 97.2504 176.282 97.4617 176.553 97.6151C178.208 97.823 180.718 97.4464 180.625 95.2669C181.056 88.1319 180.759 80.9236 180.842 73.7597L180.839 73.7511ZM135.967 101.291C136.401 104.319 136.768 107.812 138.828 110.195C139.34 110.559 142.822 110.297 143.472 110.518C143.694 110.719 143.802 111.018 143.925 111.299C129.828 111.122 115.711 111.433 101.616 111.502C101.727 111.12 101.729 110.905 101.772 110.416C102.511 110.691 107.09 110.788 107.607 109.69C109.246 106.212 109.573 102.213 109.654 98.4109C117.995 98.3836 126.96 98.3427 135.675 98.2712C135.582 99.2101 135.884 100.625 135.965 101.293L135.967 101.291ZM179.506 76.6225C179.599 77.7813 179.621 78.9946 179.611 80.2318C141.906 80.4584 104.188 80.0153 66.4923 80.3118C66.6348 65.8834 66.8248 42.1796 66.7976 30.5254C65.7224 25.4353 70.4541 27.3916 73.6747 27.1769C80.2415 27.1769 86.8082 27.0235 93.3766 27.0371C93.3732 27.0371 93.3698 27.0371 93.3647 27.0371C118.699 26.7577 144.021 26.6861 169.349 26.364C182.239 25.6091 179.482 26.6435 179.495 38.0796C179.287 50.9267 179.528 63.7737 179.504 76.6225H179.506Z" fill="black"/>
<path d="M130.34 59.6976C131.733 58.1043 130.032 55.4851 128.02 56.1258C126.087 56.5927 125.81 59.5357 127.722 60.2378C127.62 60.7677 124.678 64.9018 127.576 65.0092C132.102 65.5153 130.274 62.7002 129.842 60.1441C130.028 60.0197 130.196 59.868 130.34 59.6959V59.6976Z" fill="black"/>
<path d="M150.914 109.32C150.839 103.934 150.447 97.9303 150.563 92.2557C150.71 85.0389 147.88 70.6326 152.321 70.0208C172.023 69.1211 195.237 69.7584 213.857 69.5437C214.641 69.5352 215.317 70.0907 215.453 70.866C216.627 77.575 215.407 102.911 215.431 109.544C196.765 109.659 153.173 110.08 150.915 109.319L150.914 109.32Z" fill="#ADDDFF"/>
<path d="M226.056 126.614C223.048 121.912 215.843 110.089 215.808 109.776C195.719 109.852 170.873 110.258 151.048 109.934C133.941 135.386 138.464 128.832 165.16 128.991C180.684 129.083 196.185 129.199 211.848 129.182C223.402 128.74 225.681 131.751 226.056 126.614Z" fill="#A8A7B6"/>
<path d="M182.959 78.2738C182.579 77.1678 182.762 74.9133 182.959 73.7239C185.092 73.0559 185.805 76.6055 188.638 75.0888C187.492 81.5507 185.038 76.1709 182.959 78.2738Z" fill="#0079D0"/>
<path d="M190.66 103.567C191.135 106.287 175.437 106.79 174.691 102.685C174.582 102.085 175.339 93.1164 176.37 86.9033C177.055 82.7777 176.853 80.9049 177.281 80.8657C177.842 80.8146 178.838 80.5505 179.262 80.8862L179.462 83.4832L181.17 83.5803C181.131 82.6601 181.556 80.8657 181.556 80.8657L184.112 80.5777C183.897 81.866 184.441 83.4508 184.441 83.4508C184.441 83.4508 185.852 84.0541 186.327 83.2804C186.612 82.8169 186.522 81.0992 186.568 80.7703C186.568 80.7703 188.559 79.9353 188.783 80.7277C189.833 84.429 190.697 103.003 190.662 103.567H190.66Z" fill="#EAF5FF"/>
<path d="M191.055 102.492C190.969 96.9437 190.342 91.4174 189.836 85.8944C189.541 84.0898 189.627 82.1574 189.024 80.4209C188.778 80.1329 188.288 80.3187 187.952 80.305C185.34 80.3527 186.512 81.4843 186.102 83.3417C183.822 84.0472 184.58 82.3312 184.272 80.8265C184.446 80.38 183.807 80.334 183.118 80.38C183.166 79.9012 183.03 78.6419 183.363 78.3743C184.297 77.3007 185.316 78.6572 186.37 78.6384C188.822 78.6947 188.06 76.1641 189.324 74.9559C189.37 74.9116 189.421 74.8741 189.473 74.8383C189.699 74.685 190.087 74.3476 189.694 74.2998C188.542 74.1635 187.911 75.2575 187.163 75.2797C185.827 75.2047 184.246 72.5975 182.764 73.7085C182.708 73.7511 182.667 73.8108 182.647 73.8789C182.311 74.9934 182.503 79.5995 182.825 80.4022C182.367 80.4448 181.938 80.5095 181.765 80.501C180.569 80.7873 181.48 82.5664 180.917 83.4031C180.5 83.4082 180.081 83.3553 179.665 83.3298C179.642 81.958 180.422 80.0631 178.227 80.6305C177.852 80.7396 176.977 80.4516 176.852 80.9032C176.221 85.5349 175.488 90.1478 175.049 94.8051C175.007 96.2706 174.184 100.1 174.279 102.363C174.316 103.244 174.784 104.051 175.536 104.508C178.426 106.267 182.245 105.844 185.513 105.822C187.706 105.503 191.245 105.883 191.054 102.492H191.055ZM183.03 74.9679C183.071 74.0971 183.395 73.85 183.658 73.9164C185.299 74.3322 186.376 76.8253 188.495 75.3649C187.82 76.2595 188.228 77.4456 187.084 77.9568C185.791 78.6401 184.379 76.6055 183.035 78.0318C183.018 77.2121 182.984 75.9409 183.029 74.9679H183.03ZM184.112 80.8623C184.112 80.8623 184.112 80.864 184.112 80.8657C184.112 80.8657 184.112 80.864 184.112 80.8623ZM188.898 104.679C185.415 105.738 179.107 105.87 176.094 104.121C175.356 103.694 174.932 102.872 174.993 102.018C175.49 95.0113 176.538 88.0501 177.296 81.0736C177.897 81.1008 178.492 81.0872 179.091 81.0565C179.336 81.8592 178.346 83.8154 179.66 83.8154C181.216 84.0932 181.818 83.8649 181.797 82.1659C181.77 81.7876 181.98 81.2798 181.78 80.9492C182.44 80.7651 183.268 80.7668 183.943 80.8623C184.05 81.8438 183.276 83.8904 184.857 83.8393C186.168 83.9654 186.944 83.9467 186.772 82.367C186.582 80.6595 186.826 80.7072 188.42 80.7396C189.775 87.9155 190.153 95.3555 190.328 102.673C190.35 103.588 189.77 104.416 188.898 104.68V104.679Z" fill="black"/>
<path d="M188.018 95.3144C188.158 95.1457 188.26 94.9447 188.326 94.7351C188.391 94.5323 188.411 94.3159 188.394 94.1045C188.394 94.0841 188.389 94.0619 188.386 94.0415C188.386 94.0142 188.386 93.9887 188.386 93.9614C188.37 93.8864 188.348 93.8114 188.321 93.7399C188.294 93.6496 188.26 93.5609 188.218 93.4757C188.17 93.3803 188.114 93.2883 188.048 93.2048C187.979 93.1162 187.902 93.0344 187.819 92.9594C187.565 92.7379 187.246 92.5896 186.91 92.5521C186.813 92.5419 186.718 92.5402 186.622 92.5436C186.44 92.5351 186.259 92.5521 186.083 92.6015C185.887 92.6578 185.701 92.7464 185.536 92.8691C185.367 92.9969 185.219 93.1537 185.107 93.3326C185 93.5013 184.928 93.6887 184.885 93.8847C184.873 93.9409 184.865 93.9972 184.858 94.0534C184.838 94.2511 184.851 94.4522 184.9 94.643C184.953 94.8458 185.041 95.0418 185.17 95.2088C185.284 95.357 185.421 95.4848 185.582 95.5786C185.67 95.6297 185.767 95.6706 185.869 95.691C185.701 96.1529 185.513 96.6061 185.311 97.0543C185.189 97.3764 185.073 97.7019 184.939 98.0205C184.865 98.2523 184.731 98.5215 184.768 98.7669C184.778 98.8061 184.807 98.8317 184.841 98.8419C184.955 99.1827 185.313 99.3719 185.745 99.3514C185.774 99.3514 185.803 99.3514 185.832 99.3514C185.859 99.3514 185.886 99.3531 185.915 99.3514C185.95 99.3514 185.986 99.3514 186.023 99.3514C186.164 99.3514 186.306 99.3548 186.447 99.3531C187.014 99.3565 187.59 99.3344 188.035 98.951C188.347 98.6221 188.192 98.1194 188.109 97.7257C187.99 97.2077 187.88 96.6845 187.726 96.1767C187.702 96.0029 187.673 95.8291 187.636 95.657C187.778 95.5632 187.906 95.4474 188.014 95.3161L188.018 95.3144Z" fill="black"/>
<path d="M190.742 124.756C190.576 123.868 190.43 123.018 190.155 122.147C190.011 120.925 189.231 121.401 188.308 121.302C186.054 121.348 183.798 121.363 181.543 121.37C179.832 121.403 178.112 121.37 176.404 121.447C176.099 121.561 176.158 121.967 176.06 122.224C175.851 123.144 175.536 124.044 175.366 124.974C175.412 125.385 175.921 125.228 176.204 125.237C179.141 125.218 182.079 125.194 185.018 125.194C190.358 125.194 190.928 125.526 190.74 124.753L190.742 124.756ZM176.157 124.736C176.406 123.838 176.594 122.917 176.854 122.021C180.861 121.83 185.05 121.961 189.061 121.929C189.3 121.927 189.51 122.091 189.563 122.324C189.717 123.011 189.767 123.693 189.956 124.361C190.002 124.519 189.884 124.678 189.719 124.674C189.402 124.668 180.359 124.744 176.157 124.736Z" fill="black"/>
<path d="M225.295 124.974C224.786 124.199 224.32 123.367 223.772 122.614C222.259 120.322 221.092 117.812 219.618 115.493C218.899 114.402 218.168 113.32 217.529 112.18C217.059 111.454 216.749 110.627 216.147 109.992C216.133 109.978 216.12 109.963 216.106 109.946C216.118 109.929 216.13 109.912 216.138 109.893C216.155 109.857 216.159 109.82 216.162 109.781C216.172 109.704 216.172 109.627 216.174 109.549C216.176 109.467 216.177 109.385 216.179 109.303C216.179 109.056 216.182 108.811 216.184 108.564C216.189 107.904 216.191 107.245 216.198 106.585C216.206 105.834 216.208 105.084 216.208 104.334C216.208 103.585 216.196 102.901 216.189 102.184C216.182 101.396 216.181 100.607 216.176 99.8202C216.171 99.0193 216.157 98.2201 216.155 97.4192C216.148 95.8122 216.14 94.2053 216.145 92.5983C216.147 91.8246 216.145 91.051 216.145 90.2773C216.145 89.5037 216.148 88.8033 216.148 88.0672C216.148 87.302 216.152 86.5386 216.152 85.7735C216.152 85.0083 216.147 84.3165 216.143 83.5871C216.14 82.8731 216.135 82.1591 216.125 81.4451C216.116 80.7822 216.113 80.1176 216.111 79.4547C216.108 78.7117 216.109 77.9671 216.109 77.2241C216.109 76.4811 216.104 75.7279 216.093 74.9798C216.087 74.6202 216.084 74.2624 216.065 73.9045C216.048 73.5671 216.031 73.2314 216.014 72.894C215.996 72.5344 215.979 72.1766 215.959 71.817C215.95 71.6585 215.942 71.5001 215.923 71.3433C215.926 71.1388 215.93 70.9343 215.933 70.723C215.959 70.2493 215.577 69.8846 215.189 69.6801C214.639 69.4569 213.961 69.4143 213.342 69.4211C213.15 69.4211 212.963 69.4245 212.785 69.4313C212.102 69.3717 211.413 69.3308 210.727 69.3359C210.445 69.3359 210.165 69.341 209.884 69.358C209.187 69.4126 208.493 69.4466 207.798 69.5029C207.787 69.5029 207.777 69.5029 207.767 69.5029C206.502 69.4892 205.237 69.5267 203.972 69.5438C201.984 69.4688 200.001 69.4773 198.01 69.4535C196.976 69.4501 195.929 69.4177 194.885 69.4194C194.247 69.4194 193.608 69.4279 192.973 69.462C192.671 69.4773 192.37 69.4841 192.066 69.4858C191.306 69.4858 190.546 69.4586 189.787 69.4603C189.593 69.4603 189.4 69.4603 189.205 69.4637C188.688 69.4773 188.172 69.4824 187.655 69.4841C186.595 69.4841 185.537 69.4705 184.477 69.4671C183.944 69.4671 183.411 69.4671 182.877 69.4756C180.815 69.4722 178.753 69.571 176.69 69.5608C175.987 69.5557 175.284 69.537 174.582 69.4944C173.334 69.4432 172.088 69.4296 170.839 69.433C168.764 69.433 166.686 69.4824 164.608 69.4756C163.362 69.4807 162.117 69.5319 160.871 69.5336C160.458 69.5336 160.048 69.525 159.636 69.508C158.361 69.4807 157.085 69.4449 155.81 69.4449C155.452 69.4228 155.082 69.4092 154.707 69.4126C153.12 69.4057 151.45 69.6954 150.427 71.0025C149.497 72.2192 149.521 73.8347 149.535 75.2968C149.53 76.3737 149.401 77.4456 149.413 78.5243C149.375 79.9949 149.436 81.4587 149.408 82.9293C149.464 85.2469 149.687 87.5576 149.796 89.8718C149.905 92.2064 149.74 94.5444 149.787 96.8807C149.862 100.473 150.003 104.063 150.145 107.654C150.169 108.233 150.279 108.816 150.232 109.395C149.869 110.241 149.397 111.04 148.98 111.86C147.973 113.603 146.874 115.319 145.792 117.021C144.382 119.185 143.334 121.554 142.09 123.812C141.588 124.744 141.15 125.71 140.602 126.617C140.136 127.408 140.719 128.292 141.177 128.941C141.94 129.659 142.982 129.713 143.609 129.742C145.57 129.831 147.464 129.725 149.423 129.635C152.303 129.517 155.201 129.744 158.082 129.643C161.89 129.538 165.699 129.362 169.511 129.449C171.506 129.383 173.5 129.395 175.496 129.476C177.589 129.516 179.68 129.65 181.773 129.681C184.222 129.73 186.669 129.647 189.118 129.648C190.638 129.621 192.156 129.723 193.675 129.74C195.548 129.727 197.422 129.698 199.296 129.713C201.329 129.662 203.363 129.752 205.394 129.677C206.543 129.654 207.692 129.597 208.842 129.608C209.604 129.626 210.364 129.667 211.125 129.625C213.257 129.579 215.389 129.744 217.519 129.81C219.442 129.821 221.358 129.979 223.282 130.049C223.794 130.059 224.338 130.12 224.833 129.965C224.898 129.926 224.956 129.88 225.01 129.832C225.188 129.722 225.356 129.509 225.471 129.393C225.871 128.933 226.424 128.548 226.629 127.953C226.918 126.752 225.902 125.874 225.291 124.972L225.295 124.974ZM150.41 77.2871C150.491 76.3925 150.542 75.4944 150.556 74.5964C150.5 72.8309 150.88 70.919 152.822 70.4214C153.332 70.2885 153.853 70.2459 154.375 70.2373C154.843 70.2373 155.311 70.2578 155.778 70.2663C156.48 70.2663 157.178 70.2782 157.881 70.2919C158.893 70.3311 159.906 70.343 160.92 70.3413C162.533 70.343 164.145 70.314 165.758 70.3157C165.955 70.3174 166.152 70.3174 166.348 70.3157C167.688 70.3123 169.033 70.239 170.376 70.2288C170.536 70.2288 170.695 70.2288 170.855 70.2288C172.747 70.2425 174.655 70.2816 176.555 70.3583C176.597 70.3583 176.64 70.3583 176.684 70.3583C176.697 70.3583 176.711 70.3583 176.724 70.3583C181.507 70.3123 186.29 70.1879 191.074 70.1811C191.308 70.1879 191.542 70.1913 191.776 70.1913C193.204 70.1998 194.629 70.084 196.057 70.0993C198.024 70.1129 200.005 70.0056 201.979 69.9954C202.22 69.9954 202.459 69.9954 202.7 69.9971C202.881 70.0005 203.062 70.0005 203.244 70.0005C204.416 70.0005 205.584 69.9033 206.756 69.8641C207.055 69.8641 207.352 69.8556 207.65 69.8437C208.493 69.8556 209.336 69.8693 210.177 69.8607C211.137 69.8573 212.099 69.9187 213.065 69.9272C213.099 69.9272 213.13 69.9272 213.164 69.9272C213.187 69.9272 213.211 69.9272 213.235 69.9272C213.292 69.9272 213.348 69.9272 213.403 69.9255C213.61 69.9255 213.81 69.9374 214.03 69.9783C214.386 70.0124 214.797 69.963 215.041 70.2833C215.282 70.5185 215.199 70.8747 215.216 71.178C215.251 71.9227 215.27 72.6708 215.362 73.412C215.392 73.6319 215.412 73.8534 215.426 74.0766C215.426 74.109 215.423 74.1397 215.423 74.1721C215.412 74.5436 215.411 74.9133 215.407 75.2848C215.392 76.781 215.411 78.2772 215.412 79.7734V80.7669C215.412 81.0719 215.407 81.3752 215.404 81.6802C215.399 82.4232 215.399 83.1662 215.397 83.9092C215.394 85.4003 215.404 86.893 215.412 88.3841C215.423 89.8939 215.428 91.4037 215.436 92.9136C215.44 93.7145 215.443 94.5137 215.443 95.3129C215.443 96.1172 215.446 96.9233 215.443 97.7276C215.44 98.5302 215.434 99.3328 215.433 100.135C215.433 100.921 215.433 101.705 215.429 102.49C215.426 103.193 215.419 103.896 215.423 104.6C215.426 104.992 215.426 105.382 215.429 105.773C215.433 106.127 215.44 106.481 215.445 106.838C215.453 107.487 215.457 108.136 215.467 108.787C215.47 109.009 215.47 109.228 215.475 109.45C215.475 109.464 215.475 109.476 215.475 109.489C215.384 109.487 215.292 109.484 215.202 109.482C215.072 109.482 214.939 109.479 214.809 109.477C214.358 109.469 213.906 109.47 213.455 109.47C213.142 109.47 212.828 109.47 212.514 109.47H211.574C210.962 109.47 210.352 109.464 209.739 109.462C208.571 109.457 207.402 109.448 206.236 109.45C204.928 109.45 203.619 109.457 202.311 109.453C199.894 109.447 197.478 109.453 195.061 109.447C193.886 109.443 192.712 109.457 191.537 109.464C190.243 109.47 188.947 109.487 187.653 109.505C185.146 109.535 182.64 109.506 180.133 109.494C178.81 109.487 177.488 109.481 176.165 109.481C175.698 109.481 175.232 109.481 174.766 109.481C173.926 109.481 173.087 109.481 172.247 109.481C170.977 109.477 169.706 109.465 168.435 109.457C167.13 109.45 165.826 109.44 164.524 109.431C162.071 109.414 159.617 109.401 157.163 109.401C155.946 109.401 154.726 109.401 153.508 109.421C152.908 109.431 152.306 109.445 151.707 109.482C151.531 109.494 151.353 109.506 151.175 109.527C151.266 109.002 151.166 108.455 151.154 107.925C151.107 106.517 151.075 105.108 150.973 103.702C150.836 100.945 150.722 98.1826 150.71 95.422C150.695 93.251 150.827 91.068 150.664 88.897C150.563 86.8624 150.371 84.8294 150.344 82.7913C150.383 80.9645 150.291 79.1207 150.412 77.2905L150.41 77.2871ZM142.334 125.039C143.553 122.82 144.734 120.578 146.021 118.396C147.732 115.665 149.616 113.006 150.958 110.069C151.058 110.084 151.158 110.096 151.258 110.104C151.551 110.132 151.846 110.152 152.141 110.166C152.759 110.195 153.378 110.207 153.995 110.213C155.216 110.227 156.439 110.229 157.662 110.23C158.924 110.23 160.185 110.227 161.447 110.224C162.66 110.22 163.872 110.208 165.087 110.205C167.651 110.195 170.215 110.164 172.78 110.166C175.398 110.166 178.017 110.169 180.635 110.155C183.154 110.142 185.672 110.125 188.191 110.162C189.481 110.181 190.77 110.193 192.059 110.203C193.211 110.212 194.362 110.222 195.514 110.219C196.935 110.213 198.356 110.215 199.777 110.219C200.792 110.219 201.807 110.22 202.823 110.219C204.131 110.219 205.439 110.227 206.746 110.227C207.891 110.227 209.036 110.22 210.18 110.215C211.432 110.208 212.685 110.212 213.937 110.212C214.303 110.212 214.67 110.207 215.036 110.201C215.16 110.201 215.284 110.201 215.407 110.195C215.448 110.195 215.487 110.195 215.528 110.195C215.674 110.696 215.962 111.128 216.181 111.604C216.177 111.595 216.174 111.59 216.171 111.582C217.132 113.427 218.438 115.068 219.505 116.858C220.075 117.802 220.6 118.771 221.196 119.7C221.949 121.046 222.697 122.396 223.594 123.65C224.157 124.562 224.716 125.475 225.383 126.315C225.502 126.479 225.598 126.632 225.675 126.78C225.505 126.76 225.335 126.741 225.166 126.726C224.725 126.685 224.284 126.659 223.843 126.641C222.849 126.602 221.857 126.583 220.862 126.567C219.201 126.544 217.541 126.54 215.879 126.544C215.016 126.544 214.152 126.544 213.291 126.544C212.428 126.544 211.566 126.544 210.703 126.544C207.246 126.55 203.788 126.566 200.332 126.574C196.847 126.581 193.362 126.583 189.876 126.583C188.114 126.583 186.354 126.586 184.592 126.588C182.887 126.588 181.181 126.583 179.477 126.585C175.924 126.585 172.373 126.595 168.821 126.62C167.076 126.632 165.329 126.653 163.582 126.666C161.836 126.68 160.089 126.683 158.342 126.687C156.649 126.69 154.958 126.699 153.266 126.709C151.58 126.719 149.896 126.717 148.21 126.717C147.473 126.717 146.735 126.714 145.997 126.714C145.239 126.714 144.481 126.723 143.723 126.733C143.389 126.736 143.053 126.738 142.719 126.743C142.451 126.746 142.183 126.752 141.915 126.755C141.769 126.755 141.621 126.758 141.476 126.76C141.501 126.704 141.526 126.646 141.555 126.576C141.793 126.053 142.069 125.552 142.332 125.042L142.334 125.039ZM225.227 128.675C225 128.907 224.816 129.17 224.574 129.389C224.569 129.393 224.564 129.398 224.559 129.401C224.443 129.422 224.313 129.393 224.194 129.403C222.422 129.372 220.644 129.171 218.872 129.074C215.996 129.021 213.121 128.81 210.245 128.943C207.077 128.839 203.907 129.026 200.739 128.885C196.955 128.912 193.173 128.97 189.39 128.907C186.936 128.899 184.483 128.977 182.029 128.94C179.551 128.905 177.077 128.778 174.601 128.721C172.98 128.681 171.358 128.682 169.737 128.744C168.024 128.728 166.309 128.701 164.597 128.732C161.761 128.778 158.927 128.943 156.09 128.963C153.817 128.934 151.543 129.052 149.27 129.044C147.342 129.044 143.45 129.185 142.342 128.822C141.866 128.665 141.532 127.953 141.415 127.597C141.359 127.464 141.333 127.363 141.328 127.271C141.557 127.275 141.788 127.276 142.017 127.278C142.356 127.281 142.695 127.29 143.036 127.293C143.484 127.297 143.933 127.302 144.382 127.307C145.904 127.326 147.425 127.309 148.946 127.307C149.815 127.307 150.685 127.302 151.555 127.304C152.352 127.304 153.151 127.31 153.948 127.314C155.657 127.321 157.368 127.326 159.078 127.329C160.808 127.331 162.538 127.336 164.269 127.348C167.827 127.375 171.384 127.399 174.942 127.404C178.403 127.409 181.865 127.396 185.326 127.396C188.83 127.396 192.334 127.387 195.838 127.389C199.296 127.391 202.752 127.396 206.21 127.401C207.762 127.402 209.312 127.408 210.864 127.408C211.032 127.408 211.201 127.408 211.369 127.408C213.109 127.408 214.849 127.402 216.591 127.404C218.275 127.404 219.958 127.391 221.64 127.36C222.483 127.345 223.326 127.326 224.167 127.283C224.552 127.264 224.935 127.239 225.318 127.198C225.485 127.179 225.649 127.162 225.814 127.142C225.817 127.142 225.822 127.142 225.826 127.142C225.977 127.667 225.802 128.123 225.229 128.679L225.227 128.675Z" fill="black"/>
<path d="M215.626 119.451C214.746 117.682 213.933 115.852 213.153 114.025C212.656 112.916 212.314 111.977 210.921 112.199C210.927 112.199 210.932 112.199 210.937 112.199C195.332 112.318 179.724 112.296 164.12 112.326C160.932 112.323 157.74 112.306 154.553 112.407C154.034 112.437 153.412 112.337 153.179 112.894C152.118 114.351 151.475 116.053 150.713 117.677C150.144 118.771 149.528 120.24 151.399 120.203C167.33 120.479 183.284 120.223 199.224 120.274C203.173 120.274 207.121 120.296 211.069 120.293C212.165 120.061 215.711 120.958 215.628 119.451H215.626ZM213.608 119.71C197.851 119.731 182.095 119.663 166.338 119.659C161.535 119.703 156.719 119.513 151.923 119.778C150.373 119.862 150.586 119.095 151.198 117.998C151.95 116.224 153.044 114.627 153.836 112.872C168.434 113.075 183.042 112.775 197.642 112.809C202.165 112.834 206.715 112.683 211.223 112.829C212.458 112.516 214.169 118.25 214.956 119.443C214.573 119.738 214.083 119.738 213.608 119.712V119.71Z" fill="black"/>
<path d="M124.715 89.7934C125.366 88.0757 123.001 86.4585 121.793 88.0637C121.065 88.8374 120.875 90.821 122.393 90.6659C123.029 91.3663 124.401 90.6062 124.713 89.7934H124.715ZM128.195 90.7238C128.611 93.4606 125.801 100.021 119.207 98.9716C118.057 98.7892 118.511 98.169 117.004 98.9068C116.039 99.5271 116.671 102.882 114.429 100.718C113.366 100.095 112.301 101.463 111.733 99.9651C110.501 100.734 109.731 105.633 108.212 104.215C107.433 104.834 106.969 106.115 105.547 105.534C105.064 108.77 103.37 108.042 100.59 108.095C99.0248 108.591 98.9146 107.497 99.3827 106.257C99.9695 103.873 102.422 103.077 104.004 101.444C106.431 99.4385 107.84 98.0803 110.428 96.2894C114.617 93.389 111.502 89.8155 114.585 86.467C116.325 84.5772 119.242 83.1798 121.919 83.7575C125.65 84.5636 127.69 87.3872 128.195 90.7238Z" fill="#ADDDFF"/>
<path d="M122.875 91.3152C120.163 91.138 121.053 86.8368 123.59 87.4299C126.112 87.8695 125.374 91.7838 122.875 91.3152ZM123.187 90.8227C124.918 90.7579 124.925 88.0348 123.2 87.953C121.285 87.878 121.416 90.746 123.187 90.8227Z" fill="black"/>
<path d="M128.02 88.9635C124.335 79.1565 110.949 83.2872 112.49 93.4163C111.232 95.957 108.329 97.167 106.305 99.0227C104.14 100.834 101.485 102.153 99.6911 104.345C98.9686 105.227 99.1365 106.616 98.9652 107.61C98.8177 108.458 99.3773 108.564 100.059 108.453C103.219 107.923 104.845 110.007 105.761 105.941C107.669 106.47 107.316 105.638 108.43 104.529C109.255 105.248 109.629 104.506 109.911 103.75C110.411 102.722 110.649 101.604 111.381 100.689C111.758 100.158 112.044 100.945 112.334 101.144C112.892 101.478 113.405 100.855 113.944 100.764C114.819 101.315 115.419 102.545 116.315 101.396C117.2 100.74 116.498 99.0449 117.817 98.7892C117.96 98.8506 118.09 98.9068 118.248 98.9733C124.042 101.366 130.14 94.7608 128.02 88.9635ZM127.737 92.3529C127.244 96.5296 122.729 99.6685 118.677 98.5217C118.681 98.5217 118.684 98.5217 118.686 98.5234C118.525 98.4791 118.369 98.4212 118.211 98.3683C117.685 98.1076 117.068 98.2831 116.664 98.7364C115.932 99.4129 116.552 100.64 115.635 101.146C114.522 100.4 114.024 99.8117 112.697 100.592C111.99 99.6294 111.41 99.7111 110.835 100.388L110.845 100.377C110.845 100.377 110.83 100.393 110.822 100.401L110.832 100.391C110.03 101.524 109.738 102.976 109.009 104.152C107.977 103.409 107.484 104.817 106.902 105.423C106.519 105.447 106.112 105.287 105.713 105.323C105.332 105.261 105.166 105.534 105.067 105.859C104.185 108.697 103.171 107.71 101.338 107.84C100.632 107.889 99.725 107.915 99.5113 107.959C99.5181 107.724 99.5588 107.495 99.608 107.267C104.955 103.285 110.22 98.9511 115.211 94.5938C115.272 94.241 114.826 93.9701 114.546 94.2035C113.347 95.1834 112.148 96.1649 110.949 97.1448C107.23 100.243 103.393 103.194 99.7725 106.413C99.9166 105.728 99.9489 104.895 100.524 104.418C102.355 102.824 104.328 101.398 106.236 99.8935C107.659 98.7926 109.063 97.6714 110.498 96.5876C111.79 95.6759 113.384 94.5614 113.23 92.767C111.795 81.3854 128.607 81.0923 127.737 92.3546V92.3529Z" fill="black"/>
<path d="M111.152 100.078C111.152 100.078 111.16 100.071 111.163 100.067C111.16 100.071 111.155 100.074 111.152 100.078Z" fill="black"/>
<path d="M114.543 90.0252C114.361 90.003 114.21 89.8224 114.243 89.6366C114.333 89.0845 114.475 88.5409 114.741 88.0467C115.815 86.0495 117.54 84.8056 120.068 84.6113C121.069 84.5346 121.227 84.901 121.132 85.0083C120.954 85.0901 120.714 85.0629 120.528 85.1038C119.232 85.3577 118.033 85.6389 116.973 86.45C116.351 86.8948 115.689 87.6156 115.389 88.3381C115.172 88.7931 115.048 89.2822 114.921 89.7678C114.875 89.9348 114.711 90.049 114.543 90.0252Z" fill="black"/>
<path d="M126.99 91.6746C126.717 91.3611 126.514 91.6865 126.453 91.9882C126.407 92.0512 126.363 92.1143 126.334 92.1892C126.227 92.4943 126.152 92.8095 126.025 93.1077C125.762 93.8354 125.399 94.5136 124.872 95.0845C124.506 95.5139 124.15 95.9638 123.702 96.3097C123.481 96.4989 122.976 96.613 123.132 96.9964C123.313 97.3424 123.726 97.0817 123.992 96.993C125.199 96.4494 125.957 95.3009 126.503 94.137C126.726 93.7161 126.958 93.2355 127.024 92.7482C127.153 92.3937 127.253 91.9865 126.99 91.678V91.6746Z" fill="black"/>
</svg>
