<svg width="56" height="56" viewBox="0 0 56 56" fill="none" xmlns="http://www.w3.org/2000/svg">
    <path fill-rule="evenodd" clip-rule="evenodd" d="M46.2 1.4C45.814 1.4 45.5 1.08598 45.5 0.7C45.5 0.313987 45.814 0 46.2 0C46.586 0 46.9 0.313987 46.9 0.7C46.9 1.08598 46.586 1.4 46.2 1.4Z" fill="#E0F0FE"/>
    <path fill-rule="evenodd" clip-rule="evenodd" d="M3.5 3.5C3.11402 3.5 2.8 3.18598 2.8 2.8C2.8 2.41399 3.11402 2.1 3.5 2.1C3.88598 2.1 4.2 2.41399 4.2 2.8C4.2 3.18598 3.88598 3.5 3.5 3.5Z" fill="#E0F0FE"/>
    <path fill-rule="evenodd" clip-rule="evenodd" d="M0.7 46.9C0.31402 46.9 0 46.586 0 46.2C0 45.814 0.31402 45.5 0.7 45.5C1.08598 45.5 1.4 45.814 1.4 46.2C1.4 46.586 1.08598 46.9 0.7 46.9Z" fill="#E0F0FE"/>
    <path fill-rule="evenodd" clip-rule="evenodd" d="M17.5 34.9998C17.5 34.6132 17.8134 34.2998 18.2 34.2998H37.8C38.1866 34.2998 38.5 34.6132 38.5 34.9998V43.3998C38.5 43.7864 38.1866 44.0998 37.8 44.0998H18.2C17.8134 44.0998 17.5 43.7864 17.5 43.3998V34.9998ZM18.9 35.6998V42.6998H37.1V35.6998H18.9Z" fill="#0079D0"/>
    <path fill-rule="evenodd" clip-rule="evenodd" d="M26.6 37.7998C26.6 37.4132 26.9134 37.0998 27.3 37.0998H34.3C34.6866 37.0998 35 37.4132 35 37.7998C35 38.1864 34.6866 38.4998 34.3 38.4998H27.3C26.9134 38.4998 26.6 38.1864 26.6 37.7998Z" fill="#0079D0"/>
    <path fill-rule="evenodd" clip-rule="evenodd" d="M21 37.7998C21 37.4132 21.3134 37.0998 21.7 37.0998H23.1C23.4866 37.0998 23.8 37.4132 23.8 37.7998C23.8 38.1864 23.4866 38.4998 23.1 38.4998H21.7C21.3134 38.4998 21 38.1864 21 37.7998Z" fill="#0079D0"/>
    <path fill-rule="evenodd" clip-rule="evenodd" d="M21 40.5998C21 40.2132 21.3134 39.8998 21.7 39.8998H25.9C26.2866 39.8998 26.6 40.2132 26.6 40.5998C26.6 40.9864 26.2866 41.2998 25.9 41.2998H21.7C21.3134 41.2998 21 40.9864 21 40.5998Z" fill="#0079D0"/>
    <path fill-rule="evenodd" clip-rule="evenodd" d="M28.7 40.5998C28.7 40.2132 29.0134 39.8998 29.4 39.8998C29.7866 39.8998 30.1001 40.2132 30.1001 40.5998C30.1001 40.9864 29.7867 41.2998 29.4001 41.2998C29.0135 41.2998 28.7 40.9864 28.7 40.5998Z" fill="#0079D0"/>
    <path fill-rule="evenodd" clip-rule="evenodd" d="M32.2 40.5998C32.2 40.2132 32.5134 39.8998 32.9 39.8998H34.3C34.6866 39.8998 35 40.2132 35 40.5998C35 40.9864 34.6866 41.2998 34.3 41.2998H32.9C32.5134 41.2998 32.2 40.9864 32.2 40.5998Z" fill="#0079D0"/>
    <path fill-rule="evenodd" clip-rule="evenodd" d="M8.40041 16.0999C8.40041 15.7133 8.71381 15.3999 9.10041 15.3999H46.9004C47.287 15.3999 47.6004 15.7133 47.6004 16.0999V22.3999C47.6004 22.7865 47.287 23.0999 46.9004 23.0999H9.10041C8.71381 23.0999 8.40041 22.7865 8.40041 22.3999V16.0999ZM9.80041 16.7999V21.6999H46.2004V16.7999H9.80041Z" fill="#2F3A43"/>
    <path fill-rule="evenodd" clip-rule="evenodd" d="M12.3241 11.4173C12.4562 11.2785 12.6395 11.1999 12.8311 11.1999H43.1697C43.3613 11.1999 43.5446 11.2785 43.6767 11.4173L47.4075 15.3373C47.6005 15.5401 47.6541 15.8384 47.5438 16.0958C47.4334 16.3531 47.1804 16.5199 46.9004 16.5199H9.10041C8.82043 16.5199 8.56739 16.3531 8.45705 16.0958C8.34672 15.8384 8.40033 15.5401 8.59334 15.3373L12.3241 11.4173ZM13.1313 12.5999L10.733 15.1199H45.2679L42.8695 12.5999H13.1313Z" fill="#2F3A43"/>
    <path fill-rule="evenodd" clip-rule="evenodd" d="M10.6381 22.3961C10.6402 22.011 10.953 21.6999 11.3381 21.6999H44.8004C44.9867 21.6999 45.1653 21.7742 45.2967 21.9063C45.4281 22.0384 45.5014 22.2174 45.5004 22.4037L45.3627 47.6037C45.3606 47.9888 45.0478 48.2999 44.6627 48.2999H11.2004C11.0141 48.2999 10.8355 48.2256 10.7041 48.0935C10.5727 47.9614 10.4994 47.7824 10.5004 47.5961L10.6381 22.3961ZM12.0343 23.0999L11.9042 46.8999H43.9665L44.0966 23.0999H12.0343Z" fill="#2F3A43"/>
    <path fill-rule="evenodd" clip-rule="evenodd" d="M21.0004 26.5999C21.0004 26.2133 21.3138 25.8999 21.7004 25.8999H34.3004C34.687 25.8999 35.0004 26.2133 35.0004 26.5999V31.4999C35.0004 31.8865 34.687 32.1999 34.3004 32.1999H21.7004C21.3138 32.1999 21.0004 31.8865 21.0004 31.4999V26.5999ZM22.4004 27.2999V30.7999H33.6004V27.2999H22.4004Z" fill="#2F3A43"/>
    <path fill-rule="evenodd" clip-rule="evenodd" d="M14.7004 9.0999C14.7004 8.7133 15.0138 8.3999 15.4004 8.3999H32.2004C32.587 8.3999 32.9004 8.7133 32.9004 9.0999C32.9004 9.4865 32.587 9.7999 32.2004 9.7999H15.4004C15.0138 9.7999 14.7004 9.4865 14.7004 9.0999Z" fill="#2F3A43"/>
    <path fill-rule="evenodd" clip-rule="evenodd" d="M35.7004 9.0999C35.7004 8.7133 36.0138 8.3999 36.4004 8.3999H39.9004C40.287 8.3999 40.6004 8.7133 40.6004 9.0999C40.6004 9.4865 40.287 9.7999 39.9004 9.7999H36.4004C36.0138 9.7999 35.7004 9.4865 35.7004 9.0999Z" fill="#2F3A43"/>
</svg>
