<svg width="56" height="56" viewBox="0 0 56 56" fill="none" xmlns="http://www.w3.org/2000/svg">
    <path fill-rule="evenodd" clip-rule="evenodd" d="M11.9002 5.5998C11.5142 5.5998 11.2002 5.28578 11.2002 4.8998C11.2002 4.51379 11.5142 4.1998 11.9002 4.1998C12.2862 4.1998 12.6002 4.51379 12.6002 4.8998C12.6002 5.28578 12.2862 5.5998 11.9002 5.5998Z" fill="#E0F0FE"/>
    <path fill-rule="evenodd" clip-rule="evenodd" d="M4.9002 44.7998C4.51422 44.7998 4.2002 44.4858 4.2002 44.0998C4.2002 43.7138 4.51422 43.3998 4.9002 43.3998C5.28618 43.3998 5.6002 43.7138 5.6002 44.0998C5.6002 44.4858 5.28618 44.7998 4.9002 44.7998Z" fill="#E0F0FE"/>
    <path fill-rule="evenodd" clip-rule="evenodd" d="M53.9002 40.5998C53.5142 40.5998 53.2002 40.2858 53.2002 39.8998C53.2002 39.5138 53.5142 39.1998 53.9002 39.1998C54.2862 39.1998 54.6002 39.5138 54.6002 39.8998C54.6002 40.2858 54.2862 40.5998 53.9002 40.5998Z" fill="#E0F0FE"/>
    <path fill-rule="evenodd" clip-rule="evenodd" d="M42.7002 4.1998C42.3142 4.1998 42.0002 3.88578 42.0002 3.4998C42.0002 3.11379 42.3142 2.7998 42.7002 2.7998C43.0862 2.7998 43.4002 3.11379 43.4002 3.4998C43.4002 3.88578 43.0862 4.1998 42.7002 4.1998Z" fill="#E0F0FE"/>
    <path fill-rule="evenodd" clip-rule="evenodd" d="M28 18.2002C24.5206 18.2002 21.7 21.0208 21.7 24.5002C21.7 27.9796 24.5206 30.8002 28 30.8002C31.4794 30.8002 34.3 27.9796 34.3 24.5002C34.3 21.0208 31.4794 18.2002 28 18.2002ZM32.8504 25.2002C32.6113 26.8718 31.5285 28.2713 30.0472 28.9534C30.4661 27.966 30.7229 26.6547 30.7852 25.2002H32.8504ZM29.257 26.4622C29.3161 26.0668 29.3594 25.6435 29.3821 25.2002H26.6179C26.6406 25.6435 26.6839 26.0668 26.743 26.4622L26.8009 26.8138C26.8834 27.2719 26.9867 27.6855 27.1017 28.0409L27.1901 28.2963C27.4458 28.9877 27.7446 29.4002 28 29.4002C28.2554 29.4002 28.5542 28.9877 28.8099 28.2963L28.8983 28.0409C29.0133 27.6855 29.1166 27.2719 29.1991 26.8138L29.257 26.4622ZM32.8504 23.8002H30.7852C30.7229 22.3457 30.4661 21.0344 30.0472 20.047C31.5285 20.7291 32.6113 22.1286 32.8504 23.8002ZM23.1496 23.8002C23.3887 22.1286 24.4715 20.7291 25.9528 20.047C25.5339 21.0344 25.2771 22.3457 25.2148 23.8002H23.1496ZM26.743 22.5382C26.6839 22.9336 26.6406 23.3569 26.6179 23.8002H29.3821C29.3594 23.3569 29.3161 22.9336 29.257 22.5382L29.1991 22.1865C29.1166 21.7285 29.0133 21.3148 28.8983 20.9595L28.8099 20.7041C28.5542 20.0127 28.2554 19.6002 28 19.6002C27.7446 19.6002 27.4458 20.0127 27.1901 20.7041L27.1017 20.9595C26.9867 21.3148 26.8834 21.7285 26.8009 22.1865L26.743 22.5382ZM23.1496 25.2002H25.2148C25.2771 26.6547 25.5339 27.966 25.9528 28.9534C24.4715 28.2713 23.3887 26.8718 23.1496 25.2002Z" fill="#0079D0"/>
    <path d="M35 37.1002C35 36.7136 34.6866 36.4002 34.3 36.4002H21.7L21.6184 36.4049C21.2702 36.4453 21 36.7412 21 37.1002C21 37.4868 21.3134 37.8002 21.7 37.8002H34.3L34.3816 37.7955C34.7298 37.755 35 37.4592 35 37.1002Z" fill="#0079D0"/>
    <path fill-rule="evenodd" clip-rule="evenodd" d="M13.9325 9.88107L13.9331 9.88412C12.3691 10.2338 11.2002 11.6303 11.2002 13.2998V46.8998L11.2034 47.0516C11.2829 48.9142 12.8181 50.3998 14.7002 50.3998H41.3002L41.452 50.3966C43.3146 50.3171 44.8002 48.7819 44.8002 46.8998V39.8998L44.7955 39.8182C44.7551 39.47 44.4592 39.1998 44.1002 39.1998C43.7136 39.1998 43.4002 39.5132 43.4002 39.8998V46.8998L43.3966 47.0232C43.3328 48.1256 42.4186 48.9998 41.3002 48.9998H14.7002L14.5768 48.9962C13.4744 48.9324 12.6002 48.0182 12.6002 46.8998V13.2998L12.6038 13.1764C12.6676 12.074 13.5818 11.1998 14.7002 11.1998H41.3002L41.4236 11.2034C42.526 11.2672 43.4002 12.1814 43.4002 13.2998V32.8998L43.4049 32.9814C43.4453 33.3296 43.7412 33.5998 44.1002 33.5998C44.4868 33.5998 44.8002 33.2864 44.8002 32.8998V13.2998L44.797 13.148C44.7175 11.2854 43.1823 9.7998 41.3002 9.7998H38.502L38.5034 9.25162L38.5002 9.0998C38.4207 7.23724 36.9519 5.66748 35.0698 5.66748L34.9325 5.68107L13.9325 9.88107ZM37.1002 9.0998V9.7998H21.4762L35.1285 7.06883L35.1932 7.07105C36.2955 7.13492 37.1002 7.98142 37.1002 9.0998Z" fill="#2F3A43"/>
    <path d="M32.2002 34.2998C32.2002 33.9132 31.8868 33.5998 31.5002 33.5998H24.5002L24.4186 33.6045C24.0704 33.6449 23.8002 33.9408 23.8002 34.2998C23.8002 34.6864 24.1136 34.9998 24.5002 34.9998H31.5002L31.5818 34.9951C31.93 34.9547 32.2002 34.6588 32.2002 34.2998Z" fill="#2F3A43"/>
    <path d="M32.9002 39.1998C33.2868 39.1998 33.6002 39.5132 33.6002 39.8998C33.6002 40.2588 33.33 40.5547 32.9818 40.5951L32.9002 40.5998H23.1002C22.7136 40.5998 22.4002 40.2864 22.4002 39.8998C22.4002 39.5408 22.6704 39.2449 23.0186 39.2045L23.1002 39.1998H32.9002Z" fill="#2F3A43"/>
    <path d="M32.2002 42.6998C32.2002 42.3132 31.8868 41.9998 31.5002 41.9998H24.5002L24.4186 42.0045C24.0704 42.0449 23.8002 42.3408 23.8002 42.6998C23.8002 43.0864 24.1136 43.3998 24.5002 43.3998H31.5002L31.5818 43.3951C31.93 43.3547 32.2002 43.0588 32.2002 42.6998Z" fill="#2F3A43"/>
</svg>
