<svg width="56" height="56" viewBox="0 0 56 56" fill="none" xmlns="http://www.w3.org/2000/svg">
    <path fill-rule="evenodd" clip-rule="evenodd" d="M21 7.0001C20.614 7.0001 20.3 6.68608 20.3 6.3001C20.3 5.91408 20.614 5.6001 21 5.6001C21.386 5.6001 21.7 5.91408 21.7 6.3001C21.7 6.68608 21.386 7.0001 21 7.0001Z" fill="#E0F0FE"/>
    <path fill-rule="evenodd" clip-rule="evenodd" d="M0.7 42.0001C0.31402 42.0001 0 41.6861 0 41.3001C0 40.9141 0.31402 40.6001 0.7 40.6001C1.08598 40.6001 1.4 40.9141 1.4 41.3001C1.4 41.6861 1.08598 42.0001 0.7 42.0001Z" fill="#E0F0FE"/>
    <path fill-rule="evenodd" clip-rule="evenodd" d="M19.6 51.1001C19.214 51.1001 18.9 50.7861 18.9 50.4001C18.9 50.0141 19.214 49.7001 19.6 49.7001C19.986 49.7001 20.3 50.0141 20.3 50.4001C20.3 50.7861 19.986 51.1001 19.6 51.1001Z" fill="#E0F0FE"/>
    <path fill-rule="evenodd" clip-rule="evenodd" d="M45.5 50.4001C45.114 50.4001 44.8 50.0861 44.8 49.7001C44.8 49.3141 45.114 49.0001 45.5 49.0001C45.886 49.0001 46.2 49.3141 46.2 49.7001C46.2 50.0861 45.886 50.4001 45.5 50.4001Z" fill="#E0F0FE"/>
    <path fill-rule="evenodd" clip-rule="evenodd" d="M53.9 27.3001C53.514 27.3001 53.2 26.9861 53.2 26.6001C53.2 26.2141 53.514 25.9001 53.9 25.9001C54.286 25.9001 54.6 26.2141 54.6 26.6001C54.6 26.9861 54.286 27.3001 53.9 27.3001Z" fill="#E0F0FE"/>
    <path fill-rule="evenodd" clip-rule="evenodd" d="M18.2004 36.4001H10.5354C10.1784 36.4001 9.80039 36.0081 9.80039 35.6371V21.7001C9.80039 21.3851 10.1854 21.0001 10.5004 21.0001H23.1004C23.4154 21.0001 23.8004 21.3851 23.8004 21.7001V30.1001C23.8004 30.4851 24.1154 30.8001 24.5004 30.8001C24.8854 30.8001 25.2004 30.4851 25.2004 30.1001V21.7001C25.2004 20.6221 24.1784 19.6001 23.1004 19.6001H10.5004C9.42239 19.6001 8.40039 20.6221 8.40039 21.7001V35.6371C8.40039 36.7711 9.41539 37.8001 10.5354 37.8001H18.2004C18.5854 37.8001 18.9004 37.4851 18.9004 37.1001C18.9004 36.7151 18.5854 36.4001 18.2004 36.4001ZM22.4004 34.1391C22.3304 32.2351 21.0284 30.6181 19.1874 29.8621C19.8734 29.2251 20.3074 28.3081 20.3074 27.3001C20.3074 25.3681 18.7394 23.8001 16.8074 23.8001C14.8754 23.8001 13.3074 25.3681 13.3074 27.3001C13.3074 28.3151 13.7344 29.2251 14.4274 29.8621C12.5304 30.6391 11.2074 32.3191 11.2074 34.3001H12.6074V34.1671C12.6984 32.3191 14.5184 30.8001 16.8074 30.8001C19.0964 30.8001 21.0074 32.3961 21.0074 34.3001H22.4074V34.1391H22.4004ZM16.8004 29.4001C15.6384 29.4001 14.7004 28.4621 14.7004 27.3001C14.7004 26.1381 15.6384 25.2001 16.8004 25.2001C17.9624 25.2001 18.9004 26.1381 18.9004 27.3001C18.9004 28.4621 17.9624 29.4001 16.8004 29.4001ZM43.4144 44.1001C43.4144 44.4851 43.0994 44.8001 42.7144 44.8001C42.3294 44.8001 42.0144 44.4851 42.0144 44.1001C42.0144 43.7151 42.3294 43.4001 42.7144 43.4001C43.0994 43.4001 43.4144 43.7151 43.4144 44.1001ZM42.7144 40.6001C40.7824 40.6001 39.2144 42.1681 39.2144 44.1001C39.2144 46.0321 40.7824 47.6001 42.7144 47.6001C44.6464 47.6001 46.2144 46.0321 46.2144 44.1001C46.2144 42.1681 44.6464 40.6001 42.7144 40.6001ZM42.7144 46.2001C41.5524 46.2001 40.6144 45.2621 40.6144 44.1001C40.6144 42.9381 41.5524 42.0001 42.7144 42.0001C43.8764 42.0001 44.8144 42.9381 44.8144 44.1001C44.8144 45.2621 43.8764 46.2001 42.7144 46.2001ZM46.5364 36.4001H48.3354C50.4704 36.3931 51.8354 37.7581 51.8354 40.5931C51.8354 43.4281 50.4704 44.7931 48.3354 44.7931C47.9504 44.7931 47.6354 44.4781 47.6354 44.0931C47.6354 43.7081 47.9504 43.3931 48.3354 43.3931C49.7004 43.3931 50.4354 42.5951 50.4354 40.5931C50.4354 38.5911 49.7424 37.8421 48.4544 37.7931H30.1354C29.7504 37.7931 29.4354 37.4781 29.4354 37.0931C29.4354 36.7361 29.7014 36.4351 30.0514 36.3931H35.0354V34.2931C35.0354 33.9081 35.3504 33.5931 35.7354 33.5931C36.0924 33.5931 36.3934 33.8591 36.4354 34.2091V36.3931H44.7234L42.9664 34.3281L42.0984 33.3271L41.7694 32.9561L41.5174 32.6761C41.3634 32.5221 41.1184 32.3961 40.7894 32.3121C40.4814 32.2351 40.1944 32.2071 39.8304 32.2001H30.1214C28.7214 32.2001 27.7904 33.0471 27.1884 34.5591C26.9644 35.1191 26.8104 35.7281 26.7124 36.3371C26.7124 36.3721 26.6984 36.4141 26.6984 36.4491C26.6844 36.5541 26.6704 36.6521 26.6564 36.7431L26.6214 36.9951V37.1281C26.6004 37.5061 26.2924 37.8001 25.9214 37.8001C23.3454 37.8001 22.2814 38.8711 22.4214 41.2581C22.4424 41.6431 22.1484 41.9791 21.7634 42.0001C21.3784 42.0211 21.0424 41.7271 21.0214 41.3421C20.8464 38.3881 22.2954 36.6871 25.1444 36.4351L25.2844 36.4211L25.3054 36.2671L25.3264 36.1131C25.4384 35.4061 25.6204 34.7061 25.8864 34.0411C26.6494 32.1161 27.9724 30.8771 29.9254 30.8001H39.6344C40.2014 30.8001 40.6214 30.8281 41.1184 30.9541C41.6854 31.0941 42.1684 31.3391 42.5254 31.7171L42.6584 31.8641L43.0434 32.2981L43.9184 33.3131L45.8154 35.5461L46.5364 36.4001ZM27.3144 44.8001C27.6994 44.8001 28.0144 44.4851 28.0144 44.1001C28.0144 43.7151 27.6994 43.4001 27.3144 43.4001C26.9294 43.4001 26.6144 43.7151 26.6144 44.1001C26.6144 44.4851 26.9294 44.8001 27.3144 44.8001ZM30.7444 43.4001H37.1144C37.4994 43.4001 37.8144 43.7151 37.8144 44.1001C37.8144 44.4571 37.5484 44.7581 37.1984 44.8001H30.7444C30.4224 46.3961 29.0084 47.6001 27.3144 47.6001C25.3824 47.6001 23.8144 46.0321 23.8144 44.1001C23.8144 42.1681 25.3824 40.6001 27.3144 40.6001C29.0084 40.6001 30.4224 41.8041 30.7444 43.4001ZM25.2144 44.1001C25.2144 45.2621 26.1524 46.2001 27.3144 46.2001C28.4764 46.2001 29.4144 45.2621 29.4144 44.1001C29.4144 42.9381 28.4764 42.0001 27.3144 42.0001C26.1524 42.0001 25.2144 42.9381 25.2144 44.1001Z" fill="#0079D0"/>
    <path fill-rule="evenodd" clip-rule="evenodd" d="M15.4002 41.9999C15.7852 41.9999 16.1002 41.6849 16.1002 41.2999C16.1002 40.9149 15.7852 40.5999 15.4002 40.5999H7.7002C7.1052 40.5999 6.5802 40.4529 6.2232 40.1519C5.8872 39.8719 5.6002 39.3819 5.6002 38.4999V11.5499C5.6002 10.8849 6.3352 9.7999 7.7002 9.7999H32.2002C32.5852 9.7999 32.9002 9.4849 32.9002 9.0999C32.9002 8.7149 32.5852 8.3999 32.2002 8.3999H7.7002C5.5652 8.3999 4.2002 10.1149 4.2002 11.5499V38.4999C4.2002 39.7179 4.6132 40.6279 5.3272 41.2229C6.0202 41.7969 6.8952 41.9999 7.7002 41.9999H15.4002ZM38.5002 9.0999C38.5002 8.7149 38.8152 8.3999 39.2002 8.3999H45.5002C46.3052 8.3999 47.1802 8.6029 47.8732 9.1769C48.5872 9.7719 49.0002 10.6819 49.0002 11.8999V32.8999C49.0002 33.2849 48.6852 33.5999 48.3002 33.5999C47.9152 33.5999 47.6002 33.2849 47.6002 32.8999V11.8999C47.6002 11.0179 47.3132 10.5279 46.9772 10.2479C46.6202 9.9469 46.0952 9.7999 45.5002 9.7999H39.2002C38.8152 9.7999 38.5002 9.4849 38.5002 9.0999ZM13.3002 13.9999H9.8002V15.3999H13.3002V13.9999ZM8.4002 12.5999V16.7999H14.7002V12.5999H13.3002M18.2002 13.9999C17.8152 13.9999 17.5002 14.3149 17.5002 14.6999C17.5002 15.0849 17.8152 15.3999 18.2002 15.3999H25.9002C26.2852 15.3999 26.6002 15.0849 26.6002 14.6999C26.6002 14.3149 26.2852 13.9999 25.9002 13.9999H18.2002ZM28.7002 13.9999C28.3152 13.9999 28.0002 14.3149 28.0002 14.6999C28.0002 15.0849 28.3152 15.3999 28.7002 15.3999H44.1002C44.4852 15.3999 44.8002 15.0849 44.8002 14.6999C44.8002 14.3149 44.4852 13.9999 44.1002 13.9999H28.7002ZM28.0002 20.2999C28.0002 19.9149 28.3152 19.5999 28.7002 19.5999H39.9002C40.2852 19.5999 40.6002 19.9149 40.6002 20.2999C40.6002 20.6849 40.2852 20.9999 39.9002 20.9999H28.7002C28.3152 20.9999 28.0002 20.6849 28.0002 20.2999ZM28.0002 23.0999C28.0002 22.7149 28.3152 22.3999 28.7002 22.3999H34.3002C34.6852 22.3999 35.0002 22.7149 35.0002 23.0999C35.0002 23.4849 34.6852 23.7999 34.3002 23.7999H28.7002C28.3152 23.7999 28.0002 23.4849 28.0002 23.0999ZM28.7002 25.1999C28.3152 25.1999 28.0002 25.5149 28.0002 25.8999C28.0002 26.2849 28.3152 26.5999 28.7002 26.5999H32.2002C32.5852 26.5999 32.9002 26.2849 32.9002 25.8999C32.9002 25.5149 32.5852 25.1999 32.2002 25.1999H28.7002ZM34.3002 25.8999C34.3002 25.5149 34.6152 25.1999 35.0002 25.1999H38.5002C38.8852 25.1999 39.2002 25.5149 39.2002 25.8999C39.2002 26.2849 38.8852 26.5999 38.5002 26.5999H35.0002C34.6152 26.5999 34.3002 26.2849 34.3002 25.8999Z" fill="#2F3A43"/>
</svg>
