<svg width="56" height="56" viewBox="0 0 56 56" fill="none" xmlns="http://www.w3.org/2000/svg">
    <path fill-rule="evenodd" clip-rule="evenodd" d="M52.5004 43.3999C52.1144 43.3999 51.8004 43.0859 51.8004 42.6999C51.8004 42.3139 52.1144 41.9999 52.5004 41.9999C52.8864 41.9999 53.2004 42.3139 53.2004 42.6999C53.2004 43.0859 52.8864 43.3999 52.5004 43.3999Z" fill="#E0F0FE"/>
    <path fill-rule="evenodd" clip-rule="evenodd" d="M38.5004 2.7999C38.1144 2.7999 37.8004 2.48588 37.8004 2.0999C37.8004 1.71389 38.1144 1.3999 38.5004 1.3999C38.8864 1.3999 39.2004 1.71389 39.2004 2.0999C39.2004 2.48588 38.8864 2.7999 38.5004 2.7999Z" fill="#E0F0FE"/>
    <path fill-rule="evenodd" clip-rule="evenodd" d="M2.10039 37.7999C1.71441 37.7999 1.40039 37.4859 1.40039 37.0999C1.40039 36.7139 1.71441 36.3999 2.10039 36.3999C2.48637 36.3999 2.80039 36.7139 2.80039 37.0999C2.80039 37.4859 2.48637 37.7999 2.10039 37.7999Z" fill="#E0F0FE"/>
    <path d="M28.6998 12.6001C29.0864 12.6001 29.3998 12.9135 29.3998 13.3001C29.3998 13.6591 29.1296 13.955 28.7814 13.9954L28.6998 14.0001H17.4998C17.1132 14.0001 16.7998 13.6867 16.7998 13.3001C16.7998 12.9411 17.07 12.6452 17.4182 12.6048L17.4998 12.6001H28.6998Z" fill="#0079D0"/>
    <path d="M35.6998 16.8001C36.0864 16.8001 36.3998 17.1135 36.3998 17.5001C36.3998 17.8591 36.1296 18.155 35.7814 18.1954L35.6998 18.2001H17.4998C17.1132 18.2001 16.7998 17.8867 16.7998 17.5001C16.7998 17.1411 17.07 16.8452 17.4182 16.8048L17.4998 16.8001H35.6998Z" fill="#0079D0"/>
    <path d="M32.1998 21.7001C32.1998 21.3135 31.8864 21.0001 31.4998 21.0001H17.4998L17.4182 21.0048C17.07 21.0452 16.7998 21.3411 16.7998 21.7001C16.7998 22.0867 17.1132 22.4001 17.4998 22.4001H31.4998L31.5814 22.3954C31.9296 22.355 32.1998 22.0591 32.1998 21.7001Z" fill="#0079D0"/>
    <path d="M35.6996 25.1999C36.0862 25.1999 36.3996 25.5133 36.3996 25.8999C36.3996 26.2589 36.1294 26.5548 35.7812 26.5952L35.6996 26.5999H17.4996C17.113 26.5999 16.7996 26.2865 16.7996 25.8999C16.7996 25.5409 17.0698 25.245 17.418 25.2046L17.4996 25.1999H35.6996Z" fill="#2F3A43"/>
    <path d="M36.3996 34.2999C36.3996 33.9133 36.0862 33.5999 35.6996 33.5999H17.4996L17.418 33.6046C17.0698 33.645 16.7996 33.9409 16.7996 34.2999C16.7996 34.6865 17.113 34.9999 17.4996 34.9999H35.6996L35.7812 34.9952C36.1294 34.9548 36.3996 34.6589 36.3996 34.2999Z" fill="#2F3A43"/>
    <path d="M32.1996 30.0999C32.1996 29.7133 31.8862 29.3999 31.4996 29.3999H17.4996L17.418 29.4046C17.0698 29.445 16.7996 29.7409 16.7996 30.0999C16.7996 30.4865 17.113 30.7999 17.4996 30.7999H31.4996L31.5812 30.7952C31.9294 30.7548 32.1996 30.4589 32.1996 30.0999Z" fill="#2F3A43"/>
    <path d="M31.4996 41.9999C31.8862 41.9999 32.1996 42.3133 32.1996 42.6999C32.1996 43.0589 31.9294 43.3548 31.5812 43.3952L31.4996 43.3999H17.4996C17.113 43.3999 16.7996 43.0865 16.7996 42.6999C16.7996 42.3409 17.0698 42.045 17.418 42.0046L17.4996 41.9999H31.4996Z" fill="#2F3A43"/>
    <path d="M27.9996 38.4999C27.9996 38.1133 27.6862 37.7999 27.2996 37.7999H17.4996L17.418 37.8046C17.0698 37.845 16.7996 38.1409 16.7996 38.4999C16.7996 38.8865 17.113 39.1999 17.4996 39.1999H27.2996L27.3812 39.1952C27.7294 39.1548 27.9996 38.8589 27.9996 38.4999Z" fill="#2F3A43"/>
    <path fill-rule="evenodd" clip-rule="evenodd" d="M13.2996 8.3999H39.8996C40.2862 8.3999 40.5996 8.7133 40.5996 9.0999V46.8999C40.5996 47.2865 40.2862 47.5999 39.8996 47.5999H13.2996C12.913 47.5999 12.5996 47.2865 12.5996 46.8999V9.0999C12.5996 8.7133 12.913 8.3999 13.2996 8.3999ZM39.1996 46.1999V9.7999H13.9996V46.1999H39.1996Z" fill="#2F3A43"/>
    <path d="M42.6996 13.9999C43.0586 13.9999 43.3545 14.2701 43.3949 14.6183L43.3996 14.6999V49.6999C43.3996 50.0589 43.1294 50.3548 42.7812 50.3952L42.6996 50.3999H18.8996C18.513 50.3999 18.1996 50.0865 18.1996 49.6999C18.1996 49.3409 18.4698 49.045 18.818 49.0046L18.8996 48.9999H41.9996V14.6999C41.9996 14.3409 42.2698 14.045 42.618 14.0046L42.6996 13.9999Z" fill="#2F3A43"/>
</svg>
