<svg width="56" height="56" viewBox="0 0 56 56" fill="none" xmlns="http://www.w3.org/2000/svg">
    <path fill-rule="evenodd" clip-rule="evenodd" d="M11.9004 6.2999C11.5144 6.2999 11.2004 5.98588 11.2004 5.5999C11.2004 5.21389 11.5144 4.8999 11.9004 4.8999C12.2864 4.8999 12.6004 5.21389 12.6004 5.5999C12.6004 5.98588 12.2864 6.2999 11.9004 6.2999Z" fill="#E0F0FE"/>
    <path fill-rule="evenodd" clip-rule="evenodd" d="M2.10039 42.6999C1.71441 42.6999 1.40039 42.3859 1.40039 41.9999C1.40039 41.6139 1.71441 41.2999 2.10039 41.2999C2.48637 41.2999 2.80039 41.6139 2.80039 41.9999C2.80039 42.3859 2.48637 42.6999 2.10039 42.6999Z" fill="#E0F0FE"/>
    <path fill-rule="evenodd" clip-rule="evenodd" d="M46.9004 51.0999C46.5144 51.0999 46.2004 50.7859 46.2004 50.3999C46.2004 50.0139 46.5144 49.6999 46.9004 49.6999C47.2864 49.6999 47.6004 50.0139 47.6004 50.3999C47.6004 50.7859 47.2864 51.0999 46.9004 51.0999Z" fill="#E0F0FE"/>
    <path fill-rule="evenodd" clip-rule="evenodd" d="M53.9004 9.0999C53.5144 9.0999 53.2004 8.78588 53.2004 8.3999C53.2004 8.01389 53.5144 7.6999 53.9004 7.6999C54.2864 7.6999 54.6004 8.01389 54.6004 8.3999C54.6004 8.78588 54.2864 9.0999 53.9004 9.0999Z" fill="#E0F0FE"/>
    <path fill-rule="evenodd" clip-rule="evenodd" d="M22.4004 48.9999C22.0144 48.9999 21.7004 48.6859 21.7004 48.2999C21.7004 47.9139 22.0144 47.5999 22.4004 47.5999C22.7864 47.5999 23.1004 47.9139 23.1004 48.2999C23.1004 48.6859 22.7864 48.9999 22.4004 48.9999Z" fill="#E0F0FE"/>
    <path fill-rule="evenodd" clip-rule="evenodd" d="M20.5823 32.6638C22.4253 33.4216 23.7276 35.0332 23.7969 36.9398L23.7998 37.0999H22.3998C22.3998 35.1929 20.5413 33.5999 18.1998 33.5999C15.9141 33.5999 14.0886 35.118 14.0029 36.9642L13.9998 37.0999H12.5998C12.5998 35.1237 13.923 33.4427 15.8173 32.6638C15.1299 32.0247 14.6998 31.1125 14.6998 30.0999C14.6998 28.1669 16.2668 26.5999 18.1998 26.5999C20.1328 26.5999 21.6998 28.1669 21.6998 30.0999C21.6998 31.1125 21.2698 32.0247 20.5823 32.6638ZM18.1998 32.1999C19.3596 32.1999 20.2998 31.2597 20.2998 30.0999C20.2998 28.9401 19.3596 27.9999 18.1998 27.9999C17.04 27.9999 16.0998 28.9401 16.0998 30.0999C16.0998 31.2597 17.04 32.1999 18.1998 32.1999Z" fill="#0079D0"/>
    <path fill-rule="evenodd" clip-rule="evenodd" d="M11.8998 22.3999H24.4998C25.6596 22.3999 26.5998 23.3401 26.5998 24.4999V38.4999C26.5998 39.6597 25.6596 40.5999 24.4998 40.5999H11.8998C10.74 40.5999 9.7998 39.6597 9.7998 38.4999V24.4999C9.7998 23.3401 10.74 22.3999 11.8998 22.3999ZM24.4998 23.7999H11.8998C11.5132 23.7999 11.1998 24.1133 11.1998 24.4999V38.4999C11.1998 38.8865 11.5132 39.1999 11.8998 39.1999H24.4998C24.8864 39.1999 25.1998 38.8865 25.1998 38.4999V24.4999C25.1998 24.1133 24.8864 23.7999 24.4998 23.7999Z" fill="#0079D0"/>
    <path fill-rule="evenodd" clip-rule="evenodd" d="M9.09961 44.8002H11.1996C11.5846 44.8002 11.8996 44.4852 11.8996 44.1002C11.8996 43.7152 11.5846 43.4002 11.1996 43.4002H9.09961C8.14061 43.4002 6.99961 43.0362 6.99961 41.3002V14.3502C6.99961 13.7202 7.69961 12.6002 9.09961 12.6002H33.5996C33.9846 12.6002 34.2996 12.2852 34.2996 11.9002C34.2996 11.5152 33.9846 11.2002 33.5996 11.2002H9.09961C7.03461 11.2002 5.59961 12.8592 5.59961 14.3502V41.3002C5.59961 43.8832 7.40561 44.8002 9.09961 44.8002ZM46.8996 44.8002H25.1996C24.8146 44.8002 24.4996 44.4852 24.4996 44.1002C24.4996 43.7152 24.8146 43.4002 25.1996 43.4002H46.8996C48.2996 43.4002 48.9996 42.2802 48.9996 41.6502V14.7002C48.9996 12.9642 47.8586 12.6002 46.8996 12.6002H40.5996C40.2146 12.6002 39.8996 12.2852 39.8996 11.9002C39.8996 11.5152 40.2146 11.2002 40.5996 11.2002H46.8996C48.5936 11.2002 50.3996 12.1172 50.3996 14.7002V41.6502C50.3996 43.1412 48.9646 44.8002 46.8996 44.8002ZM11.1996 16.8002H14.6996V18.2002H11.1996V16.8002ZM9.79961 15.4002H16.0996V19.6002H9.79961V15.4002ZM30.7996 17.5002C30.7996 17.1152 31.1146 16.8002 31.4996 16.8002H36.3996C36.7846 16.8002 37.0996 17.1152 37.0996 17.5002C37.0996 17.8852 36.7846 18.2002 36.3996 18.2002H31.4996C31.1146 18.2002 30.7996 17.8852 30.7996 17.5002ZM18.8996 17.5002C18.8996 17.1152 19.2146 16.8002 19.5996 16.8002H28.6996C29.0846 16.8002 29.3996 17.1152 29.3996 17.5002C29.3996 17.8852 29.0846 18.2002 28.6996 18.2002H19.5996C19.2146 18.2002 18.8996 17.8852 18.8996 17.5002ZM44.7996 16.8002H41.2996V18.2002H44.7996V16.8002ZM46.1996 15.4002H39.8996V19.6002H46.1996V15.4002ZM30.0996 22.4002C29.7146 22.4002 29.3996 22.7152 29.3996 23.1002C29.3996 23.4852 29.7146 23.8002 30.0996 23.8002H35.6996C36.0846 23.8002 36.3996 23.4852 36.3996 23.1002C36.3996 22.7152 36.0846 22.4002 35.6996 22.4002H30.0996ZM30.0996 25.2002C29.7146 25.2002 29.3996 25.5152 29.3996 25.9002C29.3996 26.2852 29.7146 26.6002 30.0996 26.6002H41.2996C41.6846 26.6002 41.9996 26.2852 41.9996 25.9002C41.9996 25.5152 41.6846 25.2002 41.2996 25.2002H30.0996ZM29.3996 28.7002C29.3996 28.3152 29.7146 28.0002 30.0996 28.0002H30.7996C31.1846 28.0002 31.4996 28.3152 31.4996 28.7002C31.4996 29.0852 31.1846 29.4002 30.7996 29.4002H30.0996C29.7146 29.4002 29.3996 29.0852 29.3996 28.7002ZM30.0996 30.8002C29.7146 30.8002 29.3996 31.1152 29.3996 31.5002C29.3996 31.8852 29.7146 32.2002 30.0996 32.2002H34.2996C34.6846 32.2002 34.9996 31.8852 34.9996 31.5002C34.9996 31.1152 34.6846 30.8002 34.2996 30.8002H30.0996ZM29.3996 34.3002C29.3996 33.9152 29.7146 33.6002 30.0996 33.6002H38.4996C38.8846 33.6002 39.1996 33.9152 39.1996 34.3002C39.1996 34.6852 38.8846 35.0002 38.4996 35.0002H30.0996C29.7146 35.0002 29.3996 34.6852 29.3996 34.3002ZM30.0996 39.2002C29.7146 39.2002 29.3996 39.5152 29.3996 39.9002C29.3996 40.2852 29.7146 40.6002 30.0996 40.6002H38.4996C38.8846 40.6002 39.1996 40.2852 39.1996 39.9002C39.1996 39.5152 38.8846 39.2002 38.4996 39.2002H30.0996ZM40.5996 39.9002C40.5996 39.5152 40.9146 39.2002 41.2996 39.2002H45.4996C45.8846 39.2002 46.1996 39.5152 46.1996 39.9002C46.1996 40.2852 45.8846 40.6002 45.4996 40.6002H41.2996C40.9146 40.6002 40.5996 40.2852 40.5996 39.9002ZM33.5996 28.0002C33.2146 28.0002 32.8996 28.3152 32.8996 28.7002C32.8996 29.0852 33.2146 29.4002 33.5996 29.4002H37.7996C38.1846 29.4002 38.4996 29.0852 38.4996 28.7002C38.4996 28.3152 38.1846 28.0002 37.7996 28.0002H33.5996ZM39.8996 28.7002C39.8996 28.3152 40.2146 28.0002 40.5996 28.0002H45.4996C45.8846 28.0002 46.1996 28.3152 46.1996 28.7002C46.1996 29.0852 45.8846 29.4002 45.4996 29.4002H40.5996C40.2146 29.4002 39.8996 29.0852 39.8996 28.7002Z" fill="#2F3A43"/>
</svg>
