<svg width="56" height="56" viewBox="0 0 56 56" fill="none" xmlns="http://www.w3.org/2000/svg">
    <path fill-rule="evenodd" clip-rule="evenodd" d="M10.4998 9.8C10.1138 9.8 9.79981 9.48598 9.79981 9.1C9.79981 8.71399 10.1138 8.4 10.4998 8.4C10.8858 8.4 11.1998 8.71399 11.1998 9.1C11.1998 9.48598 10.8858 9.8 10.4998 9.8Z" fill="#E0F0FE"/>
    <path fill-rule="evenodd" clip-rule="evenodd" d="M3.4998 49C3.11382 49 2.7998 48.686 2.7998 48.3C2.7998 47.914 3.11382 47.6 3.4998 47.6C3.88578 47.6 4.1998 47.914 4.1998 48.3C4.1998 48.686 3.88578 49 3.4998 49Z" fill="#E0F0FE"/>
    <path fill-rule="evenodd" clip-rule="evenodd" d="M52.4998 44.8C52.1138 44.8 51.7998 44.486 51.7998 44.1C51.7998 43.714 52.1138 43.4 52.4998 43.4C52.8858 43.4 53.1998 43.714 53.1998 44.1C53.1998 44.486 52.8858 44.8 52.4998 44.8Z" fill="#E0F0FE"/>
    <path fill-rule="evenodd" clip-rule="evenodd" d="M41.2998 8.4C40.9138 8.4 40.5998 8.08598 40.5998 7.7C40.5998 7.31399 40.9138 7 41.2998 7C41.6858 7 41.9998 7.31399 41.9998 7.7C41.9998 8.08598 41.6858 8.4 41.2998 8.4Z" fill="#E0F0FE"/>
    <path d="M29.5035 7C41.1015 7 50.5035 16.402 50.5035 28C50.5035 28.3866 50.1901 28.7 49.8035 28.7C49.4169 28.7 49.1035 28.3866 49.1035 28C49.1035 17.1752 40.3283 8.4 29.5035 8.4C18.6787 8.4 9.9035 17.1752 9.9035 28C9.9035 38.8248 18.6787 47.6 29.5035 47.6C37.3118 47.6 44.2785 42.9922 47.4084 35.9858C47.5661 35.6328 47.98 35.4745 48.333 35.6322C48.686 35.7899 48.8443 36.2039 48.6866 36.5568C45.3335 44.0631 37.8691 49 29.5035 49C17.9055 49 8.5035 39.598 8.5035 28C8.5035 16.402 17.9055 7 29.5035 7Z" fill="#0079D0"/>
    <path d="M49.8035 34.0148C49.8035 34.43 49.4669 34.7667 49.0516 34.7667C48.6364 34.7667 48.2998 34.43 48.2998 34.0148C48.2998 33.5996 48.6364 33.263 49.0516 33.263C49.4669 33.263 49.8035 33.5996 49.8035 34.0148Z" fill="#0079D0"/>
    <path d="M10.145 14.7225C9.83741 14.4883 9.39821 14.5478 9.16403 14.8554C6.79829 17.963 5.49609 21.7558 5.49609 25.7444C5.49609 26.131 5.80949 26.4444 6.19609 26.4444C6.58269 26.4444 6.89609 26.131 6.89609 25.7444C6.89609 22.0649 8.09622 18.5693 10.278 15.7034C10.5121 15.3958 10.4526 14.9566 10.145 14.7225Z" fill="#0079D0"/>
    <path fill-rule="evenodd" clip-rule="evenodd" d="M39.1976 24.4418C38.7007 18.4794 35.3645 15.3999 29.4 15.3999C23.4355 15.3999 20.0993 18.4794 19.6024 24.4418C19.5648 24.893 19.959 25.2606 20.4064 25.1918L21.7 24.9928V25.2986C21.1989 25.3952 20.8296 25.5288 20.5707 25.7218C19.9142 26.2113 19.5999 26.9942 19.5999 27.9999C19.5999 29.7865 20.6133 30.7999 22.3999 30.7999C22.4761 30.7999 22.5495 30.7877 22.6182 30.7652C23.3629 32.2092 24.5173 33.3891 25.92 34.1332C25.9069 34.1867 25.9 34.2425 25.9 34.2999C25.9 35.209 25.4668 36.0169 24.7955 36.5284C24.7847 36.536 24.7741 36.544 24.7638 36.5522C24.2986 36.8964 23.7231 37.0999 23.1 37.0999H21.7L21.5425 37.1028C19.2959 37.1856 17.5 39.033 17.5 41.2999C17.5 41.6865 17.8134 41.9999 18.2 41.9999C18.5866 41.9999 18.9 41.6865 18.9 41.2999C18.9 39.7535 20.1536 38.4999 21.7 38.4999H23.1L23.2575 38.497C23.8429 38.4754 24.3978 38.334 24.8983 38.0965C25.6488 39.2777 27.0329 39.6382 28.8698 39.179C29.2448 39.0852 29.4729 38.7052 29.3791 38.3301C29.2853 37.9551 28.9053 37.727 28.5302 37.8208C27.2214 38.148 26.457 37.9709 26.0492 37.2903C26.7342 36.6147 27.1882 35.7055 27.282 34.6918C27.9546 34.8924 28.6651 34.9999 29.4 34.9999C30.1349 34.9999 30.8454 34.8924 31.518 34.6918C31.7109 36.7762 33.4269 38.419 35.5425 38.497L35.7 38.4999H37.1C38.6464 38.4999 39.9 39.7535 39.9 41.2999C39.9 41.6865 40.2134 41.9999 40.6 41.9999C40.9866 41.9999 41.3 41.6865 41.3 41.2999C41.3 39.033 39.5041 37.1856 37.2575 37.1028L37.1 37.0999H35.7C34.1536 37.0999 32.9 35.8463 32.9 34.2999C32.9 34.2425 32.8931 34.1867 32.88 34.1332C34.2827 33.3891 35.4371 32.2092 36.1818 30.7652C36.2505 30.7877 36.3238 30.7999 36.4 30.7999C38.1866 30.7999 39.2 29.7865 39.2 27.9999C39.2 26.9942 38.8858 26.2113 38.2292 25.7218C37.8753 25.458 37.3151 25.3051 36.4941 25.2062C36.4642 25.2022 36.4336 25.2 36.4026 25.1999L36.4015 25.1998C36.3339 25.1996 36.2681 25.2092 36.2056 25.2273C36.1047 25.2564 36.0132 25.3075 35.9367 25.3752C35.8012 25.4949 35.7125 25.6662 35.7012 25.8583C35.7002 25.8758 35.6998 25.8933 35.7 25.9107V26.9499L35.6974 27.1429C35.6006 30.7333 32.8106 33.5999 29.4 33.5999C25.9285 33.5999 23.1 30.63 23.1 26.9499V24.7774L29.5064 23.7918L29.589 23.7739C29.7778 23.721 29.9373 23.5906 30.0261 23.413L30.7261 22.013L30.7584 21.9378C30.8779 21.6084 30.7341 21.2343 30.413 21.0738L30.3379 21.0415C30.0085 20.922 29.6344 21.0658 29.4739 21.3869L28.9352 22.4629L21.098 23.6683L21.1108 23.5782C21.7968 19.0056 24.5023 16.7999 29.4 16.7999L29.6514 16.8019C34.3072 16.8754 36.9223 19.0077 37.652 23.3438L37.688 23.5752L33.0698 22.4208L32.9894 22.4056C32.6419 22.3604 32.308 22.5819 32.2209 22.9301C32.1271 23.3052 32.3552 23.6852 32.7302 23.779L38.3302 25.179L38.412 25.1945C38.8459 25.2508 39.2351 24.8917 39.1976 24.4418ZM21.7 26.733C21.5515 26.772 21.4524 26.8107 21.4075 26.8442C21.1451 27.0398 20.9999 27.4016 20.9999 27.9999C20.9999 28.8902 21.2983 29.2967 22.0579 29.3824C21.8444 28.6774 21.7212 27.9308 21.7025 27.1573L21.7 26.9499V26.733ZM37.8 27.9999C37.8 28.8902 37.5016 29.2967 36.7421 29.3823C36.9746 28.6146 37.1 27.7973 37.1 26.9499V26.733C37.2484 26.772 37.3475 26.8107 37.3924 26.8442C37.6548 27.0398 37.8 27.4016 37.8 27.9999Z" fill="#2F3A43"/>
</svg>
