<svg width="56" height="56" viewBox="0 0 56 56" fill="none" xmlns="http://www.w3.org/2000/svg">
    <path fill-rule="evenodd" clip-rule="evenodd" d="M9.10039 8.39981C8.71441 8.39981 8.40039 8.08579 8.40039 7.69981C8.40039 7.31379 8.71441 6.9998 9.10039 6.9998C9.48637 6.9998 9.80039 7.31379 9.80039 7.69981C9.80039 8.08579 9.48637 8.39981 9.10039 8.39981Z" fill="#E0F0FE"/>
    <path fill-rule="evenodd" clip-rule="evenodd" d="M14.7004 53.1998C14.3144 53.1998 14.0004 52.8858 14.0004 52.4998C14.0004 52.1138 14.3144 51.7998 14.7004 51.7998C15.0864 51.7998 15.4004 52.1138 15.4004 52.4998C15.4004 52.8858 15.0864 53.1998 14.7004 53.1998Z" fill="#E0F0FE"/>
    <path fill-rule="evenodd" clip-rule="evenodd" d="M53.9004 39.1998C53.5144 39.1998 53.2004 38.8858 53.2004 38.4998C53.2004 38.1138 53.5144 37.7998 53.9004 37.7998C54.2864 37.7998 54.6004 38.1138 54.6004 38.4998C54.6004 38.8858 54.2864 39.1998 53.9004 39.1998Z" fill="#E0F0FE"/>
    <path fill-rule="evenodd" clip-rule="evenodd" d="M41.3004 4.1998C40.9144 4.1998 40.6004 3.88578 40.6004 3.4998C40.6004 3.11379 40.9144 2.7998 41.3004 2.7998C41.6864 2.7998 42.0004 3.11379 42.0004 3.4998C42.0004 3.88578 41.6864 4.1998 41.3004 4.1998Z" fill="#E0F0FE"/>
    <path fill-rule="evenodd" clip-rule="evenodd" d="M22.4002 35H33.6002C33.9868 35 34.3002 35.3134 34.3002 35.7V38.5C34.3002 38.8866 33.9868 39.2 33.6002 39.2H22.4002C22.0136 39.2 21.7002 38.8866 21.7002 38.5V35.7C21.7002 35.3134 22.0136 35 22.4002 35ZM32.9002 37.8V36.4H23.1002V37.8H32.9002Z" fill="#0079D0"/>
    <path d="M32.2002 37.8C32.5592 37.8 32.855 38.0702 32.8955 38.4184L32.9002 38.5V46.9C32.9002 47.2866 32.5868 47.6 32.2002 47.6C31.8412 47.6 31.5453 47.3298 31.5049 46.9816L31.5002 46.9V39.2H24.5002V46.9C24.5002 47.259 24.23 47.5549 23.8818 47.5953L23.8002 47.6C23.4412 47.6 23.1453 47.3298 23.1049 46.9816L23.1002 46.9V38.5C23.1002 38.141 23.3704 37.8451 23.7186 37.8047L23.8002 37.8H32.2002Z" fill="#0079D0"/>
    <path d="M28.0002 43.4C28.3592 43.4 28.655 43.6702 28.6955 44.0184L28.7002 44.1V46.9C28.7002 47.2866 28.3868 47.6 28.0002 47.6C27.6412 47.6 27.3453 47.3298 27.3049 46.9816L27.3002 46.9V44.1C27.3002 43.7134 27.6136 43.4 28.0002 43.4Z" fill="#0079D0"/>
    <path fill-rule="evenodd" clip-rule="evenodd" d="M15.3998 8.3999H40.5998C40.9864 8.3999 41.2998 8.7133 41.2998 9.0999V11.8999C41.2998 12.2865 40.9864 12.5999 40.5998 12.5999H15.3998C15.0132 12.5999 14.6998 12.2865 14.6998 11.8999V9.0999C14.6998 8.7133 15.0132 8.3999 15.3998 8.3999ZM39.8998 11.1999V9.7999H16.0998V11.1999H39.8998Z" fill="#2F3A43"/>
    <path fill-rule="evenodd" clip-rule="evenodd" d="M18.1998 11.1999H37.7998C38.1864 11.1999 38.4998 11.5133 38.4998 11.8999V46.8999C38.4998 47.2865 38.1864 47.5999 37.7998 47.5999H18.1998C17.8132 47.5999 17.4998 47.2865 17.4998 46.8999V11.8999C17.4998 11.5133 17.8132 11.1999 18.1998 11.1999ZM37.0998 46.1999V12.5999H18.8998V46.1999H37.0998Z" fill="#2F3A43"/>
    <path d="M18.1998 22.3999C18.5588 22.3999 18.8547 22.6701 18.8951 23.0183L18.8998 23.0999V46.8999C18.8998 47.2589 18.6296 47.5548 18.2814 47.5952L18.1998 47.5999H8.3998C8.04082 47.5999 7.74495 47.3297 7.70451 46.9815L7.6998 46.8999V42.6999C7.6998 42.3133 8.01321 41.9999 8.3998 41.9999C8.75879 41.9999 9.05466 42.2701 9.0951 42.6183L9.0998 42.6999V46.1999H17.4998V23.7999H9.0998V37.0999C9.0998 37.4589 8.82958 37.7548 8.48144 37.7952L8.3998 37.7999C8.04082 37.7999 7.74495 37.5297 7.70451 37.1815L7.6998 37.0999V23.0999C7.6998 22.7409 7.97003 22.445 8.31817 22.4046L8.3998 22.3999H18.1998Z" fill="#2F3A43"/>
    <path fill-rule="evenodd" clip-rule="evenodd" d="M6.9998 19.5999H18.1998C18.5864 19.5999 18.8998 19.9133 18.8998 20.2999V23.0999C18.8998 23.4865 18.5864 23.7999 18.1998 23.7999H6.9998C6.61321 23.7999 6.2998 23.4865 6.2998 23.0999V20.2999C6.2998 19.9133 6.61321 19.5999 6.9998 19.5999ZM17.4998 22.3999V20.9999H7.6998V22.3999H17.4998Z" fill="#2F3A43"/>
    <path d="M47.5998 22.3999C47.9588 22.3999 48.2547 22.6701 48.2951 23.0183L48.2998 23.0999V31.4999C48.2998 31.8865 47.9864 32.1999 47.5998 32.1999C47.2408 32.1999 46.945 31.9297 46.9045 31.5815L46.8998 31.4999V23.7999H38.4998V46.1999H46.8998V38.4999C46.8998 38.1409 47.17 37.845 47.5182 37.8046L47.5998 37.7999C47.9588 37.7999 48.2547 38.0701 48.2951 38.4183L48.2998 38.4999V46.8999C48.2998 47.2589 48.0296 47.5548 47.6814 47.5952L47.5998 47.5999H37.7998C37.4408 47.5999 37.145 47.3297 37.1045 46.9815L37.0998 46.8999V23.0999C37.0998 22.7409 37.37 22.445 37.7182 22.4046L37.7998 22.3999H47.5998Z" fill="#2F3A43"/>
    <path fill-rule="evenodd" clip-rule="evenodd" d="M37.7998 19.5999H48.9998C49.3864 19.5999 49.6998 19.9133 49.6998 20.2999V23.0999C49.6998 23.4865 49.3864 23.7999 48.9998 23.7999H37.7998C37.4132 23.7999 37.0998 23.4865 37.0998 23.0999V20.2999C37.0998 19.9133 37.4132 19.5999 37.7998 19.5999ZM48.2998 22.3999V20.9999H38.4998V22.3999H48.2998Z" fill="#2F3A43"/>
    <path fill-rule="evenodd" clip-rule="evenodd" d="M11.1998 25.1999H15.3998C15.7864 25.1999 16.0998 25.5133 16.0998 25.8999V31.4999C16.0998 31.8865 15.7864 32.1999 15.3998 32.1999H11.1998C10.8132 32.1999 10.4998 31.8865 10.4998 31.4999V25.8999C10.4998 25.5133 10.8132 25.1999 11.1998 25.1999ZM14.6998 30.7999V26.5999H11.8998V30.7999H14.6998Z" fill="#2F3A43"/>
    <path d="M15.3998 37.7999C15.7864 37.7999 16.0998 38.1133 16.0998 38.4999C16.0998 38.8589 15.8296 39.1548 15.4814 39.1952L15.3998 39.1999H11.8998C11.5132 39.1999 11.1998 38.8865 11.1998 38.4999C11.1998 38.1409 11.47 37.845 11.8182 37.8046L11.8998 37.7999H15.3998Z" fill="#2F3A43"/>
    <path fill-rule="evenodd" clip-rule="evenodd" d="M40.5998 25.1999H44.7998C45.1864 25.1999 45.4998 25.5133 45.4998 25.8999V31.4999C45.4998 31.8865 45.1864 32.1999 44.7998 32.1999H40.5998C40.2132 32.1999 39.8998 31.8865 39.8998 31.4999V25.8999C39.8998 25.5133 40.2132 25.1999 40.5998 25.1999ZM44.0998 30.7999V26.5999H41.2998V30.7999H44.0998Z" fill="#2F3A43"/>
    <path d="M44.7998 37.7999C45.1864 37.7999 45.4998 38.1133 45.4998 38.4999C45.4998 38.8589 45.2296 39.1548 44.8814 39.1952L44.7998 39.1999H41.2998C40.9132 39.1999 40.5998 38.8865 40.5998 38.4999C40.5998 38.1409 40.87 37.845 41.2182 37.8046L41.2998 37.7999H44.7998Z" fill="#2F3A43"/>
    <path fill-rule="evenodd" clip-rule="evenodd" d="M26.5182 16.8046L26.5998 16.7999H29.3998C29.7864 16.7999 30.0998 17.1133 30.0998 17.4999V19.5999H32.1998C32.5588 19.5999 32.8547 19.8701 32.8951 20.2183L32.8998 20.2999V23.0999C32.8998 23.4865 32.5864 23.7999 32.1998 23.7999H30.0998V25.8999C30.0998 26.2589 29.8296 26.5548 29.4814 26.5952L29.3998 26.5999H26.5998C26.2132 26.5999 25.8998 26.2865 25.8998 25.8999V23.7999H23.7998C23.4408 23.7999 23.145 23.5297 23.1045 23.1815L23.0998 23.0999V20.2999C23.0998 19.9133 23.4132 19.5999 23.7998 19.5999H25.8998V17.4999C25.8998 17.1409 26.17 16.845 26.5182 16.8046ZM28.6998 20.2999V18.1999H27.2998V20.2999C27.2998 20.6589 27.0296 20.9548 26.6814 20.9952L26.5998 20.9999H24.4998V22.3999H26.5998C26.9588 22.3999 27.2547 22.6701 27.2951 23.0183L27.2998 23.0999V25.1999H28.6998V23.0999C28.6998 22.7409 28.97 22.445 29.3182 22.4046L29.3998 22.3999H31.4998V20.9999H29.3998C29.0408 20.9999 28.745 20.7297 28.7045 20.3815L28.6998 20.2999Z" fill="#2F3A43"/>
    <path d="M32.1998 30.7999C32.5864 30.7999 32.8998 31.1133 32.8998 31.4999C32.8998 31.8589 32.6296 32.1548 32.2814 32.1952L32.1998 32.1999H23.7998C23.4132 32.1999 23.0998 31.8865 23.0998 31.4999C23.0998 31.1409 23.37 30.845 23.7182 30.8046L23.7998 30.7999H32.1998Z" fill="#2F3A43"/>
</svg>
