<svg width="56" height="56" viewBox="0 0 56 56" fill="none" xmlns="http://www.w3.org/2000/svg">
    <path fill-rule="evenodd" clip-rule="evenodd" d="M52.5004 43.3999C52.1154 43.3999 51.8004 43.0849 51.8004 42.6999C51.8004 42.3149 52.1154 41.9999 52.5004 41.9999C52.8854 41.9999 53.2004 42.3149 53.2004 42.6999C53.2004 43.0849 52.8854 43.3999 52.5004 43.3999Z" fill="#E0F0FE"/>
    <path fill-rule="evenodd" clip-rule="evenodd" d="M38.5004 2.7999C38.1154 2.7999 37.8004 2.4849 37.8004 2.0999C37.8004 1.7149 38.1154 1.3999 38.5004 1.3999C38.8854 1.3999 39.2004 1.7149 39.2004 2.0999C39.2004 2.4849 38.8854 2.7999 38.5004 2.7999Z" fill="#E0F0FE"/>
    <path fill-rule="evenodd" clip-rule="evenodd" d="M2.10039 37.7999C1.71539 37.7999 1.40039 37.4849 1.40039 37.0999C1.40039 36.7149 1.71539 36.3999 2.10039 36.3999C2.48539 36.3999 2.80039 36.7149 2.80039 37.0999C2.80039 37.4849 2.48539 37.7999 2.10039 37.7999Z" fill="#E0F0FE"/>
    <path d="M32.8996 16.0998C33.2846 16.0998 33.5996 16.4148 33.5996 16.7998C33.5996 17.1568 33.3266 17.4578 32.9836 17.4928H25.8996C25.5146 17.4928 25.1996 17.1778 25.1996 16.7928C25.1996 16.4358 25.4726 16.1348 25.8156 16.0998H32.8996Z" fill="#0079D0"/>
    <path d="M18.8996 17.4998C18.7176 17.4998 18.5426 17.4298 18.4026 17.2968L17.0026 15.8968C16.7296 15.6238 16.7296 15.1828 17.0026 14.9098C17.2756 14.6368 17.7166 14.6368 17.9896 14.9098L18.8926 15.8128L21.1956 13.5098C21.4686 13.2368 21.9096 13.2368 22.1826 13.5098C22.4556 13.7828 22.4556 14.2238 22.1826 14.4968L19.3826 17.2968C19.2426 17.4368 19.0676 17.4998 18.8856 17.4998H18.8996Z" fill="#0079D0"/>
    <path d="M35.6996 13.2998C36.0846 13.2998 36.3996 13.6148 36.3996 13.9998C36.3996 14.3568 36.1266 14.6578 35.7836 14.6928H25.8996C25.5146 14.6928 25.1996 14.3778 25.1996 13.9928C25.1996 13.6358 25.4726 13.3348 25.8156 13.2998H35.6996Z" fill="#0079D0"/>
    <path d="M32.8996 24.4998C33.2846 24.4998 33.5996 24.8148 33.5996 25.1998C33.5996 25.5568 33.3266 25.8578 32.9836 25.8928H25.8996C25.5146 25.8928 25.1996 25.5778 25.1996 25.1928C25.1996 24.8358 25.4726 24.5348 25.8156 24.4998H32.8996Z" fill="#0079D0"/>
    <path d="M18.8996 25.8998C18.7176 25.8998 18.5426 25.8298 18.4026 25.6968L17.0026 24.2968C16.7296 24.0238 16.7296 23.5828 17.0026 23.3098C17.2756 23.0368 17.7166 23.0368 17.9896 23.3098L18.8926 24.2128L21.1956 21.9098C21.4686 21.6368 21.9096 21.6368 22.1826 21.9098C22.4556 22.1828 22.4556 22.6238 22.1826 22.8968L19.3826 25.6968C19.2426 25.8368 19.0676 25.8998 18.8856 25.8998H18.8996Z" fill="#0079D0"/>
    <path d="M37.4496 50.3998C37.3376 50.3998 37.2186 50.3718 37.1136 50.3158C36.8826 50.1898 31.4996 47.1868 31.4996 39.2768C31.4996 38.9688 31.7026 38.6958 31.9966 38.6048C35.0206 37.6948 37.0716 36.5048 37.0926 36.4908C37.3096 36.3648 37.5826 36.3648 37.7996 36.4908C37.8206 36.5048 39.8716 37.6948 42.8956 38.6048C43.1896 38.6958 43.3926 38.9688 43.3926 39.2768C43.3926 47.1798 38.0026 50.1898 37.7786 50.3158C37.6736 50.3718 37.5616 50.3998 37.4426 50.3998H37.4496ZM32.9066 39.7878C33.0956 45.4648 36.3716 48.1458 37.4496 48.8738C38.5276 48.1458 41.8036 45.4718 41.9926 39.7878C39.7736 39.0738 38.1356 38.2618 37.4496 37.8978C36.7636 38.2618 35.1256 39.0808 32.9066 39.7878Z" fill="#0079D0"/>
    <path d="M35.6996 21.6998C36.0846 21.6998 36.3996 22.0148 36.3996 22.3998C36.3996 22.7568 36.1266 23.0578 35.7836 23.0928H25.8996C25.5146 23.0928 25.1996 22.7778 25.1996 22.3928C25.1996 22.0358 25.4726 21.7348 25.8156 21.6998H35.6996Z" fill="#0079D0"/>
    <path d="M32.8996 32.8999C33.2846 32.8999 33.5996 33.2149 33.5996 33.5999C33.5996 33.9569 33.3266 34.2579 32.9836 34.2929H25.8996C25.5146 34.2929 25.1996 33.9779 25.1996 33.5929C25.1996 33.2359 25.4726 32.9349 25.8156 32.8999H32.8996Z" fill="#2F3A43"/>
    <path fill-rule="evenodd" clip-rule="evenodd" d="M39.8996 8.3999H13.2996C12.9146 8.3999 12.5996 8.7149 12.5996 9.0999V46.8999C12.5996 47.2849 12.9146 47.5999 13.2996 47.5999H30.7996C31.1846 47.5999 31.4996 47.2849 31.4996 46.8999C31.4996 46.5149 31.1846 46.1999 30.7996 46.1999H13.9996V9.7999H39.1996V34.2999C39.1996 34.6849 39.5146 34.9999 39.8996 34.9999C40.2846 34.9999 40.5996 34.6849 40.5996 34.2999V9.0999C40.5996 8.7149 40.2846 8.3999 39.8996 8.3999Z" fill="#2F3A43"/>
    <path d="M42.6996 36.3999C42.3146 36.3999 41.9996 36.0849 41.9996 35.6999V14.6999C41.9996 14.3429 42.2726 14.0419 42.6156 14.0069H42.6996C43.0566 13.9999 43.3576 14.2729 43.3926 14.6159V35.6999C43.3926 36.0849 43.0776 36.3999 42.6926 36.3999H42.6996Z" fill="#2F3A43"/>
    <path d="M32.8996 49.6999C32.8996 50.0849 32.5846 50.3999 32.1996 50.3999H18.8996C18.5146 50.3999 18.1996 50.0849 18.1996 49.6999C18.1996 49.3429 18.4726 49.0419 18.8156 49.0069H32.1996C32.5846 49.0069 32.8996 49.3149 32.8996 49.6999Z" fill="#2F3A43"/>
    <path d="M35.6996 30.0999C36.0846 30.0999 36.3996 30.4149 36.3996 30.7999C36.3996 31.1569 36.1266 31.4579 35.7836 31.4929H25.8996C25.5146 31.4929 25.1996 31.1779 25.1996 30.7929C25.1996 30.4359 25.4726 30.1349 25.8156 30.0999H35.6996Z" fill="#2F3A43"/>
    <path d="M18.8996 34.2999C18.7176 34.2999 18.5426 34.2299 18.4026 34.0969L17.0026 32.6969C16.7296 32.4239 16.7296 31.9829 17.0026 31.7099C17.2756 31.4369 17.7166 31.4369 17.9896 31.7099L18.8926 32.6129L21.1956 30.3099C21.4686 30.0369 21.9096 30.0369 22.1826 30.3099C22.4556 30.5829 22.4556 31.0239 22.1826 31.2969L19.3826 34.0969C19.2426 34.2369 19.0676 34.2999 18.8856 34.2999H18.8996Z" fill="#2F3A43"/>
    <path d="M29.3996 39.1999C29.3996 39.5849 29.0846 39.8999 28.6996 39.8999H25.8996C25.5146 39.8999 25.1996 39.5849 25.1996 39.1999C25.1996 38.8429 25.4726 38.5419 25.8156 38.5069H28.6996C29.0846 38.5069 29.3996 38.8149 29.3996 39.1999Z" fill="#2F3A43"/>
    <path d="M30.0996 41.9999C30.0996 42.3849 29.7846 42.6999 29.3996 42.6999H25.8996C25.5146 42.6999 25.1996 42.3849 25.1996 41.9999C25.1996 41.6429 25.4726 41.3419 25.8156 41.3069H29.3996C29.7846 41.3069 30.0996 41.6149 30.0996 41.9999Z" fill="#2F3A43"/>
    <path d="M18.8996 42.6999C18.7176 42.6999 18.5426 42.6299 18.4026 42.4969L17.0026 41.0969C16.7296 40.8239 16.7296 40.3829 17.0026 40.1099C17.2756 39.8369 17.7166 39.8369 17.9896 40.1099L18.8926 41.0129L21.1956 38.7099C21.4686 38.4369 21.9096 38.4369 22.1826 38.7099C22.4556 38.9829 22.4556 39.4239 22.1826 39.6969L19.3826 42.4969C19.2426 42.6369 19.0676 42.6999 18.8856 42.6999H18.8996Z" fill="#2F3A43"/>
</svg>
