<svg width="56" height="56" viewBox="0 0 56 56" fill="none" xmlns="http://www.w3.org/2000/svg">
    <path d="M11.41 7.49033C11.7966 7.49033 12.11 7.17693 12.11 6.79033C12.11 6.40373 11.7966 6.09033 11.41 6.09033C11.0234 6.09033 10.71 6.40373 10.71 6.79033C10.71 7.17693 11.0234 7.49033 11.41 7.49033Z" fill="#E0F0FE"/>
    <path d="M46.9 9.59033C47.2866 9.59033 47.6 9.27693 47.6 8.89033C47.6 8.50373 47.2866 8.19033 46.9 8.19033C46.5134 8.19033 46.2 8.50373 46.2 8.89033C46.2 9.27693 46.5134 9.59033 46.9 9.59033Z" fill="#E0F0FE"/>
    <path d="M45.5 52.0803C45.8866 52.0803 46.2 51.7669 46.2 51.3803C46.2 50.9937 45.8866 50.6803 45.5 50.6803C45.1134 50.6803 44.8 50.9937 44.8 51.3803C44.8 51.7669 45.1134 52.0803 45.5 52.0803Z" fill="#E0F0FE"/>
    <path d="M16.24 53.8303C16.6266 53.8303 16.94 53.5169 16.94 53.1303C16.94 52.7437 16.6266 52.4303 16.24 52.4303C15.8534 52.4303 15.54 52.7437 15.54 53.1303C15.54 53.5169 15.8534 53.8303 16.24 53.8303Z" fill="#E0F0FE"/>
    <path fill-rule="evenodd" clip-rule="evenodd" d="M42.6998 28.7001C42.6998 28.3135 43.0132 28.0001 43.3998 28.0001H46.1998C46.5864 28.0001 46.8998 28.3135 46.8998 28.7001C46.8998 29.0867 46.5864 29.4001 46.1998 29.4001H43.3998C43.0132 29.4001 42.6998 29.0867 42.6998 28.7001Z" fill="#0079D0"/>
    <path fill-rule="evenodd" clip-rule="evenodd" d="M35.6998 28.7001C35.6998 28.3135 36.0132 28.0001 36.3998 28.0001H39.1998C39.5864 28.0001 39.8998 28.3135 39.8998 28.7001C39.8998 29.0867 39.5864 29.4001 39.1998 29.4001H36.3998C36.0132 29.4001 35.6998 29.0867 35.6998 28.7001Z" fill="#0079D0"/>
    <path fill-rule="evenodd" clip-rule="evenodd" d="M42.6998 32.2001C42.6998 31.8135 43.0132 31.5001 43.3998 31.5001H46.1998C46.5864 31.5001 46.8998 31.8135 46.8998 32.2001C46.8998 32.5867 46.5864 32.9001 46.1998 32.9001H43.3998C43.0132 32.9001 42.6998 32.5867 42.6998 32.2001Z" fill="#0079D0"/>
    <path fill-rule="evenodd" clip-rule="evenodd" d="M35.6998 32.2001C35.6998 31.8135 36.0132 31.5001 36.3998 31.5001H39.1998C39.5864 31.5001 39.8998 31.8135 39.8998 32.2001C39.8998 32.5867 39.5864 32.9001 39.1998 32.9001H36.3998C36.0132 32.9001 35.6998 32.5867 35.6998 32.2001Z" fill="#0079D0"/>
    <path fill-rule="evenodd" clip-rule="evenodd" d="M17.4998 23.8001C17.4998 23.4135 17.8132 23.1001 18.1998 23.1001H20.9998C21.3864 23.1001 21.6998 23.4135 21.6998 23.8001C21.6998 24.1867 21.3864 24.5001 20.9998 24.5001H18.1998C17.8132 24.5001 17.4998 24.1867 17.4998 23.8001Z" fill="#0079D0"/>
    <path fill-rule="evenodd" clip-rule="evenodd" d="M9.7998 23.8001C9.7998 23.4135 10.1132 23.1001 10.4998 23.1001H13.2998C13.6864 23.1001 13.9998 23.4135 13.9998 23.8001C13.9998 24.1867 13.6864 24.5001 13.2998 24.5001H10.4998C10.1132 24.5001 9.7998 24.1867 9.7998 23.8001Z" fill="#0079D0"/>
    <path fill-rule="evenodd" clip-rule="evenodd" d="M17.4998 27.3001C17.4998 26.9135 17.8132 26.6001 18.1998 26.6001H20.9998C21.3864 26.6001 21.6998 26.9135 21.6998 27.3001C21.6998 27.6867 21.3864 28.0001 20.9998 28.0001H18.1998C17.8132 28.0001 17.4998 27.6867 17.4998 27.3001Z" fill="#0079D0"/>
    <path fill-rule="evenodd" clip-rule="evenodd" d="M9.7998 27.3001C9.7998 26.9135 10.1132 26.6001 10.4998 26.6001H13.2998C13.6864 26.6001 13.9998 26.9135 13.9998 27.3001C13.9998 27.6867 13.6864 28.0001 13.2998 28.0001H10.4998C10.1132 28.0001 9.7998 27.6867 9.7998 27.3001Z" fill="#0079D0"/>
    <path fill-rule="evenodd" clip-rule="evenodd" d="M25.1998 23.8001C25.1998 23.4135 25.5132 23.1001 25.8998 23.1001H28.6998C29.0864 23.1001 29.3998 23.4135 29.3998 23.8001C29.3998 24.1867 29.0864 24.5001 28.6998 24.5001H25.8998C25.5132 24.5001 25.1998 24.1867 25.1998 23.8001Z" fill="#0079D0"/>
    <path fill-rule="evenodd" clip-rule="evenodd" d="M25.1998 27.3001C25.1998 26.9135 25.5132 26.6001 25.8998 26.6001H28.6998C29.0864 26.6001 29.3998 26.9135 29.3998 27.3001C29.3998 27.6867 29.0864 28.0001 28.6998 28.0001H25.8998C25.5132 28.0001 25.1998 27.6867 25.1998 27.3001Z" fill="#0079D0"/>
    <path fill-rule="evenodd" clip-rule="evenodd" d="M36.3998 37.1105V41.2866C36.3998 41.2866 36.3998 41.2867 36.3998 41.2866C36.401 41.2896 36.4032 41.293 36.4056 41.2955C36.4076 41.2977 36.4088 41.2982 36.409 41.2983C36.4092 41.2984 36.41 41.2987 36.4118 41.2991C36.4135 41.2995 36.4174 41.3001 36.4239 41.3001H39.1554C39.1579 41.2987 39.1611 41.2967 39.1647 41.2942C39.171 41.2899 39.1775 41.2845 39.1838 41.2784C39.1902 41.2722 39.1953 41.2661 39.1993 41.2606C39.1994 41.2604 39.1996 41.2601 39.1998 41.2599V37.1135C39.1998 37.1135 39.1998 37.1136 39.1998 37.1135C39.1986 37.1106 39.1965 37.1072 39.194 37.1047C39.192 37.1025 39.1908 37.102 39.1906 37.1019C39.1904 37.1018 39.1896 37.1015 39.1878 37.1011C39.1861 37.1007 39.1822 37.1001 39.1757 37.1001H36.4239C36.424 37.1001 36.424 37.1001 36.4239 37.1001C36.4235 37.1001 36.4195 37.1004 36.4133 37.1029C36.4075 37.1051 36.4029 37.108 36.3998 37.1105ZM39.2003 37.115C39.2003 37.115 39.2003 37.1152 39.2003 37.115V37.115ZM39.1484 41.3034C39.1481 41.3035 39.1484 41.3034 39.1484 41.3034V41.3034ZM34.9998 37.109C34.9998 36.2389 35.7361 35.7001 36.4239 35.7001H39.1757C40.0278 35.7001 40.5998 36.3997 40.5998 37.109V41.2912C40.5998 41.7014 40.3977 42.0492 40.1632 42.2788C39.9277 42.5093 39.5791 42.7001 39.1757 42.7001H36.4239C35.5718 42.7001 34.9998 42.0004 34.9998 41.2912V37.109Z" fill="#0079D0"/>
    <path fill-rule="evenodd" clip-rule="evenodd" d="M43.3998 37.11V41.2869C43.3998 41.2868 43.3998 41.287 43.3998 41.2869C43.401 41.29 43.4033 41.2936 43.4057 41.2961C43.4067 41.2972 43.4075 41.2978 43.4079 41.2981L43.4086 41.2985C43.4086 41.2985 43.4093 41.2988 43.4108 41.2991C43.4124 41.2995 43.4161 41.3001 43.4223 41.3001H46.168C46.1755 41.3001 46.1831 41.2992 46.1906 41.2974C46.1906 41.2954 46.1906 41.2933 46.1906 41.2912V37.1133C46.1905 37.1132 46.1906 37.1134 46.1906 37.1133C46.1893 37.1102 46.187 37.1066 46.1847 37.1041C46.1837 37.103 46.1829 37.1024 46.1824 37.1021L46.1818 37.1017C46.1817 37.1017 46.1811 37.1014 46.1795 37.101C46.178 37.1007 46.1743 37.1001 46.168 37.1001H43.4224C43.4224 37.1001 43.4224 37.1001 43.4224 37.1001C43.4224 37.1001 43.4188 37.1003 43.4128 37.1027C43.4072 37.1048 43.4028 37.1076 43.3998 37.11ZM46.191 37.1147C46.191 37.1147 46.191 37.1148 46.191 37.1147V37.1147ZM41.9998 37.109C41.9998 36.2403 42.7338 35.7001 43.4223 35.7001H46.168C47.0206 35.7001 47.5906 36.4012 47.5906 37.109V41.236C47.6462 41.6645 47.4545 42.0376 47.2092 42.2783C46.946 42.5365 46.5725 42.7001 46.168 42.7001H43.4223C42.5697 42.7001 41.9998 41.999 41.9998 41.2912V37.109Z" fill="#0079D0"/>
    <path d="M29.8369 8.94683C30.1388 8.70532 30.1877 8.26482 29.9462 7.96293C29.7047 7.66105 29.2642 7.61211 28.9623 7.85361L18.4623 16.2536C18.1604 16.4951 18.1115 16.9356 18.353 17.2375C18.5945 17.5394 19.035 17.5883 19.3369 17.3468L29.8369 8.94683Z" fill="#2F3A43"/>
    <path d="M33.5903 9.68547C33.568 9.55025 33.5069 9.4281 33.4189 9.33079C33.296 9.19493 33.1205 9.10752 32.9246 9.10065C32.8709 9.09872 32.817 9.10292 32.7639 9.11336C32.7164 9.12269 32.6707 9.13682 32.6271 9.15523C32.566 9.18107 32.5094 9.21533 32.4586 9.25657L25.4623 14.8536C25.1604 15.0951 25.1115 15.5356 25.353 15.8375C25.5945 16.1394 26.035 16.1883 26.3369 15.9468L32.1996 11.2566V46.9002H9.09961C8.71301 46.9002 8.39961 47.2136 8.39961 47.6002C8.39961 47.9868 8.71301 48.3002 9.09961 48.3002H32.8996C33.2862 48.3002 33.5996 47.9868 33.5996 47.6002" fill="#2F3A43"/>
    <path d="M40.5996 20.3002C40.213 20.3002 39.8996 20.6136 39.8996 21.0002C39.8996 21.3868 40.213 21.7002 40.5996 21.7002H46.1996C46.5862 21.7002 46.8996 21.3868 46.8996 21.0002C46.8996 20.6136 46.5862 20.3002 46.1996 20.3002H40.5996Z" fill="#2F3A43"/>
    <path d="M34.9996 23.8002C34.9996 23.4136 35.313 23.1002 35.6996 23.1002H49.6996C50.0862 23.1002 50.3996 23.4136 50.3996 23.8002V47.6002C50.3996 47.9868 50.0862 48.3002 49.6996 48.3002H35.6996C35.313 48.3002 34.9996 47.9868 34.9996 47.6002C34.9996 47.2136 35.313 46.9002 35.6996 46.9002H48.9996V24.5002H35.6996C35.313 24.5002 34.9996 24.1868 34.9996 23.8002Z" fill="#2F3A43"/>
    <path d="M6.99961 47.6702C6.99961 48.0568 6.68621 48.3702 6.29961 48.3702C5.91301 48.3702 5.59961 48.0568 5.59961 47.6702C5.59961 47.2836 5.91301 46.9702 6.29961 46.9702C6.68621 46.9702 6.99961 47.2836 6.99961 47.6702Z" fill="#2F3A43"/>
    <path fill-rule="evenodd" clip-rule="evenodd" d="M11.1996 44.8002C11.1996 44.4136 11.513 44.1002 11.8996 44.1002H13.9996V33.6002C13.9996 33.2136 14.313 32.9002 14.6996 32.9002H24.4996C24.8862 32.9002 25.1996 33.2136 25.1996 33.6002V44.1002H27.2996C27.6862 44.1002 27.9996 44.4136 27.9996 44.8002C27.9996 45.1868 27.6862 45.5002 27.2996 45.5002H11.8996C11.513 45.5002 11.1996 45.1868 11.1996 44.8002ZM20.2996 44.1002V37.8002C20.2996 37.4136 19.9862 37.1002 19.5996 37.1002C19.213 37.1002 18.8996 37.4136 18.8996 37.8002V44.1002H15.3996V34.3002H23.7996V44.1002H20.2996Z" fill="#2F3A43"/>
    <path d="M15.3996 30.8002C15.3996 30.4136 15.713 30.1002 16.0996 30.1002H23.0996C23.4862 30.1002 23.7996 30.4136 23.7996 30.8002C23.7996 31.1868 23.4862 31.5002 23.0996 31.5002H16.0996C15.713 31.5002 15.3996 31.1868 15.3996 30.8002Z" fill="#2F3A43"/>
    <path d="M23.6374 17.4021C23.8849 17.6991 23.8447 18.1405 23.5477 18.388L21.4477 20.138C21.3219 20.2428 21.1634 20.3002 20.9996 20.3002H6.99961V44.8002C6.99961 45.1868 6.68621 45.5002 6.29961 45.5002C5.91301 45.5002 5.59961 45.1868 5.59961 44.8002V19.6002C5.59961 19.2136 5.91301 18.9002 6.29961 18.9002H20.7462L22.6515 17.3125C22.9485 17.065 23.3899 17.1051 23.6374 17.4021Z" fill="#2F3A43"/>
</svg>
