<svg width="67" height="66" viewBox="0 0 67 66" fill="none" xmlns="http://www.w3.org/2000/svg">
    <g clip-path="url(#clip0_387_28280)">
        <path fill-rule="evenodd" clip-rule="evenodd" d="M66.1351 58.8108C65.6595 58.8108 65.2703 58.4216 65.2703 57.9459C65.2703 57.4702 65.6595 57.0811 66.1351 57.0811C66.6108 57.0811 67 57.4702 67 57.9459C67 58.4216 66.6108 58.8108 66.1351 58.8108Z" fill="#EAF5FF"/>
        <path fill-rule="evenodd" clip-rule="evenodd" d="M34.1351 1.72973C33.6595 1.72973 33.2703 1.34054 33.2703 0.864865C33.2703 0.389189 33.6595 0 34.1351 0C34.6108 0 35 0.389189 35 0.864865C35 1.34054 34.6108 1.72973 34.1351 1.72973Z" fill="#EAF5FF"/>
        <path fill-rule="evenodd" clip-rule="evenodd" d="M3.86486 51.8918C3.38919 51.8918 3 51.5026 3 51.027C3 50.5513 3.38919 50.1621 3.86486 50.1621C4.34054 50.1621 4.72973 50.5513 4.72973 51.027C4.72973 51.5026 4.34054 51.8918 3.86486 51.8918Z" fill="#EAF5FF"/>
        <path fill-rule="evenodd" clip-rule="evenodd" d="M47.3243 36.4887L50.68 28.3936C51.0432 27.5114 52.0551 27.0963 52.9373 27.4595C53.3611 27.6325 53.6984 27.9698 53.8713 28.3936L57.2616 36.4887C57.4519 36.9557 57.4346 37.4833 57.2097 37.933L55.8951 40.5622C55.8519 40.6487 55.8 40.7265 55.7481 40.8044V43.9698L57.4346 49.0292C57.4605 49.1157 57.4778 49.2109 57.4778 49.306V49.4011L56.2497 59.7795C56.2065 60.1774 55.8865 60.4887 55.4886 60.5406H55.3849H49.1838C48.7773 60.5406 48.4314 60.2639 48.3449 59.8747L48.3276 59.7795L47.9297 56.372C47.8778 55.8963 48.2151 55.4638 48.6908 55.412C49.1319 55.3601 49.5297 55.6455 49.6335 56.0693L49.6508 56.173L49.9622 58.8109H54.6238L55.7308 49.3838L54.2605 44.973H50.3168L48.7859 49.5741C48.6476 49.9979 48.2151 50.2401 47.7914 50.1449L47.6962 50.119C47.2724 49.9806 47.0303 49.5482 47.1254 49.1244L47.1513 49.0292L48.8378 43.9698V40.8044C48.7859 40.7265 48.7341 40.6487 48.6908 40.5622L47.3762 37.933C47.1514 37.4833 47.1341 36.9644 47.3243 36.4974V36.4887ZM50.5676 41.5136V43.2433H54.027V41.5136H50.5676ZM51.4324 31.1093L48.9243 37.1547L50.2389 39.7838H54.3557L55.6703 37.1547L53.1622 31.1611V35.4595C53.1622 35.9352 52.773 36.3244 52.2973 36.3244C51.8562 36.3244 51.4843 35.9871 51.4411 35.5633V35.4595V31.1093H51.4324Z" fill="#0079D0"/>
        <path d="M41.0541 44.973C42.6887 44.973 43.6487 45.933 43.6487 47.5676C43.6487 47.6368 43.6487 47.706 43.6227 47.7752C43.1816 49.5222 41.2443 50.6638 37.7762 51.2865L37.2141 51.3817C37.0238 51.4076 36.8249 51.4422 36.626 51.4682L36.0119 51.546C35.9081 51.5546 35.8043 51.5719 35.7005 51.5806L35.0519 51.6498L34.3773 51.7103L33.6768 51.7622L32.9503 51.8055C32.8292 51.8055 32.6995 51.8141 32.5784 51.8228L31.8173 51.8487L31.0303 51.8746L30.2173 51.8919H28.946C28.4703 51.8919 28.0811 51.5114 28.0811 51.0357C28.0811 50.56 28.4703 50.1709 28.946 50.1709H29.7676C29.906 50.1709 30.0357 50.1709 30.1654 50.1709L30.9438 50.1536L31.6962 50.1276L32.4227 50.1017L33.1232 50.0671L33.7978 50.0238L34.4465 49.9719L35.0692 49.9114C35.173 49.9028 35.2681 49.8941 35.3719 49.8768L35.9514 49.8076C36.2368 49.773 36.5135 49.7384 36.773 49.6952L37.2919 49.6087L37.7762 49.5222L38.2346 49.4271C40.3276 48.9687 41.5384 48.32 41.867 47.533L41.893 47.4552V47.3514C41.8497 46.8844 41.6508 46.7287 41.1492 46.7114H41.0368C40.1373 46.7114 39.1946 47.1784 38.1914 48.1817C37.6724 48.7006 36.7989 48.3719 36.7211 47.6714V47.5763C36.7211 46.9017 36.5222 46.7114 35.8476 46.7114C34.9481 46.7114 34.0054 47.1871 33.0022 48.1903C32.6649 48.5276 32.12 48.5276 31.7827 48.1903C31.4454 47.853 31.4454 47.3082 31.7827 46.9709C33.0887 45.6649 34.4465 44.9903 35.8562 44.9903C36.8422 44.9903 37.5946 45.3449 38.0184 45.9936L38.053 46.0455L38.226 45.9244C39.0735 45.3536 39.9384 45.0422 40.8205 44.9903H41.0454L41.0541 44.973Z" fill="#0079D0"/>
        <path d="M48.8292 9.40976C48.7773 8.97733 48.4141 8.64868 47.973 8.64868H15.0043C14.5719 8.70057 14.2432 9.07247 14.2432 9.51355V56.32C14.2951 56.7525 14.667 57.0811 15.1081 57.0811H42.8876C43.32 57.0292 43.6486 56.6573 43.6486 56.2162V56.1125C43.5968 55.68 43.2249 55.3514 42.7838 55.3514H15.973V10.3784H47.1081V26.9146C47.16 27.3471 47.5319 27.6757 47.973 27.6757C48.4486 27.6757 48.8378 27.2865 48.8378 26.8108V9.40976H48.8292Z" fill="#2F3A43"/>
        <path d="M35 14.7028C35 14.2271 34.6108 13.8379 34.1351 13.8379H20.1935C19.7611 13.8898 19.4324 14.2617 19.4324 14.7028C19.4324 15.1784 19.8216 15.5676 20.2973 15.5676H34.2389C34.6714 15.5157 35 15.1438 35 14.7028Z" fill="#2F3A43"/>
        <path d="M42.7838 19.027C43.2595 19.027 43.6487 19.4162 43.6487 19.8918C43.6487 20.3329 43.3114 20.7048 42.8876 20.7481H42.7838H20.2973C19.8216 20.7481 19.4324 20.3589 19.4324 19.8832C19.4324 19.4421 19.7697 19.0702 20.1935 19.027H20.2973H42.7838Z" fill="#2F3A43"/>
        <path d="M38.4595 25.0811C38.4595 24.6054 38.0703 24.2162 37.5946 24.2162H20.1935C19.7611 24.2681 19.4324 24.64 19.4324 25.0811C19.4324 25.5567 19.8216 25.9459 20.2973 25.9459H37.6984C38.1308 25.894 38.4595 25.5221 38.4595 25.0811Z" fill="#2F3A43"/>
        <path d="M42.7838 29.4054C43.2595 29.4054 43.6487 29.7946 43.6487 30.2703C43.6487 30.7113 43.3114 31.0832 42.8876 31.1265H42.7838H20.2973C19.8216 31.1265 19.4324 30.7373 19.4324 30.2616C19.4324 29.8205 19.7697 29.4486 20.1935 29.4054H20.2973H42.7838Z" fill="#2F3A43"/>
        <path d="M52.2886 16.3287C52.2368 15.8963 51.8735 15.5676 51.4324 15.5676C50.9568 15.5676 50.5676 15.9568 50.5676 16.4325V23.4552C50.6195 23.8876 50.9913 24.2163 51.4324 24.2163C51.9081 24.2163 52.2973 23.8271 52.2973 23.3514V16.3287H52.2886Z" fill="#2F3A43"/>
        <path d="M44.5135 58.8108C44.9892 58.8108 45.3784 59.2 45.3784 59.6757C45.3784 60.1167 45.0411 60.4886 44.6173 60.5319H44.5135H22.027C21.5514 60.5319 21.1622 60.1427 21.1622 59.667C21.1622 59.2259 21.4995 58.854 21.9233 58.8108H22.027H44.5135Z" fill="#2F3A43"/>
        <path d="M38.4595 35.4595C38.4595 34.9838 38.0703 34.5946 37.5946 34.5946H20.1935C19.7611 34.6465 19.4324 35.0184 19.4324 35.4595C19.4324 35.9351 19.8216 36.3243 20.2973 36.3243H37.6984C38.1308 36.2724 38.4595 35.9006 38.4595 35.4595Z" fill="#2F3A43"/>
    </g>
    <defs>
        <clipPath id="clip0_387_28280">
            <rect width="64" height="60.5405" fill="white" transform="translate(3)"/>
        </clipPath>
    </defs>
</svg>
