<svg width="80" height="70" viewBox="0 0 80 70" fill="none" xmlns="http://www.w3.org/2000/svg">
    <g clip-path="url(#clip0_387_28287)">
        <path d="M56.3563 59.5799C56.385 59.2841 56.5758 59.036 56.843 58.9405L57.5491 58.7402C58.0549 58.5493 58.3793 58.034 58.3316 57.4806L57.7781 55.3622L57.74 55.2572C57.5491 54.7515 57.0434 54.4366 56.4804 54.4748L55.6788 54.6656C55.4116 54.7133 55.1158 54.5893 54.9536 54.3603L54.6387 53.9404C54.4765 53.7018 54.4479 53.4156 54.5624 53.1866L54.9154 52.5568C55.1445 52.051 55.0013 51.4499 54.5624 51.0873L52.6921 49.9899L52.5967 49.9422C52.0909 49.7132 51.4898 49.8468 51.1272 50.2952L50.7168 50.9728C50.5642 51.1922 50.3161 51.3067 50.0584 51.2876L49.8294 51.2495C49.7245 51.2399 49.6195 51.2209 49.5145 51.2113C49.276 51.1827 49.0374 51.259 48.8466 51.4117C48.6557 51.5644 48.5412 51.7838 48.5221 52.0224C48.503 52.261 48.5698 52.4995 48.7225 52.6904C48.8752 52.8812 49.0947 52.9957 49.3332 53.0148C49.4477 53.0243 49.5718 53.0434 49.7054 53.0625L49.9821 53.0911C50.9268 53.1388 51.8142 52.6617 52.3009 51.8602L52.9879 52.261L52.8829 52.4804C52.4917 53.3869 52.6444 54.408 53.2742 55.1427L53.57 55.5435C54.1902 56.3164 55.2113 56.6599 56.175 56.4118L56.385 57.1752L56.1273 57.2611C55.2303 57.6237 54.6196 58.4443 54.5433 59.3986L54.467 60.0474C54.4192 60.9921 54.8964 61.8796 55.6979 62.3662L55.2971 63.0533L55.0872 62.9483C54.1902 62.5571 53.1692 62.7002 52.4249 63.3204L52.0241 63.6258C51.2417 64.246 50.9077 65.2671 51.1462 66.2404L50.3829 66.4503L50.297 66.1927C49.9344 65.2957 49.1137 64.6945 48.1595 64.6087L47.5202 64.5323C46.5755 64.4941 45.6881 64.9617 45.2014 65.7633L44.5144 65.3625L44.6289 65.1335C45.0106 64.2365 44.8579 63.2155 44.2472 62.4903L43.9609 62.1181C43.646 61.7841 43.1307 61.7269 42.7586 62.0036C42.5582 62.1467 42.4342 62.3567 42.396 62.5952C42.3578 62.8338 42.4151 63.0723 42.5582 63.2727L42.8731 63.6926C43.0353 63.9312 43.0639 64.2079 42.9494 64.4464L42.5964 65.0762C42.3674 65.582 42.5105 66.1831 42.9494 66.5457L44.8197 67.6431L44.9151 67.6908C45.4209 67.9198 46.0221 67.7767 46.3847 67.3377L46.795 66.6602C46.9477 66.4408 47.2053 66.3263 47.4534 66.3549L47.6824 66.3931C47.7874 66.4121 47.8923 66.4217 47.9973 66.4312C48.2931 66.4599 48.5412 66.6507 48.6366 66.9179L48.7989 67.519L48.837 67.624C49.0183 68.1011 49.4764 68.416 49.9916 68.416C50.0203 68.416 50.0584 68.416 50.0871 68.416L52.2054 67.8626L52.3104 67.8244C52.8161 67.6336 53.1406 67.1183 53.0929 66.5648L52.9211 65.8491L52.902 65.7633C52.8543 65.4865 52.9688 65.2003 53.1978 65.0381C53.2933 64.9713 53.3791 64.9045 53.465 64.8377L53.6368 64.7041C53.8658 64.5514 54.1521 64.5228 54.3811 64.6373L55.0109 64.9903C55.5166 65.2194 56.1178 65.0762 56.4708 64.6373L57.5682 62.767L57.6159 62.6716C57.8449 62.1658 57.7018 61.5647 57.2628 61.2021L56.5853 60.7917C56.3659 60.6391 56.2514 60.3814 56.28 60.1333L56.3182 59.9043C56.3372 59.7994 56.3468 59.6944 56.3563 59.5894V59.5799Z" fill="#2F3A43"/>
        <path d="M42.9781 58.2248V58.1103C42.9972 58.034 43.0162 57.9481 43.0258 57.8622L43.0544 57.5855C43.1021 56.6408 42.625 55.7534 41.8235 55.2667L42.2242 54.5797L42.4532 54.6942C43.3502 55.0759 44.3712 54.9232 45.0965 54.3125L45.5068 54.0072C46.2797 53.3869 46.6232 52.3659 46.3751 51.4021L47.6729 51.0491C47.6729 51.0491 47.6919 51.0491 47.7015 51.0491L47.7969 51.03C48.2359 50.8964 48.503 50.4574 48.4267 50.0089C48.3408 49.5127 47.8733 49.1883 47.3771 49.2647C47.3771 49.2647 47.3103 49.2742 47.3007 49.2837L45.3255 49.8086L45.2205 49.8467C44.7148 50.0376 44.3903 50.5529 44.438 51.1063L44.6098 51.822L44.6289 51.9079C44.6766 52.1846 44.5621 52.4709 44.3331 52.6331L43.9037 52.9575C43.6651 53.1197 43.3884 53.1484 43.1498 53.0338L42.52 52.6808C42.0143 52.4518 41.4131 52.5949 41.0505 53.0338L39.9532 54.9041L39.9055 54.9996C39.6764 55.5053 39.8196 56.1065 40.2585 56.4691L40.936 56.8794C41.1555 57.0321 41.27 57.2897 41.2414 57.5378L41.2032 57.7668C41.1841 57.8718 41.1746 57.9767 41.165 58.0817C41.1364 58.3775 40.9456 58.6256 40.6784 58.721L39.9723 58.9214C39.4665 59.1123 39.1421 59.6276 39.1898 60.181L39.7432 62.2994L39.7719 62.3948C39.915 62.7383 40.249 62.9578 40.6116 62.9578C40.6975 62.9578 40.7738 62.9483 40.8597 62.9196L40.9551 62.891C41.375 62.7193 41.604 62.2517 41.4895 61.8127L41.1269 60.4768L41.3845 60.3909C42.2815 60.0283 42.8922 59.1982 42.9685 58.2535L42.9781 58.2248Z" fill="#2F3A43"/>
        <path d="M53.6559 21.01C53.6559 17.613 52.4917 14.2827 50.3733 11.6395C50.0394 11.2292 49.4477 11.1624 49.0279 11.4868C48.6176 11.8113 48.5508 12.4124 48.8752 12.8323C50.7455 15.1797 51.7379 18.0042 51.7379 21.01C51.7379 25.9434 48.8943 30.5237 44.4858 32.7279L44.438 32.6802C44.2949 32.747 44.1899 32.852 44.1041 32.976C43.7987 33.2528 43.6842 33.7013 43.875 34.0829C43.8941 34.1211 43.9228 34.1593 43.9514 34.1974V37.5086H39.5619C39.5619 37.5086 39.581 37.4418 39.581 37.4132V28.4339H40.2013C42.7872 28.4339 44.8961 26.3251 44.8961 23.7391C44.8961 21.1532 42.7872 19.0443 40.2013 19.0443H37.0237C34.4377 19.0443 32.3289 21.1532 32.3289 23.7391C32.3289 26.3251 34.4377 28.4339 37.0237 28.4339H37.6726V37.4132C37.6726 37.4132 37.6917 37.48 37.6917 37.5086H33.2736V33.4532C33.2736 33.0905 33.0446 32.7757 32.7297 32.6421L32.6915 32.6802C28.2639 30.4283 25.5157 25.9529 25.5157 20.9909C25.5157 13.7674 31.3938 7.88941 38.6173 7.88941C40.8215 7.88941 43.0067 8.4524 44.9247 9.50205C45.3827 9.7597 45.9648 9.58793 46.2224 9.12991C46.4801 8.67188 46.3083 8.0898 45.8503 7.83216C43.646 6.62029 41.146 5.98096 38.6173 5.98096C30.3346 5.98096 23.6073 12.7178 23.6073 20.9909C23.6073 26.5541 26.6322 31.5829 31.5083 34.207V39.1403C31.5083 40.2472 31.9186 41.1156 32.6629 41.9076C32.8919 42.1366 33.1591 42.3465 33.4453 42.5183C33.474 43.5966 33.932 44.5794 34.6477 45.3046C35.392 46.0489 36.413 46.507 37.539 46.507H39.6574C40.7834 46.507 41.8044 46.0489 42.5582 45.3046C43.2739 44.589 43.7319 43.6061 43.7605 42.5183C44.0468 42.3465 44.314 42.1462 44.543 41.9076C45.2491 41.2015 45.6881 40.2186 45.6881 39.1403V34.2261C50.526 31.6306 53.6273 26.5064 53.6273 20.9909L53.6559 21.01ZM34.2469 23.7487C34.2469 22.2124 35.4969 20.9623 37.0332 20.9623H40.2108C41.7471 20.9623 42.9972 22.2124 42.9972 23.7487C42.9972 25.285 41.7471 26.535 40.2108 26.535H37.0332C35.4969 26.535 34.2469 25.285 34.2469 23.7487ZM41.3463 44.0832C40.9169 44.5031 40.3349 44.7703 39.686 44.7703H37.5676C36.9187 44.7703 36.3367 44.5031 35.9073 44.0832C35.7927 43.9687 35.0675 43.0718 35.4492 43.0813H41.938C41.8235 43.463 41.6135 43.8161 41.3463 44.0832ZM43.3311 40.6862C42.9399 41.0774 42.396 41.316 41.8044 41.316H35.4588C34.8671 41.316 34.3232 41.0679 33.932 40.6767L33.8938 40.6385C33.5503 40.2759 33.3308 39.7988 33.3022 39.2739H43.9609C43.9323 39.8274 43.6937 40.3236 43.3311 40.6862Z" fill="#2F3A43"/>
        <path d="M52.4822 47.8524C52.2913 47.8524 52.11 47.7951 51.9383 47.6806C51.5089 47.3848 51.3944 46.7836 51.6997 46.3542C54.5433 42.2415 55.2685 36.9551 53.6463 32.2031C53.4746 31.7069 53.7418 31.163 54.238 30.9912C54.7342 30.8194 55.2781 31.0866 55.4498 31.5828C57.2629 36.8979 56.4518 42.8236 53.2647 47.4325C53.0834 47.6997 52.778 47.8428 52.4822 47.8428V47.8524Z" fill="#0079D0"/>
        <path d="M36.2699 63.6067C36.2699 63.6067 36.2126 63.6067 36.184 63.6067C22.5481 62.3471 12.2615 51.0682 12.2615 37.3559C12.2615 31.1057 14.4276 25.18 18.3972 20.447H16.2693C15.7444 20.447 15.315 20.0176 15.315 19.4928C15.315 18.968 15.7444 18.5386 16.2693 18.5386H20.5633C20.945 18.5386 21.298 18.7676 21.4412 19.1207C21.5938 19.4737 21.508 19.884 21.2408 20.1608C16.6796 24.7697 14.17 30.8767 14.17 37.3559C14.17 50.0758 23.7122 60.5436 36.3557 61.7078C36.8806 61.7555 37.2718 62.2231 37.2145 62.7479C37.1668 63.2441 36.7565 63.6163 36.2603 63.6163L36.2699 63.6067Z" fill="#0079D0"/>
        <path d="M20.6492 25.3804C20.1339 25.3804 19.7045 24.9605 19.695 24.4453L19.6091 19.5024C19.6091 18.9775 20.0194 18.5386 20.5442 18.5291H20.5633C21.0786 18.5291 21.508 18.9489 21.5175 19.4642L21.6034 24.4071C21.6034 24.9319 21.1931 25.3709 20.6683 25.3804H20.6492Z" fill="#0079D0"/>
        <path d="M36.289 54.9709C36.289 54.9709 36.2031 54.9709 36.1554 54.9709C32.3003 54.4365 28.8078 52.6903 26.0501 49.9326C21.174 45.0565 19.5518 37.7184 21.9278 31.2392C22.1091 30.743 22.6531 30.4854 23.1492 30.6667C23.6454 30.848 23.9031 31.3919 23.7218 31.8881C21.6034 37.6707 23.0538 44.2263 27.4051 48.5775C29.867 51.0395 32.9873 52.5948 36.4225 53.072C36.9474 53.1483 37.31 53.6254 37.2336 54.1502C37.1668 54.6273 36.7565 54.9709 36.289 54.9709Z" fill="#0079D0"/>
        <path d="M59.3812 52.967C59.3812 52.967 59.2954 52.967 59.2477 52.967C58.8946 52.9193 58.5988 52.6712 58.4843 52.3372L57.0625 48.3009C56.8907 47.8047 57.1484 47.2607 57.6446 47.0794C58.1408 46.9077 58.6847 47.1653 58.866 47.6615L59.6484 49.8753C61.9099 46.0966 63.0932 41.8026 63.0932 37.3463C63.0932 30.9339 60.6313 24.865 56.1464 20.2752C55.7743 19.8935 55.7838 19.2923 56.1655 18.9297C56.5377 18.5576 57.1484 18.5671 57.511 18.9488C62.3394 23.9013 64.9921 30.4377 64.9921 37.3463C64.9921 42.8331 63.3222 48.1005 60.1542 52.5662C59.9729 52.8239 59.6771 52.967 59.3717 52.967H59.3812Z" fill="#0079D0"/>
        <path d="M59.3812 52.967C58.9423 52.967 58.5415 52.6617 58.4461 52.2132C58.3316 51.6979 58.6656 51.1922 59.1809 51.0777L63.3127 50.1998C63.8279 50.0853 64.3337 50.4192 64.4482 50.9345C64.5627 51.4498 64.2287 51.9555 63.7134 52.07L59.5816 52.9479C59.5148 52.967 59.448 52.967 59.3812 52.967Z" fill="#0079D0"/>
        <path d="M49.2474 59.8088C48.9802 59.9329 48.6844 59.952 48.4076 59.8566C47.9305 59.6943 47.4152 59.9424 47.253 60.4195C47.1767 60.6486 47.1862 60.8967 47.2912 61.1161C47.3962 61.3356 47.587 61.4978 47.816 61.5742C48.1309 61.6791 48.4458 61.7364 48.7702 61.7364C49.2092 61.7364 49.6386 61.641 50.0489 61.4406C50.7455 61.097 51.2703 60.5054 51.528 59.7707C52.0528 58.2534 51.2417 56.5931 49.7245 56.0683C48.9897 55.8202 48.1977 55.8679 47.5011 56.2019C46.8045 56.5454 46.2797 57.137 46.0221 57.8718C45.8599 58.3489 46.108 58.8642 46.5851 59.0264C46.8141 59.1027 47.0622 59.0932 47.2817 58.9882C47.5011 58.8832 47.6633 58.7019 47.7397 58.4729L47.7683 58.387C47.9973 57.8622 48.5985 57.595 49.1329 57.7859C49.4096 57.8813 49.629 58.0817 49.7626 58.3393C49.8962 58.6065 49.9058 58.9023 49.8104 59.1791C49.7149 59.4558 49.5145 59.6752 49.2569 59.8088H49.2474Z" fill="#0079D0"/>
        <path fill-rule="evenodd" clip-rule="evenodd" d="M66.2994 8.92945C65.7746 8.92945 65.3452 8.50005 65.3452 7.97522C65.3452 7.4504 65.7746 7.021 66.2994 7.021C66.8242 7.021 67.2536 7.4504 67.2536 7.97522C67.2536 8.50005 66.8242 8.92945 66.2994 8.92945Z" fill="#EAF5FF"/>
        <path fill-rule="evenodd" clip-rule="evenodd" d="M58.6656 70C58.1407 70 57.7113 69.5706 57.7113 69.0458C57.7113 68.521 58.1407 68.0916 58.6656 68.0916C59.1904 68.0916 59.6198 68.521 59.6198 69.0458C59.6198 69.5706 59.1904 70 58.6656 70Z" fill="#EAF5FF"/>
        <path fill-rule="evenodd" clip-rule="evenodd" d="M66.2994 8.92945C65.7746 8.92945 65.3452 8.50005 65.3452 7.97522C65.3452 7.4504 65.7746 7.021 66.2994 7.021C66.8242 7.021 67.2536 7.4504 67.2536 7.97522C67.2536 8.50005 66.8242 8.92945 66.2994 8.92945Z" fill="#EAF5FF"/>
        <path fill-rule="evenodd" clip-rule="evenodd" d="M10.9542 12.7463C10.4294 12.7463 10 12.3169 10 11.7921C10 11.2673 10.4294 10.8379 10.9542 10.8379C11.4791 10.8379 11.9085 11.2673 11.9085 11.7921C11.9085 12.3169 11.4791 12.7463 10.9542 12.7463Z" fill="#EAF5FF"/>
    </g>
    <defs>
        <clipPath id="clip0_387_28287">
            <rect width="57.2536" height="64" fill="white" transform="translate(10 6)"/>
        </clipPath>
    </defs>
</svg>
