<svg width="59" height="64" viewBox="0 0 59 64" fill="none" xmlns="http://www.w3.org/2000/svg">
    <g clip-path="url(#clip0_409_10282)">
        <path d="M43.5006 17.7163H15.36C15.1832 17.7163 15.04 17.8596 15.04 18.0363V37.7115C15.04 37.8882 15.1832 38.0315 15.36 38.0315H43.5006C43.6773 38.0315 43.8206 37.8882 43.8206 37.7115V18.0363C43.8206 17.8596 43.6773 17.7163 43.5006 17.7163Z" fill="#EAF5FF"/>
        <path fill-rule="evenodd" clip-rule="evenodd" d="M49.4546 63.9999C48.9212 63.9999 48.4849 63.5636 48.4849 63.0302C48.4849 62.4969 48.9212 62.0605 49.4546 62.0605C49.9879 62.0605 50.4243 62.4969 50.4243 63.0302C50.4243 63.5636 49.9879 63.9999 49.4546 63.9999Z" fill="#EAF5FF"/>
        <path fill-rule="evenodd" clip-rule="evenodd" d="M57.2121 1.93939C56.6788 1.93939 56.2424 1.50303 56.2424 0.969697C56.2424 0.436364 56.6788 0 57.2121 0C57.7455 0 58.1818 0.436364 58.1818 0.969697C58.1818 1.50303 57.7455 1.93939 57.2121 1.93939Z" fill="#EAF5FF"/>
        <path fill-rule="evenodd" clip-rule="evenodd" d="M0.969697 5.81818C0.436364 5.81818 0 5.38181 0 4.84848C0 4.31515 0.436364 3.87878 0.969697 3.87878C1.50303 3.87878 1.93939 4.31515 1.93939 4.84848C1.93939 5.38181 1.50303 5.81818 0.969697 5.81818Z" fill="#EAF5FF"/>
        <path d="M13.4109 10.7927C13.4109 10.2594 12.9745 9.823 12.4412 9.823H6.78788H6.57454C3.99515 9.92966 1.93939 12.063 1.93939 14.6715V47.8545C2.05576 50.4339 4.17939 52.4897 6.78788 52.4897H12.7224C13.2073 52.4315 13.5758 52.0145 13.5758 51.52C13.5758 50.9866 13.1394 50.5503 12.6061 50.5503H6.61333C5.09091 50.4533 3.87879 49.1927 3.87879 47.6412V14.4872C3.97576 12.9648 5.23636 11.7527 6.78788 11.7527H12.4412H12.5576C13.0424 11.6945 13.4109 11.2872 13.4109 10.7927Z" fill="#2F3A43"/>
        <path fill-rule="evenodd" clip-rule="evenodd" d="M56.2424 14.4485C56.1357 11.8691 54.0024 9.81335 51.3939 9.81335H47.3988C46.9139 9.87154 46.5454 10.2885 46.5454 10.7831C46.5454 11.3164 46.9818 11.7527 47.5151 11.7527H51.5685C53.0909 11.8497 54.303 13.1103 54.303 14.6618V47.8061C54.206 49.3285 52.9454 50.5406 51.3939 50.5406H20.2473C19.7624 50.5988 19.3939 51.0158 19.3939 51.5103C19.3939 52.0437 19.8303 52.48 20.3636 52.48H25.1927C25.057 56.5043 24.0291 58.2982 22.303 58.2982H20.2473C19.7624 58.3564 19.3939 58.7734 19.3939 59.2679C19.3939 59.8012 19.8303 60.2376 20.3636 60.2376H37.9345C38.4194 60.1794 38.7879 59.7624 38.7879 59.2679C38.7879 58.7346 38.3515 58.2982 37.8182 58.2982H35.8788C34.143 58.2982 33.1248 56.5043 32.9891 52.48H51.6073C54.1867 52.3637 56.2424 50.24 56.2424 47.6315V14.4485ZM27.1321 52.4703H31.04C31.1273 55.0206 31.5733 56.9794 32.3879 58.2885H25.7745C26.5988 56.9794 27.0351 55.0206 27.1224 52.4703H27.1321Z" fill="#2F3A43"/>
        <path d="M49.4545 42.7733C49.9879 42.7733 50.4242 43.2097 50.4242 43.743C50.4242 44.2376 50.0461 44.6545 49.5709 44.703H49.4545H8.72727C8.19393 44.703 7.75757 44.2666 7.75757 43.7333C7.75757 43.2388 8.13575 42.8218 8.6109 42.7733H8.72727H49.4545Z" fill="#2F3A43"/>
        <path d="M31.0303 47.6218C31.0303 47.0885 30.5939 46.6521 30.0606 46.6521H28.0048C27.52 46.7103 27.1515 47.1273 27.1515 47.6218C27.1515 48.1551 27.5879 48.5915 28.1212 48.5915H30.1769C30.6618 48.5333 31.0303 48.1163 31.0303 47.6218Z" fill="#2F3A43"/>
        <path d="M29.7309 33.9781C30.9721 33.9781 31.9806 32.9696 31.9806 31.7284V29.4981C33.1636 28.7321 33.8909 27.4133 33.8909 25.9975C33.8909 23.709 32.0291 21.8375 29.7309 21.8375C27.4327 21.8375 25.5709 23.6993 25.5709 25.9975C25.5709 27.4133 26.2982 28.7321 27.4812 29.4981V31.7284C27.4812 32.9696 28.4897 33.9781 29.7309 33.9781ZM30.0218 31.7284C30.0218 31.8933 29.8861 32.0193 29.6921 32.0193C29.5467 31.9999 29.4303 31.8739 29.4303 31.7284V30.1575H30.0218V31.7284ZM29.7309 23.7963C30.943 23.7963 31.9321 24.7854 31.9321 25.9975C31.9321 27.2096 30.943 28.1987 29.7309 28.1987C28.5188 28.1987 27.5297 27.2096 27.5297 25.9975C27.5297 24.7854 28.5188 23.7963 29.7309 23.7963Z" fill="#0079D0"/>
        <path d="M42.7539 33.1151C42.8121 33.6096 43.2291 33.9781 43.7236 33.9781C44.257 33.9781 44.703 33.5418 44.703 32.9987V19.8012C44.6351 18.2012 43.5297 16.9309 42.1333 16.7757C42.143 16.669 42.1527 16.5721 42.1527 16.4654V15.1951C42.1527 13.9539 41.1442 12.9454 39.903 12.9454H37.5757V11.9175C37.5757 7.87389 34.2303 5.04238 29.4303 5.04238C24.9406 5.04238 22.2642 7.13692 22.2642 10.6472C22.2642 11.1612 22.6812 11.5781 23.1951 11.5781C23.7091 11.5781 24.126 11.1612 24.126 10.6472C24.126 7.89329 26.8606 6.91389 29.4206 6.91389C33.1054 6.91389 35.6266 8.87268 35.6945 11.7915V13.1975C34.9673 13.566 34.463 14.3224 34.463 15.1951V16.4654C34.463 16.5624 34.463 16.669 34.4824 16.766H24.9406C24.9503 16.669 24.96 16.5721 24.96 16.4654V15.1951C24.96 13.9539 23.9515 12.9454 22.7103 12.9454H20.5091V12.8969V10.6763C20.6157 6.35147 24.3103 3.44238 29.7115 3.44238C35.1127 3.44238 38.9139 6.48723 38.9139 10.8606C38.9139 11.3939 39.3503 11.84 39.8933 11.84C40.4363 11.84 40.8727 11.4036 40.8727 10.8606C40.8727 5.34298 36.286 1.49329 29.7212 1.49329C23.1563 1.49329 18.5697 5.34298 18.5697 10.8606V13.1684C17.8036 13.5369 17.2994 14.3224 17.2994 15.1951V16.4654C17.2994 16.5624 17.2994 16.669 17.3188 16.766H16.1939C14.6715 16.8533 13.4885 18.2593 13.4885 19.966V36.0339C13.566 37.7406 14.8169 39.0787 16.3491 39.0787H43.4133C43.9466 39.0787 44.3927 38.6424 44.3927 38.0993C44.3927 37.5563 43.9563 37.12 43.4133 37.12H21.1685V33.0084C21.1685 31.8157 20.2376 30.8363 19.0448 30.7684H15.4473V27.6266H19.5782H19.6751C20.1697 27.5684 20.5382 27.1515 20.5382 26.6569C20.5382 26.1236 20.1018 25.6775 19.5588 25.6775H15.4473V19.869C15.486 19.2387 15.8933 18.7248 16.3491 18.7248H41.8327H41.9006C42.3079 18.7636 42.7539 19.2484 42.7539 19.966V33.1248V33.1151ZM18.9091 32.6981C19.0642 32.6981 19.1903 32.8145 19.2097 32.9987V37.1103H16.2812C15.8739 37.0715 15.4279 36.5866 15.4279 35.869V32.7078H18.9091V32.6981ZM23.0303 16.4557C23.0303 16.6206 22.8945 16.7563 22.7297 16.7563H19.5491C19.3842 16.7563 19.2485 16.6206 19.2485 16.4557V15.1854C19.2485 15.0206 19.3842 14.8848 19.5491 14.8848H22.7297C22.8945 14.8848 23.0303 15.0206 23.0303 15.1854V16.4557ZM40.2036 16.4557C40.2036 16.6206 40.0679 16.7563 39.903 16.7563H36.7224C36.5576 16.7563 36.4218 16.6206 36.4218 16.4557V15.1854C36.4218 15.0206 36.5576 14.8848 36.7224 14.8848H39.903C40.0679 14.8848 40.2036 15.0206 40.2036 15.1854V16.4557Z" fill="#0079D0"/>
    </g>
    <defs>
        <clipPath id="clip0_409_10282">
            <rect width="58.1818" height="64" fill="white"/>
        </clipPath>
    </defs>
</svg>
