<svg width="56" height="56" viewBox="0 0 56 56" fill="none" xmlns="http://www.w3.org/2000/svg">
    <path fill-rule="evenodd" clip-rule="evenodd" d="M11.8992 5.59995C11.5132 5.59995 11.1992 5.28593 11.1992 4.89995C11.1992 4.51394 11.5132 4.19995 11.8992 4.19995C12.2852 4.19995 12.5992 4.51394 12.5992 4.89995C12.5992 5.28593 12.2852 5.59995 11.8992 5.59995Z" fill="#E0F0FE"/>
    <path fill-rule="evenodd" clip-rule="evenodd" d="M14.6992 53.2C14.3132 53.2 13.9992 52.8859 13.9992 52.5C13.9992 52.1139 14.3132 51.7999 14.6992 51.7999C15.0852 51.7999 15.3992 52.1139 15.3992 52.5C15.3992 52.8859 15.0852 53.2 14.6992 53.2Z" fill="#E0F0FE"/>
    <path fill-rule="evenodd" clip-rule="evenodd" d="M44.0992 51.7999C43.7132 51.7999 43.3992 51.4859 43.3992 51.0999C43.3992 50.7139 43.7132 50.4 44.0992 50.4C44.4852 50.4 44.7992 50.7139 44.7992 51.0999C44.7992 51.4859 44.4852 51.7999 44.0992 51.7999Z" fill="#E0F0FE"/>
    <path fill-rule="evenodd" clip-rule="evenodd" d="M45.4992 6.99995C45.1132 6.99995 44.7992 6.68593 44.7992 6.29995C44.7992 5.91394 45.1132 5.59995 45.4992 5.59995C45.8852 5.59995 46.1992 5.91394 46.1992 6.29995C46.1992 6.68593 45.8852 6.99995 45.4992 6.99995Z" fill="#E0F0FE"/>
    <path fill-rule="evenodd" clip-rule="evenodd" d="M28.6992 56C28.3132 56 27.9992 55.6859 27.9992 55.2999C27.9992 54.9139 28.3132 54.5999 28.6992 54.5999C29.0852 54.5999 29.3992 54.9139 29.3992 55.2999C29.3992 55.6859 29.0852 56 28.6992 56Z" fill="#E0F0FE"/>
    <path fill-rule="evenodd" clip-rule="evenodd" d="M20.9996 13.9999C20.9996 12.8401 21.9398 11.8999 23.0996 11.8999C24.2594 11.8999 25.1996 12.8401 25.1996 13.9999C25.1996 15.1597 24.2594 16.0999 23.0996 16.0999C21.9398 16.0999 20.9996 15.1597 20.9996 13.9999ZM23.7996 13.9999C23.7996 13.6133 23.4862 13.2999 23.0996 13.2999C22.713 13.2999 22.3996 13.6133 22.3996 13.9999C22.3996 14.3865 22.713 14.6999 23.0996 14.6999C23.4862 14.6999 23.7996 14.3865 23.7996 13.9999Z" fill="#0079D0"/>
    <path d="M23.0996 14.6999C23.4586 14.6999 23.7545 14.9701 23.7949 15.3183L23.7996 15.3999V18.1999C23.7996 18.5865 23.4862 18.8999 23.0996 18.8999C22.7406 18.8999 22.4448 18.6297 22.4043 18.2815L22.3996 18.1999V15.3999C22.3996 15.0133 22.713 14.6999 23.0996 14.6999Z" fill="#0079D0"/>
    <path fill-rule="evenodd" clip-rule="evenodd" d="M36.3996 30.7999C36.3996 29.6401 37.3398 28.6999 38.4996 28.6999C39.6594 28.6999 40.5996 29.6401 40.5996 30.7999C40.5996 31.9597 39.6594 32.8999 38.4996 32.8999C37.3398 32.8999 36.3996 31.9597 36.3996 30.7999ZM39.1996 30.7999C39.1996 30.4133 38.8862 30.0999 38.4996 30.0999C38.113 30.0999 37.7996 30.4133 37.7996 30.7999C37.7996 31.1865 38.113 31.4999 38.4996 31.4999C38.8862 31.4999 39.1996 31.1865 39.1996 30.7999Z" fill="#0079D0"/>
    <path d="M38.4996 31.4999C38.8586 31.4999 39.1545 31.7701 39.1949 32.1183L39.1996 32.1999V34.9999C39.1996 35.3865 38.8862 35.6999 38.4996 35.6999C38.1406 35.6999 37.8448 35.4297 37.8043 35.0815L37.7996 34.9999V32.1999C37.7996 31.8133 38.113 31.4999 38.4996 31.4999Z" fill="#0079D0"/>
    <path fill-rule="evenodd" clip-rule="evenodd" d="M16.0996 34.9999C16.0996 33.8401 17.0398 32.8999 18.1996 32.8999C19.3594 32.8999 20.2996 33.8401 20.2996 34.9999C20.2996 36.1597 19.3594 37.0999 18.1996 37.0999C17.0398 37.0999 16.0996 36.1597 16.0996 34.9999ZM18.8996 34.9999C18.8996 34.6133 18.5862 34.2999 18.1996 34.2999C17.813 34.2999 17.4996 34.6133 17.4996 34.9999C17.4996 35.3865 17.813 35.6999 18.1996 35.6999C18.5862 35.6999 18.8996 35.3865 18.8996 34.9999Z" fill="#0079D0"/>
    <path d="M18.1996 35.6999C18.5586 35.6999 18.8545 35.9701 18.8949 36.3183L18.8996 36.3999V39.1999C18.8996 39.5865 18.5862 39.8999 18.1996 39.8999C17.8406 39.8999 17.5448 39.6297 17.5043 39.2815L17.4996 39.1999V36.3999C17.4996 36.0133 17.813 35.6999 18.1996 35.6999Z" fill="#0079D0"/>
    <path d="M17.4996 13.3001C17.8862 13.3001 18.1996 13.6135 18.1996 14.0001C18.1996 14.3591 17.9294 14.6549 17.5812 14.6954L17.4996 14.7001H13.2996C12.913 14.7001 12.5996 14.3867 12.5996 14.0001C12.5996 13.6411 12.8698 13.3452 13.218 13.3048L13.2996 13.3001H17.4996Z" fill="#2F3A43"/>
    <path d="M49.6996 13.3001C50.0586 13.3001 50.3545 13.5703 50.3949 13.9184L50.3996 14.0001V43.4001C50.3996 43.7591 50.1294 44.0549 49.7812 44.0954L49.6996 44.1001H21.6996C21.313 44.1001 20.9996 43.7867 20.9996 43.4001C20.9996 43.0411 21.2698 42.7452 21.618 42.7048L21.6996 42.7001H48.9996V14.7001H28.6996C28.3406 14.7001 28.0448 14.4298 28.0043 14.0817L27.9996 14.0001C27.9996 13.6411 28.2698 13.3452 28.618 13.3048L28.6996 13.3001H49.6996Z" fill="#2F3A43"/>
    <path fill-rule="evenodd" clip-rule="evenodd" d="M11.9346 11.9939L9.81128 11.9585L9.65594 11.9588C7.43894 12.0035 5.63744 13.7959 5.60018 16.0315L5.59961 39.2001L5.60432 39.2817C5.60743 39.3085 5.61205 39.3348 5.6181 39.3606L5.62131 39.373L5.60951 39.5478C5.60291 39.6628 5.59961 39.7802 5.59961 39.9001C5.59961 42.4045 6.96821 43.8709 9.50402 44.0973L16.0996 44.1001L16.1812 44.0954C16.5294 44.0549 16.7996 43.7591 16.7996 43.4001C16.7996 43.0135 16.4862 42.7001 16.0996 42.7001H9.56628L9.39915 42.6824C7.75742 42.4835 6.99961 41.6162 6.99961 39.9001C6.99961 38.1385 7.87524 37.2629 9.85774 37.0977L11.8996 37.1001L12.023 37.0965C13.1254 37.0326 13.9996 36.1184 13.9996 35.0001V14.0936L13.9961 13.9716C13.9337 12.8819 13.0397 12.0123 11.9346 11.9939ZM7.00591 15.9138C7.10351 14.4661 8.32077 13.3338 9.78794 13.3583L11.9113 13.3937L11.9919 13.3996C12.3355 13.4449 12.5996 13.7388 12.5996 14.0936V35.0001L12.5949 35.0817C12.5545 35.4298 12.2586 35.7001 11.8996 35.7001H9.79961L9.60592 35.7183C8.58457 35.8267 7.75025 36.1133 7.11253 36.5685L6.99961 36.6521L6.99999 16.0548L7.00591 15.9138Z" fill="#2F3A43"/>
    <path fill-rule="evenodd" clip-rule="evenodd" d="M13.2996 28.7001H13.5888C13.9754 28.7001 14.2888 29.0135 14.2888 29.4001C14.2888 29.7867 13.9754 30.1001 13.5888 30.1001H13.2996C12.913 30.1001 12.5996 29.7867 12.5996 29.4001C12.5996 29.0135 12.913 28.7001 13.2996 28.7001ZM17.7888 28.7001H15.6888C15.3022 28.7001 14.9888 29.0135 14.9888 29.4001C14.9888 29.7867 15.3022 30.1001 15.6888 30.1001H17.7888C18.1754 30.1001 18.4888 29.7867 18.4888 29.4001C18.4888 29.0135 18.1754 28.7001 17.7888 28.7001ZM22.2731 28.9986L22.4389 29.2355C22.6606 29.5523 22.5836 29.9887 22.2669 30.2104C21.9502 30.4321 21.5137 30.3551 21.292 30.0384L19.8888 30.1001C19.5022 30.1001 19.1888 29.7867 19.1888 29.4001C19.1888 29.0135 19.5022 28.7001 19.8888 28.7001H21.6996C21.928 28.7001 22.1421 28.8115 22.2731 28.9986ZM24.8474 32.6763L23.6432 30.9559C23.4215 30.6392 22.985 30.5622 22.6683 30.7839C22.3516 31.0056 22.2746 31.4421 22.4963 31.7588L23.7005 33.4792C23.9222 33.7959 24.3587 33.8729 24.6754 33.6512C24.9921 33.4295 25.0691 32.993 24.8474 32.6763ZM26.0517 34.3967L27.256 36.1171C27.4777 36.4338 27.4007 36.8703 27.084 37.092C26.7672 37.3137 26.3308 37.2367 26.1091 36.9199L24.9048 35.1996C24.6831 34.8828 24.7601 34.4464 25.0768 34.2247C25.3935 34.003 25.83 34.08 26.0517 34.3967ZM29.6645 39.5579L28.4603 37.8375C28.2386 37.5208 27.8021 37.4437 27.4854 37.6654C27.1687 37.8871 27.0916 38.3236 27.3133 38.6403L28.5176 40.3607C28.7393 40.6774 29.1758 40.7545 29.4925 40.5328C29.8092 40.3111 29.8862 39.8746 29.6645 39.5579ZM32.0731 42.9986L30.8688 41.2783C30.6471 40.9615 30.2106 40.8845 29.8939 41.1062C29.5772 41.3279 29.5002 41.7644 29.7219 42.0811L30.9262 43.8015C31.1479 44.1182 31.5843 44.1952 31.901 43.9735C32.2177 43.7518 32.2948 43.3154 32.0731 42.9986Z" fill="#2F3A43"/>
    <path fill-rule="evenodd" clip-rule="evenodd" d="M29.1104 30.1001C29.497 30.1001 29.8104 29.7867 29.8104 29.4001C29.8104 29.0135 29.497 28.7001 29.1104 28.7001H27.2996C26.7333 28.7001 26.4014 29.3375 26.7261 29.8015L26.892 30.0384C27.1137 30.3551 27.5502 30.4321 27.8669 30.2104C28.1836 29.9887 29.1104 30.1001 29.1104 30.1001ZM29.2432 30.9559L30.4474 32.6763C30.6691 32.993 30.5921 33.4295 30.2754 33.6512C29.9587 33.8729 29.5222 33.7959 29.3005 33.4792L28.0963 31.7588C27.8746 31.4421 27.9516 31.0056 28.2683 30.7839C28.585 30.5622 29.0215 30.6392 29.2432 30.9559ZM32.856 36.1171L31.6517 34.3967C31.43 34.08 30.9935 34.003 30.6768 34.2247C30.3601 34.4464 30.2831 34.8828 30.5048 35.1996L31.7091 36.9199C31.9308 37.2367 32.3672 37.3137 32.684 37.092C33.0007 36.8703 33.0777 36.4338 32.856 36.1171ZM34.0603 37.8375L35.2645 39.5579C35.4862 39.8746 35.4092 40.3111 35.0925 40.5328C34.7758 40.7545 34.3393 40.6774 34.1176 40.3607L32.9133 38.6403C32.6916 38.3236 32.7687 37.8871 33.0854 37.6654C33.4021 37.4437 33.8386 37.5208 34.0603 37.8375ZM36.4688 41.2783L37.6731 42.9986C37.8948 43.3154 37.8177 43.7518 37.501 43.9735C37.1843 44.1952 36.7479 44.1182 36.5262 43.8015L35.3219 42.0811C35.1002 41.7644 35.1772 41.3279 35.4939 41.1062C35.8106 40.8845 36.2471 40.9615 36.4688 41.2783ZM33.3104 30.1001H31.2104C30.8238 30.1001 30.5104 29.7867 30.5104 29.4001C30.5104 29.0135 30.8238 28.7001 31.2104 28.7001H33.3104C33.697 28.7001 34.0104 29.0135 34.0104 29.4001C34.0104 29.7867 33.697 30.1001 33.3104 30.1001Z" fill="#2F3A43"/>
    <path fill-rule="evenodd" clip-rule="evenodd" d="M46.1996 30.1001H44.0996C43.713 30.1001 43.3996 29.7867 43.3996 29.4001C43.3996 29.0135 43.713 28.7001 44.0996 28.7001H46.1996C46.5862 28.7001 46.8996 29.0135 46.8996 29.4001C46.8996 29.7867 46.5862 30.1001 46.1996 30.1001ZM49.6996 30.1001H48.2996C47.913 30.1001 47.5996 29.7867 47.5996 29.4001C47.5996 29.0135 47.913 28.7001 48.2996 28.7001H49.6996C50.0862 28.7001 50.3996 29.0135 50.3996 29.4001C50.3996 29.7867 50.0862 30.1001 49.6996 30.1001Z" fill="#2F3A43"/>
    <path fill-rule="evenodd" clip-rule="evenodd" d="M34.9996 14.0001V15.4001C34.9996 15.7867 34.6862 16.1001 34.2996 16.1001C33.913 16.1001 33.5996 15.7867 33.5996 15.4001V14.0001C33.5996 13.6135 33.913 13.3001 34.2996 13.3001C34.6862 13.3001 34.9996 13.6135 34.9996 14.0001ZM34.9996 19.6001V17.5001C34.9996 17.1135 34.6862 16.8001 34.2996 16.8001C33.913 16.8001 33.5996 17.1135 33.5996 17.5001V19.6001C33.5996 19.9867 33.913 20.3001 34.2996 20.3001C34.6862 20.3001 34.9996 19.9867 34.9996 19.6001ZM34.9996 21.7001V23.8001C34.9996 24.1867 34.6862 24.5001 34.2996 24.5001C33.913 24.5001 33.5996 24.1867 33.5996 23.8001V21.7001C33.5996 21.3135 33.913 21.0001 34.2996 21.0001C34.6862 21.0001 34.9996 21.3135 34.9996 21.7001ZM15.3996 24.5001H13.2996C12.913 24.5001 12.5996 24.1867 12.5996 23.8001C12.5996 23.4135 12.913 23.1001 13.2996 23.1001H15.3996C15.7862 23.1001 16.0996 23.4135 16.0996 23.8001C16.0996 24.1867 15.7862 24.5001 15.3996 24.5001ZM19.5996 24.5001H17.4996C17.113 24.5001 16.7996 24.1867 16.7996 23.8001C16.7996 23.4135 17.113 23.1001 17.4996 23.1001H19.5996C19.9862 23.1001 20.2996 23.4135 20.2996 23.8001C20.2996 24.1867 19.9862 24.5001 19.5996 24.5001ZM21.6996 24.5001H23.7996C24.1862 24.5001 24.4996 24.1867 24.4996 23.8001C24.4996 23.4135 24.1862 23.1001 23.7996 23.1001H21.6996C21.313 23.1001 20.9996 23.4135 20.9996 23.8001C20.9996 24.1867 21.313 24.5001 21.6996 24.5001ZM27.9996 24.5001H25.8996C25.513 24.5001 25.1996 24.1867 25.1996 23.8001C25.1996 23.4135 25.513 23.1001 25.8996 23.1001H27.9996C28.3862 23.1001 28.6996 23.4135 28.6996 23.8001C28.6996 24.1867 28.3862 24.5001 27.9996 24.5001ZM30.0996 24.5001H32.1996C32.5862 24.5001 32.8996 24.1867 32.8996 23.8001C32.8996 23.4135 32.5862 23.1001 32.1996 23.1001H30.0996C29.713 23.1001 29.3996 23.4135 29.3996 23.8001C29.3996 24.1867 29.713 24.5001 30.0996 24.5001Z" fill="#2F3A43"/>
    <path fill-rule="evenodd" clip-rule="evenodd" d="M32.1996 18.9001H30.0996C29.713 18.9001 29.3996 18.5867 29.3996 18.2001C29.3996 17.8135 29.713 17.5001 30.0996 17.5001H32.1996C32.5862 17.5001 32.8996 17.8135 32.8996 18.2001C32.8996 18.5867 32.5862 18.9001 32.1996 18.9001ZM29.3996 18.9001V21.0001C29.3996 21.3867 29.0862 21.7001 28.6996 21.7001C28.313 21.7001 27.9996 21.3867 27.9996 21.0001V18.9001C27.9996 18.5135 28.313 18.2001 28.6996 18.2001C29.0862 18.2001 29.3996 18.5135 29.3996 18.9001Z" fill="#2F3A43"/>
    <path fill-rule="evenodd" clip-rule="evenodd" d="M50.3996 16.1001C50.3996 16.4867 50.0862 16.8001 49.6996 16.8001C49.313 16.8001 48.9996 16.4867 48.9996 16.1001V14.7001C49.3862 14.7001 49.6996 14.3867 49.6996 14.0001C49.6996 13.741 49.5588 13.5147 49.3496 13.3937C49.4526 13.3342 49.5721 13.3001 49.6996 13.3001C50.0862 13.3001 50.3996 13.6135 50.3996 14.0001V16.1001ZM49.3496 13.3937C49.2467 13.3342 49.1271 13.3001 48.9996 13.3001H46.8996C46.513 13.3001 46.1996 13.6135 46.1996 14.0001C46.1996 14.3867 46.513 14.7001 46.8996 14.7001H48.9996V14.0001C48.9996 13.741 49.1404 13.5147 49.3496 13.3937ZM50.3996 20.3001C50.3996 20.6867 50.0862 21.0001 49.6996 21.0001C49.313 21.0001 48.9996 20.6867 48.9996 20.3001V18.2001C48.9996 17.8135 49.313 17.5001 49.6996 17.5001C50.0862 17.5001 50.3996 17.8135 50.3996 18.2001V20.3001ZM48.2996 23.8001C48.2996 24.1867 48.613 24.5001 48.9996 24.5001H49.6996C50.0862 24.5001 50.3996 24.1867 50.3996 23.8001V22.4001C50.3996 22.0135 50.0862 21.7001 49.6996 21.7001C49.313 21.7001 48.9996 22.0135 48.9996 22.4001V23.1001C48.613 23.1001 48.2996 23.4135 48.2996 23.8001ZM44.7996 24.5001C44.413 24.5001 44.0996 24.1867 44.0996 23.8001C44.0996 23.4135 44.413 23.1001 44.7996 23.1001H46.8996C47.2862 23.1001 47.5996 23.4135 47.5996 23.8001C47.5996 24.1867 47.2862 24.5001 46.8996 24.5001H44.7996ZM41.2996 22.4001C40.913 22.4001 40.5996 22.7135 40.5996 23.1001V23.8001C40.5996 24.1867 40.913 24.5001 41.2996 24.5001H42.6996C43.0862 24.5001 43.3996 24.1867 43.3996 23.8001C43.3996 23.4135 43.0862 23.1001 42.6996 23.1001H41.9996C41.9996 22.7135 41.6862 22.4001 41.2996 22.4001ZM40.5996 18.9001C40.5996 18.5135 40.913 18.2001 41.2996 18.2001C41.6862 18.2001 41.9996 18.5135 41.9996 18.9001V21.0001C41.9996 21.3867 41.6862 21.7001 41.2996 21.7001C40.913 21.7001 40.5996 21.3867 40.5996 21.0001V18.9001ZM41.2996 14.0001C40.913 14.0001 40.5996 14.3135 40.5996 14.7001V16.8001C40.5996 17.1867 40.913 17.5001 41.2996 17.5001C41.6862 17.5001 41.9996 17.1867 41.9996 16.8001V14.7001C41.9996 14.3135 41.6862 14.0001 41.2996 14.0001ZM44.7996 13.3001C45.1862 13.3001 45.4996 13.6135 45.4996 14.0001C45.4996 14.3867 45.1862 14.7001 44.7996 14.7001H42.6996C42.313 14.7001 41.9996 14.3867 41.9996 14.0001C41.9996 13.6135 42.313 13.3001 42.6996 13.3001H44.7996Z" fill="#2F3A43"/>
</svg>
