<svg width="56" height="56" viewBox="0 0 56 56" fill="none" xmlns="http://www.w3.org/2000/svg">
    <path fill-rule="evenodd" clip-rule="evenodd" d="M50.4004 6.2999C50.0144 6.2999 49.7004 5.98588 49.7004 5.5999C49.7004 5.21389 50.0144 4.8999 50.4004 4.8999C50.7864 4.8999 51.1004 5.21389 51.1004 5.5999C51.1004 5.98588 50.7864 6.2999 50.4004 6.2999Z" fill="#E0F0FE"/>
    <path fill-rule="evenodd" clip-rule="evenodd" d="M18.2004 51.0999C17.8144 51.0999 17.5004 50.7859 17.5004 50.3999C17.5004 50.0139 17.8144 49.6999 18.2004 49.6999C18.5864 49.6999 18.9004 50.0139 18.9004 50.3999C18.9004 50.7859 18.5864 51.0999 18.2004 51.0999Z" fill="#E0F0FE"/>
    <path fill-rule="evenodd" clip-rule="evenodd" d="M5.60039 35.6999C5.21441 35.6999 4.90039 35.3859 4.90039 34.9999C4.90039 34.6139 5.21441 34.2999 5.60039 34.2999C5.98637 34.2999 6.30039 34.6139 6.30039 34.9999C6.30039 35.3859 5.98637 35.6999 5.60039 35.6999Z" fill="#E0F0FE"/>
    <path d="M30.7651 21C30.7651 22.5464 29.4795 23.8 27.8937 23.8C26.8309 23.8 25.903 23.237 25.4065 22.4C25.0223 21.7 23.5867 21.7 23.8279 22.3987L23.8317 22.4C24.423 24.0313 26.0184 25.2001 27.8937 25.2001C30.2724 25.2001 32.2008 23.3196 32.2008 21C32.2008 18.6805 30.2724 16.8 27.8937 16.8C26.0184 16.8 24.423 17.9688 23.8317 19.6C23.8477 20.2866 25.0223 20.3 25.4065 19.6C25.903 18.7631 26.8309 18.2 27.8937 18.2C29.4795 18.2 30.7651 19.4537 30.7651 21Z" fill="#0079D0"/>
    <path d="M34.4322 33.5602C37.3377 29.2477 39.2008 25.2591 39.2008 21.5097C39.2008 15.4292 34.1864 10.5 28.0008 10.5C21.8152 10.5 16.8008 15.4292 16.8008 21.5097C16.8008 27.2966 21.2391 33.6536 27.0986 40.8917C27.3958 41.2588 27.6966 41.6283 28.0008 42C28.3049 41.6283 28.6058 41.2588 28.903 40.8917C29.9841 39.5562 31.0168 38.2508 31.9822 36.9734C32.6057 36.0539 31.561 35.2256 30.8668 36.1273C29.9702 37.3136 29.0103 38.5304 28.0008 39.7809C25.3085 36.4461 22.969 33.3502 21.2431 30.4345C19.2838 27.1244 18.2008 24.1848 18.2008 21.5097C18.2008 16.225 22.5657 11.9 28.0008 11.9C33.4359 11.9 37.8008 16.225 37.8008 21.5097C37.8008 24.1848 36.7177 27.1244 34.7585 30.4345C34.3162 31.1817 33.8335 31.9409 33.315 32.7127C32.8013 33.6181 33.8165 34.2909 34.4322 33.5602Z" fill="#2F3A43"/>
    <path d="M23.8008 38.5C20.0924 39.0941 17.5008 40.4509 17.5008 42.0297C17.5008 44.1559 22.2018 45.8797 28.0008 45.8797C33.7998 45.8797 38.5008 44.1559 38.5008 42.0297C38.5008 40.4509 35.9092 39.0941 32.2008 38.5C31.5008 38.5 31.1508 39.5797 32.2008 39.919C33.2419 40.0973 34.1691 40.3378 34.9435 40.6217C35.8037 40.9371 36.4016 41.2794 36.7586 41.5889C36.9328 41.7399 37.0223 41.8596 37.0649 41.936C37.0854 41.9726 37.0939 41.9971 37.0974 42.0097C37.1006 42.0216 37.1008 42.0273 37.1008 42.0297C37.1008 42.0297 37.1008 42.0329 37.1003 42.0361C37.1001 42.0378 37.0997 42.0398 37.0992 42.0421C37.0988 42.0442 37.0981 42.0468 37.0974 42.0496C37.0939 42.0622 37.0854 42.0867 37.0649 42.1233C37.0223 42.1997 36.9328 42.3194 36.7586 42.4704C36.4016 42.7799 35.8037 43.1222 34.9435 43.4376C33.2342 44.0643 30.7799 44.4797 28.0008 44.4797C25.2217 44.4797 22.7674 44.0643 21.0581 43.4376C20.1979 43.1222 19.5999 42.7799 19.2429 42.4704C19.0688 42.3194 18.9793 42.1997 18.9366 42.1233C18.9162 42.0867 18.9077 42.0622 18.9042 42.0496C18.9009 42.0377 18.9008 42.032 18.9008 42.0297C18.9008 42.0273 18.9009 42.0216 18.9042 42.0097C18.9077 41.9971 18.9162 41.9726 18.9366 41.936C18.9793 41.8596 19.0688 41.7399 19.2429 41.5889C19.5999 41.2794 20.1979 40.9371 21.0581 40.6217C21.8325 40.3378 22.7597 40.0973 23.8008 39.919C24.8419 39.7409 24.8508 38.5297 23.8008 38.5Z" fill="#2F3A43"/>
</svg>
