<svg width="185" height="226" viewBox="0 0 185 226" fill="none" xmlns="http://www.w3.org/2000/svg">
<g clip-path="url(#clip0_11892_15998)">
<rect width="185" height="226" rx="16" fill="#F1F5F9"/>
<path d="M171.588 210H14.4124C14.1845 210 14 209.776 14 209.5C14 209.224 14.1847 209 14.4124 209H171.588C171.815 209 172 209.224 172 209.5C172 209.776 171.815 210 171.588 210Z" fill="#CBD5E1"/>
<path d="M92.5 97C114.868 97 133 78.8675 133 56.5C133 34.1325 114.868 16 92.5 16C70.1325 16 52 34.1325 52 56.5C52 78.8675 70.1325 97 92.5 97Z" fill="#CBD5E1"/>
<path d="M83.8346 45.349L81.4648 47.7188L101.311 67.5653L103.681 65.1956L83.8346 45.349Z" fill="white"/>
<path d="M103.682 47.7291L101.312 45.3594L81.4659 65.206L83.8357 67.5757L103.682 47.7291Z" fill="white"/>
<path d="M135.411 129H49.5892C49.1678 128.999 48.7639 128.835 48.4659 128.543C48.168 128.25 48.0004 127.854 48 127.441V106.559C48.0006 106.146 48.1682 105.749 48.4661 105.457C48.764 105.165 49.1679 105.001 49.5892 105H135.411C135.832 105.001 136.236 105.165 136.534 105.457C136.832 105.749 136.999 106.146 137 106.559V127.441C136.999 127.854 136.832 128.251 136.534 128.543C136.236 128.835 135.832 128.999 135.411 129V129ZM49.5892 105.623C49.3363 105.624 49.0939 105.722 48.9151 105.898C48.7363 106.073 48.6357 106.311 48.6355 106.559V127.441C48.6357 127.689 48.7363 127.927 48.9151 128.102C49.0939 128.278 49.3363 128.376 49.5892 128.377H135.411C135.664 128.376 135.906 128.278 136.085 128.102C136.264 127.927 136.364 127.689 136.364 127.441V106.559C136.364 106.311 136.264 106.073 136.085 105.898C135.906 105.722 135.664 105.624 135.411 105.623H49.5892Z" fill="#CBD5E1"/>
<path d="M76.1282 112.508C75.8331 112.508 75.5501 112.623 75.3415 112.827C75.1328 113.032 75.0156 113.31 75.0156 113.599C75.0156 113.889 75.1328 114.166 75.3415 114.371C75.5501 114.575 75.8331 114.69 76.1282 114.69H128.574C128.869 114.702 129.157 114.597 129.373 114.401C129.59 114.204 129.718 113.931 129.729 113.642C129.74 113.352 129.634 113.07 129.433 112.858C129.233 112.646 128.954 112.52 128.66 112.509C128.643 112.508 128.627 112.508 128.611 112.508L76.1282 112.508Z" fill="#CBD5E1"/>
<path d="M76.1282 119.055C75.8331 119.055 75.5501 119.17 75.3415 119.374C75.1328 119.579 75.0156 119.857 75.0156 120.146C75.0156 120.435 75.1328 120.713 75.3415 120.918C75.5501 121.122 75.8331 121.237 76.1282 121.237H128.574C128.869 121.248 129.157 121.144 129.373 120.947C129.59 120.751 129.718 120.478 129.729 120.188C129.74 119.899 129.634 119.617 129.433 119.405C129.233 119.193 128.954 119.067 128.66 119.056C128.643 119.055 128.627 119.055 128.611 119.055L76.1282 119.055Z" fill="#CBD5E1"/>
<path d="M60.2921 123.415C63.9786 123.415 66.967 120.484 66.967 116.868C66.967 113.252 63.9786 110.32 60.2921 110.32C56.6057 110.32 53.6172 113.252 53.6172 116.868C53.6172 120.484 56.6057 123.415 60.2921 123.415Z" fill="#0079D0"/>
<path d="M57.1 115.648C57.0232 115.648 56.9609 116.137 56.9609 116.74C56.9609 117.342 57.0232 117.831 57.1 117.831H63.6634C63.7403 117.841 63.8037 117.36 63.805 116.758C63.8476 116.383 63.8007 116.003 63.668 115.649H57.1V115.648Z" fill="#CBD5E1"/>
<path d="M135.411 161H49.5892C49.1678 161 48.7639 160.835 48.4659 160.543C48.168 160.251 48.0004 159.854 48 159.441V138.559C48.0006 138.146 48.1682 137.749 48.4661 137.457C48.764 137.165 49.1679 137.001 49.5892 137H135.411C135.832 137.001 136.236 137.165 136.534 137.457C136.832 137.749 136.999 138.146 137 138.559V159.442C136.999 159.855 136.832 160.251 136.534 160.543C136.236 160.835 135.832 160.999 135.411 161ZM49.5892 137.623C49.3363 137.624 49.0939 137.722 48.9151 137.898C48.7363 138.073 48.6357 138.311 48.6355 138.559V159.442C48.6357 159.69 48.7363 159.927 48.9151 160.103C49.0939 160.278 49.3363 160.377 49.5892 160.377H135.411C135.664 160.377 135.906 160.278 136.085 160.103C136.264 159.927 136.364 159.69 136.364 159.442V138.559C136.364 138.311 136.264 138.073 136.085 137.898C135.906 137.722 135.664 137.624 135.411 137.623H49.5892Z" fill="#CBD5E1"/>
<path d="M76.1282 144.609C75.8331 144.609 75.5501 144.724 75.3415 144.929C75.1328 145.134 75.0156 145.411 75.0156 145.701C75.0156 145.99 75.1328 146.268 75.3415 146.472C75.5501 146.677 75.8331 146.792 76.1282 146.792H128.574C128.865 146.79 129.144 146.677 129.351 146.476C129.557 146.276 129.676 146.004 129.681 145.718C129.685 145.433 129.576 145.157 129.376 144.95C129.176 144.743 128.901 144.621 128.611 144.61H76.1282V144.609Z" fill="#CBD5E1"/>
<path d="M76.1282 151.156C75.8331 151.156 75.5501 151.271 75.3415 151.476C75.1328 151.681 75.0156 151.958 75.0156 152.248C75.0156 152.537 75.1328 152.815 75.3415 153.019C75.5501 153.224 75.8331 153.339 76.1282 153.339H128.574C128.865 153.337 129.144 153.224 129.351 153.023C129.557 152.823 129.676 152.551 129.681 152.265C129.685 151.98 129.576 151.704 129.376 151.497C129.176 151.29 128.901 151.168 128.611 151.157H76.1282V151.156Z" fill="#CBD5E1"/>
<path d="M60.2921 155.509C63.9786 155.509 66.967 152.578 66.967 148.962C66.967 145.346 63.9786 142.414 60.2921 142.414C56.6057 142.414 53.6172 145.346 53.6172 148.962C53.6172 152.578 56.6057 155.509 60.2921 155.509Z" fill="#0079D0"/>
<path d="M57.1 147.742C57.0232 147.742 56.9609 148.231 56.9609 148.833C56.9609 149.436 57.0232 149.925 57.1 149.925H63.6634C63.7403 149.935 63.8037 149.454 63.805 148.852C63.8476 148.477 63.8007 148.097 63.668 147.743L57.1 147.742Z" fill="#CBD5E1"/>
<path d="M135.411 193H49.5892C49.1678 192.999 48.7639 192.835 48.4659 192.543C48.168 192.25 48.0004 191.854 48 191.441V170.559C48.0006 170.146 48.1682 169.749 48.4661 169.457C48.764 169.165 49.1679 169.001 49.5892 169H135.411C135.832 169.001 136.236 169.165 136.534 169.457C136.832 169.749 136.999 170.146 137 170.559V191.441C136.999 191.854 136.832 192.251 136.534 192.543C136.236 192.835 135.832 192.999 135.411 193V193ZM49.5892 169.623C49.3363 169.624 49.0939 169.722 48.9151 169.898C48.7363 170.073 48.6357 170.311 48.6355 170.559V191.441C48.6357 191.689 48.7363 191.927 48.9151 192.102C49.0939 192.278 49.3363 192.376 49.5892 192.377H135.411C135.664 192.376 135.906 192.278 136.085 192.102C136.264 191.927 136.364 191.689 136.364 191.441V170.559C136.364 170.311 136.264 170.073 136.085 169.898C135.906 169.722 135.664 169.624 135.411 169.623H49.5892Z" fill="#CBD5E1"/>
<path d="M76.1282 176.633C75.8331 176.633 75.5501 176.748 75.3415 176.952C75.1328 177.157 75.0156 177.435 75.0156 177.724C75.0156 178.014 75.1328 178.291 75.3415 178.496C75.5501 178.7 75.8331 178.815 76.1282 178.815H128.574C128.72 178.821 128.866 178.798 129.003 178.748C129.14 178.699 129.266 178.623 129.373 178.526C129.48 178.428 129.567 178.311 129.628 178.181C129.689 178.05 129.723 177.91 129.729 177.767C129.735 177.623 129.711 177.48 129.661 177.346C129.61 177.211 129.533 177.088 129.433 176.983C129.334 176.878 129.215 176.793 129.082 176.733C128.949 176.673 128.806 176.639 128.66 176.634C128.643 176.633 128.627 176.633 128.611 176.633L76.1282 176.633Z" fill="#CBD5E1"/>
<path d="M76.1282 183.18C75.8331 183.18 75.5501 183.295 75.3415 183.499C75.1328 183.704 75.0156 183.982 75.0156 184.271C75.0156 184.56 75.1328 184.838 75.3415 185.043C75.5501 185.247 75.8331 185.362 76.1282 185.362H128.574C128.72 185.368 128.866 185.345 129.003 185.295C129.14 185.246 129.266 185.17 129.373 185.072C129.48 184.975 129.567 184.858 129.628 184.728C129.689 184.597 129.723 184.457 129.729 184.313C129.735 184.17 129.711 184.027 129.661 183.893C129.61 183.758 129.533 183.635 129.433 183.53C129.334 183.425 129.215 183.34 129.082 183.28C128.949 183.22 128.806 183.186 128.66 183.181C128.643 183.18 128.627 183.18 128.611 183.18H76.1282L76.1282 183.18Z" fill="#CBD5E1"/>
<path d="M60.2921 187.556C63.9786 187.556 66.967 184.625 66.967 181.008C66.967 177.392 63.9786 174.461 60.2921 174.461C56.6057 174.461 53.6172 177.392 53.6172 181.008C53.6172 184.625 56.6057 187.556 60.2921 187.556Z" fill="#0079D0"/>
<path d="M57.1 179.789C57.0232 179.789 56.9609 180.278 56.9609 180.88C56.9609 181.483 57.0232 181.972 57.1 181.972H63.6634C63.7403 181.982 63.8037 181.501 63.805 180.899C63.8476 180.523 63.8007 180.144 63.668 179.789L57.1 179.789Z" fill="#CBD5E1"/>
</g>
<defs>
<clipPath id="clip0_11892_15998">
<rect width="185" height="226" fill="white"/>
</clipPath>
</defs>
</svg>
