<svg width="100" height="101" viewBox="0 0 100 101" fill="none" xmlns="http://www.w3.org/2000/svg">
    <path d="M52.6851 13C73.3957 13 90.1851 29.7893 90.1851 50.5C90.1851 51.1904 89.6254 51.75 88.9351 51.75C88.2447 51.75 87.6851 51.1904 87.6851 50.5C87.6851 31.17 72.015 15.5 52.6851 15.5C33.3551 15.5 17.6851 31.17 17.6851 50.5C17.6851 69.83 33.3551 85.5 52.6851 85.5C66.6285 85.5 79.069 77.2719 84.6581 64.7604C84.9396 64.1301 85.6789 63.8474 86.3092 64.1289C86.9395 64.4105 87.2222 65.1497 86.9407 65.7801C80.9529 79.1841 67.6237 88 52.6851 88C31.9744 88 15.1851 71.2107 15.1851 50.5C15.1851 29.7893 31.9744 13 52.6851 13Z" fill="black"/>
    <path d="M88.9351 61.2407C88.9351 61.9822 88.334 62.5833 87.5925 62.5833C86.851 62.5833 86.2499 61.9822 86.2499 61.2407C86.2499 60.4993 86.851 59.8982 87.5925 59.8982C88.334 59.8982 88.9351 60.4993 88.9351 61.2407Z" fill="black"/>
    <path d="M18.1163 26.7901C17.567 26.3719 16.7828 26.4782 16.3646 27.0275C12.14 32.5767 9.8147 39.3497 9.8147 46.4722C9.8147 47.1626 10.3743 47.7222 11.0647 47.7222C11.7551 47.7222 12.3147 47.1626 12.3147 46.4722C12.3147 39.9015 14.4578 33.6595 18.3538 28.5418C18.7719 27.9925 18.6656 27.2083 18.1163 26.7901Z" fill="black"/>
    <path fill-rule="evenodd" clip-rule="evenodd" d="M69.9957 44.1462C69.1084 33.4992 63.151 28 52.5 28C41.849 28 35.8916 33.4992 35.0043 44.1462C34.9372 44.9519 35.641 45.6084 36.4401 45.4855L38.75 45.1301V45.6762C37.8553 45.8487 37.1957 46.0873 36.7334 46.432C35.561 47.3061 34.9999 48.704 34.9999 50.5C34.9999 53.6904 36.8095 55.5 39.9999 55.5C40.136 55.5 40.267 55.4782 40.3896 55.438C41.7194 58.0166 43.7808 60.1236 46.2856 61.4524C46.2624 61.5478 46.25 61.6474 46.25 61.75C46.25 63.3733 45.4764 64.816 44.2777 65.7294C44.2584 65.7431 44.2395 65.7573 44.2211 65.7719C43.3904 66.3866 42.3626 66.75 41.25 66.75H38.75L38.4688 66.7552C34.457 66.903 31.25 70.202 31.25 74.25C31.25 74.9404 31.8096 75.5 32.5 75.5C33.1904 75.5 33.75 74.9404 33.75 74.25C33.75 71.4886 35.9886 69.25 38.75 69.25H41.25L41.5312 69.2448C42.5767 69.2063 43.5675 68.9538 44.4612 68.5297C45.8014 70.6389 48.273 71.2827 51.5532 70.4627C52.2229 70.2952 52.6301 69.6166 52.4627 68.9468C52.2952 68.2771 51.6166 67.8699 50.9468 68.0373C48.6096 68.6216 47.2446 68.3053 46.5164 67.09C47.7396 65.8835 48.5503 64.2599 48.7178 62.4498C49.9189 62.8081 51.1876 63 52.5 63C53.8124 63 55.0811 62.8081 56.2822 62.4498C56.6266 66.1719 59.6908 69.1056 63.4688 69.2448L63.75 69.25H66.25C69.0114 69.25 71.25 71.4886 71.25 74.25C71.25 74.9404 71.8096 75.5 72.5 75.5C73.1904 75.5 73.75 74.9404 73.75 74.25C73.75 70.202 70.543 66.903 66.5312 66.7552L66.25 66.75H63.75C60.9886 66.75 58.75 64.5114 58.75 61.75C58.75 61.6474 58.7376 61.5478 58.7144 61.4524C61.2192 60.1236 63.2806 58.0166 64.6104 55.4381C64.733 55.4783 64.8639 55.5 65 55.5C68.1904 55.5 70 53.6904 70 50.5C70 48.704 69.4389 47.3061 68.2665 46.432C67.6345 45.9608 66.634 45.6878 65.168 45.5112C65.1146 45.504 65.06 45.5002 65.0047 45.5L65.0026 45.4999C64.882 45.4995 64.7645 45.5165 64.6528 45.5489C64.4727 45.6008 64.3093 45.6922 64.1726 45.813C63.9308 46.0267 63.7723 46.3326 63.7522 46.6757C63.7503 46.707 63.7496 46.7382 63.75 46.7692V48.625L63.7454 48.9697C63.5724 55.3811 58.5904 60.5 52.5 60.5C46.3008 60.5 41.25 55.1967 41.25 48.625V44.7455L52.6901 42.9855L52.8376 42.9536C53.1747 42.859 53.4594 42.6263 53.618 42.309L54.868 39.809L54.9257 39.6749C55.1391 39.0865 54.8824 38.4186 54.309 38.132L54.1749 38.0743C53.5865 37.8609 52.9187 38.1176 52.632 38.691L51.67 40.6125L37.675 42.765L37.6978 42.604C38.9229 34.4388 43.7541 30.5 52.5 30.5L52.9489 30.5035C61.2629 30.6347 65.9326 34.4424 67.2356 42.1855L67.3 42.5988L59.0532 40.5373L58.9097 40.5101C58.2891 40.4294 57.6928 40.8249 57.5373 41.4468C57.3699 42.1166 57.7771 42.7952 58.4468 42.9627L68.4468 45.4627L68.5929 45.4904C69.3677 45.5909 70.0626 44.9496 69.9957 44.1462ZM38.75 48.2376C38.4849 48.3073 38.3079 48.3765 38.2277 48.4363C37.7592 48.7856 37.4999 49.4316 37.4999 50.5C37.4999 52.0898 38.0327 52.8158 39.3891 52.9687C39.0079 51.7099 38.7879 50.3765 38.7545 48.9954L38.75 48.625V48.2376ZM67.5 50.5C67.5 52.0898 66.9672 52.8157 65.6109 52.9687C66.0261 51.5977 66.25 50.1382 66.25 48.625V48.2377C66.5151 48.3073 66.692 48.3765 66.7721 48.4363C67.2407 48.7856 67.5 49.4316 67.5 50.5Z" fill="#0079D0"/>
</svg>
