<svg width="238" height="50" viewBox="0 0 238 50" fill="none" xmlns="http://www.w3.org/2000/svg">
<path fill-rule="evenodd" clip-rule="evenodd" d="M229.004 42.7977C230.281 44.6626 232.588 45.8651 235.127 46C235.185 46 235.591 45.5705 235.563 45.5951C235.91 45.2639 236.244 44.945 236.578 44.6138C236.911 44.2823 237.26 43.9511 237.593 43.6199C237.652 43.5584 237.942 43.2027 238 43.2027C235.461 43.0678 233.154 41.8653 231.877 40C231.92 40.0615 230.542 41.264 230.426 41.3866C230.295 41.5091 228.917 42.6752 229.004 42.7977Z" fill="#711CFF"/>
<path fill-rule="evenodd" clip-rule="evenodd" d="M7 46.2788C8.38661 46.851 9.79284 47.4069 11.1794 47.9791C11.2937 48.0278 13.0033 45.0857 13.0794 45.1184C11.6922 44.5462 10.2866 43.9903 8.89997 43.4186C8.78575 43.3689 7.05711 46.2952 7 46.2788Z" fill="#711CFF"/>
<path fill-rule="evenodd" clip-rule="evenodd" d="M105.037 2.92094C104.597 4.20423 105.126 5.55605 106.419 6.41525C106.624 6.5523 107.624 6.46077 107.903 6.46077C108.255 6.47227 108.593 6.47227 108.946 6.48378C109.02 6.48378 109.328 6.44927 109.387 6.48378C108.094 5.61307 107.55 4.27276 108.006 2.98994C107.947 3.15 105.111 2.73789 105.037 2.92094Z" fill="#711CFF"/>
<path fill-rule="evenodd" clip-rule="evenodd" d="M15.7678 14.0165C16.6585 15.6946 18.6868 16.6692 20.7988 16.4528C20.9227 16.4347 21.2539 15.2799 21.2954 15.1533C21.3369 15.0273 21.6474 13.8543 21.7505 13.8543C19.6391 14.0707 17.6315 13.0966 16.72 11.418C16.8238 11.5988 16.3065 12.5192 16.2235 12.7175C16.1405 12.952 15.6439 13.782 15.7678 14.0165Z" fill="#FF9E2A"/>
<path fill-rule="evenodd" clip-rule="evenodd" d="M134.768 47.0165C135.658 48.6946 137.687 49.6692 139.799 49.4528C139.923 49.4347 140.254 48.2799 140.295 48.1533C140.337 48.0273 140.647 46.8543 140.75 46.8543C138.639 47.0707 136.631 46.0966 135.72 44.418C135.824 44.5988 135.306 45.5192 135.223 45.7175C135.141 45.952 134.644 46.782 134.768 47.0165Z" fill="#FF9E2A"/>
<path fill-rule="evenodd" clip-rule="evenodd" d="M32.8539 0.0651843C31.8917 0.784575 30.9094 1.48863 29.9473 2.20802C30.0075 2.16201 32.1923 3.75416 32.2928 3.67747C33.2549 2.95808 34.2372 2.25403 35.1994 1.53464C35.119 1.58065 32.9543 -0.0114995 32.8539 0.0651843Z" fill="#006CFA"/>
<path fill-rule="evenodd" clip-rule="evenodd" d="M61.9066 40.0027C60.9444 40.7221 59.9622 41.4261 59 42.1455C59.0603 42.0995 61.2451 43.6917 61.3455 43.615C62.3077 42.8956 63.2899 42.1915 64.2521 41.4721C64.1718 41.5181 62.007 39.926 61.9066 40.0027Z" fill="#006CFA"/>
<path fill-rule="evenodd" clip-rule="evenodd" d="M164.971 14.1424C163.8 13.7614 162.63 13.381 161.46 13C161.571 13.037 160.661 15.1431 160.809 15.1957L164.32 16.3381C164.209 16.3005 165.129 14.1874 164.971 14.1424Z" fill="#006CFA"/>
<path fill-rule="evenodd" clip-rule="evenodd" d="M208.423 3.00319C206.373 3.35311 204.699 4.71535 204.003 6.63042C203.908 6.86967 206.41 8.0111 206.335 8.21345C207.05 6.29895 208.705 4.93671 210.755 4.58679C210.567 4.62368 209.777 3.90538 209.589 3.77625C209.401 3.62925 208.686 2.94785 208.423 3.00319Z" fill="#05E4C5"/>
<path fill-rule="evenodd" clip-rule="evenodd" d="M2.33268 16.416C1.55636 17.6131 0.78069 18.8097 0.00436455 20.0063C-0.121082 20.2029 2.50017 21.4652 2.39574 21.6295C3.1714 20.4329 3.94773 19.2358 4.72406 18.0392C4.85016 17.8421 2.20724 16.5798 2.33268 16.416Z" fill="#05E4C5"/>
<path fill-rule="evenodd" clip-rule="evenodd" d="M230.666 0.399414C231.194 1.3744 231.723 2.3498 232.252 3.338C232.313 3.45641 233.492 3.64085 233.675 3.69366C233.878 3.74648 235.057 3.9045 235.118 4.03613C234.589 3.06114 234.061 2.08574 233.533 1.09754C233.472 0.979125 232.293 0.794691 232.11 0.741877C231.906 0.689476 230.727 0.517832 230.666 0.399414Z" fill="#ED1F7D"/>
</svg>
