<?xml version="1.0" encoding="utf-8"?>
<svg viewBox="0 0 142.285 49.802" fill="none" xmlns="http://www.w3.org/2000/svg">
  <path fill-rule="evenodd" clip-rule="evenodd" d="M7 46.2788C8.38661 46.851 9.79284 47.4069 11.1794 47.9791C11.2937 48.0278 13.0033 45.0857 13.0794 45.1184C11.6922 44.5462 10.2866 43.9903 8.89997 43.4186C8.78575 43.3689 7.05711 46.2952 7 46.2788Z" fill="#711CFF" transform="matrix(0.9999999999999999, 0, 0, 0.9999999999999999, 0, -8.881784197001252e-16)"/>
  <path fill-rule="evenodd" clip-rule="evenodd" d="M105.037 2.92094C104.597 4.20423 105.126 5.55605 106.419 6.41525C106.624 6.5523 107.624 6.46077 107.903 6.46077C108.255 6.47227 108.593 6.47227 108.946 6.48378C109.02 6.48378 109.328 6.44927 109.387 6.48378C108.094 5.61307 107.55 4.27276 108.006 2.98994C107.947 3.15 105.111 2.73789 105.037 2.92094Z" fill="#711CFF" transform="matrix(0.9999999999999999, 0, 0, 0.9999999999999999, 0, -8.881784197001252e-16)"/>
  <path fill-rule="evenodd" clip-rule="evenodd" d="M15.7678 14.0165C16.6585 15.6946 18.6868 16.6692 20.7988 16.4528C20.9227 16.4347 21.2539 15.2799 21.2954 15.1533C21.3369 15.0273 21.6474 13.8543 21.7505 13.8543C19.6391 14.0707 17.6315 13.0966 16.72 11.418C16.8238 11.5988 16.3065 12.5192 16.2235 12.7175C16.1405 12.952 15.6439 13.782 15.7678 14.0165Z" fill="#FF9E2A" transform="matrix(0.9999999999999999, 0, 0, 0.9999999999999999, 0, -8.881784197001252e-16)"/>
  <path fill-rule="evenodd" clip-rule="evenodd" d="M134.768 47.0165C135.658 48.6946 137.687 49.6692 139.799 49.4528C139.923 49.4347 140.254 48.2799 140.295 48.1533C140.337 48.0273 140.647 46.8543 140.75 46.8543C138.639 47.0707 136.631 46.0966 135.72 44.418C135.824 44.5988 135.306 45.5192 135.223 45.7175C135.141 45.952 134.644 46.782 134.768 47.0165Z" fill="#FF9E2A" transform="matrix(0.9999999999999999, 0, 0, 0.9999999999999999, 0, -8.881784197001252e-16)"/>
  <path fill-rule="evenodd" clip-rule="evenodd" d="M32.8539 0.0651843C31.8917 0.784575 30.9094 1.48863 29.9473 2.20802C30.0075 2.16201 32.1923 3.75416 32.2928 3.67747C33.2549 2.95808 34.2372 2.25403 35.1994 1.53464C35.119 1.58065 32.9543 -0.0114995 32.8539 0.0651843Z" fill="#006CFA" transform="matrix(0.9999999999999999, 0, 0, 0.9999999999999999, 0, -8.881784197001252e-16)"/>
  <path fill-rule="evenodd" clip-rule="evenodd" d="M61.9066 40.0027C60.9444 40.7221 59.9622 41.4261 59 42.1455C59.0603 42.0995 61.2451 43.6917 61.3455 43.615C62.3077 42.8956 63.2899 42.1915 64.2521 41.4721C64.1718 41.5181 62.007 39.926 61.9066 40.0027Z" fill="#006CFA" transform="matrix(0.9999999999999999, 0, 0, 0.9999999999999999, 0, -8.881784197001252e-16)"/>
  <path fill-rule="evenodd" clip-rule="evenodd" d="M2.33268 16.416C1.55636 17.6131 0.78069 18.8097 0.00436455 20.0063C-0.121082 20.2029 2.50017 21.4652 2.39574 21.6295C3.1714 20.4329 3.94773 19.2358 4.72406 18.0392C4.85016 17.8421 2.20724 16.5798 2.33268 16.416Z" fill="#05E4C5" transform="matrix(0.9999999999999999, 0, 0, 0.9999999999999999, 0, -8.881784197001252e-16)"/>
</svg>