<svg width="30" height="30" viewBox="0 0 30 30" fill="none" xmlns="http://www.w3.org/2000/svg">
<path fill-rule="evenodd" clip-rule="evenodd" d="M18.1797 27.092C23.5433 25.6854 27.5 20.8047 27.5 15C27.5 8.09644 21.9035 2.5 15 2.5C8.09644 2.5 2.5 8.09644 2.5 15C2.5 20.6701 6.27536 25.4586 11.4495 26.9886C9.6133 26.4447 7.95458 25.4888 6.57471 24.2252C6.69971 23.0502 7.44971 21.9002 8.78721 21.0002C12.2122 18.7252 17.8122 18.7252 21.2122 21.0002C22.5497 21.9002 23.2997 23.0502 23.4247 24.2252C21.9527 25.5732 20.1633 26.571 18.1797 27.092ZM15.1499 15.9751C15.0624 15.9626 14.9499 15.9626 14.8499 15.9751C12.6499 15.9001 10.8999 14.1001 10.8999 11.8876C10.8999 9.6251 12.7249 7.7876 14.9999 7.7876C17.2624 7.7876 19.0999 9.6251 19.0999 11.8876C19.0874 14.1001 17.3499 15.9001 15.1499 15.9751Z" fill="white"/>
</svg>
