<svg width="100" height="101" viewBox="0 0 100 101" fill="none" xmlns="http://www.w3.org/2000/svg">
    <path d="M67.632 51.191C68.0684 50.3182 69.2714 50.2722 69.7885 51.0532L69.8681 51.191L84.8681 81.191C85.2617 81.9784 84.74 82.8975 83.8939 82.992L83.75 83H78.75C78.0597 83 77.5 82.4404 77.5 81.75C77.5 81.109 77.9826 80.5806 78.6042 80.5084L78.75 80.5H81.7263L68.75 54.545L55.7725 80.5H73.75C74.3911 80.5 74.9194 80.9825 74.9916 81.6042L75 81.75C75 82.391 74.5175 82.9194 73.8958 82.9916L73.75 83H53.75C52.8697 83 52.2809 82.1223 52.5748 81.3233L52.632 81.191L67.632 51.191Z" fill="#0079D0"/>
    <path d="M68.75 63C69.4404 63 70 63.5596 70 64.25V71.75C70 72.4404 69.4404 73 68.75 73C68.0597 73 67.5 72.4404 67.5 71.75V64.25C67.5 63.5596 68.0597 63 68.75 63Z" fill="#0079D0"/>
    <path d="M70 76.75C70 76.0596 69.4404 75.5 68.75 75.5C68.0597 75.5 67.5 76.0596 67.5 76.75C67.5 77.4404 68.0597 78 68.75 78C69.4404 78 70 77.4404 70 76.75Z" fill="#0079D0"/>
    <path d="M84.9916 24.1042C84.9194 23.4826 84.391 23 83.75 23H16.25L16.1042 23.0084C15.4826 23.0806 15 23.609 15 24.25V81.75L15.0084 81.8958C15.0806 82.5174 15.609 83 16.25 83H46.25L46.3958 82.9916C47.0174 82.9194 47.5 82.391 47.5 81.75L47.4916 81.6042C47.4194 80.9826 46.891 80.5 46.25 80.5H17.5V35.5H63.75L63.8958 35.4916C64.5174 35.4194 65 34.891 65 34.25C65 33.5596 64.4404 33 63.75 33H17.5V25.5H82.5V33H71.25L71.1042 33.0084C70.4826 33.0806 70 33.609 70 34.25C70 34.9404 70.5596 35.5 71.25 35.5H82.5V66.75L82.5084 66.8958C82.5806 67.5174 83.109 68 83.75 68C84.4404 68 85 67.4404 85 66.75V24.25L84.9916 24.1042Z" fill="black"/>
    <path d="M21.25 30.5C20.5608 30.5 20 29.9392 20 29.25C20 28.5607 20.5608 28 21.25 28C21.9392 28 22.5 28.5607 22.5 29.25C22.5 29.9392 21.9392 30.5 21.25 30.5Z" fill="black"/>
    <path d="M25 29.25C25 29.9392 25.5608 30.5 26.25 30.5C26.9392 30.5 27.5 29.9392 27.5 29.25C27.5 28.5607 26.9392 28 26.25 28C25.5608 28 25 28.5607 25 29.25Z" fill="black"/>
    <path d="M31.25 30.5C30.5608 30.5 30 29.9392 30 29.25C30 28.5607 30.5608 28 31.25 28C31.9393 28 32.5 28.5607 32.5 29.25C32.5 29.9392 31.9393 30.5 31.25 30.5Z" fill="black"/>
    <path d="M78.75 28C79.4404 28 80 28.5596 80 29.25C80 29.891 79.5174 30.4194 78.8958 30.4916L78.75 30.5H41.25C40.5596 30.5 40 29.9404 40 29.25C40 28.609 40.4825 28.0806 41.1042 28.0084L41.25 28H78.75Z" fill="black"/>
    <path d="M57.5 44.25C57.5 43.5596 56.9404 43 56.25 43H26.25L26.1042 43.0084C25.4825 43.0806 25 43.609 25 44.25C25 44.9404 25.5596 45.5 26.25 45.5H56.25L56.3958 45.4916C57.0174 45.4194 57.5 44.891 57.5 44.25Z" fill="black"/>
    <path d="M51.25 50.5C51.9404 50.5 52.5 51.0596 52.5 51.75C52.5 52.391 52.0174 52.9194 51.3958 52.9916L51.25 53H26.25C25.5596 53 25 52.4404 25 51.75C25 51.109 25.4825 50.5806 26.1042 50.5084L26.25 50.5H51.25Z" fill="black"/>
    <path d="M45 59.25C45 58.5596 44.4404 58 43.75 58H26.25L26.1042 58.0084C25.4825 58.0806 25 58.609 25 59.25C25 59.9404 25.5596 60.5 26.25 60.5H43.75L43.8958 60.4916C44.5175 60.4194 45 59.891 45 59.25Z" fill="black"/>
</svg>
