<svg width="18" height="21" viewBox="0 0 18 21" fill="none" xmlns="http://www.w3.org/2000/svg">
<path d="M3.80719 10.9284C3.36961 10.6021 3.36961 9.94643 3.80719 9.62009L12.6775 3.00472C13.281 2.55463 14.1201 3.09225 13.9635 3.82864L13.0259 8.23715C12.7403 9.5802 12.7403 10.9683 13.0259 12.3113L13.9635 16.7199C14.1201 17.4562 13.281 17.9939 12.6775 17.5438L3.80719 10.9284Z" fill="#CECECE"/>
<path fill-rule="evenodd" clip-rule="evenodd" d="M3.36822 11.5172C2.53741 10.8976 2.53742 9.65283 3.36822 9.03323L12.2385 2.41786C13.3843 1.5633 14.9776 2.58405 14.6803 3.98218L13.7427 8.3907C13.4784 9.63317 13.4784 10.9173 13.7427 12.1598L14.6803 16.5683C14.9776 17.9664 13.3843 18.9872 12.2385 18.1326L3.36822 11.5172ZM4.24505 10.2089C4.20069 10.242 4.2007 10.3085 4.24505 10.3415L13.1153 16.9569C13.1401 16.9754 13.1541 16.9761 13.1608 16.9762C13.1722 16.9763 13.1901 16.9726 13.2094 16.9602C13.2287 16.9479 13.2395 16.9331 13.2442 16.9228C13.2469 16.9166 13.2521 16.9036 13.2457 16.8734L12.3081 12.4649C12.0011 11.0213 12.0011 9.52922 12.3081 8.0856L13.2457 3.67708C13.2521 3.64684 13.2469 3.63386 13.2442 3.62773C13.2395 3.61733 13.2287 3.60257 13.2094 3.59023C13.1901 3.57788 13.1722 3.57422 13.1608 3.57432C13.1541 3.57438 13.1401 3.57508 13.1153 3.59357L4.24505 10.2089Z" fill="white"/>
</svg>
