<svg width="100" height="101" viewBox="0 0 100 101" fill="none" xmlns="http://www.w3.org/2000/svg">
    <path fill-rule="evenodd" clip-rule="evenodd" d="M20 38.0838C20 35.344 22.2418 33.1173 25 33.1173C27.7582 33.1173 30 35.344 30 38.0838C30 40.8234 27.7581 43.0502 25 43.0502C22.2419 43.0502 20 40.8234 20 38.0838ZM27.5 38.0838C27.5 36.7155 26.3775 35.6005 25 35.6005C23.6225 35.6005 22.5 36.7155 22.5 38.0838C22.5 39.4519 23.6226 40.567 25 40.567C26.3774 40.567 27.5 39.4519 27.5 38.0838Z" fill="#0079D0"/>
    <path fill-rule="evenodd" clip-rule="evenodd" d="M32.5 33.1173C32.5 30.3776 34.7418 28.1509 37.5 28.1509C40.2582 28.1509 42.5 30.3776 42.5 33.1173C42.5 35.8569 40.2581 38.0838 37.5 38.0838C34.7419 38.0838 32.5 35.8569 32.5 33.1173ZM40 33.1173C40 31.7491 38.8775 30.6341 37.5 30.6341C36.1225 30.6341 35 31.7491 35 33.1173C35 34.4855 36.1226 35.6005 37.5 35.6005C38.8774 35.6005 40 34.4855 40 33.1173Z" fill="#0079D0"/>
    <path d="M33.191 33.2484C33.8085 32.9417 34.5593 33.1903 34.868 33.8037C35.1547 34.3732 34.9594 35.0569 34.4356 35.3972L34.309 35.4695L29.309 37.9527C28.6915 38.2593 27.9407 38.0107 27.632 37.3974C27.3453 36.8279 27.5406 36.1442 28.0644 35.8039L28.191 35.7316L33.191 33.2484Z" fill="#0079D0"/>
    <path d="M40.3661 34.7226C40.8167 34.275 41.5258 34.2406 42.0161 34.6193L42.1339 34.7226L47.1339 39.689C47.622 40.1739 47.622 40.9601 47.1339 41.4449C46.6833 41.8925 45.9742 41.9269 45.4839 41.5482L45.3661 41.4449L40.3661 36.4785C39.878 35.9936 39.878 35.2075 40.3661 34.7226Z" fill="#0079D0"/>
    <path fill-rule="evenodd" clip-rule="evenodd" d="M62.5 43.0502C62.5 36.2025 68.1062 30.6341 75 30.6341C81.8938 30.6341 87.5 36.2025 87.5 43.0502C87.5 49.8975 81.8936 55.4663 75 55.4663C68.1064 55.4663 62.5 49.8975 62.5 43.0502ZM85 43.0502C85 37.574 80.5131 33.1173 75 33.1173C69.4869 33.1173 65 37.574 65 43.0502C65 48.5261 69.4871 52.9831 75 52.9831C80.5129 52.9831 85 48.5261 85 43.0502Z" fill="#0079D0"/>
    <path d="M75.0458 36.5091C75.231 35.8485 75.9203 35.4621 76.5853 35.646C79.5097 36.4549 81.7517 38.7332 82.3452 41.5581C82.4863 42.2293 82.0528 42.8871 81.377 43.0272C80.7012 43.1673 80.039 42.7367 79.898 42.0654C79.4998 40.1702 77.958 38.6034 75.9147 38.0383C75.2496 37.8543 74.8606 37.1697 75.0458 36.5091Z" fill="#0079D0"/>
    <path d="M82.4551 50.6662C83.0103 50.3478 83.7091 50.5005 84.0825 50.9995L84.1627 51.1207L91.6627 64.0239C92.6982 65.8054 92.0837 68.0835 90.2901 69.1121C88.5605 70.1039 86.3662 69.5718 85.2832 67.9351L85.1675 67.7487L77.6675 54.8455C77.3223 54.2517 77.5271 53.4923 78.125 53.1494C78.6802 52.8311 79.379 52.9838 79.7524 53.4827L79.8325 53.6039L87.3325 66.5071C87.6777 67.1009 88.4422 67.3044 89.0401 66.9616C89.5952 66.6432 89.8115 65.9657 89.5632 65.3951L89.4976 65.2655L81.9976 52.3623C81.6524 51.7684 81.8573 51.0091 82.4551 50.6662Z" fill="#0079D0"/>
    <path d="M55.691 38.2148C56.3085 37.9082 57.0593 38.1568 57.368 38.7701C57.6547 39.3396 57.4594 40.0234 56.9356 40.3637L56.809 40.4359L54.309 41.6775C53.6915 41.9842 52.9407 41.7356 52.632 41.1223C52.3453 40.5527 52.5406 39.869 53.0644 39.5287L53.191 39.4565L55.691 38.2148Z" fill="#0079D0"/>
    <path fill-rule="evenodd" clip-rule="evenodd" d="M45 40.567C45 37.8273 47.2418 35.6005 50 35.6005C52.7582 35.6005 55 37.8273 55 40.567C55 43.3066 52.7581 45.5334 50 45.5334C47.2419 45.5334 45 43.3066 45 40.567ZM52.5 40.567C52.5 39.1987 51.3775 38.0838 50 38.0838C48.6225 38.0838 47.5 39.1987 47.5 40.567C47.5 41.9351 48.6226 43.0502 50 43.0502C51.3774 43.0502 52.5 41.9351 52.5 40.567Z" fill="#0079D0"/>
    <path d="M73.75 20.7013C74.391 20.7013 74.9194 21.1806 74.9916 21.7981L75 21.9429V24.4261C75 25.1119 74.4404 25.6677 73.75 25.6677C73.109 25.6677 72.5806 25.1884 72.5084 24.5709L72.5 24.4261V23.1845H15V67.8825H72.5V61.6745C72.5 61.0377 72.9826 60.5129 73.6042 60.4412L73.75 60.4328C74.391 60.4328 74.9194 60.9122 74.9916 61.5297L75 61.6745V69.1241C75 69.7609 74.5174 70.2857 73.8958 70.3574L73.75 70.3657H13.75C13.109 70.3657 12.5806 69.8864 12.5084 69.2689L12.5 69.1241V21.9429C12.5 21.3062 12.9826 20.7814 13.6042 20.7097L13.75 20.7013H73.75Z" fill="black"/>
    <path d="M48.75 23.1845C49.391 23.1845 49.9194 22.7052 49.9916 22.0877L50 21.9429V19.4597C50 17.476 48.4389 15.8545 46.4703 15.7412L46.25 15.7349H41.25C39.2529 15.7349 37.6204 17.2855 37.5064 19.2408L37.5 19.4597V21.9429C37.5 22.6286 38.0596 23.1845 38.75 23.1845C39.391 23.1845 39.9194 22.7052 39.9916 22.0877L40 21.9429V19.4597C40 18.823 40.4825 18.2982 41.1042 18.2264L41.25 18.2181H46.25C46.891 18.2181 47.4194 18.6974 47.4916 19.3149L47.5 19.4597V21.9429C47.5 22.6286 48.0596 23.1845 48.75 23.1845Z" fill="black"/>
    <path d="M63.75 67.8825C64.391 67.8825 64.9194 68.3618 64.9916 68.9793L65 69.1241V71.6073C65 73.591 63.4389 75.2126 61.4703 75.3259L61.25 75.3322H26.25C24.2529 75.3322 22.6204 73.7815 22.5064 71.8262L22.5 71.6073V69.1241C22.5 68.4384 23.0596 67.8825 23.75 67.8825C24.391 67.8825 24.9194 68.3618 24.9916 68.9793L25 69.1241V71.6073C25 72.2441 25.4826 72.7689 26.1042 72.8406L26.25 72.849H61.25C61.891 72.849 62.4194 72.3696 62.4916 71.7521L62.5 71.6073V69.1241C62.5 68.4384 63.0596 67.8825 63.75 67.8825Z" fill="black"/>
    <path d="M47.25 73.3456C46.8358 72.797 46.0523 72.6858 45.5 73.0973C44.9902 73.4771 44.8556 74.1694 45.1637 74.7051L45.25 74.8355L52.75 84.7684C53.1642 85.317 53.9477 85.4282 54.5 85.0167C55.0098 84.637 55.1444 83.9446 54.8363 83.4089L54.75 83.2785L47.25 73.3456Z" fill="black"/>
    <path d="M28.75 48.0167C29.391 48.0167 29.9194 48.4961 29.9916 49.1136L30 49.2584V51.7416C30 52.4273 29.4404 52.9832 28.75 52.9832C28.109 52.9832 27.5806 52.5039 27.5084 51.8864L27.5 51.7416V50.5H22.5V60.4328H27.5V56.708C27.5 56.0713 27.9826 55.5465 28.6042 55.4748L28.75 55.4664C29.391 55.4664 29.9194 55.9457 29.9916 56.5632L30 56.708V61.6745C30 62.3112 29.5175 62.836 28.8958 62.9077L28.75 62.9161H21.25C20.609 62.9161 20.0806 62.4368 20.0084 61.8193L20 61.6745V49.2584C20 48.6216 20.4826 48.0968 21.1042 48.0251L21.25 48.0167H28.75Z" fill="black"/>
    <path d="M36.25 43.0503C36.9404 43.0503 37.5 43.6062 37.5 44.2919C37.5 44.9286 37.0175 45.4534 36.3958 45.5252L36.25 45.5335H35V60.4328H40V46.7751C40 46.1384 40.4825 45.6136 41.1042 45.5419L41.25 45.5335C41.891 45.5335 42.4194 46.0128 42.4916 46.6303L42.5 46.7751V61.6745C42.5 62.3112 42.0175 62.836 41.3958 62.9077L41.25 62.9161H33.75C33.109 62.9161 32.5806 62.4368 32.5084 61.8193L32.5 61.6745V44.2919C32.5 43.6552 32.9825 43.1304 33.6042 43.0587L33.75 43.0503H36.25Z" fill="black"/>
    <path d="M48.75 52.9832C49.4404 52.9832 50 53.5391 50 54.2248C50 54.8615 49.5174 55.3863 48.8958 55.458L48.75 55.4664H47.5V60.4328H52.5V54.2248C52.5 53.5881 52.9825 53.0633 53.6042 52.9915L53.75 52.9832C54.391 52.9832 54.9194 53.4625 54.9916 54.08L55 54.2248V61.6745C55 62.3112 54.5175 62.836 53.8958 62.9077L53.75 62.9161H46.25C45.609 62.9161 45.0806 62.4368 45.0084 61.8193L45 61.6745V54.2248C45 53.5881 45.4826 53.0633 46.1042 52.9915L46.25 52.9832H48.75Z" fill="black"/>
    <path d="M58.75 50.5C59.391 50.5 59.9194 50.9793 59.9916 51.5968L60 51.7416V60.4328H65V59.1912C65 58.5545 65.4825 58.0297 66.1042 57.958L66.25 57.9496C66.891 57.9496 67.4194 58.4289 67.4916 59.0464L67.5 59.1912V61.6745C67.5 62.3112 67.0175 62.836 66.3958 62.9077L66.25 62.9161H58.75C58.109 62.9161 57.5806 62.4368 57.5084 61.8193L57.5 61.6745V51.7416C57.5 51.0559 58.0596 50.5 58.75 50.5Z" fill="black"/>
    <path d="M40.25 73.3456C40.6642 72.797 41.4477 72.6858 42 73.0973C42.5098 73.4771 42.6444 74.1694 42.3363 74.7051L42.25 74.8355L34.75 84.7684C34.3358 85.317 33.5523 85.4282 33 85.0167C32.4902 84.637 32.3556 83.9446 32.6637 83.4089L32.75 83.2785L40.25 73.3456Z" fill="black"/>
</svg>
