<svg width="53" height="36" viewBox="0 0 53 36" fill="none" xmlns="http://www.w3.org/2000/svg">
<path d="M49.77 30.8654C50.1696 30.8654 50.5136 31.1684 50.33 31.9354L48.471 32.3666C48.794 31.5041 49.3308 30.8654 49.7607 30.8654H49.77ZM50.7831 33.8561H50.4183C49.9535 34.4063 49.4609 34.8375 48.9659 34.8375C48.471 34.8375 48.2014 34.5368 48.2014 33.8561C48.2025 33.5804 48.2313 33.3055 48.2874 33.0356L51.2688 32.0542C51.8497 30.6719 51.1503 30.0682 50.3393 30.0682C48.9287 30.0682 47.3184 32.4319 47.3184 34.4972C47.3184 35.4296 47.7599 35.9331 48.4477 35.9331C49.2564 35.9331 50.0953 35.1452 50.7715 33.8492L50.7831 33.8561ZM50.1813 29.5111L52.2727 27.546V27.3129H51.141L49.8513 29.5041L50.1813 29.5111ZM43.7467 30.891H44.7366L43.1844 35.1988C43.0449 35.5648 43.2401 35.9331 43.6166 35.9331C44.5089 35.9331 45.952 35.0473 46.4562 33.8352H46.1774C45.7777 34.2571 45.0155 34.8189 44.3579 34.9378L45.8009 30.8887H47.2765L47.4601 30.2733H46.0287L46.5771 28.7208H46.0078L44.9853 30.2733L43.77 30.4458L43.7467 30.891ZM42.4105 30.6859C42.4402 30.6222 42.4542 30.5523 42.4515 30.4821C42.4487 30.4118 42.4292 30.3433 42.3946 30.2821C42.3601 30.221 42.3114 30.169 42.2527 30.1306C42.194 30.0921 42.127 30.0684 42.0573 30.0612C41.1952 30.0612 40.1727 30.8374 39.7638 31.926H40.0728C40.3517 31.5274 40.8257 31.0845 41.2672 31.0076L39.6081 35.3131C39.5755 35.3767 39.5593 35.4476 39.5609 35.5191C39.5624 35.5907 39.5817 35.6607 39.617 35.7229C39.6522 35.7851 39.7024 35.8376 39.7629 35.8755C39.8234 35.9134 39.8924 35.9356 39.9636 35.9401C40.7816 35.9401 41.739 35.1522 42.1479 34.0753H41.8691C41.5879 34.4739 41.1139 34.9168 40.6747 34.9914L42.4105 30.6859ZM42.7126 28.5274C42.8059 28.5277 42.8983 28.5095 42.9846 28.4739C43.0708 28.4383 43.1492 28.386 43.2153 28.3199C43.2814 28.2539 43.3338 28.1754 43.3695 28.089C43.4053 28.0026 43.4237 27.91 43.4237 27.8164C43.4237 27.6272 43.3488 27.4458 43.2154 27.312C43.0821 27.1782 42.9012 27.1031 42.7126 27.1031C42.524 27.1031 42.3432 27.1782 42.2098 27.312C42.0765 27.4458 42.0016 27.6272 42.0016 27.8164C42 27.9104 42.0173 28.0037 42.0525 28.0909C42.0877 28.178 42.1401 28.2571 42.2064 28.3235C42.2728 28.3899 42.3519 28.4421 42.4388 28.4771C42.5258 28.5122 42.6189 28.5293 42.7126 28.5274ZM33.2316 35.1336C33.0178 35.6208 33.2316 35.9331 33.7173 35.9331C34.0077 35.9331 34.1356 35.8562 34.2541 35.5438L35.395 32.5135C35.9225 31.8654 37.0101 31.1754 37.44 31.1754C37.7514 31.1754 37.7095 31.4342 37.505 31.8235L35.7715 35.1988C35.7306 35.2741 35.7098 35.3587 35.7111 35.4445C35.7125 35.5302 35.7359 35.6141 35.7792 35.6881C35.8225 35.762 35.8841 35.8234 35.9581 35.8664C36.0321 35.9093 36.1159 35.9323 36.2014 35.9331C37.0635 35.9331 38.086 35.1545 38.495 34.0683H38.2138C37.9349 34.4669 37.4609 34.9098 37.0194 34.9844L38.5252 31.9307C38.7001 31.6084 38.8002 31.2506 38.818 30.8841C38.8296 30.7753 38.8172 30.6652 38.7815 30.5618C38.7459 30.4584 38.688 30.3641 38.6118 30.2857C38.5357 30.2074 38.4433 30.1468 38.3411 30.1084C38.239 30.07 38.1296 30.0547 38.0209 30.0635C37.2773 30.0635 36.5244 30.905 35.6321 31.94V31.1428C35.6321 30.5694 35.4485 30.0635 34.9349 30.0635C34.6119 30.0635 34.3005 30.3433 34.0054 30.7419V30.8514C34.5631 30.8188 34.8118 31.6603 34.4144 32.5461L33.2316 35.1336ZM33.2107 31.3782C33.4152 30.6789 33.3083 30.0612 32.7692 30.0612C32.1348 30.0612 31.9744 30.5461 31.3284 31.9377V31.1405C31.3284 30.567 31.1449 30.0612 30.6313 30.0612C30.0294 30.0612 29.4694 30.9936 29.0604 31.926H29.3393C29.6297 31.5041 29.8993 31.257 30.1154 31.257C30.3734 31.257 30.5128 31.6556 30.1154 32.5414L28.9535 35.1312C28.7397 35.6184 28.9535 35.9308 29.4392 35.9308C29.7297 35.9308 29.8575 35.8539 29.976 35.5415L31.117 32.5111C31.44 32.1125 31.7304 31.7652 32.0976 31.3782H33.2107ZM26.6042 30.8584C27.0016 30.8584 27.3478 31.1615 27.1642 31.9284L25.3052 32.3596C25.6282 31.4971 26.1673 30.8584 26.5972 30.8584H26.6042ZM27.6197 33.8492H27.292C26.8273 34.3993 26.3346 34.8305 25.8397 34.8305C25.3447 34.8305 25.0775 34.5298 25.0775 33.8492C25.0774 33.5734 25.1062 33.2984 25.1634 33.0286L28.1425 32.0473C28.7235 30.6649 28.024 30.0612 27.213 30.0612C25.8048 30.0612 24.1921 32.4249 24.1921 34.4902C24.1921 35.4226 24.6336 35.9261 25.3215 35.9261C26.1278 35.9261 26.969 35.1382 27.6452 33.8422L27.6197 33.8492ZM20.6205 30.898H21.6104L20.0395 35.1988C19.9001 35.5648 20.093 35.9331 20.4694 35.9331C21.3641 35.9331 22.7932 35.0473 23.3114 33.8352H23.0302C22.6328 34.2571 21.8683 34.8189 21.213 34.9378L22.6445 30.898H24.1201L24.3013 30.2826H22.8768L23.4253 28.7302H22.8583L21.8358 30.2826L20.6205 30.4551V30.898ZM15.1875 34.2664C15.1875 32.94 16.6607 31.1381 17.4903 31.1381C17.6605 31.1365 17.83 31.1576 17.9946 31.2011L17.1348 33.5018C16.6398 34.1056 15.8753 34.8398 15.5081 34.8398C15.3036 34.8398 15.1758 34.6674 15.1758 34.2664H15.1875ZM19.7049 29.8374L19.2541 29.8048L18.7475 30.3013H18.6406C16.1867 30.3013 14.0674 33.0659 14.0674 35.073C14.0568 35.1918 14.0722 35.3114 14.1127 35.4236C14.1531 35.5358 14.2176 35.6377 14.3016 35.7221C14.3856 35.8066 14.487 35.8715 14.5987 35.9124C14.7104 35.9533 14.8296 35.9691 14.9481 35.9588C15.5848 35.9588 16.2076 35.052 16.907 34.0799L16.8745 34.4249C16.7885 35.418 17.0906 35.9588 17.6065 35.9588C18.2084 35.9588 18.7684 35.0263 19.1774 34.0939H18.8985C18.6197 34.4995 18.3501 34.7326 18.134 34.7326C17.9179 34.7326 17.7483 34.3224 18.134 33.4482L19.7049 29.8374ZM14.4764 31.4039C14.6809 30.7046 14.5717 30.0868 14.0349 30.0868C13.4005 30.0868 13.2378 30.5717 12.5918 31.9633V31.1661C12.5918 30.5927 12.4105 30.0868 11.8947 30.0868C11.2928 30.0868 10.7328 31.0193 10.3238 31.9517H10.605C10.8954 31.5298 11.1627 31.2827 11.3788 31.2827C11.6367 31.2827 11.7761 31.6813 11.3788 32.5671L10.2169 35.1569C10.0008 35.6441 10.2169 35.9564 10.7002 35.9564C10.7635 35.9674 10.8283 35.9655 10.8908 35.9509C10.9534 35.9364 11.0124 35.9094 11.0643 35.8716C11.1163 35.8338 11.1602 35.7859 11.1935 35.7308C11.2267 35.6758 11.2486 35.6145 11.2579 35.5508L12.3989 32.5205C12.7219 32.1218 13.0124 31.7745 13.3772 31.3876L14.4764 31.4039ZM6.24555 35.7233L6.35244 35.39C4.92099 35.1196 4.72579 35.1196 5.30906 33.5531L5.89001 31.9447H7.4725C8.18126 31.9447 8.19287 32.2361 8.08366 33.0146H8.49264L9.44074 30.4132H9.03176C8.67622 31.0286 8.39737 31.4808 7.62122 31.4808H6.06197L6.88923 29.2034C7.1495 28.4807 7.29822 28.3292 8.26724 28.3292H8.96437C9.9636 28.3292 10.0821 28.5996 10.0821 29.6136H10.4795L10.8141 27.8444H4.86754L4.75136 28.1777C5.90163 28.4108 6.00852 28.525 5.47173 30.0146L4.189 33.5531C3.65221 35.0333 3.42448 35.1522 2.0976 35.39L2 35.7233H6.24555Z" fill="black"/>
<path d="M35.3625 17.3733C35.7599 17.3733 36.1061 17.6763 35.9226 18.4409L34.0635 18.8745C34.3865 18.0097 34.9256 17.3733 35.3555 17.3733H35.3625ZM36.378 20.364H36.0132C35.5484 20.9141 35.0535 21.3454 34.5585 21.3454C34.0635 21.3454 33.7963 21.0424 33.7963 20.364C33.7972 20.0883 33.826 19.8134 33.8823 19.5435L36.8614 18.5598C37.4423 17.1798 36.7428 16.5737 35.9318 16.5737C34.5236 16.5737 32.9109 18.9374 32.9109 21.0027C32.9109 21.9352 33.3524 22.4363 34.0403 22.4363C34.8466 22.4363 35.6878 21.6484 36.3641 20.3547L36.378 20.364ZM35.7715 16.0143L37.8629 14.0492V13.8161H36.7336L35.4415 16.0073L35.7715 16.0143ZM29.337 17.3966H30.3269L28.756 21.7044C28.6166 22.0703 28.8095 22.4363 29.1859 22.4363C30.0806 22.4363 31.5213 21.5529 32.0279 20.3384H31.7467C31.3493 20.7603 30.5848 21.3198 29.9295 21.4386L31.3703 17.3919H32.8691L33.0527 16.7765H31.6212L32.1696 15.2217H31.598L30.5755 16.7765L29.3602 16.949L29.337 17.3966ZM28.0031 17.1915C28.0327 17.1274 28.0467 17.0572 28.0438 16.9867C28.0409 16.9162 28.0212 16.8474 27.9864 16.786C27.9516 16.7247 27.9027 16.6726 27.8438 16.634C27.7848 16.5955 27.7176 16.5716 27.6476 16.5644C26.7878 16.5644 25.7653 17.343 25.3563 18.4292H25.6654C25.9466 18.0306 26.4183 17.5877 26.8598 17.5131L25.2006 21.8209C25.168 21.8845 25.1517 21.9552 25.1532 22.0266C25.1547 22.0981 25.174 22.168 25.2094 22.2301C25.2447 22.2922 25.2949 22.3444 25.3555 22.382C25.416 22.4197 25.485 22.4416 25.5562 22.4457C26.3741 22.4457 27.3315 21.6578 27.7405 20.5808H27.4593C27.1805 20.9818 26.7064 21.4247 26.2649 21.4992L28.0031 17.1915ZM28.3052 15.0329C28.4458 15.0329 28.5833 14.9911 28.7002 14.9127C28.8172 14.8343 28.9083 14.7229 28.9621 14.5926C29.016 14.4622 29.03 14.3188 29.0026 14.1804C28.9752 14.0421 28.9074 13.915 28.808 13.8152C28.7086 13.7155 28.5819 13.6475 28.4439 13.62C28.306 13.5925 28.163 13.6066 28.0331 13.6606C27.9031 13.7146 27.7921 13.806 27.714 13.9233C27.6358 14.0406 27.5941 14.1785 27.5941 14.3196C27.5938 14.4134 27.612 14.5063 27.6476 14.5929C27.6832 14.6796 27.7356 14.7584 27.8017 14.8247C27.8678 14.891 27.9463 14.9435 28.0327 14.9792C28.1191 15.015 28.2117 15.0332 28.3052 15.0329ZM22.6003 21.4969L25.6026 13.6063L25.505 13.4874L23.6228 13.7042V13.9373L23.9899 14.217C24.3222 14.4758 24.2223 14.7252 23.9132 15.5248L21.5686 21.7137C21.5275 21.7888 21.5065 21.8733 21.5078 21.959C21.5091 22.0447 21.5326 22.1285 21.576 22.2023C21.6193 22.2761 21.6811 22.3374 21.7551 22.38C21.8292 22.4227 21.9131 22.4453 21.9985 22.4457C22.8583 22.4457 23.7738 21.6694 24.1828 20.5808H23.9016C23.5839 21.0258 23.1252 21.3496 22.6003 21.4992V21.4969ZM16.8978 20.765C16.8978 19.4363 18.371 17.6344 19.2006 17.6344C19.3717 17.6321 19.5422 17.6541 19.7072 17.6996L18.8451 19.998C18.3501 20.6041 17.5856 21.3361 17.2324 21.3361C17.0279 21.3361 16.8978 21.1636 16.8978 20.765ZM21.4268 16.336L20.976 16.3033L20.4694 16.7835H20.3625C17.9086 16.7835 15.7893 19.5528 15.7893 21.5622C15.779 21.681 15.7948 21.8007 15.8355 21.9127C15.8763 22.0248 15.941 22.1265 16.0252 22.2107C16.1094 22.2949 16.211 22.3596 16.3228 22.4002C16.4346 22.4408 16.5539 22.4563 16.6724 22.4457C17.3067 22.4457 17.9318 21.5389 18.6313 20.5691L18.5988 20.9141C18.5128 21.9072 18.8126 22.4457 19.3284 22.4457C19.9326 22.4457 20.4903 21.5132 20.9016 20.5808H20.6205C20.33 21.0027 20.0604 21.2498 19.8466 21.2498C19.6328 21.2498 19.4586 20.8396 19.8466 19.9654L21.4268 16.336ZM10.4725 23.4946C10.4725 22.9212 11.0232 22.5622 11.8087 22.2522C12.186 22.4249 12.5741 22.5728 12.9706 22.6951C13.7885 22.9655 14.0999 23.0727 14.0999 23.3221C14.0999 23.8489 13.2076 24.2545 11.9899 24.2545C10.9698 24.2545 10.4725 24.0378 10.4725 23.4993V23.4946ZM12.701 20.0027C12.3455 20.0027 12.206 19.6997 12.206 19.3547C12.206 18.3943 12.7219 16.9793 13.5306 16.9793C13.8838 16.9793 14.0256 17.2824 14.0256 17.6274C14.0256 18.5878 13.5074 20.0027 12.701 20.0027ZM15.0248 22.9608C15.0248 22.2615 14.4113 22.0284 13.4098 21.7184C12.55 21.4596 12.1619 21.385 12.1619 21.103C12.1619 20.8699 12.3455 20.6064 12.7103 20.4036C13.3261 20.3577 13.9035 20.0858 14.3321 19.6399C14.7608 19.194 15.0107 18.6053 15.0341 17.9863C15.0362 17.7821 14.9959 17.5796 14.9156 17.3919H16.11L16.2913 16.7765H14.4113C14.1819 16.6354 13.9182 16.5604 13.6491 16.5597C13.0121 16.5668 12.4019 16.8179 11.9435 17.2617C11.4851 17.7055 11.2132 18.3084 11.1836 18.9467C11.1691 19.2839 11.2766 19.6149 11.4863 19.8788C11.6959 20.1427 11.9937 20.3217 12.3246 20.3827C11.6274 20.695 11.237 21.061 11.237 21.4946C11.233 21.6083 11.2575 21.7213 11.3082 21.8231C11.359 21.9249 11.4344 22.0123 11.5275 22.0773C9.9148 22.5436 9.27808 23.0914 9.27808 23.8583C9.27808 24.6252 10.2587 24.9422 11.4206 24.9422C13.3888 24.9422 15.0364 23.8723 15.0364 22.9771L15.0248 22.9608ZM7.51433 18.3453C8.22541 18.3453 8.2347 18.6367 8.12781 19.4129H8.5368L9.48257 16.8115H9.07591C8.72037 17.4269 8.4392 17.8814 7.66538 17.8814H6.1038L6.88923 15.7112C7.1495 14.9886 7.29822 14.8464 8.26724 14.8464H8.96437C9.9636 14.8464 10.0821 15.1168 10.0821 16.1215H10.4795L10.8141 14.3499H4.86755L4.75136 14.6856C5.90163 14.9187 6.00852 15.0306 5.47173 16.5201L4.189 20.061C3.65221 21.5389 3.42448 21.6578 2.0976 21.8955L2 22.2312H8.61116L9.79628 20.3524H9.34315C8.59024 21.0657 7.64446 21.751 6.32223 21.751C4.56778 21.751 4.73044 21.6764 5.31139 20.068L5.93416 18.3523L7.51433 18.3453ZM8.37645 13.8231L10.4679 12.3755V12.1424H9.20372L8.04183 13.8161L8.37645 13.8231Z" fill="black"/>
<path d="M34.6631 3.8812C35.0604 3.8812 35.4067 4.18191 35.2231 4.94882L33.3641 5.38006C33.6871 4.51757 34.2262 3.8812 34.6561 3.8812H34.6631ZM35.6785 6.86961H35.3114C34.8466 7.42206 34.354 7.85331 33.859 7.85331C33.3641 7.85331 33.0968 7.55027 33.0968 6.86961C33.0969 6.59384 33.1258 6.31884 33.1828 6.04908L36.1619 5.0677C36.7428 3.68539 36.0434 3.08165 35.2324 3.08165C33.8242 3.08165 32.2115 5.44533 32.2115 7.51064C32.2115 8.44306 32.653 8.94657 33.3408 8.94657C34.1472 8.94657 34.9884 8.15868 35.6762 6.86261L35.6785 6.86961ZM35.0837 2.52452L37.1751 0.559451V0.326346H36.0457L34.7537 2.51753L35.0837 2.52452ZM28.9187 3.91384H29.7041L28.1332 8.21929C27.9938 8.58759 28.1867 8.95357 28.5631 8.95357C29.4555 8.95357 30.8869 8.06777 31.4051 6.85562H31.1239C30.7266 7.27521 29.962 7.83699 29.3067 7.95588L30.7475 3.90917H32.2231L32.4043 3.29378H30.9729L31.5236 1.73896H30.952L29.9295 3.29378L28.9187 3.46627V3.91384ZM28.1448 4.39869C28.3493 3.69938 28.2401 3.08165 27.7033 3.08165C27.0666 3.08165 26.9063 3.56651 26.2603 4.96047V4.16093C26.2603 3.58982 26.0767 3.08165 25.5631 3.08165C24.9613 3.08165 24.4012 4.01407 23.9923 4.94649H24.2711C24.5616 4.5269 24.8288 4.27748 25.0449 4.27748C25.3029 4.27748 25.4423 4.67608 25.0449 5.56188L23.883 8.15168C23.6669 8.63887 23.883 8.95123 24.3664 8.95123C24.4889 8.96833 24.6133 8.93742 24.7137 8.86493C24.8141 8.79243 24.8828 8.68393 24.9055 8.56195L26.0465 5.53159C26.3672 5.13298 26.66 4.78798 27.0248 4.39869H28.1448ZM21.536 3.8812C21.9357 3.8812 22.2796 4.18191 22.0961 4.94882L20.237 5.38006C20.56 4.51757 21.0968 3.8812 21.5267 3.8812H21.536ZM22.5492 6.86961H22.2029C21.7382 7.42206 21.2455 7.85331 20.7506 7.85331C20.2556 7.85331 19.9861 7.55027 19.9861 6.86961C19.9872 6.5939 20.016 6.31901 20.072 6.04908L23.0534 5.0677C23.6344 3.68539 22.9349 3.08165 22.1239 3.08165C20.7134 3.08165 19.103 5.44533 19.103 7.51064C19.103 8.44306 19.5445 8.94657 20.2324 8.94657C21.0411 8.94657 21.8799 8.15868 22.5562 6.86261L22.5492 6.86961ZM15.2502 8.07243C14.9597 8.07243 14.5391 7.80203 14.5391 7.56426C14.6161 7.28107 14.7132 7.00375 14.8296 6.73441L15.3153 5.45C15.8311 4.8346 16.6166 4.17491 17.0581 4.17491C17.3277 4.17491 17.5229 4.34741 17.5229 4.74835C17.5229 5.91387 16.4237 8.07243 15.2409 8.07243H15.2502ZM18.6313 4.27281C18.6313 3.39867 18.3083 3.07466 17.7018 3.07466C16.9489 3.07466 16.2401 3.87421 15.529 4.84392L17.3253 0.107226L17.2533 0L15.3687 0.21446V0.447565L15.7359 0.72962C16.0682 0.988366 15.9682 1.25877 15.6592 2.03501L13.7235 7.04443C13.5938 7.34033 13.4896 7.64682 13.4121 7.96054C13.4121 8.48036 14.1092 8.96522 14.7459 8.96522C16.2099 8.96522 18.6522 6.32181 18.6522 4.29146L18.6313 4.27281ZM12.7986 3.72035C12.8282 3.65633 12.8422 3.58613 12.8393 3.51561C12.8364 3.44509 12.8167 3.37628 12.7819 3.31493C12.7471 3.25358 12.6982 3.20145 12.6393 3.1629C12.5803 3.12435 12.5131 3.10049 12.4431 3.0933C11.5809 3.0933 10.5585 3.86954 10.1518 4.95814H10.4307C10.7095 4.55953 11.1836 4.11663 11.6251 4.03971L9.97754 8.33816C9.94761 8.40106 9.93333 8.47029 9.9359 8.53993C9.93848 8.60957 9.95785 8.67755 9.99234 8.73804C10.0268 8.79853 10.0754 8.84974 10.134 8.88727C10.1925 8.92481 10.2592 8.94755 10.3284 8.95357C11.1464 8.95357 12.1038 8.16567 12.5128 7.08873H12.2339C11.9551 7.485 11.4903 7.92557 11.0442 8.00483L12.7986 3.72035ZM13.0984 1.55947C13.193 1.56042 13.2869 1.54234 13.3745 1.5063C13.462 1.47027 13.5415 1.41699 13.6082 1.34964C13.6749 1.28228 13.7275 1.20221 13.7629 1.11414C13.7982 1.02606 13.8157 0.93178 13.8141 0.836846C13.8123 0.648232 13.7368 0.467861 13.6038 0.334484C13.4709 0.201107 13.291 0.125368 13.103 0.123545C13.0098 0.123545 12.9174 0.142012 12.8313 0.177888C12.7451 0.213763 12.6669 0.266339 12.601 0.332606C12.5352 0.398873 12.483 0.477525 12.4476 0.564053C12.4121 0.650581 12.394 0.743284 12.3943 0.836846C12.3927 0.930647 12.41 1.02381 12.445 1.11078C12.4801 1.19775 12.5322 1.27676 12.5984 1.34309C12.6645 1.40943 12.7432 1.46174 12.8299 1.49691C12.9166 1.53208 13.0095 1.5494 13.103 1.54782L13.0984 1.55947ZM8.76685 0.848506H4.84663L4.73741 1.18417C5.8993 1.41728 5.9969 1.52917 5.46011 3.01871L4.189 6.5689C3.65221 8.04678 3.42448 8.16567 2.0976 8.40343L2 8.73678H7.96747L9.25717 6.42903H8.80635C8.07436 7.23791 7.21224 8.25192 5.89001 8.25192C4.88846 8.25192 4.76995 8.07942 5.30906 6.5689L6.57785 3.03037C7.10535 1.55015 7.34237 1.43127 8.66925 1.19583L8.76685 0.848506Z" fill="black"/>
</svg>
