<svg width="151" height="121" viewBox="0 0 151 121" fill="none" xmlns="http://www.w3.org/2000/svg">
<path d="M79.6052 112.246C66.5354 112.246 54.2022 108.163 43.939 100.439L44.252 100.055C54.4252 107.711 66.6501 111.759 79.6052 111.759C92.5705 111.759 104.803 107.706 114.98 100.038L115.294 100.422C105.026 108.157 92.6852 112.246 79.6052 112.246Z" fill="#3F3D56"/>
<path d="M137.695 95.6889C138.202 95.7205 138.482 95.0947 138.099 94.7301L138.061 94.5794C138.066 94.5673 138.071 94.5552 138.076 94.5432C138.588 93.3287 140.324 93.3371 140.832 94.5534C141.283 95.6329 141.857 96.7142 141.998 97.8556C142.062 98.3595 142.033 98.8728 141.921 99.3672C142.977 97.0731 143.533 94.5679 143.533 92.0486C143.533 91.4157 143.498 90.7827 143.427 90.1513C143.368 89.6348 143.288 89.1215 143.183 88.6129C142.618 85.8637 141.393 83.2453 139.627 81.0582C138.779 80.5968 138.071 79.8757 137.643 79.0113C137.489 78.6995 137.369 78.3641 137.312 78.0224C137.409 78.035 137.676 76.5722 137.603 76.4825C137.738 76.2794 137.979 76.1784 138.126 75.9802C138.857 74.9945 139.865 75.1666 140.391 76.5061C141.514 77.0699 141.525 78.0049 140.836 78.9042C140.397 79.4763 140.337 80.2504 139.952 80.8629C139.992 80.9133 140.033 80.9621 140.072 81.0125C140.799 81.9384 141.427 82.9335 141.956 83.979C141.806 82.8171 142.027 81.4173 142.404 80.515C142.832 79.4869 143.636 78.621 144.343 77.7322C145.193 76.6646 146.936 77.1305 147.086 78.4838C147.087 78.4969 147.089 78.51 147.09 78.5231C146.985 78.5821 146.882 78.6447 146.781 78.7108C146.208 79.088 146.406 79.9721 147.086 80.0764L147.101 80.0788C147.063 80.4551 146.998 80.8283 146.903 81.1952C147.811 84.6851 145.851 85.9562 143.053 86.0133C142.991 86.0448 142.931 86.0763 142.869 86.1062C143.153 86.8998 143.379 87.7139 143.547 88.5389C143.698 89.2679 143.802 90.0048 143.861 90.7449C143.934 91.6786 143.927 92.617 143.848 93.5492L143.853 93.5161C144.054 92.4895 144.615 91.5306 145.429 90.8661C146.641 89.8757 148.355 89.511 149.663 88.7149C150.293 88.3317 151.1 88.8269 150.99 89.5528L150.985 89.5876C150.79 89.6663 150.6 89.7577 150.416 89.86C150.311 89.9189 150.208 89.9816 150.107 90.0477C149.534 90.4249 149.732 91.309 150.412 91.4133L150.427 91.4157C150.438 91.4172 150.448 91.4188 150.459 91.4204C150.125 92.2092 149.659 92.9414 149.076 93.5728C148.509 96.6194 146.071 96.9085 143.463 96.0213H143.462C143.177 97.2557 142.76 98.4618 142.225 99.6113H137.806C137.79 99.5625 137.776 99.5121 137.762 99.4632C138.17 99.4885 138.582 99.4648 138.984 99.3908C138.657 98.9909 138.329 98.5878 138.001 98.1879C137.993 98.18 137.987 98.1721 137.98 98.1642C137.814 97.9596 137.646 97.7564 137.48 97.5517L137.48 97.5515C137.469 96.9231 137.545 96.2968 137.695 95.689L137.695 95.6889Z" fill="#F2F2F2"/>
<path d="M13.3143 95.6889C12.8078 95.7205 12.5278 95.0947 12.911 94.7301L12.9492 94.5794C12.9442 94.5673 12.9391 94.5552 12.934 94.5432C12.4217 93.3287 10.6855 93.3371 10.1776 94.5534C9.72675 95.6329 9.15276 96.7142 9.01144 97.8556C8.94808 98.3595 8.97658 98.8728 9.08904 99.3672C8.03268 97.0731 7.47678 94.5679 7.47678 92.0486C7.47678 91.4157 7.51163 90.7827 7.58289 90.1513C7.64149 89.6348 7.72226 89.1215 7.8268 88.6129C8.39218 85.8637 9.61643 83.2453 11.3823 81.0582C12.2312 80.5968 12.9391 79.8757 13.3667 79.0113C13.5204 78.6995 13.6407 78.3641 13.6977 78.0224C13.6011 78.035 13.3335 76.5722 13.4063 76.4825C13.2717 76.2794 13.0307 76.1784 12.8837 75.9802C12.1524 74.9945 11.1449 75.1666 10.6189 76.5061C9.49534 77.0699 9.48446 78.0049 10.1739 78.9042C10.6125 79.4763 10.6728 80.2504 11.0576 80.8629C11.018 80.9133 10.9769 80.9621 10.9373 81.0125C10.2112 81.9384 9.58322 82.9335 9.05383 83.979C9.20345 82.8171 8.98256 81.4173 8.60599 80.515C8.17732 79.4869 7.37385 78.621 6.6663 77.7322C5.81642 76.6646 4.07365 77.1305 3.92392 78.4838C3.92247 78.4969 3.92106 78.51 3.91968 78.5231C4.02477 78.5821 4.12773 78.6447 4.2283 78.7108C4.80196 79.088 4.6037 79.9721 3.92399 80.0764L3.90859 80.0788C3.94661 80.4551 4.01154 80.8283 4.10656 81.1952C3.19886 84.6851 5.15852 85.9562 7.95664 86.0133C8.01841 86.0448 8.0786 86.0763 8.14037 86.1062C7.85687 86.8998 7.63039 87.7139 7.46252 88.5389C7.31207 89.2679 7.20753 90.0048 7.14894 90.7449C7.07608 91.6786 7.08242 92.617 7.16161 93.5492L7.15686 93.5161C6.95573 92.4895 6.39508 91.5306 5.58102 90.8661C4.36833 89.8757 2.65503 89.511 1.34675 88.7149C0.716986 88.3317 -0.0900147 88.8269 0.0198961 89.5528L0.0252465 89.5876C0.220045 89.6663 0.410089 89.7577 0.593807 89.86C0.698902 89.9189 0.801858 89.9816 0.902432 90.0477C1.47609 90.4249 1.27783 91.309 0.598115 91.4133L0.582711 91.4157C0.571628 91.4172 0.562121 91.4188 0.551053 91.4204C0.885223 92.2092 1.35083 92.9414 1.93365 93.5728C2.50121 96.6194 4.9389 96.9085 7.54646 96.0213H7.54805C7.83312 97.2557 8.24965 98.4618 8.78496 99.6113H13.2036C13.2195 99.5625 13.2337 99.5121 13.248 99.4632C12.8394 99.4885 12.4276 99.4648 12.0253 99.3908C12.3531 98.9909 12.681 98.5878 13.0088 98.1879C13.0167 98.18 13.0231 98.1721 13.0294 98.1642C13.1957 97.9596 13.3636 97.7564 13.5299 97.5517L13.5299 97.5515C13.5404 96.9231 13.4646 96.2968 13.3145 95.689L13.3143 95.6889Z" fill="#F2F2F2"/>
<path d="M36.9439 100.225L36.7378 100.465C28.69 93.6412 24.0742 83.7004 24.0742 73.1917C24.0742 63.6192 27.8235 54.6199 34.6314 47.8514C41.4393 41.083 50.4911 37.3555 60.1194 37.3555C69.7477 37.3555 78.7995 41.083 85.6074 47.8514C92.4153 54.6199 96.1646 63.6192 96.1646 73.1917C96.1646 83.7004 91.5489 93.6412 83.501 100.465L83.2949 100.225" fill="#F2F2F2"/>
<path d="M115.842 100.086L115.524 99.7151C127.842 89.2702 134.907 74.0545 134.907 57.9698C134.907 27.7246 110.157 3.11843 79.7359 3.11843C49.3143 3.11843 24.5646 27.7246 24.5646 57.9698C24.5646 74.0545 31.6295 89.2702 43.9478 99.7151L43.6296 100.086C31.2019 89.5483 24.0742 74.1976 24.0742 57.9698C24.0742 43.1877 29.864 29.2909 40.3768 18.8389C50.8897 8.38704 64.8676 2.63086 79.7359 2.63086C94.6041 2.63086 108.582 8.38704 119.095 18.8389C129.608 29.2909 135.397 43.1877 135.397 57.9698C135.397 74.1976 128.27 89.5483 115.842 100.086V100.086Z" fill="#3F3D56"/>
<path d="M96.856 99.9883C96.856 100.149 96.9859 100.278 97.1478 100.278H150.674C150.835 100.278 150.965 100.149 150.965 99.9883C150.965 99.8275 150.835 99.6982 150.674 99.6982H97.1478C96.9859 99.6982 96.856 99.8275 96.856 99.9883Z" fill="#CCCCCC"/>
<path d="M79.9811 2.875H79.4907V19.794H79.9811V2.875Z" fill="#3F3D56"/>
<path d="M41.6553 57.165H24.6377V57.6526H41.6553V57.165Z" fill="#3F3D56"/>
<path d="M43.4049 16.3274L43.0249 16.6357L53.7847 29.7435L54.1647 29.4352L43.4049 16.3274Z" fill="#3F3D56"/>
<path d="M48.1647 79.9047L34.9829 90.6055L35.293 90.983L48.4748 80.2822L48.1647 79.9047Z" fill="#3F3D56"/>
<path d="M134.834 57.165H117.816V57.6526H134.834V57.165Z" fill="#3F3D56"/>
<path d="M116.066 16.3271L105.307 29.4355L105.687 29.7438L116.446 16.6354L116.066 16.3271Z" fill="#3F3D56"/>
<path d="M111.306 79.9065L110.996 80.2842L124.18 90.9818L124.49 90.6042L111.306 79.9065Z" fill="#3F3D56"/>
<path d="M79.7359 63.0894C83.5277 63.0894 86.6016 60.0333 86.6016 56.2634C86.6016 52.4936 83.5277 49.4375 79.7359 49.4375C75.944 49.4375 72.8701 52.4936 72.8701 56.2634C72.8701 60.0333 75.944 63.0894 79.7359 63.0894Z" fill="#3F3D56"/>
<path d="M111.367 82.3483C112.721 82.3483 113.819 81.2569 113.819 79.9105C113.819 78.5641 112.721 77.4727 111.367 77.4727C110.013 77.4727 108.915 78.5641 108.915 79.9105C108.915 81.2569 110.013 82.3483 111.367 82.3483Z" fill="#3F3D56"/>
<path d="M116.762 60.4079C118.116 60.4079 119.214 59.3164 119.214 57.9701C119.214 56.6237 118.116 55.5322 116.762 55.5322C115.407 55.5322 114.31 56.6237 114.31 57.9701C114.31 59.3164 115.407 60.4079 116.762 60.4079Z" fill="#3F3D56"/>
<path d="M104.992 32.1286C106.346 32.1286 107.444 31.0371 107.444 29.6908C107.444 28.3444 106.346 27.2529 104.992 27.2529C103.638 27.2529 102.54 28.3444 102.54 29.6908C102.54 31.0371 103.638 32.1286 104.992 32.1286Z" fill="#3F3D56"/>
<path d="M79.4906 22.8649C80.8448 22.8649 81.9427 21.7735 81.9427 20.4271C81.9427 19.0807 80.8448 17.9893 79.4906 17.9893C78.1364 17.9893 77.0386 19.0807 77.0386 20.4271C77.0386 21.7735 78.1364 22.8649 79.4906 22.8649Z" fill="#3F3D56"/>
<path d="M54.2343 32.1286C55.5885 32.1286 56.6863 31.0371 56.6863 29.6908C56.6863 28.3444 55.5885 27.2529 54.2343 27.2529C52.88 27.2529 51.7822 28.3444 51.7822 29.6908C51.7822 31.0371 52.88 32.1286 54.2343 32.1286Z" fill="#3F3D56"/>
<path d="M41.7289 59.6765C43.0831 59.6765 44.181 58.585 44.181 57.2386C44.181 55.8922 43.0831 54.8008 41.7289 54.8008C40.3747 54.8008 39.2769 55.8922 39.2769 57.2386C39.2769 58.585 40.3747 59.6765 41.7289 59.6765Z" fill="#3F3D56"/>
<path d="M48.5946 82.1042C49.9489 82.1042 51.0467 81.0127 51.0467 79.6664C51.0467 78.32 49.9489 77.2285 48.5946 77.2285C47.2404 77.2285 46.1426 78.32 46.1426 79.6664C46.1426 81.0127 47.2404 82.1042 48.5946 82.1042Z" fill="#3F3D56"/>
<path d="M66.2646 59.1989C67.6188 59.1989 68.7166 58.1075 68.7166 56.7611C68.7166 55.4147 67.6188 54.3232 66.2646 54.3232C64.9103 54.3232 63.8125 55.4147 63.8125 56.7611C63.8125 58.1075 64.9103 59.1989 66.2646 59.1989Z" fill="#3F3D56"/>
<path d="M122.855 52.5459L67.9795 54.8953C67.0324 54.9359 66.2977 55.7321 66.3385 56.6737L66.3385 56.6737C66.3793 57.6153 67.1801 58.3457 68.1272 58.3051L123.002 55.9557C123.949 55.9151 124.684 55.119 124.643 54.1774C124.603 53.2358 123.802 52.5053 122.855 52.5459Z" fill="#0F7AC7"/>
<path d="M98.5894 118.899L95.7296 118.899L94.3691 107.932L98.59 107.932L98.5894 118.899Z" fill="#A0616A"/>
<path d="M88.7913 118.834C88.7023 118.983 88.6553 119.464 88.6553 119.638C88.6553 120.171 89.0898 120.603 89.6259 120.603H98.4824C98.8481 120.603 99.1445 120.308 99.1445 119.944V119.578C99.1445 119.578 99.5827 118.476 98.6806 117.118C98.6806 117.118 97.5596 118.181 95.8844 116.516L95.3904 115.626L91.8145 118.226L89.8324 118.469C89.3988 118.522 89.0144 118.46 88.7913 118.834V118.834Z" fill="#2F2E41"/>
<path d="M113.648 118.899L110.788 118.899L109.428 107.932L113.649 107.932L113.648 118.899Z" fill="#A0616A"/>
<path d="M103.85 118.834C103.761 118.983 103.714 119.464 103.714 119.638C103.714 120.171 104.148 120.603 104.684 120.603H113.541C113.907 120.603 114.203 120.308 114.203 119.944V119.578C114.203 119.578 114.641 118.476 113.739 117.118C113.739 117.118 112.618 118.181 110.943 116.516L110.449 115.626L106.873 118.226L104.891 118.469C104.457 118.522 104.073 118.46 103.85 118.834V118.834Z" fill="#2F2E41"/>
<path d="M120.296 30.6169L120.599 43.497L117.795 55.0895L115.185 54.227L115.945 43.6665L115.276 29.4365L120.296 30.6169Z" fill="#A0616A"/>
<path d="M117.851 56.9405C118.093 55.2794 117.485 53.8169 116.493 53.674C115.501 53.5311 114.501 54.7619 114.259 56.423C114.017 58.0841 114.625 59.5465 115.617 59.6894C116.609 59.8323 117.609 58.6016 117.851 56.9405Z" fill="#A0616A"/>
<path d="M113.697 18.9648C113.697 18.9648 118.508 18.954 119.32 21.7568C120.165 24.6711 121.513 35.5408 120.93 35.5414L114.923 36.2962L113.697 18.9648Z" fill="#0F7AC7"/>
<path d="M95.104 31.9895L92.4528 44.6006L87.0709 55.2554L84.7261 53.8254L87.882 43.7135L91.9565 29.7051L95.104 31.9895Z" fill="#A0616A"/>
<path d="M86.7023 57.0703C87.318 55.5075 87.0605 53.9459 86.1271 53.5824C85.1938 53.219 83.938 54.1913 83.3223 55.7542C82.7066 57.317 82.9642 58.8786 83.8975 59.2421C84.8309 59.6055 86.0866 58.6332 86.7023 57.0703Z" fill="#A0616A"/>
<path d="M94.2465 19.4834C94.2465 19.4834 96.8774 20.6499 97.6131 23.4736C98.2822 26.0422 99.9368 37.3452 95.0755 36.8146L88.9454 36.327C88.9018 30.328 91.5068 24.6719 94.2465 19.4834Z" fill="#0F7AC7"/>
<path d="M93.4671 56.2631L92.4863 65.0394L92.9767 89.6999L93.9576 112.821H99.1455L104.992 70.6464L108.784 112.821H114.808L116.516 84.2983C116.516 84.2983 117.742 57.7258 115.536 55.5318C113.329 53.3377 93.4671 56.2631 93.4671 56.2631Z" fill="#2F2E41"/>
<path d="M109.773 14.4541H101.74L99.9651 16.8919C99.9651 16.8919 96.5322 17.3795 94.3254 19.5736L94.0802 42.9768L92.4863 58.2804L116.515 57.6038L115.045 49.1933L116.024 19.6743C116.024 19.6743 113.451 16.6482 111.735 17.1357L109.773 14.4541Z" fill="#0F7AC7"/>
<path d="M103.718 13.1505C107.038 13.1505 109.729 10.4751 109.729 7.17485C109.729 3.8746 107.038 1.19922 103.718 1.19922C100.399 1.19922 97.708 3.8746 97.708 7.17485C97.708 10.4751 100.399 13.1505 103.718 13.1505Z" fill="#A0616A"/>
<path d="M108.882 1.61085C108.21 1.02211 107.287 0.683182 106.406 0.74325C105.873 0.779657 105.354 0.612796 104.881 0.365846C104.848 0.349127 104.816 0.333906 104.783 0.320266C104.484 0.197535 104.152 0.183784 103.829 0.19157C103.24 0.20577 102.543 -0.381487 102.082 0.432933C100.336 0.106082 100.175 1.11464 99.3627 1.70896C99.1325 1.57397 97.6437 1.81989 97.4869 2.06276C97.3676 2.24772 97.2846 2.43615 97.2285 2.61913C97.1924 2.7365 97.4103 3.16474 97.3938 3.27527C97.3772 3.38579 97.1263 3.1786 97.1243 3.27757C97.1187 3.54246 97.1558 3.75748 97.1871 3.8774C97.2668 4.18346 96.4494 3.79136 96.1812 3.96119C95.9129 4.13104 96.1864 4.91686 95.9241 5.09557C95.6111 5.30878 95.8183 5.54445 96.0912 5.82312C96.2792 6.01518 96.4983 6.22766 96.5998 6.46728C96.8484 7.05461 95.4823 7.57505 96.111 7.45094C96.7599 7.32286 96.9714 8.32691 97.5174 7.95546C98.7524 7.11517 98.7077 7.18412 99.7856 8.21625C100.085 8.50284 100.673 7.38052 101.069 7.50647C101.814 7.74382 102.424 8.53927 102.916 9.7417C102.986 9.91187 102.325 12.6885 102.295 12.8697C102.224 13.2919 104.201 12.3392 104.196 12.7997C104.189 13.4075 105.276 12.6414 105.588 13.1741C105.628 13.1255 107.832 12.1289 107.938 12.0515L109.465 10.5838C110.466 8.88037 110.848 6.82597 110.526 4.8792C110.324 3.65308 109.82 2.43211 108.882 1.61085H108.882Z" fill="#2F2E41"/>
<path d="M79.4468 120.71C79.4468 120.871 79.5767 121 79.7386 121H133.264C133.426 121 133.556 120.871 133.556 120.71C133.556 120.549 133.426 120.42 133.264 120.42H79.7386C79.5767 120.42 79.4468 120.549 79.4468 120.71Z" fill="#CCCCCC"/>
<path d="M0 99.9883C0 100.149 0.129966 100.278 0.291809 100.278H53.8177C53.9795 100.278 54.1095 100.149 54.1095 99.9883C54.1095 99.8275 53.9795 99.6982 53.8177 99.6982H0.291809C0.129966 99.6982 0 99.8275 0 99.9883Z" fill="#CCCCCC"/>
</svg>
