<svg width="869" height="196" viewBox="0 0 869 196" fill="none" xmlns="http://www.w3.org/2000/svg">
<path opacity="0.3" d="M777.713 -163.348C675.382 69.4009 369.542 187.851 94.8341 100.906C-179.874 13.9613 -319.39 -244.92 -217.059 -477.668C-114.728 -710.417 -213.888 -432.975 60.8199 -346.03C335.528 -259.329 880.332 -396.341 777.713 -163.348Z" fill="#DBEEFF"/>
<path opacity="0.4" d="M-58.7042 -232.633C-10.9173 -432.197 55.2655 -458.046 298.208 -426.769C541.15 -395.492 827.813 -183.197 780.085 16.1212C732.298 215.685 330.921 206.215 131.255 180.509C-124.521 147.58 -88.116 -109.806 -58.7042 -232.633Z" fill="#DBEEFF"/>
<path opacity="0.4" d="M806.373 -120.145C846.069 -28.0895 833.248 -1.72302 752.047 44.1373C670.846 89.9977 527.57 73.3177 487.923 -18.6243C448.228 -110.679 570.964 -203.483 637.701 -241.174C723.191 -289.457 781.942 -176.803 806.373 -120.145Z" fill="#DBEEFF"/>
<path opacity="0.4" d="M505.553 -154.932C568.043 -110.726 569.179 -92.7854 530.336 -48.7262C491.493 -4.66701 385.867 17.0206 323.454 -27.1315C260.963 -71.3379 310.749 -151.422 342.673 -187.632C383.568 -234.019 467.091 -182.14 505.553 -154.932Z" fill="#DBEEFF"/>
</svg>
