<svg width="334" height="188" viewBox="0 0 334 188" fill="none" xmlns="http://www.w3.org/2000/svg">
<path opacity="0.3" d="M24.4525 36.088C11.3774 20.8804 3.27341 2.04492 1.24961 -17.8408C-0.774181 -37.7265 3.38106 -57.6909 13.1467 -75.0018C22.9124 -92.3127 37.8113 -106.124 55.8045 -114.546C73.7977 -122.969 94.0061 -125.59 113.664 -122.052C139.929 -118.782 159.155 -102.923 177.602 -85.0151C204.507 -58.765 235.673 -45.4726 273.18 -56.6519C294.19 -62.9129 314.705 -70.7463 335.195 -78.4515C392.418 -99.8849 459.296 -75.9125 489.94 -22.6737C499.551 -6.1141 505.742 12.1856 508.141 31.1276C510.541 50.0695 509.1 69.2632 503.904 87.5569C498.709 105.851 489.866 122.868 477.907 137.586C465.948 152.305 451.119 164.423 434.309 173.212C386.859 198.236 327.768 190.316 289.269 152.044C271.798 134.837 257.509 114.705 241.19 96.3184C217.723 69.8678 189.167 56.0335 153.23 62.1346C137.879 64.7451 122.632 68.1303 107.189 69.9816C87.6013 72.3511 67.7229 68.0002 50.7915 57.6374C40.8295 52.05 31.913 44.7549 24.4525 36.088Z" fill="white"/>
</svg>
