<svg width="24" height="25" viewBox="0 0 24 25" fill="none" xmlns="http://www.w3.org/2000/svg">
<path d="M20 12.5C20 8.08172 16.4183 4.5 12 4.5C7.58172 4.5 4 8.08172 4 12.5C4 16.9183 7.58172 20.5 12 20.5C13.6418 20.5 15.1681 20.0054 16.4381 19.1571L17.5476 20.8214C15.9602 21.8818 14.0523 22.5 12 22.5C6.47715 22.5 2 18.0228 2 12.5C2 6.97715 6.47715 2.5 12 2.5C17.5228 2.5 22 6.97715 22 12.5V14C22 15.933 20.433 17.5 18.5 17.5C17.2958 17.5 16.2336 16.8918 15.6038 15.9659C14.6942 16.9115 13.4158 17.5 12 17.5C9.23858 17.5 7 15.2614 7 12.5C7 9.73858 9.23858 7.5 12 7.5C13.1258 7.5 14.1647 7.87209 15.0005 8.5H17V14C17 14.8284 17.6716 15.5 18.5 15.5C19.3284 15.5 20 14.8284 20 14V12.5ZM12 9.5C10.3431 9.5 9 10.8431 9 12.5C9 14.1569 10.3431 15.5 12 15.5C13.6569 15.5 15 14.1569 15 12.5C15 10.8431 13.6569 9.5 12 9.5Z" fill="#667892"/>
</svg>
