<svg width="16" height="16" viewBox="0 0 16 16" fill="none" xmlns="http://www.w3.org/2000/svg">
    <path d="M14.0002 2H2.00016C1.63198 2 1.3335 2.29848 1.3335 2.66667V13.3333C1.3335 13.7015 1.63198 14 2.00016 14H14.0002C14.3684 14 14.6668 13.7015 14.6668 13.3333V2.66667C14.6668 2.29848 14.3684 2 14.0002 2ZM8.00016 10.6667C6.89556 10.6667 6.00016 9.77127 6.00016 8.66667H2.66683V3.33333H13.3335V8.66667H10.0002C10.0002 9.77127 9.10476 10.6667 8.00016 10.6667ZM10.6668 6H8.66683V4H7.3335V6H5.3335L8.00016 9L10.6668 6Z" fill="white"/>
</svg>
