<svg width="40" height="40" viewBox="0 0 40 40" fill="none" xmlns="http://www.w3.org/2000/svg">
<path d="M36.6673 16.6663V24.9997C36.6673 33.333 33.334 36.6664 25.0007 36.6664H15.0007C6.66732 36.6664 3.33398 33.333 3.33398 24.9997V14.9997C3.33398 6.66634 6.66732 3.33301 15.0007 3.33301H23.334" fill="#D4F4DB"/>
<path d="M36.6673 16.6663H30.0007C25.0007 16.6663 23.334 14.9997 23.334 9.99968V3.33301L36.6673 16.6663Z" fill="#D4F4DB"/>
<path d="M36.6673 16.6663V24.9997C36.6673 33.333 33.334 36.6664 25.0007 36.6664H15.0007C6.66732 36.6664 3.33398 33.333 3.33398 24.9997V14.9997C3.33398 6.66634 6.66732 3.33301 15.0007 3.33301H23.334M36.6673 16.6663H30.0007C25.0007 16.6663 23.334 14.9997 23.334 9.99968V3.33301M36.6673 16.6663L23.334 3.33301" stroke="#0E972B" stroke-width="1.5" stroke-linecap="round" stroke-linejoin="round"/>
<mask id="path-3-outside-1_9257_19445" maskUnits="userSpaceOnUse" x="11.6621" y="22.4912" width="18" height="8" fill="black">
<rect fill="white" x="11.6621" y="22.4912" width="18" height="8"/>
<path d="M13.0961 29.9995C12.9683 29.9995 12.8655 29.9579 12.7878 29.8745C12.7155 29.7912 12.6739 29.6968 12.6628 29.5912C12.6572 29.4801 12.6878 29.3829 12.7544 29.2995L16.8294 24.2579H13.1794C13.0405 24.2579 12.935 24.2245 12.8628 24.1579C12.7961 24.0857 12.7655 23.9968 12.7711 23.8912C12.7655 23.7745 12.8044 23.6801 12.8878 23.6079C12.9711 23.5301 13.0739 23.4912 13.1961 23.4912H17.4961C17.6239 23.4912 17.7266 23.5301 17.8044 23.6079C17.8822 23.6857 17.9266 23.7801 17.9378 23.8912C17.9489 23.9968 17.9183 24.0912 17.8461 24.1745L13.7544 29.2329H17.4961C17.6239 29.2329 17.7266 29.2718 17.8044 29.3495C17.8822 29.4218 17.9211 29.5079 17.9211 29.6079C17.9211 29.7301 17.8822 29.8273 17.8044 29.8995C17.7266 29.9662 17.6239 29.9995 17.4961 29.9995H13.0961Z"/>
<path d="M21.331 29.9995C21.2088 29.9995 21.106 29.9579 21.0226 29.8745C20.9393 29.7912 20.8976 29.6884 20.8976 29.5662V23.9245C20.8976 23.7968 20.9393 23.694 21.0226 23.6162C21.106 23.5329 21.2088 23.4912 21.331 23.4912C21.4588 23.4912 21.5615 23.5329 21.6393 23.6162C21.7226 23.694 21.7643 23.7968 21.7643 23.9245V29.5662C21.7643 29.6884 21.7226 29.7912 21.6393 29.8745C21.5615 29.9579 21.4588 29.9995 21.331 29.9995Z"/>
<path d="M25.5286 29.9995C25.4063 29.9995 25.3036 29.9579 25.2202 29.8745C25.1369 29.7912 25.0952 29.6884 25.0952 29.5662V23.9245C25.0952 23.7968 25.1369 23.694 25.2202 23.6162C25.3036 23.5329 25.4063 23.4912 25.5286 23.4912H27.1952C27.6119 23.4912 27.9813 23.5829 28.3036 23.7662C28.6258 23.9495 28.8758 24.2051 29.0536 24.5329C29.2369 24.8551 29.3286 25.2273 29.3286 25.6495C29.3286 26.0551 29.2369 26.4162 29.0536 26.7329C28.8758 27.0495 28.6258 27.2968 28.3036 27.4745C27.9813 27.6523 27.6119 27.7412 27.1952 27.7412H25.9619V29.5662C25.9619 29.6884 25.9202 29.7912 25.8369 29.8745C25.7591 29.9579 25.6563 29.9995 25.5286 29.9995ZM25.9619 26.9412H27.1952C27.4508 26.9412 27.6758 26.8857 27.8702 26.7745C28.0647 26.6634 28.2175 26.5107 28.3286 26.3162C28.4397 26.1218 28.4952 25.8995 28.4952 25.6495C28.4952 25.3829 28.4397 25.1495 28.3286 24.9495C28.2175 24.744 28.0647 24.5829 27.8702 24.4662C27.6758 24.3495 27.4508 24.2912 27.1952 24.2912H25.9619V26.9412Z"/>
</mask>
<path d="M13.0961 29.9995C12.9683 29.9995 12.8655 29.9579 12.7878 29.8745C12.7155 29.7912 12.6739 29.6968 12.6628 29.5912C12.6572 29.4801 12.6878 29.3829 12.7544 29.2995L16.8294 24.2579H13.1794C13.0405 24.2579 12.935 24.2245 12.8628 24.1579C12.7961 24.0857 12.7655 23.9968 12.7711 23.8912C12.7655 23.7745 12.8044 23.6801 12.8878 23.6079C12.9711 23.5301 13.0739 23.4912 13.1961 23.4912H17.4961C17.6239 23.4912 17.7266 23.5301 17.8044 23.6079C17.8822 23.6857 17.9266 23.7801 17.9378 23.8912C17.9489 23.9968 17.9183 24.0912 17.8461 24.1745L13.7544 29.2329H17.4961C17.6239 29.2329 17.7266 29.2718 17.8044 29.3495C17.8822 29.4218 17.9211 29.5079 17.9211 29.6079C17.9211 29.7301 17.8822 29.8273 17.8044 29.8995C17.7266 29.9662 17.6239 29.9995 17.4961 29.9995H13.0961Z" fill="#0E972B"/>
<path d="M21.331 29.9995C21.2088 29.9995 21.106 29.9579 21.0226 29.8745C20.9393 29.7912 20.8976 29.6884 20.8976 29.5662V23.9245C20.8976 23.7968 20.9393 23.694 21.0226 23.6162C21.106 23.5329 21.2088 23.4912 21.331 23.4912C21.4588 23.4912 21.5615 23.5329 21.6393 23.6162C21.7226 23.694 21.7643 23.7968 21.7643 23.9245V29.5662C21.7643 29.6884 21.7226 29.7912 21.6393 29.8745C21.5615 29.9579 21.4588 29.9995 21.331 29.9995Z" fill="#0E972B"/>
<path d="M25.5286 29.9995C25.4063 29.9995 25.3036 29.9579 25.2202 29.8745C25.1369 29.7912 25.0952 29.6884 25.0952 29.5662V23.9245C25.0952 23.7968 25.1369 23.694 25.2202 23.6162C25.3036 23.5329 25.4063 23.4912 25.5286 23.4912H27.1952C27.6119 23.4912 27.9813 23.5829 28.3036 23.7662C28.6258 23.9495 28.8758 24.2051 29.0536 24.5329C29.2369 24.8551 29.3286 25.2273 29.3286 25.6495C29.3286 26.0551 29.2369 26.4162 29.0536 26.7329C28.8758 27.0495 28.6258 27.2968 28.3036 27.4745C27.9813 27.6523 27.6119 27.7412 27.1952 27.7412H25.9619V29.5662C25.9619 29.6884 25.9202 29.7912 25.8369 29.8745C25.7591 29.9579 25.6563 29.9995 25.5286 29.9995ZM25.9619 26.9412H27.1952C27.4508 26.9412 27.6758 26.8857 27.8702 26.7745C28.0647 26.6634 28.2175 26.5107 28.3286 26.3162C28.4397 26.1218 28.4952 25.8995 28.4952 25.6495C28.4952 25.3829 28.4397 25.1495 28.3286 24.9495C28.2175 24.744 28.0647 24.5829 27.8702 24.4662C27.6758 24.3495 27.4508 24.2912 27.1952 24.2912H25.9619V26.9412Z" fill="#0E972B"/>
<path d="M13.0961 29.9995C12.9683 29.9995 12.8655 29.9579 12.7878 29.8745C12.7155 29.7912 12.6739 29.6968 12.6628 29.5912C12.6572 29.4801 12.6878 29.3829 12.7544 29.2995L16.8294 24.2579H13.1794C13.0405 24.2579 12.935 24.2245 12.8628 24.1579C12.7961 24.0857 12.7655 23.9968 12.7711 23.8912C12.7655 23.7745 12.8044 23.6801 12.8878 23.6079C12.9711 23.5301 13.0739 23.4912 13.1961 23.4912H17.4961C17.6239 23.4912 17.7266 23.5301 17.8044 23.6079C17.8822 23.6857 17.9266 23.7801 17.9378 23.8912C17.9489 23.9968 17.9183 24.0912 17.8461 24.1745L13.7544 29.2329H17.4961C17.6239 29.2329 17.7266 29.2718 17.8044 29.3495C17.8822 29.4218 17.9211 29.5079 17.9211 29.6079C17.9211 29.7301 17.8822 29.8273 17.8044 29.8995C17.7266 29.9662 17.6239 29.9995 17.4961 29.9995H13.0961Z" stroke="#0E972B" stroke-width="0.5" mask="url(#path-3-outside-1_9257_19445)"/>
<path d="M21.331 29.9995C21.2088 29.9995 21.106 29.9579 21.0226 29.8745C20.9393 29.7912 20.8976 29.6884 20.8976 29.5662V23.9245C20.8976 23.7968 20.9393 23.694 21.0226 23.6162C21.106 23.5329 21.2088 23.4912 21.331 23.4912C21.4588 23.4912 21.5615 23.5329 21.6393 23.6162C21.7226 23.694 21.7643 23.7968 21.7643 23.9245V29.5662C21.7643 29.6884 21.7226 29.7912 21.6393 29.8745C21.5615 29.9579 21.4588 29.9995 21.331 29.9995Z" stroke="#0E972B" stroke-width="0.5" mask="url(#path-3-outside-1_9257_19445)"/>
<path d="M25.5286 29.9995C25.4063 29.9995 25.3036 29.9579 25.2202 29.8745C25.1369 29.7912 25.0952 29.6884 25.0952 29.5662V23.9245C25.0952 23.7968 25.1369 23.694 25.2202 23.6162C25.3036 23.5329 25.4063 23.4912 25.5286 23.4912H27.1952C27.6119 23.4912 27.9813 23.5829 28.3036 23.7662C28.6258 23.9495 28.8758 24.2051 29.0536 24.5329C29.2369 24.8551 29.3286 25.2273 29.3286 25.6495C29.3286 26.0551 29.2369 26.4162 29.0536 26.7329C28.8758 27.0495 28.6258 27.2968 28.3036 27.4745C27.9813 27.6523 27.6119 27.7412 27.1952 27.7412H25.9619V29.5662C25.9619 29.6884 25.9202 29.7912 25.8369 29.8745C25.7591 29.9579 25.6563 29.9995 25.5286 29.9995ZM25.9619 26.9412H27.1952C27.4508 26.9412 27.6758 26.8857 27.8702 26.7745C28.0647 26.6634 28.2175 26.5107 28.3286 26.3162C28.4397 26.1218 28.4952 25.8995 28.4952 25.6495C28.4952 25.3829 28.4397 25.1495 28.3286 24.9495C28.2175 24.744 28.0647 24.5829 27.8702 24.4662C27.6758 24.3495 27.4508 24.2912 27.1952 24.2912H25.9619V26.9412Z" stroke="#0E972B" stroke-width="0.5" mask="url(#path-3-outside-1_9257_19445)"/>
</svg>
