<svg width="25" height="24" viewBox="0 0 25 24" fill="none" xmlns="http://www.w3.org/2000/svg">
<path d="M22.5 10V15C22.5 20 20.5 22 15.5 22H9.5C4.5 22 2.5 20 2.5 15V9C2.5 4 4.5 2 9.5 2H14.5M22.5 10H18.5C15.5 10 14.5 9 14.5 6V2M22.5 10L14.5 2" stroke="#0079D0" stroke-width="1.5" stroke-linecap="round" stroke-linejoin="round"/>
<path d="M8.35764 18C8.28097 18 8.2193 17.975 8.17264 17.925C8.1293 17.875 8.1043 17.8183 8.09764 17.755C8.0943 17.6883 8.11264 17.63 8.15264 17.58L10.5976 14.555H8.40764C8.3243 14.555 8.26097 14.535 8.21764 14.495C8.17764 14.4517 8.1593 14.3983 8.16264 14.335C8.1593 14.265 8.18264 14.2083 8.23264 14.165C8.28264 14.1183 8.3443 14.095 8.41764 14.095H10.9976C11.0743 14.095 11.136 14.1183 11.1826 14.165C11.2293 14.2117 11.256 14.2683 11.2626 14.335C11.2693 14.3983 11.251 14.455 11.2076 14.505L8.75264 17.54H10.9976C11.0743 17.54 11.136 17.5633 11.1826 17.61C11.2293 17.6533 11.2526 17.705 11.2526 17.765C11.2526 17.8383 11.2293 17.8967 11.1826 17.94C11.136 17.98 11.0743 18 10.9976 18H8.35764ZM13.2986 18C13.2252 18 13.1636 17.975 13.1136 17.925C13.0636 17.875 13.0386 17.8133 13.0386 17.74V14.355C13.0386 14.2783 13.0636 14.2167 13.1136 14.17C13.1636 14.12 13.2252 14.095 13.2986 14.095C13.3752 14.095 13.4369 14.12 13.4836 14.17C13.5336 14.2167 13.5586 14.2783 13.5586 14.355V17.74C13.5586 17.8133 13.5336 17.875 13.4836 17.925C13.4369 17.975 13.3752 18 13.2986 18ZM15.8171 18C15.7438 18 15.6821 17.975 15.6321 17.925C15.5821 17.875 15.5571 17.8133 15.5571 17.74V14.355C15.5571 14.2783 15.5821 14.2167 15.6321 14.17C15.6821 14.12 15.7438 14.095 15.8171 14.095H16.8171C17.0671 14.095 17.2888 14.15 17.4821 14.26C17.6755 14.37 17.8255 14.5233 17.9321 14.72C18.0421 14.9133 18.0971 15.1367 18.0971 15.39C18.0971 15.6333 18.0421 15.85 17.9321 16.04C17.8255 16.23 17.6755 16.3783 17.4821 16.485C17.2888 16.5917 17.0671 16.645 16.8171 16.645H16.0771V17.74C16.0771 17.8133 16.0521 17.875 16.0021 17.925C15.9555 17.975 15.8938 18 15.8171 18ZM16.0771 16.165H16.8171C16.9705 16.165 17.1055 16.1317 17.2221 16.065C17.3388 15.9983 17.4305 15.9067 17.4971 15.79C17.5638 15.6733 17.5971 15.54 17.5971 15.39C17.5971 15.23 17.5638 15.09 17.4971 14.97C17.4305 14.8467 17.3388 14.75 17.2221 14.68C17.1055 14.61 16.9705 14.575 16.8171 14.575H16.0771V16.165Z" fill="#0079D0"/>
<path d="M8.17264 17.925L7.98359 18.0888L7.98987 18.0956L8.17264 17.925ZM8.09764 17.755L7.84757 17.7675L7.84901 17.7812L8.09764 17.755ZM8.15264 17.58L7.9582 17.4228L7.95742 17.4238L8.15264 17.58ZM10.5976 14.555L10.7921 14.7122L11.1212 14.305H10.5976V14.555ZM8.21764 14.495L8.03394 14.6646L8.04072 14.6719L8.04807 14.6787L8.21764 14.495ZM8.16264 14.335L8.41229 14.3481L8.41295 14.3356L8.41235 14.3231L8.16264 14.335ZM8.23264 14.165L8.39648 14.3541L8.40322 14.3478L8.23264 14.165ZM11.1826 14.165L11.0059 14.3418L11.0059 14.3418L11.1826 14.165ZM11.2626 14.335L11.0139 14.3599L11.014 14.3612L11.2626 14.335ZM11.2076 14.505L11.0186 14.3412L11.0133 14.3478L11.2076 14.505ZM8.75264 17.54L8.55827 17.3828L8.22886 17.79H8.75264V17.54ZM11.1826 17.61L11.0057 17.7869L11.0125 17.7932L11.1826 17.61ZM11.1826 17.94L11.3455 18.13L11.3527 18.1232L11.1826 17.94ZM8.35764 17.75C8.34665 17.75 8.34462 17.7483 8.34781 17.7496C8.34926 17.7502 8.35103 17.7511 8.35275 17.7523C8.35356 17.7528 8.35421 17.7533 8.35469 17.7538C8.35493 17.754 8.3551 17.7541 8.35522 17.7542C8.35535 17.7544 8.3554 17.7544 8.3554 17.7544L7.98987 18.0956C8.08979 18.2026 8.22094 18.25 8.35764 18.25V17.75ZM8.36156 17.7613C8.35035 17.7483 8.34736 17.7392 8.34626 17.7288L7.84901 17.7812C7.86125 17.8975 7.90826 18.0017 7.98371 18.0887L8.36156 17.7613ZM8.34732 17.7425C8.347 17.736 8.34788 17.7346 8.34739 17.7362C8.34684 17.7379 8.34626 17.7382 8.34785 17.7362L7.95742 17.4238C7.87754 17.5237 7.84171 17.6427 7.84795 17.7675L8.34732 17.7425ZM8.34707 17.7372L10.7921 14.7122L10.4032 14.3978L7.95821 17.4228L8.34707 17.7372ZM10.5976 14.305H8.40764V14.805H10.5976V14.305ZM8.40764 14.305C8.38531 14.305 8.37495 14.3022 8.37292 14.3016C8.37213 14.3014 8.37356 14.3017 8.37645 14.3034C8.37943 14.305 8.38323 14.3076 8.38721 14.3113L8.04807 14.6787C8.15364 14.7762 8.2874 14.805 8.40764 14.805V14.305ZM8.40134 14.3254C8.40228 14.3265 8.40393 14.3285 8.40575 14.3315C8.40758 14.3345 8.40914 14.3378 8.41031 14.3412C8.41279 14.3484 8.4121 14.3518 8.41229 14.3481L7.91298 14.3219C7.9064 14.4469 7.94453 14.5677 8.03394 14.6646L8.40134 14.3254ZM8.41235 14.3231C8.41218 14.3195 8.41297 14.3251 8.40881 14.3352C8.40686 14.3399 8.40438 14.3442 8.40174 14.3478C8.39914 14.3514 8.39705 14.3533 8.39637 14.3539L8.0689 13.9761C7.95712 14.073 7.90619 14.2055 7.91292 14.3469L8.41235 14.3231ZM8.40322 14.3478C8.40389 14.3471 8.40437 14.3467 8.40466 14.3465C8.40495 14.3463 8.4051 14.3462 8.40511 14.3462C8.40512 14.3462 8.40507 14.3462 8.40498 14.3463C8.40488 14.3463 8.40483 14.3463 8.40486 14.3463C8.40489 14.3463 8.40507 14.3462 8.40544 14.3461C8.40582 14.346 8.40646 14.3459 8.4074 14.3457C8.40927 14.3454 8.41258 14.345 8.41764 14.345V13.845C8.28599 13.845 8.16188 13.8891 8.06206 13.9822L8.40322 14.3478ZM8.41764 14.345H10.9976V13.845H8.41764V14.345ZM10.9976 14.345C11.0106 14.345 11.0145 14.3469 11.0129 14.3463C11.0122 14.346 11.0108 14.3454 11.0091 14.3444C11.0075 14.3433 11.0064 14.3423 11.0059 14.3418L11.3594 13.9882C11.2583 13.8871 11.129 13.845 10.9976 13.845V14.345ZM11.0059 14.3418C11.0099 14.3458 11.011 14.3481 11.0114 14.3489C11.0118 14.3498 11.0132 14.3528 11.0139 14.3599L11.5114 14.3101C11.4991 14.187 11.4476 14.0764 11.3594 13.9882L11.0059 14.3418ZM11.014 14.3612C11.014 14.3612 11.0139 14.3597 11.0141 14.3571C11.0144 14.3543 11.015 14.3512 11.016 14.348C11.0183 14.3411 11.0209 14.3388 11.0187 14.3413L11.3966 14.6687C11.4832 14.5687 11.5255 14.444 11.5113 14.3088L11.014 14.3612ZM11.0133 14.3478L8.55827 17.3828L8.94701 17.6972L11.402 14.6622L11.0133 14.3478ZM8.75264 17.79H10.9976V17.29H8.75264V17.79ZM10.9976 17.79C11.0106 17.79 11.0145 17.7919 11.0129 17.7913C11.0122 17.791 11.0108 17.7904 11.0091 17.7894C11.0075 17.7883 11.0064 17.7873 11.0059 17.7868L11.3594 17.4332C11.2583 17.3321 11.129 17.29 10.9976 17.29V17.79ZM11.0125 17.7932C11.0145 17.795 11.0109 17.7922 11.0073 17.7841C11.0035 17.7758 11.0026 17.7684 11.0026 17.765H11.5026C11.5026 17.6308 11.4468 17.5142 11.3527 17.4268L11.0125 17.7932ZM11.0026 17.765C11.0026 17.7751 11.0011 17.7758 11.003 17.7709C11.004 17.7686 11.0054 17.7658 11.0074 17.7629C11.0093 17.7601 11.0112 17.758 11.0125 17.7568L11.3527 18.1232C11.4583 18.0252 11.5026 17.8963 11.5026 17.765H11.0026ZM11.0199 17.7502C11.0212 17.7491 11.0226 17.7482 11.0237 17.7476C11.0248 17.7469 11.0251 17.7469 11.0243 17.7472C11.0224 17.7478 11.0144 17.75 10.9976 17.75V18.25C11.1187 18.25 11.243 18.2175 11.3453 18.1298L11.0199 17.7502ZM10.9976 17.75H8.35764V18.25H10.9976V17.75ZM13.1136 17.925L12.9368 18.1018L13.1136 17.925ZM13.1136 14.17L13.2843 14.3529L13.2904 14.3468L13.1136 14.17ZM13.4836 14.17L13.3008 14.3406L13.3067 14.3469L13.313 14.3528L13.4836 14.17ZM13.4836 17.925L13.3067 17.7481L13.3008 17.7544L13.4836 17.925ZM13.2986 17.75C13.2908 17.75 13.2893 17.7488 13.2913 17.7496C13.292 17.7498 13.2925 17.7502 13.2927 17.7503C13.2928 17.7504 13.292 17.7499 13.2904 17.7482L12.9368 18.1018C13.0356 18.2006 13.1617 18.25 13.2986 18.25V17.75ZM13.2904 17.7482C13.2887 17.7466 13.2882 17.7458 13.2883 17.7459C13.2884 17.7461 13.2887 17.7466 13.289 17.7473C13.2898 17.7492 13.2886 17.7478 13.2886 17.74H12.7886C12.7886 17.8769 12.838 18.003 12.9368 18.1018L13.2904 17.7482ZM13.2886 17.74V14.355H12.7886V17.74H13.2886ZM13.2886 14.355C13.2886 14.344 13.2903 14.342 13.289 14.3452C13.2884 14.3466 13.2875 14.3484 13.2863 14.3501C13.2857 14.3509 13.2852 14.3516 13.2848 14.3521C13.2846 14.3523 13.2844 14.3525 13.2843 14.3526C13.2842 14.3527 13.2842 14.3528 13.2842 14.3528L12.943 13.9872C12.8359 14.0872 12.7886 14.2183 12.7886 14.355H13.2886ZM13.2904 14.3468C13.292 14.3451 13.2928 14.3446 13.2927 14.3447C13.2925 14.3448 13.292 14.3452 13.2913 14.3454C13.2893 14.3462 13.2908 14.345 13.2986 14.345V13.845C13.1617 13.845 13.0356 13.8944 12.9368 13.9932L13.2904 14.3468ZM13.2986 14.345C13.3096 14.345 13.3116 14.3467 13.3084 14.3454C13.3069 14.3448 13.3052 14.3439 13.3035 14.3427C13.3026 14.3422 13.302 14.3417 13.3015 14.3412C13.3013 14.341 13.3011 14.3409 13.301 14.3408C13.3009 14.3406 13.3008 14.3406 13.3008 14.3406L13.6663 13.9994C13.5664 13.8924 13.4353 13.845 13.2986 13.845V14.345ZM13.313 14.3528C13.313 14.3528 13.3129 14.3527 13.3128 14.3526C13.3127 14.3525 13.3125 14.3523 13.3123 14.3521C13.3119 14.3516 13.3114 14.3509 13.3108 14.3501C13.3096 14.3484 13.3087 14.3466 13.3081 14.3452C13.3068 14.342 13.3086 14.344 13.3086 14.355H13.8086C13.8086 14.2183 13.7612 14.0872 13.6542 13.9872L13.313 14.3528ZM13.3086 14.355V17.74H13.8086V14.355H13.3086ZM13.3086 17.74C13.3086 17.7478 13.3074 17.7492 13.3081 17.7473C13.3084 17.7466 13.3087 17.7461 13.3089 17.7459C13.3089 17.7458 13.3084 17.7466 13.3068 17.7482L13.6604 18.1018C13.7591 18.003 13.8086 17.8769 13.8086 17.74H13.3086ZM13.3008 17.7544C13.3008 17.7544 13.3009 17.7544 13.301 17.7542C13.3011 17.7541 13.3013 17.754 13.3015 17.7538C13.302 17.7533 13.3026 17.7528 13.3035 17.7523C13.3052 17.7511 13.3069 17.7502 13.3084 17.7496C13.3116 17.7483 13.3096 17.75 13.2986 17.75V18.25C13.4353 18.25 13.5664 18.2026 13.6663 18.0956L13.3008 17.7544ZM15.6321 17.925L15.4554 18.1018L15.6321 17.925ZM15.6321 14.17L15.8028 14.3529L15.8089 14.3468L15.6321 14.17ZM17.4821 14.26L17.3585 14.4773L17.4821 14.26ZM17.9321 14.72L17.7123 14.8392L17.7148 14.8436L17.9321 14.72ZM17.9321 16.04L17.7158 15.9147L17.7141 15.9176L17.9321 16.04ZM17.4821 16.485L17.6029 16.7039L17.4821 16.485ZM16.0771 16.645V16.395H15.8271V16.645H16.0771ZM16.0021 17.925L15.8252 17.7481L15.8194 17.7544L16.0021 17.925ZM16.0771 16.165H15.8271V16.415H16.0771V16.165ZM17.2221 16.065L17.0981 15.8479L17.2221 16.065ZM17.4971 15.79L17.7142 15.914L17.4971 15.79ZM17.4971 14.97L17.2772 15.0889L17.2786 15.0914L17.4971 14.97ZM16.0771 14.575V14.325H15.8271V14.575H16.0771ZM15.8171 17.75C15.8094 17.75 15.8079 17.7488 15.8098 17.7496C15.8105 17.7498 15.811 17.7502 15.8112 17.7503C15.8113 17.7504 15.8106 17.7499 15.8089 17.7482L15.4554 18.1018C15.5541 18.2006 15.6802 18.25 15.8171 18.25V17.75ZM15.8089 17.7482C15.8073 17.7466 15.8068 17.7458 15.8069 17.7459C15.807 17.7461 15.8073 17.7466 15.8076 17.7473C15.8083 17.7492 15.8071 17.7478 15.8071 17.74H15.3071C15.3071 17.8769 15.3566 18.003 15.4554 18.1018L15.8089 17.7482ZM15.8071 17.74V14.355H15.3071V17.74H15.8071ZM15.8071 14.355C15.8071 14.344 15.8089 14.342 15.8076 14.3452C15.807 14.3466 15.8061 14.3484 15.8049 14.3501C15.8043 14.3509 15.8038 14.3516 15.8034 14.3521C15.8032 14.3523 15.803 14.3525 15.8029 14.3526C15.8028 14.3527 15.8027 14.3528 15.8027 14.3528L15.4615 13.9872C15.3545 14.0872 15.3071 14.2183 15.3071 14.355H15.8071ZM15.8089 14.3468C15.8106 14.3451 15.8113 14.3446 15.8112 14.3447C15.811 14.3448 15.8105 14.3452 15.8098 14.3454C15.8079 14.3462 15.8094 14.345 15.8171 14.345V13.845C15.6802 13.845 15.5541 13.8944 15.4554 13.9932L15.8089 14.3468ZM15.8171 14.345H16.8171V13.845H15.8171V14.345ZM16.8171 14.345C17.0293 14.345 17.2073 14.3913 17.3585 14.4773L17.6058 14.0427C17.3703 13.9087 17.105 13.845 16.8171 13.845V14.345ZM17.3585 14.4773C17.511 14.5641 17.6278 14.6833 17.7124 14.8392L18.1519 14.6008C18.0231 14.3634 17.8399 14.1759 17.6058 14.0427L17.3585 14.4773ZM17.7148 14.8436C17.8006 14.9943 17.8471 15.1739 17.8471 15.39H18.3471C18.3471 15.0994 18.2837 14.8324 18.1494 14.5964L17.7148 14.8436ZM17.8471 15.39C17.8471 15.5942 17.8014 15.7668 17.7158 15.9147L18.1485 16.1653C18.2828 15.9332 18.3471 15.6724 18.3471 15.39H17.8471ZM17.7141 15.9176C17.6306 16.0665 17.5145 16.1816 17.3614 16.2661L17.6029 16.7039C17.8364 16.5751 18.0203 16.3935 18.1501 16.1624L17.7141 15.9176ZM17.3614 16.2661C17.2097 16.3498 17.0306 16.395 16.8171 16.395V16.895C17.1037 16.895 17.3679 16.8335 17.6029 16.7039L17.3614 16.2661ZM16.8171 16.395H16.0771V16.895H16.8171V16.395ZM15.8271 16.645V17.74H16.3271V16.645H15.8271ZM15.8271 17.74C15.8271 17.7478 15.8259 17.7492 15.8267 17.7473C15.827 17.7466 15.8273 17.7461 15.8274 17.7459C15.8275 17.7458 15.827 17.7466 15.8254 17.7482L16.1789 18.1018C16.2777 18.003 16.3271 17.8769 16.3271 17.74H15.8271ZM15.8194 17.7544C15.8194 17.7544 15.8194 17.7544 15.8195 17.7542C15.8197 17.7541 15.8198 17.754 15.8201 17.7538C15.8206 17.7533 15.8212 17.7528 15.822 17.7523C15.8237 17.7511 15.8255 17.7502 15.827 17.7496C15.8301 17.7483 15.8281 17.75 15.8171 17.75V18.25C15.9538 18.25 16.085 18.2026 16.1849 18.0956L15.8194 17.7544ZM16.0771 16.415H16.8171V15.915H16.0771V16.415ZM16.8171 16.415C17.0077 16.415 17.1867 16.3732 17.3462 16.2821L17.0981 15.8479C17.0243 15.8901 16.9332 15.915 16.8171 15.915V16.415ZM17.3462 16.2821C17.5016 16.1932 17.6254 16.0695 17.7142 15.914L17.2801 15.666C17.2355 15.7439 17.176 15.8034 17.0981 15.8479L17.3462 16.2821ZM17.7142 15.914C17.8049 15.7553 17.8471 15.5783 17.8471 15.39H17.3471C17.3471 15.5017 17.3227 15.5913 17.2801 15.666L17.7142 15.914ZM17.8471 15.39C17.8471 15.1946 17.8062 15.0115 17.7157 14.8486L17.2786 15.0914C17.3214 15.1685 17.3471 15.2654 17.3471 15.39H17.8471ZM17.7171 14.8511C17.6297 14.6896 17.5071 14.5594 17.3508 14.4656L17.0935 14.8944C17.1705 14.9406 17.2312 15.0037 17.2772 15.0889L17.7171 14.8511ZM17.3508 14.4656C17.1905 14.3695 17.0099 14.325 16.8171 14.325V14.825C16.931 14.825 17.0204 14.8505 17.0935 14.8944L17.3508 14.4656ZM16.8171 14.325H16.0771V14.825H16.8171V14.325ZM15.8271 14.575V16.165H16.3271V14.575H15.8271Z" fill="#0079D0"/>
</svg>
