<svg width="34" height="ยก" viewBox="0 0 34 34" fill="none" xmlns="http://www.w3.org/2000/svg">
<path d="M19.8842 2.41094L22.8175 8.2776C23.2175 9.09427 24.2842 9.8776 25.1842 10.0276L30.5008
  10.9109C33.9008 11.4776 34.7008 13.9443 32.2508 16.3776L28.1175 20.5109C27.4175 21.2109 27.0342
  22.5609 27.2508 23.5276L28.4342 28.6443C29.3675 32.6943 27.2175 34.2609 23.6342 32.1443L18.6508
  29.1943C17.7508 28.6609 16.2675 28.6609 15.3508 29.1943L10.3675 32.1443C6.80083 34.2609 4.63416
  32.6776 5.56749 28.6443L6.75082 23.5276C6.96749 22.5609 6.58416 21.2109 5.88416 20.5109L1.75082
  16.3776C-0.682508 13.9443 0.100825 11.4776 3.50083 10.9109L8.81749 10.0276C9.70082 9.8776 10.7675
  9.09427 11.1675 8.2776L14.1008 2.41094C15.7008 -0.772396 18.3008 -0.772396 19.8842 2.41094Z"
  fill="url(#paint0_linear_4180_78)"
/>
<defs>
<linearGradient id="paint0_linear_4180_78" x1="17.0044" y1="0.0234375" x2="17.0044" y2="33.0872"
  gradientUnits="userSpaceOnUse"
>
<stop stop-color="#FADB3C"/>
<stop offset="1" stop-color="#F2903A"/>
</linearGradient>
</defs>
</svg>
