<svg width="18" height="18" viewBox="0 0 18 18" fill="none" xmlns="http://www.w3.org/2000/svg">
<path d="M9.00033 0.666992C13.6003 0.666992 17.3337 4.40033 17.3337 9.00033C17.3337 13.6003 13.6003 17.3337 9.00033 17.3337C4.40033 17.3337 0.666992 13.6003 0.666992 9.00033C0.666992 4.40033 4.40033 0.666992 9.00033 0.666992ZM4.01949 11.847C5.24283 13.672 7.07949 14.8337 9.13366 14.8337C11.187 14.8337 13.0245 13.6728 14.247 11.847C12.8601 10.5508 11.0319 9.831 9.13366 9.83366C7.23508 9.83079 5.40659 10.5506 4.01949 11.847ZM9.00033 8.16699C9.66337 8.16699 10.2993 7.9036 10.7681 7.43476C11.2369 6.96592 11.5003 6.33003 11.5003 5.66699C11.5003 5.00395 11.2369 4.36807 10.7681 3.89923C10.2993 3.43038 9.66337 3.16699 9.00033 3.16699C8.33728 3.16699 7.7014 3.43038 7.23256 3.89923C6.76372 4.36807 6.50033 5.00395 6.50033 5.66699C6.50033 6.33003 6.76372 6.96592 7.23256 7.43476C7.7014 7.9036 8.33728 8.16699 9.00033 8.16699Z" fill="#000091"/>
</svg>
