<svg width="24" height="24" viewBox="0 0 24 24" fill="none" xmlns="http://www.w3.org/2000/svg">
    <path d="M8 2V5" stroke="black" stroke-width="1.5" stroke-miterlimit="10" stroke-linecap="round" stroke-linejoin="round"/>
    <path d="M16 2V5" stroke="black" stroke-width="1.5" stroke-miterlimit="10" stroke-linecap="round" stroke-linejoin="round"/>
    <path d="M3.5 9.08984L20.5 9.08984" stroke="black" stroke-width="1.5" stroke-miterlimit="10" stroke-linecap="round" stroke-linejoin="round"/>
    <path d="M21 8.5L21 17C21 20 19.5 22 16 22L8 22C4.5 22 3 20 3 17L3 8.5C3 5.5 4.5 3.5 8 3.5L16 3.5C19.5 3.5 21 5.5 21 8.5Z" stroke="black" stroke-width="1.5" stroke-miterlimit="10" stroke-linecap="round" stroke-linejoin="round"/>
    <path d="M15.6943 13.7002H15.7033" stroke="black" stroke-width="2" stroke-linecap="round" stroke-linejoin="round"/>
    <path d="M15.6943 16.7002H15.7033" stroke="black" stroke-width="2" stroke-linecap="round" stroke-linejoin="round"/>
    <path d="M11.9951 13.7002H12.0041" stroke="black" stroke-width="2" stroke-linecap="round" stroke-linejoin="round"/>
    <path d="M11.9951 16.7002H12.0041" stroke="black" stroke-width="2" stroke-linecap="round" stroke-linejoin="round"/>
    <path d="M8.29395 13.7002H8.30293" stroke="black" stroke-width="2" stroke-linecap="round" stroke-linejoin="round"/>
    <path d="M8.29395 16.7002H8.30293" stroke="black" stroke-width="2" stroke-linecap="round" stroke-linejoin="round"/>
</svg>
