<svg width="16" height="16" viewBox="0 0 16 16" fill="none" xmlns="http://www.w3.org/2000/svg">
    <path d="M14.6667 2.66667C14.6667 2.29848 14.3682 2 14 2H2.00004C1.63185 2 1.33337 2.29848 1.33337 2.66667V13.3333C1.33337 13.7015 1.63185 14 2.00004 14H14C14.3682 14 14.6667 13.7015 14.6667 13.3333V2.66667ZM2.66671 10H4.94407C5.45844 11.1773 6.63316 12 8.00004 12C9.36691 12 10.5416 11.1773 11.056 10H13.3334V12.6667H2.66671V10ZM2.66671 3.33333H13.3334V8.66667H10C10 9.77127 9.10464 10.6667 8.00004 10.6667C6.89544 10.6667 6.00004 9.77127 6.00004 8.66667H2.66671V3.33333ZM10.6667 7.33333H8.66671V9.33333H7.33337V7.33333H5.33337L8.00004 4.33333L10.6667 7.33333Z" fill="#0079D0"/>
</svg>
