<svg width="16" height="17" viewBox="0 0 16 17" fill="none" xmlns="http://www.w3.org/2000/svg">
<path fill-rule="evenodd" clip-rule="evenodd" d="M8.00004 15.1667C4.31804 15.1667 1.33337 12.182 1.33337 8.50004C1.33337 4.81804 4.31804 1.83337 8.00004 1.83337C11.682 1.83337 14.6667 4.81804 14.6667 8.50004C14.6667 12.182 11.682 15.1667 8.00004 15.1667ZM8.00004 13.8334C10.9456 13.8334 13.3334 11.4456 13.3334 8.50004C13.3334 5.55452 10.9456 3.16671 8.00004 3.16671C5.05452 3.16671 2.66671 5.55452 2.66671 8.50004C2.66671 11.4456 5.05452 13.8334 8.00004 13.8334ZM7.33337 10.5H8.66671V11.8334H7.33337V10.5ZM8.66671 9.40337V9.83337H7.33337V8.83337C7.33337 8.46518 7.63185 8.16671 8.00004 8.16671C8.52681 8.16667 8.96323 7.75801 8.99782 7.23238C9.03241 6.70675 8.65332 6.24441 8.1311 6.17534C7.60888 6.10627 7.12262 6.45416 7.01937 6.97071L5.71137 6.70871C5.9357 5.58754 6.93921 4.79394 8.08189 4.83406C9.22458 4.87417 10.17 5.73617 10.3151 6.87031C10.4603 8.00445 9.76246 9.07677 8.66671 9.40337Z" fill="#042794"/>
</svg>
