<svg width="48" height="60" viewBox="0 0 48 60" fill="none" xmlns="http://www.w3.org/2000/svg">
<path d="M2.088 5.53602L24 0.666687L45.912 5.53602C46.5042 5.66766 47.0338 5.99726 47.4134 6.47043C47.793 6.94361 47.9999 7.53206 48 8.13869V34.7707C47.9998 37.4046 47.3494 39.9978 46.1064 42.32C44.8634 44.6423 43.0663 46.6217 40.8747 48.0827L24 59.3334L7.12533 48.0827C4.93406 46.622 3.13723 44.6429 1.89426 42.3212C0.651295 39.9995 0.000630283 37.4069 0 34.7733V8.13869C0.000104101 7.53206 0.207034 6.94361 0.586639 6.47043C0.966243 5.99726 1.49583 5.66766 2.088 5.53602ZM24 34L31.8373 38.12L30.3413 29.3947L36.68 23.2134L27.9173 21.9387L24 14L20.08 21.9387L11.32 23.2134L17.6587 29.3947L16.1653 38.12L24 34Z" fill="#08416A"/>
</svg>
