<svg width="24" height="24" viewBox="0 0 24 24" fill="none" xmlns="http://www.w3.org/2000/svg">
<g clip-path="url(#clip0_10238_22832)">
<path d="M14.5299 9.81367L9.46992 14.8736C8.81992 14.2236 8.41992 13.3336 8.41992 12.3436C8.41992 10.3636 10.0199 8.76367 11.9999 8.76367C12.9899 8.76367 13.8799 9.16367 14.5299 9.81367Z" stroke="#0079D0" stroke-width="1.5" stroke-linecap="round" stroke-linejoin="round"/>
<path d="M17.8199 6.11422C16.0699 4.79422 14.0699 4.07422 11.9999 4.07422C8.46984 4.07422 5.17984 6.15422 2.88984 9.75422C1.98984 11.1642 1.98984 13.5342 2.88984 14.9442C3.67984 16.1842 4.59984 17.2542 5.59984 18.1142" stroke="#0079D0" stroke-width="1.5" stroke-linecap="round" stroke-linejoin="round"/>
<path d="M8.41992 19.8735C9.55992 20.3535 10.7699 20.6135 11.9999 20.6135C15.5299 20.6135 18.8199 18.5335 21.1099 14.9335C22.0099 13.5235 22.0099 11.1535 21.1099 9.74344C20.7799 9.22344 20.4199 8.73344 20.0499 8.27344" stroke="#0079D0" stroke-width="1.5" stroke-linecap="round" stroke-linejoin="round"/>
<path d="M15.5095 13.043C15.2495 14.453 14.0995 15.603 12.6895 15.863" stroke="#0079D0" stroke-width="1.5" stroke-linecap="round" stroke-linejoin="round"/>
<path d="M9.47 14.873L2 22.343" stroke="#0079D0" stroke-width="1.5" stroke-linecap="round" stroke-linejoin="round"/>
<path d="M21.9993 2.34375L14.5293 9.81375" stroke="#0079D0" stroke-width="1.5" stroke-linecap="round" stroke-linejoin="round"/>
</g>
<defs>
<clipPath id="clip0_10238_22832">
<rect width="24" height="24" fill="white" transform="matrix(1 0 0 -1 0 24)"/>
</clipPath>
</defs>
</svg>
