<svg width="16" height="16" viewBox="0 0 16 16" fill="none" xmlns="http://www.w3.org/2000/svg">
<g id="user-setting">
<path id="Ic&#195;&#180;ne" d="M7.99996 9.33341V10.6667C6.93909 10.6667 5.92168 11.0882 5.17153 11.8383C4.42139 12.5885 3.99996 13.6059 3.99996 14.6667H2.66663C2.66663 13.2523 3.22853 11.8957 4.22872 10.8955C5.22892 9.89532 6.58547 9.33341 7.99996 9.33341V9.33341ZM7.99996 8.66675C5.78996 8.66675 3.99996 6.87675 3.99996 4.66675C3.99996 2.45675 5.78996 0.666748 7.99996 0.666748C10.21 0.666748 12 2.45675 12 4.66675C12 6.87675 10.21 8.66675 7.99996 8.66675ZM7.99996 7.33341C9.47329 7.33341 10.6666 6.14008 10.6666 4.66675C10.6666 3.19341 9.47329 2.00008 7.99996 2.00008C6.52663 2.00008 5.33329 3.19341 5.33329 4.66675C5.33329 6.14008 6.52663 7.33341 7.99996 7.33341ZM9.72996 12.5414C9.64543 12.1857 9.64543 11.8151 9.72996 11.4594L9.06863 11.0774L9.73529 9.92275L10.3966 10.3047C10.6621 10.0533 10.9829 9.86789 11.3333 9.76341V9.00008H12.6666V9.76341C13.0213 9.86875 13.3413 10.0567 13.6033 10.3047L14.2646 9.92275L14.9313 11.0774L14.27 11.4594C14.3544 11.8149 14.3544 12.1852 14.27 12.5407L14.9313 12.9227L14.2646 14.0774L13.6033 13.6954C13.3379 13.9468 13.017 14.1323 12.6666 14.2367V15.0001H11.3333V14.2367C10.9829 14.1323 10.6621 13.9468 10.3966 13.6954L9.73529 14.0774L9.06863 12.9227L9.72996 12.5414V12.5414ZM12 13.0001C12.2652 13.0001 12.5195 12.8947 12.7071 12.7072C12.8946 12.5197 13 12.2653 13 12.0001C13 11.7349 12.8946 11.4805 12.7071 11.293C12.5195 11.1054 12.2652 11.0001 12 11.0001C11.7347 11.0001 11.4804 11.1054 11.2929 11.293C11.1053 11.4805 11 11.7349 11 12.0001C11 12.2653 11.1053 12.5197 11.2929 12.7072C11.4804 12.8947 11.7347 13.0001 12 13.0001Z" fill="#0079D0"/>
</g>
</svg>
