<svg width="64" height="64" viewBox="0 0 64 64" fill="none" xmlns="http://www.w3.org/2000/svg">
    <path fill-rule="evenodd" clip-rule="evenodd" d="M60 49.6C59.5588 49.6 59.2 49.2411 59.2 48.8C59.2 48.3588 59.5588 48 60 48C60.4411 48 60.7999 48.3588 60.7999 48.8C60.7999 49.2411 60.4411 49.6 60 49.6Z" fill="#ECECFE"/>
    <path fill-rule="evenodd" clip-rule="evenodd" d="M44 3.2C43.5588 3.2 43.2 2.84112 43.2 2.4C43.2 1.95884 43.5588 1.6 44 1.6C44.4411 1.6 44.7999 1.95884 44.7999 2.4C44.7999 2.84112 44.4411 3.2 44 3.2Z" fill="#ECECFE"/>
    <path fill-rule="evenodd" clip-rule="evenodd" d="M2.39998 43.2C1.95886 43.2 1.59998 42.8411 1.59998 42.4C1.59998 41.9588 1.95886 41.6 2.39998 41.6C2.8411 41.6 3.19998 41.9588 3.19998 42.4C3.19998 42.8411 2.8411 43.2 2.39998 43.2Z" fill="#ECECFE"/>
    <path d="M32.8 14.4C33.2418 14.4 33.6 14.7582 33.6 15.2C33.6 15.6103 33.2912 15.9484 32.8933 15.9946L32.8 16H20C19.5582 16 19.2 15.6418 19.2 15.2C19.2 14.7897 19.5088 14.4516 19.9067 14.4054L20 14.4H32.8Z" fill="#0079D0"/>
    <path d="M40.8 19.2C41.2418 19.2 41.6 19.5582 41.6 20C41.6 20.4103 41.2912 20.7484 40.8933 20.7946L40.8 20.8H20C19.5582 20.8 19.2 20.4418 19.2 20C19.2 19.5897 19.5088 19.2516 19.9067 19.2054L20 19.2H40.8Z" fill="#0079D0"/>
    <path d="M36.8 24.8C36.8 24.3582 36.4418 24 36 24H20L19.9067 24.0054C19.5088 24.0516 19.2 24.3897 19.2 24.8C19.2 25.2418 19.5582 25.6 20 25.6H36L36.0933 25.5946C36.4912 25.5484 36.8 25.2103 36.8 24.8Z" fill="#0079D0"/>
    <path d="M40.8 28.8C41.2418 28.8 41.6 29.1582 41.6 29.6C41.6 30.0103 41.2912 30.3484 40.8933 30.3946L40.8 30.4H20C19.5582 30.4 19.2 30.0418 19.2 29.6C19.2 29.1897 19.5089 28.8516 19.9067 28.8054L20 28.8H40.8Z" fill="#282828"/>
    <path d="M41.6 39.2C41.6 38.7582 41.2418 38.4 40.8 38.4H20L19.9067 38.4054C19.5089 38.4516 19.2 38.7897 19.2 39.2C19.2 39.6418 19.5582 40 20 40H40.8L40.8933 39.9946C41.2912 39.9484 41.6 39.6103 41.6 39.2Z" fill="#282828"/>
    <path d="M36.8 34.4C36.8 33.9582 36.4419 33.6 36 33.6H20L19.9067 33.6054C19.5089 33.6516 19.2 33.9897 19.2 34.4C19.2 34.8418 19.5582 35.2 20 35.2H36L36.0933 35.1946C36.4912 35.1484 36.8 34.8103 36.8 34.4Z" fill="#282828"/>
    <path d="M36 48C36.4419 48 36.8 48.3582 36.8 48.8C36.8 49.2103 36.4912 49.5484 36.0933 49.5946L36 49.6H20C19.5582 49.6 19.2 49.2418 19.2 48.8C19.2 48.3897 19.5089 48.0516 19.9067 48.0054L20 48H36Z" fill="#282828"/>
    <path d="M32 44C32 43.5582 31.6419 43.2 31.2 43.2H20L19.9067 43.2054C19.5089 43.2516 19.2 43.5897 19.2 44C19.2 44.4418 19.5582 44.8 20 44.8H31.2L31.2933 44.7946C31.6912 44.7484 32 44.4103 32 44Z" fill="#282828"/>
    <path fill-rule="evenodd" clip-rule="evenodd" d="M15.2 9.6H45.6C46.0418 9.6 46.4 9.95817 46.4 10.4V53.6C46.4 54.0418 46.0418 54.4 45.6 54.4H15.2C14.7582 54.4 14.4 54.0418 14.4 53.6V10.4C14.4 9.95817 14.7582 9.6 15.2 9.6ZM44.8 52.8V11.2H16V52.8H44.8Z" fill="#282828"/>
    <path d="M48.8 16C49.2103 16 49.5484 16.3088 49.5946 16.7067L49.6 16.8V56.8C49.6 57.2103 49.2912 57.5484 48.8933 57.5946L48.8 57.6H21.6C21.1582 57.6 20.8 57.2418 20.8 56.8C20.8 56.3897 21.1089 56.0516 21.5067 56.0054L21.6 56H48V16.8C48 16.3897 48.3089 16.0516 48.7067 16.0054L48.8 16Z" fill="#282828"/>
</svg>
