<svg width="40" height="40" viewBox="0 0 40 40" fill="none" xmlns="http://www.w3.org/2000/svg">
<path d="M36.6654 16.6654V24.9987C36.6654 33.332 33.332 36.6654 24.9987 36.6654H14.9987C6.66536 36.6654 3.33203 33.332 3.33203 24.9987V14.9987C3.33203 6.66536 6.66536 3.33203 14.9987 3.33203H23.332" fill="#E9DDFF"/>
<path d="M36.6654 16.6654H29.9987C24.9987 16.6654 23.332 14.9987 23.332 9.9987V3.33203L36.6654 16.6654Z" fill="#E9DDFF"/>
<path d="M36.6654 16.6654V24.9987C36.6654 33.332 33.332 36.6654 24.9987 36.6654H14.9987C6.66536 36.6654 3.33203 33.332 3.33203 24.9987V14.9987C3.33203 6.66536 6.66536 3.33203 14.9987 3.33203H23.332M36.6654 16.6654H29.9987C24.9987 16.6654 23.332 14.9987 23.332 9.9987V3.33203M36.6654 16.6654L23.332 3.33203" stroke="#7025DA" stroke-width="2" stroke-linecap="round" stroke-linejoin="round"/>
<mask id="path-3-outside-1_14043_32569" maskUnits="userSpaceOnUse" x="9.6875" y="22.4102" width="22" height="8" fill="black">
<rect fill="white" x="9.6875" y="22.4102" width="22" height="8"/>
<path d="M13.9042 30.0852C13.4542 30.0852 13.0319 30.0018 12.6375 29.8352C12.2486 29.6629 11.9069 29.4268 11.6125 29.1268C11.3236 28.8213 11.0958 28.4657 10.9292 28.0602C10.7681 27.6546 10.6875 27.2157 10.6875 26.7435C10.6875 26.2768 10.7681 25.8435 10.9292 25.4435C11.0958 25.0379 11.3236 24.6852 11.6125 24.3852C11.9069 24.0796 12.2486 23.8407 12.6375 23.6685C13.0264 23.4963 13.4486 23.4102 13.9042 23.4102C14.3319 23.4102 14.6986 23.4657 15.0042 23.5768C15.3153 23.6879 15.6264 23.8713 15.9375 24.1268C15.9819 24.1602 16.0153 24.1963 16.0375 24.2352C16.0653 24.2685 16.0819 24.3046 16.0875 24.3435C16.0986 24.3768 16.1042 24.4185 16.1042 24.4685C16.1042 24.574 16.0653 24.6629 15.9875 24.7352C15.9153 24.8018 15.8264 24.8407 15.7208 24.8518C15.6153 24.8574 15.5125 24.8213 15.4125 24.7435C15.2069 24.5657 14.9931 24.4296 14.7708 24.3352C14.5542 24.2407 14.2653 24.1935 13.9042 24.1935C13.5764 24.1935 13.2681 24.2602 12.9792 24.3935C12.6903 24.5268 12.4347 24.7102 12.2125 24.9435C11.9958 25.1768 11.8264 25.449 11.7042 25.7602C11.5819 26.0657 11.5208 26.3935 11.5208 26.7435C11.5208 27.099 11.5819 27.4324 11.7042 27.7435C11.8264 28.049 11.9958 28.3185 12.2125 28.5518C12.4347 28.7852 12.6903 28.9685 12.9792 29.1018C13.2681 29.2296 13.5764 29.2935 13.9042 29.2935C14.1875 29.2935 14.4542 29.2463 14.7042 29.1518C14.9597 29.0518 15.2042 28.9157 15.4375 28.7435C15.5375 28.6713 15.6347 28.6407 15.7292 28.6518C15.8292 28.6574 15.9125 28.6963 15.9792 28.7685C16.0458 28.8352 16.0792 28.9296 16.0792 29.0518C16.0792 29.1074 16.0681 29.1629 16.0458 29.2185C16.0236 29.2685 15.9903 29.3157 15.9458 29.3602C15.6458 29.599 15.3236 29.7796 14.9792 29.9018C14.6403 30.024 14.2819 30.0852 13.9042 30.0852Z"/>
<path d="M21.1987 30.0852C20.8431 30.0852 20.5043 30.0296 20.182 29.9185C19.8598 29.8074 19.5793 29.6518 19.3404 29.4518C19.1015 29.2518 18.9265 29.0213 18.8154 28.7602C18.7598 28.6435 18.7598 28.5352 18.8154 28.4352C18.8765 28.3352 18.9765 28.2713 19.1154 28.2435C19.2154 28.2213 19.3126 28.2379 19.407 28.2935C19.507 28.3435 19.582 28.4213 19.632 28.5268C19.6987 28.6657 19.807 28.7935 19.957 28.9102C20.1126 29.0268 20.2987 29.1213 20.5154 29.1935C20.732 29.2657 20.9598 29.3018 21.1987 29.3018C21.4654 29.3018 21.7098 29.2602 21.932 29.1768C22.1598 29.0935 22.3431 28.974 22.482 28.8185C22.6209 28.6574 22.6904 28.4602 22.6904 28.2268C22.6904 27.9324 22.5737 27.6685 22.3404 27.4352C22.1126 27.2018 21.7348 27.0574 21.207 27.0018C20.5181 26.9352 19.9765 26.7324 19.582 26.3935C19.1876 26.0546 18.9904 25.6352 18.9904 25.1352C18.9904 24.7685 19.0931 24.4574 19.2987 24.2018C19.5043 23.9463 19.782 23.7518 20.132 23.6185C20.4876 23.4852 20.882 23.4185 21.3154 23.4185C21.6543 23.4185 21.9487 23.4657 22.1987 23.5602C22.4543 23.6546 22.6765 23.7852 22.8654 23.9518C23.0543 24.1185 23.2181 24.3157 23.357 24.5435C23.4348 24.6657 23.4654 24.7824 23.4487 24.8935C23.4376 24.999 23.3848 25.0824 23.2904 25.1435C23.1848 25.2102 23.0709 25.224 22.9487 25.1852C22.8265 25.1463 22.7348 25.074 22.6737 24.9685C22.5848 24.8074 22.4765 24.6713 22.3487 24.5602C22.2209 24.449 22.0709 24.3629 21.8987 24.3018C21.7265 24.2352 21.5237 24.2018 21.2904 24.2018C20.8793 24.1963 20.5348 24.274 20.257 24.4352C19.9793 24.5907 19.8404 24.8324 19.8404 25.1602C19.8404 25.3268 19.882 25.4879 19.9654 25.6435C20.0543 25.7935 20.2126 25.924 20.4404 26.0352C20.6737 26.1463 21.007 26.224 21.4404 26.2685C22.1015 26.3352 22.6154 26.5379 22.982 26.8768C23.3543 27.2102 23.5404 27.6518 23.5404 28.2018C23.5404 28.5185 23.4737 28.7935 23.3404 29.0268C23.2126 29.2602 23.0376 29.4574 22.8154 29.6185C22.5987 29.774 22.3487 29.8907 22.0654 29.9685C21.7876 30.0463 21.4987 30.0852 21.1987 30.0852Z"/>
<path d="M28.4357 30.0018C28.2579 30.0018 28.1273 29.9102 28.044 29.7268L25.6023 24.1435C25.5246 23.9546 25.5162 23.799 25.5773 23.6768C25.6385 23.5546 25.7551 23.4935 25.9273 23.4935C26.1218 23.4935 26.2551 23.5796 26.3273 23.7518L28.469 28.8935H28.3773L30.5607 23.7518C30.6051 23.6518 30.6551 23.5852 30.7107 23.5518C30.7718 23.5129 30.8523 23.4935 30.9523 23.4935C31.119 23.4935 31.2329 23.5546 31.294 23.6768C31.3607 23.7935 31.3607 23.924 31.294 24.0685L28.8273 29.7268C28.7885 29.8157 28.7357 29.8852 28.669 29.9352C28.6079 29.9796 28.5301 30.0018 28.4357 30.0018Z"/>
</mask>
<path d="M13.9042 30.0852C13.4542 30.0852 13.0319 30.0018 12.6375 29.8352C12.2486 29.6629 11.9069 29.4268 11.6125 29.1268C11.3236 28.8213 11.0958 28.4657 10.9292 28.0602C10.7681 27.6546 10.6875 27.2157 10.6875 26.7435C10.6875 26.2768 10.7681 25.8435 10.9292 25.4435C11.0958 25.0379 11.3236 24.6852 11.6125 24.3852C11.9069 24.0796 12.2486 23.8407 12.6375 23.6685C13.0264 23.4963 13.4486 23.4102 13.9042 23.4102C14.3319 23.4102 14.6986 23.4657 15.0042 23.5768C15.3153 23.6879 15.6264 23.8713 15.9375 24.1268C15.9819 24.1602 16.0153 24.1963 16.0375 24.2352C16.0653 24.2685 16.0819 24.3046 16.0875 24.3435C16.0986 24.3768 16.1042 24.4185 16.1042 24.4685C16.1042 24.574 16.0653 24.6629 15.9875 24.7352C15.9153 24.8018 15.8264 24.8407 15.7208 24.8518C15.6153 24.8574 15.5125 24.8213 15.4125 24.7435C15.2069 24.5657 14.9931 24.4296 14.7708 24.3352C14.5542 24.2407 14.2653 24.1935 13.9042 24.1935C13.5764 24.1935 13.2681 24.2602 12.9792 24.3935C12.6903 24.5268 12.4347 24.7102 12.2125 24.9435C11.9958 25.1768 11.8264 25.449 11.7042 25.7602C11.5819 26.0657 11.5208 26.3935 11.5208 26.7435C11.5208 27.099 11.5819 27.4324 11.7042 27.7435C11.8264 28.049 11.9958 28.3185 12.2125 28.5518C12.4347 28.7852 12.6903 28.9685 12.9792 29.1018C13.2681 29.2296 13.5764 29.2935 13.9042 29.2935C14.1875 29.2935 14.4542 29.2463 14.7042 29.1518C14.9597 29.0518 15.2042 28.9157 15.4375 28.7435C15.5375 28.6713 15.6347 28.6407 15.7292 28.6518C15.8292 28.6574 15.9125 28.6963 15.9792 28.7685C16.0458 28.8352 16.0792 28.9296 16.0792 29.0518C16.0792 29.1074 16.0681 29.1629 16.0458 29.2185C16.0236 29.2685 15.9903 29.3157 15.9458 29.3602C15.6458 29.599 15.3236 29.7796 14.9792 29.9018C14.6403 30.024 14.2819 30.0852 13.9042 30.0852Z" fill="#7025DA"/>
<path d="M21.1987 30.0852C20.8431 30.0852 20.5043 30.0296 20.182 29.9185C19.8598 29.8074 19.5793 29.6518 19.3404 29.4518C19.1015 29.2518 18.9265 29.0213 18.8154 28.7602C18.7598 28.6435 18.7598 28.5352 18.8154 28.4352C18.8765 28.3352 18.9765 28.2713 19.1154 28.2435C19.2154 28.2213 19.3126 28.2379 19.407 28.2935C19.507 28.3435 19.582 28.4213 19.632 28.5268C19.6987 28.6657 19.807 28.7935 19.957 28.9102C20.1126 29.0268 20.2987 29.1213 20.5154 29.1935C20.732 29.2657 20.9598 29.3018 21.1987 29.3018C21.4654 29.3018 21.7098 29.2602 21.932 29.1768C22.1598 29.0935 22.3431 28.974 22.482 28.8185C22.6209 28.6574 22.6904 28.4602 22.6904 28.2268C22.6904 27.9324 22.5737 27.6685 22.3404 27.4352C22.1126 27.2018 21.7348 27.0574 21.207 27.0018C20.5181 26.9352 19.9765 26.7324 19.582 26.3935C19.1876 26.0546 18.9904 25.6352 18.9904 25.1352C18.9904 24.7685 19.0931 24.4574 19.2987 24.2018C19.5043 23.9463 19.782 23.7518 20.132 23.6185C20.4876 23.4852 20.882 23.4185 21.3154 23.4185C21.6543 23.4185 21.9487 23.4657 22.1987 23.5602C22.4543 23.6546 22.6765 23.7852 22.8654 23.9518C23.0543 24.1185 23.2181 24.3157 23.357 24.5435C23.4348 24.6657 23.4654 24.7824 23.4487 24.8935C23.4376 24.999 23.3848 25.0824 23.2904 25.1435C23.1848 25.2102 23.0709 25.224 22.9487 25.1852C22.8265 25.1463 22.7348 25.074 22.6737 24.9685C22.5848 24.8074 22.4765 24.6713 22.3487 24.5602C22.2209 24.449 22.0709 24.3629 21.8987 24.3018C21.7265 24.2352 21.5237 24.2018 21.2904 24.2018C20.8793 24.1963 20.5348 24.274 20.257 24.4352C19.9793 24.5907 19.8404 24.8324 19.8404 25.1602C19.8404 25.3268 19.882 25.4879 19.9654 25.6435C20.0543 25.7935 20.2126 25.924 20.4404 26.0352C20.6737 26.1463 21.007 26.224 21.4404 26.2685C22.1015 26.3352 22.6154 26.5379 22.982 26.8768C23.3543 27.2102 23.5404 27.6518 23.5404 28.2018C23.5404 28.5185 23.4737 28.7935 23.3404 29.0268C23.2126 29.2602 23.0376 29.4574 22.8154 29.6185C22.5987 29.774 22.3487 29.8907 22.0654 29.9685C21.7876 30.0463 21.4987 30.0852 21.1987 30.0852Z" fill="#7025DA"/>
<path d="M28.4357 30.0018C28.2579 30.0018 28.1273 29.9102 28.044 29.7268L25.6023 24.1435C25.5246 23.9546 25.5162 23.799 25.5773 23.6768C25.6385 23.5546 25.7551 23.4935 25.9273 23.4935C26.1218 23.4935 26.2551 23.5796 26.3273 23.7518L28.469 28.8935H28.3773L30.5607 23.7518C30.6051 23.6518 30.6551 23.5852 30.7107 23.5518C30.7718 23.5129 30.8523 23.4935 30.9523 23.4935C31.119 23.4935 31.2329 23.5546 31.294 23.6768C31.3607 23.7935 31.3607 23.924 31.294 24.0685L28.8273 29.7268C28.7885 29.8157 28.7357 29.8852 28.669 29.9352C28.6079 29.9796 28.5301 30.0018 28.4357 30.0018Z" fill="#7025DA"/>
<path d="M13.9042 30.0852C13.4542 30.0852 13.0319 30.0018 12.6375 29.8352C12.2486 29.6629 11.9069 29.4268 11.6125 29.1268C11.3236 28.8213 11.0958 28.4657 10.9292 28.0602C10.7681 27.6546 10.6875 27.2157 10.6875 26.7435C10.6875 26.2768 10.7681 25.8435 10.9292 25.4435C11.0958 25.0379 11.3236 24.6852 11.6125 24.3852C11.9069 24.0796 12.2486 23.8407 12.6375 23.6685C13.0264 23.4963 13.4486 23.4102 13.9042 23.4102C14.3319 23.4102 14.6986 23.4657 15.0042 23.5768C15.3153 23.6879 15.6264 23.8713 15.9375 24.1268C15.9819 24.1602 16.0153 24.1963 16.0375 24.2352C16.0653 24.2685 16.0819 24.3046 16.0875 24.3435C16.0986 24.3768 16.1042 24.4185 16.1042 24.4685C16.1042 24.574 16.0653 24.6629 15.9875 24.7352C15.9153 24.8018 15.8264 24.8407 15.7208 24.8518C15.6153 24.8574 15.5125 24.8213 15.4125 24.7435C15.2069 24.5657 14.9931 24.4296 14.7708 24.3352C14.5542 24.2407 14.2653 24.1935 13.9042 24.1935C13.5764 24.1935 13.2681 24.2602 12.9792 24.3935C12.6903 24.5268 12.4347 24.7102 12.2125 24.9435C11.9958 25.1768 11.8264 25.449 11.7042 25.7602C11.5819 26.0657 11.5208 26.3935 11.5208 26.7435C11.5208 27.099 11.5819 27.4324 11.7042 27.7435C11.8264 28.049 11.9958 28.3185 12.2125 28.5518C12.4347 28.7852 12.6903 28.9685 12.9792 29.1018C13.2681 29.2296 13.5764 29.2935 13.9042 29.2935C14.1875 29.2935 14.4542 29.2463 14.7042 29.1518C14.9597 29.0518 15.2042 28.9157 15.4375 28.7435C15.5375 28.6713 15.6347 28.6407 15.7292 28.6518C15.8292 28.6574 15.9125 28.6963 15.9792 28.7685C16.0458 28.8352 16.0792 28.9296 16.0792 29.0518C16.0792 29.1074 16.0681 29.1629 16.0458 29.2185C16.0236 29.2685 15.9903 29.3157 15.9458 29.3602C15.6458 29.599 15.3236 29.7796 14.9792 29.9018C14.6403 30.024 14.2819 30.0852 13.9042 30.0852Z" stroke="#7025DA" stroke-width="0.5" mask="url(#path-3-outside-1_14043_32569)"/>
<path d="M21.1987 30.0852C20.8431 30.0852 20.5043 30.0296 20.182 29.9185C19.8598 29.8074 19.5793 29.6518 19.3404 29.4518C19.1015 29.2518 18.9265 29.0213 18.8154 28.7602C18.7598 28.6435 18.7598 28.5352 18.8154 28.4352C18.8765 28.3352 18.9765 28.2713 19.1154 28.2435C19.2154 28.2213 19.3126 28.2379 19.407 28.2935C19.507 28.3435 19.582 28.4213 19.632 28.5268C19.6987 28.6657 19.807 28.7935 19.957 28.9102C20.1126 29.0268 20.2987 29.1213 20.5154 29.1935C20.732 29.2657 20.9598 29.3018 21.1987 29.3018C21.4654 29.3018 21.7098 29.2602 21.932 29.1768C22.1598 29.0935 22.3431 28.974 22.482 28.8185C22.6209 28.6574 22.6904 28.4602 22.6904 28.2268C22.6904 27.9324 22.5737 27.6685 22.3404 27.4352C22.1126 27.2018 21.7348 27.0574 21.207 27.0018C20.5181 26.9352 19.9765 26.7324 19.582 26.3935C19.1876 26.0546 18.9904 25.6352 18.9904 25.1352C18.9904 24.7685 19.0931 24.4574 19.2987 24.2018C19.5043 23.9463 19.782 23.7518 20.132 23.6185C20.4876 23.4852 20.882 23.4185 21.3154 23.4185C21.6543 23.4185 21.9487 23.4657 22.1987 23.5602C22.4543 23.6546 22.6765 23.7852 22.8654 23.9518C23.0543 24.1185 23.2181 24.3157 23.357 24.5435C23.4348 24.6657 23.4654 24.7824 23.4487 24.8935C23.4376 24.999 23.3848 25.0824 23.2904 25.1435C23.1848 25.2102 23.0709 25.224 22.9487 25.1852C22.8265 25.1463 22.7348 25.074 22.6737 24.9685C22.5848 24.8074 22.4765 24.6713 22.3487 24.5602C22.2209 24.449 22.0709 24.3629 21.8987 24.3018C21.7265 24.2352 21.5237 24.2018 21.2904 24.2018C20.8793 24.1963 20.5348 24.274 20.257 24.4352C19.9793 24.5907 19.8404 24.8324 19.8404 25.1602C19.8404 25.3268 19.882 25.4879 19.9654 25.6435C20.0543 25.7935 20.2126 25.924 20.4404 26.0352C20.6737 26.1463 21.007 26.224 21.4404 26.2685C22.1015 26.3352 22.6154 26.5379 22.982 26.8768C23.3543 27.2102 23.5404 27.6518 23.5404 28.2018C23.5404 28.5185 23.4737 28.7935 23.3404 29.0268C23.2126 29.2602 23.0376 29.4574 22.8154 29.6185C22.5987 29.774 22.3487 29.8907 22.0654 29.9685C21.7876 30.0463 21.4987 30.0852 21.1987 30.0852Z" stroke="#7025DA" stroke-width="0.5" mask="url(#path-3-outside-1_14043_32569)"/>
<path d="M28.4357 30.0018C28.2579 30.0018 28.1273 29.9102 28.044 29.7268L25.6023 24.1435C25.5246 23.9546 25.5162 23.799 25.5773 23.6768C25.6385 23.5546 25.7551 23.4935 25.9273 23.4935C26.1218 23.4935 26.2551 23.5796 26.3273 23.7518L28.469 28.8935H28.3773L30.5607 23.7518C30.6051 23.6518 30.6551 23.5852 30.7107 23.5518C30.7718 23.5129 30.8523 23.4935 30.9523 23.4935C31.119 23.4935 31.2329 23.5546 31.294 23.6768C31.3607 23.7935 31.3607 23.924 31.294 24.0685L28.8273 29.7268C28.7885 29.8157 28.7357 29.8852 28.669 29.9352C28.6079 29.9796 28.5301 30.0018 28.4357 30.0018Z" stroke="#7025DA" stroke-width="0.5" mask="url(#path-3-outside-1_14043_32569)"/>
</svg>
