<svg width="20" height="21" viewBox="0 0 20 21" fill="none" xmlns="http://www.w3.org/2000/svg">
<path d="M9.99935 18.7673C14.5827 18.7673 18.3327 15.0173 18.3327 10.4339C18.3327 5.85059 14.5827 2.10059 9.99935 2.10059C5.41602 2.10059 1.66602 5.85059 1.66602 10.4339C1.66602 15.0173 5.41602 18.7673 9.99935 18.7673Z" fill="white"/>
<path d="M9.34841 13.8183C9.16997 13.9967 8.83156 14.169 8.58545 14.2059L7.07184 14.4213C7.01646 14.4274 6.96108 14.4336 6.90571 14.4336C6.65344 14.4336 6.41963 14.3474 6.2535 14.1813C6.05045 13.9782 5.96431 13.6829 6.01354 13.3568L6.22889 11.8432C6.26581 11.5909 6.43193 11.2587 6.61652 11.0802L9.36071 8.33604C9.40994 8.46525 9.45916 8.59446 9.52684 8.74213C9.58837 8.87134 9.65605 9.00671 9.72989 9.12977C9.79142 9.23436 9.8591 9.33281 9.91447 9.40665C9.98216 9.51124 10.0621 9.60969 10.1114 9.66507C10.1421 9.70814 10.1667 9.7389 10.179 9.75121C10.3329 9.93579 10.5113 10.1081 10.6651 10.2373C10.7082 10.2804 10.7328 10.305 10.7451 10.3111C10.8374 10.385 10.9297 10.4588 11.0097 10.5142C11.1081 10.588 11.2066 10.6557 11.3112 10.7111C11.4342 10.7849 11.5696 10.8526 11.705 10.9203C11.8465 10.9818 11.9757 11.0372 12.1049 11.0802L9.34841 13.8183ZM13.2986 9.86811L12.7325 10.4403C12.6956 10.4773 12.6464 10.4957 12.5971 10.4957C12.5787 10.4957 12.5541 10.4957 12.5418 10.4896C11.2927 10.1327 10.296 9.13592 9.93909 7.88688C9.92063 7.8192 9.93909 7.74536 9.98831 7.70229L10.5605 7.13007C11.4958 6.19483 12.3879 6.21329 13.3047 7.13007C13.7723 7.59769 14 8.04685 14 8.51447C13.9938 8.95748 13.7662 9.40049 13.2986 9.86811Z" fill="#0079D0" stroke="white" stroke-width="0.6"/>
</svg>
