<svg width="48" height="48" viewBox="0 0 48 48" fill="none" xmlns="http://www.w3.org/2000/svg">
<path d="M44 20V30C44 40 40 44 30 44H18C8 44 4 40 4 30V18C4 8 8 4 18 4H28" fill="#E9DDFF"/>
<path d="M44 20H36C30 20 28 18 28 12V4L44 20Z" fill="#E9DDFF"/>
<path d="M44 20V30C44 40 40 44 30 44H18C8 44 4 40 4 30V18C4 8 8 4 18 4H28M44 20H36C30 20 28 18 28 12V4M44 20L28 4" stroke="#7025DA" stroke-width="2" stroke-linecap="round" stroke-linejoin="round"/>
<mask id="path-3-outside-1_9257_20137" maskUnits="userSpaceOnUse" x="11.8242" y="27.0898" width="27" height="10" fill="black">
<rect fill="white" x="11.8242" y="27.0898" width="27" height="10"/>
<path d="M16.6842 36.0998C16.1442 36.0998 15.6376 35.9998 15.1642 35.7998C14.6976 35.5932 14.2876 35.3098 13.9342 34.9498C13.5876 34.5832 13.3142 34.1565 13.1142 33.6698C12.9209 33.1832 12.8242 32.6565 12.8242 32.0898C12.8242 31.5298 12.9209 31.0098 13.1142 30.5298C13.3142 30.0432 13.5876 29.6198 13.9342 29.2598C14.2876 28.8932 14.6976 28.6065 15.1642 28.3998C15.6309 28.1932 16.1376 28.0898 16.6842 28.0898C17.1976 28.0898 17.6376 28.1565 18.0042 28.2898C18.3776 28.4232 18.7509 28.6432 19.1242 28.9498C19.1776 28.9898 19.2176 29.0332 19.2442 29.0798C19.2776 29.1198 19.2976 29.1632 19.3042 29.2098C19.3176 29.2498 19.3242 29.2998 19.3242 29.3598C19.3242 29.4865 19.2776 29.5932 19.1842 29.6798C19.0976 29.7598 18.9909 29.8065 18.8642 29.8198C18.7376 29.8265 18.6142 29.7832 18.4942 29.6898C18.2476 29.4765 17.9909 29.3132 17.7242 29.1998C17.4642 29.0865 17.1176 29.0298 16.6842 29.0298C16.2909 29.0298 15.9209 29.1098 15.5742 29.2698C15.2276 29.4298 14.9209 29.6498 14.6542 29.9298C14.3942 30.2098 14.1909 30.5365 14.0442 30.9098C13.8976 31.2765 13.8242 31.6698 13.8242 32.0898C13.8242 32.5165 13.8976 32.9165 14.0442 33.2898C14.1909 33.6565 14.3942 33.9798 14.6542 34.2598C14.9209 34.5398 15.2276 34.7598 15.5742 34.9198C15.9209 35.0732 16.2909 35.1498 16.6842 35.1498C17.0242 35.1498 17.3442 35.0932 17.6442 34.9798C17.9509 34.8598 18.2442 34.6965 18.5242 34.4898C18.6442 34.4032 18.7609 34.3665 18.8742 34.3798C18.9942 34.3865 19.0942 34.4332 19.1742 34.5198C19.2542 34.5998 19.2942 34.7132 19.2942 34.8598C19.2942 34.9265 19.2809 34.9932 19.2542 35.0598C19.2276 35.1198 19.1876 35.1765 19.1342 35.2298C18.7742 35.5165 18.3876 35.7332 17.9742 35.8798C17.5676 36.0265 17.1376 36.0998 16.6842 36.0998Z"/>
<path d="M25.4377 36.0998C25.011 36.0998 24.6043 36.0332 24.2177 35.8998C23.831 35.7665 23.4943 35.5798 23.2077 35.3398C22.921 35.0998 22.711 34.8232 22.5777 34.5098C22.511 34.3698 22.511 34.2398 22.5777 34.1198C22.651 33.9998 22.771 33.9232 22.9377 33.8898C23.0577 33.8632 23.1743 33.8832 23.2877 33.9498C23.4077 34.0098 23.4977 34.1032 23.5577 34.2298C23.6377 34.3965 23.7677 34.5498 23.9477 34.6898C24.1343 34.8298 24.3577 34.9432 24.6177 35.0298C24.8777 35.1165 25.151 35.1598 25.4377 35.1598C25.7577 35.1598 26.051 35.1098 26.3177 35.0098C26.591 34.9098 26.811 34.7665 26.9777 34.5798C27.1443 34.3865 27.2277 34.1498 27.2277 33.8698C27.2277 33.5165 27.0877 33.1998 26.8077 32.9198C26.5343 32.6398 26.081 32.4665 25.4477 32.3998C24.621 32.3198 23.971 32.0765 23.4977 31.6698C23.0243 31.2632 22.7877 30.7598 22.7877 30.1598C22.7877 29.7198 22.911 29.3465 23.1577 29.0398C23.4043 28.7332 23.7377 28.4998 24.1577 28.3398C24.5843 28.1798 25.0577 28.0998 25.5777 28.0998C25.9843 28.0998 26.3377 28.1565 26.6377 28.2698C26.9443 28.3832 27.211 28.5398 27.4377 28.7398C27.6643 28.9398 27.861 29.1765 28.0277 29.4498C28.121 29.5965 28.1577 29.7365 28.1377 29.8698C28.1243 29.9965 28.061 30.0965 27.9477 30.1698C27.821 30.2498 27.6843 30.2665 27.5377 30.2198C27.391 30.1732 27.281 30.0865 27.2077 29.9598C27.101 29.7665 26.971 29.6032 26.8177 29.4698C26.6643 29.3365 26.4843 29.2332 26.2777 29.1598C26.071 29.0798 25.8277 29.0398 25.5477 29.0398C25.0543 29.0332 24.641 29.1265 24.3077 29.3198C23.9743 29.5065 23.8077 29.7965 23.8077 30.1898C23.8077 30.3898 23.8577 30.5832 23.9577 30.7698C24.0643 30.9498 24.2543 31.1065 24.5277 31.2398C24.8077 31.3732 25.2077 31.4665 25.7277 31.5198C26.521 31.5998 27.1377 31.8432 27.5777 32.2498C28.0243 32.6498 28.2477 33.1798 28.2477 33.8398C28.2477 34.2198 28.1677 34.5498 28.0077 34.8298C27.8543 35.1098 27.6443 35.3465 27.3777 35.5398C27.1177 35.7265 26.8177 35.8665 26.4777 35.9598C26.1443 36.0532 25.7977 36.0998 25.4377 36.0998Z"/>
<path d="M34.122 35.9998C33.9087 35.9998 33.752 35.8898 33.652 35.6698L30.722 28.9698C30.6287 28.7432 30.6187 28.5565 30.692 28.4098C30.7654 28.2632 30.9054 28.1898 31.112 28.1898C31.3454 28.1898 31.5054 28.2932 31.592 28.4998L34.162 34.6698H34.052L36.672 28.4998C36.7254 28.3798 36.7854 28.2998 36.852 28.2598C36.9254 28.2132 37.022 28.1898 37.142 28.1898C37.342 28.1898 37.4787 28.2632 37.552 28.4098C37.632 28.5498 37.632 28.7065 37.552 28.8798L34.592 35.6698C34.5454 35.7765 34.482 35.8598 34.402 35.9198C34.3287 35.9732 34.2354 35.9998 34.122 35.9998Z"/>
</mask>
<path d="M16.6842 36.0998C16.1442 36.0998 15.6376 35.9998 15.1642 35.7998C14.6976 35.5932 14.2876 35.3098 13.9342 34.9498C13.5876 34.5832 13.3142 34.1565 13.1142 33.6698C12.9209 33.1832 12.8242 32.6565 12.8242 32.0898C12.8242 31.5298 12.9209 31.0098 13.1142 30.5298C13.3142 30.0432 13.5876 29.6198 13.9342 29.2598C14.2876 28.8932 14.6976 28.6065 15.1642 28.3998C15.6309 28.1932 16.1376 28.0898 16.6842 28.0898C17.1976 28.0898 17.6376 28.1565 18.0042 28.2898C18.3776 28.4232 18.7509 28.6432 19.1242 28.9498C19.1776 28.9898 19.2176 29.0332 19.2442 29.0798C19.2776 29.1198 19.2976 29.1632 19.3042 29.2098C19.3176 29.2498 19.3242 29.2998 19.3242 29.3598C19.3242 29.4865 19.2776 29.5932 19.1842 29.6798C19.0976 29.7598 18.9909 29.8065 18.8642 29.8198C18.7376 29.8265 18.6142 29.7832 18.4942 29.6898C18.2476 29.4765 17.9909 29.3132 17.7242 29.1998C17.4642 29.0865 17.1176 29.0298 16.6842 29.0298C16.2909 29.0298 15.9209 29.1098 15.5742 29.2698C15.2276 29.4298 14.9209 29.6498 14.6542 29.9298C14.3942 30.2098 14.1909 30.5365 14.0442 30.9098C13.8976 31.2765 13.8242 31.6698 13.8242 32.0898C13.8242 32.5165 13.8976 32.9165 14.0442 33.2898C14.1909 33.6565 14.3942 33.9798 14.6542 34.2598C14.9209 34.5398 15.2276 34.7598 15.5742 34.9198C15.9209 35.0732 16.2909 35.1498 16.6842 35.1498C17.0242 35.1498 17.3442 35.0932 17.6442 34.9798C17.9509 34.8598 18.2442 34.6965 18.5242 34.4898C18.6442 34.4032 18.7609 34.3665 18.8742 34.3798C18.9942 34.3865 19.0942 34.4332 19.1742 34.5198C19.2542 34.5998 19.2942 34.7132 19.2942 34.8598C19.2942 34.9265 19.2809 34.9932 19.2542 35.0598C19.2276 35.1198 19.1876 35.1765 19.1342 35.2298C18.7742 35.5165 18.3876 35.7332 17.9742 35.8798C17.5676 36.0265 17.1376 36.0998 16.6842 36.0998Z" fill="#7025DA"/>
<path d="M25.4377 36.0998C25.011 36.0998 24.6043 36.0332 24.2177 35.8998C23.831 35.7665 23.4943 35.5798 23.2077 35.3398C22.921 35.0998 22.711 34.8232 22.5777 34.5098C22.511 34.3698 22.511 34.2398 22.5777 34.1198C22.651 33.9998 22.771 33.9232 22.9377 33.8898C23.0577 33.8632 23.1743 33.8832 23.2877 33.9498C23.4077 34.0098 23.4977 34.1032 23.5577 34.2298C23.6377 34.3965 23.7677 34.5498 23.9477 34.6898C24.1343 34.8298 24.3577 34.9432 24.6177 35.0298C24.8777 35.1165 25.151 35.1598 25.4377 35.1598C25.7577 35.1598 26.051 35.1098 26.3177 35.0098C26.591 34.9098 26.811 34.7665 26.9777 34.5798C27.1443 34.3865 27.2277 34.1498 27.2277 33.8698C27.2277 33.5165 27.0877 33.1998 26.8077 32.9198C26.5343 32.6398 26.081 32.4665 25.4477 32.3998C24.621 32.3198 23.971 32.0765 23.4977 31.6698C23.0243 31.2632 22.7877 30.7598 22.7877 30.1598C22.7877 29.7198 22.911 29.3465 23.1577 29.0398C23.4043 28.7332 23.7377 28.4998 24.1577 28.3398C24.5843 28.1798 25.0577 28.0998 25.5777 28.0998C25.9843 28.0998 26.3377 28.1565 26.6377 28.2698C26.9443 28.3832 27.211 28.5398 27.4377 28.7398C27.6643 28.9398 27.861 29.1765 28.0277 29.4498C28.121 29.5965 28.1577 29.7365 28.1377 29.8698C28.1243 29.9965 28.061 30.0965 27.9477 30.1698C27.821 30.2498 27.6843 30.2665 27.5377 30.2198C27.391 30.1732 27.281 30.0865 27.2077 29.9598C27.101 29.7665 26.971 29.6032 26.8177 29.4698C26.6643 29.3365 26.4843 29.2332 26.2777 29.1598C26.071 29.0798 25.8277 29.0398 25.5477 29.0398C25.0543 29.0332 24.641 29.1265 24.3077 29.3198C23.9743 29.5065 23.8077 29.7965 23.8077 30.1898C23.8077 30.3898 23.8577 30.5832 23.9577 30.7698C24.0643 30.9498 24.2543 31.1065 24.5277 31.2398C24.8077 31.3732 25.2077 31.4665 25.7277 31.5198C26.521 31.5998 27.1377 31.8432 27.5777 32.2498C28.0243 32.6498 28.2477 33.1798 28.2477 33.8398C28.2477 34.2198 28.1677 34.5498 28.0077 34.8298C27.8543 35.1098 27.6443 35.3465 27.3777 35.5398C27.1177 35.7265 26.8177 35.8665 26.4777 35.9598C26.1443 36.0532 25.7977 36.0998 25.4377 36.0998Z" fill="#7025DA"/>
<path d="M34.122 35.9998C33.9087 35.9998 33.752 35.8898 33.652 35.6698L30.722 28.9698C30.6287 28.7432 30.6187 28.5565 30.692 28.4098C30.7654 28.2632 30.9054 28.1898 31.112 28.1898C31.3454 28.1898 31.5054 28.2932 31.592 28.4998L34.162 34.6698H34.052L36.672 28.4998C36.7254 28.3798 36.7854 28.2998 36.852 28.2598C36.9254 28.2132 37.022 28.1898 37.142 28.1898C37.342 28.1898 37.4787 28.2632 37.552 28.4098C37.632 28.5498 37.632 28.7065 37.552 28.8798L34.592 35.6698C34.5454 35.7765 34.482 35.8598 34.402 35.9198C34.3287 35.9732 34.2354 35.9998 34.122 35.9998Z" fill="#7025DA"/>
<path d="M16.6842 36.0998C16.1442 36.0998 15.6376 35.9998 15.1642 35.7998C14.6976 35.5932 14.2876 35.3098 13.9342 34.9498C13.5876 34.5832 13.3142 34.1565 13.1142 33.6698C12.9209 33.1832 12.8242 32.6565 12.8242 32.0898C12.8242 31.5298 12.9209 31.0098 13.1142 30.5298C13.3142 30.0432 13.5876 29.6198 13.9342 29.2598C14.2876 28.8932 14.6976 28.6065 15.1642 28.3998C15.6309 28.1932 16.1376 28.0898 16.6842 28.0898C17.1976 28.0898 17.6376 28.1565 18.0042 28.2898C18.3776 28.4232 18.7509 28.6432 19.1242 28.9498C19.1776 28.9898 19.2176 29.0332 19.2442 29.0798C19.2776 29.1198 19.2976 29.1632 19.3042 29.2098C19.3176 29.2498 19.3242 29.2998 19.3242 29.3598C19.3242 29.4865 19.2776 29.5932 19.1842 29.6798C19.0976 29.7598 18.9909 29.8065 18.8642 29.8198C18.7376 29.8265 18.6142 29.7832 18.4942 29.6898C18.2476 29.4765 17.9909 29.3132 17.7242 29.1998C17.4642 29.0865 17.1176 29.0298 16.6842 29.0298C16.2909 29.0298 15.9209 29.1098 15.5742 29.2698C15.2276 29.4298 14.9209 29.6498 14.6542 29.9298C14.3942 30.2098 14.1909 30.5365 14.0442 30.9098C13.8976 31.2765 13.8242 31.6698 13.8242 32.0898C13.8242 32.5165 13.8976 32.9165 14.0442 33.2898C14.1909 33.6565 14.3942 33.9798 14.6542 34.2598C14.9209 34.5398 15.2276 34.7598 15.5742 34.9198C15.9209 35.0732 16.2909 35.1498 16.6842 35.1498C17.0242 35.1498 17.3442 35.0932 17.6442 34.9798C17.9509 34.8598 18.2442 34.6965 18.5242 34.4898C18.6442 34.4032 18.7609 34.3665 18.8742 34.3798C18.9942 34.3865 19.0942 34.4332 19.1742 34.5198C19.2542 34.5998 19.2942 34.7132 19.2942 34.8598C19.2942 34.9265 19.2809 34.9932 19.2542 35.0598C19.2276 35.1198 19.1876 35.1765 19.1342 35.2298C18.7742 35.5165 18.3876 35.7332 17.9742 35.8798C17.5676 36.0265 17.1376 36.0998 16.6842 36.0998Z" stroke="#7025DA" stroke-width="0.5" mask="url(#path-3-outside-1_9257_20137)"/>
<path d="M25.4377 36.0998C25.011 36.0998 24.6043 36.0332 24.2177 35.8998C23.831 35.7665 23.4943 35.5798 23.2077 35.3398C22.921 35.0998 22.711 34.8232 22.5777 34.5098C22.511 34.3698 22.511 34.2398 22.5777 34.1198C22.651 33.9998 22.771 33.9232 22.9377 33.8898C23.0577 33.8632 23.1743 33.8832 23.2877 33.9498C23.4077 34.0098 23.4977 34.1032 23.5577 34.2298C23.6377 34.3965 23.7677 34.5498 23.9477 34.6898C24.1343 34.8298 24.3577 34.9432 24.6177 35.0298C24.8777 35.1165 25.151 35.1598 25.4377 35.1598C25.7577 35.1598 26.051 35.1098 26.3177 35.0098C26.591 34.9098 26.811 34.7665 26.9777 34.5798C27.1443 34.3865 27.2277 34.1498 27.2277 33.8698C27.2277 33.5165 27.0877 33.1998 26.8077 32.9198C26.5343 32.6398 26.081 32.4665 25.4477 32.3998C24.621 32.3198 23.971 32.0765 23.4977 31.6698C23.0243 31.2632 22.7877 30.7598 22.7877 30.1598C22.7877 29.7198 22.911 29.3465 23.1577 29.0398C23.4043 28.7332 23.7377 28.4998 24.1577 28.3398C24.5843 28.1798 25.0577 28.0998 25.5777 28.0998C25.9843 28.0998 26.3377 28.1565 26.6377 28.2698C26.9443 28.3832 27.211 28.5398 27.4377 28.7398C27.6643 28.9398 27.861 29.1765 28.0277 29.4498C28.121 29.5965 28.1577 29.7365 28.1377 29.8698C28.1243 29.9965 28.061 30.0965 27.9477 30.1698C27.821 30.2498 27.6843 30.2665 27.5377 30.2198C27.391 30.1732 27.281 30.0865 27.2077 29.9598C27.101 29.7665 26.971 29.6032 26.8177 29.4698C26.6643 29.3365 26.4843 29.2332 26.2777 29.1598C26.071 29.0798 25.8277 29.0398 25.5477 29.0398C25.0543 29.0332 24.641 29.1265 24.3077 29.3198C23.9743 29.5065 23.8077 29.7965 23.8077 30.1898C23.8077 30.3898 23.8577 30.5832 23.9577 30.7698C24.0643 30.9498 24.2543 31.1065 24.5277 31.2398C24.8077 31.3732 25.2077 31.4665 25.7277 31.5198C26.521 31.5998 27.1377 31.8432 27.5777 32.2498C28.0243 32.6498 28.2477 33.1798 28.2477 33.8398C28.2477 34.2198 28.1677 34.5498 28.0077 34.8298C27.8543 35.1098 27.6443 35.3465 27.3777 35.5398C27.1177 35.7265 26.8177 35.8665 26.4777 35.9598C26.1443 36.0532 25.7977 36.0998 25.4377 36.0998Z" stroke="#7025DA" stroke-width="0.5" mask="url(#path-3-outside-1_9257_20137)"/>
<path d="M34.122 35.9998C33.9087 35.9998 33.752 35.8898 33.652 35.6698L30.722 28.9698C30.6287 28.7432 30.6187 28.5565 30.692 28.4098C30.7654 28.2632 30.9054 28.1898 31.112 28.1898C31.3454 28.1898 31.5054 28.2932 31.592 28.4998L34.162 34.6698H34.052L36.672 28.4998C36.7254 28.3798 36.7854 28.2998 36.852 28.2598C36.9254 28.2132 37.022 28.1898 37.142 28.1898C37.342 28.1898 37.4787 28.2632 37.552 28.4098C37.632 28.5498 37.632 28.7065 37.552 28.8798L34.592 35.6698C34.5454 35.7765 34.482 35.8598 34.402 35.9198C34.3287 35.9732 34.2354 35.9998 34.122 35.9998Z" stroke="#7025DA" stroke-width="0.5" mask="url(#path-3-outside-1_9257_20137)"/>
</svg>
