<svg width="72" height="88" viewBox="0 0 72 88" fill="none" xmlns="http://www.w3.org/2000/svg">
<path d="M8 14.416V51.156C8.00004 53.7898 8.6503 56.3829 9.89305 58.7052C11.1358 61.0274 12.9326 63.0069 15.124 64.468L36 78.388L56.876 64.468C59.0668 63.0073 60.8633 61.0284 62.106 58.7069C63.3487 56.3855 63.9993 53.7932 64 51.16V14.416L36 8.2L8 14.416ZM3.132 7.304L36 0L68.868 7.304C69.7562 7.50146 70.5506 7.99586 71.12 8.70562C71.6894 9.41538 71.9998 10.2981 72 11.208V51.156C71.9997 55.1069 71.024 58.9967 69.1596 62.48C67.2951 65.9634 64.5995 68.9325 61.312 71.124L36 88L10.688 71.124C7.40109 68.9329 4.70584 65.9644 2.84139 62.4818C0.976943 58.9992 0.000945425 55.1103 0 51.16V11.208C0.000156151 10.2981 0.310552 9.41538 0.879958 8.70562C1.44936 7.99586 2.24375 7.50146 3.132 7.304ZM36 50L24.244 56.18L26.488 43.092L16.98 33.82L30.124 31.908L36 20L41.88 31.908L55.02 33.82L45.512 43.092L47.752 56.18L36 50Z" fill="#0D4269"/>
</svg>
