<svg width="20" height="20" viewBox="0 0 20 20" fill="none" xmlns="http://www.w3.org/2000/svg">
<path d="M8.95742 2.0416C9.53242 1.54993 10.4741 1.54993 11.0574 2.0416L12.3741 3.17494C12.6241 3.3916 13.0908 3.5666 13.4241 3.5666H14.8408C15.7241 3.5666 16.4491 4.2916 16.4491 5.17493V6.5916C16.4491 6.9166 16.6241 7.3916 16.8408 7.6416L17.9741 8.95823C18.4658 9.53323 18.4658 10.4749 17.9741 11.0582L16.8408 12.3749C16.6241 12.6249 16.4491 13.0916 16.4491 13.4249V14.8416C16.4491 15.7249 15.7241 16.4499 14.8408 16.4499H13.4241C13.0991 16.4499 12.6241 16.6249 12.3741 16.8416L11.0574 17.9749C10.4824 18.4666 9.54075 18.4666 8.95742 17.9749L7.64076 16.8416C7.39076 16.6249 6.92409 16.4499 6.59075 16.4499H5.14909C4.26575 16.4499 3.54076 15.7249 3.54076 14.8416V13.4166C3.54076 13.0916 3.36576 12.6249 3.15742 12.3749L2.03242 11.0499C1.54909 10.4749 1.54909 9.54156 2.03242 8.96656L3.15742 7.6416C3.36576 7.3916 3.54076 6.92493 3.54076 6.59994V5.1666C3.54076 4.28327 4.26575 3.55827 5.14909 3.55827H6.59075C6.91575 3.55827 7.39076 3.38327 7.64076 3.1666L8.95742 2.0416Z" fill="url(#paint0_linear_9260_22052)"/>
<path d="M6.98242 10.0001L8.99076 12.0168L13.0158 7.9834" stroke="white" stroke-width="1.5" stroke-linecap="round" stroke-linejoin="round"/>
<defs>
<linearGradient id="paint0_linear_9260_22052" x1="10.0064" y1="1.67285" x2="10.0064" y2="18.3436" gradientUnits="userSpaceOnUse">
<stop stop-color="#F2CA5A"/>
<stop offset="1" stop-color="#DBAF2C"/>
</linearGradient>
</defs>
</svg>
