<svg width="16" height="16" viewBox="0 0 16 16" fill="none" xmlns="http://www.w3.org/2000/svg">
<g id="Ic&#195;&#180;ne">
<path id="Ic&#195;&#180;ne_2" fill-rule="evenodd" clip-rule="evenodd" d="M9.33342 9.50063V10.8946C8.10901 10.4617 6.75066 10.6502 5.69037 11.4001C4.63008 12.15 3.99983 13.368 4.00008 14.6666L2.66675 14.666C2.66633 13.0162 3.42943 11.4591 4.73356 10.4486C6.03769 9.43821 7.73603 9.08818 9.33342 9.50063ZM13.3334 9.33329V11.3333H15.3334V12.6666H13.3334V14.6666H12.0001V12.6666H10.0001V11.3333H12.0001V9.33329H13.3334ZM8.00008 0.666626C10.2101 0.666626 12.0001 2.45663 12.0001 4.66663C12.0001 6.87663 10.2101 8.66663 8.00008 8.66663C5.79008 8.66663 4.00008 6.87663 4.00008 4.66663C4.00008 2.45663 5.79008 0.666626 8.00008 0.666626ZM8.00008 1.99996C6.52675 1.99996 5.33342 3.19329 5.33342 4.66663C5.33342 6.13996 6.52675 7.33329 8.00008 7.33329C9.47342 7.33329 10.6667 6.13996 10.6667 4.66663C10.6667 3.19329 9.47342 1.99996 8.00008 1.99996Z" fill="#0079D0"/>
</g>
</svg>
