<svg width="56" height="56" viewBox="0 0 56 56" fill="none" xmlns="http://www.w3.org/2000/svg">
<path d="M25.6667 0.333313C32.3855 0.333313 38.8291 3.00235 43.58 7.75327C48.331 12.5042 51 18.9478 51 25.6666C51.0062 29.6049 50.0902 33.4899 48.3253 37.0106L54.8933 43.5813C55.3933 44.0814 55.6741 44.7595 55.6741 45.4666C55.6741 46.1738 55.3933 46.8519 54.8933 47.352L47.352 54.8933C46.8519 55.3932 46.1738 55.6741 45.4667 55.6741C44.7596 55.6741 44.0814 55.3932 43.5813 54.8933L37.0107 48.3253C33.49 50.0901 29.6049 51.0061 25.6667 51C18.9479 51 12.5042 48.3309 7.7533 43.58C3.00238 38.8291 0.333344 32.3855 0.333344 25.6666C0.333344 18.9478 3.00238 12.5042 7.7533 7.75327C12.5042 3.00235 18.9479 0.333313 25.6667 0.333313ZM39.808 36.0346L36.0373 39.8053L45.4667 49.232L49.2373 45.4613L39.808 36.0346ZM44.7787 19.7546L19.7547 44.7786C21.6213 45.3546 23.608 45.6666 25.6667 45.6666C28.1669 45.67 30.6456 45.2032 32.9733 44.2906L30.3813 41.6933C29.8814 41.1932 29.6006 40.5151 29.6006 39.808C29.6006 39.1009 29.8814 38.4227 30.3813 37.9226L37.9227 30.3813C38.4228 29.8814 39.1009 29.6006 39.808 29.6006C40.5151 29.6006 41.1933 29.8814 41.6933 30.3813L44.2907 32.9733C45.2032 30.6455 45.67 28.1669 45.6667 25.6666C45.6667 23.608 45.3547 21.624 44.7787 19.7546Z" fill="#08416A"/>
</svg>
