<svg width="16" height="16" viewBox="0 0 16 16" fill="none" xmlns="http://www.w3.org/2000/svg">
<path d="M7.33319 1.36621L7.33325 2.70788C4.70239 3.03593 2.66659 5.2802 2.66659 7.99996C2.66659 10.9455 5.0544 13.3333 7.99992 13.3333C9.23239 13.3333 10.3672 12.9152 11.2703 12.2132L12.2192 13.1618C11.0699 14.1024 9.60085 14.6666 7.99992 14.6666C4.31802 14.6666 1.33325 11.6818 1.33325 7.99996C1.33325 4.54308 3.96433 1.70072 7.33319 1.36621ZM14.6337 8.66669C14.5005 10.0074 13.9703 11.2312 13.1621 12.2188L12.2132 11.2703C12.7867 10.5326 13.1706 9.64036 13.292 8.66656L14.6337 8.66669ZM8.66732 1.36628C11.8166 1.6793 14.3209 4.18388 14.6337 7.33322L13.292 7.33329C12.9912 4.92104 11.0794 3.00905 8.66725 2.70796L8.66732 1.36628Z" fill="#0079D0"/>
</svg>
