<svg width="12" height="10" viewBox="0 0 12 10" fill="none" xmlns="http://www.w3.org/2000/svg">
<path d="M6.4328 0.499978L11.1958 8.74998C11.2397 8.82599 11.2628 8.91221 11.2628 8.99998C11.2628
  9.08774 11.2397 9.17396 11.1958 9.24997C11.1519 9.32598 11.0888 9.3891 11.0128 9.43299C10.9368 9.47687
  10.8506 9.49998 10.7628 9.49998H1.2368C1.14904 9.49998 1.06282 9.47687 0.986808 9.43299C0.9108 9.3891
  0.847683 9.32598 0.803801 9.24997C0.759918 9.17396 0.736816 9.08774 0.736816 8.99998C0.736817 8.91221
  0.75992 8.82599 0.803804 8.74998L5.5668 0.499978C5.61069 0.423974 5.67381 0.360861 5.74981 0.316981C5.82582
  0.273101 5.91204 0.25 5.9998 0.25C6.08757 0.25 6.17379 0.273101 6.24979 0.316981C6.3258 0.360861
  6.38892 0.423974 6.4328 0.499978ZM2.1028 8.49998H9.8968L5.9998 1.74998L2.1028 8.49998ZM5.4998
  6.99998H6.4998V7.99998H5.4998V6.99998ZM5.4998 3.49998H6.4998V5.99998H5.4998V3.49998Z" fill="#FF6584"/>
</svg>