<svg width="16" height="16" viewBox="0 0 16 16" fill="none" xmlns="http://www.w3.org/2000/svg">
    <path d="M12.3579 13.0446C11.1893 14.0551 9.66587 14.6663 7.99967 14.6663C4.31777 14.6663 1.33301 11.6815 1.33301 7.99967C1.33301 4.31777 4.31777 1.33301 7.99967 1.33301C11.6815 1.33301 14.6663 4.31777 14.6663 7.99967C14.6663 9.42374 14.2198 10.7435 13.4591 11.8267L11.333 7.99967H13.333C13.333 5.05415 10.9452 2.66634 7.99967 2.66634C5.05415 2.66634 2.66634 5.05415 2.66634 7.99967C2.66634 10.9452 5.05415 13.333 7.99967 13.333C9.43314 13.333 10.7345 12.7675 11.6929 11.8474L12.3579 13.0446Z" fill="#0079D0"/>
</svg>
