<svg width="97" height="95" viewBox="0 0 97 95" fill="none" xmlns="http://www.w3.org/2000/svg">
<path d="M21.9302 77.4584L0.58334 94.2292V5.58335C0.58334 4.31252 1.08817 3.09375 1.98679 2.19513C2.8854 1.29652 4.10418 0.791687 5.37501 0.791687H91.625C92.8958 0.791687 94.1146 1.29652 95.0132 2.19513C95.9118 3.09375 96.4167 4.31252 96.4167 5.58335V72.6667C96.4167 73.9375 95.9118 75.1563 95.0132 76.0549C94.1146 76.9535 92.8958 77.4584 91.625 77.4584H21.9302ZM18.6144 67.875H86.8333V10.375H10.1667V74.5115L18.6144 67.875ZM29.3333 34.3334H67.6667V43.9167H29.3333V34.3334Z" fill="#EBEDF0"/>
</svg>
