<svg width="48" height="59" viewBox="0 0 48 59" fill="none" xmlns="http://www.w3.org/2000/svg">
<path d="M37.3333 5.33333H45.3333C46.0406 5.33333 46.7189 5.61428 47.219 6.11438C47.7191 6.61448 48 7.29276 48 8V56C48 56.7072 47.7191 57.3855 47.219 57.8856C46.7189 58.3857 46.0406 58.6667 45.3333 58.6667H2.66667C1.95942 58.6667 1.28115 58.3857 0.781048 57.8856C0.280951 57.3855 0 56.7072 0 56V8C0 7.29276 0.280951 6.61448 0.781048 6.11438C1.28115 5.61428 1.95942 5.33333 2.66667 5.33333H10.6667V0H16V5.33333H32V0H37.3333V5.33333ZM37.3333 10.6667V16H32V10.6667H16V16H10.6667V10.6667H5.33333V53.3333H42.6667V10.6667H37.3333ZM10.6667 21.3333H37.3333V26.6667H10.6667V21.3333ZM10.6667 32H37.3333V37.3333H10.6667V32Z" fill="#08416A"/>
</svg>
