<svg width="40" height="40" viewBox="0 0 40 40" fill="none" xmlns="http://www.w3.org/2000/svg">
<path d="M36.6673 16.6663V24.9997C36.6673 33.333 33.334 36.6663 25.0007 36.6663H15.0007C6.66732 36.6663 3.33398 33.333 3.33398 24.9997V14.9997C3.33398 6.66634 6.66732 3.33301 15.0007 3.33301H23.334" fill="#DBEEFF"/>
<path d="M36.6673 16.6663H30.0007C25.0007 16.6663 23.334 14.9997 23.334 9.99967V3.33301L36.6673 16.6663Z" fill="#DBEEFF"/>
<path d="M36.6673 16.6663V24.9997C36.6673 33.333 33.334 36.6663 25.0007 36.6663H15.0007C6.66732 36.6663 3.33398 33.333 3.33398 24.9997V14.9997C3.33398 6.66634 6.66732 3.33301 15.0007 3.33301H23.334M36.6673 16.6663H30.0007C25.0007 16.6663 23.334 14.9997 23.334 9.99967V3.33301M36.6673 16.6663L23.334 3.33301" stroke="#0079D0" stroke-width="1.5" stroke-linecap="round" stroke-linejoin="round"/>
<mask id="path-3-outside-1_9257_19400" maskUnits="userSpaceOnUse" x="10.5371" y="22.4912" width="21" height="8" fill="black">
<rect fill="white" x="10.5371" y="22.4912" width="21" height="8"/>
<path d="M11.9704 29.9995C11.8482 29.9995 11.7454 29.9579 11.6621 29.8745C11.5788 29.7912 11.5371 29.6884 11.5371 29.5662V23.9245C11.5371 23.7968 11.5788 23.694 11.6621 23.6162C11.7454 23.5329 11.8482 23.4912 11.9704 23.4912H13.6371C14.0538 23.4912 14.4232 23.5829 14.7454 23.7662C15.0677 23.9495 15.3177 24.2051 15.4954 24.5329C15.6788 24.8551 15.7704 25.2273 15.7704 25.6495C15.7704 26.0551 15.6788 26.4162 15.4954 26.7329C15.3177 27.0495 15.0677 27.2968 14.7454 27.4745C14.4232 27.6523 14.0538 27.7412 13.6371 27.7412H12.4038V29.5662C12.4038 29.6884 12.3621 29.7912 12.2788 29.8745C12.201 29.9579 12.0982 29.9995 11.9704 29.9995ZM12.4038 26.9412H13.6371C13.8927 26.9412 14.1177 26.8857 14.3121 26.7745C14.5066 26.6634 14.6593 26.5107 14.7704 26.3162C14.8816 26.1218 14.9371 25.8995 14.9371 25.6495C14.9371 25.3829 14.8816 25.1495 14.7704 24.9495C14.6593 24.744 14.5066 24.5829 14.3121 24.4662C14.1177 24.3495 13.8927 24.2912 13.6371 24.2912H12.4038V26.9412Z"/>
<path d="M18.8292 29.9995C18.7069 29.9995 18.6042 29.9579 18.5208 29.8745C18.4375 29.7912 18.3958 29.6884 18.3958 29.5662V23.9245C18.3958 23.7968 18.4375 23.694 18.5208 23.6162C18.6042 23.5329 18.7069 23.4912 18.8292 23.4912H20.3375C20.8153 23.4912 21.2486 23.5718 21.6375 23.7329C22.0319 23.8884 22.3736 24.1134 22.6625 24.4079C22.9514 24.6968 23.1736 25.0384 23.3292 25.4329C23.4847 25.8273 23.5625 26.2634 23.5625 26.7412C23.5625 27.219 23.4847 27.6579 23.3292 28.0579C23.1736 28.4523 22.9514 28.7968 22.6625 29.0912C22.3736 29.3801 22.0319 29.6051 21.6375 29.7662C21.2486 29.9218 20.8153 29.9995 20.3375 29.9995H18.8292ZM19.2625 29.2329H20.3375C20.8042 29.2329 21.2153 29.1273 21.5708 28.9162C21.9319 28.6995 22.2153 28.4051 22.4208 28.0329C22.6264 27.6551 22.7292 27.2245 22.7292 26.7412C22.7292 26.2523 22.6264 25.8218 22.4208 25.4495C22.2153 25.0773 21.9319 24.7857 21.5708 24.5745C21.2153 24.3634 20.8042 24.2579 20.3375 24.2579H19.2625V29.2329Z"/>
<path d="M26.4975 29.9995C26.3753 29.9995 26.2725 29.9579 26.1892 29.8745C26.1059 29.7912 26.0642 29.6884 26.0642 29.5662V23.9245C26.0642 23.7968 26.1059 23.694 26.1892 23.6162C26.2725 23.5329 26.3753 23.4912 26.4975 23.4912H30.2642C30.392 23.4912 30.4947 23.5301 30.5725 23.6079C30.6503 23.6801 30.6892 23.7773 30.6892 23.8995C30.6892 24.0162 30.6503 24.1107 30.5725 24.1829C30.4947 24.2551 30.392 24.2912 30.2642 24.2912H26.9309V26.3162H29.3225C29.4503 26.3162 29.5531 26.3551 29.6309 26.4329C29.7086 26.5051 29.7475 26.5995 29.7475 26.7162C29.7475 26.8329 29.7086 26.9301 29.6309 27.0079C29.5531 27.0801 29.4503 27.1162 29.3225 27.1162H26.9309V29.5662C26.9309 29.6884 26.8892 29.7912 26.8059 29.8745C26.7225 29.9579 26.6197 29.9995 26.4975 29.9995Z"/>
</mask>
<path d="M11.9704 29.9995C11.8482 29.9995 11.7454 29.9579 11.6621 29.8745C11.5788 29.7912 11.5371 29.6884 11.5371 29.5662V23.9245C11.5371 23.7968 11.5788 23.694 11.6621 23.6162C11.7454 23.5329 11.8482 23.4912 11.9704 23.4912H13.6371C14.0538 23.4912 14.4232 23.5829 14.7454 23.7662C15.0677 23.9495 15.3177 24.2051 15.4954 24.5329C15.6788 24.8551 15.7704 25.2273 15.7704 25.6495C15.7704 26.0551 15.6788 26.4162 15.4954 26.7329C15.3177 27.0495 15.0677 27.2968 14.7454 27.4745C14.4232 27.6523 14.0538 27.7412 13.6371 27.7412H12.4038V29.5662C12.4038 29.6884 12.3621 29.7912 12.2788 29.8745C12.201 29.9579 12.0982 29.9995 11.9704 29.9995ZM12.4038 26.9412H13.6371C13.8927 26.9412 14.1177 26.8857 14.3121 26.7745C14.5066 26.6634 14.6593 26.5107 14.7704 26.3162C14.8816 26.1218 14.9371 25.8995 14.9371 25.6495C14.9371 25.3829 14.8816 25.1495 14.7704 24.9495C14.6593 24.744 14.5066 24.5829 14.3121 24.4662C14.1177 24.3495 13.8927 24.2912 13.6371 24.2912H12.4038V26.9412Z" fill="#0079D0"/>
<path d="M18.8292 29.9995C18.7069 29.9995 18.6042 29.9579 18.5208 29.8745C18.4375 29.7912 18.3958 29.6884 18.3958 29.5662V23.9245C18.3958 23.7968 18.4375 23.694 18.5208 23.6162C18.6042 23.5329 18.7069 23.4912 18.8292 23.4912H20.3375C20.8153 23.4912 21.2486 23.5718 21.6375 23.7329C22.0319 23.8884 22.3736 24.1134 22.6625 24.4079C22.9514 24.6968 23.1736 25.0384 23.3292 25.4329C23.4847 25.8273 23.5625 26.2634 23.5625 26.7412C23.5625 27.219 23.4847 27.6579 23.3292 28.0579C23.1736 28.4523 22.9514 28.7968 22.6625 29.0912C22.3736 29.3801 22.0319 29.6051 21.6375 29.7662C21.2486 29.9218 20.8153 29.9995 20.3375 29.9995H18.8292ZM19.2625 29.2329H20.3375C20.8042 29.2329 21.2153 29.1273 21.5708 28.9162C21.9319 28.6995 22.2153 28.4051 22.4208 28.0329C22.6264 27.6551 22.7292 27.2245 22.7292 26.7412C22.7292 26.2523 22.6264 25.8218 22.4208 25.4495C22.2153 25.0773 21.9319 24.7857 21.5708 24.5745C21.2153 24.3634 20.8042 24.2579 20.3375 24.2579H19.2625V29.2329Z" fill="#0079D0"/>
<path d="M26.4975 29.9995C26.3753 29.9995 26.2725 29.9579 26.1892 29.8745C26.1059 29.7912 26.0642 29.6884 26.0642 29.5662V23.9245C26.0642 23.7968 26.1059 23.694 26.1892 23.6162C26.2725 23.5329 26.3753 23.4912 26.4975 23.4912H30.2642C30.392 23.4912 30.4947 23.5301 30.5725 23.6079C30.6503 23.6801 30.6892 23.7773 30.6892 23.8995C30.6892 24.0162 30.6503 24.1107 30.5725 24.1829C30.4947 24.2551 30.392 24.2912 30.2642 24.2912H26.9309V26.3162H29.3225C29.4503 26.3162 29.5531 26.3551 29.6309 26.4329C29.7086 26.5051 29.7475 26.5995 29.7475 26.7162C29.7475 26.8329 29.7086 26.9301 29.6309 27.0079C29.5531 27.0801 29.4503 27.1162 29.3225 27.1162H26.9309V29.5662C26.9309 29.6884 26.8892 29.7912 26.8059 29.8745C26.7225 29.9579 26.6197 29.9995 26.4975 29.9995Z" fill="#0079D0"/>
<path d="M11.9704 29.9995C11.8482 29.9995 11.7454 29.9579 11.6621 29.8745C11.5788 29.7912 11.5371 29.6884 11.5371 29.5662V23.9245C11.5371 23.7968 11.5788 23.694 11.6621 23.6162C11.7454 23.5329 11.8482 23.4912 11.9704 23.4912H13.6371C14.0538 23.4912 14.4232 23.5829 14.7454 23.7662C15.0677 23.9495 15.3177 24.2051 15.4954 24.5329C15.6788 24.8551 15.7704 25.2273 15.7704 25.6495C15.7704 26.0551 15.6788 26.4162 15.4954 26.7329C15.3177 27.0495 15.0677 27.2968 14.7454 27.4745C14.4232 27.6523 14.0538 27.7412 13.6371 27.7412H12.4038V29.5662C12.4038 29.6884 12.3621 29.7912 12.2788 29.8745C12.201 29.9579 12.0982 29.9995 11.9704 29.9995ZM12.4038 26.9412H13.6371C13.8927 26.9412 14.1177 26.8857 14.3121 26.7745C14.5066 26.6634 14.6593 26.5107 14.7704 26.3162C14.8816 26.1218 14.9371 25.8995 14.9371 25.6495C14.9371 25.3829 14.8816 25.1495 14.7704 24.9495C14.6593 24.744 14.5066 24.5829 14.3121 24.4662C14.1177 24.3495 13.8927 24.2912 13.6371 24.2912H12.4038V26.9412Z" stroke="#0079D0" stroke-width="0.5" mask="url(#path-3-outside-1_9257_19400)"/>
<path d="M18.8292 29.9995C18.7069 29.9995 18.6042 29.9579 18.5208 29.8745C18.4375 29.7912 18.3958 29.6884 18.3958 29.5662V23.9245C18.3958 23.7968 18.4375 23.694 18.5208 23.6162C18.6042 23.5329 18.7069 23.4912 18.8292 23.4912H20.3375C20.8153 23.4912 21.2486 23.5718 21.6375 23.7329C22.0319 23.8884 22.3736 24.1134 22.6625 24.4079C22.9514 24.6968 23.1736 25.0384 23.3292 25.4329C23.4847 25.8273 23.5625 26.2634 23.5625 26.7412C23.5625 27.219 23.4847 27.6579 23.3292 28.0579C23.1736 28.4523 22.9514 28.7968 22.6625 29.0912C22.3736 29.3801 22.0319 29.6051 21.6375 29.7662C21.2486 29.9218 20.8153 29.9995 20.3375 29.9995H18.8292ZM19.2625 29.2329H20.3375C20.8042 29.2329 21.2153 29.1273 21.5708 28.9162C21.9319 28.6995 22.2153 28.4051 22.4208 28.0329C22.6264 27.6551 22.7292 27.2245 22.7292 26.7412C22.7292 26.2523 22.6264 25.8218 22.4208 25.4495C22.2153 25.0773 21.9319 24.7857 21.5708 24.5745C21.2153 24.3634 20.8042 24.2579 20.3375 24.2579H19.2625V29.2329Z" stroke="#0079D0" stroke-width="0.5" mask="url(#path-3-outside-1_9257_19400)"/>
<path d="M26.4975 29.9995C26.3753 29.9995 26.2725 29.9579 26.1892 29.8745C26.1059 29.7912 26.0642 29.6884 26.0642 29.5662V23.9245C26.0642 23.7968 26.1059 23.694 26.1892 23.6162C26.2725 23.5329 26.3753 23.4912 26.4975 23.4912H30.2642C30.392 23.4912 30.4947 23.5301 30.5725 23.6079C30.6503 23.6801 30.6892 23.7773 30.6892 23.8995C30.6892 24.0162 30.6503 24.1107 30.5725 24.1829C30.4947 24.2551 30.392 24.2912 30.2642 24.2912H26.9309V26.3162H29.3225C29.4503 26.3162 29.5531 26.3551 29.6309 26.4329C29.7086 26.5051 29.7475 26.5995 29.7475 26.7162C29.7475 26.8329 29.7086 26.9301 29.6309 27.0079C29.5531 27.0801 29.4503 27.1162 29.3225 27.1162H26.9309V29.5662C26.9309 29.6884 26.8892 29.7912 26.8059 29.8745C26.7225 29.9579 26.6197 29.9995 26.4975 29.9995Z" stroke="#0079D0" stroke-width="0.5" mask="url(#path-3-outside-1_9257_19400)"/>
</svg>
