<svg width="24" height="24" viewBox="0 0 24 24" fill="none" xmlns="http://www.w3.org/2000/svg">
<path d="M21.6602 10.4405L20.6802 14.6205C19.8402 18.2305 18.1802 19.6905 15.0602 19.3905C14.5602 19.3505 14.0202 19.2605 13.4402 19.1205L11.7602 18.7205C7.59018 17.7305 6.30018 15.6705 7.28018 11.4905L8.26018 7.3005C8.46018 6.4505 8.70018 5.7105 9.00018 5.1005C10.1702 2.6805 12.1602 2.0305 15.5002 2.8205L17.1702 3.2105C21.3602 4.1905 22.6402 6.2605 21.6602 10.4405Z" stroke="#0079D0" stroke-width="1.5" stroke-linecap="round" stroke-linejoin="round"/>
<path d="M15.0604 19.3896C14.4404 19.8096 13.6604 20.1596 12.7104 20.4696L11.1304 20.9896C7.16035 22.2696 5.07034 21.1996 3.78034 17.2296L2.50034 13.2796C1.22034 9.30961 2.28034 7.20961 6.25034 5.92961L7.83034 5.40961C8.24034 5.27961 8.63034 5.16961 9.00034 5.09961C8.70034 5.70961 8.46034 6.44961 8.26034 7.29961L7.28034 11.4896C6.30034 15.6696 7.59035 17.7296 11.7604 18.7196L13.4404 19.1196C14.0204 19.2596 14.5604 19.3496 15.0604 19.3896Z" stroke="#0079D0" stroke-width="1.5" stroke-linecap="round" stroke-linejoin="round"/>
<path d="M12.6406 8.53027L17.4906 9.76027" stroke="#0079D0" stroke-width="1.5" stroke-linecap="round" stroke-linejoin="round"/>
<path d="M11.6602 12.4004L14.5602 13.1404" stroke="#0079D0" stroke-width="1.5" stroke-linecap="round" stroke-linejoin="round"/>
</svg>
