<svg width="24" height="24" viewBox="0 0 24 24" fill="none" xmlns="http://www.w3.org/2000/svg">
<path d="M8 2.00012V5.00012" stroke="#667892" stroke-width="1.5" stroke-miterlimit="10" stroke-linecap="round" stroke-linejoin="round"/>
<path d="M16 2.00012V5.00012" stroke="#667892" stroke-width="1.5" stroke-miterlimit="10" stroke-linecap="round" stroke-linejoin="round"/>
<path d="M18.2 21.4001C19.9673 21.4001 21.4 19.9674 21.4 18.2001C21.4 16.4328 19.9673 15.0001 18.2 15.0001C16.4327 15.0001 15 16.4328 15 18.2001C15 19.9674 16.4327 21.4001 18.2 21.4001Z" stroke="#667892" stroke-width="1.5" stroke-linecap="round" stroke-linejoin="round"/>
<path d="M22 22.0001L21 21.0001" stroke="#667892" stroke-width="1.5" stroke-linecap="round" stroke-linejoin="round"/>
<path d="M3.5 9.09009L20.5 9.09009" stroke="#667892" stroke-width="1.5" stroke-miterlimit="10" stroke-linecap="round" stroke-linejoin="round"/>
<path d="M13.37 22.0001H8C4.5 22.0001 3 20.0001 3 17.0001L3 8.50012C3 5.50012 4.5 3.50012 8 3.50012L16 3.50012C19.5 3.50012 21 5.50012 21 8.50012V13.0001" stroke="#667892" stroke-width="1.5" stroke-miterlimit="10" stroke-linecap="round" stroke-linejoin="round"/>
<path d="M11.9956 13.7001H12.0046" stroke="#667892" stroke-width="2" stroke-linecap="round" stroke-linejoin="round"/>
<path d="M8.29443 13.7001H8.30341" stroke="#667892" stroke-width="2" stroke-linecap="round" stroke-linejoin="round"/>
<path d="M8.29443 16.7001H8.30341" stroke="#667892" stroke-width="2" stroke-linecap="round" stroke-linejoin="round"/>
</svg>
