<svg width="86" height="96" viewBox="0 0 86 96" fill="none" xmlns="http://www.w3.org/2000/svg">
<path d="M86 5.12869V90.7047C85.99 91.9521 85.4868 93.1456 84.5991 94.0273C83.7114 94.9089 82.5104 95.408 81.2557 95.4167H4.74433C3.48689 95.4167 2.28087 94.9204 1.39127 94.0369C0.501674 93.1533 0.00126631 91.9548 0 90.7047V5.12869C0.0100078 3.88124 0.513219 2.68778 1.40093 1.80612C2.28864 0.924463 3.48958 0.42538 4.74433 0.416687H81.2557C83.8739 0.416687 86 2.52569 86 5.12869V5.12869ZM76.4444 9.91669H9.55556V85.9167H76.4444V9.91669ZM39.6221 53.2414L59.8942 33.0919L66.65 39.8084L39.6221 66.6792L21.0366 48.2017L27.7971 41.4852L39.6221 53.2414V53.2414Z" fill="#EBEDF0"/>
</svg>
