<svg width="20" height="20" viewBox="0 0 20 20" fill="none" xmlns="http://www.w3.org/2000/svg">
<path d="M18.334 9.99968C18.334 14.5913 14.5923 18.333 10.0007 18.333C5.40899 18.333 1.66732 14.5913 1.66732 9.99967C1.66732 5.40801 5.40899 1.66634 10.0007 1.66634C14.5923 1.66634 18.334 5.40801 18.334 9.99968Z" fill="#7025DA"/>
<path d="M10.0087 6.21289C8.62957 6.21289 7.50874 7.33372 7.50874 8.71289V9.91705C7.50874 10.1712 7.4004 10.5587 7.27124 10.7754L6.79207 11.5712C6.49624 12.0629 6.7004 12.6087 7.24207 12.7921C9.0379 13.3921 10.9754 13.3921 12.7712 12.7921C13.2754 12.6254 13.4962 12.0296 13.2212 11.5712L12.7421 10.7754C12.6171 10.5587 12.5087 10.1712 12.5087 9.91705V8.71289C12.5087 7.33789 11.3837 6.21289 10.0087 6.21289Z" fill="white"/>
<path d="M10.7799 6.33359C10.6508 6.29609 10.5174 6.26693 10.3799 6.25026C9.97995 6.20026 9.59661 6.22943 9.23828 6.33359C9.35911 6.02526 9.65911 5.80859 10.0091 5.80859C10.3591 5.80859 10.6591 6.02526 10.7799 6.33359Z" stroke="white" stroke-width="0.75" stroke-miterlimit="10" stroke-linecap="round" stroke-linejoin="round"/>
<path d="M11.2578 12.9414C11.2578 13.6289 10.6953 14.1914 10.0078 14.1914C9.66614 14.1914 9.34947 14.0497 9.12448 13.8247C8.89948 13.5997 8.75781 13.2831 8.75781 12.9414" stroke="white" stroke-width="0.75" stroke-miterlimit="10"/>
</svg>
