<svg width="72" height="84" viewBox="0 0 72 84" fill="none" xmlns="http://www.w3.org/2000/svg">
<path d="M13.528 19.872C19.903 14.7643 27.8312 11.987 36 12C44.5 12 52.312 14.944 58.472 19.872L64.284 14.06L69.94 19.716L64.128 25.528C68.3588 30.8246 71.0082 37.2081 71.7712 43.944C72.5343 50.6798 71.38 57.4942 68.4411 63.603C65.5023 69.7117 60.8984 74.8666 55.1593 78.4743C49.4201 82.0821 42.7789 83.9961 36 83.9961C29.2211 83.9961 22.5799 82.0821 16.8408 78.4743C11.1016 74.8666 6.49773 69.7117 3.55891 63.603C0.620084 57.4942 -0.534231 50.6798 0.228801 43.944C0.991834 37.2081 3.6412 30.8246 7.87202 25.528L2.06002 19.72L7.71602 14.064L13.528 19.876V19.872ZM36 76C39.677 76 43.318 75.2758 46.7152 73.8686C50.1123 72.4615 53.199 70.399 55.799 67.799C58.399 65.1989 60.4615 62.1123 61.8686 58.7151C63.2758 55.318 64 51.677 64 48C64 44.323 63.2758 40.682 61.8686 37.2849C60.4615 33.8877 58.399 30.8011 55.799 28.201C53.199 25.601 50.1123 23.5385 46.7152 22.1314C43.318 20.7242 39.677 20 36 20C28.574 20 21.452 22.95 16.201 28.201C10.95 33.452 8.00002 40.5739 8.00002 48C8.00002 55.4261 10.95 62.548 16.201 67.799C21.452 73.05 28.574 76 36 76ZM40 44H52L32 70V52H20L40 25.98V44ZM20 0H52V8H20V0Z" fill="#0D4269"/>
</svg>
