<svg width="17" height="17" viewBox="0 0 17 17" fill="none" xmlns="http://www.w3.org/2000/svg">
<path d="M12.8582 13.4754C11.6895 14.4859 10.1661 15.0971 8.49992 15.0971C4.81802 15.0971 1.83325 12.1123 1.83325 8.43046C1.83325 4.74856 4.81802 1.76379 8.49992 1.76379C12.1818 1.76379 15.1666 4.74856 15.1666 8.43046C15.1666 9.85453 14.7201 11.1743 13.9594 12.2575L11.8333 8.43046H13.8333C13.8333 5.48494 11.4455 3.09713 8.49992 3.09713C5.5544 3.09713 3.16659 5.48494 3.16659 8.43046C3.16659 11.376 5.5544 13.7638 8.49992 13.7638C9.93339 13.7638 11.2347 13.1983 12.1931 12.2782L12.8582 13.4754Z" fill="#0079D0"/>
</svg>
