<svg width="196" height="196" viewBox="0 0 196 196" fill="none" xmlns="http://www.w3.org/2000/svg">
<g filter="url(#filter0_d_4161_3252)">
<path d="M11.5059 34.1687L24.9727 158.362C25.0929 159.47 26.0961 160.267 27.2028 160.132L152.531 144.873C153.577 144.745 154.344 143.829 154.287 142.778L149.335 52.4198C149.277 51.3557 148.398 50.5242 147.333 50.529C128.477 50.6139 92.5136 50.7197 85.535 50.5203C78.7429 50.3262 71.7226 39.4687 68.5523 33.1009C68.2055 32.4043 67.5015 31.9531 66.7233 31.9531H13.4942C12.3043 31.9531 11.3776 32.9858 11.5059 34.1687Z" fill="url(#paint0_linear_4161_3252)"/>
</g>
<mask id="mask0_4161_3252" style="mask-type:alpha" maskUnits="userSpaceOnUse" x="11" y="31" width="144" height="130">
<path d="M11.5059 34.1687L24.9727 158.362C25.0929 159.47 26.0961 160.267 27.2028 160.132L152.531 144.873C153.577 144.745 154.344 143.829 154.287 142.778L149.335 52.4198C149.277 51.3557 148.398 50.5242 147.333 50.529C128.477 50.6139 92.5136 50.7197 85.535 50.5203C78.7429 50.3262 71.7226 39.4687 68.5523 33.1009C68.2055 32.4043 67.5015 31.9531 66.7233 31.9531H13.4942C12.3043 31.9531 11.3776 32.9858 11.5059 34.1687Z" fill="url(#paint1_linear_4161_3252)"/>
</mask>
<g mask="url(#mask0_4161_3252)">
<g filter="url(#filter1_f_4161_3252)">
<ellipse cx="104.852" cy="129.213" rx="91.4858" ry="59.4736" transform="rotate(-5.2541 104.852 129.213)" fill="#8A391A"/>
</g>
<g filter="url(#filter2_f_4161_3252)">
<ellipse cx="104.852" cy="2.62732" rx="91.4858" ry="59.4736" transform="rotate(-5.2541 104.852 2.62732)" fill="#FFE89C"/>
</g>
</g>
<path d="M22.8828 52.2662L160.591 45.2344L158.012 123.884L28.5562 151.49L22.8828 52.2662Z" fill="#CECDCD"/>
<path d="M23.3438 54.7208L161.052 47.7578L158.473 125.638L29.0172 152.973L23.3438 54.7208Z" fill="#D9D9D9"/>
<path d="M24.7891 55.8771L162.497 48.9141L159.918 126.794L30.4625 154.129L24.7891 55.8771Z" fill="#CDCDCD"/>
<path d="M25.8203 56.7208L163.528 49.7578L160.949 127.638L31.4937 154.973L25.8203 56.7208Z" fill="#E4E4E4"/>
<path d="M26.5859 57.2286L164.294 50.2656L161.715 128.146L32.2594 155.481L26.5859 57.2286Z" fill="#D9D9D9"/>
<path d="M30.8207 54.7191L166.208 51.625L157.525 134.705L29.0156 152.971L30.8207 54.7191Z" fill="#5779D0"/>
<rect x="13.6094" y="103.523" width="46.2076" height="54.6947" transform="rotate(-17.2274 13.6094 103.523)" fill="#E6E6E6"/>
<rect x="18.6953" y="106.391" width="37.9562" height="34.6555" transform="rotate(-17.2274 18.6953 106.391)" fill="#C0C0C0"/>
<path d="M35.2039 59.6179L166.723 56.524L160.361 136.509L31.8516 154.776L35.2039 59.6179Z" fill="url(#paint2_linear_4161_3252)"/>
<path d="M36.3602 60.4851L167.879 57.3912L161.517 137.377L33.0078 155.643L36.3602 60.4851Z" fill="url(#paint3_linear_4161_3252)"/>
<path d="M45.2614 61.6094L172.654 63.9298L165.691 139.231L31.8516 155.219L45.2614 61.6094Z" fill="url(#paint4_linear_4161_3252)"/>
<path d="M45.8196 62.4766L167.532 64.6935L160.879 136.637L33.0078 151.912L45.8196 62.4766Z" fill="url(#paint5_linear_4161_3252)"/>
<path d="M47.7037 63.3594L156.662 65.5325L150.706 136.053L36.2344 151.026L47.7037 63.3594Z" fill="#ECECEC"/>
<path d="M49.2583 64.2422L158.216 66.4153L152.261 136.936L37.7891 151.909L49.2583 64.2422Z" fill="#E2E2E2"/>
<path d="M50.5474 65.3047L159.505 67.4778L153.55 137.998L39.0781 152.972L50.5474 65.3047Z" fill="#D1D1D1"/>
<g filter="url(#filter3_d_4161_3252)">
<path d="M57.4943 69.2505L31.0348 158.961C30.8347 159.639 31.3827 160.305 32.0869 160.24L162.507 148.061C162.907 148.023 163.246 147.75 163.367 147.367L190.067 62.9852C190.278 62.3195 189.759 61.6484 189.061 61.6849L58.4011 68.5347C57.9776 68.5569 57.6142 68.8438 57.4943 69.2505Z" fill="url(#paint6_linear_4161_3252)"/>
</g>
<mask id="mask1_4161_3252" style="mask-type:alpha" maskUnits="userSpaceOnUse" x="30" y="61" width="161" height="100">
<path d="M57.4943 69.2505L31.0348 158.961C30.8347 159.639 31.3827 160.305 32.0869 160.24L162.507 148.061C162.907 148.023 163.246 147.75 163.367 147.367L190.067 62.9852C190.278 62.3195 189.759 61.6484 189.061 61.6849L58.4011 68.5347C57.9776 68.5569 57.6142 68.8438 57.4943 69.2505Z" fill="url(#paint7_linear_4161_3252)"/>
</mask>
<g mask="url(#mask1_4161_3252)">
<g filter="url(#filter4_f_4161_3252)">
<path d="M181.069 153.995C182.438 168.889 146.847 184.338 101.572 188.502C56.2983 192.665 18.486 183.966 17.1164 169.071C15.7467 154.177 51.3383 138.728 96.6124 134.564C141.887 130.401 179.699 139.1 181.069 153.995Z" fill="#8A391A"/>
</g>
<g filter="url(#filter5_f_4161_3252)">
<ellipse cx="149.766" cy="27.1273" rx="91.4858" ry="59.4736" transform="rotate(-5.2541 149.766 27.1273)" fill="#FFE89C"/>
</g>
</g>
<defs>
<filter id="filter0_d_4161_3252" x="8.49219" y="31.9531" width="146.797" height="132.195" filterUnits="userSpaceOnUse" color-interpolation-filters="sRGB">
<feFlood flood-opacity="0" result="BackgroundImageFix"/>
<feColorMatrix in="SourceAlpha" type="matrix" values="0 0 0 0 0 0 0 0 0 0 0 0 0 0 0 0 0 0 127 0" result="hardAlpha"/>
<feOffset dx="-1" dy="2"/>
<feGaussianBlur stdDeviation="1"/>
<feComposite in2="hardAlpha" operator="out"/>
<feColorMatrix type="matrix" values="0 0 0 0 0 0 0 0 0 0 0 0 0 0 0 0 0 0 0.14 0"/>
<feBlend mode="normal" in2="BackgroundImageFix" result="effect1_dropShadow_4161_3252"/>
<feBlend mode="normal" in="SourceGraphic" in2="effect1_dropShadow_4161_3252" result="shape"/>
</filter>
<filter id="filter1_f_4161_3252" x="6.58594" y="62.3906" width="196.531" height="133.641" filterUnits="userSpaceOnUse" color-interpolation-filters="sRGB">
<feFlood flood-opacity="0" result="BackgroundImageFix"/>
<feBlend mode="normal" in="SourceGraphic" in2="BackgroundImageFix" result="shape"/>
<feGaussianBlur stdDeviation="3.5" result="effect1_foregroundBlur_4161_3252"/>
</filter>
<filter id="filter2_f_4161_3252" x="-43.4141" y="-114.195" width="296.531" height="233.641" filterUnits="userSpaceOnUse" color-interpolation-filters="sRGB">
<feFlood flood-opacity="0" result="BackgroundImageFix"/>
<feBlend mode="normal" in="SourceGraphic" in2="BackgroundImageFix" result="shape"/>
<feGaussianBlur stdDeviation="28.5" result="effect1_foregroundBlur_4161_3252"/>
</filter>
<filter id="filter3_d_4161_3252" x="27.9922" y="60.6797" width="165.125" height="104.562" filterUnits="userSpaceOnUse" color-interpolation-filters="sRGB">
<feFlood flood-opacity="0" result="BackgroundImageFix"/>
<feColorMatrix in="SourceAlpha" type="matrix" values="0 0 0 0 0 0 0 0 0 0 0 0 0 0 0 0 0 0 127 0" result="hardAlpha"/>
<feOffset dy="2"/>
<feGaussianBlur stdDeviation="1.5"/>
<feComposite in2="hardAlpha" operator="out"/>
<feColorMatrix type="matrix" values="0 0 0 0 0 0 0 0 0 0 0 0 0 0 0 0 0 0 0.08 0"/>
<feBlend mode="normal" in2="BackgroundImageFix" result="effect1_dropShadow_4161_3252"/>
<feBlend mode="normal" in="SourceGraphic" in2="effect1_dropShadow_4161_3252" result="shape"/>
</filter>
<filter id="filter4_f_4161_3252" x="-39.9219" y="76.5234" width="278.031" height="170.016" filterUnits="userSpaceOnUse" color-interpolation-filters="sRGB">
<feFlood flood-opacity="0" result="BackgroundImageFix"/>
<feBlend mode="normal" in="SourceGraphic" in2="BackgroundImageFix" result="shape"/>
<feGaussianBlur stdDeviation="28.5" result="effect1_foregroundBlur_4161_3252"/>
</filter>
<filter id="filter5_f_4161_3252" x="1.5" y="-89.6953" width="296.531" height="233.641" filterUnits="userSpaceOnUse" color-interpolation-filters="sRGB">
<feFlood flood-opacity="0" result="BackgroundImageFix"/>
<feBlend mode="normal" in="SourceGraphic" in2="BackgroundImageFix" result="shape"/>
<feGaussianBlur stdDeviation="28.5" result="effect1_foregroundBlur_4161_3252"/>
</filter>
<linearGradient id="paint0_linear_4161_3252" x1="82.8273" y1="31.9531" x2="22.2028" y2="174.251" gradientUnits="userSpaceOnUse">
<stop stop-color="#D19952"/>
<stop offset="1" stop-color="#E6C88F"/>
</linearGradient>
<linearGradient id="paint1_linear_4161_3252" x1="82.8273" y1="31.9531" x2="22.2028" y2="174.251" gradientUnits="userSpaceOnUse">
<stop stop-color="#D19952"/>
<stop offset="1" stop-color="#E6C88F"/>
</linearGradient>
<linearGradient id="paint2_linear_4161_3252" x1="31.8516" y1="68.8015" x2="171.919" y2="137.074" gradientUnits="userSpaceOnUse">
<stop offset="0.0001" stop-color="#E9F1F3"/>
<stop offset="1" stop-color="#E4E4E4"/>
</linearGradient>
<linearGradient id="paint3_linear_4161_3252" x1="33.0078" y1="69.6687" x2="173.075" y2="137.941" gradientUnits="userSpaceOnUse">
<stop offset="0.0001" stop-color="#DAE4E8"/>
<stop offset="1" stop-color="#E4E4E4"/>
</linearGradient>
<linearGradient id="paint4_linear_4161_3252" x1="31.8516" y1="73.3073" x2="172.654" y2="148.51" gradientUnits="userSpaceOnUse">
<stop offset="0.0001" stop-color="#DEE4E6"/>
<stop offset="1" stop-color="#E4E4E4"/>
</linearGradient>
<linearGradient id="paint5_linear_4161_3252" x1="33.0078" y1="73.6528" x2="167.532" y2="145.502" gradientUnits="userSpaceOnUse">
<stop offset="0.0001" stop-color="#D5D5D5"/>
<stop offset="1" stop-color="#E4E4E4"/>
</linearGradient>
<linearGradient id="paint6_linear_4161_3252" x1="196.671" y1="56.1825" x2="-8.63305" y2="185.531" gradientUnits="userSpaceOnUse">
<stop offset="0.326098" stop-color="#E6C78C"/>
<stop offset="1" stop-color="#9C4921"/>
</linearGradient>
<linearGradient id="paint7_linear_4161_3252" x1="196.671" y1="56.1825" x2="30.6172" y2="160.377" gradientUnits="userSpaceOnUse">
<stop stop-color="#E5CB94"/>
<stop offset="1" stop-color="#9C4921"/>
</linearGradient>
</defs>
</svg>
