<svg width="34" height="34" viewBox="0 0 34 34" fill="none" xmlns="http://www.w3.org/2000/svg">
<path d="M8.48528 17.9134C8.8478 17.5318 9.04993 17.0255 9.04993 16.4992C9.04993 15.9728 8.8478 15.4666 8.48528 15.0849C8.11021 14.7099 7.6015 14.4992 7.07107 14.4992C6.54063 14.4992 6.03193 14.7099 5.65685 15.0849C5.28178 15.46 5.07107 15.9687 5.07107 16.4992C5.07107 17.0296 5.28178 17.5383 5.65685 17.9134C6.03846 18.2759 6.54471 18.478 7.07107 18.478C7.59742 18.478 8.10367 18.2759 8.48528 17.9134V17.9134ZM5.18545 11.7851C6.56921 10.426 8.43129 9.66442 10.3709 9.66442C12.3105 9.66442 14.1726 10.426 15.5563 11.7851C16.4445 12.731 17.1196 13.8562 17.5362 15.0849H32.0555L33.9411 16.9706L30.1699 20.7418L28.2843 18.8562L26.3987 20.7418L24.513 18.8562L22.6274 20.7418H16.5934C16.302 21.2507 15.9541 21.7251 15.5563 22.156C14.1726 23.5152 12.3105 24.2767 10.3709 24.2767C8.43128 24.2767 6.56921 23.5152 5.18545 22.156C3.82629 20.7723 3.06476 18.9102 3.06476 16.9706C3.06476 15.0309 3.82629 13.1689 5.18545 11.7851V11.7851Z" fill="#1B7CC4"/>
</svg>
