<svg width="97" height="96" viewBox="0 0 97 96" fill="none" xmlns="http://www.w3.org/2000/svg">
<path d="M48.5 0C74.9644 0 96.4167 21.4523 96.4167 47.9167C96.4167 74.381 74.9644 95.8333 48.5 95.8333C22.0356 95.8333 0.583344 74.381 0.583344 47.9167C0.583344 21.4523 22.0356 0 48.5 0ZM48.5 9.58333C27.3304 9.58333 10.1667 26.7471 10.1667 47.9167C10.1667 69.0863 27.3304 86.25 48.5 86.25C69.6696 86.25 86.8333 69.0863 86.8333 47.9167C86.8333 26.7471 69.6696 9.58333 48.5 9.58333ZM48.5 14.375C53.3779 14.375 58.0115 15.4148 62.1946 17.2883L54.7052 24.7729C52.7263 24.2458 50.6467 23.9583 48.5 23.9583C35.2702 23.9583 24.5417 34.6869 24.5417 47.9167C24.5417 54.5292 27.225 60.5188 31.5567 64.86L24.7813 71.6354L24.0338 70.864C18.4083 64.8648 14.9583 56.7908 14.9583 47.9167C14.9583 29.3921 29.9754 14.375 48.5 14.375ZM79.1283 34.2269C80.9971 38.4052 82.0417 43.0435 82.0417 47.9167C82.0417 57.179 78.285 65.5644 72.2188 71.6354L65.4433 64.86C69.775 60.5188 72.4583 54.5292 72.4583 47.9167C72.4583 45.77 72.1756 43.6904 71.6438 41.7115L79.1283 34.2269ZM68.8263 20.8102L75.6065 27.5856L57.7623 45.4394C57.9731 46.23 58.0833 47.059 58.0833 47.9167C58.0833 53.2115 53.7948 57.5 48.5 57.5C43.2052 57.5 38.9167 53.2115 38.9167 47.9167C38.9167 42.6219 43.2052 38.3333 48.5 38.3333C49.3577 38.3333 50.1867 38.4435 50.9773 38.6544L68.8311 20.8102H68.8263Z" fill="#EBEDF0"/>
</svg>
