<svg width="70" height="70" viewBox="0 0 70 70" fill="none" xmlns="http://www.w3.org/2000/svg">
<path d="M11.6671 58.333V40.833C11.6671 34.6446 14.1254 28.7097 18.5013 24.3339C22.8771 19.958 28.812 17.4997 35.0004 17.4997C41.1888 17.4997 47.1237 19.958 51.4996 24.3339C55.8754 28.7097 58.3338 34.6446 58.3338 40.833V58.333H61.2504V64.1663H8.75043V58.333H11.6671ZM17.5004 58.333H52.5004V40.833C52.5004 36.1917 50.6567 31.7405 47.3748 28.4586C44.0929 25.1768 39.6417 23.333 35.0004 23.333C30.3591 23.333 25.9079 25.1768 22.6261 28.4586C19.3442 31.7405 17.5004 36.1917 17.5004 40.833V58.333ZM32.0838 5.83301H37.9171V14.583H32.0838V5.83301ZM57.6863 14.023L61.8104 18.1472L55.6271 24.3334L51.5 20.2093L57.6863 14.023ZM8.19043 18.1472L12.3146 14.023L18.5008 20.2063L14.3796 24.3363L8.19043 18.1472ZM20.4171 40.833C20.4171 36.9653 21.9535 33.2559 24.6885 30.521C27.4234 27.7861 31.1327 26.2497 35.0004 26.2497V32.083C32.6798 32.083 30.4542 33.0049 28.8132 34.6458C27.1723 36.2868 26.2504 38.5124 26.2504 40.833H20.4171Z" fill="#0F7AC7"/>
</svg>
