<svg width="27" height="24" viewBox="0 0 27 24" fill="none" xmlns="http://www.w3.org/2000/svg">
<path d="M8.0498 4.57501H17.9498C18.7748 4.57501 19.4498 5.25001 19.4498 6.07501V7.72501C19.4498 8.32501 19.0748 9.07501 18.6998 9.45001L15.25 12.3C14.8 12.675 14.5 13.425 14.5 14.025V18C14.5 18.0619 14.5 18.1294 14.5 18.1999C14.5 18.7522 14.0523 19.2 13.5 19.2H12.775C11 19.2 11 19.2 11 18V14.025C11 13.5 10.7 12.825 10.4 12.45L7.2248 9.37501C6.8498 9.00001 6.5498 8.32501 6.5498 7.87501V6.15001C6.5498 5.25001 7.2248 4.57501 8.0498 4.57501Z" stroke="#08416A" stroke-width="1.5" stroke-miterlimit="10" stroke-linecap="round" stroke-linejoin="round"/>
<circle cx="20" cy="13" r="6" fill="#DBECF1" stroke="#08416A" stroke-width="1.5"/>
<path d="M17.5 13.1797L20.0599 15.7397L22.62 13.1797" stroke="#08416A" stroke-width="1.5" stroke-miterlimit="10" stroke-linecap="round" stroke-linejoin="round"/>
<path d="M20.0596 10.5V14.5" stroke="#08416A" stroke-width="1.5" stroke-miterlimit="10" stroke-linecap="round" stroke-linejoin="round"/>
</svg>
