<svg width="20" height="20" viewBox="0 0 20 20" fill="none" xmlns="http://www.w3.org/2000/svg">
<path d="M2.5 18.3333H17.5" stroke="#666666" stroke-width="1.5" stroke-linecap="round" stroke-linejoin="round"/>
<path d="M4.66665 6.98322H3.33333C2.875 6.98322 2.5 7.35822 2.5 7.81655V14.9999C2.5 15.4582 2.875 15.8332 3.33333 15.8332H4.66665C5.12498 15.8332 5.49998 15.4582 5.49998 14.9999V7.81655C5.49998 7.35822 5.12498 6.98322 4.66665 6.98322Z" stroke="#666666" stroke-width="1.5" stroke-linecap="round" stroke-linejoin="round"/>
<path d="M10.6666 4.32495H9.33333C8.875 4.32495 8.5 4.69995 8.5 5.15828V14.9999C8.5 15.4583 8.875 15.8333 9.33333 15.8333H10.6666C11.1249 15.8333 11.4999 15.4583 11.4999 14.9999V5.15828C11.4999 4.69995 11.1249 4.32495 10.6666 4.32495Z" stroke="#666666" stroke-width="1.5" stroke-linecap="round" stroke-linejoin="round"/>
<path d="M16.6667 1.66669H15.3333C14.875 1.66669 14.5 2.04169 14.5 2.50002V15C14.5 15.4584 14.875 15.8334 15.3333 15.8334H16.6667C17.125 15.8334 17.5 15.4584 17.5 15V2.50002C17.5 2.04169 17.125 1.66669 16.6667 1.66669Z" stroke="#666666" stroke-width="1.5" stroke-linecap="round" stroke-linejoin="round"/>
</svg>
