<svg width="30" height="30" viewBox="0 0 30 30" fill="none" xmlns="http://www.w3.org/2000/svg">
<mask id="mask0_635_4418" style="mask-type:alpha" maskUnits="userSpaceOnUse" x="2" y="2" width="26" height="26">
<path d="M15 27.5C21.9035 27.5 27.5 21.9035 27.5 15C27.5 8.09644 21.9035 2.5 15 2.5C8.09644 2.5 2.5 8.09644 2.5 15C2.5 21.9035 8.09644 27.5 15 27.5Z" fill="white"/>
</mask>
<g mask="url(#mask0_635_4418)">
<path d="M15.1485 16.9766C15.061 16.9641 14.9485 16.9641 14.8485 16.9766C12.6485 16.9016 10.8984 15.1016 10.8984 12.8891C10.8984 10.6266 12.7235 8.78906 14.9985 8.78906C17.261 8.78906 19.0985 10.6266 19.0985 12.8891C19.086 15.1016 17.3485 16.9016 15.1485 16.9766Z" stroke="#2F3A43" stroke-width="1.49696" stroke-linecap="round" stroke-linejoin="round"/>
<path d="M23.4242 25.2281C21.1992 27.2656 18.2492 28.5031 14.9992 28.5031C11.7492 28.5031 8.79922 27.2656 6.57422 25.2281C6.69922 24.0531 7.44922 22.9031 8.78672 22.0031C12.2117 19.7281 17.8117 19.7281 21.2117 22.0031C22.5492 22.9031 23.2992 24.0531 23.4242 25.2281Z" stroke="#2F3A43" stroke-width="1.49696" stroke-linecap="round" stroke-linejoin="round"/>
</g>
</svg>
