<svg width="16" height="16" viewBox="0 0 16 16" fill="none" xmlns="http://www.w3.org/2000/svg">
<path fill-rule="evenodd" clip-rule="evenodd" d="M13.3333 1.33337C13.7013 1.33337 14 1.63204 14 2.00004V4.50471L12.6667 5.83804V2.66671H3.33333V13.3334H12.6667V11.4947L14 10.1614V14C14 14.368 13.7013 14.6667 13.3333 14.6667H2.66667C2.29867 14.6667 2 14.368 2 14V2.00004C2 1.63204 2.29867 1.33337 2.66667 1.33337H13.3333ZM14.5187 5.87204L15.4613 6.81471L10.276 12L9.332 11.9987L9.33333 11.0574L14.5187 5.87204ZM8.66667 8.00004V9.33337H5.33333V8.00004H8.66667ZM10.6667 5.33337V6.66671H5.33333V5.33337H10.6667Z" fill="#0079D0"/>
</svg>
