<svg width="20" height="20" viewBox="0 0 20 20" fill="none" xmlns="http://www.w3.org/2000/svg">
<path d="M10.0003 18.3337C14.5837 18.3337 18.3337 14.5837 18.3337 10.0003C18.3337 5.41699 14.5837 1.66699 10.0003 1.66699C5.41699 1.66699 1.66699 5.41699 1.66699 10.0003C1.66699 14.5837 5.41699 18.3337 10.0003 18.3337Z" fill="#0079D0"/>
<mask id="mask0_8526_17591" style="mask-type:alpha" maskUnits="userSpaceOnUse" x="5" y="5" width="10" height="10">
<path d="M10.629 7.16086L7.08908 10.7009C6.94908 10.8409 6.81898 11.1009 6.78898 11.2909L6.59898 12.6409C6.52898 13.1309 6.86898 13.471 7.35898 13.401L8.70898 13.2109C8.89898 13.1809 9.16897 13.0509 9.29897 12.9109L12.8391 9.37096C13.4491 8.76096 13.7391 8.05096 12.8391 7.15096C11.9491 6.26096 11.239 6.55086 10.629 7.16086Z" fill="white" stroke="white" stroke-width="1.2" stroke-miterlimit="10" stroke-linecap="round" stroke-linejoin="round"/>
</mask>
<g mask="url(#mask0_8526_17591)">
<path d="M10.629 7.16086L7.08908 10.7009C6.94908 10.8409 6.81898 11.1009 6.78898 11.2909L6.59898 12.6409C6.52898 13.1309 6.86898 13.471 7.35898 13.401L8.70898 13.2109C8.89898 13.1809 9.16897 13.0509 9.29897 12.9109L12.8391 9.37096C13.4491 8.76096 13.7391 8.05096 12.8391 7.15096C11.9491 6.26096 11.239 6.55086 10.629 7.16086Z" fill="white" stroke="white" stroke-width="0.8" stroke-miterlimit="10" stroke-linecap="round" stroke-linejoin="round"/>
<path d="M6.90625 9.25C7.11524 10.6973 8.37939 12.1059 10.2472 12.9727" stroke="#0079D0" stroke-width="1.2" stroke-miterlimit="10" stroke-linecap="round" stroke-linejoin="round"/>
</g>
</svg>
