<svg width="16" height="16" viewBox="0 0 16 16" fill="none" xmlns="http://www.w3.org/2000/svg">
<g id="Ic&#195;&#180;ne">
<path id="Ic&#195;&#180;ne_2" fill-rule="evenodd" clip-rule="evenodd" d="M7.99989 0.667358C10.2645 0.667358 12.2822 2.09752 13.0322 4.23434C13.7823 6.37115 13.101 8.74864 11.3332 10.164V14.7447C11.3333 14.8648 11.2687 14.9756 11.1642 15.0348C11.0598 15.094 10.9316 15.0924 10.8286 15.0307L7.99989 13.3334L5.17123 15.0307C5.06813 15.0925 4.93976 15.094 4.83526 15.0346C4.73075 14.9752 4.66629 14.8642 4.66656 14.744V10.164C2.89874 8.74864 2.21753 6.37115 2.96755 4.23434C3.71758 2.09752 5.73527 0.667358 7.99989 0.667358ZM9.99989 10.9454C9.36446 11.2024 8.68533 11.3341 7.99989 11.3334C7.31445 11.3341 6.63533 11.2024 5.99989 10.9454V12.9787L7.99989 11.7787L9.99989 12.9787V10.9454ZM7.99989 2.00002C5.79075 2.00002 3.99989 3.79088 3.99989 6.00002C3.99989 8.20916 5.79075 10 7.99989 10C10.209 10 11.9999 8.20916 11.9999 6.00002C11.9999 3.79088 10.209 2.00002 7.99989 2.00002Z" fill="#0079D0"/>
</g>
</svg>
