<svg width="18" height="18" viewBox="0 0 18 18" fill="none" xmlns="http://www.w3.org/2000/svg">
    <path d="M8.99935 17.3327C13.5827 17.3327 17.3327 13.5827 17.3327 8.99935C17.3327 4.41602 13.5827 0.666016 8.99935 0.666016C4.41602 0.666016 0.666016 4.41602 0.666016 8.99935C0.666016 13.5827 4.41602 17.3327 8.99935 17.3327Z" fill="#0079D0"/>
    <path d="M8.34841 12.3837C8.16997 12.5621 7.83156 12.7344 7.58545 12.7713L6.07184 12.9867C6.01646 12.9928 5.96108 12.999 5.90571 12.999C5.65344 12.999 5.41963 12.9129 5.2535 12.7467C5.05045 12.5437 4.96431 12.2483 5.01354 11.9222L5.22889 10.4086C5.26581 10.1564 5.43193 9.8241 5.61652 9.64566L8.36071 6.90147C8.40994 7.03068 8.45916 7.15989 8.52684 7.30756C8.58837 7.43677 8.65605 7.57214 8.72989 7.69519C8.79142 7.79979 8.8591 7.89824 8.91447 7.97207C8.98216 8.07667 9.06214 8.17512 9.11137 8.2305C9.14213 8.27357 9.16674 8.30433 9.17905 8.31664C9.33287 8.50122 9.51131 8.6735 9.66513 8.80272C9.7082 8.84579 9.73281 8.8704 9.74512 8.87655C9.83741 8.95039 9.9297 9.02422 10.0097 9.0796C10.1081 9.15343 10.2066 9.22111 10.3112 9.27649C10.4342 9.35032 10.5696 9.41801 10.705 9.48569C10.8465 9.54722 10.9757 9.60259 11.1049 9.64566L8.34841 12.3837ZM12.2986 8.43354L11.7325 9.00576C11.6956 9.04268 11.6464 9.06114 11.5971 9.06114C11.5787 9.06114 11.5541 9.06114 11.5418 9.05499C10.2927 8.69812 9.29596 7.70135 8.93909 6.45231C8.92063 6.38463 8.93909 6.31079 8.98831 6.26772L9.56053 5.6955C10.4958 4.76026 11.3879 4.77872 12.3047 5.6955C12.7723 6.16312 13 6.61228 13 7.0799C12.9938 7.52291 12.7662 7.96592 12.2986 8.43354Z" fill="white" stroke="#0079D0" stroke-width="0.6"/>
</svg>
