<svg width="16" height="16" viewBox="0 0 16 16" fill="none" xmlns="http://www.w3.org/2000/svg">
    <path fill-rule="evenodd" clip-rule="evenodd" d="M2.22665 11.3333C1.94483 10.846 1.72576 10.325 1.57465 9.78267C2.24523 9.44161 2.66768 8.75308 2.66796 8.00075C2.66824 7.24841 2.2463 6.55957 1.57598 6.218C1.87734 5.12833 2.45113 4.13331 3.24331 3.32667C3.87419 3.73682 4.68188 3.75816 5.33353 3.38189C5.98518 3.00562 6.37048 2.29543 6.33065 1.544C7.42539 1.26109 8.57413 1.26154 9.66865 1.54534C9.62916 2.29675 10.0148 3.00673 10.6665 3.38271C11.3183 3.75869 12.126 3.73704 12.7566 3.32667C13.1426 3.72 13.4853 4.16734 13.7733 4.66667C14.062 5.166 14.278 5.68667 14.4253 6.21734C13.7547 6.5584 13.3323 7.24693 13.332 7.99926C13.3317 8.75159 13.7537 9.44044 14.424 9.782C14.1226 10.8717 13.5488 11.8667 12.7566 12.6733C12.1258 12.2632 11.3181 12.2418 10.6664 12.6181C10.0148 12.9944 9.62947 13.7046 9.66931 14.456C8.57457 14.7389 7.42583 14.7385 6.33131 14.4547C6.3708 13.7033 5.9852 12.9933 5.33343 12.6173C4.68165 12.2413 3.87401 12.263 3.24331 12.6733C2.84931 12.2713 2.50771 11.8211 2.22665 11.3333ZM5.99998 11.464C6.7104 11.8738 7.24454 12.5314 7.49998 13.3107C7.83265 13.342 8.16665 13.3427 8.49931 13.3113C8.75491 12.5319 9.28931 11.8743 9.99998 11.4647C10.7101 11.0538 11.547 10.9197 12.35 11.088C12.5433 10.816 12.71 10.526 12.8486 10.2227C12.3016 9.61163 11.9994 8.82014 12 8C12 7.16 12.3133 6.37534 12.8486 5.77734C12.709 5.4741 12.5416 5.18443 12.3486 4.912C11.5462 5.08021 10.7098 4.94632 9.99998 4.536C9.28956 4.12625 8.75542 3.46866 8.49998 2.68934C8.16731 2.658 7.83331 2.65734 7.50065 2.68867C7.24504 3.4681 6.71065 4.12571 5.99998 4.53534C5.28983 4.94621 4.45296 5.08035 3.64998 4.912C3.45702 5.18419 3.29007 5.47391 3.15131 5.77734C3.69836 6.38838 4.00057 7.17986 3.99998 8C3.99998 8.84 3.68665 9.62467 3.15131 10.2227C3.29096 10.5259 3.45834 10.8156 3.65131 11.088C4.45379 10.9198 5.29012 11.0537 5.99998 11.464ZM7.99998 10C6.89541 10 5.99998 9.10457 5.99998 8C5.99998 6.89543 6.89541 6 7.99998 6C9.10455 6 9.99998 6.89543 9.99998 8C9.99998 9.10457 9.10455 10 7.99998 10ZM7.99998 8.66667C8.36817 8.66667 8.66665 8.36819 8.66665 8C8.66665 7.63181 8.36817 7.33334 7.99998 7.33334C7.63179 7.33334 7.33331 7.63181 7.33331 8C7.33331 8.36819 7.63179 8.66667 7.99998 8.66667Z" fill="#0079D0"/>
</svg>