<svg width="20" height="20" viewBox="0 0 20 20" fill="none" xmlns="http://www.w3.org/2000/svg">
<path d="M15.8327 7.49984C15.8327 8.70817 15.4743 9.8165 14.8577 10.7415C13.9577 12.0748 12.5327 13.0165 10.8743 13.2582C10.591 13.3082 10.2993 13.3332 9.99935 13.3332C9.69935 13.3332 9.40768 13.3082 9.12435 13.2582C7.46602 13.0165 6.04102 12.0748 5.14102 10.7415C4.52435 9.8165 4.16602 8.70817 4.16602 7.49984C4.16602 4.27484 6.77435 1.6665 9.99935 1.6665C13.2243 1.6665 15.8327 4.27484 15.8327 7.49984Z" stroke="#0E972B" stroke-width="1.5" stroke-linecap="round" stroke-linejoin="round"/>
<path d="M17.7092 15.3917L16.3342 15.7167C16.0259 15.7917 15.7842 16.025 15.7176 16.3333L15.4259 17.5583C15.2676 18.225 14.4176 18.425 13.9759 17.9L10.0009 13.3333L6.02588 17.9083C5.58421 18.4333 4.73421 18.2333 4.57588 17.5667L4.28421 16.3417C4.20921 16.0333 3.96755 15.7917 3.66755 15.725L2.29255 15.4C1.65921 15.25 1.43421 14.4583 1.89255 14L5.14255 10.75C6.04255 12.0833 7.46755 13.025 9.12591 13.2667C9.40925 13.3167 9.70091 13.3417 10.0009 13.3417C10.3009 13.3417 10.5926 13.3167 10.8759 13.2667C12.5342 13.025 13.9592 12.0833 14.8592 10.75L18.1092 14C18.5676 14.45 18.3426 15.2417 17.7092 15.3917Z" stroke="#0E972B" stroke-width="1.5" stroke-linecap="round" stroke-linejoin="round"/>
<path d="M10.4837 4.9835L10.9753 5.96682C11.042 6.10015 11.217 6.2335 11.3753 6.2585L12.267 6.40849C12.8337 6.50015 12.967 6.91683 12.5587 7.32516L11.867 8.01681C11.7503 8.13348 11.6837 8.3585 11.7253 8.52516L11.9253 9.3835C12.0837 10.0585 11.7253 10.3252 11.1253 9.96683L10.292 9.47516C10.142 9.3835 9.89199 9.3835 9.74199 9.47516L8.90866 9.96683C8.30864 10.3168 7.9503 10.0585 8.10864 9.3835L8.30864 8.52516C8.34199 8.36683 8.28364 8.13348 8.16697 8.01681L7.4753 7.32516C7.06697 6.91683 7.2003 6.50849 7.76697 6.40849L8.65866 6.2585C8.80866 6.2335 8.98366 6.10015 9.05033 5.96682L9.54199 4.9835C9.78366 4.45016 10.217 4.45016 10.4837 4.9835Z" stroke="#0E972B" stroke-width="1.5" stroke-linecap="round" stroke-linejoin="round"/>
</svg>
