<svg width="16" height="16" viewBox="0 0 16 16" fill="none" xmlns="http://www.w3.org/2000/svg">
    <path fill-rule="evenodd" clip-rule="evenodd" d="M8.00016 14.6666C4.31816 14.6666 1.3335 11.6819 1.3335 7.99992C1.3335 4.31792 4.31816 1.33325 8.00016 1.33325C11.6822 1.33325 14.6668 4.31792 14.6668 7.99992C14.6668 11.6819 11.6822 14.6666 8.00016 14.6666ZM7.3335 9.99992V11.3333H8.66683V9.99992H7.3335ZM8.66683 8.90325C9.77417 8.5695 10.4703 7.47533 10.3033 6.3309C10.1364 5.18646 9.1567 4.33675 8.00016 4.33325C6.88788 4.33317 5.93008 5.11799 5.7115 6.20859L7.0195 6.47059C7.12274 5.95404 7.609 5.60615 8.13122 5.67522C8.65344 5.74429 9.03253 6.20662 8.99794 6.73226C8.96335 7.25789 8.52693 7.66655 8.00016 7.66659C7.63197 7.66659 7.3335 7.96506 7.3335 8.33325V9.33325H8.66683V8.90325Z" fill="#E48800"/>
</svg>
