<svg width="16" height="16" viewBox="0 0 16 16" fill="none" xmlns="http://www.w3.org/2000/svg">
    <path fill-rule="evenodd" clip-rule="evenodd" d="M7.99992 14.6673C4.31792 14.6673 1.33325 11.6827 1.33325 8.00065C1.33325 4.31865 4.31792 1.33398 7.99992 1.33398C11.6819 1.33398 14.6666 4.31865 14.6666 8.00065C14.6666 11.6827 11.6819 14.6673 7.99992 14.6673ZM7.99992 13.334C10.9454 13.334 13.3333 10.9462 13.3333 8.00065C13.3333 5.05513 10.9454 2.66732 7.99992 2.66732C5.0544 2.66732 2.66659 5.05513 2.66659 8.00065C2.66659 10.9462 5.0544 13.334 7.99992 13.334ZM7.99992 7.05798L9.88525 5.17198L10.8286 6.11532L8.94258 8.00065L10.8286 9.88598L9.88525 10.8293L7.99992 8.94332L6.11458 10.8293L5.17125 9.88598L7.05725 8.00065L5.17125 6.11532L6.11458 5.17198L7.99992 7.05798Z" fill="#3A3A3A"/>
</svg>
