<svg width="16" height="15" viewBox="0 0 16 15" fill="none" xmlns="http://www.w3.org/2000/svg">
<path d="M10.9625 0.794755L15.2052 5.0375C15.3458 5.17815 15.4248 5.36888 15.4248 5.56775C15.4248 5.76663 15.3458 5.95736 15.2052 6.098L9.37095 11.9323L7.78095 12.4625L6.7197 13.523C6.57906 13.6636 6.38833 13.7426 6.18945 13.7426C5.99058 13.7426 5.79985 13.6636 5.6592 13.523L2.47695 10.3408C2.33635 10.2001 2.25736 10.0094 2.25736 9.8105C2.25736 9.61163 2.33635 9.4209 2.47695 9.28025L3.53745 8.21976L4.0677 6.629L9.90195 0.794755C10.0426 0.654151 10.2333 0.575165 10.4322 0.575165C10.6311 0.575165 10.8218 0.654151 10.9625 0.794755ZM11.4927 3.44675L6.7197 8.21976L7.7802 9.28025L12.5532 4.50725L11.4927 3.44675ZM2.21145 11.6668L4.3332 13.7885L3.2727 14.849L0.0904541 13.7885L2.21145 11.6668Z" fill="#2F3A43"/>
</svg>
