<svg width="20" height="20" viewBox="0 0 20 20" fill="none" xmlns="http://www.w3.org/2000/svg">
<path d="M9.99935 18.3327C14.5827 18.3327 18.3327 14.5827 18.3327 9.99935C18.3327 5.41602 14.5827 1.66602 9.99935 1.66602C5.41602 1.66602 1.66602 5.41602 1.66602 9.99935C1.66602 14.5827 5.41602 18.3327 9.99935 18.3327Z" fill="#0079D0"/>
<path d="M9.34841 13.3837C9.16997 13.5621 8.83156 13.7344 8.58545 13.7713L7.07184 13.9867C7.01646 13.9928 6.96108 13.999 6.90571 13.999C6.65344 13.999 6.41963 13.9129 6.2535 13.7467C6.05045 13.5437 5.96431 13.2483 6.01354 12.9222L6.22889 11.4086C6.26581 11.1564 6.43193 10.8241 6.61652 10.6457L9.36071 7.90147C9.40994 8.03068 9.45916 8.15989 9.52684 8.30756C9.58837 8.43677 9.65605 8.57214 9.72989 8.69519C9.79142 8.79979 9.8591 8.89824 9.91447 8.97207C9.98216 9.07667 10.0621 9.17512 10.1114 9.2305C10.1421 9.27357 10.1667 9.30433 10.179 9.31664C10.3329 9.50122 10.5113 9.6735 10.6651 9.80272C10.7082 9.84579 10.7328 9.8704 10.7451 9.87655C10.8374 9.95039 10.9297 10.0242 11.0097 10.0796C11.1081 10.1534 11.2066 10.2211 11.3112 10.2765C11.4342 10.3503 11.5696 10.418 11.705 10.4857C11.8465 10.5472 11.9757 10.6026 12.1049 10.6457L9.34841 13.3837ZM13.2986 9.43354L12.7325 10.0058C12.6956 10.0427 12.6464 10.0611 12.5971 10.0611C12.5787 10.0611 12.5541 10.0611 12.5418 10.055C11.2927 9.69812 10.296 8.70135 9.93909 7.45231C9.92063 7.38463 9.93909 7.31079 9.98831 7.26772L10.5605 6.6955C11.4958 5.76026 12.3879 5.77872 13.3047 6.6955C13.7723 7.16312 14 7.61228 14 8.0799C13.9938 8.52291 13.7662 8.96592 13.2986 9.43354Z" fill="white" stroke="#0079D0" stroke-width="0.6"/>
</svg>
