<svg width="24" height="24" viewBox="0 0 24 24" fill="none" xmlns="http://www.w3.org/2000/svg">
<g id="Version=Contour">
<path id="Ic&#195;&#180;ne" fill-rule="evenodd" clip-rule="evenodd" d="M12.8661 2.99996L22.3921 19.5C22.5707 19.8094 22.5707 20.1905 22.3921 20.4999C22.2135 20.8093 21.8834 20.9999 21.5261 21H2.4741C2.11683 20.9999 1.78672 20.8093 1.60809 20.4999C1.42946 20.1905 1.42947 19.8094 1.6081 19.5L11.1341 2.99996C11.3127 2.69058 11.6428 2.5 12.0001 2.5C12.3573 2.5 12.6875 2.69058 12.8661 2.99996ZM4.2061 19H19.7941L12.0001 5.49996L4.2061 19ZM11.0001 16H13.0001V18H11.0001V16ZM11.0001 8.99996H13.0001V14H11.0001V8.99996Z" fill="#0079D0"/>
</g>
</svg>
