<svg width="20" height="20" viewBox="0 0 20 20" fill="none" xmlns="http://www.w3.org/2000/svg">
<path d="M10 0C15.52 0 20 4.48 20 10C20 15.52 15.52 20 10 20C4.48 20 0 15.52 0 10C0 4.48 4.48 0 10 0ZM4.023 13.416C5.491 15.606 7.695 17 10.16 17C12.624 17 14.829 15.607 16.296 13.416C14.6317 11.8606 12.4379 10.9968 10.16 11C7.88171 10.9966 5.68751 11.8604 4.023 13.416ZM10 9C10.7956 9 11.5587 8.68393 12.1213 8.12132C12.6839 7.55871 13 6.79565 13 6C13 5.20435 12.6839 4.44129 12.1213 3.87868C11.5587 3.31607 10.7956 3 10 3C9.20435 3 8.44129 3.31607 7.87868 3.87868C7.31607 4.44129 7 5.20435 7 6C7 6.79565 7.31607 7.55871 7.87868 8.12132C8.44129 8.68393 9.20435 9 10 9Z" fill="#08416A"/>
</svg>
