<svg width="16" height="16" viewBox="0 0 16 16" fill="none" xmlns="http://www.w3.org/2000/svg">
    <g id="Ic&#195;&#180;ne">
        <path id="Ic&#195;&#180;ne_2" fill-rule="evenodd" clip-rule="evenodd" d="M8.00016 14.6667C4.31816 14.6667 1.3335 11.682 1.3335 8.00004C1.3335 4.31804 4.31816 1.33337 8.00016 1.33337C11.6822 1.33337 14.6668 4.31804 14.6668 8.00004C14.6668 11.682 11.6822 14.6667 8.00016 14.6667ZM8.00016 13.3334C10.9457 13.3334 13.3335 10.9456 13.3335 8.00004C13.3335 5.05452 10.9457 2.66671 8.00016 2.66671C5.05464 2.66671 2.66683 5.05452 2.66683 8.00004C2.66683 10.9456 5.05464 13.3334 8.00016 13.3334ZM7.3335 10H8.66683V11.3334H7.3335V10ZM8.66683 8.90337V9.33337H7.3335V8.33337C7.3335 7.96518 7.63197 7.66671 8.00016 7.66671C8.52693 7.66667 8.96335 7.25801 8.99794 6.73238C9.03253 6.20675 8.65344 5.74441 8.13122 5.67534C7.609 5.60627 7.12274 5.95416 7.0195 6.47071L5.7115 6.20871C5.93582 5.08754 6.93933 4.29394 8.08202 4.33406C9.2247 4.37417 10.1701 5.23617 10.3153 6.37031C10.4604 7.50445 9.76258 8.57677 8.66683 8.90337Z" fill="#0279D0"/>
    </g>
</svg>