<svg width="24" height="25" viewBox="0 0 24 25" fill="none" xmlns="http://www.w3.org/2000/svg">
<path d="M22 10.5V15.5C22 20.5 20 22.5 15 22.5H9C4 22.5 2 20.5 2 15.5V9.5C2 4.5 4 2.5 9 2.5H14M22 10.5H18C15 10.5 14 9.5 14 6.5V2.5M22 10.5L14 2.5" stroke="#0079D0" stroke-width="1.5" stroke-linecap="round" stroke-linejoin="round"/>
<path d="M7.18188 18.5C7.10854 18.5 7.04688 18.475 6.99688 18.425C6.94688 18.375 6.92188 18.3133 6.92188 18.24V14.855C6.92188 14.7783 6.94688 14.7167 6.99688 14.67C7.04688 14.62 7.10854 14.595 7.18188 14.595H8.18188C8.43188 14.595 8.65354 14.65 8.84688 14.76C9.04021 14.87 9.19021 15.0233 9.29688 15.22C9.40688 15.4133 9.46188 15.6367 9.46188 15.89C9.46188 16.1333 9.40688 16.35 9.29688 16.54C9.19021 16.73 9.04021 16.8783 8.84688 16.985C8.65354 17.0917 8.43188 17.145 8.18188 17.145H7.44188V18.24C7.44188 18.3133 7.41688 18.375 7.36688 18.425C7.32021 18.475 7.25854 18.5 7.18188 18.5ZM7.44188 16.665H8.18188C8.33521 16.665 8.47021 16.6317 8.58688 16.565C8.70354 16.4983 8.79521 16.4067 8.86188 16.29C8.92854 16.1733 8.96188 16.04 8.96188 15.89C8.96188 15.73 8.92854 15.59 8.86188 15.47C8.79521 15.3467 8.70354 15.25 8.58688 15.18C8.47021 15.11 8.33521 15.075 8.18188 15.075H7.44188V16.665ZM11.2971 18.5C11.2238 18.5 11.1621 18.475 11.1121 18.425C11.0621 18.375 11.0371 18.3133 11.0371 18.24V14.855C11.0371 14.7783 11.0621 14.7167 11.1121 14.67C11.1621 14.62 11.2238 14.595 11.2971 14.595H12.2021C12.4888 14.595 12.7488 14.6433 12.9821 14.74C13.2188 14.8333 13.4238 14.9683 13.5971 15.145C13.7704 15.3183 13.9038 15.5233 13.9971 15.76C14.0904 15.9967 14.1371 16.2583 14.1371 16.545C14.1371 16.8317 14.0904 17.095 13.9971 17.335C13.9038 17.5717 13.7704 17.7783 13.5971 17.955C13.4238 18.1283 13.2188 18.2633 12.9821 18.36C12.7488 18.4533 12.4888 18.5 12.2021 18.5H11.2971ZM11.5571 18.04H12.2021C12.4821 18.04 12.7288 17.9767 12.9421 17.85C13.1588 17.72 13.3288 17.5433 13.4521 17.32C13.5754 17.0933 13.6371 16.835 13.6371 16.545C13.6371 16.2517 13.5754 15.9933 13.4521 15.77C13.3288 15.5467 13.1588 15.3717 12.9421 15.245C12.7288 15.1183 12.4821 15.055 12.2021 15.055H11.5571V18.04ZM15.8981 18.5C15.8248 18.5 15.7631 18.475 15.7131 18.425C15.6631 18.375 15.6381 18.3133 15.6381 18.24V14.855C15.6381 14.7783 15.6631 14.7167 15.7131 14.67C15.7631 14.62 15.8248 14.595 15.8981 14.595H18.1581C18.2348 14.595 18.2965 14.6183 18.3431 14.665C18.3898 14.7083 18.4131 14.7667 18.4131 14.84C18.4131 14.91 18.3898 14.9667 18.3431 15.01C18.2965 15.0533 18.2348 15.075 18.1581 15.075H16.1581V16.29H17.5931C17.6698 16.29 17.7315 16.3133 17.7781 16.36C17.8248 16.4033 17.8481 16.46 17.8481 16.53C17.8481 16.6 17.8248 16.6583 17.7781 16.705C17.7315 16.7483 17.6698 16.77 17.5931 16.77H16.1581V18.24C16.1581 18.3133 16.1331 18.375 16.0831 18.425C16.0331 18.475 15.9715 18.5 15.8981 18.5Z" fill="#0079D0"/>
<path d="M6.99687 18.425L6.8201 18.6018L6.99687 18.425ZM6.99687 14.67L7.16756 14.8529L7.17365 14.8468L6.99687 14.67ZM8.84688 14.76L8.72324 14.9773H8.72324L8.84688 14.76ZM9.29688 15.22L9.07707 15.3392L9.07958 15.3436L9.29688 15.22ZM9.29688 16.54L9.0805 16.4147L9.07888 16.4176L9.29688 16.54ZM8.84688 16.985L8.96764 17.2039L8.84688 16.985ZM7.44188 17.145V16.895H7.19188V17.145H7.44188ZM7.36688 18.425L7.18999 18.2481L7.18411 18.2544L7.36688 18.425ZM7.44188 16.665H7.19188V16.915H7.44188V16.665ZM8.58688 16.565L8.46284 16.3479H8.46284L8.58688 16.565ZM8.86188 16.29L9.07894 16.414H9.07894L8.86188 16.29ZM8.86188 15.47L8.64193 15.5889L8.64334 15.5914L8.86188 15.47ZM7.44188 15.075V14.825H7.19188V15.075H7.44188ZM7.18187 18.25C7.17411 18.25 7.17264 18.2488 7.17455 18.2496C7.17525 18.2498 7.17578 18.2502 7.17595 18.2503C7.17609 18.2504 7.1753 18.2499 7.17365 18.2482L6.8201 18.6018C6.91889 18.7006 7.04498 18.75 7.18187 18.75V18.25ZM7.17365 18.2482C7.17201 18.2466 7.1715 18.2458 7.1716 18.2459C7.17171 18.2461 7.17203 18.2466 7.17231 18.2473C7.17308 18.2492 7.17188 18.2478 7.17188 18.24H6.67188C6.67188 18.3769 6.72131 18.503 6.8201 18.6018L7.17365 18.2482ZM7.17188 18.24V14.855H6.67188V18.24H7.17188ZM7.17188 14.855C7.17188 14.844 7.1736 14.842 7.17231 14.8452C7.17172 14.8466 7.17081 14.8484 7.16961 14.8501C7.16905 14.8509 7.16853 14.8516 7.16812 14.8521C7.16791 14.8523 7.16775 14.8525 7.16763 14.8526C7.16751 14.8527 7.16745 14.8528 7.16745 14.8528L6.8263 14.4872C6.71924 14.5872 6.67188 14.7183 6.67188 14.855H7.17188ZM7.17365 14.8468C7.1753 14.8451 7.17609 14.8446 7.17595 14.8447C7.17578 14.8448 7.17525 14.8452 7.17455 14.8454C7.17264 14.8462 7.17411 14.845 7.18187 14.845V14.345C7.04498 14.345 6.91889 14.3944 6.8201 14.4932L7.17365 14.8468ZM7.18187 14.845H8.18188V14.345H7.18187V14.845ZM8.18188 14.845C8.394 14.845 8.57208 14.8913 8.72324 14.9773L8.97051 14.5427C8.735 14.4087 8.46975 14.345 8.18188 14.345V14.845ZM8.72324 14.9773C8.87576 15.0641 8.99257 15.1833 9.07712 15.3392L9.51663 15.1008C9.38785 14.8634 9.20466 14.6759 8.97051 14.5427L8.72324 14.9773ZM9.07958 15.3436C9.16531 15.4943 9.21188 15.6739 9.21188 15.89H9.71188C9.71188 15.5994 9.64844 15.3324 9.51417 15.0964L9.07958 15.3436ZM9.21188 15.89C9.21188 16.0942 9.16615 16.2668 9.08052 16.4147L9.51323 16.6653C9.6476 16.4332 9.71188 16.1724 9.71188 15.89H9.21188ZM9.07888 16.4176C8.99532 16.5665 8.87925 16.6816 8.72611 16.7661L8.96764 17.2039C9.20116 17.0751 9.38509 16.8935 9.51487 16.6624L9.07888 16.4176ZM8.72611 16.7661C8.57442 16.8498 8.3953 16.895 8.18188 16.895V17.395C8.46845 17.395 8.73267 17.3335 8.96764 17.2039L8.72611 16.7661ZM8.18188 16.895H7.44188V17.395H8.18188V16.895ZM7.19188 17.145V18.24H7.69188V17.145H7.19188ZM7.19188 18.24C7.19188 18.2478 7.19067 18.2492 7.19144 18.2473C7.19172 18.2466 7.19204 18.2461 7.19215 18.2459C7.19225 18.2458 7.19174 18.2466 7.1901 18.2482L7.54365 18.6018C7.64244 18.503 7.69188 18.3769 7.69188 18.24H7.19188ZM7.18411 18.2544C7.18411 18.2544 7.18417 18.2544 7.18429 18.2542C7.18441 18.2541 7.18459 18.254 7.18482 18.2538C7.1853 18.2533 7.18595 18.2528 7.18676 18.2523C7.18849 18.2511 7.19025 18.2502 7.1917 18.2496C7.19489 18.2483 7.19286 18.25 7.18187 18.25V18.75C7.31858 18.75 7.44972 18.7026 7.54964 18.5956L7.18411 18.2544ZM7.44188 16.915H8.18188V16.415H7.44188V16.915ZM8.18188 16.915C8.37248 16.915 8.5514 16.8732 8.71091 16.7821L8.46284 16.3479C8.38902 16.3901 8.29794 16.415 8.18188 16.415V16.915ZM8.71091 16.7821C8.86633 16.6932 8.99012 16.5695 9.07894 16.414L8.64481 16.166C8.6003 16.2439 8.54075 16.3034 8.46284 16.3479L8.71091 16.7821ZM9.07894 16.414C9.16962 16.2553 9.21187 16.0783 9.21187 15.89H8.71187C8.71187 16.0017 8.68747 16.0913 8.64481 16.166L9.07894 16.414ZM9.21187 15.89C9.21187 15.6946 9.1709 15.5115 9.08041 15.3486L8.64334 15.5914C8.68618 15.6685 8.71187 15.7654 8.71187 15.89H9.21187ZM9.0818 15.3511C8.99449 15.1896 8.87182 15.0594 8.7155 14.9656L8.45825 15.3944C8.53526 15.4406 8.59592 15.5037 8.64195 15.5889L9.0818 15.3511ZM8.7155 14.9656C8.55522 14.8695 8.37463 14.825 8.18188 14.825V15.325C8.29579 15.325 8.3852 15.3505 8.45825 15.3944L8.7155 14.9656ZM8.18188 14.825H7.44188V15.325H8.18188V14.825ZM7.19188 15.075V16.665H7.69188V15.075H7.19188ZM11.1121 18.425L10.9353 18.6018L11.1121 18.425ZM11.1121 14.67L11.2828 14.8529L11.2889 14.8468L11.1121 14.67ZM12.9821 14.74L12.8864 14.971L12.8904 14.9726L12.9821 14.74ZM13.5971 15.145L13.4186 15.3201L13.4203 15.3218L13.5971 15.145ZM13.9971 15.76L14.2297 15.6683L13.9971 15.76ZM13.9971 17.335L14.2297 17.4267L14.2301 17.4256L13.9971 17.335ZM13.5971 17.955L13.7739 18.1318L13.7756 18.1301L13.5971 17.955ZM12.9821 18.36L13.075 18.5921L13.0766 18.5914L12.9821 18.36ZM11.5571 18.04H11.3071V18.29H11.5571V18.04ZM12.9421 17.85L13.0697 18.065L13.0707 18.0644L12.9421 17.85ZM13.4521 17.32L13.671 17.4409L13.6717 17.4395L13.4521 17.32ZM13.4521 15.77L13.2333 15.8909V15.8909L13.4521 15.77ZM12.9421 15.245L12.8145 15.46L12.8159 15.4608L12.9421 15.245ZM11.5571 15.055V14.805H11.3071V15.055H11.5571ZM11.2971 18.25C11.2893 18.25 11.2879 18.2488 11.2898 18.2496C11.2905 18.2498 11.291 18.2502 11.2912 18.2503C11.2913 18.2504 11.2905 18.2499 11.2889 18.2482L10.9353 18.6018C11.0341 18.7006 11.1602 18.75 11.2971 18.75V18.25ZM11.2889 18.2482C11.2872 18.2466 11.2867 18.2458 11.2868 18.2459C11.2869 18.2461 11.2873 18.2466 11.2875 18.2473C11.2883 18.2492 11.2871 18.2478 11.2871 18.24H10.7871C10.7871 18.3769 10.8365 18.503 10.9353 18.6018L11.2889 18.2482ZM11.2871 18.24V14.855H10.7871V18.24H11.2871ZM11.2871 14.855C11.2871 14.844 11.2888 14.842 11.2875 14.8452C11.287 14.8466 11.286 14.8484 11.2848 14.8501C11.2843 14.8509 11.2838 14.8516 11.2834 14.8521C11.2831 14.8523 11.283 14.8525 11.2829 14.8526C11.2827 14.8527 11.2827 14.8528 11.2827 14.8528L10.9415 14.4872C10.8345 14.5872 10.7871 14.7183 10.7871 14.855H11.2871ZM11.2889 14.8468C11.2905 14.8451 11.2913 14.8446 11.2912 14.8447C11.291 14.8448 11.2905 14.8452 11.2898 14.8454C11.2879 14.8462 11.2893 14.845 11.2971 14.845V14.345C11.1602 14.345 11.0341 14.3944 10.9353 14.4932L11.2889 14.8468ZM11.2971 14.845H12.2021V14.345H11.2971V14.845ZM12.2021 14.845C12.4604 14.845 12.6873 14.8884 12.8864 14.971L13.0778 14.509C12.8103 14.3982 12.5172 14.345 12.2021 14.345V14.845ZM12.8904 14.9726C13.0954 15.0534 13.2706 15.1692 13.4187 15.3201L13.7756 14.9699C13.577 14.7675 13.3422 14.6133 13.0738 14.5074L12.8904 14.9726ZM13.4203 15.3218C13.5685 15.47 13.6833 15.6457 13.7645 15.8517L14.2297 15.6683C14.1243 15.401 13.9724 15.1667 13.7739 14.9682L13.4203 15.3218ZM13.7645 15.8517C13.845 16.0557 13.8871 16.2858 13.8871 16.545H14.3871C14.3871 16.2309 14.3359 15.9376 14.2297 15.6683L13.7645 15.8517ZM13.8871 16.545C13.8871 16.8042 13.845 17.0364 13.7641 17.2444L14.2301 17.4256C14.3359 17.1536 14.3871 16.8592 14.3871 16.545H13.8871ZM13.7645 17.2433C13.6831 17.4497 13.5679 17.6278 13.4187 17.7799L13.7756 18.1301C13.973 17.9289 14.1244 17.6936 14.2297 17.4267L13.7645 17.2433ZM13.4203 17.7782C13.2715 17.927 13.0948 18.0439 12.8876 18.1286L13.0766 18.5914C13.3427 18.4828 13.576 18.3296 13.7739 18.1318L13.4203 17.7782ZM12.8893 18.1279C12.6893 18.2079 12.4614 18.25 12.2021 18.25V18.75C12.5161 18.75 12.8082 18.6988 13.075 18.5921L12.8893 18.1279ZM12.2021 18.25H11.2971V18.75H12.2021V18.25ZM11.5571 18.29H12.2021V17.79H11.5571V18.29ZM12.2021 18.29C12.5211 18.29 12.813 18.2174 13.0697 18.065L12.8145 17.635C12.6445 17.7359 12.4431 17.79 12.2021 17.79V18.29ZM13.0707 18.0644C13.3256 17.9115 13.5265 17.7024 13.671 17.4409L13.2333 17.1991C13.131 17.3843 12.992 17.5285 12.8135 17.6356L13.0707 18.0644ZM13.6717 17.4395C13.8174 17.1718 13.8871 16.8715 13.8871 16.545H13.3871C13.3871 16.7985 13.3335 17.0149 13.2325 17.2005L13.6717 17.4395ZM13.8871 16.545C13.8871 16.2158 13.8176 15.9147 13.671 15.6491L13.2333 15.8909C13.3333 16.072 13.3871 16.2875 13.3871 16.545H13.8871ZM13.671 15.6491C13.5262 15.3871 13.3245 15.179 13.0683 15.0292L12.8159 15.4608C12.993 15.5644 13.1313 15.7063 13.2333 15.8909L13.671 15.6491ZM13.0697 15.03C12.813 14.8776 12.5211 14.805 12.2021 14.805V15.305C12.4431 15.305 12.6445 15.3591 12.8145 15.46L13.0697 15.03ZM12.2021 14.805H11.5571V15.305H12.2021V14.805ZM11.3071 15.055V18.04H11.8071V15.055H11.3071ZM15.7131 14.67L15.8838 14.8529L15.8899 14.8468L15.7131 14.67ZM18.3431 14.665L18.1662 14.8419L18.173 14.8482L18.3431 14.665ZM18.3431 15.01L18.5132 15.1932V15.1932L18.3431 15.01ZM16.1581 15.075V14.825H15.9081V15.075H16.1581ZM16.1581 16.29H15.9081V16.54H16.1581V16.29ZM17.7781 16.36L17.6012 16.5369L17.608 16.5432L17.7781 16.36ZM17.7781 16.705L17.9484 16.8883L17.9549 16.8818L17.7781 16.705ZM16.1581 16.77V16.52H15.9081V16.77H16.1581ZM16.0831 18.425L15.9063 18.2482L16.0831 18.425ZM15.8981 18.25C15.8904 18.25 15.8889 18.2488 15.8908 18.2496C15.8915 18.2498 15.892 18.2502 15.8922 18.2503C15.8923 18.2504 15.8915 18.2499 15.8899 18.2482L15.5363 18.6018C15.6351 18.7006 15.7612 18.75 15.8981 18.75V18.25ZM15.8899 18.2482C15.8883 18.2466 15.8878 18.2458 15.8878 18.2459C15.888 18.2461 15.8883 18.2466 15.8886 18.2473C15.8893 18.2492 15.8881 18.2478 15.8881 18.24H15.3881C15.3881 18.3769 15.4376 18.503 15.5363 18.6018L15.8899 18.2482ZM15.8881 18.24V14.855H15.3881V18.24H15.8881ZM15.8881 14.855C15.8881 14.844 15.8899 14.842 15.8886 14.8452C15.888 14.8466 15.8871 14.8484 15.8859 14.8501C15.8853 14.8509 15.8848 14.8516 15.8844 14.8521C15.8842 14.8523 15.884 14.8525 15.8839 14.8526C15.8838 14.8527 15.8837 14.8528 15.8837 14.8528L15.5425 14.4872C15.4355 14.5872 15.3881 14.7183 15.3881 14.855H15.8881ZM15.8899 14.8468C15.8915 14.8451 15.8923 14.8446 15.8922 14.8447C15.892 14.8448 15.8915 14.8452 15.8908 14.8454C15.8889 14.8462 15.8904 14.845 15.8981 14.845V14.345C15.7612 14.345 15.6351 14.3944 15.5363 14.4932L15.8899 14.8468ZM15.8981 14.845H18.1581V14.345H15.8981V14.845ZM18.1581 14.845C18.1711 14.845 18.175 14.8469 18.1734 14.8463C18.1727 14.846 18.1713 14.8454 18.1696 14.8444C18.168 14.8433 18.1669 14.8423 18.1663 14.8418L18.5199 14.4882C18.4187 14.3871 18.2895 14.345 18.1581 14.345V14.845ZM18.173 14.8482C18.1717 14.847 18.1698 14.8449 18.1678 14.8421C18.1659 14.8392 18.1644 14.8364 18.1635 14.8341C18.1616 14.8292 18.1631 14.8299 18.1631 14.84H18.6631C18.6631 14.7087 18.6187 14.5798 18.5132 14.4818L18.173 14.8482ZM18.1631 14.84C18.1631 14.847 18.162 14.8457 18.1645 14.8398C18.1656 14.8371 18.1671 14.8342 18.1689 14.8316C18.1707 14.8291 18.1723 14.8275 18.173 14.8268L18.5132 15.1932C18.6162 15.0976 18.6631 14.9718 18.6631 14.84H18.1631ZM18.173 14.8268C18.174 14.8259 18.1752 14.8249 18.1767 14.8241C18.1781 14.8232 18.179 14.8229 18.179 14.8229C18.179 14.8229 18.173 14.825 18.1581 14.825V15.325C18.2843 15.325 18.4112 15.2879 18.5132 15.1932L18.173 14.8268ZM18.1581 14.825H16.1581V15.325H18.1581V14.825ZM15.9081 15.075V16.29H16.4081V15.075H15.9081ZM16.1581 16.54H17.5931V16.04H16.1581V16.54ZM17.5931 16.54C17.6061 16.54 17.61 16.5419 17.6084 16.5413C17.6077 16.541 17.6063 16.5404 17.6046 16.5394C17.603 16.5383 17.6019 16.5373 17.6013 16.5368L17.9549 16.1832C17.8537 16.0821 17.7245 16.04 17.5931 16.04V16.54ZM17.608 16.5432C17.6073 16.5425 17.6057 16.5409 17.6039 16.5384C17.6021 16.5358 17.6006 16.5329 17.5995 16.5302C17.597 16.5243 17.5981 16.523 17.5981 16.53H18.0981C18.0981 16.3982 18.0512 16.2724 17.9482 16.1768L17.608 16.5432ZM17.5981 16.53C17.5981 16.5368 17.5971 16.537 17.5985 16.5334C17.5991 16.5318 17.5999 16.5304 17.6007 16.5291C17.6015 16.528 17.6019 16.5277 17.6013 16.5282L17.9549 16.8818C18.0515 16.7852 18.0981 16.6618 18.0981 16.53H17.5981ZM17.608 16.5218C17.609 16.5209 17.6102 16.5199 17.6117 16.5191C17.6131 16.5182 17.614 16.5179 17.614 16.5179C17.614 16.5179 17.608 16.52 17.5931 16.52V17.02C17.7193 17.02 17.8462 16.9829 17.9482 16.8882L17.608 16.5218ZM17.5931 16.52H16.1581V17.02H17.5931V16.52ZM15.9081 16.77V18.24H16.4081V16.77H15.9081ZM15.9081 18.24C15.9081 18.2478 15.9069 18.2492 15.9077 18.2473C15.908 18.2466 15.9083 18.2461 15.9084 18.2459C15.9085 18.2458 15.908 18.2466 15.9063 18.2482L16.2599 18.6018C16.3587 18.503 16.4081 18.3769 16.4081 18.24H15.9081ZM15.9063 18.2482C15.9047 18.2499 15.9039 18.2504 15.904 18.2503C15.9042 18.2502 15.9047 18.2498 15.9054 18.2496C15.9074 18.2488 15.9059 18.25 15.8981 18.25V18.75C16.035 18.75 16.1611 18.7006 16.2599 18.6018L15.9063 18.2482Z" fill="#0079D0"/>
</svg>
