<svg width="87" height="96" viewBox="0 0 87 96" fill="none" xmlns="http://www.w3.org/2000/svg">
<path d="M81.8333 95.8333H5.16667C3.89584 95.8333 2.67706 95.3285 1.77845 94.4299C0.879835 93.5313 0.375 92.3125 0.375 91.0417V4.79167C0.375 3.52084 0.879835 2.30206 1.77845 1.40345C2.67706 0.504835 3.89584 0 5.16667 0H81.8333C83.1042 0 84.3229 0.504835 85.2216 1.40345C86.1202 2.30206 86.625 3.52084 86.625 4.79167V91.0417C86.625 92.3125 86.1202 93.5313 85.2216 94.4299C84.3229 95.3285 83.1042 95.8333 81.8333 95.8333ZM77.0417 86.25V9.58333H9.95833V86.25H77.0417ZM19.5417 19.1667H38.7083V38.3333H19.5417V19.1667ZM19.5417 47.9167H67.4583V57.5H19.5417V47.9167ZM19.5417 67.0833H67.4583V76.6667H19.5417V67.0833ZM48.2917 23.9583H67.4583V33.5417H48.2917V23.9583Z" fill="#EBEDF0"/>
</svg>
