<svg width="16" height="16" viewBox="0 0 16 16" fill="none" xmlns="http://www.w3.org/2000/svg">
    <path d="M8.45618 2.68454C8.30578 2.67187 8.15365 2.66536 7.99992 2.66536C5.0544 2.66536 2.66659 5.05318 2.66659 7.9987C2.66659 10.9442 5.0544 13.332 7.99992 13.332C10.9455 13.332 13.3333 10.9442 13.3333 7.9987C13.3333 7.84503 13.3267 7.69283 13.314 7.54243C13.2663 6.9773 13.1301 6.43036 12.9119 5.91652L13.9121 4.91499C14.1353 5.34218 14.3137 5.79656 14.4408 6.27189C14.5475 6.67176 14.6171 7.08236 14.6481 7.49956C14.6604 7.66436 14.6666 7.83083 14.6666 7.9987C14.6666 11.6806 11.6818 14.6654 7.99992 14.6654C4.31802 14.6654 1.33325 11.6806 1.33325 7.9987C1.33325 4.3168 4.31802 1.33203 7.99992 1.33203C8.16778 1.33203 8.33425 1.33824 8.49905 1.35044C8.91625 1.38144 9.32685 1.45118 9.72645 1.5581C10.2021 1.68496 10.6565 1.86329 11.0837 2.08656L10.0831 3.08712C9.56825 2.86852 9.02132 2.73228 8.45618 2.68454ZM13.6568 1.39904L14.5996 2.34184L8.47132 8.4701L7.53018 8.47176L7.52852 7.5273L13.6568 1.39904Z" fill="#3A3A3A"/>
</svg>
