<svg width="16" height="16" viewBox="0 0 16 16" fill="none" xmlns="http://www.w3.org/2000/svg">
    <path fill-rule="evenodd" clip-rule="evenodd" d="M13.3333 1.33325C13.7013 1.33325 14 1.63192 14 1.99992V4.50459L12.6667 5.83792V2.66659H3.33333V13.3333H12.6667V11.4946L14 10.1613V13.9999C14 14.3679 13.7013 14.6666 13.3333 14.6666H2.66667C2.29867 14.6666 2 14.3679 2 13.9999V1.99992C2 1.63192 2.29867 1.33325 2.66667 1.33325H13.3333ZM14.5187 5.87192L15.4613 6.81459L10.276 11.9999L9.332 11.9986L9.33333 11.0573L14.5187 5.87192ZM8.66667 7.99992V9.33325H5.33333V7.99992H8.66667ZM10.6667 5.33325V6.66659H5.33333V5.33325H10.6667Z" fill="#0079D0"/>
</svg>
