<svg width="16" height="16" viewBox="0 0 16 16" fill="none" xmlns="http://www.w3.org/2000/svg">
<path d="M4.66653 4.0001V2.0001C4.66653 1.63192 4.96501 1.33344 5.3332 1.33344H13.3332C13.7014 1.33344 13.9999 1.63192 13.9999 2.0001V11.3334C13.9999 11.7016 13.7014 12.0001 13.3332 12.0001H11.3332V13.9995C11.3332 14.368 11.0333 14.6668 10.662 14.6668H2.67111C2.30039 14.6668 2 14.3704 2 13.9995L2.00173 4.66735C2.0018 4.29884 2.30176 4.0001 2.67295 4.0001H4.66653ZM3.33495 5.33344L3.33346 13.3334H9.99987V5.33344H3.33495ZM5.99987 4.0001H11.3332V10.6668H12.6665V2.66677H5.99987V4.0001Z" fill="#0079D0"/>
</svg>
