<svg width="64" height="64" viewBox="0 0 64 64" fill="none" xmlns="http://www.w3.org/2000/svg">
    <path fill-rule="evenodd" clip-rule="evenodd" d="M40.1693 33.4609L42.7573 27.2212C43.0374 26.5413 43.8178 26.2213 44.4982 26.5013C44.825 26.6346 45.0852 26.8946 45.2186 27.2212L47.8332 33.4609C47.98 33.8209 47.9666 34.2276 47.7932 34.5742L46.7794 36.6008C46.746 36.6674 46.706 36.7274 46.666 36.7874V39.2273L47.9666 43.1271C47.9867 43.1938 48 43.2671 48 43.3404V43.4138L47.0528 51.4134C47.0195 51.72 46.7727 51.96 46.4659 52H46.3858H41.6034C41.2899 52 41.0231 51.7867 40.9564 51.4867L40.943 51.4134L40.6362 48.7868C40.5962 48.4202 40.8563 48.0869 41.2232 48.0469C41.5633 48.0069 41.8702 48.2269 41.9502 48.5535L41.9635 48.6335L42.2037 50.6667H45.7989L46.6526 43.4004L45.5187 40.0006H42.4771L41.2965 43.5471C41.1898 43.8737 40.8563 44.0604 40.5295 43.9871L40.4561 43.9671C40.1293 43.8604 39.9425 43.5271 40.0159 43.2004L40.0359 43.1271L41.3366 39.2273V36.7874C41.2965 36.7274 41.2565 36.6674 41.2232 36.6008L40.2093 34.5742C40.0359 34.2276 40.0225 33.8276 40.1693 33.4676V33.4609ZM42.6706 37.3341V38.6673H45.3386V37.3341H42.6706ZM43.3376 29.3145L41.4033 33.9742L42.4171 36.0008H45.5921L46.6059 33.9742L44.6716 29.3545V32.6676C44.6716 33.0343 44.3715 33.3343 44.0046 33.3343C43.6644 33.3343 43.3776 33.0743 43.3443 32.7476V32.6676V29.3145H43.3376Z" fill="#0079D0"/>
    <path d="M35.6001 40C36.8601 40 37.6001 40.777 37.6001 42.1C37.6001 42.156 37.6001 42.212 37.5801 42.268C37.2401 43.682 35.7468 44.606 33.0734 45.11L32.6401 45.187C32.4934 45.208 32.3401 45.236 32.1868 45.257L31.7134 45.32C31.6334 45.327 31.5534 45.341 31.4734 45.348L30.9734 45.404L30.4534 45.453L29.9134 45.495L29.3534 45.53C29.2601 45.53 29.1601 45.537 29.0668 45.544L28.4801 45.565L27.8734 45.586L27.2468 45.6H26.2668C25.9001 45.6 25.6001 45.292 25.6001 44.907C25.6001 44.522 25.9001 44.207 26.2668 44.207H26.9001C27.0068 44.207 27.1068 44.207 27.2068 44.207L27.8068 44.193L28.3868 44.172L28.9468 44.151L29.4868 44.123L30.0068 44.088L30.5068 44.046L30.9868 43.997C31.0668 43.99 31.1401 43.983 31.2201 43.969L31.6668 43.913C31.8868 43.885 32.1001 43.857 32.3001 43.822L32.7001 43.752L33.0734 43.682L33.4268 43.605C35.0401 43.234 35.9734 42.709 36.2268 42.072L36.2468 42.009V41.925C36.2134 41.547 36.0601 41.421 35.6734 41.407H35.5868C34.8934 41.407 34.1668 41.785 33.3934 42.597C32.9934 43.017 32.3201 42.751 32.2601 42.184V42.107C32.2601 41.561 32.1068 41.407 31.5868 41.407C30.8934 41.407 30.1668 41.792 29.3934 42.604C29.1334 42.877 28.7134 42.877 28.4534 42.604C28.1934 42.331 28.1934 41.89 28.4534 41.617C29.4601 40.56 30.5068 40.014 31.5934 40.014C32.3534 40.014 32.9334 40.301 33.2601 40.826L33.2868 40.868L33.4201 40.77C34.0734 40.308 34.7401 40.056 35.4201 40.014H35.5934L35.6001 40Z" fill="#0079D0"/>
    <path d="M41.5934 12.5909C41.5538 12.2551 41.2766 12 40.9399 12H15.7808C15.4508 12.0403 15.2 12.329 15.2 12.6714V49.0091C15.2396 49.3449 15.5234 49.6 15.86 49.6H37.0591C37.3891 49.5597 37.6399 49.271 37.6399 48.9286V48.848C37.6003 48.5123 37.3165 48.2571 36.9799 48.2571H16.52V13.3429H40.2799V26.1806C40.3195 26.5163 40.6033 26.7714 40.9399 26.7714C41.3029 26.7714 41.5999 26.4693 41.5999 26.1V12.5909H41.5934Z" fill="#282828"/>
    <path d="M31.2 16.8C31.2 16.36 30.9 16 30.5333 16H19.7866C19.4533 16.048 19.2 16.392 19.2 16.8C19.2 17.24 19.5 17.6 19.8666 17.6H30.6133C30.9466 17.552 31.2 17.208 31.2 16.8Z" fill="#282828"/>
    <path d="M36.9428 20C37.3042 20 37.5999 20.3618 37.5999 20.804C37.5999 21.2141 37.3437 21.5598 37.0217 21.6H36.9428H19.8571C19.4957 21.6 19.2 21.2382 19.2 20.796C19.2 20.3859 19.4562 20.0402 19.7782 20H19.8571H36.9428Z" fill="#282828"/>
    <path d="M33.5999 24.8C33.5999 24.36 33.3054 24 32.9454 24H19.776C19.4487 24.048 19.2 24.392 19.2 24.8C19.2 25.24 19.4945 25.6 19.8545 25.6H33.0239C33.3512 25.552 33.5999 25.208 33.5999 24.8Z" fill="#282828"/>
    <path d="M36.9428 28C37.3042 28 37.5999 28.3618 37.5999 28.804C37.5999 29.2141 37.3437 29.5598 37.0217 29.6H36.9428H19.8571C19.4957 29.6 19.2 29.2382 19.2 28.796C19.2 28.3859 19.4562 28.0402 19.7782 28H19.8571H36.9428Z" fill="#282828"/>
    <path d="M43.9919 18.1632C43.9439 17.8432 43.6079 17.6 43.1999 17.6C42.7599 17.6 42.3999 17.888 42.3999 18.24V23.4368C42.4479 23.7568 42.7919 24 43.1999 24C43.6399 24 43.9999 23.712 43.9999 23.36V18.1632H43.9919Z" fill="#282828"/>
    <path d="M37.7429 50.4C38.1043 50.4 38.4 50.7618 38.4 51.204C38.4 51.6141 38.1437 51.9598 37.8217 52H37.7429H20.6571C20.2957 52 20 51.6382 20 51.196C20 50.7859 20.2563 50.4402 20.5783 50.4H20.6571H37.7429Z" fill="#282828"/>
    <path d="M33.5999 32.8C33.5999 32.36 33.3054 32 32.9454 32H19.776C19.4487 32.048 19.2 32.392 19.2 32.8C19.2 33.24 19.4945 33.6 19.8545 33.6H33.0239C33.3512 33.552 33.5999 33.208 33.5999 32.8Z" fill="#282828"/>
</svg>
