<svg width="64" height="64" viewBox="0 0 64 64" fill="none" xmlns="http://www.w3.org/2000/svg">
    <path fill-rule="evenodd" clip-rule="evenodd" d="M58.4001 14.4C57.959 14.4 57.6001 14.0411 57.6001 13.6C57.6001 13.1588 57.959 12.8 58.4001 12.8C58.8412 12.8 59.2001 13.1588 59.2001 13.6C59.2001 14.0411 58.8412 14.4 58.4001 14.4Z" fill="#ECECFE"/>
    <path fill-rule="evenodd" clip-rule="evenodd" d="M5.60005 14.4C5.15893 14.4 4.80005 14.0411 4.80005 13.6C4.80005 13.1588 5.15893 12.8 5.60005 12.8C6.04117 12.8 6.40005 13.1588 6.40005 13.6C6.40005 14.0411 6.04117 14.4 5.60005 14.4Z" fill="#ECECFE"/>
    <path fill-rule="evenodd" clip-rule="evenodd" d="M8.8 54.4C8.35888 54.4 8 54.0411 8 53.6C8 53.1588 8.35888 52.8 8.8 52.8C9.24112 52.8 9.6 53.1588 9.6 53.6C9.6 54.0411 9.24112 54.4 8.8 54.4Z" fill="#ECECFE"/>
    <path fill-rule="evenodd" clip-rule="evenodd" d="M52 57.6C51.5588 57.6 51.2 57.2411 51.2 56.8C51.2 56.3588 51.5588 56 52 56C52.4411 56 52.7999 56.3588 52.7999 56.8C52.7999 57.2411 52.4411 57.6 52 57.6Z" fill="#ECECFE"/>
    <path fill-rule="evenodd" clip-rule="evenodd" d="M15.2001 4.8C14.759 4.8 14.4001 4.44112 14.4001 4C14.4001 3.55884 14.759 3.2 15.2001 3.2C15.6413 3.2 16.0001 3.55884 16.0001 4C16.0001 4.44112 15.6413 4.8 15.2001 4.8Z" fill="#ECECFE"/>
    <path fill-rule="evenodd" clip-rule="evenodd" d="M44 62.4C43.5588 62.4 43.2 62.0411 43.2 61.6C43.2 61.1588 43.5588 60.8 44 60.8C44.4411 60.8 44.7999 61.1588 44.7999 61.6C44.7999 62.0411 44.4411 62.4 44 62.4Z" fill="#ECECFE"/>
    <path fill-rule="evenodd" clip-rule="evenodd" d="M12.8 24C12.8 22.2347 14.2348 20.8 16 20.8C17.7653 20.8 19.2 22.2347 19.2 24C19.2 25.7652 17.7652 27.2 16 27.2C14.2349 27.2 12.8 25.7652 12.8 24ZM17.6 24C17.6 23.1184 16.8816 22.4 16 22.4C15.1185 22.4 14.4 23.1184 14.4 24C14.4 24.8815 15.1185 25.6 16 25.6C16.8816 25.6 17.6 24.8815 17.6 24Z" fill="#0079D0"/>
    <path fill-rule="evenodd" clip-rule="evenodd" d="M20.8 20.8C20.8 19.0347 22.2348 17.6 24 17.6C25.7653 17.6 27.2 19.0347 27.2 20.8C27.2 22.5652 25.7652 24 24 24C22.2349 24 20.8 22.5652 20.8 20.8ZM25.6 20.8C25.6 19.9184 24.8816 19.2 24 19.2C23.1185 19.2 22.4 19.9184 22.4 20.8C22.4 21.6815 23.1185 22.4 24 22.4C24.8816 22.4 25.6 21.6815 25.6 20.8Z" fill="#0079D0"/>
    <path d="M21.2423 20.8845C21.6375 20.6869 22.118 20.8471 22.3156 21.2422C22.4991 21.6092 22.3741 22.0497 22.0389 22.269L21.9578 22.3155L18.7578 23.9155C18.3626 24.1131 17.8821 23.953 17.6845 23.5578C17.501 23.1908 17.626 22.7503 17.9612 22.531L18.0423 22.4845L21.2423 20.8845Z" fill="#0079D0"/>
    <path d="M25.8344 21.8343C26.1228 21.5459 26.5765 21.5237 26.8904 21.7678L26.9657 21.8343L30.1657 25.0343C30.4782 25.3467 30.4782 25.8533 30.1657 26.1657C29.8773 26.4541 29.4236 26.4763 29.1097 26.2322L29.0344 26.1657L25.8344 22.9657C25.5219 22.6533 25.5219 22.1467 25.8344 21.8343Z" fill="#0079D0"/>
    <path fill-rule="evenodd" clip-rule="evenodd" d="M40 27.2C40 22.7879 43.588 19.2 48 19.2C52.4121 19.2 56 22.7879 56 27.2C56 31.6119 52.412 35.2 48 35.2C43.5881 35.2 40 31.6119 40 27.2ZM54.4001 27.2C54.4001 23.6715 51.5284 20.8 48 20.8C44.4717 20.8 41.6 23.6715 41.6 27.2C41.6 30.7283 44.4718 33.6 48 33.6C51.5283 33.6 54.4001 30.7283 54.4001 27.2Z" fill="#0079D0"/>
    <path d="M48.0294 22.9854C48.1479 22.5598 48.589 22.3108 49.0146 22.4293C50.8863 22.9505 52.3211 24.4184 52.701 26.2386C52.7913 26.6711 52.5138 27.0949 52.0813 27.1852C51.6488 27.2754 51.225 26.998 51.1348 26.5655C50.8799 25.3443 49.8932 24.3348 48.5854 23.9707C48.1598 23.8522 47.9108 23.411 48.0294 22.9854Z" fill="#0079D0"/>
    <path d="M52.7713 32.1072C53.1266 31.9021 53.5739 32.0004 53.8128 32.3219L53.8642 32.4L58.6642 40.7139C59.3269 41.8618 58.9336 43.3296 57.7857 43.9923C56.6788 44.6314 55.2744 44.2885 54.5813 43.2339L54.5072 43.1138L49.7072 34.8C49.4863 34.4174 49.6174 33.9281 50 33.7072C50.3554 33.5021 50.8026 33.6004 51.0416 33.9219L51.0929 34L55.8929 42.3138C56.1138 42.6965 56.6031 42.8276 56.9857 42.6067C57.341 42.4015 57.4794 41.965 57.3205 41.5973L57.2785 41.5138L52.4785 33.2C52.2576 32.8174 52.3887 32.3281 52.7713 32.1072Z" fill="#0079D0"/>
    <path d="M35.6423 24.0845C36.0375 23.8869 36.518 24.0471 36.7156 24.4422C36.8991 24.8092 36.7741 25.2497 36.4389 25.469L36.3578 25.5155L34.7578 26.3155C34.3626 26.5131 33.8821 26.353 33.6845 25.9578C33.501 25.5908 33.626 25.1503 33.9612 24.931L34.0423 24.8845L35.6423 24.0845Z" fill="#0079D0"/>
    <path fill-rule="evenodd" clip-rule="evenodd" d="M28.8 25.6C28.8 23.8347 30.2348 22.4 32 22.4C33.7653 22.4 35.2 23.8347 35.2 25.6C35.2 27.3652 33.7652 28.8 32 28.8C30.2349 28.8 28.8 27.3652 28.8 25.6ZM33.6 25.6C33.6 24.7184 32.8816 24 32 24C31.1185 24 30.4 24.7184 30.4 25.6C30.4 26.4815 31.1185 27.2 32 27.2C32.8816 27.2 33.6 26.4815 33.6 25.6Z" fill="#0079D0"/>
    <path d="M47.2 12.8C47.6103 12.8 47.9484 13.1088 47.9946 13.5067L48 13.6V15.2C48 15.6418 47.6418 16 47.2 16C46.7897 16 46.4516 15.6912 46.4054 15.2933L46.4 15.2V14.4H9.6V43.2H46.4V39.2C46.4 38.7897 46.7088 38.4516 47.1067 38.4054L47.2 38.4C47.6103 38.4 47.9484 38.7088 47.9946 39.1067L48 39.2V44C48 44.4103 47.6912 44.7484 47.2933 44.7946L47.2 44.8H8.8C8.38973 44.8 8.05159 44.4912 8.00538 44.0933L8 44V13.6C8 13.1897 8.30883 12.8516 8.7067 12.8054L8.8 12.8H47.2Z" fill="#21213F"/>
    <path d="M31.2 14.4C31.6103 14.4 31.9484 14.0912 31.9946 13.6933L32 13.6V12C32 10.7219 31.0009 9.67708 29.741 9.60408L29.6 9.60001H26.4C25.1219 9.60001 24.0771 10.5991 24.0041 11.859L24 12V13.6C24 14.0418 24.3582 14.4 24.8 14.4C25.2103 14.4 25.5484 14.0912 25.5946 13.6933L25.6 13.6V12C25.6 11.5897 25.9088 11.2516 26.3067 11.2054L26.4 11.2H29.6C30.0103 11.2 30.3484 11.5088 30.3946 11.9067L30.4 12V13.6C30.4 14.0418 30.7582 14.4 31.2 14.4Z" fill="#21213F"/>
    <path d="M40.8 43.2C41.2103 43.2 41.5484 43.5088 41.5946 43.9067L41.6 44V45.6C41.6 46.8782 40.6009 47.9229 39.341 47.9959L39.2 48H16.8C15.5219 48 14.4771 47.0009 14.4041 45.741L14.4 45.6V44C14.4 43.5582 14.7582 43.2 15.2 43.2C15.6103 43.2 15.9484 43.5088 15.9946 43.9067L16 44V45.6C16 46.0103 16.3088 46.3484 16.7067 46.3946L16.8 46.4H39.2C39.6103 46.4 39.9484 46.0912 39.9946 45.6933L40 45.6V44C40 43.5582 40.3582 43.2 40.8 43.2Z" fill="#21213F"/>
    <path d="M30.24 46.72C29.9749 46.3665 29.4735 46.2949 29.12 46.56C28.7937 46.8047 28.7076 47.2508 28.9048 47.596L28.96 47.68L33.76 54.08C34.0251 54.4335 34.5265 54.5051 34.88 54.24C35.2063 53.9953 35.2924 53.5492 35.0952 53.204L35.04 53.12L30.24 46.72Z" fill="#21213F"/>
    <path d="M18.4 30.4C18.8103 30.4 19.1484 30.7088 19.1946 31.1067L19.2 31.2V32.8C19.2 33.2418 18.8418 33.6 18.4 33.6C17.9897 33.6 17.6516 33.2912 17.6054 32.8933L17.6 32.8V32H14.4V38.4H17.6V36C17.6 35.5897 17.9088 35.2516 18.3067 35.2054L18.4 35.2C18.8103 35.2 19.1484 35.5088 19.1946 35.9067L19.2 36V39.2C19.2 39.6103 18.8912 39.9484 18.4933 39.9946L18.4 40H13.6C13.1897 40 12.8516 39.6912 12.8054 39.2933L12.8 39.2V31.2C12.8 30.7897 13.1088 30.4516 13.5067 30.4054L13.6 30.4H18.4Z" fill="#21213F"/>
    <path d="M23.2 27.2C23.6418 27.2 24 27.5582 24 28C24 28.4103 23.6912 28.7484 23.2933 28.7946L23.2 28.8H22.4V38.4H25.6V29.6C25.6 29.1897 25.9088 28.8516 26.3067 28.8054L26.4 28.8C26.8103 28.8 27.1484 29.1088 27.1946 29.5067L27.2 29.6V39.2C27.2 39.6103 26.8912 39.9484 26.4933 39.9946L26.4 40H21.6C21.1897 40 20.8516 39.6912 20.8054 39.2933L20.8 39.2V28C20.8 27.5897 21.1088 27.2516 21.5067 27.2054L21.6 27.2H23.2Z" fill="#21213F"/>
    <path d="M31.2 33.6C31.6418 33.6 32 33.9582 32 34.4C32 34.8103 31.6912 35.1484 31.2933 35.1946L31.2 35.2H30.4V38.4H33.6V34.4C33.6 33.9897 33.9088 33.6516 34.3067 33.6054L34.4 33.6C34.8103 33.6 35.1484 33.9088 35.1946 34.3067L35.2 34.4V39.2C35.2 39.6103 34.8912 39.9484 34.4933 39.9946L34.4 40H29.6C29.1897 40 28.8516 39.6912 28.8054 39.2933L28.8 39.2V34.4C28.8 33.9897 29.1088 33.6516 29.5067 33.6054L29.6 33.6H31.2Z" fill="#21213F"/>
    <path d="M37.6 32C38.0103 32 38.3484 32.3088 38.3946 32.7067L38.4 32.8V38.4H41.6V37.6C41.6 37.1897 41.9088 36.8516 42.3067 36.8054L42.4 36.8C42.8103 36.8 43.1484 37.1088 43.1946 37.5067L43.2 37.6V39.2C43.2 39.6103 42.8912 39.9484 42.4933 39.9946L42.4 40H37.6C37.1897 40 36.8516 39.6912 36.8054 39.2933L36.8 39.2V32.8C36.8 32.3582 37.1582 32 37.6 32Z" fill="#21213F"/>
    <path d="M25.76 46.72C26.0251 46.3665 26.5265 46.2949 26.88 46.56C27.2063 46.8047 27.2924 47.2508 27.0952 47.596L27.04 47.68L22.24 54.08C21.9749 54.4335 21.4735 54.5051 21.12 54.24C20.7937 53.9953 20.7076 53.5492 20.9048 53.204L20.96 53.12L25.76 46.72Z" fill="#21213F"/>
</svg>
