<svg width="330" height="300" viewBox="0 0 330 300" fill="none" xmlns="http://www.w3.org/2000/svg">
    <path d="M212.095 41.9551C211.989 99.001 213.282 165.521 211.989 215.896C210.695 215.896 120.779 241.729 90.4865 248.617C90.1631 204.81 90.4865 74.8923 90.4865 74.8923C90.4865 74.8923 199.698 44.6449 212.095 41.9551Z" fill="white"/>
    <path d="M211.879 60.9006C202.606 65.6378 107.625 88.4548 90.8067 93.7279C89.7297 86.1944 91.5602 80.059 90.4832 74.7825C98.3524 72.0927 200.882 45.3973 212.202 41.8452C212.525 46.9054 212.202 57.2386 211.879 60.8972V60.9006Z" fill="#0079D0"/>
    <path d="M99.6494 84.6863C94.2576 83.8241 98.249 75.2153 102.13 79.7361C103.207 81.4572 101.913 84.7963 99.6494 84.6863Z" fill="#EAF5FF"/>
    <path d="M109.783 82.2129C106.008 80.5983 108.489 74.6794 112.37 76.4004C116.252 77.6921 113.017 83.2881 109.783 82.2129Z" fill="#EAF5FF"/>
    <path d="M121.857 78.8739C117.545 78.6575 119.593 71.9862 123.257 73.0614C126.921 74.0302 125.414 79.3033 121.857 78.8739Z" fill="#EAF5FF"/>
    <path d="M129.942 128.28C114.201 88.8842 170.372 74.463 180.182 111.059C179.752 152.392 137.381 147.009 129.942 128.28Z" fill="#ADDDFF"/>
    <path d="M136.952 136.569C148.272 145.611 168.432 143.244 175.547 130.327C168.002 113.965 140.293 119.671 136.952 136.569Z" fill="#0079D0"/>
    <path d="M162.717 109.767C160.452 96.7441 140.293 101.801 145.898 115.15C149.886 124.408 164.764 119.565 162.717 109.767Z" fill="#0079D0"/>
    <path d="M150.212 143.027C129.943 140.55 119.486 117.624 130.913 100.726C141.693 85.0092 164.874 84.9027 175.761 100.509C181.906 109.121 182.229 121.392 176.514 130.324C171.232 139.259 160.449 144.425 150.209 143.024L150.212 143.027ZM150.536 141.626C162.503 143.134 174.253 135.597 177.921 124.082C182.343 110.626 174.904 95.9883 161.426 91.5774C150.429 87.9189 138.032 92.3297 131.777 102.017V101.911C121.427 118.056 131.453 139.475 150.536 141.629V141.626Z" fill="#020304"/>
    <path d="M152.8 121.176C145.037 120.207 141.373 111.165 146.114 105.03C151.613 98.1422 162.61 101.048 164.01 109.767C164.98 116.225 159.265 122.038 152.796 121.176H152.8ZM153.447 119.777C159.485 120.207 164.12 114.181 162.179 108.475C159.809 101.478 150.429 100.403 146.548 106.754C143.313 112.244 146.978 119.348 153.447 119.777Z" fill="#020304"/>
    <path d="M137.168 136.03C136.951 135.923 136.738 135.813 136.414 135.813C136.308 135.813 136.198 135.813 136.091 135.92L135.984 135.813C135.984 135.597 136.091 135.384 136.201 135.167C136.418 134.305 136.848 133.446 137.171 132.584C138.035 130.753 139.112 129.139 140.299 127.634C140.516 127.417 140.729 127.204 140.946 126.988C141.269 126.559 141.593 126.236 142.023 125.913C142.24 125.696 142.453 125.483 142.67 125.373C142.777 125.267 142.887 125.157 142.993 125.051H143.1C143.207 124.944 143.317 124.834 143.423 124.834C143.854 124.511 144.287 124.188 144.717 123.865C145.581 123.22 146.551 122.68 147.521 122.144C147.628 122.144 147.738 122.038 147.845 121.928H147.952C148.058 121.928 148.168 121.821 148.275 121.711C148.492 121.605 148.705 121.495 148.922 121.389C150.756 120.636 152.696 120.097 154.744 119.774C156.791 119.451 158.948 119.558 160.996 119.774C163.043 120.097 164.984 120.636 166.818 121.495C168.758 122.357 170.482 123.433 172.099 124.724C173.61 126.016 175.01 127.524 176.197 129.139C176.304 129.245 176.414 129.355 176.414 129.568C176.521 129.784 176.631 129.891 176.521 130.107C176.411 130.324 176.414 130.43 176.197 130.537C175.874 130.753 175.444 130.753 175.227 130.43C174.797 129.784 174.257 129.139 173.716 128.493C173.069 127.847 172.423 127.095 171.776 126.555C171.129 126.016 170.375 125.37 169.618 124.834C168.861 124.298 168.001 123.865 167.354 123.436C166.491 123.007 165.63 122.574 164.767 122.361C163.903 122.144 162.933 121.821 162.073 121.608C161.209 121.392 160.239 121.286 159.378 121.179H159.272C158.302 121.073 157.331 121.073 156.468 121.179C155.497 121.286 154.527 121.395 153.663 121.502C152.8 121.718 151.939 121.931 151.076 122.148C150.212 122.471 149.352 122.794 148.595 123.117C147.841 123.546 147.084 123.979 146.331 124.408C145.684 124.838 145.144 125.27 144.497 125.7C144.39 125.806 144.28 125.916 144.067 126.023H143.96C143.313 126.669 142.666 127.208 142.02 127.96C141.479 128.606 140.943 129.358 140.402 130.004C139.862 130.866 139.325 131.619 138.892 132.481C138.352 133.45 138.028 134.419 137.598 135.494C137.491 135.71 137.491 135.817 137.381 136.033C137.237 136.104 137.165 136.104 137.165 136.033L137.168 136.03Z" fill="#020304"/>
    <path d="M191.612 156.913C183.85 160.142 135.444 172.09 115.391 177.256C115.284 172.842 114.097 166.707 115.608 162.619C125.958 159.283 176.844 146.044 191.505 142.491C191.612 149.056 191.399 155.515 191.612 156.916V156.913Z" fill="#ADDDFF"/>
    <path d="M191.502 164.446C191.285 166.384 191.719 179.084 191.719 179.084L115.604 200.29L115.388 184.79C115.388 184.79 169.292 170.259 191.502 164.446Z" fill="#ADDDFF"/>
    <path d="M191.719 203.196L115.064 223.862V208.579L191.719 188.452V203.199V203.196Z" fill="#0079D0"/>
    <path d="M114.204 163.477V162.186C114.204 162.186 114.311 162.079 114.311 161.969C114.311 161.969 114.311 161.863 114.417 161.863C116.251 161.433 118.082 160.894 119.916 160.355C126.168 158.634 132.53 157.019 138.782 155.295C156.354 150.557 173.82 145.93 191.392 141.193C192.256 140.976 192.686 142.268 191.822 142.591C189.128 143.343 186.43 143.989 183.736 144.745C177.698 146.36 171.662 147.974 165.624 149.589C154.197 152.601 142.766 155.724 131.339 158.737C125.624 160.458 119.912 161.966 114.197 163.474L114.204 163.477Z" fill="#020304"/>
    <path d="M114.204 178.009C113.987 176.933 115.498 177.04 116.145 176.717C117.008 176.501 117.979 176.288 118.839 175.965C129.836 173.058 140.939 170.046 151.936 167.139C164.333 163.804 176.734 160.465 189.238 157.129C190.208 156.913 191.285 156.59 192.256 156.267V156.913V157.236V157.452V157.558C192.256 157.558 192.256 157.665 192.149 157.665V157.771C191.932 157.878 191.609 157.878 191.395 157.988C179.428 161.217 167.461 164.446 155.494 167.569C142.773 171.014 130.049 174.35 117.328 177.796C116.682 178.012 115.928 178.119 115.281 178.335H115.064C114.634 178.551 114.311 178.335 114.201 178.012L114.204 178.009Z" fill="#020304"/>
    <path d="M190.855 157.019V141.949C190.962 141.409 191.502 141.196 191.932 141.519C192.363 141.736 192.256 142.271 192.256 142.594V156.373V157.019V157.342C192.149 157.665 191.826 157.771 191.609 157.771C191.286 157.771 190.855 157.448 190.855 157.019Z" fill="#020304"/>
    <path d="M114.204 177.902C114.097 177.04 114.204 176.287 114.204 175.425V163.477V162.832C114.204 162.615 114.311 162.509 114.421 162.402C114.851 161.973 115.608 162.402 115.608 162.941V177.902C115.501 178.225 115.178 178.331 114.961 178.331C114.638 178.331 114.314 178.225 114.208 177.902H114.204Z" fill="#020304"/>
    <path d="M114.204 185.865V184.573C114.204 184.573 114.311 184.467 114.311 184.357C114.311 184.357 114.311 184.25 114.417 184.25C116.251 183.821 118.082 183.282 119.916 182.742C126.168 181.021 132.53 179.407 138.782 177.682C156.354 172.945 173.82 168.318 191.392 163.58C192.256 163.364 192.686 164.656 191.822 164.979C189.128 165.731 186.43 166.377 183.736 167.133C177.698 168.747 171.662 170.362 165.624 171.976C154.197 174.989 142.766 178.112 131.339 181.124C125.624 182.845 119.912 184.353 114.197 185.862L114.204 185.865Z" fill="#020304"/>
    <path d="M114.204 200.396C113.987 199.321 115.498 199.427 116.145 199.105C117.008 198.888 117.979 198.675 118.839 198.352C129.836 195.446 140.939 192.433 151.936 189.527C164.333 186.191 176.734 182.852 189.238 179.517C190.208 179.3 191.285 178.977 192.256 178.654V179.3V179.623V179.84V179.946C192.256 179.946 192.256 180.053 192.149 180.053V180.159C191.932 180.266 191.609 180.266 191.395 180.375C179.428 183.605 167.461 186.834 155.494 189.956C142.773 193.402 130.049 196.738 117.328 200.183C116.682 200.4 115.928 200.506 115.281 200.723H115.064C114.634 200.939 114.311 200.723 114.201 200.4L114.204 200.396Z" fill="#020304"/>
    <path d="M190.855 179.407V164.336C190.962 163.797 191.502 163.584 191.932 163.907C192.363 164.123 192.256 164.659 192.256 164.982V178.761V179.407V179.73C192.149 180.052 191.826 180.159 191.609 180.159C191.286 180.159 190.855 179.836 190.855 179.407Z" fill="#020304"/>
    <path d="M114.204 200.29C114.097 199.427 114.204 198.675 114.204 197.813V185.865V185.219C114.204 185.003 114.311 184.896 114.421 184.79C114.851 184.36 115.608 184.79 115.608 185.329V200.29C115.501 200.613 115.178 200.719 114.961 200.719C114.638 200.719 114.314 200.613 114.208 200.29H114.204Z" fill="#020304"/>
    <path d="M114.204 209.654V208.363C114.204 208.363 114.311 208.256 114.311 208.146C114.311 208.146 114.311 208.04 114.417 208.04C116.251 207.61 118.082 207.071 119.916 206.532C126.168 204.81 132.53 203.196 138.782 201.471C156.354 196.734 173.82 192.107 191.392 187.37C192.256 187.153 192.686 188.445 191.822 188.768C189.128 189.52 186.43 190.166 183.736 190.922C177.698 192.536 171.662 194.151 165.624 195.765C154.197 198.778 142.766 201.901 131.339 204.914C125.624 206.635 119.912 208.143 114.197 209.651L114.204 209.654Z" fill="#020304"/>
    <path d="M114.204 224.185C113.987 223.11 115.498 223.217 116.145 222.894C117.008 222.677 117.979 222.464 118.839 222.141C129.836 219.235 140.939 216.222 151.936 213.316C164.333 209.981 176.734 206.641 189.238 203.306C190.208 203.089 191.285 202.767 192.256 202.444V203.089V203.412V203.629V203.735C192.256 203.735 192.256 203.842 192.149 203.842V203.948C191.932 204.055 191.609 204.055 191.395 204.165C179.428 207.394 167.461 210.623 155.494 213.746C142.773 217.191 130.049 220.527 117.328 223.972C116.682 224.189 115.928 224.295 115.281 224.512H115.064C114.634 224.728 114.311 224.512 114.201 224.189L114.204 224.185Z" fill="#020304"/>
    <path d="M190.855 203.302V188.232C190.962 187.693 191.502 187.48 191.932 187.803C192.363 188.019 192.256 188.555 192.256 188.878V202.657V203.302V203.625C192.149 203.948 191.826 204.055 191.609 204.055C191.286 203.948 190.855 203.732 190.855 203.302Z" fill="#020304"/>
    <path d="M114.204 224.075C114.097 223.213 114.204 222.461 114.204 221.599V209.651V209.005C114.204 208.788 114.311 208.682 114.421 208.575C114.851 208.146 115.608 208.575 115.608 209.115V224.075C115.501 224.398 115.178 224.505 114.961 224.505C114.638 224.505 114.314 224.398 114.208 224.075H114.204Z" fill="#020304"/>
    <path d="M125.415 169.719C124.984 169.396 124.551 169.073 124.121 168.751H124.338C124.554 168.751 124.984 168.751 125.308 168.644C125.525 168.644 125.631 168.538 125.848 168.428C125.955 168.321 126.065 168.105 126.065 167.888C126.065 167.672 125.958 167.565 125.848 167.349C125.741 167.242 125.525 167.133 125.308 167.133H125.201C124.878 167.133 124.554 167.133 124.231 167.239H124.014C124.231 166.916 124.554 166.593 124.768 166.27C124.984 166.054 124.984 165.841 124.984 165.624C124.768 164.979 123.907 164.979 123.584 165.518C123.367 165.734 123.261 165.947 123.044 166.164V165.089C123.044 164.659 122.72 164.443 122.29 164.443C121.86 164.443 121.537 164.766 121.643 165.195C121.643 165.734 121.643 166.27 121.75 166.916C121.32 166.7 120.997 166.377 120.673 166.054C120.35 165.837 120.026 165.408 119.596 165.624C119.273 165.731 118.949 166.164 119.056 166.487C119.163 166.703 119.273 166.916 119.486 167.026C119.916 167.455 120.35 167.778 120.886 168.101C120.78 168.101 120.563 168.208 120.456 168.208C120.24 168.208 119.916 168.314 119.703 168.424C119.596 168.424 119.486 168.424 119.486 168.531C119.379 168.531 119.269 168.531 119.269 168.637C119.163 168.637 119.052 168.744 119.052 168.854C119.052 168.964 118.946 168.96 118.946 169.07C118.946 169.286 118.946 169.499 119.163 169.716H119.269C119.376 169.716 119.486 169.822 119.593 169.822H120.133C120.35 169.822 120.563 169.716 120.673 169.716C120.566 169.932 120.456 170.039 120.35 170.145C120.026 170.575 119.703 171.114 120.026 171.543C120.243 172.083 121.213 171.76 121.32 171.221C121.537 170.898 121.75 170.575 122.074 170.252V171.65C122.074 172.079 122.397 172.296 122.827 172.296C123.257 172.296 123.581 171.973 123.474 171.543C123.474 171.004 123.474 170.468 123.367 170.035C124.014 170.465 124.661 170.898 125.415 171.221C125.845 171.221 126.168 170.035 125.415 169.712V169.719Z" fill="#020304"/>
    <path d="M137.275 166.6C136.845 166.277 136.411 165.954 135.981 165.631H136.198C136.415 165.631 136.845 165.631 137.168 165.525C137.385 165.525 137.492 165.418 137.708 165.308C137.815 165.202 137.925 164.985 137.925 164.769C137.925 164.553 137.819 164.446 137.708 164.23C137.602 164.123 137.385 164.013 137.168 164.013H137.062C136.738 164.013 136.415 164.013 136.091 164.12H135.874C136.091 163.797 136.415 163.474 136.628 163.151C136.845 162.935 136.845 162.722 136.845 162.505C136.628 161.859 135.768 161.859 135.444 162.399C135.228 162.615 135.121 162.828 134.904 163.045V161.969C134.904 161.54 134.581 161.323 134.151 161.323C133.721 161.323 133.397 161.646 133.504 162.076C133.504 162.615 133.504 163.151 133.61 163.797C133.18 163.58 132.857 163.258 132.533 162.935C132.21 162.718 131.887 162.289 131.456 162.505C131.133 162.612 130.81 163.045 130.916 163.367C131.023 163.584 131.133 163.797 131.346 163.907C131.776 164.336 132.21 164.659 132.747 164.982C132.64 164.982 132.423 165.089 132.317 165.089C132.1 165.089 131.776 165.195 131.563 165.305C131.456 165.305 131.346 165.305 131.346 165.411C131.24 165.411 131.13 165.411 131.13 165.518C131.023 165.518 130.913 165.624 130.913 165.734C130.913 165.844 130.806 165.841 130.806 165.951C130.806 166.167 130.806 166.38 131.023 166.597H131.13C131.236 166.597 131.346 166.703 131.453 166.703H131.993C132.21 166.703 132.423 166.597 132.533 166.597C132.427 166.703 132.317 166.92 132.21 167.026C131.887 167.455 131.563 167.995 131.887 168.424C132.103 168.963 133.074 168.641 133.18 168.101C133.397 167.778 133.61 167.455 133.934 167.133V168.531C133.934 168.96 134.257 169.176 134.687 169.176C135.117 169.176 135.441 168.854 135.334 168.424C135.334 167.885 135.334 167.349 135.228 166.916C135.874 167.345 136.521 167.778 137.275 168.101C137.815 168.101 138.139 166.916 137.275 166.593V166.6Z" fill="#020304"/>
    <path d="M149.242 163.477C148.812 163.154 148.379 162.832 147.948 162.509H148.165C148.382 162.509 148.812 162.509 149.136 162.402C149.352 162.402 149.459 162.296 149.676 162.186C149.782 162.079 149.892 161.863 149.892 161.646C149.892 161.43 149.786 161.323 149.676 161.107C149.569 161.001 149.352 160.891 149.136 160.891H149.029C148.705 160.891 148.382 160.891 148.059 160.997H147.842C148.059 160.674 148.382 160.351 148.595 160.028C148.812 159.812 148.812 159.599 148.812 159.383C148.595 158.737 147.735 158.737 147.412 159.276C147.195 159.492 147.088 159.705 146.871 159.922V158.847C146.871 158.417 146.548 158.201 146.118 158.201C145.688 158.201 145.364 158.524 145.471 158.953C145.471 159.492 145.471 160.028 145.578 160.674C145.148 160.458 144.824 160.135 144.501 159.812C144.177 159.596 143.854 159.166 143.424 159.383C143.1 159.489 142.777 159.922 142.884 160.245C142.99 160.461 143.1 160.674 143.314 160.784C143.744 161.214 144.177 161.536 144.714 161.859C144.607 161.859 144.391 161.966 144.284 161.966C144.067 161.966 143.744 162.072 143.53 162.182C143.424 162.182 143.314 162.182 143.314 162.289C143.207 162.289 143.097 162.289 143.097 162.395C142.99 162.395 142.88 162.502 142.88 162.612C142.88 162.722 142.773 162.718 142.773 162.828C142.773 163.045 142.773 163.257 142.99 163.474H143.097C143.204 163.474 143.314 163.58 143.42 163.58H143.961C144.177 163.58 144.391 163.474 144.501 163.474C144.394 163.58 144.284 163.797 144.177 163.903C143.854 164.333 143.53 164.872 143.854 165.301C144.071 165.841 145.041 165.518 145.148 164.979C145.364 164.656 145.578 164.333 145.901 164.01V165.408C145.901 165.837 146.225 166.054 146.655 166.054C147.085 166.054 147.408 165.731 147.302 165.301C147.302 164.762 147.302 164.226 147.195 163.793C147.842 164.223 148.489 164.656 149.242 164.979C149.782 164.979 149.996 163.793 149.242 163.47V163.477Z" fill="#020304"/>
    <path d="M125.415 191.894C124.984 191.571 124.551 191.248 124.121 190.925H124.338C124.554 190.925 124.984 190.925 125.308 190.819C125.525 190.819 125.631 190.712 125.848 190.602C125.955 190.496 126.065 190.279 126.065 190.063C126.065 189.846 125.958 189.74 125.848 189.524C125.741 189.417 125.525 189.307 125.308 189.307H125.201C124.878 189.307 124.554 189.307 124.231 189.414H124.014C124.231 189.091 124.554 188.768 124.768 188.445C124.984 188.228 124.984 188.015 124.984 187.799C124.768 187.153 123.907 187.153 123.584 187.693C123.367 187.909 123.261 188.122 123.044 188.338V187.263C123.044 186.834 122.72 186.617 122.29 186.617C121.86 186.617 121.537 186.94 121.643 187.37C121.643 187.909 121.643 188.445 121.75 189.091C121.32 188.874 120.997 188.551 120.673 188.228C120.35 188.012 120.026 187.583 119.596 187.799C119.273 187.906 118.949 188.338 119.056 188.661C119.163 188.878 119.273 189.091 119.486 189.201C119.916 189.63 120.35 189.953 120.886 190.276C120.78 190.276 120.563 190.382 120.456 190.382C120.24 190.382 119.916 190.489 119.703 190.599C119.596 190.599 119.486 190.599 119.486 190.705C119.379 190.705 119.269 190.705 119.269 190.812C119.163 190.812 119.052 190.918 119.052 191.028C119.052 191.138 118.946 191.135 118.946 191.245C118.946 191.461 118.946 191.674 119.163 191.89H119.269C119.376 191.89 119.486 191.997 119.593 191.997H120.133C120.35 191.997 120.563 191.89 120.673 191.89C120.566 192.107 120.456 192.213 120.35 192.32C120.026 192.749 119.703 193.289 120.026 193.718C120.243 194.257 121.213 193.934 121.32 193.395C121.537 193.072 121.75 192.749 122.074 192.426V193.824C122.074 194.254 122.397 194.47 122.827 194.47C123.257 194.47 123.581 194.147 123.474 193.718C123.474 193.179 123.474 192.643 123.367 192.21C124.014 192.639 124.661 193.072 125.415 193.395C125.845 193.395 126.168 192.103 125.415 191.887V191.894Z" fill="#020304"/>
    <path d="M137.275 188.771C136.845 188.448 136.411 188.125 135.981 187.802H136.198C136.415 187.802 136.845 187.802 137.168 187.696C137.385 187.696 137.492 187.589 137.708 187.48C137.815 187.373 137.925 187.157 137.925 186.94C137.925 186.724 137.819 186.617 137.708 186.401C137.602 186.294 137.385 186.184 137.168 186.184H137.062C136.738 186.184 136.415 186.184 136.091 186.291H135.874C136.091 185.968 136.415 185.645 136.628 185.322C136.845 185.106 136.845 184.893 136.845 184.676C136.628 184.031 135.768 184.031 135.444 184.57C135.228 184.786 135.121 184.999 134.904 185.216V184.14C134.904 183.711 134.581 183.495 134.151 183.495C133.721 183.495 133.397 183.818 133.504 184.247C133.504 184.786 133.504 185.322 133.61 185.968C133.18 185.752 132.857 185.429 132.533 185.106C132.21 184.889 131.887 184.46 131.456 184.676C131.133 184.783 130.81 185.216 130.916 185.539C131.023 185.755 131.133 185.968 131.346 186.078C131.776 186.507 132.21 186.83 132.747 187.153C132.64 187.153 132.423 187.26 132.317 187.26C132.1 187.26 131.776 187.366 131.563 187.476C131.456 187.476 131.346 187.476 131.346 187.583C131.24 187.583 131.13 187.583 131.13 187.689C131.023 187.689 130.913 187.796 130.913 187.906C130.913 188.015 130.806 188.012 130.806 188.122C130.806 188.338 130.806 188.551 131.023 188.768H131.13C131.236 188.768 131.346 188.874 131.453 188.874H131.993C132.21 188.874 132.423 188.768 132.533 188.768C132.427 188.984 132.317 189.091 132.21 189.197C131.887 189.627 131.563 190.166 131.887 190.595C132.103 191.135 133.074 190.812 133.18 190.272C133.397 189.949 133.61 189.627 133.934 189.304V190.702C133.934 191.131 134.257 191.348 134.687 191.348C135.117 191.348 135.441 191.025 135.334 190.595C135.334 190.056 135.334 189.52 135.228 189.087C135.874 189.517 136.521 189.949 137.275 190.272C137.815 190.272 138.139 189.087 137.275 188.764V188.771Z" fill="#020304"/>
    <path d="M149.242 185.652C148.812 185.329 148.379 185.006 147.948 184.683H148.165C148.382 184.683 148.812 184.683 149.136 184.577C149.352 184.577 149.459 184.47 149.676 184.36C149.782 184.254 149.892 184.037 149.892 183.821C149.892 183.605 149.786 183.498 149.676 183.282C149.569 183.175 149.352 183.065 149.136 183.065H149.029C148.705 183.065 148.382 183.065 148.059 183.172H147.842C148.059 182.849 148.382 182.526 148.595 182.203C148.812 181.987 148.812 181.774 148.812 181.557C148.595 180.911 147.735 180.911 147.412 181.451C147.195 181.667 147.088 181.88 146.871 182.097V181.021C146.871 180.592 146.548 180.375 146.118 180.375C145.688 180.375 145.364 180.698 145.471 181.128C145.471 181.667 145.471 182.203 145.578 182.849C145.148 182.632 144.824 182.31 144.501 181.987C144.177 181.77 143.854 181.341 143.424 181.557C143.1 181.664 142.777 182.097 142.884 182.419C142.99 182.636 143.1 182.849 143.314 182.959C143.744 183.388 144.177 183.711 144.714 184.034C144.607 184.034 144.391 184.141 144.284 184.141C144.067 184.141 143.744 184.247 143.53 184.357C143.424 184.357 143.314 184.357 143.314 184.463C143.207 184.463 143.097 184.463 143.097 184.57C142.99 184.57 142.88 184.676 142.88 184.786C142.88 184.896 142.773 184.893 142.773 185.003C142.773 185.219 142.773 185.432 142.99 185.649H143.097C143.204 185.649 143.314 185.755 143.42 185.755H143.961C144.177 185.755 144.391 185.649 144.501 185.649C144.394 185.865 144.284 185.972 144.177 186.078C143.854 186.507 143.53 187.047 143.854 187.476C144.071 188.016 145.041 187.693 145.148 187.153C145.364 186.83 145.578 186.507 145.901 186.185V187.583C145.901 188.012 146.225 188.228 146.655 188.228C147.085 188.228 147.408 187.906 147.302 187.476C147.302 186.937 147.302 186.401 147.195 185.968C147.842 186.397 148.489 186.83 149.242 187.153C149.782 187.153 149.996 185.968 149.242 185.645V185.652Z" fill="#020304"/>
    <path d="M161.639 182.529C161.209 182.206 160.776 181.884 160.345 181.561H160.562C160.779 181.561 161.209 181.561 161.532 181.454C161.749 181.454 161.856 181.348 162.073 181.238C162.179 181.131 162.289 180.915 162.289 180.698C162.289 180.482 162.183 180.375 162.073 180.159C161.966 180.053 161.749 179.943 161.532 179.943H161.426C161.102 179.943 160.779 179.943 160.456 180.049H160.239C160.456 179.726 160.779 179.403 160.992 179.08C161.209 178.864 161.209 178.651 161.209 178.435C160.992 177.789 160.132 177.789 159.809 178.328C159.592 178.544 159.485 178.757 159.268 178.974V177.899C159.268 177.469 158.945 177.253 158.515 177.253C158.085 177.253 157.761 177.576 157.868 178.005C157.868 178.544 157.868 179.08 157.975 179.726C157.545 179.51 157.221 179.187 156.898 178.864C156.574 178.648 156.251 178.218 155.821 178.435C155.497 178.541 155.174 178.974 155.281 179.297C155.387 179.513 155.497 179.726 155.711 179.836C156.141 180.266 156.574 180.588 157.111 180.911C157.004 180.911 156.788 181.018 156.681 181.018C156.464 181.018 156.141 181.124 155.927 181.234C155.821 181.234 155.711 181.234 155.711 181.341C155.604 181.341 155.494 181.341 155.494 181.447C155.387 181.447 155.277 181.554 155.277 181.664C155.277 181.774 155.17 181.77 155.17 181.88C155.17 182.097 155.17 182.31 155.387 182.526H155.494C155.601 182.526 155.711 182.632 155.817 182.632H156.357C156.574 182.632 156.788 182.526 156.898 182.526C156.791 182.742 156.681 182.849 156.574 182.955C156.251 183.385 155.927 183.924 156.251 184.353C156.468 184.893 157.438 184.57 157.545 184.031C157.761 183.708 157.975 183.385 158.298 183.062V184.353C158.298 184.783 158.622 184.999 159.052 184.999C159.482 184.999 159.805 184.676 159.699 184.247C159.699 183.708 159.699 183.172 159.592 182.739C160.239 183.168 160.886 183.601 161.639 183.924C162.179 184.031 162.503 182.849 161.639 182.526V182.529Z" fill="#020304"/>
    <path d="M175.977 178.761C175.547 178.438 175.113 178.115 174.683 177.792H174.9C175.117 177.792 175.547 177.792 175.87 177.686C176.087 177.686 176.194 177.579 176.411 177.469C176.517 177.363 176.627 177.146 176.627 176.93C176.627 176.714 176.521 176.607 176.411 176.391C176.304 176.284 176.087 176.174 175.87 176.174H175.764C175.44 176.174 175.117 176.174 174.793 176.281H174.577C174.793 175.958 175.117 175.635 175.33 175.312C175.547 175.096 175.547 174.883 175.547 174.666C175.33 174.02 174.47 174.02 174.147 174.56C173.93 174.776 173.823 174.989 173.606 175.205V174.13C173.606 173.701 173.283 173.484 172.853 173.484C172.423 173.484 172.099 173.807 172.206 174.237C172.206 174.776 172.206 175.312 172.313 175.958C171.882 175.741 171.559 175.418 171.236 175.096C170.912 174.879 170.589 174.45 170.159 174.666C169.835 174.773 169.512 175.205 169.618 175.528C169.725 175.745 169.835 175.958 170.049 176.068C170.479 176.497 170.912 176.82 171.449 177.143C171.342 177.143 171.125 177.249 171.019 177.249C170.802 177.249 170.479 177.356 170.265 177.466C170.159 177.466 170.049 177.466 170.049 177.572C169.942 177.572 169.832 177.572 169.832 177.679C169.725 177.679 169.615 177.785 169.615 177.895C169.615 178.005 169.508 178.002 169.508 178.112C169.508 178.328 169.508 178.541 169.725 178.758H169.832C169.938 178.758 170.049 178.864 170.155 178.864H170.695C170.912 178.864 171.125 178.758 171.236 178.758C171.129 178.974 171.019 179.08 170.912 179.187C170.589 179.616 170.265 180.156 170.589 180.585C170.805 181.124 171.776 180.801 171.882 180.262C172.099 179.939 172.313 179.616 172.636 179.293V180.585C172.636 181.014 172.959 181.231 173.39 181.231C173.82 181.231 174.143 180.908 174.036 180.479C174.036 179.939 174.036 179.403 173.93 178.97C174.577 179.4 175.223 179.833 175.977 180.156C176.517 180.262 176.731 179.08 175.977 178.758V178.761Z" fill="#020304"/>
    <path d="M212.742 61.6529V50.1379C212.742 47.8775 212.742 45.5106 212.526 43.2502C212.526 42.9273 212.526 42.7108 212.419 42.3879C212.526 42.1715 212.526 42.065 212.526 41.8486C212.202 40.9863 211.338 41.4192 210.692 41.6322C209.291 42.0616 207.887 42.3845 206.38 42.7074C171.236 52.0719 136.088 61.5429 100.943 70.9074C98.1184 71.701 92.2931 73.2743 90.3146 73.7965C89.9052 73.9064 89.623 74.274 89.623 74.6965C89.623 84.5798 89.7263 194.343 89.623 248.077C89.623 248.294 89.7297 248.617 89.9465 248.723V248.94C90.0531 249.479 90.5934 249.586 91.0235 249.369C96.3051 247.971 174.794 226.982 208.861 217.83C209.831 217.614 210.695 217.291 211.665 217.078C212.095 217.078 212.529 216.648 212.419 216.109V216.002C212.636 215.896 212.742 215.68 212.742 215.463V205.992C212.742 157.878 212.959 109.767 212.742 61.6529ZM211.449 215.573V215.789C211.232 215.896 210.908 215.896 210.695 216.006C209.295 216.222 207.891 216.652 206.49 216.975C171.346 226.339 94.4746 246.896 91.1336 247.865C91.1336 247.865 91.2402 142.704 91.1336 94.8065C92.6441 94.3771 94.1512 93.9443 95.7683 93.6214C97.709 93.082 99.5429 92.6526 101.484 92.1133C138.139 82.3194 174.904 72.522 211.559 62.6216C211.342 113.532 211.559 164.553 211.452 215.573H211.449ZM211.772 43.7861C211.772 44.7548 211.665 45.7236 211.665 46.6923C211.665 51.4295 211.665 56.1633 211.559 60.9005C210.695 61.117 209.835 61.3299 208.971 61.5464C172.963 71.2338 136.955 80.8147 100.947 90.5022C99.1128 90.9316 97.389 91.4709 95.6651 91.9003C94.1546 92.3297 92.7542 92.6526 91.2437 93.0855V82.6457C91.2437 80.3853 91.2437 78.0184 91.0269 75.758V75.1809C91.0716 75.1878 91.1439 75.1603 91.2437 75.1122C96.5253 73.7141 101.7 72.3125 106.985 70.9143C141.053 61.7662 175.014 52.7246 209.081 43.5731C209.945 43.3567 210.915 43.1437 211.775 42.8208V43.7895L211.772 43.7861Z" fill="#020304"/>
    <path d="M96.4154 79.7361C95.015 82.2129 96.8455 85.442 99.6498 85.5485C102.561 85.765 104.718 82.6423 103.531 80.059C102.237 77.0463 97.9259 76.9363 96.4154 79.7361ZM99.8631 84.1504C97.9225 84.1504 96.6287 81.89 97.8158 80.2754C98.7861 78.6608 101.267 78.7673 102.127 80.4918C102.991 82.1064 101.697 84.1504 99.8631 84.1504Z" fill="#020304"/>
    <path d="M107.519 77.0463C106.118 79.5231 107.949 82.7522 110.753 82.8587C113.664 83.0751 115.822 79.9525 114.635 77.3692C113.341 74.3565 109.029 74.2465 107.519 77.0463ZM110.97 81.4571C109.029 81.4571 107.736 79.1967 108.923 77.5822C109.893 75.9676 112.374 76.0741 113.234 77.7986C114.098 79.4132 112.804 81.4571 110.97 81.4571Z" fill="#020304"/>
    <path d="M119.056 74.2466C117.655 76.7234 119.486 79.9525 122.29 80.059C125.094 80.2755 127.248 77.0463 126.171 74.5695C124.877 71.5568 120.566 71.4468 119.056 74.2466ZM122.503 78.551C120.456 78.6574 119.269 76.2906 120.456 74.676C121.426 73.0614 123.907 73.1679 124.767 74.8924C125.631 76.507 124.337 78.551 122.503 78.551Z" fill="#020304"/>
    <path d="M218.457 208.792C218.351 206.315 218.241 203.842 218.134 201.365C218.027 198.242 217.81 195.123 217.704 192C217.597 188.771 217.38 185.436 217.274 182.206C217.274 181.561 217.274 180.808 217.167 180.162C217.384 180.269 217.49 180.269 217.707 180.379C217.814 180.379 217.924 180.485 218.137 180.485H218.678C218.678 181.348 218.784 182.1 218.784 182.962C218.891 186.191 219.108 189.421 219.214 192.65C219.321 195.772 219.538 198.892 219.644 202.014C219.751 204.275 219.861 206.535 219.968 208.795C219.968 209.012 219.968 209.225 219.751 209.335C219.644 209.441 219.428 209.551 219.211 209.551C218.887 209.445 218.457 209.228 218.457 208.799V208.792Z" fill="#020304"/>
    <path d="M299.743 92.3298C302.224 97.7128 299.096 103.738 296.615 108.692C293.811 113.213 287.989 115.796 286.482 121.069C285.728 123.007 282.924 120.423 281.847 119.777C278.72 117.734 280.23 113.103 277.859 110.736C274.518 108.582 274.518 113.426 273.548 115.473C271.391 116.765 272.901 109.015 272.148 107.723C271.394 105.033 267.726 103.742 265.249 105.033C263.091 106.109 258.24 105.786 261.908 102.989C263.742 96.6376 258.89 100.19 255.332 99.8667C251.991 99.1144 251.234 100.942 250.374 103.958C250.481 104.497 249.944 104.927 249.404 104.82C244.122 104.604 240.131 99.4373 239.701 94.4871C240.564 83.1851 251.021 75.3287 261.911 73.2813C270.32 72.9583 275.712 73.0648 281.424 79.7395C284.335 83.8309 290.05 82.5393 293.821 84.6898C296.626 86.8437 299.426 88.4582 299.75 92.3332L299.743 92.3298Z" fill="#413D56"/>
    <path d="M301.9 242.804C287.562 241.619 262.334 238.823 237.86 229.994C236.242 228.38 236.566 224.611 236.242 222.461C237.43 208.792 243.358 220.523 243.682 209.328V209.434C243.898 208.359 244.222 207.174 244.328 206.099V206.205C244.869 203.728 245.192 201.255 245.622 198.778V198.672C252.844 182.632 244.328 196.305 229.02 200.826C221.688 202.979 214.896 192.969 209.614 187.802C197.54 186.727 207.133 191.894 212.632 196.738C226.969 219.448 180.828 187.267 172.419 181.667C165.41 176.93 177.917 170.472 177.917 170.472C185.25 174.347 199.694 182.097 212.308 181.451C220.501 181.021 229.667 174.992 240.554 166.703C246.592 162.612 252.521 156.909 260.067 156.047C263.301 153.787 267.506 132.474 271.064 141.732C277.962 135.813 288.853 128.386 290.146 130.214C292.194 131.505 293.704 136.243 295.321 141.622C300.496 144.529 305.888 148.187 309.769 152.818C324 166.703 317.425 188.338 317.532 205.882C314.727 219.874 323.46 244.955 301.9 242.801V242.804Z" fill="#0079D0"/>
    <path d="M242.928 210.946C242.928 210.946 219.1 194.154 210.478 188.771C208.107 187.263 202.068 187.909 202.068 187.909C202.609 188.878 205.52 190.709 208.43 193.398C209.724 194.474 211.771 197.703 212.095 194.261C211.878 196.628 214.576 196.951 215.546 198.675C218.24 197.06 219.857 199.644 222.445 201.042C228.807 204.917 234.629 215.573 242.715 214.711L242.931 210.942L242.928 210.946Z" fill="#413D56"/>
    <path d="M252.091 235.377C252.738 239.682 252.308 243.667 252.198 245.927C248.963 249.05 241.954 253.354 237.643 257.768C237.643 257.768 237.103 236.995 240.124 230.967C243.788 233.227 252.091 235.381 252.091 235.381V235.377Z" fill="#EAF5FF"/>
    <path d="M271.067 148.517C274.842 149.702 271.284 153.254 270.097 155.082C265.462 166.923 261.257 178.225 258.993 190.815C256.729 198.242 255.866 206.638 254.572 213.636C251.337 214.281 243.251 214.711 243.251 214.711C246.379 198.349 250.691 181.561 256.512 165.951C260.287 159.922 260.61 144.422 271.067 148.513V148.517Z" fill="#EAF5FF"/>
    <path d="M286.795 128.915C289.706 131.928 279.153 133.017 276.999 136.353C275.059 137.215 271.608 141.949 270.747 140.767C266.649 127.744 260.614 149.486 251.018 127.098C241.745 128.819 250.371 119.025 250.371 114.934C249.941 110.413 249.617 105.999 251.771 101.911C252.311 101.265 252.958 98.3586 254.035 99.9731C257.7 102.017 265.786 95.2359 260.181 104.065C259.317 107.4 267.726 103.312 270.314 105.896C273.548 108.372 270.42 113.429 273.655 115.906C276.026 105.143 278.183 110.416 280.124 118.06C286.53 118.517 286.795 128.922 286.795 128.922V128.915Z" fill="#9E616A"/>
    <path d="M216.73 202.873C216.837 203.089 216.947 203.196 216.947 203.302C216.947 203.196 216.84 202.98 216.73 202.873ZM238.94 214.711C235.923 220.523 236.246 224.182 236.029 228.167C229.991 222.138 227.62 222.248 218.024 209.331C216.73 207.61 209.291 193.508 212.849 194.154C214.036 195.769 215.329 198.675 215.653 198.998C218.994 194.371 234.736 213.746 238.94 214.714V214.711Z" fill="#9E616A"/>
    <path d="M149.025 172.303C149.025 172.303 149.025 172.196 148.918 172.196H148.812C148.883 172.196 148.955 172.232 149.029 172.303H149.025ZM175.977 169.506C176.407 169.723 176.947 170.046 176.947 170.582C176.731 171.444 176.084 171.98 175.654 172.735C174.9 173.921 174.36 175.212 173.82 176.504C173.389 177.366 173.173 178.441 172.956 179.41C172.849 180.056 172.526 180.808 171.662 180.485C171.339 180.379 171.015 180.056 170.585 179.946C169.615 179.84 168.645 180.269 167.674 180.162C166.597 180.162 165.627 179.733 164.657 179.41C163.363 178.981 162.286 178.225 161.206 177.473C159.482 176.288 157.541 175.319 155.49 175.106C154.737 174.999 154.09 174.889 153.333 174.889C151.933 174.889 150.422 174.783 149.128 174.027C148.265 173.488 147.081 172.629 147.511 171.55C147.835 170.904 148.698 170.904 149.235 171.227C149.882 171.011 150.635 171.011 151.392 171.121C152.039 171.121 152.579 171.227 153.226 171.444C153.333 171.444 153.443 171.55 153.55 171.66C154.844 171.767 156.137 171.767 157.431 171.66C156.137 170.585 154.627 170.046 153.226 169.293C152.149 168.864 151.069 168.541 149.992 168.108C149.128 167.785 148.592 167.033 148.051 166.387C147.728 165.958 147.188 165.095 147.835 164.666C148.481 164.237 149.235 164.989 149.882 165.205C150.745 165.635 151.716 166.174 152.576 166.604C153.223 166.926 153.87 167.143 154.517 167.356C155.704 167.572 157.004 167.201 158.191 167.201C155.711 165.587 152.899 164.989 150.312 163.591C149.665 163.161 149.018 162.622 148.912 161.87C148.805 160.685 149.775 160.149 150.852 160.472C152.576 161.011 154.303 161.44 155.92 162.303C157.321 163.055 158.515 163.831 159.809 164.8C158.515 163.402 156.891 162.625 155.49 161.334C154.844 160.688 154.197 159.936 153.55 159.29C153.01 158.751 151.826 157.892 152.903 157.246C153.443 157.029 153.873 157.569 154.303 157.569C154.844 157.675 155.38 157.785 156.027 157.892C156.674 158.108 157.321 158.321 158.074 158.321C157.751 157.675 157.534 156.6 158.505 156.49C158.721 156.49 158.935 156.597 159.151 156.707C159.692 157.136 160.338 157.459 160.875 157.892C163.246 159.4 165.403 161.014 167.451 162.735C168.098 163.165 168.744 163.811 169.391 164.35C171.115 165.748 172.842 167.15 174.566 168.441C175.106 168.871 175.43 169.194 175.967 169.517L175.977 169.506Z" fill="#9E616A"/>
    <path d="M253.062 224.292H253.278C253.172 224.398 253.172 224.292 253.062 224.292Z" fill="#020304"/>
    <path d="M224.275 202.334C224.059 202.117 224.059 202.011 224.275 201.904L224.382 202.011L224.599 202.227L224.705 202.334C224.705 202.334 224.812 202.44 224.922 202.44H224.705C224.489 202.334 224.382 202.334 224.275 202.334Z" fill="#020304"/>
    <path d="M226.54 200.935C226.54 200.935 226.646 200.935 226.646 201.042C226.54 201.042 226.54 200.935 226.54 200.935Z" fill="#020304"/>
    <path d="M236.353 58.8566C236.353 58.8566 236.353 58.9631 236.459 58.9631L236.353 58.8566Z" fill="#020304"/>
    <path d="M233.548 73.3843C233.332 72.4156 232.685 71.8762 231.391 71.8762C229.02 71.8762 228.803 75.5348 230.961 76.0741C230.637 78.7639 234.519 77.5822 233.118 75.4283C233.548 74.8889 233.765 74.1366 233.548 73.3843Z" fill="#020304"/>
    <path d="M239.264 69.6192C238.723 67.6817 237.753 64.4526 235.276 64.882C232.041 65.0984 228.807 66.6031 225.679 67.6818C224.709 63.8068 222.875 60.0383 222.768 55.9503C223.092 52.9376 226.543 50.4608 229.56 51.2131C231.501 51.8589 232.365 53.9029 233.118 55.7339C233.548 56.3797 233.335 58.1008 234.519 57.8878C234.949 57.7813 235.166 57.3485 235.059 57.0256C233.872 48.8462 224.816 46.9087 221.691 54.7652C221.261 56.1633 221.691 57.6714 222.121 58.9631C222.768 62.0857 223.522 65.2049 224.492 68.2211C221.258 69.7292 221.364 71.4502 222.335 75.4317C223.305 77.7986 223.198 83.2881 226.109 83.934C228.914 84.3634 231.501 82.5358 233.978 81.5671C241.201 78.5543 242.171 77.2627 239.26 69.6192H239.264ZM235.272 79.3067C233.225 80.2754 226.323 85.0126 225.139 81.0277C224.386 78.228 221.688 72.4155 223.522 70.6945C225.679 68.5406 229.991 67.5718 233.008 66.8195C235.166 66.2802 236.459 65.9573 237.32 68.6505C238.073 70.8044 238.72 72.5255 239.153 74.463C240.017 77.5856 237.643 78.3379 235.272 79.3067Z" fill="#020304"/>
    <path d="M220.611 63.161C220.504 63.0545 220.394 62.9446 220.287 62.7316C220.071 61.9793 219.857 61.2235 219.857 60.4712C219.641 59.1795 219.21 57.8879 219.751 56.5962C219.857 56.2733 220.291 56.1668 220.398 56.4897C220.504 56.8126 220.398 57.242 220.504 57.565C220.611 58.3173 220.828 59.073 221.044 59.7189C221.261 60.5811 221.368 61.4399 221.691 62.3022C221.691 62.948 221.044 63.4873 220.614 63.1644L220.611 63.161Z" fill="#020304"/>
    <path d="M225.679 88.5612C223.092 88.3448 221.151 86.5173 220.611 84.0404C220.394 82.9652 220.181 81.78 220.504 80.7048C220.611 80.4884 220.828 80.4884 220.935 80.7048C221.151 81.1342 221.151 81.6735 221.258 82.1029C221.475 82.7488 221.581 83.3946 221.798 83.9339C222.228 85.1191 222.985 86.1943 224.169 86.7337C224.709 87.0566 225.356 87.0566 226.003 87.273C226.756 87.3795 226.543 88.5647 225.679 88.5647V88.5612Z" fill="#020304"/>
    <path d="M221.368 89.7464C220.938 89.6399 220.504 89.317 220.074 88.9941C219.427 88.5647 218.887 87.9189 218.564 87.1631C218.347 86.5173 218.023 85.8714 218.134 85.2256C218.24 84.9027 218.674 84.7962 218.887 85.1191C219.211 85.7649 219.427 86.4108 219.751 86.9501C220.181 87.5959 220.938 88.0253 221.585 88.3483C222.555 88.7777 222.125 89.9628 221.368 89.7464Z" fill="#020304"/>
    <path d="M244.115 154.329C238.056 152.842 231.914 147.225 234.196 140.55C224.991 137.201 219.761 125.865 220.725 116.538C220.745 116.339 221.041 116.339 221.059 116.538C221.206 118.201 221.475 120.839 221.798 122.251C223.446 129.403 227.238 136.823 234.519 139.365C240.224 128.836 248.413 145.284 235.596 140.98C233.965 144.649 236.277 148.857 239.546 150.822C240.337 151.835 247.119 152.862 244.329 154.329C244.329 154.329 244.222 154.329 244.112 154.329H244.115ZM240.595 137.538C239.271 135.94 236.759 137.74 235.916 139.681C240.341 141.629 242.546 139.891 240.595 137.538Z" fill="#020304"/>
    <path d="M245.192 152.821C245.192 152.75 245.192 152.75 245.192 152.821C245.299 152.715 245.299 152.821 245.299 152.821C245.299 152.821 245.299 152.928 245.192 152.821Z" fill="#020304"/>
    <path d="M260.934 107.077C260.07 106.754 259.21 106.538 258.24 106.538C256.516 106.538 254.682 106.538 253.282 107.507C253.065 107.613 252.851 107.723 252.741 107.936C252.525 108.259 252.635 108.798 253.065 109.011C253.605 109.228 253.928 108.688 254.465 108.472C256.406 107.826 258.67 107.72 260.611 108.472C261.041 108.579 261.364 108.256 261.474 107.826C261.581 107.503 261.367 107.18 260.934 107.074V107.077Z" fill="#020304"/>
    <path d="M255.325 113.213C254.462 113.429 253.491 113.858 252.845 114.611C252.628 114.827 252.414 115.363 252.845 115.473C253.275 115.58 253.708 115.257 254.032 115.15C254.785 114.827 255.542 114.504 256.296 114.398C256.836 114.291 257.373 114.291 257.913 114.398C258.236 114.504 258.56 114.504 258.777 114.398C259.1 114.181 259.207 113.646 258.883 113.323C258.02 112.57 256.402 112.893 255.325 113.216V113.213Z" fill="#020304"/>
    <path d="M319.583 173.811C318.719 154.329 308.046 151.1 295.001 140.228C293.924 136.782 293.601 132.371 290.797 129.788C290.367 128.926 288.533 129.358 287.779 129.681C287.239 128.067 286.916 126.452 286.379 124.838C285.949 116.442 299.533 111.382 301.364 100.19C302.981 91.6874 298.236 83.3981 289.396 82.1065C277.753 80.3854 282.281 70.698 264.922 71.9896C255.759 72.5289 246.703 77.6956 241.634 85.4455C237.97 91.0416 237.536 98.9014 243.682 102.776C245.406 103.962 247.563 105.466 249.72 104.93C249.29 107.62 249.397 110.313 249.937 112.897C249.937 116.878 246.92 120.107 246.163 123.982C245.409 127.105 247.24 128.932 250.367 127.751C252.738 131.949 254.789 138.623 260.717 138.513C263.088 138.19 265.352 137.545 267.616 136.469C267.616 136.469 267.616 136.576 267.723 136.576C267.829 136.899 268.046 137.222 268.153 137.545C268.476 138.19 268.8 138.73 269.23 139.266C268.69 139.266 268.259 140.128 267.829 140.451C265.672 142.711 263.625 145.834 263.408 149.063C261.897 150.678 260.604 152.615 260.067 154.769C252.845 157.569 246.159 161.55 239.907 166.071C233.115 170.808 226.216 175.975 218.56 179.311C216.19 180.496 215.433 180.602 213.602 180.925C206.27 182.217 199.154 178.665 192.255 176.298C180.071 172.852 171.125 163.921 160.992 156.816C160.128 156.277 157.864 154.45 157.004 155.418C156.412 156.092 156.681 156.961 157.083 157.723C156.14 157.349 154.754 157.019 154.417 156.82C153.876 156.603 153.34 156.39 152.693 156.39C152.263 156.39 151.722 156.607 151.616 157.143C151.509 158.112 152.263 158.864 152.91 159.51C153.095 159.767 153.291 159.998 153.498 160.214C152.676 159.805 151.812 159.462 150.862 159.293C149.999 159.077 149.028 159.187 148.492 159.939C147.738 161.66 149.569 163.168 150.756 164.031C152.266 164.999 153.99 165.539 155.607 166.184C156.103 166.325 156.646 166.559 157.173 166.765C157.186 166.775 157.204 166.786 157.221 166.786C157.269 166.81 157.345 166.837 157.427 166.865C157.527 166.902 157.627 166.937 157.723 166.968C157.895 167.036 157.968 167.105 157.654 167.157C156.577 167.157 155.39 166.617 154.313 166.294C152.59 165.755 150.972 165.109 149.355 164.573C146.768 163.821 146.014 165.865 147.955 167.48C149.572 168.771 151.513 169.633 153.347 170.386C153.446 170.437 153.57 170.503 153.704 170.578C152.617 170.29 151.502 170.114 150.329 170.169C146.878 170.063 145.908 172.323 148.818 174.367C151.299 175.982 154.534 175.552 157.334 176.521C161.539 178.029 164.45 181.794 169.195 180.935C169.625 180.829 170.272 180.719 170.812 181.042C181.592 186.961 203.049 207.414 215.336 205.154C216.413 207.414 217.6 209.568 218.894 211.719L219.758 213.117C225.039 218.713 230.001 225.281 236.683 229.263C237.086 229.843 237.832 230.389 238.792 230.905C238.672 231.499 238.593 232.069 238.514 232.694C238.407 233.663 238.19 234.632 238.084 235.601C237.76 237.645 237.437 239.692 237.22 241.736C237.003 243.89 236.79 246.04 236.68 248.194C236.68 249.27 236.573 250.348 236.573 251.424V258.205C236.573 258.421 236.573 258.634 236.79 258.851C236.896 258.957 237.113 259.067 237.22 259.067C237.337 259.067 237.419 259.033 237.474 258.954C238.73 259.084 240.781 257.167 241.855 256.484C243.795 254.976 245.736 253.361 247.57 251.64C248.433 250.994 249.294 250.242 250.157 249.486C250.698 248.947 251.344 248.517 251.881 247.978C252.129 247.792 252.411 247.538 252.504 247.25C252.745 247.129 252.958 246.882 252.958 246.576C252.851 244.316 252.958 241.949 253.175 239.689C253.175 238.315 253.247 236.94 253.385 235.566C266.123 238.287 279.057 241.162 292.094 242.935C299.103 243.474 308.589 244.872 314.518 240.352C318.292 235.079 317.535 227.974 317.859 221.729C317.752 205.8 320.23 189.761 319.583 173.831V173.811ZM291.55 133.446C292.414 135.6 292.844 137.967 293.598 140.228C291.334 141.949 288.746 143.134 286.589 145.071C284.001 147.009 281.63 150.022 278.073 150.344C274.298 150.344 271.28 147.332 267.616 146.576C268.37 145.501 269.233 144.532 270.097 143.67C274.732 138.18 280.664 133.443 287.669 131.183C290.363 129.997 290.687 131.183 291.55 133.443V133.446ZM254.355 132.801C256.189 132.694 257.806 131.938 259.313 130.757C259.96 130.327 262.118 127.85 260.177 128.173C258.453 129.894 256.296 131.08 253.815 131.509C252.951 130.111 252.415 128.28 251.334 126.988C252.198 126.449 252.845 125.48 253.922 125.696C254.568 126.019 255.645 125.803 255.322 124.944C253.488 123.113 251.224 125.267 249.93 126.665C248.313 127.418 246.803 126.988 247.126 124.944C247.449 120.853 250.79 117.411 250.79 113.319C250.36 110.306 250.144 107.184 251.007 104.278C251.437 102.663 252.084 101.155 253.055 99.7568C255.212 101.588 257.906 100.186 260.277 99.7568C264.912 100.726 253.591 105.892 264.051 106.645C264.915 106.645 265.562 106.215 266.422 105.892C269.333 104.817 272.027 107.83 271.38 110.736C271.274 112.457 271.163 114.288 272.027 115.796C272.781 117.088 274.291 116.871 274.721 115.473C275.585 112.46 275.151 108.153 278.386 113.213C278.816 114.288 279.033 118.596 279.249 119.565C279.143 126.669 275.798 129.575 270.41 133.556C264.912 136.892 258.226 140.231 254.345 132.804L254.355 132.801ZM268.48 136.136C272.791 133.876 276.566 130.43 279.153 126.449C280.664 123.543 281.2 119.774 280.23 116.655C280.013 115.147 280.447 113.532 279.583 112.134C278.72 110.413 276.132 107.936 274.515 110.303C273.761 111.701 273.975 113.532 273.438 115.04C271.821 111.918 274.515 108.798 271.391 105.892C269.343 103.738 267.079 104.061 264.492 105.14C263.305 105.356 261.798 105.246 260.827 104.494C261.691 102.986 263.845 101.481 262.661 99.6503C261.044 97.1735 258.35 99.2209 256.193 99.4339C255.005 99.111 253.388 97.8193 252.528 99.3274C251.234 100.619 250.481 102.34 250.157 104.171C245.736 104.601 240.454 98.898 240.348 94.5902C241.425 80.7049 257.166 72.632 269.997 73.6008C276.683 73.9237 278.73 77.6921 283.041 81.5671C285.735 83.3981 289.08 83.3981 292.097 84.4733C299.86 86.9502 302.017 96.6376 298.996 103.419C296.192 110.739 288.216 114.504 285.412 121.718C285.195 121.396 284.765 118.812 284.442 119.674C284.442 123.227 285.735 126.779 286.599 130.224C281.101 132.914 275.709 136.253 271.397 140.664C271.326 140.593 271.254 140.521 271.181 140.447C270.317 138.939 269.457 137.541 268.487 136.143L268.48 136.136ZM269.233 139.475C269.34 139.692 269.45 139.798 269.557 139.905C269.773 140.334 270.097 140.767 270.42 141.09C270.527 141.196 267.509 145.181 266.216 147.442C265.569 147.658 264.815 147.981 264.168 148.41C265.245 145.181 267.509 142.275 269.237 139.475H269.233ZM261.147 155.405C262.011 152.392 264.058 149.376 266.969 147.978C268.91 148.407 270.634 149.376 272.468 150.131C271.067 153.684 267.076 159.28 262.764 157.342C262.011 156.803 260.824 156.373 261.147 155.405ZM269.02 156.913C261.904 174.996 256.946 194.154 254.359 213.423C250.801 213.423 247.243 213.639 243.685 214.068C243.792 213.1 243.902 212.454 244.115 211.485C247.78 192.863 253.602 174.783 260.717 157.236C263.198 159.067 266.646 159.067 269.02 156.913ZM227.51 200.936C227.617 201.042 227.727 201.152 227.94 201.258C227.94 201.365 228.047 201.365 228.047 201.365C228.153 201.365 228.263 201.471 228.263 201.471C228.336 201.454 228.398 201.437 228.466 201.42C233.056 204.536 237.636 207.665 242.171 210.836C242.388 210.942 242.495 211.052 242.711 211.159C242.495 212.128 242.388 212.99 242.171 213.959C241.418 213.959 239.154 213.959 239.043 214.175C233.222 212.021 220.824 195.23 215.863 198.029C214.999 196.738 214.029 192.969 211.875 193.938C211.445 194.154 211.445 194.69 211.445 195.336C208.534 192.969 205.84 190.276 202.712 188.125C204.976 188.342 208.964 188.019 210.691 189.201C213.495 191.355 216.406 193.292 219.317 195.23C221.998 197.04 224.678 198.85 227.355 200.664C227.3 200.681 227.245 200.702 227.19 200.719C227.297 200.826 227.407 200.826 227.513 200.936H227.51ZM230.022 201.004C233.614 199.795 237.024 197.895 240.341 196.092C242.718 194.762 245.268 193.68 247.315 191.966C245.691 197.833 244.342 203.776 243.145 209.761C238.72 206.889 234.371 203.945 230.022 201.004ZM172.271 180.303C171.139 179.757 170.151 179.451 169.401 179.513C164.333 180.588 160.669 175.422 155.817 174.776C153.23 174.347 148.378 175.099 147.948 171.653C148.839 170.54 154.496 172.443 156.547 172.327C157.193 172.543 157.995 171.406 157.562 170.977C157.131 170.76 155.924 170.255 155.494 170.042C153.553 169.18 148.918 167.782 148.161 165.738C148.915 165.631 149.562 165.954 150.209 166.167C151.072 166.49 151.826 166.707 152.689 167.029C153.443 167.246 154.307 167.569 155.06 167.782C155.924 168.105 157.001 168.428 157.971 168.105C158.89 167.648 158.859 166.604 158.298 166.171C158.298 166.171 158.298 166.171 158.298 166.167C158.298 166.167 158.294 166.167 158.291 166.167C158.195 166.095 158.085 166.04 157.961 166.009C157.961 166.009 157.954 166.009 157.95 166.009C156.966 165.545 155.907 165.157 154.847 164.769C153.336 164.123 149.565 162.615 149.565 160.571C149.782 160.465 150.105 160.465 150.319 160.465C151.072 160.681 151.829 160.788 152.583 161.111C153.983 161.863 155.387 162.509 156.894 163.155C156.994 163.199 157.097 163.244 157.2 163.285C157.988 163.914 158.804 164.511 159.698 164.986C160.345 165.202 160.775 164.446 160.239 164.017C159.485 163.155 158.515 162.725 157.651 161.973C156.034 160.681 154.2 159.389 152.906 157.668C153.77 157.668 154.523 157.991 155.387 158.098C156.127 158.204 156.763 158.307 157.496 158.414C159.127 161.255 162.1 162.859 164.55 164.879C164.873 165.095 165.197 164.986 165.413 164.773C165.954 163.804 163.69 162.835 163.149 162.083C161.315 160.468 159.268 159.176 158.298 156.81C164.89 160.719 170.468 166.064 176.754 170.454C176.748 170.465 176.741 170.472 176.734 170.482C174.9 172.959 173.283 175.542 172.636 178.555C172.636 178.946 172.402 179.658 172.271 180.314V180.303ZM187.514 191.032C184.489 189.235 177.869 183.357 173.155 180.76C173.307 180.31 173.458 179.857 173.606 179.407C174.253 176.93 175.44 174.779 176.947 172.732C177.257 172.217 177.57 171.701 177.976 171.282C178.385 171.554 178.795 171.825 179.211 172.086C187.727 176.284 205.193 184.25 214.359 181.99C231.501 177.04 243.685 162.615 260.177 155.94V156.157C256.619 163.8 253.708 171.657 251.227 179.623C249.965 183.1 248.84 186.614 247.821 190.163C247.611 190.077 247.357 190.09 247.129 190.279C246.483 190.925 245.729 191.355 245.082 191.787C243.248 193.186 241.094 194.048 239.043 195.233C235.809 196.954 232.681 198.785 229.34 199.97C229.141 200.029 228.952 200.09 228.762 200.159C222.937 196.215 217.112 192.292 211.121 188.562C209.074 186.624 205.083 186.841 202.389 186.947C198.724 187.593 205.73 191.468 206.487 192.653C208.21 194.051 209.938 195.559 211.878 196.635C212.742 199.541 214.036 202.341 214.683 203.845C206.703 205.03 194.199 195.343 187.514 191.035V191.032ZM236.029 227.627C233.335 225.69 231.071 223.213 228.697 220.846C225.569 217.401 222.228 214.065 219.424 210.407C216.513 205.456 213.602 200.29 212.415 194.69C212.955 194.474 214.462 197.49 215.326 198.459C214.139 201.258 217.373 203.196 219.101 204.917C220.394 205.992 228.587 214.604 223.735 208.363C221.471 205.563 218.344 203.625 216.19 200.719C215.543 199.427 215.973 198.242 217.483 198.782C225.246 202.873 230.314 211.052 238.183 214.927C235.813 218.586 234.842 223.43 236.026 227.627H236.029ZM251.661 239.778C251.455 242.049 251.348 244.319 251.341 246.594C251.193 246.703 251.048 246.848 250.907 246.992C250.584 247.315 250.261 247.638 249.83 247.961C247.996 249.469 246.379 250.973 244.549 252.588C242.718 254.203 240.668 255.817 238.727 257.325C238.462 257.525 238.156 257.679 237.86 257.823C237.867 257.731 237.867 257.634 237.867 257.542V250.331C237.973 249.362 237.973 248.287 238.084 247.208C238.19 245.271 238.407 243.333 238.624 241.396C238.73 240.534 238.84 239.565 238.947 238.706C239.164 237.737 239.271 236.769 239.377 235.906C239.484 234.831 239.594 233.646 239.807 232.571C239.869 232.203 239.931 231.839 239.99 231.472C243.72 233.117 249.328 234.381 251.94 235.226C251.826 236.71 251.668 238.208 251.668 239.785L251.661 239.778ZM310.85 240.867C294.895 245.171 269.02 236.669 252.308 233.869H252.091C248.103 232.901 244.112 231.609 240.231 230.211C239.8 230.211 239.367 229.888 238.937 229.781C238.83 229.781 238.72 229.781 238.72 229.675C235.379 226.875 236.779 217.621 239.367 215.573C239.584 215.467 246.806 215.144 248.206 215.034C250.47 215.034 252.734 214.817 254.999 214.817C255.862 214.817 256.616 214.817 257.479 214.711C267.936 215.034 278.609 216.325 288.959 214.711C291.117 214.281 289.823 209.328 289.713 208.146C287.989 199.967 287.125 191.677 286.585 183.388C286.155 177.682 285.508 171.98 285.938 166.38C285.938 165.734 286.368 162.182 285.615 163.258C283.891 170.039 284.751 177.036 285.292 183.924C285.615 193.505 287.556 202.87 288.849 212.341C288.956 212.88 288.526 213.309 287.986 213.416C277.312 214.924 266.422 213.309 255.642 213.309C258.013 193.612 263.835 174.453 270.197 155.618C271.707 154.219 272.891 152.495 273.214 150.451C278.606 154.219 283.888 149.376 287.769 145.824C289.709 144.103 292.19 142.917 294.238 141.303C297.902 145.071 302.324 147.761 306.422 150.884C316.341 157.771 318.819 169.073 318.282 180.375C318.065 194.367 316.448 208.253 316.448 222.244C316.018 227.734 317.312 238.82 310.843 240.867H310.85Z" fill="#020304"/>
    <path d="M105.255 157.126C105.361 157.555 104.931 157.988 104.501 157.878C102.991 157.339 97.1687 155.834 96.6319 155.618C94.3679 160.568 86.3886 167.242 84.9882 168.105C75.0683 175.315 62.9945 177.469 51.0274 175.315C46.1758 174.453 34.6388 171.117 26.5528 160.461C21.3779 153.68 18.1435 145.284 17.4966 136.672C16.3095 123.972 20.5142 109.331 34.9622 99.214C40.1372 95.339 48.6532 91.8935 52.3211 91.4641C86.3886 87.3727 99.0026 111.485 101.914 126.229C104.394 133.117 102.02 142.804 99.6495 149.585C99.6495 149.585 104.394 155.181 105.255 157.119V157.126Z" fill="#ADDDFF"/>
    <path d="M78.519 153.467C76.6851 143.35 69.4628 114.288 69.4628 114.288L64.9794 114.735L65.2547 122.172L63.4242 122.144C63.4242 122.144 62.1167 117.187 62.1167 115.463C62.1167 115.463 62.2302 114.072 55.7649 116.222L56.312 123.003L53.3873 123.11C52.7405 122.034 51.8768 119.341 51.5534 117.62L46.1616 118.379C46.5917 128.39 46.9324 151.2 47.7926 161.21C47.7926 161.21 50.9203 163.9 57.1722 164.333C65.1515 164.549 75.8249 160.997 78.519 153.46V153.467Z" fill="#EAF5FF"/>
    <path d="M68.6887 104.339C67.7184 105.631 66.3077 104.164 65.4474 105.566C62.5365 112.993 54.7637 109.314 55.7994 102.045C59.3538 102.962 60.6785 99.6503 62.7258 99.5438C64.9898 99.6503 66.7687 102.587 69.5695 102.804C69.5695 102.804 69.2289 104.233 68.6887 104.339Z" fill="#0079D0"/>
    <path d="M104.931 156.267C103.42 153.79 101.59 151.639 100.403 149.056C101.59 146.366 102.667 141.736 102.343 142.921C109.136 113.859 83.6907 86.3043 54.1513 90.5022C20.4073 94.9131 4.66897 135.384 26.6627 161.324C45.3153 183.928 81.9703 181.238 97.0617 156.157C98.7856 155.94 108.382 161.217 104.931 156.263V156.267ZM102.237 156.59C100.726 156.267 97.1684 154.113 96.1981 155.621C81.4267 180.056 45.8521 182.852 27.5229 160.788C6.92959 136.569 19.9772 98.5751 51.1337 92.1168C79.1661 85.8749 105.578 109.877 102.127 138.294C100.509 153.364 95.6579 144.645 104.284 157.239C103.637 157.023 102.884 156.81 102.237 156.593V156.59Z" fill="#020304"/>
    <path d="M70.3028 114.041C70.2443 113.776 70 113.597 69.7282 113.628C68.5858 113.749 65.6956 114.061 64.7218 114.216C64.5223 114.247 64.3743 114.419 64.3743 114.621C64.364 116.026 64.6117 121.423 64.6117 121.608H63.8582C63.6414 120.746 62.6849 116.05 62.4199 115.095C62.3442 114.817 62.069 114.645 61.7868 114.697C60.758 114.879 58.4527 115.284 58.0363 115.367C58.0363 115.367 57.8195 113.213 57.7129 112.567C57.4961 111.169 57.2828 109.661 57.066 108.263C57.7129 109.125 58.4664 109.984 59.5468 110.307C59.7636 110.413 60.087 110.413 60.4105 110.413H60.9507C62.8913 110.413 64.1851 108.905 65.0487 107.29C65.4788 106.538 65.8022 105.459 66.8827 105.353C68.0697 105.353 69.2534 105.676 69.7936 104.278C70.0103 103.848 70.0104 103.309 70.3338 102.986C70.4405 102.879 71.2456 102.598 70.9807 101.911C70.8121 101.474 70.0104 101.804 69.9037 101.911C68.0422 102.484 66.2736 100.877 65.7334 100.337C64.8698 99.5851 63.6861 99.1522 62.4991 99.4751C61.4221 99.6915 60.7374 100.08 59.8771 100.726C59.3369 101.155 58.9068 101.588 58.1533 101.694C57.5064 101.801 56.1473 101.423 56.1473 101.313C56.1473 101.203 55.9305 100.324 55.9064 100.107C55.8686 99.7843 55.5761 99.4614 55.2424 99.5404C54.709 99.6641 54.8123 100.186 54.8123 100.186C54.8123 100.403 55.1357 102.447 55.2424 103.092C55.349 103.845 55.4591 104.601 55.5658 105.246C55.7826 106.754 55.9959 108.259 56.3193 109.767C56.5361 111.165 57.3963 115.363 57.3963 115.473C57.3241 115.473 56.4157 115.638 55.9271 115.796C55.6897 115.872 55.5383 116.098 55.552 116.346C55.6277 117.651 55.9925 122.148 55.9925 122.364H53.6217C53.6217 122.278 52.4863 118.503 52.0562 117.084C51.9633 116.779 51.6605 116.586 51.3439 116.631L46.1965 117.349C45.8627 117.397 45.6184 117.682 45.6287 118.019C45.6838 120.097 47.2149 160.015 47.2149 161.736C47.2149 161.952 52.6893 165.666 61.8143 164.666C63.2147 164.45 64.5085 164.127 65.8022 163.804C67.096 163.374 68.3897 162.942 69.5768 162.406C70.7639 161.866 71.9475 161.22 73.0279 160.468C73.2447 160.362 73.3514 160.252 73.5682 160.145C74.6451 159.393 75.7255 158.531 76.5857 157.668C77.5561 156.806 79.39 154.333 79.4967 154.223C79.4967 154.223 70.5712 115.226 70.3097 114.041H70.3028ZM56.9834 107.246C56.7288 106.888 56.2781 102.505 56.2781 102.505C56.4948 102.721 58.377 103.082 59.392 102.179C62.9498 99.4889 63.5313 100.186 64.9317 101.478C65.6852 102.124 67.5433 102.859 69.0504 102.965C68.9437 103.395 68.345 104.302 68.0078 104.357C66.7313 104.563 65.9743 104.202 65.004 105.387C64.1403 106.462 63.4969 107.716 62.4853 108.654C60.4346 110.561 57.3413 107.754 56.9765 107.246H56.9834ZM77.1019 155.312C76.5617 155.958 75.8081 156.603 75.1613 157.249C74.4077 157.895 70.7398 160.156 69.6628 160.695C68.5859 161.234 67.5054 161.664 66.3218 162.093C65.2448 162.416 64.0577 162.739 62.9808 162.955C61.9038 163.172 60.8234 163.278 59.7464 163.385H56.6187C55.8652 163.278 55.0015 163.168 54.1379 163.062C53.491 162.845 52.7375 162.739 52.0906 162.522C51.5504 162.306 51.0136 162.093 50.5801 161.877C50.15 161.66 49.6098 161.337 49.1797 161.014C49.073 160.908 48.8562 160.798 48.7496 160.691C48.6429 159.077 48.5328 157.356 48.5328 155.741C48.4261 153.91 48.316 152.083 48.316 150.252C48.2093 148.421 48.0992 146.7 48.0992 144.869C47.9926 143.038 47.8825 141.317 47.8825 139.486C47.7758 137.655 47.6657 135.934 47.6657 134.103C47.559 132.272 47.4489 130.444 47.3423 128.613C47.2356 126.782 46.6954 118.709 46.5887 118.496C46.6954 118.496 51.1168 117.744 51.3336 117.744C51.3336 117.833 52.3934 121.708 52.7375 122.959C52.7994 123.185 53.0058 123.34 53.2433 123.336L56.7529 123.299C57.0075 123.299 57.2071 123.079 57.1864 122.825C57.066 121.375 56.7047 117.026 56.6153 116.669C57.2621 116.562 60.9266 115.916 60.9266 115.916C61.1434 115.916 61.3567 115.81 61.5735 115.81C61.6801 116.133 61.6801 116.456 61.7902 116.885C61.8797 117.421 62.6401 121.059 62.8947 122.278C62.9429 122.512 63.1494 122.677 63.3902 122.673C63.9132 122.667 64.8147 122.649 65.3549 122.594C65.5717 122.574 65.73 122.385 65.7128 122.165C65.5992 120.667 65.3446 115.143 65.3446 115.051C65.5614 115.051 69.3325 114.728 69.4426 114.728C69.6594 115.696 69.8727 116.772 70.0895 117.85C70.4129 119.465 70.843 120.973 71.1665 122.588C71.4899 124.202 71.92 125.71 72.2434 127.325C72.5669 128.939 72.997 130.554 73.3204 132.168C73.7505 133.783 74.074 135.398 74.3974 137.012C74.7208 138.627 75.1509 140.135 75.4744 141.749C75.7978 143.364 76.2279 144.979 76.5513 146.593C76.8748 148.208 78.2064 153.649 78.2064 153.649C78.2064 153.649 77.6283 154.776 77.0881 155.312H77.1019Z" fill="#020304"/>
    <path d="M14.8022 146.256C14.4787 146.04 14.3721 145.504 14.262 145.181C13.9385 143.996 13.6151 142.814 13.3983 141.629C12.428 137.431 12.5347 132.91 13.6151 128.713C13.8319 127.96 15.0155 128.283 14.8022 129.035C13.7252 132.588 13.5084 136.356 14.0486 140.015C14.2654 141.523 14.5888 142.921 14.8022 144.429C14.8022 144.645 15.449 146.473 14.8022 146.26V146.256Z" fill="#020304"/>
    <path d="M10.1675 138.074C9.95072 137.857 10.0608 137.428 10.0608 137.211C9.95416 135.597 10.0608 134.089 10.2776 132.474C10.4944 130.214 10.7077 127.953 11.2479 125.693C11.3546 125.264 11.8948 124.724 12.3249 125.047C12.6483 125.264 12.5416 125.693 12.3249 125.909C11.678 127.308 11.5713 128.816 11.2479 130.214C10.9245 132.474 10.601 134.735 10.601 136.995V137.857C10.4944 138.18 10.2776 138.18 10.1709 138.074H10.1675Z" fill="#020304"/>
    <path d="M105.148 122.467C104.824 122.038 104.931 121.605 104.824 121.069C104.607 119.994 104.394 118.915 104.071 117.84C103.317 115.58 101.913 113.749 100.73 111.705C100.623 111.488 100.406 111.275 100.406 111.059C100.406 110.842 100.513 110.629 100.836 110.629C101.053 110.629 101.266 110.846 101.483 111.059C103.1 112.89 104.611 115.04 105.581 117.301C106.011 118.486 106.228 119.668 106.445 120.853C106.445 121.282 106.662 121.821 106.552 122.251C106.121 122.79 105.364 122.897 105.151 122.467H105.148Z" fill="#020304"/>
    <path d="M106.441 117.624C106.118 116.655 105.901 115.58 105.364 114.611C104.717 113.213 103.854 111.921 102.994 110.519C102.777 110.09 102.347 109.657 102.347 109.228C102.347 108.798 102.887 108.798 103.1 109.011C103.747 109.551 104.177 110.303 104.717 111.055C105.688 112.241 106.551 113.639 106.981 115.037C107.198 115.683 107.412 116.435 107.628 117.081C107.735 117.404 107.522 117.727 107.198 117.943C107.092 118.05 106.658 117.943 106.445 117.62L106.441 117.624Z" fill="#020304"/>
    <path d="M71.0804 152.821C69.8934 150.99 68.7097 149.053 67.416 147.225C67.0925 146.796 67.1992 146.256 67.5226 145.933C70.6503 142.921 67.8461 136.998 63.1012 137.861C58.8965 138.613 57.9262 144.319 61.1606 146.473C61.484 146.689 61.7008 147.119 61.5907 147.548C60.9438 150.238 60.5137 153.038 59.8668 155.727C59.7602 157.342 59.7602 158.094 61.5907 157.988C64.3949 158.204 69.1364 155.404 70.8637 154.006C71.1871 153.79 71.2938 153.254 71.0804 152.821Z" fill="#020304"/>
</svg>
