<svg width="128" height="128" viewBox="0 0 128 128" fill="none" xmlns="http://www.w3.org/2000/svg">
<mask id="mask0_794_5310" style="mask-type:luminance" maskUnits="userSpaceOnUse" x="0" y="0" width="128" height="128">
<path d="M123.117 120.887C123.14 120.755 123.155 120.623 123.155 120.483V2.26585C123.155 1.01963 122.136 0 120.891 0H16.4536C15.2086 0 14.1899 1.01963 14.1899 2.26585V119.701C5.31604 120.536 0 121.593 0 122.749C0 125.43 28.6552 127.605 63.9998 127.605C99.3443 127.605 128 125.43 128 122.749C128 122.088 126.26 121.461 123.117 120.887Z" fill="white"/>
</mask>
<g mask="url(#mask0_794_5310)">
<path d="M63.9998 127.605C99.3458 127.605 128 125.431 128 122.749C128 120.066 99.3458 117.892 63.9998 117.892C28.6537 117.892 0 120.066 0 122.749C0 125.431 28.6537 127.605 63.9998 127.605Z" fill="black"/>
<path d="M116.247 58.4099C116.553 58.2966 118.307 56.3065 118.862 55.6418C121.318 52.5754 122.167 51.348 118.998 48.3495C118.466 48.0965 118.315 48.7385 118.243 49.1275C118.081 49.7619 117.918 50.3548 117.654 50.9817C117.062 52.2732 116.149 53.4024 114.994 54.237C114.753 54.4182 114.485 54.6033 114.202 54.7657C114.066 54.8185 113.923 54.9054 113.848 55.0187C113.508 54.6373 113.157 54.2634 112.791 53.9046C114.3 53.3457 115.462 52.0315 116.266 50.6758C117.062 49.339 117.507 47.5527 116.734 46.1101C116.141 45.0489 114.768 44.9017 113.67 44.9394C112.029 45.0603 110.682 45.0905 107.615 49.7506C105.358 48.1872 103.449 47.2053 101.008 45.9591C98.7672 44.8677 96.3526 44.2257 93.9869 43.4704C93.3267 43.2703 92.674 43.0512 92.0213 42.836C92.1458 42.6018 92.1873 42.2808 92.274 41.9976C92.689 40.521 93.3946 39.0973 93.3833 37.5339C93.4135 36.5558 92.9192 35.049 91.6893 35.3133C90.4932 35.7476 89.1161 37.2355 88.3314 38.2401C88.1993 38.4553 87.9352 38.6479 87.9842 38.9274C88.0371 39.1993 88.3992 39.2861 88.5803 39.0822C89.1274 39.8073 89.5123 40.6343 89.799 41.4991C89.8745 41.7446 89.965 41.9976 90.0858 42.2242C89.2557 41.9825 88.4181 41.7748 87.5617 41.6388C84.6377 41.2461 80.28 40.6456 77.3258 40.842C75.6884 41.0271 75.4507 41.5897 73.8811 42.0845C72.3871 42.5074 71.0288 43.3911 69.5197 43.731C67.7011 42.87 66.6485 44.1388 64.9092 44.4485C64.3508 44.5656 63.7132 44.5807 63.1321 44.5467C62.17 44.4938 60.5892 43.5535 59.7931 44.3125C59.0951 44.913 59.5668 46.3556 59.2914 47.16C59.1216 47.5074 58.699 47.5791 58.3934 47.768C57.1295 48.4628 55.9863 49.3578 54.8431 50.2377C50.9683 53.342 47.052 56.5444 44.1394 60.6078C42.1737 63.3306 40.8079 66.4197 39.3666 69.4371C37.7066 73.2966 36.2012 77.2316 35.0316 81.2723C34.2694 84.0253 30.4852 98.8629 29.6174 110.777C28.7119 118.047 27.6329 125.298 27.1613 132.613C26.8217 136.087 102.114 141.88 101.993 141.325C100.888 135.404 100.371 129.388 99.2388 123.47C99.5595 123.191 99.3331 122.194 99.3143 121.774C99.0917 119.588 98.7936 117.409 98.4163 115.245C97.8655 112.416 97.3939 109.577 96.9487 106.733C96.9939 106.525 96.9864 106.28 96.9675 106.106C96.9298 105.317 96.8657 104.528 96.8128 103.738C96.5336 99.0668 95.7338 94.4407 94.7453 89.8713C93.8549 85.6681 93.0588 79.6862 93.2625 79.9053C93.8926 80.4831 95.2773 78.6062 95.7526 78.1908C96.5563 77.3298 97.4354 76.5367 98.1975 75.6379C99.4162 74.2029 103.208 76.3366 105.864 77.0881C107.901 77.6999 113.463 80.3584 116.647 77.258C118.084 75.8607 119.19 74.0632 119.616 72.1108C120.009 69.9507 119.692 67.7339 119.05 65.6418C119.05 64.7505 117.239 59.8223 116.258 58.4099H116.247Z" fill="#C2E3FA"/>
<path d="M99.6163 42.2581C99.9445 42.3827 100.254 42.0995 100.544 41.9824C101.035 41.7332 101.529 41.4877 102.008 41.2234C102.046 41.2007 102.076 41.1743 102.103 41.1479C102.687 40.8269 103.25 40.4417 103.819 40.1207C103.736 40.4454 103.457 40.8193 103.435 41.1667C103.378 41.2158 103.329 41.28 103.299 41.3631C103.05 41.6652 103.035 42.1524 103.506 42.1977C104.163 42.1071 104.77 41.7634 105.396 41.5482C105.457 41.5217 105.506 41.4877 105.54 41.45C105.8 41.3329 106.049 41.2158 106.283 41.1403C106.272 41.5217 105.993 41.8352 105.981 42.2166C105.981 42.2619 105.981 42.2997 105.993 42.3412C105.917 42.4356 105.842 42.5338 105.785 42.6433C105.664 42.9039 105.86 43.2098 106.143 43.2173C106.574 43.2098 106.966 42.9832 107.37 42.8472C107.996 42.6131 108.611 42.3412 109.199 42.0278C109.347 41.9447 109.399 41.8163 109.388 41.6917C109.86 41.4877 110.335 41.3027 110.837 41.197C111.739 41.7747 111.486 42.5905 113.055 42.9908C114.602 43.1758 113.934 40.8269 113.365 40.166C112.648 39.2332 111.346 39.2861 110.282 38.9273C109.765 38.7574 109.267 38.527 108.815 38.2211C108.203 37.7831 107.592 37.2544 106.792 37.2695C106.37 37.2544 105.951 37.3035 105.528 37.311C105.144 37.3828 104.453 37.1335 104.317 37.6433C104.11 37.3375 103.68 37.4734 103.382 37.5414C102.201 37.8322 101.205 38.5912 100.439 39.5127C100.028 39.9394 99.3183 40.9477 99.5899 41.4575C99.3673 41.6803 99.2806 42.1033 99.6126 42.2581H99.6163Z" fill="#C2E3FA"/>
<path d="M38.989 63.6063C39.2758 63.8291 39.6757 63.3344 39.3739 63.1078C39.0834 62.8737 38.6985 63.3797 38.989 63.6063Z" fill="#C2E3FA"/>
<path d="M103.536 52.8245C103.174 52.4696 103.034 51.9484 102.748 51.533C102.442 51.0232 102.042 50.5511 101.521 50.2566C101.023 49.9582 100.344 49.9582 99.8085 49.9733C97.4995 49.9922 95.1452 51.5066 94.0284 53.4967C93.5983 54.2973 93.2889 55.2263 93.4398 56.144C93.6322 57.107 93.9643 58.1153 94.6585 58.8328C95.3338 59.4899 96.3902 59.32 97.258 59.3464H97.224C99.3406 59.354 101.34 58.1153 102.378 56.2988C102.963 55.2188 102.921 53.8933 103.536 52.8283V52.8245ZM116.613 50.8306C117.024 50.0111 117.145 49.0368 117.168 48.1531C117.081 47.024 116.504 45.8344 115.466 45.3057C114.281 44.7279 112.829 44.7959 111.659 45.3737C110.569 45.925 109.46 46.5708 108.709 47.5564C107.95 48.6705 107.434 49.9847 107.55 51.3517C107.558 51.7936 107.69 52.2619 107.532 52.6886C108.901 53.6818 109.135 54.5995 111.086 54.4786C112.697 54.4295 113.946 53.4816 115.092 52.4922C115.655 52.0013 116.236 51.4915 116.609 50.8306H116.613ZM117.364 45.1395C118.352 46.5141 118.586 48.3193 118.205 49.9469C117.688 51.7143 116.507 53.2626 115.032 54.3502C113.466 55.5247 111.527 56.465 109.52 56.1629C108.245 55.9741 107.026 55.5171 105.868 54.962C105.6 54.8336 105.317 54.6939 105.098 54.4862C104.917 54.2936 104.796 54.0972 104.725 53.9084C104.626 54.8978 103.944 56.0081 103.51 56.7105C101.778 59.4446 98.654 61.4461 95.3451 61.1478C93.8171 61.0382 92.4778 60.2301 91.2176 59.4257C90.1348 58.746 89.0708 58.036 88.0748 57.2316C87.1202 56.5103 86.2826 55.5322 86.0902 54.3162C85.8978 52.6773 86.426 51.0081 87.3202 49.6448C87.7993 48.9008 88.3389 48.1795 89.067 47.6659C90.6743 46.4915 92.7833 46.6879 94.5943 47.209C95.8054 47.5073 97.0467 47.6697 98.2616 47.953C99.5368 48.2853 100.869 48.5194 102.061 49.101C103 49.5693 104.46 51.5972 104.366 52.6395C104.521 52.817 104.619 53.0134 104.676 53.2248C104.676 53.2097 104.683 53.1946 104.687 53.1833C104.43 52.1108 104.144 51.1025 103.506 50.1886C103.249 49.7619 102.861 49.4409 102.419 49.2218C100.94 48.5572 99.3708 48.1229 97.8315 47.6169C96.8543 47.3299 95.945 47.1524 94.9641 46.9635C94.5906 46.8956 94.2171 46.82 93.8435 46.7672C93.753 46.7558 93.6586 46.7407 93.587 46.6803C93.4625 46.5859 93.4247 46.4008 93.4926 46.2611C93.4964 46.1516 93.519 46.0421 93.5417 45.9477C93.9039 44.5542 94.9226 43.4175 96.0997 42.6358C96.8203 42.1637 97.5749 41.6992 98.3974 41.4311C98.62 41.3895 98.8766 41.4198 99.0162 41.6199C99.1973 41.8692 99.0502 42.1901 99.1407 42.4583C100.008 42.5376 101.163 41.7445 101.94 41.3593C102.234 41.1818 102.672 40.9062 102.948 41.2574C103.408 41.7785 101.729 43.021 103.181 42.5716C104.012 42.277 104.698 41.8729 105.483 41.5368C105.826 41.2989 106.328 41.5444 106.143 41.9862C105.868 42.4583 105.106 42.8397 105.102 43.4326C105.577 43.8065 106.215 43.3117 106.709 43.172C107.596 42.8661 108.452 42.4016 109.388 42.2695C110.674 42.2317 111.916 42.7113 113.146 43.0361C114.621 43.5194 116.326 43.8895 117.352 45.1433L117.364 45.1395Z" fill="#3F3D56"/>
<path d="M96.9405 51.2422C96.5255 51.1176 95.9445 51.8351 95.6615 52.107C94.922 52.5149 94.6127 53.4363 94.2693 54.1652C93.1412 56.6387 93.7071 59.2105 96.7028 59.6485C99.5627 60.2188 103.264 56.2158 103.23 53.4703C103.128 49.8261 99.4155 48.9764 96.9405 51.2385V51.2422Z" fill="#C2E3FA"/>
<path d="M111.399 45.6004C110.686 45.9365 110.094 46.4766 109.562 47.0468C109.275 47.2319 109.082 47.5302 108.894 47.8059C108.75 47.9796 108.615 48.1609 108.479 48.3421C108.403 48.4479 108.384 48.58 108.426 48.6933C107.803 50.1322 107.32 52.0392 108.135 53.4856C108.705 54.3278 109.788 54.6374 110.758 54.6714C112.146 54.7205 113.338 53.8179 114.38 52.9985C116.466 51.3784 118.334 48.2439 116.477 45.7855C115.176 44.3165 112.957 44.898 111.399 45.6004Z" fill="#C2E3FA"/>
<path d="M28.5081 117.779C28.493 117.73 28.4704 117.681 28.4327 117.632C27.2744 116.62 25.1276 114.558 23.7203 116.227C22.9657 117.156 22.7884 118.421 22.679 119.577C22.4979 121.718 22.9619 123.84 23.6637 125.853C24.2221 127.526 24.8786 129.161 25.5124 130.804C25.603 131.034 25.6898 131.261 25.7841 131.491C25.9086 131.733 25.9463 132.076 26.2066 132.212C26.2444 132.231 26.2859 132.239 26.3236 132.243C26.3123 132.718 26.3576 133.123 26.5462 133.228C26.6028 133.258 26.6556 133.274 26.7047 133.274C26.9159 133.274 27.0782 133.036 27.0442 132.813C27.0442 132.394 27.0631 131.974 27.1008 131.555C27.3196 129.199 27.7271 126.865 27.9195 124.509C28.044 123.259 28.1874 122.012 28.3195 120.762C28.4025 119.931 28.4855 119.101 28.5421 118.266C28.5685 118.104 28.576 117.919 28.5043 117.783L28.5081 117.779Z" fill="#0079D0"/>
<path d="M32.1339 89.7355C31.5869 89.5164 31.0209 89.3314 30.4361 89.2294C29.591 89.0972 28.6101 89.0104 27.9121 89.6071C26.4293 90.9439 25.9501 93.0965 25.8936 95.0224C25.9652 97.8094 26.8632 100.506 27.7461 103.123C28.0441 103.98 28.3384 104.837 28.6515 105.687C28.8704 106.14 28.927 106.816 29.4476 107.031C29.4854 107.039 29.5231 107.043 29.5571 107.043C30.2135 107.043 30.04 105.596 30.1305 105.124C30.2173 103.75 30.3192 102.375 30.5644 101.019C30.9304 98.9801 31.2473 96.9333 31.6623 94.9054C31.9378 93.4175 32.3301 91.9371 32.481 90.4303C32.7867 90.1131 32.4546 89.811 32.1264 89.7279L32.1339 89.7355Z" fill="#0079D0"/>
<path d="M42.1625 60.7437C41.1816 60.5171 40.1441 60.5058 39.1405 60.57C36.8956 60.6191 35.2355 61.533 34.2093 63.5685C32.1116 67.5413 33.5415 73.8403 35.028 77.8698C35.1865 78.0473 35.3298 78.119 35.4581 78.119C36.0278 78.119 36.3259 76.6802 36.4881 76.2157C36.673 75.5624 36.8503 74.909 37.0691 74.2633C38.6613 69.8675 40.5063 65.5247 43.1511 61.65C43.3058 61.6198 43.4001 61.465 43.4076 61.3177C43.3774 60.8117 42.5323 60.8683 42.1625 60.7362V60.7437Z" fill="#0079D0"/>
<path d="M59.1179 45.6758C58.8764 45.2264 58.2841 45.0489 57.8804 44.7619C57.1145 44.3087 56.292 43.9084 55.4205 43.7271C54.3942 43.5647 53.3718 44.0104 52.5418 44.5844C51.2929 45.4001 50.4553 46.6727 49.8743 48.0247C49.4253 49.0972 47.0899 54.5201 47.7917 55.249C47.8747 55.317 47.969 55.3472 48.0633 55.3472C48.6406 55.3472 49.3876 54.2633 49.7837 53.965C51.0741 52.6961 52.5304 51.5103 53.9943 50.4378C55.3827 49.4106 56.873 48.5383 58.401 47.7377C58.7557 47.564 59.0387 47.277 59.2047 46.9182C59.3329 46.5557 59.6574 45.8344 59.1179 45.6795V45.6758Z" fill="#0079D0"/>
<path d="M74.2467 40.9289C73.5374 40.54 72.8319 40.1321 72.2584 39.5543C70.0777 37.3867 73.2582 34.29 74.0883 32.1563C75.2126 29.8414 75.0919 26.5974 72.8659 24.9849C72.7338 24.8867 72.598 24.7923 72.4621 24.6979C72.315 24.5582 72.1641 24.4222 72.0019 24.2976C70.7945 23.3724 69.3005 22.923 67.8743 22.4509C66.8104 22.1639 65.769 21.7674 64.6824 21.5937C64.5504 21.5786 64.3881 21.5597 64.2712 21.6503C64.2448 21.6692 64.2221 21.6919 64.2033 21.7183C64.0222 21.6654 63.8449 21.6088 63.6638 21.5521C62.2527 21.1594 60.8718 20.6231 59.6984 19.7243C59.3438 19.46 59.0042 19.1805 58.6722 18.8935C58.4345 18.7198 58.227 18.4366 57.9365 18.3648C57.4611 17.9947 57.197 18.7651 57.2196 19.1466C57.1027 20.6987 58.3402 21.8014 59.4607 22.6662C60.5058 23.4743 61.5585 24.2674 62.6526 25.0113C64.3617 26.0083 65.8784 27.5151 65.5917 29.6677C65.0145 34.3504 61.4453 38.0135 66.5048 41.6578C67.5084 42.4282 68.478 43.2325 69.3457 44.1615C70.1984 44.9621 70.7304 45.9667 70.7228 47.16C70.7115 48.5535 70.6134 48.9614 72.183 49.1577C72.598 49.2106 73.0168 49.2408 73.4356 49.2408C73.9223 49.2408 74.4052 49.1993 74.8806 49.0935C75.9219 48.8481 76.884 48.3005 77.665 47.583C78.7742 46.6993 78.861 45.049 78.0838 43.9199C77.1821 42.5339 75.6351 41.7446 74.2429 40.9365L74.2467 40.9289Z" fill="#0079D0"/>
<path d="M88.9842 20.1622C87.6637 18.7498 85.8301 17.953 84.5322 16.5066C84.0229 15.9553 83.6682 15.3435 83.3324 14.6638C83.1513 14.2974 82.9702 13.9311 82.7099 13.6139C82.5552 13.4477 82.4043 13.2061 82.1628 13.1758C81.5894 12.6925 81.28 13.7159 81.2611 14.1615C81.1593 15.3095 81.6874 16.3896 82.227 17.3677C83.1249 19.0444 84.3398 20.7098 84.9133 22.5678C85.317 23.9349 84.6227 25.3284 83.7814 26.3782C82.2647 28.1229 80.0877 29.9092 80.2651 32.4507C80.4914 34.641 81.6195 36.5821 82.4533 38.5798C82.6835 39.1274 82.6458 39.7354 82.5628 40.3132C82.5099 41.0043 82.11 41.6085 82.0459 42.292C82.0232 42.783 82.1591 43.3381 82.5779 43.6327C82.7552 43.761 82.9174 43.8139 83.0721 43.8139C83.4192 43.8139 83.7286 43.5534 84.0417 43.2966C84.4039 42.9982 84.7775 42.6961 85.2302 42.7981C85.6075 42.8434 85.9131 43.0888 86.2678 43.1946C86.5206 43.255 86.7431 43.1417 86.9657 43.0284C87.1846 42.9151 87.4034 42.8056 87.6599 42.8623C88.0674 42.9189 88.3843 43.221 88.7843 43.2777C90.0897 43.1644 89.6596 41.3819 89.2823 40.5775C88.8258 39.6825 88.2862 38.8253 87.709 38.0058C86.6752 36.6161 85.5547 34.9658 86.9921 33.4023C87.8524 32.3525 89.1767 31.8502 90.1123 30.8721C91.7498 29.3314 93.1721 26.9824 92.4968 24.6675C91.9535 22.7528 90.3198 21.5142 88.9842 20.1509V20.1622Z" fill="#0079D0"/>
<path d="M111.681 68.4968C111.595 68.5043 111.515 68.5496 111.459 68.6138C110.991 68.5421 110.689 69.101 110.519 69.4598C110.085 70.3699 110.365 71.6803 111.395 72.0277C111.519 72.0617 111.644 72.0768 111.772 72.0768C112.443 72.0768 113.111 71.6312 113.458 71.0761C113.685 70.6569 113.798 70.1433 113.658 69.675C113.398 68.8631 112.511 68.3722 111.681 68.4968Z" fill="#0079D0"/>
<path d="M119.424 68.0437C119.397 67.6019 119.341 67.1638 119.273 66.7295C119.262 66.6464 119.22 66.5747 119.167 66.518C119.345 66.4047 119.333 66.1215 119.148 66.0158C118.665 65.8232 118.118 66.3972 117.877 66.7711C117.345 67.5868 117.462 69.086 118.552 69.3466C118.601 69.3541 118.65 69.3579 118.696 69.3579C119.326 69.3579 119.488 68.5762 119.424 68.0399V68.0437Z" fill="#0079D0"/>
<path d="M86.6863 41.5258C86.7316 41.6617 86.7731 41.7977 86.8184 41.9336C86.7769 41.7637 86.7316 41.5937 86.6863 41.4238C86.675 41.4238 86.6637 41.42 86.6523 41.4163C86.6637 41.4465 86.6712 41.4767 86.6826 41.5069C86.6826 41.5069 86.6826 41.5144 86.6826 41.5182V41.5258H86.6863Z" fill="black"/>
<path d="M103.2 47.432C103.2 47.432 103.211 47.4395 103.215 47.4395C103.208 47.4395 103.204 47.432 103.196 47.4282L103.2 47.432Z" fill="black"/>
<path d="M103.192 47.4282C103.192 47.4282 103.2 47.432 103.204 47.4358C103.204 47.4358 103.2 47.4358 103.196 47.4358L103.192 47.4282Z" fill="black"/>
<path d="M111.206 72.1334C111.481 72.2618 111.783 72.3223 112.081 72.3223C112.232 72.3223 112.387 72.3071 112.538 72.2769H112.541C112.541 72.2769 112.553 72.2769 112.56 72.2732C112.613 72.2618 112.681 72.2429 112.749 72.2203C113.017 72.1296 113.266 71.9899 113.477 71.8049C113.7 71.6085 113.873 71.3744 114.001 71.1062C114.073 70.9552 114.126 70.7928 114.16 70.6304C114.284 69.9884 114.115 69.2898 113.669 68.8026C113.447 68.5572 113.179 68.3608 112.87 68.2362C112.621 68.138 112.349 68.0624 112.081 68.0851C110.813 68.1871 110.251 69.2029 110.206 69.2973C110.01 69.6901 109.934 70.1433 110.013 70.5775C110.074 70.9061 110.198 71.2195 110.402 71.4839C110.613 71.7633 110.889 71.9862 111.209 72.1334H111.206ZM110.704 69.9053C110.719 69.8411 110.734 69.7769 110.753 69.7165C110.859 69.4597 111.096 69.2256 111.145 69.1803C111.191 69.1387 111.24 69.101 111.289 69.067C111.334 69.0368 111.383 69.0065 111.436 68.9801C111.492 68.9537 111.549 68.9272 111.606 68.9046C111.67 68.8819 111.73 68.863 111.794 68.8517C111.855 68.8404 111.915 68.8328 111.975 68.8253C112.036 68.8253 112.096 68.8215 112.156 68.8253C112.221 68.8291 112.281 68.8366 112.341 68.8479C112.398 68.8593 112.455 68.8744 112.511 68.8933C112.571 68.9121 112.628 68.9386 112.685 68.965C112.734 68.9914 112.783 69.0179 112.832 69.0481C112.881 69.0821 112.93 69.1161 112.975 69.1538C113.02 69.1954 113.066 69.2369 113.111 69.2822C113.149 69.3238 113.186 69.3691 113.217 69.4144C113.251 69.4673 113.285 69.5201 113.315 69.5768C113.341 69.6297 113.364 69.6825 113.386 69.7392C113.405 69.7996 113.424 69.86 113.439 69.9204C113.451 69.9846 113.462 70.0451 113.466 70.1093C113.469 70.1735 113.469 70.2339 113.466 70.2981C113.462 70.3585 113.454 70.4189 113.443 70.4793C113.432 70.5398 113.413 70.6002 113.394 70.6644C113.375 70.7173 113.356 70.7664 113.334 70.8154C113.307 70.8721 113.277 70.925 113.243 70.9816C113.209 71.0307 113.175 71.076 113.137 71.1213C113.1 71.1629 113.058 71.2044 113.017 71.246C112.971 71.2875 112.926 71.3253 112.877 71.3592C112.828 71.3932 112.779 71.4235 112.73 71.4499C112.673 71.4801 112.617 71.5028 112.556 71.5254C112.496 71.5481 112.436 71.5632 112.375 71.5783C112.315 71.5896 112.255 71.6009 112.19 71.6047C112.126 71.6085 112.058 71.6085 111.994 71.6047C111.934 71.6009 111.874 71.5934 111.813 71.5821C111.753 71.5707 111.696 71.5556 111.636 71.5368C111.583 71.5179 111.526 71.4952 111.477 71.4726C111.425 71.4461 111.372 71.4159 111.319 71.3819C111.274 71.3517 111.228 71.3177 111.187 71.2837C111.138 71.2384 111.089 71.1931 111.043 71.144C111.002 71.0987 110.964 71.0496 110.93 71.0005C110.896 70.9514 110.866 70.8985 110.836 70.8457C110.81 70.789 110.783 70.7324 110.76 70.6757C110.742 70.6153 110.727 70.5549 110.711 70.4982C110.7 70.434 110.689 70.3661 110.681 70.3019C110.681 70.2339 110.677 70.1697 110.681 70.1017C110.685 70.0375 110.696 69.9771 110.704 69.9129V69.9053Z" fill="black"/>
<path d="M116.446 51.4765C117.009 50.6155 117.412 49.6298 117.51 48.6026C117.575 47.9569 117.518 47.2922 117.292 46.6804C117.122 46.2273 116.861 45.8043 116.518 45.4644C116.465 45.4116 116.401 45.3814 116.337 45.3662C116.265 45.2907 116.186 45.2228 116.103 45.1586C115.82 44.9357 115.496 44.7734 115.156 44.6563C114.024 44.2749 112.753 44.4637 111.67 44.9131C110.606 45.3587 109.659 46.0536 108.886 46.9033C108.886 46.9033 108.878 46.9108 108.874 46.9146C108.87 46.9221 108.863 46.9259 108.859 46.9335C108.757 47.0468 108.652 47.1714 108.55 47.296C107.867 48.1533 107.35 49.1578 107.127 50.2341C106.905 51.3103 107.007 52.481 107.622 53.4138C108.04 54.0482 108.671 54.5014 109.387 54.7355C110.036 54.9508 110.734 54.981 111.41 54.8828C111.662 54.8451 111.915 54.7922 112.157 54.7242C112.941 54.5014 113.685 54.1275 114.349 53.6555C115.175 53.0664 115.888 52.3262 116.443 51.4765H116.446ZM112.851 53.6895C112.606 53.8028 112.353 53.901 112.096 53.9803C111.889 54.0445 111.678 54.0936 111.466 54.1351C111.255 54.1691 111.044 54.1917 110.832 54.2031C110.663 54.2068 110.497 54.2031 110.327 54.188C110.183 54.1729 110.04 54.1502 109.9 54.12C109.772 54.0898 109.644 54.052 109.519 54.0067C109.402 53.9652 109.293 53.9161 109.184 53.8594C109.086 53.8066 108.991 53.7499 108.901 53.6895C108.814 53.6291 108.731 53.5611 108.652 53.4893C108.572 53.4176 108.497 53.3383 108.429 53.259C108.357 53.1721 108.286 53.0815 108.225 52.9833C108.165 52.8851 108.105 52.7831 108.056 52.6774C108.003 52.5603 107.954 52.4395 107.912 52.3149C107.871 52.1789 107.837 52.0392 107.81 51.8995C107.784 51.7446 107.769 51.586 107.761 51.4274C107.757 51.2461 107.761 51.0649 107.776 50.8836C107.795 50.6759 107.829 50.472 107.874 50.268C107.927 50.0452 107.991 49.8224 108.071 49.6072C108.161 49.3617 108.267 49.1238 108.384 48.8934C108.52 48.6366 108.671 48.3836 108.833 48.1457C109.014 47.8851 109.21 47.6397 109.421 47.4017C109.644 47.1601 109.878 46.9297 110.127 46.7144C110.368 46.5105 110.621 46.3217 110.885 46.148C111.142 45.9818 111.406 45.8345 111.681 45.7024C111.93 45.5853 112.191 45.4833 112.451 45.4002C112.677 45.3323 112.904 45.2756 113.134 45.2341C113.326 45.2039 113.519 45.1812 113.715 45.1737C113.896 45.1661 114.077 45.1737 114.254 45.1888C114.402 45.2039 114.549 45.2265 114.692 45.2605C114.824 45.2907 114.956 45.3323 115.084 45.3776C115.205 45.4229 115.322 45.4758 115.435 45.5324C115.556 45.5966 115.673 45.6646 115.786 45.7439C115.828 45.7703 115.865 45.8005 115.907 45.8308C115.922 45.8836 115.952 45.9365 115.994 45.978C116.043 46.0271 116.088 46.0762 116.133 46.1253C116.209 46.2122 116.277 46.3066 116.341 46.401C116.405 46.4992 116.462 46.6049 116.514 46.7107C116.571 46.8315 116.62 46.9561 116.658 47.0845C116.699 47.2205 116.729 47.3564 116.756 47.4962C116.782 47.6472 116.797 47.802 116.805 47.9569C116.809 48.1381 116.805 48.3232 116.79 48.5045C116.767 48.7084 116.737 48.9085 116.692 49.1087C116.639 49.3315 116.575 49.5505 116.499 49.7658C116.405 50.0226 116.296 50.268 116.171 50.5097C116.035 50.7665 115.888 51.012 115.726 51.2499C115.549 51.5067 115.352 51.7522 115.145 51.9825C114.922 52.228 114.685 52.4546 114.436 52.6698C114.187 52.8813 113.922 53.0777 113.647 53.2552C113.39 53.4176 113.126 53.5649 112.855 53.6933L112.851 53.6895Z" fill="black"/>
<path d="M102.382 50.4871C102.31 50.4116 102.231 50.3436 102.148 50.2794C101.865 50.0566 101.541 49.8942 101.201 49.7771C100.069 49.3957 98.7977 49.5845 97.7149 50.0339C96.651 50.4795 95.704 51.1744 94.9305 52.0241C94.9305 52.0241 94.923 52.0316 94.9192 52.0354C94.9116 52.043 94.9078 52.0468 94.9041 52.0543C94.8022 52.1676 94.6966 52.2922 94.5947 52.4168C93.9118 53.2741 93.3949 54.2786 93.1723 55.3549C92.9497 56.4312 93.0516 57.6019 93.6666 58.5346C94.0854 59.1691 94.7154 59.6222 95.4323 59.8564C96.0812 60.0716 96.7792 60.1019 97.4546 60.0037C97.7073 59.9659 97.9601 59.913 98.2016 59.8451C98.9864 59.6222 99.7296 59.2484 100.394 58.7763C101.22 58.1872 101.933 57.447 102.488 56.5973C103.05 55.7363 103.453 54.7507 103.552 53.7235C103.616 53.0777 103.559 52.4131 103.333 51.8013C103.163 51.3481 102.903 50.9252 102.559 50.5853C102.506 50.5324 102.442 50.5022 102.378 50.4871H102.382ZM102.801 52.6208C102.823 52.7718 102.842 52.9267 102.846 53.0815C102.85 53.2628 102.846 53.4478 102.831 53.6291C102.812 53.833 102.778 54.0332 102.733 54.2333C102.68 54.4561 102.616 54.6751 102.54 54.8904C102.446 55.1472 102.337 55.3964 102.212 55.6381C102.076 55.8949 101.929 56.1404 101.763 56.3783C101.586 56.6351 101.39 56.8806 101.182 57.1109C100.96 57.3564 100.722 57.583 100.473 57.7982C100.224 58.0097 99.9598 58.2061 99.6844 58.3836C99.4278 58.546 99.1637 58.6932 98.8921 58.8216C98.6468 58.9349 98.394 59.0331 98.1375 59.1124C97.93 59.1766 97.7187 59.2257 97.5074 59.2673C97.2961 59.3013 97.0848 59.3239 96.8736 59.3352C96.7038 59.339 96.5377 59.3352 96.368 59.3201C96.2246 59.305 96.0812 59.2824 95.9416 59.2522C95.8133 59.222 95.6851 59.1842 95.5606 59.1389C95.4436 59.0973 95.3342 59.0482 95.2248 58.9916C95.1267 58.9387 95.0324 58.8821 94.9418 58.8216C94.8551 58.7612 94.772 58.6933 94.689 58.6215C94.6098 58.5497 94.5344 58.4704 94.4664 58.3911C94.3948 58.3043 94.3231 58.2136 94.2627 58.1155C94.1986 58.0173 94.142 57.9153 94.0929 57.8096C94.0401 57.6925 93.9911 57.5717 93.9496 57.447C93.9081 57.3111 93.8741 57.1714 93.8477 57.0316C93.8213 56.8768 93.8062 56.7182 93.7986 56.5596C93.7949 56.3783 93.7987 56.197 93.8137 56.0158C93.8326 55.8081 93.8665 55.6041 93.9118 55.4002C93.9646 55.1774 94.0288 54.9546 94.108 54.7393C94.1985 54.4939 94.3042 54.256 94.4212 54.0256C94.557 53.7688 94.7079 53.5158 94.8701 53.2779C95.0512 53.0173 95.2474 52.7718 95.4587 52.5339C95.6813 52.2922 95.9152 52.0619 96.1643 51.8466C96.4057 51.6427 96.6585 51.4539 96.9226 51.2801C97.1792 51.114 97.4433 50.9667 97.7187 50.8345C97.9677 50.7175 98.228 50.6155 98.4883 50.5324C98.7147 50.4644 98.9411 50.4078 99.1712 50.3663C99.2052 50.3625 99.2392 50.3549 99.2731 50.3511C99.4316 50.3285 99.5901 50.3134 99.7523 50.3058C99.9334 50.2983 100.111 50.3058 100.292 50.3209C100.439 50.336 100.586 50.3587 100.729 50.3889C100.862 50.4191 100.994 50.4607 101.122 50.506C101.243 50.5513 101.36 50.6042 101.476 50.6608C101.597 50.725 101.714 50.793 101.827 50.8723C101.869 50.9025 101.907 50.9289 101.948 50.9591C101.963 51.012 101.993 51.0649 102.035 51.1064C102.084 51.1555 102.129 51.2046 102.174 51.2537C102.25 51.3406 102.318 51.435 102.382 51.5294C102.446 51.6276 102.503 51.7333 102.552 51.8391C102.608 51.9599 102.657 52.0845 102.695 52.2129C102.737 52.3489 102.767 52.4848 102.793 52.6245L102.801 52.6208Z" fill="black"/>
<path d="M100.748 53.1946C99.3858 53.8177 98.0465 54.4899 96.7373 55.215C96.4845 55.3547 96.2354 55.4945 95.9902 55.6417C95.7601 55.8041 95.3866 55.9099 95.3526 56.2309C95.3488 56.4121 95.496 56.5632 95.6771 56.5632C95.8846 56.5481 96.0506 56.397 96.2317 56.3102C96.824 55.9778 97.4201 55.6606 98.0238 55.3434C99.0312 54.8185 100.054 54.3124 101.087 53.8442C101.269 53.7611 101.333 53.5194 101.242 53.3494C101.155 53.172 100.925 53.104 100.748 53.1946Z" fill="black"/>
<path d="M115.391 48.4177C115.345 48.3308 115.266 48.2628 115.172 48.2364C115.077 48.21 114.987 48.2213 114.896 48.2628C114.757 48.327 114.617 48.3874 114.477 48.4516C114.138 48.5989 113.757 48.7651 113.372 48.935C113.266 48.9803 113.164 49.0257 113.059 49.071C113.006 49.0936 112.957 49.1163 112.904 49.139C112.893 49.1427 112.878 49.1503 112.866 49.1541C112.848 49.1616 112.833 49.1692 112.814 49.1767C112.55 49.2938 112.289 49.4071 112.025 49.5241C111.991 49.5393 111.957 49.5544 111.927 49.5695C111.916 49.5732 111.904 49.5808 111.893 49.5846C111.391 49.8074 110.886 50.0302 110.388 50.2643C110.158 50.3738 109.924 50.4871 109.701 50.6118C109.49 50.7288 109.192 50.8799 109.248 51.1707C109.271 51.2802 109.358 51.3708 109.463 51.401C109.493 51.4086 109.524 51.4161 109.554 51.4161C109.678 51.4161 109.795 51.3406 109.905 51.2877C110.388 51.046 110.878 50.827 111.372 50.6118C111.659 50.4871 111.946 50.3587 112.229 50.2341C112.229 50.2341 112.236 50.2341 112.24 50.2303C112.391 50.1661 112.542 50.0982 112.693 50.0302L112.708 50.0226C112.708 50.0226 112.734 50.0113 112.746 50.0075C112.749 50.0075 112.757 50.0038 112.761 50C112.768 49.9962 112.78 49.9924 112.787 49.9887L112.81 49.9773C112.833 49.966 112.855 49.9584 112.878 49.9471C112.885 49.9471 112.9 49.9358 112.919 49.9282C113.678 49.5959 114.459 49.2673 115.228 48.9161C115.409 48.8331 115.474 48.5914 115.383 48.4214L115.391 48.4177Z" fill="black"/>
<path d="M118.442 56.7143C119.329 55.8155 120.208 54.8827 120.85 53.7838C121.412 52.8095 121.736 51.5708 121.151 50.5248C120.948 50.166 120.699 49.8337 120.457 49.5013C119.884 48.7159 119.288 47.9568 118.68 47.2091C118.597 46.7861 118.461 46.3631 118.273 45.9402C117.563 44.3843 116.167 43.5233 114.632 42.9719C114.685 42.919 114.737 42.8662 114.79 42.8133C114.643 42.6585 114.5 42.5036 114.356 42.3488C114.356 42.345 114.356 42.3413 114.353 42.3337C114.353 42.3261 114.349 42.3186 114.345 42.3073C114.33 42.2582 114.319 42.2053 114.307 42.1524C114.307 42.1373 114.3 42.1185 114.296 42.1033C114.288 42.0656 114.281 42.024 114.277 41.9863C114.277 41.9712 114.273 41.9561 114.27 41.941C114.262 41.8881 114.258 41.8352 114.258 41.7861C114.258 41.771 114.258 41.7597 114.258 41.7446C114.258 41.703 114.258 41.6615 114.258 41.62C114.258 41.6011 114.258 41.586 114.258 41.5671C114.262 41.5218 114.27 41.4727 114.277 41.4274C114.277 41.4198 114.277 41.416 114.277 41.4085C113.938 40.4795 113.364 39.6487 112.527 39.1011C112.081 38.8141 111.595 38.5913 111.078 38.478C110.644 38.3836 110.202 38.3458 109.765 38.2778C109.535 38.2325 109.274 38.2099 109.108 38.0248C108.003 36.5331 107.003 36.5709 105.305 36.8919C105.166 36.8919 105.037 36.8806 104.905 36.8617C104.747 36.8428 104.581 36.8239 104.392 36.839C104.071 36.8541 103.754 36.9145 103.445 36.9976C103.185 37.0354 102.068 37.481 101.487 37.938C101.393 37.938 101.295 37.9795 101.208 38.0701C100.868 38.3722 99.9401 39.6676 99.3515 40.8382C97.3821 41.2121 95.5484 42.0694 94.2392 43.6215C93.6695 43.4213 93.0961 43.2249 92.5226 43.0399C92.6131 42.8435 92.6584 42.5943 92.7301 42.4319C92.798 42.1185 93.081 41.5784 93.0508 41.1932C93.7148 39.4485 94.5562 36.7031 93.1338 35.1812C91.802 33.8556 89.8815 35.8383 89.0213 36.873C88.7006 37.2393 88.395 37.617 88.097 38.0022C87.0972 36.7975 86.1464 35.5437 87.0783 34.0407C87.6517 33.2514 88.5233 32.7001 89.3194 32.0958C90.4626 31.2461 91.5266 30.219 92.1604 28.9614C95.0882 23.3874 89.0628 19.6034 85.3842 16.7938C84.6448 16.182 84.0449 15.4418 83.6449 14.5733C83.2978 13.9237 83.0488 13.1382 82.3659 12.7757C80.4266 12.349 80.8945 15.4909 81.2755 16.4388C82.6149 19.8263 86.7576 22.2167 83.4676 26.3292C80.9322 29.1616 79.0609 30.8043 80.1701 34.2408C80.2003 34.2786 80.2154 34.3239 80.2342 34.3692C80.2493 34.407 80.2644 34.4485 80.2795 34.4863C80.3097 34.5656 80.3361 34.6449 80.3663 34.728C80.3927 34.8035 80.4267 34.8753 80.4569 34.9508C80.4719 34.9924 80.487 35.0339 80.5021 35.0792C80.5097 35.1019 80.5172 35.1283 80.5247 35.151C80.5247 35.151 80.5247 35.1585 80.5285 35.1623C80.5285 35.1623 80.5323 35.1736 80.5361 35.1774C80.5663 35.2491 80.6002 35.3247 80.6304 35.3964C81.2906 36.805 82.2339 38.1268 82.4602 39.6864C82.5395 40.0754 82.498 40.404 82.3999 40.691C79.8079 40.3964 77.1933 40.3964 74.6277 40.8534C73.1563 40.1094 71.7867 39.2559 72.0433 37.4017C72.2696 36.3405 72.9072 35.3889 73.4468 34.4183C74.224 33.0399 74.8465 31.518 74.922 29.9546C75.3861 22.9758 67.5648 21.8466 62.5657 20.6533C61.5395 20.3663 60.5963 19.8829 59.8002 19.1805C59.155 18.6782 58.5514 17.9909 57.6949 17.9305C55.533 18.3723 57.4233 21.3519 58.2345 22.1412C61.1207 24.9773 66.4028 25.54 64.9087 31.1971C64.6672 31.941 64.4333 32.6321 64.2258 33.2816C64.1881 33.3345 64.1692 33.3987 64.1692 33.4629C63.2977 36.2461 62.9883 38.3307 65.12 40.7136C65.1653 40.7401 65.2068 40.7778 65.2445 40.8156C65.2784 40.8496 65.3086 40.8836 65.3426 40.9138C65.369 40.944 65.3954 40.9704 65.4256 41.0006C65.4633 41.0422 65.5011 41.0799 65.5388 41.1215C65.5539 41.1404 65.5727 41.1555 65.5916 41.1706C65.6369 41.2159 65.6859 41.2574 65.7312 41.3027C65.7689 41.3367 65.8029 41.3783 65.8369 41.416C65.8557 41.4349 65.8746 41.4576 65.8935 41.4765C65.8935 41.4765 65.901 41.484 65.9047 41.4878C65.9047 41.4878 65.9123 41.4953 65.9161 41.4991C65.9802 41.5595 66.0481 41.62 66.1085 41.6804C66.599 42.1033 67.1196 42.4961 67.6328 42.9039C67.5271 42.953 67.4214 42.9984 67.3158 43.0437C66.2405 43.4515 65.1766 43.8934 64.1277 44.3616C63.0072 43.95 61.8564 43.6555 60.6604 43.6101C59.9247 43.6592 59.4229 44.169 59.14 44.7959C58.2533 44.407 57.3629 44.0293 56.4649 43.6706C56.0839 43.5271 55.7104 43.3496 55.318 43.2363L55.3105 43.2212C55.284 43.2136 55.2539 43.2098 55.2275 43.2023C53.3938 42.734 51.8394 44.0746 50.8622 45.4832C49.6058 47.2468 48.8512 49.305 48.2023 51.3556C48.0891 51.9711 46.7988 55.5096 47.4779 55.808C46.7535 56.5897 46.0555 57.3978 45.3726 58.2173C44.7048 58.9953 44.0672 59.7959 43.4598 60.6191C43.2221 60.5511 42.958 60.5172 42.7769 60.4681C41.5582 60.2188 40.3094 60.0829 39.0643 60.0489C38.4079 60.0338 37.7325 60.0262 37.0949 60.2037C36.4573 60.4076 35.8649 60.7588 35.3556 61.1931C34.8613 61.6312 34.4803 62.175 34.1407 62.7415C33.4804 63.8706 33.0956 65.147 32.9937 66.4499C32.8654 67.7339 32.873 69.0292 33.0239 70.3132C33.3635 73.2814 33.9709 76.2384 35.0839 79.0178C34.0426 82.4128 33.1673 85.8569 32.4203 89.3388C31.7902 89.0593 31.1563 88.7836 30.4848 88.6288C29.5604 88.3909 28.47 88.4626 27.7343 89.1311C27.2665 89.5465 26.859 90.0412 26.6364 90.6341C25.8592 92.6356 25.7762 94.8259 25.9573 96.9445C26.0893 98.4777 26.4327 99.9883 26.8401 101.469C27.4853 103.795 28.3455 106.065 29.4095 108.232C29.1265 110.653 28.8662 113.074 28.6247 115.487C28.5832 115.944 28.5379 116.397 28.4927 116.854C28.2097 116.661 27.9494 116.495 27.8437 116.393C22.2259 112.137 22.0297 119.161 22.7013 123.111C23.2559 126.748 24.5839 130.215 26.2553 133.478C26.2817 133.53 26.3119 133.568 26.3497 133.598C26.3798 133.727 26.4327 133.855 26.4704 133.98C26.4893 134.029 26.5081 134.078 26.527 134.127C26.3195 135.925 26.1195 137.718 25.9384 139.516C25.8818 140.105 25.8252 140.694 25.7724 141.287C25.2027 140.785 24.5953 140.32 23.9048 139.999C21.1808 138.825 21.7731 142.817 22.2598 144.289C22.7541 145.97 23.6709 147.48 24.5689 148.972C24.6481 149.085 24.7537 149.131 24.8556 149.131C25.1121 149.131 25.3536 148.84 25.1687 148.557C24.6896 147.768 24.2293 146.971 23.7992 146.155C23.0785 144.727 22.1957 142.273 22.7465 140.694C23.1691 140.037 24.8858 141.438 25.6969 142.178C25.6215 143.1 25.5536 144.025 25.5008 144.95C25.4781 145.147 25.629 145.335 25.8214 145.354C25.8328 145.354 25.8441 145.354 25.8592 145.354C26.0365 145.354 26.2138 145.215 26.2251 145.03C26.2327 144.897 26.2402 144.761 26.2478 144.629C26.4855 140.864 26.908 137.11 27.3457 133.364C29.2133 119.225 29.9264 104.95 32.8579 90.9626C33.6464 87.0087 34.6048 83.0888 35.797 79.2369C35.8309 79.184 35.8536 79.1236 35.8536 79.0556C35.9102 78.8705 35.9668 78.6855 36.0272 78.5042C37.4533 74.1123 38.9738 69.7127 41.1583 65.6304C41.9544 64.135 42.8674 62.715 43.8597 61.3517C43.871 61.348 43.8786 61.3442 43.8899 61.3366C43.9502 61.2913 43.988 61.2233 44.0068 61.1554C44.8633 59.9922 45.7801 58.8706 46.7309 57.7792C49.7379 54.2068 53.4014 51.2196 57.3893 48.7801C57.9326 48.4402 58.4835 48.1154 59.0381 47.7982C59.2003 48.4062 59.4493 48.9915 59.7512 49.5316C61.0151 51.8729 63.592 53.1154 66.116 53.5837C66.3085 53.6214 66.5009 53.4628 66.5273 53.2702C66.5688 52.9757 66.2858 52.8435 66.0368 52.8246C65.5388 52.7226 65.0521 52.5867 64.5729 52.4205C63.5656 52.0655 62.5733 51.601 61.7734 50.8797C60.4567 49.7053 59.5323 47.9643 59.5814 46.1743C59.6455 45.4379 59.8983 44.4183 60.7849 44.3616C62.2601 44.4523 63.6523 44.9659 65.0219 45.5172C65.9538 45.91 66.8404 46.4085 67.795 46.7521C68.1534 46.9032 68.4741 46.4651 68.1609 46.2045C67.1611 45.7287 66.15 45.2151 65.1087 44.7733C65.6105 44.558 66.1123 44.3503 66.6178 44.1464C66.6706 44.1275 66.7235 44.1124 66.7725 44.0973C67.2102 43.9462 67.6328 43.7461 68.0553 43.5573C68.1346 43.5233 68.2176 43.4968 68.2892 43.4553C68.908 43.9802 69.4815 44.5505 69.9191 45.2453C70.9567 46.7144 69.5267 48.0021 70.6246 48.8858C71.3981 49.5051 71.9263 48.8291 71.3792 48.5535C70.1945 48.2967 71.3642 46.9032 70.8322 45.6985C70.6473 45.1245 70.3228 44.6222 69.938 44.1653C69.9984 44.1653 70.0549 44.169 70.1153 44.169C71.6962 44.169 73.5789 43.5686 74.7107 42.5074C74.8466 42.3488 75.1031 42.1373 75.2314 41.9145C77.3291 42.9493 79.4042 44.9621 77.5668 47.3375C76.3972 48.6668 74.0127 49.0029 72.4319 48.6026C72.2357 48.5044 71.9527 48.5497 71.8999 48.7876C71.8735 49.2634 72.5979 49.271 72.9601 49.3465C73.1827 49.3616 73.409 49.373 73.6392 49.373C75.0352 49.373 76.5556 49.0482 77.6498 48.1381C77.7479 48.0588 77.8384 47.9719 77.929 47.8813C79.657 46.0157 78.993 43.5799 77.1367 42.2997C77.1367 42.2922 77.1367 42.2846 77.1367 42.2771C77.0801 42.1713 77.0273 42.0656 76.9707 41.9598C76.982 41.9901 76.9895 42.0203 77.0009 42.0505C77.0122 42.0845 77.0235 42.1185 77.0348 42.1524C77.0424 42.1638 77.0461 42.1789 77.0537 42.1902C77.065 42.2129 77.0763 42.2393 77.0876 42.2619C77.0386 42.228 76.9895 42.1978 76.9405 42.1675C76.6047 41.8994 76.2048 41.6691 75.7822 41.4462C76.152 41.3934 76.5217 41.3481 76.8914 41.3103C78.6194 41.1668 80.355 41.2234 82.0754 41.4123C81.7547 41.9296 81.4265 42.3639 81.7359 42.9681C82.1471 43.7612 82.8262 43.3986 82.4791 42.9681C81.5963 42.3261 83.0677 41.6049 83.0714 40.4191C83.0752 40.3775 83.079 40.3398 83.079 40.2982C83.6374 40.6305 84.5882 40.8571 84.9277 40.8987C85.1805 40.9402 85.5012 40.9591 85.8483 40.9591C86.9274 40.9591 88.3007 40.7627 89.0062 40.3322C89.4816 41.299 89.6589 42.3375 89.1496 43.1985C88.3158 42.3828 87.3839 42.5867 86.5123 43.1079C86.4972 43.0965 86.4784 43.0852 86.4633 43.0701C86.0256 42.6698 85.471 42.3526 84.856 42.4961C82.6074 43.1758 81.1812 45.3548 80.155 47.345C78.6836 49.8601 76.2501 51.6086 74.0467 53.4401C71.8584 55.1697 69.7343 56.9711 67.5762 58.7422C66.8895 59.3049 66.2141 59.8827 65.5388 60.4605C65.4973 60.4983 65.4558 60.5323 65.4105 60.57C65.2936 60.638 65.1842 60.7324 65.0898 60.8042C64.3202 61.4084 63.5995 62.0768 62.86 62.7226C61.3396 64.0519 59.8417 65.4114 58.3778 66.8049C56.4121 68.6591 54.4653 70.536 52.56 72.4506C51.1867 73.9272 49.3983 75.2905 48.8814 77.3298C48.3721 80.4453 51.8771 82.934 54.0314 84.6296C56.0122 86.0986 57.959 87.5034 60.1209 88.7383C60.185 88.7761 60.2492 88.7912 60.3095 88.7912C60.6302 88.7912 60.834 88.304 60.4906 88.1077C59.5512 87.5676 58.6344 86.9936 57.7402 86.3856C56.9894 85.872 56.2122 85.3245 55.4387 84.7618C53.3146 83.1077 49.968 81.0193 49.5492 78.1681C49.4624 76.8502 50.417 75.7928 51.2319 74.8675C53.8239 72.1259 56.5744 69.5277 59.3097 66.9333C60.7774 65.5398 62.2903 64.1954 63.8108 62.8623C64.2862 62.4431 64.7578 62.0164 65.2407 61.6048C65.2822 61.5594 65.3426 61.5104 65.4105 61.4575C65.7312 61.3517 65.9462 61.0156 66.2254 60.8268C68.376 59.0255 70.5416 57.243 72.7035 55.4605C74.3598 54.1237 76.0501 52.8321 77.6234 51.3971C79.1439 50.0829 80.4606 48.5497 81.3133 46.7181C82.1207 45.3964 83.1281 44.086 84.5429 43.3798C85.0673 43.089 85.4786 43.1985 85.8936 43.5346C85.388 43.9198 84.9164 44.3579 84.5165 44.694C84.1015 45.0754 83.6978 45.4757 83.3129 45.8873C83.079 46.2385 82.2113 46.7446 82.6715 47.1826C82.747 47.2393 82.8187 47.2619 82.8866 47.2619C83.1205 47.2619 83.3092 46.9711 83.4676 46.7974C83.7053 46.5331 83.9505 46.2725 84.1995 46.0195C85.1843 45.0565 86.1954 44.052 87.4556 43.4478C88.195 43.1683 88.7233 43.7612 89.21 44.2861C87.7838 44.66 86.5274 45.6985 85.4408 46.6501C85.0107 47.0467 84.5995 47.4659 84.2298 47.919C84.1053 48.0739 84.1392 48.3118 84.2901 48.4326C84.3655 48.4893 84.4373 48.5119 84.5052 48.5119C84.7504 48.5119 84.939 48.1947 85.1088 48.0172C85.471 47.6131 85.8974 47.2091 86.3426 46.8201C87.5122 45.876 88.878 44.7922 90.4626 44.8752C91.0436 44.9885 91.4549 45.4417 91.8284 45.8684C91.9868 46.061 92.1415 46.2574 92.2962 46.4538C91.2209 46.5029 89.957 46.839 89.1081 47.2204C88.2743 47.5905 87.7612 48.3797 87.2405 49.0935C86.4143 50.2377 85.8747 51.5973 85.6748 52.9983C85.6748 53.0172 85.6748 53.0323 85.6748 53.0512C85.6748 53.0738 85.6672 53.0927 85.6634 53.1154C85.6634 53.1305 85.6634 53.1494 85.6634 53.1645C85.6672 53.2324 85.671 53.2966 85.6748 53.3608C85.6823 53.4855 85.6899 53.6139 85.6974 53.7385C85.705 53.8669 85.7087 53.9991 85.7276 54.1275C85.7427 54.2559 85.7616 54.3843 85.788 54.5089C85.788 54.5202 85.7917 54.5315 85.7955 54.5391V54.5542C85.7993 54.5731 85.803 54.592 85.8106 54.6108C85.8144 54.6335 85.8219 54.6524 85.8257 54.675C85.8257 54.675 85.8257 54.6713 85.8257 54.6675C85.8257 54.6675 85.8257 54.6713 85.8257 54.675C85.8257 54.675 85.8257 54.6864 85.8257 54.6901C85.8257 54.6901 85.8257 54.6826 85.8257 54.6788C85.8257 54.6788 85.8257 54.6864 85.8257 54.6901C85.8257 54.6901 85.8257 54.6902 85.8257 54.6864C85.8257 54.6864 85.8257 54.6901 85.8257 54.6939C85.8332 54.7279 85.8408 54.7619 85.8483 54.7959C85.8558 54.8336 85.8672 54.8752 85.8747 54.9129C85.8747 54.9092 85.8747 54.9054 85.8747 54.9016C85.8747 54.9054 85.8747 54.913 85.8785 54.9167C85.8785 54.9167 85.8785 54.9281 85.8823 54.9318C85.8823 54.9318 85.8823 54.9281 85.8823 54.9243C85.8823 54.9318 85.8823 54.9394 85.8861 54.9469C85.8861 54.9469 85.8861 54.9469 85.8861 54.9507C85.8936 54.9771 85.9011 55.0074 85.9125 55.0338C85.92 55.0602 85.9276 55.0867 85.9351 55.1169C85.9427 55.1433 85.954 55.166 85.9615 55.1924C85.969 55.2188 85.9766 55.2453 85.9879 55.2717C85.9917 55.2868 85.9992 55.3019 86.003 55.3132C86.052 55.4379 86.1162 55.5587 86.1803 55.6758C86.1803 55.672 86.1728 55.6645 86.1728 55.6607C86.1841 55.6796 86.1954 55.6984 86.203 55.7173C86.2067 55.7249 86.2143 55.7362 86.2181 55.7438C86.3615 55.9817 86.5274 56.2045 86.6746 56.4386C86.6859 56.4537 86.6934 56.4726 86.701 56.4915C86.8557 56.6841 87.0104 56.8654 87.165 57.0353C87.116 57.0655 87.0708 57.0919 87.0179 57.1184C87.0934 57.1712 87.1688 57.2241 87.2443 57.2808C86.8406 57.2921 86.4407 57.2581 86.0219 57.2052C85.2975 57.1146 84.5014 56.8767 83.811 56.5897C83.279 56.3669 82.7659 56.1025 82.249 55.8457C81.917 55.6871 81.5774 55.4945 81.2152 55.4114C81.3171 55.317 81.4189 55.2226 81.5208 55.1282C81.6679 54.8978 81.4566 54.5882 81.1888 54.6259C80.1512 55.2188 79.3589 56.2158 78.4534 57.0013C75.3823 59.9394 72.3828 62.9454 69.4928 66.0647C67.1008 68.6553 64.705 71.2422 62.4035 73.9159C59.9738 76.2233 63.3581 78.5458 65.369 79.5125C65.4332 79.5503 65.4935 79.5692 65.5539 79.5692C65.8746 79.5692 66.0859 79.0745 65.7388 78.8819C64.3805 78.1304 62.5544 77.258 62.2488 75.5813C62.7544 74.2255 64.0523 73.2814 64.9238 72.1485C69.8097 66.684 74.8541 61.3404 80.2116 56.3404C80.3852 56.3706 80.5663 56.2083 80.7285 56.1139C80.9247 56.061 81.1247 56.1403 81.3058 56.212C83.2375 57.1599 84.856 58.0209 87.0481 58.0209C87.1311 58.0209 87.2179 58.0209 87.3047 58.0172C87.5801 57.9945 87.682 57.7528 87.6291 57.5564C89.9608 59.1237 92.2057 61.1176 95.0354 61.6387C95.2844 61.669 95.5372 61.6803 95.7937 61.6803C99.5779 61.6803 103.913 58.5874 104.837 54.8639C106.064 55.6418 107.354 56.2876 108.795 56.5557C109.044 56.5859 109.301 56.601 109.557 56.601C109.908 56.601 110.263 56.5746 110.621 56.5217C111.496 56.3971 112.379 56.1214 113.224 55.7324C114.658 57.2468 115.949 58.8971 116.937 60.7362C117.703 62.2392 118.337 63.8442 118.771 65.4945C118.635 65.5285 118.491 65.5625 118.371 65.638C116.982 66.5254 117.133 67.4922 117.209 67.9265C117.269 68.255 117.394 68.5685 117.597 68.8328C117.809 69.1123 118.084 69.3351 118.405 69.4824C118.68 69.6108 118.982 69.675 119.28 69.675C119.318 69.675 119.355 69.675 119.393 69.6712C119.401 69.8751 119.401 70.0753 119.401 70.2792C119.299 72.6734 118.469 75.1243 116.688 76.7897C115.552 77.8509 114.073 78.6855 112.477 78.5835C110.478 78.4287 108.505 77.7527 106.588 77.1787C103.902 76.3215 101.238 75.3623 98.6007 74.3653C94.1902 72.6206 89.757 70.9325 85.2899 69.3351C82.4904 68.3306 79.6985 67.2769 76.8198 66.5179C76.4727 66.4537 75.6841 66.1478 75.6124 66.6954C75.22 66.9975 75.005 67.4922 74.9031 67.9642C74.8654 68.1606 75.0125 68.3532 75.205 68.3834C75.4313 68.425 75.62 68.2362 75.6389 68.0171C75.6917 67.7905 75.7973 67.5753 75.9294 67.3827C76.0048 67.2505 76.1482 67.1901 76.2425 67.0843C76.3142 67.0957 76.3783 67.1108 76.4349 67.1334C80.2833 68.1946 84.0524 69.675 87.8178 71.0345C89.1232 71.4952 90.4211 71.9824 91.7152 72.4771C91.7152 72.4846 91.7152 72.4922 91.7152 72.4959C91.7227 72.5715 91.734 72.6432 91.7416 72.715C91.7718 72.9265 91.7982 73.1379 91.8284 73.3494C91.8925 73.8177 91.9604 74.2822 92.0283 74.7505C92.3905 77.2882 92.7641 79.8222 93.1338 82.3599C93.5526 85.23 93.9714 88.1001 94.3939 90.9664C94.8316 93.9536 95.2692 96.9407 95.7069 99.9278C96.1295 102.821 96.552 105.713 96.9784 108.606C97.4009 111.499 97.8273 114.395 98.2498 117.288C98.646 119.988 99.0421 122.688 99.4345 125.392C99.8231 128.055 100.216 130.717 100.604 133.379C100.978 135.921 101.347 138.462 101.721 141C101.913 142.311 102.102 143.617 102.294 144.924C102.321 145.101 102.483 145.234 102.657 145.234C102.675 145.234 102.694 145.234 102.713 145.23C102.909 145.2 103.045 145.011 103.019 144.811C102.958 144.403 102.898 143.991 102.838 143.583C102.581 141.827 102.325 140.067 102.068 138.311C101.691 135.728 101.31 133.141 100.932 130.558C100.536 127.862 100.144 125.166 99.7477 122.473C99.3214 119.569 98.8988 116.661 98.4725 113.757C98.0574 110.925 97.6424 108.089 97.2274 105.256C96.801 102.337 96.3709 99.418 95.9446 96.4989C95.5069 93.4928 95.0655 90.4906 94.6241 87.4846C94.2958 85.2338 93.9638 82.9793 93.6356 80.7285C94.0204 80.3471 94.4053 79.9657 94.7939 79.5881C95.6352 78.7573 96.4766 77.9264 97.3179 77.0918C97.7556 76.6576 98.1932 76.2233 98.6271 75.7814C98.778 75.6266 98.929 75.4756 99.0799 75.3207C100.702 75.9363 102.336 76.5292 103.981 77.0843C106.384 77.8925 108.799 78.7119 111.293 79.1764C111.764 79.2595 112.244 79.3162 112.723 79.3162C112.915 79.3162 113.104 79.3086 113.296 79.286C115.281 79.0631 117.02 77.749 118.193 76.1893C119.661 74.1953 120.257 71.6349 120.114 69.1803C119.88 65.8532 118.846 62.5904 117.197 59.6977C116.982 59.3351 116.756 58.9802 116.518 58.6327C117.175 58.0285 117.82 57.4054 118.442 56.7634V56.7143ZM28.0776 103.062C27.3683 100.838 26.7496 98.5608 26.6288 96.2118C26.5194 94.4822 26.6553 92.7225 27.2287 91.0797C27.4438 90.449 27.8626 89.9128 28.3946 89.5163C28.9341 89.1726 29.6245 89.1688 30.232 89.3048C30.9262 89.4521 31.6053 89.7542 32.2618 90.0299C31.096 95.5812 30.2508 101.216 29.5642 106.846C29.0096 105.619 28.5002 104.331 28.0776 103.062ZM26.6779 132.692C26.3798 132.099 26.0893 131.499 25.8177 130.894C25.1876 129.448 24.6217 127.938 24.1727 126.423C23.403 124.18 21.4298 113.202 26.5006 116.385C27.1608 116.778 27.7947 117.201 28.3983 117.677C27.889 122.688 27.2627 127.688 26.6779 132.692ZM40.0528 66.1138C38.2305 69.9318 36.7138 73.863 35.431 77.8698C34.4199 75.0413 33.8691 72.0466 33.6465 69.0556C33.605 67.4922 33.6313 65.8759 34.1671 64.388C34.7104 62.9001 35.6574 61.4575 37.2156 60.9212C37.8457 60.7362 38.5135 60.7589 39.1624 60.774C40.4565 60.8155 41.7167 60.9703 43.0108 61.2347C41.9091 62.7868 40.9168 64.4144 40.0528 66.1176V66.1138ZM49.5492 53.7272C49.0323 54.1992 48.5343 54.6939 48.0476 55.1962C48.1344 54.7506 48.1382 54.1917 48.2589 53.9349C48.8512 51.45 49.6322 48.9651 50.9075 46.7446C51.7375 45.4228 52.9034 43.7083 54.6653 43.8594C54.8426 43.8858 55.0162 43.916 55.186 43.95C55.269 43.9802 55.3519 44.0104 55.4349 44.0444C56.6045 44.5014 57.7666 44.9885 58.9136 45.4946C58.8947 45.5814 58.8834 45.6645 58.872 45.7514C58.8117 46.1706 58.8155 46.5973 58.872 47.0165C55.5368 48.916 52.36 51.1101 49.5454 53.7309L49.5492 53.7272ZM57.3554 19.2749C57.2611 17.5264 59.3361 19.8225 59.8115 20.0868C60.1586 20.3587 60.5322 20.5929 60.9283 20.7855C60.7623 20.8988 60.7359 21.1895 60.6114 21.3633C60.2945 21.7258 59.887 22.0619 59.4191 22.1978C59.4041 22.1978 59.389 22.2054 59.3739 22.2054C58.4495 21.4652 57.6874 20.5551 57.3554 19.2711V19.2749ZM60.0718 22.7228C60.7736 22.3527 61.6376 21.5256 61.4452 21.0158C61.498 21.0385 61.5508 21.0574 61.6036 21.08C62.6789 21.4312 63.8259 21.6956 64.9804 21.9675C64.9314 22.009 64.8936 22.0657 64.871 22.1412C64.6974 22.8474 64.3239 23.512 63.841 24.0558C63.6146 24.2749 63.3694 24.4788 63.0826 24.6185C62.8638 24.4599 62.6299 24.3051 62.3771 24.1465C61.6301 23.682 60.8227 23.2364 60.0718 22.7265V22.7228ZM63.7089 25.0944C64.6446 24.5694 65.3728 23.1986 65.5803 22.3074C65.5954 22.2281 65.5803 22.1601 65.5577 22.0997C67.1159 22.4698 68.6703 22.8814 70.07 23.5687C70.0474 23.5951 70.0285 23.6216 70.0134 23.6555C69.9304 23.901 69.8927 24.1276 69.7833 24.4033C69.1457 26.0196 67.7912 27.2016 66.2066 27.8776C66.0406 27.9493 65.8708 28.0173 65.701 28.0853C65.4747 27.0354 64.871 26.0611 63.7089 25.0944ZM65.7954 28.7688C66.3953 28.6404 67.3309 28.1268 67.6025 27.9644C69.0853 27.077 70.3266 25.608 70.6775 23.8935C71.6245 24.4373 72.4847 25.1321 73.1978 26.0649C73.8392 26.8995 74.1674 27.9191 74.2429 28.9878C74.1636 29.0067 74.0882 29.0558 74.0316 29.1427C73.8279 29.4599 73.6279 29.7129 73.3449 30.0075C71.7679 31.5596 69.7908 32.7114 67.5573 33.0135C66.7423 33.1268 65.8255 33.225 64.9615 33.1759C65.501 31.4954 65.8821 30.0641 65.7878 28.7688H65.7954ZM64.3465 35.0792C64.4824 34.6638 64.6144 34.2635 64.7427 33.8745C64.9163 33.8972 65.1011 33.8934 65.2483 33.9085C65.3426 33.9085 65.4407 33.9085 65.535 33.9085C68.1006 33.9085 70.6737 33.1797 72.6884 31.5483C73.2468 31.1177 73.7864 30.6495 74.2353 30.1057C74.1599 30.9818 73.9373 31.8617 73.5901 32.6736C73.0393 34.0143 72.1942 35.117 71.6773 36.4198C71.4132 37.0694 71.3189 37.6434 71.3566 38.1532C71.2661 38.1683 71.1793 38.2136 71.1076 38.2703C70.7114 38.4591 70.3115 38.5648 69.8512 38.6781C68.1836 39.1086 66.4216 38.9123 64.7918 38.4062C64.6823 38.3836 64.539 38.308 64.3956 38.2665C64.0598 37.3413 63.9919 36.2914 64.3428 35.0754L64.3465 35.0792ZM74.1297 42.0014C73.6769 42.4319 73.1072 42.7113 72.5262 42.9266C71.5868 43.2627 70.5379 43.5233 69.5079 43.3798C69.4098 43.3684 69.3004 43.3647 69.206 43.3835C69.0136 43.2023 68.8137 43.0286 68.6175 42.8549C68.0629 42.4319 67.4894 41.9976 66.9461 41.5369C66.9234 41.5218 66.897 41.5029 66.8744 41.4878C66.8442 41.4651 66.8178 41.4425 66.7876 41.4198C66.7499 41.3896 66.7084 41.3632 66.6707 41.333C66.6442 41.3141 66.6178 41.2914 66.5914 41.2688C66.5763 41.2574 66.565 41.2461 66.5499 41.231C66.5462 41.2272 66.5386 41.2234 66.5348 41.2197C66.5311 41.2197 66.5273 41.2121 66.5235 41.2083C66.5009 41.1895 66.4783 41.1706 66.4594 41.1517C66.433 41.129 66.4103 41.1064 66.3839 41.0799C66.365 41.061 66.3462 41.0459 66.3273 41.0271C66.3235 41.0233 66.3198 41.0195 66.316 41.0157C66.3047 41.0006 66.2933 40.9893 66.2783 40.9742C66.2443 40.9364 66.2141 40.9024 66.1839 40.8647C66.1651 40.842 66.15 40.8194 66.1311 40.7967C65.6255 40.2982 65.1766 39.762 64.8295 39.1766C65.6482 39.4296 66.5046 39.5731 67.3573 39.6449C67.5309 39.6562 67.7044 39.6638 67.878 39.6638C68.8627 39.6638 69.8475 39.4825 70.7907 39.188C70.9793 39.1162 71.2924 39.0369 71.5188 38.9009C71.9565 40.1056 73.2053 40.9024 74.5334 41.5558C74.4013 41.7181 74.2806 41.9107 74.1335 42.0052L74.1297 42.0014ZM96.1785 77.1598C95.3334 77.9869 94.492 78.8139 93.6507 79.6447C93.6016 79.69 93.5564 79.7391 93.5073 79.7844C93.4734 79.5616 93.4432 79.335 93.4092 79.1122C93.2281 77.8849 93.047 76.6576 92.8659 75.4302C92.7792 74.8411 92.6924 74.2558 92.6018 73.6666C92.5565 73.357 92.5075 73.0473 92.4622 72.7376C92.4622 72.7263 92.4622 72.7188 92.4584 72.7074C94.4392 73.4703 96.4124 74.252 98.3932 75.0073C97.6499 75.721 96.9142 76.4385 96.1785 77.1598ZM119.197 68.8933C119.137 68.8895 119.076 68.8819 119.016 68.8706C118.956 68.8593 118.899 68.8442 118.839 68.8253C118.786 68.8064 118.729 68.7837 118.68 68.7611C118.627 68.7346 118.574 68.7044 118.522 68.6742C118.476 68.644 118.431 68.61 118.39 68.576C118.341 68.5307 118.291 68.4854 118.246 68.4363C118.205 68.391 118.167 68.3419 118.133 68.2928C118.099 68.2437 118.069 68.1908 118.039 68.138C118.012 68.0813 117.986 68.0247 117.963 67.968C117.944 67.9076 117.929 67.8472 117.914 67.7905C117.903 67.7263 117.892 67.6584 117.884 67.5942C117.884 67.5262 117.88 67.462 117.884 67.394C117.888 67.3298 117.895 67.2694 117.907 67.2052C117.922 67.141 117.937 67.0768 117.956 67.0164C117.975 66.9597 117.997 66.9031 118.024 66.8464C118.461 66.2233 118.899 66.1742 118.948 66.1629C119.152 67.0655 119.291 67.9794 119.359 68.9008C119.306 68.9008 119.254 68.9008 119.201 68.9008L119.197 68.8933ZM105.158 37.6207C106.067 37.583 107.116 37.1336 107.908 37.7907C108.248 38.0588 108.452 38.4629 108.803 38.7159C109.142 38.9425 109.561 38.984 109.953 39.0407C110.504 39.1086 111.063 39.1766 111.58 39.4108C111.896 39.5429 112.176 39.7204 112.428 39.9319C112.5 39.9168 112.576 39.913 112.647 39.9319C112.809 39.9659 112.96 40.0679 113.032 40.2227C113.077 40.3209 113.115 40.4228 113.149 40.5248C113.191 40.6532 113.232 40.7778 113.27 40.9062C113.281 40.9175 113.292 40.9327 113.304 40.944C113.338 40.9855 113.372 41.0271 113.402 41.0724C113.406 41.0799 113.409 41.0837 113.413 41.0913C113.443 41.1366 113.474 41.1857 113.5 41.2348C113.5 41.2385 113.504 41.2461 113.507 41.2499C113.534 41.299 113.56 41.3518 113.583 41.4047C113.583 41.4085 113.583 41.4123 113.587 41.416C113.609 41.4689 113.632 41.5255 113.651 41.5784C113.67 41.6237 113.681 41.6691 113.696 41.7144C113.7 41.7333 113.707 41.7484 113.711 41.7672C113.711 41.7786 113.719 41.7899 113.719 41.8012C113.726 41.8277 113.734 41.8579 113.741 41.8843C113.741 41.8956 113.749 41.9107 113.749 41.9221C113.753 41.941 113.756 41.9598 113.76 41.9787C113.779 42.058 113.794 42.1373 113.809 42.2204C113.832 42.3413 113.851 42.4621 113.866 42.5829C113.873 42.6283 113.877 42.6698 113.885 42.7113C113.885 42.7189 113.885 42.7227 113.885 42.7302C113.402 42.5867 112.915 42.4697 112.44 42.3639C112.247 42.3186 112.051 42.2733 111.859 42.228C111.583 41.6426 111.051 41.0611 110.357 41.0988C109.708 41.1441 109.161 41.5482 108.588 41.8201C108.388 41.9221 108.184 42.0278 107.984 42.1336C107.984 42.1336 107.976 42.1336 107.973 42.1336C107.965 42.1373 107.958 42.1411 107.95 42.1449C107.95 42.1449 107.954 42.1449 107.958 42.1449C107.301 42.4848 106.645 42.8284 105.95 43.0814C106.184 42.666 106.456 42.2771 106.735 41.8919C106.777 41.8994 106.814 41.907 106.856 41.9183C106.856 41.8654 106.863 41.8088 106.882 41.7559C106.928 41.6351 107.014 41.5369 107.094 41.4387C107.094 41.4387 107.094 41.4349 107.097 41.4311C107.097 41.4311 107.101 41.4274 107.105 41.4236C107.12 41.4047 107.135 41.382 107.15 41.3632C107.158 41.3481 107.169 41.333 107.177 41.3178C107.192 41.2952 107.203 41.2725 107.218 41.2537C107.21 41.2537 107.203 41.2536 107.195 41.2499C107.377 40.9969 107.55 40.7401 107.712 40.4757C107.818 40.2378 107.55 39.9772 107.32 40.1018C107.207 40.1623 107.12 40.2567 107.037 40.3511C106.826 40.589 106.629 40.8382 106.433 41.0913C106.358 41.0762 106.286 41.061 106.211 41.0459C106.199 41.0459 106.188 41.0459 106.177 41.0459C106.071 40.9402 105.909 40.9024 105.765 40.9666C105.758 40.9666 105.75 40.9666 105.743 40.9629C105.739 40.9704 105.732 40.978 105.724 40.9855C104.905 41.3518 104.124 41.8126 103.287 42.1373C103.909 41.1555 104.588 40.2453 105.43 39.407C105.807 39.2068 105.66 38.6517 105.222 38.7688C104.728 39.0898 104.317 39.5165 103.939 39.9772C103.841 39.8677 103.687 39.8073 103.528 39.8904C103.366 39.9734 103.211 40.0792 103.057 40.1774C101.902 40.8609 100.8 41.6539 99.5628 42.1789C100.019 40.9364 100.74 39.7393 101.574 38.6744C101.751 38.6026 101.906 38.4516 102.079 38.376C103.015 37.8662 104.056 37.4244 105.143 37.6358L105.158 37.6207ZM110.814 41.9938C110.61 41.9485 110.406 41.907 110.202 41.8617C110.417 41.8126 110.621 41.839 110.814 41.9938ZM91.4926 23.3912C91.3756 23.5271 91.319 23.7273 91.1832 23.8519C89.9117 25.2643 87.614 25.3247 85.9691 24.5808C85.7389 24.475 85.5239 24.3391 85.3164 24.1956C85.2899 24.1729 85.2598 24.1578 85.2296 24.1427C85.4333 23.2515 85.3428 22.296 84.8485 21.1782C85.4107 21.1291 85.9539 20.7892 86.418 20.5022C86.6633 20.3247 87.3764 19.7545 87.5839 19.2825C89.1194 20.4645 90.5946 21.7258 91.4926 23.395V23.3912ZM81.5963 13.7576C82.1547 12.2848 83.0262 14.932 83.3205 15.321C83.5053 15.6722 83.7317 16.0007 83.9845 16.3066C83.9732 16.3142 83.9619 16.3255 83.9506 16.3331C83.5167 16.7938 82.8149 17.0128 82.1962 16.8844C82.1886 16.8844 82.181 16.8844 82.1735 16.8806C81.6906 15.9403 81.4039 14.9245 81.5963 13.7576ZM82.6112 17.6359C82.6112 17.6359 82.6225 17.6359 82.6263 17.6359C83.0639 17.6359 83.5053 17.5038 83.8902 17.2961C84.0675 17.1941 84.3391 17.0242 84.4825 16.8278C85.2673 17.5302 86.1464 18.1873 87.0292 18.8519C86.9839 18.9086 86.9425 18.9728 86.9047 19.037C86.667 19.3806 86.3501 19.6828 86.0106 19.9244C85.5654 20.2152 85.0673 20.4985 84.524 20.5173C84.3618 20.2228 84.1731 19.9131 83.9581 19.5921C83.5242 18.9539 83.0375 18.3119 82.6112 17.6359ZM85.0258 24.796C85.1692 24.9169 85.3427 25.0113 85.4748 25.0981C86.0935 25.438 86.784 25.6495 87.4895 25.7288C87.7084 25.7552 87.9347 25.7666 88.1611 25.7666C89.5495 25.7666 91.0398 25.2907 91.8472 24.1578C91.9717 24.4675 92.0774 24.7885 92.1566 25.1283C92.6358 27.1034 91.6171 29.2597 90.0664 30.7137C89.8438 30.9251 89.6137 31.1215 89.3798 31.3066C89.342 31.2915 89.2967 31.2839 89.2515 31.2877C88.4177 31.5483 87.5273 31.6578 86.6444 31.6276C84.8447 31.5936 82.9432 30.793 82.0566 29.1502C82.0151 29.0785 81.9811 28.9916 81.9396 28.9161C83.3393 27.3678 84.4939 26.1215 85.0221 24.7922L85.0258 24.796ZM81.4529 29.4826C82.4414 31.4312 84.7202 32.3715 86.8217 32.3602C86.8519 32.3602 86.8783 32.3602 86.9085 32.3602C87.3009 32.3602 87.697 32.3375 88.0894 32.2884C87.7574 32.5414 87.4329 32.8058 87.1311 33.1004C86.3539 33.8481 86.0709 34.5883 86.0898 35.3171C86.0747 35.3247 86.0596 35.336 86.0445 35.3436C84.607 36.0724 82.7659 36.0686 81.3925 35.1963C81.2831 35.1359 81.1737 35.0188 81.053 34.9546C81.053 34.947 81.0454 34.9395 81.0416 34.9282C81.0341 34.9093 81.0266 34.8866 81.0228 34.8677C81.0077 34.8262 80.9964 34.7846 80.9851 34.7431C80.9813 34.7204 80.9737 34.694 80.97 34.6714C80.3059 32.9757 80.1135 31.2084 81.4491 29.4901L81.4529 29.4826ZM88.3497 39.8375C87.2179 40.1849 86.003 40.3322 84.8296 40.1547C84.2033 40.0528 83.6185 39.8299 83.0451 39.5656C82.9432 38.7688 82.6112 37.9984 82.2678 37.2695C82.049 36.8768 81.8302 36.4765 81.6189 36.0686C81.9094 36.2084 82.215 36.3141 82.4905 36.3896C82.9432 36.5029 83.411 36.5596 83.8789 36.5596C84.6825 36.5596 85.4824 36.3896 86.2105 36.0422C86.4709 36.9334 87.1198 37.7907 87.8065 38.5913C87.8819 38.7008 87.9574 38.8103 88.029 38.9198C88.0592 38.9576 88.0932 38.9991 88.1234 39.0407C88.1422 39.0633 88.1611 39.0898 88.18 39.1124C88.1913 39.0973 88.2026 39.0822 88.2101 39.0709C88.3611 39.2673 88.5082 39.4712 88.644 39.6789C88.5497 39.7355 88.4554 39.8073 88.3497 39.8337V39.8375ZM89.3684 39.7166C89.1685 39.3352 88.8855 38.9538 88.5799 38.5762C89.0402 37.9682 89.5306 37.3828 90.0438 36.8201C90.538 36.3028 91.5718 35.302 92.3415 35.5022C93.4771 36.1479 93.2055 37.8926 92.9942 38.9727C92.8395 39.6562 92.6207 40.3209 92.3641 40.9666C92.3302 41.0573 92.3264 41.1404 92.3453 41.2121C92.2698 41.4387 92.2283 41.7144 92.1604 41.873C92.1264 42.1109 91.8963 42.4961 91.8322 42.8171C91.2398 42.632 90.6437 42.4508 90.0475 42.2808C90.1419 41.4878 89.9457 40.6457 89.4854 39.8979C89.4854 39.8904 89.4892 39.8828 89.4929 39.879C89.4854 39.7733 89.4779 39.6638 89.4703 39.558C89.4703 39.5882 89.4628 39.6147 89.4628 39.6449C89.4628 39.6789 89.4552 39.7091 89.4514 39.7431C89.4514 39.7544 89.4514 39.7695 89.4514 39.7809C89.4514 39.8035 89.4514 39.8262 89.4514 39.8526C89.425 39.8073 89.3949 39.7657 89.3647 39.7204L89.3684 39.7166ZM90.5154 44.1086C90.3607 44.1011 90.2098 44.1011 90.0589 44.1086C90.0589 44.1086 90.0551 44.1048 90.0513 44.1011C89.8929 43.9273 89.7344 43.7499 89.5684 43.5799C89.6929 43.3911 89.7948 43.191 89.8702 42.987C91.187 43.3609 92.4886 43.7801 93.7789 44.2295C93.6884 44.3616 93.6016 44.4976 93.5224 44.6373C93.2621 45.0943 93.0546 45.589 92.9753 46.1139V46.1214C92.964 46.1063 92.9527 46.0912 92.9414 46.0761C92.3038 45.2567 91.6095 44.2823 90.5154 44.1048V44.1086ZM103.77 55.6682C102.898 57.5527 101.31 59.0217 99.4572 59.928C97.582 60.959 95.2768 61.3102 93.3224 60.2943C91.3832 59.32 89.6175 58.0549 87.8555 56.7823C87.8253 56.6501 87.7159 56.5293 87.6065 56.4197C87.1386 55.8759 86.7085 55.2755 86.3501 54.6373C86.3237 54.4711 86.2898 54.3125 86.2973 54.2105C86.2709 53.7385 86.3237 53.2627 86.4105 52.7982C86.5727 52.0391 86.8029 51.2914 87.1424 50.5927C87.5989 49.7279 88.1498 48.9235 88.8327 48.1985C89.5043 47.6547 90.3871 47.4772 91.2096 47.2921C91.719 47.194 92.2358 47.1071 92.7565 47.1373C92.9376 47.1449 93.1413 47.2128 93.2998 47.092C93.3073 47.0882 93.3111 47.0807 93.3187 47.0769C93.3828 47.1033 93.447 47.1298 93.5149 47.1524C93.5752 47.1789 93.6394 47.2015 93.6997 47.2279C93.7412 47.2431 93.7789 47.2544 93.8204 47.2695C93.8091 47.2544 93.7978 47.2393 93.7903 47.2279C93.7639 47.1902 93.7375 47.1562 93.7111 47.1184C94.5637 47.2959 95.4126 47.4734 96.2653 47.6509C97.6085 47.9379 98.9554 48.2287 100.272 48.6252C101.095 48.8858 101.97 49.2143 102.645 49.7921C104.388 51.197 104.732 53.7007 103.777 55.6645L103.77 55.6682ZM107.082 55.2151C106.362 54.8525 105.667 54.4485 104.984 54.0217C105.094 53.0399 104.958 52.024 104.505 51.0232C103.464 48.7423 100.947 47.9492 98.6837 47.447C97.0274 47.0505 95.356 46.7181 93.6884 46.3745C93.6959 46.3027 93.7035 46.231 93.7111 46.1668C93.7563 45.9062 93.8356 45.657 93.945 45.419C94.8807 43.4364 96.8916 42.1184 98.9969 41.6615C98.8083 42.194 98.7668 42.6245 98.9969 42.7944C99.0724 42.8813 99.1893 42.9191 99.3364 42.9191C100.038 42.9191 101.449 42.058 102.551 41.3481C102.649 41.3481 102.747 41.3556 102.841 41.3594C102.868 41.3594 102.898 41.3594 102.924 41.3632C102.921 41.3669 102.917 41.3745 102.913 41.3783C102.566 41.8201 102.091 42.7718 102.962 42.9153C103.785 42.8926 104.486 42.345 105.222 42.0316C105.388 41.9107 105.682 41.8314 105.916 41.7144C105.935 41.7182 105.954 41.7219 105.969 41.7257C105.871 41.8654 105.773 42.0052 105.679 42.1449C105.399 42.6094 104.566 43.6026 105.464 43.8707C105.501 43.8745 105.543 43.8783 105.584 43.8783C106.46 43.8783 108.165 42.8171 108.957 42.447C109.006 42.4243 109.052 42.4017 109.101 42.379C109.406 42.4432 109.712 42.5074 110.018 42.5716C111.361 42.8586 112.708 43.1494 114.024 43.5459C114.847 43.8065 115.722 44.1351 116.394 44.7129C118.137 46.1177 118.48 48.6177 117.526 50.5852C116.654 52.4696 115.062 53.9386 113.213 54.845C111.338 55.8759 109.033 56.2271 107.078 55.2113L107.082 55.2151ZM116.092 57.9794C115.42 57.0542 114.685 56.1781 113.904 55.3435C116.545 53.8895 118.676 51.2951 118.778 48.5081C119.005 48.7952 119.231 49.0859 119.45 49.3767C119.786 49.8186 120.118 50.2642 120.419 50.7287C120.544 50.9251 120.646 51.1365 120.695 51.3669C121.019 53.206 118.861 55.2264 117.68 56.4462C117.163 56.9711 116.635 57.4809 116.092 57.9794Z" fill="black"/>
<path d="M85.871 54.8715C85.871 54.8715 85.871 54.8602 85.8672 54.8564C85.8672 54.864 85.8672 54.8678 85.871 54.8753V54.8715Z" fill="black"/>
</g>
</svg>
