<svg width="65" height="64" viewBox="0 0 65 64" fill="none" xmlns="http://www.w3.org/2000/svg">
<g id="search">
<g id="&#240;&#159;&#142;&#168; Mineure (indice -main)">
<path d="M43.4297 32.5854C43.5482 32.1598 43.9894 31.9108 44.415 32.0293C46.2866 32.5505 47.7215 34.0184 48.1014 35.8386C48.1916 36.2711 47.9142 36.6949 47.4817 36.7852C47.0492 36.8754 46.6254 36.598 46.5351 36.1655C46.2802 34.9443 45.2935 33.9348 43.9858 33.5707C43.5602 33.4522 43.3112 33.011 43.4297 32.5854Z" fill="#0079D0"/>
<path fill-rule="evenodd" clip-rule="evenodd" d="M35.4004 36.8C35.4004 32.3879 38.9884 28.8 43.4004 28.8C47.8124 28.8 51.4004 32.3879 51.4004 36.8C51.4004 38.8529 50.6235 40.7274 49.3483 42.1451L54.0645 50.3138C54.7272 51.4618 54.3339 52.9296 53.186 53.5923C52.0791 54.2314 50.6747 53.8885 49.9816 52.8339L49.9076 52.7138L45.2183 44.5918C44.6341 44.728 44.0255 44.8 43.4004 44.8C38.9885 44.8 35.4004 41.2119 35.4004 36.8ZM46.7591 44.0606L51.2932 51.9138C51.5141 52.2965 52.0034 52.4276 52.386 52.2067C52.7413 52.0015 52.8798 51.565 52.7208 51.1973L52.6789 51.1138L48.1357 43.2448C47.7073 43.5604 47.2464 43.8343 46.7591 44.0606ZM49.8004 36.8C49.8004 33.2715 46.9288 30.4 43.4004 30.4C39.872 30.4 37.0004 33.2715 37.0004 36.8C37.0004 40.3283 39.8721 43.2 43.4004 43.2C46.9286 43.2 49.8004 40.3283 49.8004 36.8Z" fill="#0079D0"/>
</g>
<g id="Majeure">
<path d="M55.3947 14.3067C55.3485 13.9088 55.0104 13.6 54.6001 13.6H11.4001L11.3068 13.6054C10.9089 13.6516 10.6001 13.9897 10.6001 14.4V51.2L10.6055 51.2933C10.6517 51.6912 10.9898 52 11.4001 52H45.0001L45.0934 51.9946C45.4913 51.9484 45.8001 51.6103 45.8001 51.2L45.7947 51.1067C45.7485 50.7088 45.4104 50.4 45.0001 50.4H12.2001V21.6H41.8001L41.8934 21.5946C42.2913 21.5484 42.6001 21.2103 42.6001 20.8C42.6001 20.3582 42.2419 20 41.8001 20H12.2001V15.2H53.8001V20H46.6001L46.5068 20.0054C46.1089 20.0516 45.8001 20.3897 45.8001 20.8C45.8001 21.2418 46.1583 21.6 46.6001 21.6H53.8001V44.8L53.8055 44.8933C53.8517 45.2912 54.1898 45.6 54.6001 45.6C55.0419 45.6 55.4001 45.2418 55.4001 44.8V14.4L55.3947 14.3067Z" fill="#21213F"/>
<path d="M14.6001 18.4C14.159 18.4 13.8001 18.0411 13.8001 17.6C13.8001 17.1588 14.159 16.8 14.6001 16.8C15.0412 16.8 15.4001 17.1588 15.4001 17.6C15.4001 18.0411 15.0412 18.4 14.6001 18.4Z" fill="#21213F"/>
<path d="M17.0001 17.6C17.0001 18.0411 17.359 18.4 17.8001 18.4C18.2412 18.4 18.6001 18.0411 18.6001 17.6C18.6001 17.1588 18.2412 16.8 17.8001 16.8C17.359 16.8 17.0001 17.1588 17.0001 17.6Z" fill="#21213F"/>
<path d="M21.0001 18.4C20.559 18.4 20.2001 18.0411 20.2001 17.6C20.2001 17.1588 20.559 16.8 21.0001 16.8C21.4412 16.8 21.8001 17.1588 21.8001 17.6C21.8001 18.0411 21.4412 18.4 21.0001 18.4Z" fill="#21213F"/>
<path d="M51.4001 16.8C51.8419 16.8 52.2001 17.1582 52.2001 17.6C52.2001 18.0103 51.8913 18.3484 51.4934 18.3946L51.4001 18.4H27.4001C26.9583 18.4 26.6001 18.0418 26.6001 17.6C26.6001 17.1897 26.9089 16.8516 27.3068 16.8054L27.4001 16.8H51.4001Z" fill="#21213F"/>
<path d="M33.0001 27.2C33.0001 26.7582 32.6419 26.4 32.2001 26.4H17.8001L17.7068 26.4054C17.3089 26.4516 17.0001 26.7897 17.0001 27.2C17.0001 27.6418 17.3583 28 17.8001 28H32.2001L32.2934 27.9946C32.6913 27.9484 33.0001 27.6103 33.0001 27.2Z" fill="#21213F"/>
<path d="M29.0001 31.2C29.4419 31.2 29.8001 31.5582 29.8001 32C29.8001 32.4103 29.4913 32.7484 29.0934 32.7946L29.0001 32.8H17.8001C17.3583 32.8 17.0001 32.4418 17.0001 32C17.0001 31.5897 17.3089 31.2516 17.7068 31.2054L17.8001 31.2H29.0001Z" fill="#21213F"/>
<path d="M28.2001 36.8C28.2001 36.3582 27.8419 36 27.4001 36H17.8001L17.7068 36.0054C17.3089 36.0516 17.0001 36.3897 17.0001 36.8C17.0001 37.2418 17.3583 37.6 17.8001 37.6H27.4001L27.4934 37.5946C27.8913 37.5484 28.2001 37.2103 28.2001 36.8Z" fill="#21213F"/>
</g>
</g>
</svg>
