<svg width="40" height="40" viewBox="0 0 40 40" fill="none" xmlns="http://www.w3.org/2000/svg">
    <path fill-rule="evenodd" clip-rule="evenodd" d="M28 38.5C27.7243 38.5 27.5 38.2757 27.5 38C27.5 37.7243 27.7243 37.5 28 37.5C28.2757 37.5 28.5 37.7243 28.5 38C28.5 38.2757 28.2757 38.5 28 38.5Z" fill="#EAF5FF"/>
    <path fill-rule="evenodd" clip-rule="evenodd" d="M4 32.5C3.7243 32.5 3.5 32.2757 3.5 32C3.5 31.7243 3.7243 31.5 4 31.5C4.2757 31.5 4.5 31.7243 4.5 32C4.5 32.2757 4.2757 32.5 4 32.5Z" fill="#EAF5FF"/>
    <path fill-rule="evenodd" clip-rule="evenodd" d="M38 29C37.7243 29 37.5 28.7757 37.5 28.5C37.5 28.2243 37.7243 28 38 28C38.2757 28 38.5 28.2243 38.5 28.5C38.5 28.7757 38.2757 29 38 29Z" fill="#EAF5FF"/>
    <path fill-rule="evenodd" clip-rule="evenodd" d="M32.5 5C32.2243 5 32 4.7757 32 4.5C32 4.22428 32.2243 4 32.5 4C32.7757 4 33 4.22428 33 4.5C33 4.7757 32.7757 5 32.5 5Z" fill="#EAF5FF"/>
    <path fill-rule="evenodd" clip-rule="evenodd" d="M12 2C11.7243 2 11.5 1.7757 11.5 1.5C11.5 1.22428 11.7243 1 12 1C12.2757 1 12.5 1.22428 12.5 1.5C12.5 1.7757 12.2757 2 12 2Z" fill="#EAF5FF"/>
    <path d="M18.5483 7.8404C18.7566 8.40966 18.5653 9.07815 18.1882 9.39457C18.0276 9.52933 17.8859 9.6089 17.6449 9.68218L17.4874 9.72578C17.4589 9.73305 17.4291 9.74036 17.3979 9.74775L17.194 9.79348L16.2323 9.99012L16.1115 10.0159L16.179 10.0511L16.3017 10.1177L16.5358 10.2495C16.775 10.3875 16.8569 10.6933 16.7189 10.9325C16.5808 11.1716 16.275 11.2536 16.0358 11.1155L15.9291 11.0547L15.7061 10.9322L14.9392 10.5312L14.5962 10.3484C14.5395 10.3177 14.4828 10.2868 14.4256 10.2555L14.0734 10.0597L13.6901 9.84085C13.451 9.70278 13.369 9.39698 13.5071 9.15784C13.6452 8.91869 13.951 8.83675 14.1901 8.97482L14.5635 9.18797C14.6226 9.22128 14.6804 9.25366 14.7373 9.28533L14.8048 9.32229C14.8554 9.2868 14.9135 9.26016 14.9774 9.24514L15.2508 9.18171L15.7727 9.06559L16.1573 8.98426L16.9481 8.82345L17.1714 8.77389L17.2823 8.74571L17.3685 8.71987C17.3811 8.71569 17.3928 8.71154 17.4038 8.70741L17.462 8.68257L17.5076 8.65672L17.5454 8.62852C17.6053 8.57829 17.6703 8.35111 17.6092 8.18415C17.5063 7.90311 17.1003 7.66196 16.2442 7.56528L14.5526 7.39162L13.6203 7.29932L12.5808 7.20076L11.5182 7.10714L11.0387 7.06903L10.961 7.07032L10.9029 7.07611L10.804 7.09305L10.729 7.1103L10.6456 7.13272L10.503 7.17672L10.2751 7.25649L9.99758 7.36277L9.66315 7.49819L9.03899 7.76166L7.90316 8.25488L7.84916 8.27364L7.81252 8.28256L7.77414 8.28815C7.76753 8.28878 7.76081 8.28925 7.75395 8.28957L7.71092 8.28941L7.66345 8.28494L7.61047 8.27574L7.5509 8.26144L7.44685 8.22953L7.36612 8.20071L7.2253 8.14518L7.11669 8.09938L6.85932 7.98492L6.45124 7.79492L5.2834 7.23501C5.03465 7.11509 4.93022 6.81622 5.05014 6.56748C5.17006 6.31874 5.46892 6.2143 5.71767 6.33422L6.59406 6.75238L6.94976 6.91844L7.3382 7.09511L7.5739 7.19776L7.70392 7.25046L8.71402 6.81181L9.28279 6.57089L9.57055 6.45316L9.90018 6.32475L10.0445 6.27191L10.2389 6.20577L10.4102 6.15419L10.5135 6.12724L10.6097 6.10579L10.6998 6.08945L10.785 6.07783L10.8666 6.07054C10.8799 6.06966 10.8932 6.06895 10.9064 6.06839L11.0236 6.06738L11.1398 6.07341L11.7636 6.12427L12.8664 6.22293L14.1692 6.34839L15.9413 6.52856L16.2166 6.55727C17.4987 6.67511 18.2856 7.12283 18.5483 7.8404Z" fill="#0079D0"/>
    <path d="M12.8967 18.024C13.1265 18.1233 13.3993 18.0368 13.5275 17.8148C13.6656 17.5756 13.5836 17.2698 13.3445 17.1317L11.8752 16.2834L11.823 16.2572C11.5932 16.1579 11.3204 16.2444 11.1922 16.4665C11.0541 16.7056 11.136 17.0114 11.3752 17.1495L12.8445 17.9978L12.8967 18.024Z" fill="#0079D0"/>
    <path d="M10.2427 19.1242C10.1144 19.3462 9.84162 19.4327 9.61182 19.3334L9.55964 19.3072L7.3217 18.0151C7.24608 17.9714 7.1433 17.8701 7.02138 17.7228L6.91238 17.5855C6.8935 17.5608 6.87427 17.5352 6.85471 17.5088L6.73375 17.3407L6.60621 17.1541L6.47321 16.9506L6.33587 16.7318C6.31269 16.6942 6.28936 16.656 6.26593 16.6172L6.1242 16.3786L5.98092 16.1288L5.83724 15.8694C5.81331 15.8254 5.78942 15.7811 5.76559 15.7366L5.62338 15.4658C5.59984 15.4202 5.57641 15.3743 5.55309 15.3282L5.41488 15.0498L5.28073 14.7682L5.15177 14.4852L5.02911 14.2023C4.9894 14.1082 4.95093 14.0144 4.91388 13.9211L4.852 13.7617L4.37339 13.3981L3.36613 12.6446L3.18381 12.5037L3.08015 12.419L3.03517 12.3785L2.99118 12.335L2.97503 12.314L2.93829 12.2494L2.89439 12.1664C2.80244 11.9061 2.93899 11.6204 3.19937 11.5285C3.37964 11.4648 3.572 11.5107 3.70382 11.6313L3.73473 11.6628L3.87447 11.7742L5.34261 12.8769L5.50186 13.0014L5.58415 13.0705L5.64826 13.132L5.6642 13.1524L5.68572 13.188L5.74496 13.2961C6.1043 14.2664 6.58593 15.2238 7.11492 16.0834L7.20051 16.2209L7.3684 16.4815C7.45081 16.6065 7.53051 16.7229 7.60558 16.8283L7.72896 16.9972L7.81675 17.1107L7.86055 17.1646C7.86269 17.1685 7.86047 17.1698 7.8437 17.1612L10.0596 18.4411C10.2988 18.5792 10.3807 18.885 10.2427 19.1242Z" fill="#0079D0"/>
    <path d="M11.5002 19.9999C11.7763 19.9999 12.0002 19.7761 12.0002 19.4999C12.0002 19.2238 11.7763 18.9999 11.5002 18.9999C11.224 18.9999 11.0002 19.2238 11.0002 19.4999C11.0002 19.7761 11.224 19.9999 11.5002 19.9999Z" fill="#0079D0"/>
    <path d="M27.2094 21.3307C27.0714 21.0916 27.1533 20.7858 27.3924 20.6477L27.4985 20.5857L27.716 20.4537L28.6123 19.8864C28.6671 19.8522 28.7217 19.8183 28.7766 19.7845L29.112 19.5808L29.4729 19.3675C29.5363 19.3305 29.6016 19.2926 29.6692 19.2536C29.9083 19.1155 30.2141 19.1974 30.3522 19.4366C30.4903 19.6757 30.4083 19.9815 30.1692 20.1196L29.7979 20.3363L29.6038 20.4526C29.6007 20.4687 29.5967 20.4848 29.5918 20.5008C29.5367 20.6837 29.483 20.8582 29.4296 21.0279L29.2695 21.5266L28.9456 22.499L28.9029 22.6365L28.8719 22.7467L28.8512 22.8342L28.848 22.8501C28.8467 22.8573 28.8454 22.8643 28.8443 22.8711L28.8367 22.9339L28.8363 22.9863L28.8418 23.0332C28.8554 23.1101 29.0196 23.28 29.1948 23.3106C29.4896 23.362 29.9015 23.1309 30.4132 22.4379L31.5511 20.8627L32.4465 19.6088L32.9826 18.8474L33.3495 18.3188C33.3778 18.2777 33.4055 18.2374 33.4326 18.1978C33.5125 18.0813 33.5918 17.8924 33.6687 17.6337L33.7197 17.4509L33.7698 17.2475L33.8191 17.0238L33.8673 16.7799L33.9145 16.516L33.9604 16.2322L34.0049 15.9287C34.0122 15.8765 34.0195 15.8234 34.0267 15.7696L34.0691 15.4368L34.1098 15.0848C34.112 15.0654 34.1143 15.047 34.1174 15.0291L34.1292 14.9765L34.1409 14.9419L34.1664 14.8887L34.1898 14.8512L34.2195 14.8112L34.2777 14.7448L34.3267 14.6952L34.4179 14.6108L34.577 14.4754L34.9099 14.2111L35.5663 13.7117L36.2483 13.1998C36.4692 13.0341 36.7826 13.079 36.9482 13.3C37.1139 13.5209 37.069 13.8343 36.848 13.9999L35.9529 14.677L35.4845 15.0398L35.2655 15.2143L35.0848 15.3652L35.0339 15.782C35.0258 15.8453 35.0176 15.9077 35.0092 15.9691L34.9582 16.3265C34.7843 17.4804 34.5708 18.262 34.2973 18.7021L34.2574 18.7633L33.9014 19.2781L33.4906 19.8642L32.7716 20.8765L31.6216 22.4743L31.3 22.918C30.5569 23.9694 29.7757 24.427 29.0229 24.2957C28.4257 24.1915 27.9425 23.6916 27.857 23.2068C27.817 22.9797 27.8233 22.8058 27.8984 22.5163L27.9463 22.3458L28.0086 22.1464L28.3022 21.2661L28.2426 21.3038L28.0077 21.4463C27.9694 21.469 27.9311 21.4914 27.8924 21.5137C27.6533 21.6518 27.3475 21.5699 27.2094 21.3307Z" fill="#0079D0"/>
    <path d="M32.1637 9.91356L30.8922 10.4746L30.6502 10.5751L30.5521 10.6106C30.4622 10.6394 30.417 10.651 30.336 10.6424L30.2824 10.6349C29.2653 10.4628 28.1992 10.4022 27.1947 10.4308L27.0335 10.4362L26.7252 10.4514L26.4402 10.4716C26.395 10.4753 26.3509 10.4793 26.3082 10.4834L26.1012 10.5057L25.9598 10.5249L25.8917 10.5358C25.8874 10.5357 25.8875 10.5331 25.9033 10.5229L22.7502 12.3428C22.511 12.4808 22.2052 12.3989 22.0672 12.1598C21.939 11.9377 22.0004 11.6582 22.2014 11.5088L22.2502 11.4768L25.4248 9.64387C25.5241 9.58658 25.7331 9.53841 26.0199 9.50197L26.2223 9.47945C26.2579 9.47599 26.2943 9.47269 26.3315 9.46954L26.5646 9.45254L26.8154 9.43945L27.082 9.43043C27.1276 9.42928 27.1738 9.4283 27.2205 9.4275L27.5067 9.42491L27.8033 9.42682L28.1083 9.4334L28.4195 9.44483L28.7348 9.46126L29.0522 9.48288L29.3695 9.50986L29.6847 9.54236C29.8413 9.56002 29.9964 9.57982 30.1487 9.60185L30.3243 9.62868L30.4325 9.58355L31.8148 8.97509L31.95 8.918L32.0554 8.87558L32.1241 8.85023L32.1541 8.84029C32.2636 8.8057 32.3088 8.79595 32.4295 8.81842C32.7009 8.86898 32.88 9.13004 32.8295 9.40152C32.7789 9.67299 32.5179 9.85208 32.2464 9.80152C32.2801 9.80779 32.3011 9.81385 32.3153 9.81877L32.3431 9.82926C32.3527 9.83191 32.36 9.82998 32.3848 9.82043L32.1637 9.91356Z" fill="#0079D0"/>
    <path d="M24.5002 13.9999C24.7763 13.9999 25.0002 13.7761 25.0002 13.4999C25.0002 13.2238 24.7763 12.9999 24.5002 12.9999C24.224 12.9999 24.0002 13.2238 24.0002 13.4999C24.0002 13.7761 24.224 13.9999 24.5002 13.9999Z" fill="#0079D0"/>
    <path d="M20.9976 13.654C20.9477 12.7321 20.1844 12 19.2502 12C18.2837 12 17.5002 12.7835 17.5002 13.75V14.6684C17.2729 14.5604 17.0186 14.5 16.7502 14.5C15.7837 14.5 15.0002 15.2835 15.0002 16.25V23.6925L14.696 23.3354L14.085 22.6061L13.7745 22.2414L13.5869 22.0292L13.4794 21.9132L13.3834 21.8152C13.3682 21.8003 13.3535 21.786 13.3391 21.7724L13.2563 21.6977C13.2166 21.6638 13.1793 21.6348 13.143 21.6096L13.0715 21.5638C13.0361 21.5431 13.001 21.5254 12.965 21.5096L12.8913 21.4802C12.4287 21.3118 11.7541 21.4803 11.3653 21.9455C10.8752 22.5317 10.8809 23.4371 11.4199 24.6063L12.1648 26.2672L12.8884 27.8551L13.2714 28.6792L13.5393 29.2449L13.5745 29.3145C13.7444 29.6338 14.0603 30.0147 14.5263 30.4661L14.7521 30.6796C14.9098 30.8252 15.0817 30.9777 15.2681 31.1372L15.5585 31.3819C15.6589 31.4652 15.7629 31.5504 15.8705 31.6373L15.9998 31.7413L15.9999 33.5001L16.0038 33.5628C16.0347 33.8093 16.245 34.0001 16.4999 34.0001C16.7761 34.0001 16.9999 33.7762 16.9999 33.5001V31.2578L16.6661 30.9936L16.2607 30.6646L16.0121 30.4567L15.7809 30.2579L15.5671 30.0686L15.3709 29.8888L15.1923 29.7188C15.1357 29.6637 15.082 29.6103 15.0313 29.5586L14.8881 29.4084L14.7628 29.2684L14.6554 29.1387C14.5569 29.0143 14.4855 28.9056 14.4413 28.8133L14.2453 28.4003L13.8755 27.6075L13.2673 26.2782L12.279 24.0784C11.9348 23.2887 11.9406 22.8164 12.1325 22.5868C12.2465 22.4504 12.4758 22.3931 12.5492 22.4199C12.5559 22.4223 12.5643 22.4271 12.5747 22.4344L12.6119 22.4643L12.6614 22.5106L12.8014 22.6562L13.0013 22.8798L13.2678 23.1896L13.9349 23.984L14.2022 24.299L14.4447 24.58L14.6737 24.8392L14.9002 25.0892L15.1356 25.3425C15.259 25.4738 15.4366 25.5236 15.6009 25.4898C15.6131 25.4873 15.6252 25.4844 15.637 25.481C15.8466 25.4215 16.0002 25.2287 16.0002 25V16.25L16.0036 16.1778C16.0399 15.7974 16.3603 15.5 16.7502 15.5C17.1644 15.5 17.5002 15.8358 17.5002 16.25V22.5L17.5035 22.5583C17.5324 22.807 17.7437 23 18.0002 23C18.2763 23 18.5002 22.7761 18.5002 22.5V13.75L18.5036 13.6778C18.5399 13.2974 18.8603 13 19.2502 13C19.6644 13 20.0002 13.3358 20.0002 13.75V22.5L20.0035 22.5583C20.0324 22.807 20.2437 23 20.5002 23C20.7763 23 21.0002 22.7761 21.0002 22.5V15.2353L21.0036 15.1647C21.0398 14.7928 21.3591 14.5 21.7502 14.5C22.1657 14.5 22.5002 14.8305 22.5002 15.2353V22.5L22.5035 22.5583C22.5324 22.807 22.7437 23 23.0002 23C23.2763 23 23.5002 22.7761 23.5002 22.5V17.2353L23.5036 17.1647C23.5398 16.7928 23.8591 16.5 24.2502 16.5C24.6657 16.5 25.0002 16.8305 25.0002 17.2353V26.5L24.9985 26.6455C24.977 27.5536 24.7458 28.2202 24.0829 29.2246C24.0111 29.3334 23.8879 29.4777 23.7145 29.6579L23.5536 29.8212L23.3683 30.002L23.1833 30.1776L22.4994 30.8099L22.2445 31.0503L22.0002 31.2929V33.5L22.0035 33.5583C22.0324 33.807 22.2437 34 22.5002 34L22.5585 33.9966C22.8071 33.9678 23.0002 33.7564 23.0002 33.5V31.711L23.0498 31.6642L23.8679 30.9065L24.0694 30.7152L24.2797 30.5097C24.5754 30.2149 24.7829 29.9793 24.9175 29.7754C25.7197 28.5599 26.0002 27.6874 26.0002 26.5V17.2353L25.9976 17.14C25.9476 16.2247 25.1832 15.5 24.2502 15.5C23.9819 15.5 23.7276 15.5599 23.5002 15.667V15.2353L23.4976 15.14C23.4476 14.2247 22.6832 13.5 21.7502 13.5C21.481 13.5 21.2259 13.5603 20.998 13.6681L20.9976 13.654Z" fill="#2F3A43"/>
</svg>
