<svg width="574" height="430" viewBox="0 0 574 430" fill="none" xmlns="http://www.w3.org/2000/svg">
    <g clip-path="url(#clip0_889_3854)">
        <path d="M571.363 216.147C585.198 259.375 550.607 289.762 516.827 296.734C476.778 305.003 434.201 295.699 394.633 309.204C352.107 322.467 319.152 355.462 271.502 359.768C203.1 365.951 163.188 344.732 104.155 323.1C58.188 311.073 -6.59416 316.203 -0.025545 247.984C5.78125 187.667 91.2342 184.701 137.032 154.335C182.846 123.955 228.826 78.6093 290.219 77.251C349.916 75.9301 387.807 124.472 434.692 151.88C479.653 174.914 545.508 163.704 571.36 216.147H571.363Z" fill="#EAF5FF"/>
        <path d="M359.472 135.907C360.03 160.418 358.933 228.59 358.933 228.59C288.957 229.451 131.602 228.859 131.602 228.859C133.037 196.906 131.788 159.179 131.92 124.881C131.927 122.831 135.126 119.645 137.165 119.645C141.275 119.645 306.916 118.838 353.729 118.95C360.081 118.964 359.34 130.219 359.472 135.907Z" fill="#0079D0"/>
        <path d="M217.838 264.407C217.638 264.379 217.726 264.492 217.804 264.604C217.817 264.539 217.827 264.471 217.838 264.407ZM256.213 262.099C265.318 261.959 240.371 261.734 226.18 261.744C225.371 261.744 225.334 262.963 226.143 263.004C235.471 263.487 246.966 261.373 256.159 262.099C256.176 262.099 256.196 262.099 256.213 262.099ZM359.141 229.124C359.425 229.158 359.649 229.376 359.689 229.662C360.966 239.126 359.852 259.178 357.339 259.746C334.241 264.975 290.387 262.078 272.049 262.395C271.666 262.401 271.382 262.745 271.44 263.127C272.012 266.81 273.583 282.909 277.548 286.559C278.702 287.621 282.63 287.614 286.192 287.549C287.35 287.529 288.552 290.657 286.998 290.633C267.993 290.307 243.425 290.633 223.353 290.633C217.729 290.633 194.069 292.462 203.353 287.488C203.4 287.461 203.454 287.44 203.505 287.427C207.446 286.426 214.364 289.285 215.119 283.338C215.125 283.297 215.136 283.253 215.149 283.212C218 275.494 217.868 265.799 217.299 262.844C217.238 262.534 216.964 262.316 216.649 262.33C208.347 262.732 151.031 263.29 139.15 262.905C138.967 262.899 131.914 257.928 131.914 257.744C131.548 226.316 130.512 229.063 131.602 228.866C131.623 228.866 349.105 227.974 359.141 229.128V229.124Z" fill="#A8A7B6"/>
        <path d="M169.164 118.845C169.079 118.835 168.988 118.818 168.903 118.797C168.886 118.794 168.869 118.787 168.855 118.784C169.468 118.794 170.081 118.801 170.694 118.807C170.298 118.807 169.902 118.814 169.509 118.835C169.428 118.841 169.35 118.848 169.269 118.848C169.235 118.848 169.197 118.848 169.164 118.845Z" fill="black"/>
        <path d="M165.984 118.736C166.557 118.746 167.125 118.756 167.698 118.767C167.616 118.77 167.535 118.773 167.454 118.777C167.288 118.77 167.115 118.784 166.943 118.797C166.8 118.807 166.658 118.821 166.516 118.821C166.333 118.821 166.154 118.801 165.988 118.736H165.984Z" fill="black"/>
        <path d="M243.941 250.817C243.484 250.755 243.027 250.606 242.6 250.432C241.72 250.068 240.985 249.441 240.427 248.675C240.149 248.294 239.909 247.872 239.749 247.426C239.567 246.919 239.465 246.381 239.438 245.843C239.411 245.271 239.512 244.696 239.692 244.154C239.892 243.548 240.183 242.98 240.596 242.493C241.378 241.581 242.428 240.927 243.606 240.689C244.74 240.461 245.959 240.593 247.012 241.077C247.987 241.523 248.79 242.323 249.287 243.276C249.585 243.845 249.785 244.461 249.88 245.097C249.971 245.727 249.924 246.381 249.782 247C249.65 247.576 249.416 248.137 249.088 248.628C248.797 249.063 248.438 249.438 248.018 249.751C247.737 249.959 247.422 250.126 247.104 250.265C246.988 250.316 246.87 250.36 246.748 250.398C246.362 250.575 245.952 250.694 245.536 250.776C245.221 250.834 244.899 250.868 244.581 250.868C244.364 250.868 244.151 250.854 243.938 250.823L243.941 250.817ZM245.163 249.69C245.306 249.676 245.448 249.659 245.587 249.632C245.766 249.591 245.946 249.54 246.118 249.482C246.183 249.458 246.247 249.434 246.308 249.407C246.372 249.366 246.437 249.326 246.501 249.285C246.65 249.183 246.792 249.074 246.928 248.958C247.066 248.828 247.202 248.696 247.327 248.553C247.473 248.383 247.611 248.205 247.74 248.022C247.838 247.868 247.933 247.715 248.018 247.555C248.092 247.402 248.16 247.249 248.218 247.092C248.268 246.936 248.312 246.776 248.35 246.616C248.383 246.445 248.404 246.275 248.417 246.102C248.424 245.948 248.421 245.795 248.414 245.642C248.397 245.462 248.373 245.281 248.343 245.104C248.312 244.971 248.278 244.839 248.238 244.709C248.187 244.566 248.129 244.427 248.062 244.287C247.991 244.148 247.913 244.011 247.828 243.882C247.743 243.759 247.655 243.64 247.557 243.528C247.459 243.419 247.354 243.313 247.246 243.211C247.1 243.085 246.951 242.966 246.795 242.857C246.64 242.755 246.481 242.663 246.318 242.575C246.162 242.5 246.007 242.432 245.844 242.371C245.709 242.326 245.577 242.289 245.438 242.258C245.289 242.231 245.14 242.211 244.987 242.197C244.855 242.19 244.723 242.193 244.588 242.197C244.442 242.211 244.3 242.228 244.158 242.255C244.002 242.289 243.85 242.333 243.697 242.384C243.548 242.439 243.403 242.5 243.261 242.568C243.122 242.639 242.986 242.718 242.858 242.803C242.739 242.888 242.624 242.976 242.512 243.068C242.404 243.167 242.299 243.273 242.197 243.382C242.096 243.501 242.001 243.623 241.91 243.753C241.808 243.909 241.713 244.066 241.629 244.229C241.551 244.393 241.476 244.559 241.415 244.73C241.378 244.842 241.348 244.954 241.324 245.07C241.28 245.322 241.246 245.574 241.226 245.829C241.219 245.976 241.216 246.122 241.222 246.268C241.236 246.435 241.26 246.599 241.29 246.765C241.331 246.956 241.381 247.147 241.442 247.334C241.49 247.467 241.544 247.593 241.605 247.722C241.666 247.841 241.734 247.957 241.805 248.073C241.886 248.192 241.974 248.308 242.069 248.42C242.18 248.543 242.299 248.662 242.421 248.771C242.556 248.89 242.699 248.999 242.847 249.101C242.976 249.186 243.108 249.264 243.247 249.336C243.366 249.394 243.487 249.445 243.609 249.489C243.758 249.537 243.904 249.577 244.056 249.608C244.253 249.646 244.449 249.676 244.649 249.693C244.821 249.703 244.991 249.707 245.163 249.693V249.69Z" fill="black"/>
        <path d="M246.89 142.239C243.856 115.761 252.68 140.827 262.607 132.731C260.281 137.14 259.946 140.207 258.527 141.273C254.877 144.006 250.862 137.981 246.89 142.243V142.239Z" fill="#EAF5FF"/>
        <path d="M266.889 206.281C271.067 217.822 223.824 215.96 224.812 206.002C225.317 200.899 230.057 159.714 231.557 148.571L237.306 148.721C237.604 150.219 236.886 154.073 237.062 155.635C237.062 155.635 241.972 156.19 242.266 155.281C243.018 152.98 243.235 148.292 243.235 148.292C246.803 147.278 249.553 148.34 249.553 148.34L249.888 155.091C250.833 156.371 253.775 156.068 255.898 155.043L256.169 148.234L261.857 147.645C262.941 153.014 266.973 193.464 266.892 206.281H266.889Z" fill="#ADDDFF"/>
        <path d="M265.504 131.461C265.443 131.318 265.273 131.25 265.131 131.308C264.952 131.38 264.779 131.465 264.603 131.55C264.518 131.516 264.42 131.502 264.312 131.516C259.768 132.299 259.104 136.268 254.256 132.486C252.37 131.243 250.619 129.296 248.188 129.378C247.582 129.391 246.959 129.613 246.549 130.076C246.194 129.96 245.754 130.219 245.764 130.637C245.662 133.555 245.842 136.479 246.021 139.393C246.14 141.518 246.221 143.645 246.285 145.773C246.35 146.481 246.241 147.254 246.485 147.925C247.047 148.401 246.959 146.958 247 146.641C247.034 145.919 247.05 145.198 247.057 144.473C247.105 141.242 246.912 138.018 246.868 134.791C246.864 133.749 246.861 132.707 246.891 131.669C246.861 131.301 247.013 130.859 246.918 130.498C247.64 130.161 248.459 130.212 249.194 130.481C250.443 130.9 251.418 131.826 252.437 132.629C253.724 133.62 255.021 134.699 256.585 135.209C258.458 135.819 260.154 134.818 261.745 133.906C261.058 134.872 260.57 136.003 260.279 137.14C259.829 139.23 259.839 139.914 257.838 141.014C254.584 142.696 253.091 139.458 250.203 139.938C249.255 140.095 248.249 140.49 247.663 141.293C247.541 141.47 247.43 141.661 247.399 141.875C247.365 142.076 247.623 142.219 247.772 142.09C248.276 141.514 248.963 141.194 249.705 141.048C250.298 140.939 250.917 140.888 251.486 141.116C252.38 141.426 253.121 142.042 253.998 142.379C254.631 142.627 255.312 142.736 255.989 142.774C257.598 142.791 259.043 141.787 260.062 140.612C260.804 139.673 260.841 138.416 261.071 137.289C261.292 136.221 261.718 135.196 262.317 134.283C262.619 133.82 262.988 133.415 263.398 133.055C263.767 132.908 264.146 132.779 264.539 132.67C264.87 132.575 264.992 132.285 264.955 132.02C265.084 131.955 265.212 131.894 265.344 131.836C265.487 131.771 265.558 131.608 265.497 131.458L265.504 131.461Z" fill="black"/>
        <path d="M262.074 148.915C261.739 148.837 261.664 148.449 261.481 148.204C261.018 147.645 262.016 147.199 262.145 148.033C262.223 147.996 262.308 148.088 262.233 148.149C262.233 148.34 262.328 148.51 262.355 148.694C262.352 148.833 262.209 148.949 262.074 148.919V148.915Z" fill="black"/>
        <path d="M267.711 205.383C267.233 186.751 265.263 168.17 263.086 149.664C262.74 147.564 262.364 146.512 260.001 147.029C252.908 147.4 256.3 149.838 255.139 155.016C255.061 155.026 254.983 155.053 254.916 155.108C253.551 155.162 251.55 155.857 250.453 154.849C250.219 152.718 250.707 150.777 250.422 148.643C250.294 147.233 249.254 147.244 248.648 147.322C239.449 146.954 243.37 148.701 241.524 155.179C240.278 155.213 239.032 155.074 237.793 154.985C237.905 152.864 238.216 150.488 237.82 148.347C237.35 147.233 235.42 147.925 234.455 147.884C233.618 148.156 230.923 147.468 230.838 148.602C228.374 166.23 225.851 183.864 224.382 201.624C219.635 218.258 253.642 214.826 262.811 212.695C265.347 212.106 265.202 211.742 266.431 210.983C268.405 209.767 267.535 207.221 267.714 205.372L267.711 205.383ZM266.069 209.754C258.952 214.441 230.541 215.017 225.475 207.439C225.357 207.262 225.309 207.047 225.323 206.836C226.535 187.673 229.423 168.647 231.489 149.576C231.522 149.259 231.8 149.034 232.118 149.055C233.479 149.147 234.807 149.075 236.164 149.014C236.483 149 236.757 149.242 236.777 149.562C236.896 151.584 235.995 153.838 236.733 155.727C236.798 155.894 236.943 156.013 237.116 156.061C238.508 156.456 240.928 156.725 242.202 156.204C242.283 156.17 242.357 156.119 242.411 156.047C243.282 154.944 243.705 150.968 243.464 149.232C243.424 148.925 243.627 148.643 243.925 148.582C245.574 148.238 247.409 148.374 249.092 148.394C249.183 148.394 249.271 148.418 249.349 148.462C249.386 148.483 249.427 148.496 249.468 148.507C249.369 154.624 247.778 157.511 255.464 156.105C255.606 156.078 255.742 156.003 255.826 155.887C257.215 154.001 255.969 151.057 256.48 148.881C256.761 147.88 259.368 148.224 260.739 148.207C261.027 148.204 261.278 148.405 261.332 148.687C265.022 168.521 265.903 189.1 266.326 209.26C266.329 209.458 266.238 209.648 266.072 209.757L266.069 209.754Z" fill="black"/>
        <path d="M533.385 178.772C533.385 178.717 533.429 178.672 533.484 178.672C533.538 178.672 533.583 178.717 533.583 178.772C533.583 178.826 533.538 178.871 533.484 178.871C533.429 178.871 533.385 178.826 533.385 178.772Z" fill="#FDC82E"/>
        <path d="M534.027 179.677C534.027 179.629 534.065 179.592 534.113 179.592C534.161 179.592 534.198 179.629 534.198 179.677C534.198 179.726 534.161 179.763 534.113 179.763C534.065 179.763 534.027 179.726 534.027 179.677Z" fill="#FDC82E"/>
        <path d="M533.723 178.772C533.723 178.717 533.767 178.672 533.822 178.672C533.876 178.672 533.92 178.717 533.92 178.772C533.92 178.826 533.876 178.871 533.822 178.871C533.767 178.871 533.723 178.826 533.723 178.772Z" fill="#FDC82E"/>
        <path d="M534.365 179.677C534.365 179.629 534.403 179.592 534.451 179.592C534.499 179.592 534.536 179.629 534.536 179.677C534.536 179.726 534.499 179.763 534.451 179.763C534.403 179.763 534.365 179.726 534.365 179.677Z" fill="#FDC82E"/>
        <path d="M191.416 260.195C191.436 259.814 191.453 259.433 191.467 259.055C191.47 258.932 191.474 258.81 191.477 258.687C191.87 258.711 192.256 258.735 192.638 258.755C192.669 259.263 192.699 259.77 192.736 260.274C192.296 260.25 191.856 260.223 191.416 260.195Z" fill="black"/>
        <path d="M185.797 259.852C185.81 259.344 185.821 258.837 185.827 258.333C187.277 258.429 188.675 258.517 190.012 258.599C189.955 259.103 189.89 259.603 189.819 260.104C188.479 260.022 187.138 259.94 185.797 259.855V259.852Z" fill="black"/>
        <path d="M178.926 259.389V259.348C178.926 258.847 178.903 258.347 178.879 257.846C180.684 257.979 182.434 258.102 184.113 258.217C184.08 258.725 184.042 259.232 184.002 259.736C182.309 259.623 180.616 259.511 178.926 259.392V259.389Z" fill="black"/>
        <path d="M172.431 258.909C172.373 258.384 172.316 257.863 172.262 257.339C173.975 257.475 175.648 257.605 177.276 257.727C177.263 258.218 177.249 258.711 177.232 259.201C177.232 259.225 177.232 259.246 177.229 259.27C175.627 259.154 174.029 259.035 172.431 258.909Z" fill="black"/>
        <path d="M167.001 258.469C167.049 258.105 167.086 257.741 167.1 257.373C167.106 257.22 167.11 257.063 167.113 256.91C168.302 257.012 169.477 257.111 170.631 257.206C170.641 257.727 170.655 258.248 170.668 258.769C169.443 258.67 168.22 258.572 166.998 258.469H167.001Z" fill="black"/>
        <path d="M113.203 252.032C98.146 249.492 83.0179 246.558 69.0308 241.445C68.9089 240.862 68.8412 240.27 68.7734 239.681C91.8584 248.771 134.077 254.051 166.009 256.819C165.969 257.339 165.881 257.857 165.769 258.367C148.132 256.866 130.579 254.83 113.2 252.032H113.203Z" fill="black"/>
        <path d="M68.0377 241.077C67.4519 240.852 66.8458 240.611 66.2296 240.355C66.1754 239.943 66.1212 239.531 66.0671 239.119C66.04 238.919 66.0129 238.718 65.9824 238.52C66.6562 238.816 67.3503 239.109 68.0648 239.395C68.1088 239.943 68.1595 240.495 68.2273 241.043C68.2307 241.08 68.2374 241.114 68.2408 241.152C68.1731 241.128 68.1054 241.101 68.0377 241.077Z" fill="black"/>
        <path d="M63.8933 239.354C63.8188 238.833 63.7544 238.309 63.6935 237.785C63.68 237.669 63.6698 237.553 63.6562 237.441C64.2217 237.717 64.8074 237.993 65.4101 238.261C65.4101 238.275 65.4101 238.289 65.4101 238.302C65.4338 238.707 65.4508 239.109 65.4643 239.511C65.4711 239.688 65.4745 239.865 65.4779 240.039C64.953 239.817 64.4248 239.589 63.8899 239.347L63.8933 239.354Z" fill="black"/>
        <path d="M61.22 238.078C61.1286 237.567 61.0338 237.056 60.922 236.549C60.878 236.341 60.8306 236.134 60.7832 235.923C61.3554 236.253 61.9547 236.576 62.5743 236.896C62.5913 237.346 62.598 237.795 62.598 238.244C62.598 238.415 62.598 238.585 62.598 238.755C62.1376 238.537 61.6771 238.309 61.22 238.078Z" fill="black"/>
        <path d="M58.9229 236.825C58.8891 236.137 58.8552 235.45 58.8281 234.762C58.8315 234.752 58.8349 234.738 58.8383 234.728C59.2074 234.973 59.5933 235.215 59.9861 235.453C60.0132 235.671 60.0369 235.892 60.0606 236.113C60.0911 236.563 60.1215 237.005 60.1385 237.458C60.1385 237.475 60.1385 237.495 60.1385 237.513C59.7288 237.288 59.3191 237.06 58.9196 236.825H58.9229Z" fill="black"/>
        <path d="M93.252 205.791C93.6041 205.72 93.9528 205.648 94.2982 205.58C94.2982 205.982 94.2745 206.384 94.2542 206.785C93.9562 206.853 93.6481 206.928 93.3231 207.003C93.2994 206.598 93.279 206.193 93.252 205.788V205.791Z" fill="black"/>
        <path d="M95.369 206.176C95.3318 205.914 95.2945 205.652 95.2539 205.393C95.6839 205.311 96.1105 205.229 96.5304 205.151C96.5202 205.529 96.5101 205.907 96.4898 206.285C96.1308 206.363 95.7719 206.441 95.413 206.52C95.3995 206.404 95.386 206.288 95.369 206.176Z" fill="black"/>
        <path d="M97.3266 206.012C97.3266 206.029 97.3334 206.046 97.3367 206.067L97.3232 206.002C97.3232 206.002 97.3232 206.002 97.3232 206.006C97.269 205.682 97.2216 205.359 97.1641 205.032C97.8074 204.913 98.4372 204.8 99.0534 204.695C99.0534 205.032 99.0466 205.369 99.0432 205.706C98.4778 205.835 97.909 205.965 97.3401 206.094L97.3232 206.009L97.3266 206.012Z" fill="black"/>
        <path d="M99.6081 205.124C99.5911 204.95 99.581 204.78 99.5742 204.603C116.869 201.999 114.699 202.149 99.6521 205.567C99.6385 205.42 99.625 205.27 99.6081 205.124Z" fill="black"/>
        <path d="M202.614 259.498C202.614 259.498 202.611 259.491 202.607 259.484C202.618 259.498 202.625 259.515 202.635 259.529C202.628 259.519 202.621 259.508 202.614 259.494V259.498Z" fill="black"/>
        <path d="M202.533 259.361C202.547 259.385 202.56 259.405 202.57 259.425C202.557 259.405 202.547 259.385 202.533 259.361Z" fill="black"/>
        <path d="M387.127 255.767C387.08 255.256 386.731 254.769 386.264 254.558C388.072 254.35 389.88 254.139 391.688 253.918C391.708 254.129 391.725 254.34 391.735 254.551C391.749 254.837 391.745 255.123 391.742 255.409C391.742 255.436 391.742 255.46 391.739 255.487C390.205 255.675 388.668 255.855 387.13 256.029C387.137 255.944 387.137 255.855 387.13 255.767H387.127Z" fill="black"/>
        <path d="M393.73 255.195C393.706 254.847 393.669 254.507 393.622 254.163C393.598 254.003 393.568 253.846 393.537 253.686C395.464 253.445 397.387 253.196 399.31 252.934C399.286 253.176 399.269 253.414 399.252 253.656C399.232 253.949 399.212 254.238 399.192 254.531C397.377 254.776 395.555 255.011 393.737 255.239C393.737 255.222 393.737 255.208 393.733 255.191L393.73 255.195Z" fill="black"/>
        <path d="M400.607 253.462C400.601 253.23 400.597 252.995 400.594 252.764C402.503 252.502 404.41 252.229 406.312 251.95C406.306 252.08 406.302 252.209 406.296 252.335C406.275 252.74 406.248 253.142 406.228 253.543C404.372 253.816 402.517 254.081 400.655 254.337C400.638 254.044 400.621 253.754 400.607 253.462Z" fill="black"/>
        <path d="M407.947 251.705C410.368 251.341 412.782 250.96 415.193 250.565C415.207 250.732 415.22 250.902 415.23 251.069V251.021C415.247 251.389 415.264 251.756 415.281 252.124C412.887 252.522 410.487 252.903 408.083 253.264C408.029 252.743 407.985 252.226 407.951 251.702L407.947 251.705Z" fill="black"/>
        <path d="M416.48 250.35C420.801 249.628 425.108 248.852 429.394 248.015C440.077 245.85 450.614 243.358 460.514 239.572C464.177 238.139 467.838 236.454 470.892 234.391C488.38 222.384 458.889 213.107 446.683 209.842C431.534 205.903 415.996 203.139 400.292 201.035C400.292 200.984 400.292 200.937 400.292 200.885C400.292 200.78 400.279 200.671 400.272 200.565C400.259 200.388 400.242 200.208 400.208 200.034C400.184 199.898 400.16 199.759 400.127 199.622C400.113 199.575 400.099 199.527 400.086 199.479C410.169 200.834 420.195 202.445 430.115 204.409C440.899 206.601 451.653 209.151 461.651 213.022C471.731 216.865 484.682 224.447 474.738 233.55C471.836 236.134 468.132 238.084 464.299 239.749C457.189 242.803 449.523 244.978 441.793 246.874C433.501 248.805 425.121 250.459 416.677 251.889C416.619 251.375 416.555 250.861 416.484 250.35H416.48Z" fill="black"/>
        <path d="M395.51 200.412C395.487 199.898 395.47 199.377 395.412 198.867C396.794 199.027 398.219 199.248 399.563 199.408C399.641 199.578 399.675 199.766 399.702 199.949C399.702 199.939 399.702 199.929 399.699 199.919C399.722 200.103 399.743 200.286 399.753 200.474V200.44C399.753 200.545 399.753 200.651 399.753 200.76C399.753 200.749 399.753 200.739 399.753 200.726C399.753 200.804 399.753 200.882 399.749 200.96C398.338 200.773 396.926 200.589 395.514 200.412H395.51Z" fill="black"/>
        <path d="M391.872 199.966C391.831 199.449 391.794 198.931 391.75 198.414C392.661 198.523 393.572 198.635 394.479 198.751C394.493 199.258 394.455 199.769 394.401 200.276C393.558 200.171 392.715 200.068 391.868 199.966H391.872Z" fill="black"/>
        <path d="M386.894 199.391C386.867 198.874 386.847 198.356 386.83 197.839C388.083 197.982 389.336 198.128 390.588 198.274C390.578 198.785 390.565 199.299 390.538 199.81C389.326 199.667 388.11 199.527 386.894 199.391Z" fill="black"/>
        <path d="M381.706 198.826C381.601 198.281 381.435 197.75 381.256 197.226C382.769 197.386 384.286 197.553 385.8 197.723C385.756 198.234 385.712 198.744 385.674 199.255C384.354 199.108 383.03 198.965 381.706 198.826Z" fill="black"/>
        <path d="M376.575 198.302C376.554 197.784 376.547 197.263 376.575 196.746C377.648 196.855 378.718 196.964 379.788 197.076C379.913 197.597 380.015 198.128 380.079 198.659C378.911 198.537 377.743 198.421 376.571 198.305L376.575 198.302Z" fill="black"/>
        <path d="M369.443 197.617C369.45 197.103 369.589 196.565 369.474 196.058C371.441 196.242 373.405 196.429 375.372 196.623C375.26 197.127 375.206 197.645 375.172 198.162C373.263 197.975 371.353 197.794 369.443 197.617Z" fill="black"/>
        <path d="M241.281 175.915C241.39 175.578 241.488 175.237 241.583 174.9C241.589 174.873 241.596 174.846 241.603 174.819C259.484 174.958 277.368 174.58 295.212 173.682C319.543 172.361 344.006 170.267 367.673 165.654C375.369 164.095 382.964 162.301 390.098 159.571C392.739 158.539 395.376 157.324 397.577 155.836C410.179 147.186 388.926 140.5 380.133 138.147C376.761 137.272 373.358 136.476 369.935 135.747C369.935 135.502 369.921 135.261 369.897 135.015C369.884 134.869 369.864 134.719 369.84 134.569C377.055 136.074 384.223 137.844 390.917 140.438C398.183 143.206 407.515 148.67 400.347 155.234C398.254 157.096 395.59 158.502 392.827 159.7C387.704 161.899 382.178 163.469 376.608 164.837C350.463 170.921 323.118 173.198 295.98 174.747C280.354 175.557 264.691 175.952 249.028 175.952C246.445 175.952 243.865 175.942 241.281 175.922V175.915Z" fill="black"/>
        <path d="M237.721 175.877C237.545 175.503 237.345 175.135 237.139 174.771C237.437 174.774 237.735 174.778 238.029 174.781C237.965 175.02 237.897 175.258 237.833 175.496C237.799 175.622 237.762 175.751 237.728 175.877C237.728 175.877 237.724 175.877 237.721 175.877Z" fill="black"/>
        <path d="M189.189 172.885C188.072 172.807 186.917 172.722 185.729 172.633C185.762 173.004 185.786 173.379 185.806 173.75C186.886 173.828 187.963 173.906 189.043 173.978C189.05 173.913 189.06 173.852 189.067 173.787C189.06 173.835 189.053 173.879 189.05 173.927C189.094 173.579 189.141 173.232 189.189 172.885Z" fill="black"/>
        <path d="M182.633 172.391C182.643 172.766 182.65 173.14 182.657 173.515C183.351 173.569 184.041 173.62 184.735 173.671C184.742 173.3 184.742 172.929 184.735 172.555C184.045 172.5 183.344 172.446 182.633 172.388V172.391Z" fill="black"/>
        <path d="M178.366 173.168C179.44 173.259 180.513 173.345 181.586 173.43C181.603 173.157 181.617 172.885 181.63 172.613C181.634 172.514 181.64 172.412 181.644 172.313C180.54 172.225 179.416 172.129 178.271 172.031C178.305 172.408 178.336 172.79 178.366 173.168Z" fill="black"/>
        <path d="M177.021 171.922C175.903 171.823 174.769 171.721 173.621 171.615C173.621 171.997 173.621 172.374 173.621 172.756C174.755 172.861 175.89 172.96 177.024 173.059C177.024 172.745 177.024 172.436 177.021 172.126C177.021 172.058 177.021 171.993 177.017 171.925L177.021 171.922Z" fill="black"/>
        <path d="M169.367 172.344C170.179 172.425 170.992 172.504 171.808 172.582C171.811 172.405 171.818 172.228 171.821 172.051C171.828 171.85 171.832 171.646 171.838 171.445C171.002 171.363 170.159 171.282 169.312 171.197C169.333 171.578 169.353 171.963 169.367 172.344Z" fill="black"/>
        <path d="M166.631 172.065C167.068 172.109 167.501 172.157 167.938 172.201C167.938 172.146 167.945 172.092 167.948 172.034C167.965 171.711 167.978 171.387 167.992 171.064C167.603 171.023 167.21 170.985 166.82 170.945C166.76 171.319 166.695 171.694 166.631 172.068V172.065Z" fill="black"/>
        <path d="M97.0386 152.874C91.4518 143.846 118.539 137.739 126.756 135.805C128.382 135.458 129.997 135.08 131.612 134.706C131.629 134.505 131.649 134.3 131.666 134.1C120.3 135.9 99.8184 140.748 95.6029 147.856C92.2306 153.971 101.237 158.321 107.271 160.657C117.55 164.507 128.71 166.676 139.819 168.551C148.06 169.879 156.359 170.968 164.692 171.867C164.77 171.496 164.844 171.122 164.919 170.75C136.799 167.741 104.098 162.229 97.0386 152.881V152.874Z" fill="black"/>
        <path d="M135.955 133.541C136.003 133.593 136.051 133.641 136.102 133.692C136.064 133.699 136.027 133.709 135.989 133.716C135.979 133.658 135.965 133.6 135.955 133.541Z" fill="black"/>
        <path d="M221.621 345.729C197.226 344.885 172.807 343.537 148.554 341.218C148.127 341.177 147.792 340.837 147.751 340.411C147.734 340.231 147.707 340.04 147.67 339.863C147.612 339.608 147.819 339.373 148.076 339.397C167.985 341.324 185.544 342.43 195.885 342.924C226.903 344.51 288.936 344.646 289.092 344.643C289.247 344.64 289.542 345.297 289.271 345.678C289 346.059 276.445 346.495 269.213 346.495C253.343 346.495 237.477 346.233 221.618 345.726L221.621 345.729Z" fill="black"/>
        <path d="M122.095 337.085C122.095 337.085 122.095 337.068 122.095 337.062C122.095 337.062 122.095 337.058 122.095 337.055C122.095 337.045 122.095 337.031 122.095 337.021C122.095 337.045 122.091 337.068 122.088 337.092V337.085H122.095Z" fill="black"/>
        <path d="M122.105 336.979C122.105 336.979 122.105 336.952 122.108 336.939C122.108 336.959 122.105 336.983 122.102 337.003C122.102 336.996 122.102 336.99 122.102 336.979H122.105Z" fill="black"/>
        <path d="M89.5312 333.279C89.9139 332.776 90.2931 332.272 90.6723 331.768C91.1328 331.85 91.5899 331.935 92.0537 332.016C92.0436 332.05 92.0334 332.081 92.0266 332.115C91.8743 332.626 91.7219 333.14 91.5695 333.65C90.889 333.528 90.2118 333.405 89.5346 333.283L89.5312 333.279Z" fill="black"/>
        <path d="M84.293 332.289C84.4487 331.744 84.5943 331.199 84.7399 330.655C85.8945 330.879 87.0626 331.104 88.2375 331.322C87.8719 331.826 87.5062 332.333 87.1405 332.837C86.1891 332.656 85.241 332.476 84.293 332.292V332.289Z" fill="black"/>
        <path d="M79.1445 331.247C79.2935 330.951 79.4526 330.661 79.6219 330.375C79.7608 330.147 79.903 329.926 80.052 329.705C81.2573 329.957 82.4729 330.205 83.7019 330.447C83.536 330.988 83.3701 331.533 83.1873 332.071C81.8363 331.802 80.4921 331.53 79.1479 331.247H79.1445Z" fill="black"/>
        <path d="M48.589 322.695C-4.417 301.864 67.4586 284.523 90.8855 280.734C95.1619 280.043 97.5625 279.467 98.1516 279.818C47.4412 288.639 -11.7203 309.582 79.553 329.599C79.2449 330.103 78.9401 330.61 78.6896 331.148C68.3694 328.966 58.2287 326.304 48.589 322.692V322.695Z" fill="black"/>
        <path d="M307.891 344.742C307.918 344.582 307.942 344.418 307.969 344.258C309.201 344.224 310.43 344.19 311.663 344.153C311.439 344.745 311.189 345.324 310.918 345.896C309.844 345.926 308.775 345.957 307.701 345.984C307.762 345.569 307.826 345.157 307.894 344.742H307.891Z" fill="black"/>
        <path d="M317.392 345.576C317.341 345.317 317.291 345.058 317.24 344.796C317.206 344.629 317.331 344.473 317.501 344.466C319.657 344.394 321.811 344.316 323.968 344.231C324.171 344.224 324.313 344.432 324.232 344.616C324.056 345.021 323.869 345.419 323.676 345.814C323.632 345.906 323.541 345.964 323.439 345.971C321.882 346.028 318.909 346.025 317.849 345.971C317.626 345.96 317.44 345.794 317.396 345.572L317.392 345.576Z" fill="black"/>
        <path d="M331.531 344.354C331.433 344.122 331.362 343.874 331.281 343.632C331.257 343.567 331.237 343.502 331.213 343.434C334.504 343.291 337.795 343.138 341.083 342.971C341.655 342.941 342.224 342.91 342.796 342.876C342.485 343.472 342.166 344.068 341.824 344.646C338.503 344.817 335.178 344.977 331.856 345.123C331.748 344.864 331.64 344.609 331.531 344.35V344.354Z" fill="black"/>
        <path d="M348.326 342.566C380.36 340.691 443.595 332.193 447.715 331.632C447.827 331.618 447.922 331.707 447.919 331.819C447.895 332.278 447.851 332.735 447.797 333.191C447.783 333.3 447.699 333.388 447.59 333.409C415.346 339.393 382.185 342.236 349.149 344.224C348.861 343.679 348.594 343.125 348.326 342.566Z" fill="black"/>
        <path d="M454.32 331.053C454.249 330.845 454.185 330.634 454.117 330.427C456.237 329.998 458.353 329.555 460.462 329.092C460.33 329.375 460.178 329.65 460.032 329.926C459.85 330.243 459.663 330.549 459.457 330.845C459.396 330.927 459.331 331.005 459.267 331.087C457.737 331.41 456.206 331.727 454.672 332.037C454.551 331.71 454.432 331.387 454.32 331.053Z" fill="black"/>
        <path d="M463.998 329.698C463.984 329.276 463.998 328.854 464.008 328.432C464.015 328.387 464.018 328.343 464.025 328.299C465.996 327.846 467.959 327.373 469.913 326.876C469.706 327.247 469.493 327.615 469.263 327.969C469.016 328.326 468.755 328.677 468.471 329.01C468.464 329.017 468.457 329.027 468.45 329.034C468.223 329.092 467.993 329.147 467.766 329.204C466.524 329.494 465.281 329.776 464.035 330.055C464.022 329.936 464.011 329.821 464.001 329.701L463.998 329.698Z" fill="black"/>
        <path d="M473.844 326.209C473.844 326.209 473.844 326.222 473.844 326.229C473.844 326.1 473.844 325.97 473.834 325.841C476.055 325.231 478.259 324.588 480.443 323.9C479.874 324.568 479.312 325.238 478.747 325.906C478.601 326.069 478.456 326.232 478.31 326.392C476.837 326.825 475.351 327.24 473.861 327.638C473.834 327.162 473.837 326.685 473.841 326.209H473.844Z" fill="black"/>
        <path d="M486.527 323.247C486.473 323.08 486.419 322.917 486.344 322.757C486.273 322.6 486.185 322.454 486.097 322.307C486.043 322.222 485.979 322.144 485.904 322.069C486.859 321.728 487.811 321.374 488.759 321.014C492.869 319.407 496.973 317.517 500.399 315.202C520.014 301.735 486.937 291.331 473.251 287.668C461.049 284.495 448.619 282 436.057 279.971C436.057 279.968 436.051 279.961 436.051 279.957C435.993 279.573 435.952 279.185 435.962 278.797C435.962 278.783 435.966 278.766 435.969 278.752C435.973 278.739 435.976 278.725 435.983 278.711C436.007 278.66 436.034 278.609 436.061 278.558C436.067 278.551 436.071 278.545 436.074 278.538C436.091 278.517 436.111 278.5 436.128 278.483C436.2 278.422 436.271 278.361 436.342 278.3C442.48 279.283 448.595 280.369 454.67 281.575C466.764 284.032 478.824 286.892 490.039 291.233C501.344 295.542 515.866 304.046 504.713 314.256C501.456 317.153 497.305 319.342 493.008 321.211C490.929 322.103 488.806 322.93 486.649 323.703C486.615 323.55 486.578 323.397 486.531 323.247H486.527Z" fill="black"/>
        <path d="M123.498 350.063C126.413 346.253 127.585 339.155 123.363 335.941C121.016 336.135 123.698 338.804 123.739 340.03C125.631 346.842 118.978 354.461 111.99 353.092C110.689 352.847 110.324 354.893 111.634 355.115C116.141 356.003 120.83 353.705 123.498 350.063Z" fill="black"/>
        <path d="M125.697 356.544C126.245 356.003 126.625 355.295 127.099 354.689C129.391 350.543 131.578 345.858 131.158 340.993C131.097 334.614 125.25 328.387 118.969 332.329C114.842 335.261 117.466 340.599 117.032 344.677C113.735 352.551 105.828 340.684 107.139 336.074C107.532 326.246 117.131 319.842 126.384 321.95C132.817 323.761 137.91 329.16 139.989 335.451C140.747 336.799 139.948 340.616 141.594 340.755C142.149 340.776 142.636 340.326 142.653 339.768C142.366 325.994 126.855 314.682 114.165 321.62C107.87 324.7 104.505 331.969 105.121 338.811C106.045 343.308 109.062 348.977 114.127 349.31C123.317 348.003 116.233 338.859 119.667 334.437C126.391 329.616 130.393 339.332 128.93 344.946C128.24 347.785 127.004 350.43 125.785 353.065C125.098 353.933 123.069 357.661 125.7 356.551L125.697 356.544Z" fill="black"/>
        <path d="M141.723 339.796C141.685 339.744 141.613 339.73 141.562 339.768C141.511 339.806 141.498 339.878 141.535 339.929C141.573 339.98 141.644 339.994 141.695 339.956C141.746 339.919 141.76 339.847 141.723 339.796Z" fill="black"/>
        <path d="M135.525 349.477C142.361 338.294 129.643 317.912 116.557 326.042C111.245 329.793 109.348 338.182 111.942 343.955C114.17 344.752 113.293 342.018 113.08 340.837C112.877 339.359 112.843 337.862 113.015 336.377C114.712 322.869 129.183 323.574 133.781 334.964C135.284 338.454 135.731 342.434 134.827 346.141C134.465 347.247 133.172 351.162 135.525 349.474V349.477Z" fill="black"/>
        <path d="M136.371 319.451C134.042 315.342 128.038 314.307 123.627 314.089C111.969 313.865 100.041 323.029 99.4582 335.162C99.4311 335.72 99.8814 336.207 100.437 336.231C102.211 336.023 101.32 333.422 101.927 332.197C105.075 318.981 121.917 312.043 133.53 318.736C133.493 318.716 133.52 318.729 133.432 318.685C134.255 318.94 135.755 320.609 136.375 319.451H136.371Z" fill="black"/>
        <path d="M124.548 309.681C122.073 307.332 117.674 308.166 114.556 308.649C107.784 310.184 101.388 315.005 99.2654 321.82C98.8692 323.083 100.833 323.71 101.216 322.43C103.335 315.733 109.944 311.338 116.632 310.334C118.189 309.585 124.802 311.161 124.548 309.684V309.681Z" fill="black"/>
        <path d="M118.132 304.891C118.738 302.675 112.417 303.852 111.201 304.227C106.945 305.446 102.77 307.652 99.8854 311.093C99.2624 312.002 97.6948 313.745 99.1372 314.576C99.9295 314.92 100.498 314.246 100.712 313.541C104.423 307.716 111.78 305.779 118.132 304.891Z" fill="black"/>
        <path d="M329.138 90.4396C329.114 90.4053 329.069 90.3984 329.035 90.4224C329.001 90.4465 328.994 90.4911 329.018 90.5255C329.042 90.5599 329.087 90.5667 329.121 90.5427C329.155 90.5186 329.162 90.474 329.138 90.4396Z" fill="black"/>
        <path d="M319.125 91.3142C319.153 90.4154 317.734 86.6298 316.806 88.475C318.353 91.1678 318.191 94.6198 315.899 96.887C314.456 98.4122 312.272 99.3416 310.177 98.916C309.35 98.7594 309.113 100.067 309.95 100.206C314.92 101.183 319.735 96.2709 319.125 91.3108V91.3142Z" fill="black"/>
        <path d="M329.713 89.7278C329.144 83.3617 323.31 77.3599 316.822 77.4689C309.756 77.5846 303.871 84.5941 306.275 91.5423C307.203 94.8411 311.879 98.8616 314.364 94.7526C315.739 92.0359 312.319 86.5005 317.107 86.2282C321.478 86.4426 321.746 92.5023 320.395 95.6411C319.816 97.476 318.597 99.0727 318.058 100.877C318.542 102.041 319.457 100.428 319.809 99.934C327.281 88.1925 316.748 80.2434 313.247 87.7295C312.448 90.0444 314.652 93.1764 312.489 94.9194C309.756 96.07 307.941 92.4206 307.217 90.2929C306.766 88.2401 307.308 86.0341 308.05 84.1141C311.608 77.3701 321.129 77.234 325.534 83.1711C327.2 85.1899 328.419 87.7056 328.426 90.3678C328.673 91.7227 330.112 90.8274 329.709 89.7244L329.713 89.7278Z" fill="black"/>
        <path d="M325.183 86.6469C319.796 74.9361 306.11 81.7243 310.143 93.0913C312.052 93.5509 310.498 90.6742 310.756 89.6836C310.288 84.7269 315.181 79.6817 319.982 82.623C323.957 84.9141 325.792 90.0921 324.739 94.4871C324.682 95.253 323.723 96.5024 324.668 96.8871C327.36 94.7424 326.381 89.5168 325.179 86.6435L325.183 86.6469Z" fill="black"/>
        <path d="M308.26 78.6468C312.58 75.0926 319.003 74.2314 323.912 77.0059C323.889 76.9923 323.906 77.0025 323.848 76.9718C328.778 79.5897 323.306 73.5811 317.594 74.0407C310.159 73.8977 302.551 79.7429 302.178 87.4809C302.162 87.8384 302.449 88.1482 302.801 88.1652C303.932 88.0324 303.367 86.3745 303.753 85.5916C304.406 82.8238 306.079 80.417 308.256 78.6468H308.26Z" fill="black"/>
        <path d="M302.486 79.7906C303.559 79.9779 303.444 78.3745 303.962 77.7617C304.687 76.4238 305.615 75.3753 306.759 74.4289C309.617 72.0935 313.409 71.1403 317.032 71.6237C317.414 71.6577 318.207 71.8177 318.18 71.2254C314.09 68.6313 307.992 71.2901 304.789 74.4595C303.952 75.4093 301.051 78.7932 302.483 79.7906H302.486Z" fill="black"/>
        <path d="M302.835 74.0169C304.989 70.0271 309.983 68.7709 314.09 68.1751C314.5 67.5862 313.47 67.4602 313.084 67.3921C309.797 67.1708 306.539 68.6653 303.966 70.633C303.14 71.4569 300.787 73.1829 301.972 74.3539C302.287 74.4935 302.703 74.3539 302.832 74.0203L302.835 74.0169Z" fill="black"/>
        <path d="M506.124 219.303C506.927 231.112 481.001 221.57 477.649 215.544C475.57 213.124 479.173 206.479 482.471 209.022C487.492 203.592 499.149 199.697 497.859 211.183C497.636 212.191 497.172 213.522 498.689 213.607C502.339 212.831 505.488 215.435 506.124 219.303Z" fill="white"/>
        <path d="M444.288 173.835C443.137 179.769 424.602 186.785 422.503 185.427C419.974 183.789 418.504 177.059 416.713 167.513C415.775 162.522 431.875 158.454 437.672 157.974C441.037 157.698 445.006 170.145 444.291 173.835H444.288Z" fill="#ADDDFF"/>
        <path d="M228.211 170.008C230.923 170.41 233.52 175.145 231.567 178.962C229.955 182.114 205.499 180.432 204.364 178.111C200.887 174.996 201.466 168.984 208.576 169.504C210.286 167.091 211.783 159.676 217.695 160.779C226.329 161.882 222.601 170.618 228.211 170.008Z" fill="#EAF5FF"/>
        <path d="M82.9758 213.71C84.8922 216.838 82.7049 223.762 81.1271 227.405C77.274 234.595 65.7755 224.991 62.5995 222.564C58.9665 220.212 64.3263 210.894 65.6773 207.282C65.3455 205.161 82.2648 211.626 82.9758 213.713V213.71Z" fill="white"/>
        <path d="M433.24 173.229C435.373 170.972 433.808 167.278 430.578 167.625C426.867 168.024 426.437 173.525 429.864 174.254C429.471 178.536 435.488 176.698 433.24 173.229Z" fill="black"/>
        <path d="M443.062 164.064C442.209 161.058 440.733 155.778 436.714 156.609C431.571 157.028 426.543 159.322 421.653 161.011C420.292 155.758 418.102 150.624 417.319 145.252C416.71 141.055 418.941 136.867 422.849 135.26C424.328 134.651 425.93 134.736 427.464 135.09C427.613 135.124 427.762 135.169 427.904 135.226C430.795 136.346 432.173 139.22 433.236 141.947C433.87 143.07 433.643 145.691 435.468 145.395C436.064 145.232 436.429 144.588 436.263 143.989C434.317 130.91 419.232 127.454 415.193 140.466C414.116 143.931 418.017 157.052 419.574 161.862C414.766 164.122 414.526 166.955 416.26 173.27C417.614 178.203 417.617 185.719 422.202 186.761C426.678 187.367 430.69 184.623 434.672 182.992C446.093 178.155 447.606 176.201 443.059 164.068L443.062 164.064ZM436.771 179.384C433.28 180.562 422.832 188.276 420.864 182.158C419.859 179.037 418.01 173.767 417.628 169.692C417.394 167.22 418.745 164.847 420.969 163.772C424.843 161.899 429.427 161.395 433.314 159.533C439.433 156.881 440.09 162.481 441.647 166.921C444.098 173.665 444.19 177.018 436.775 179.387L436.771 179.384Z" fill="black"/>
        <path d="M413.608 153.712C412.5 153.242 410.513 141.024 413.191 143.172C413.486 146.338 414.434 149.429 415.145 152.527C415.412 153.416 414.356 154.195 413.611 153.712H413.608Z" fill="black"/>
        <path d="M421.581 193.985C417.515 193.621 414.431 190.724 413.648 186.717C413.327 184.974 412.964 183.091 413.499 181.358C413.608 181.089 414.011 181.086 414.116 181.358C414.363 182.073 414.37 182.86 414.62 183.578C414.942 184.558 415.179 185.563 415.504 186.54C416.218 188.368 417.383 190.182 419.215 191.02C420.095 191.462 421.077 191.585 422.015 191.857C423.244 192.222 422.932 193.992 421.73 193.992C421.683 193.992 421.632 193.992 421.578 193.982L421.581 193.985Z" fill="black"/>
        <path d="M414.767 195.942C414.012 195.711 413.365 195.258 412.766 194.754C411.781 193.988 410.88 193.076 410.433 191.888C410.081 190.938 409.604 189.866 409.837 188.848C410.034 188.341 410.762 188.252 411.08 188.688C411.595 189.644 411.886 190.737 412.502 191.65C413.277 192.613 414.334 193.433 415.468 193.917C416.575 194.376 416.125 195.99 415.082 195.99C414.984 195.99 414.879 195.976 414.771 195.942H414.767Z" fill="black"/>
        <path d="M72.233 215.02C70.7432 214.921 69.785 215.51 69.3042 217.019C69.0063 217.958 69.3347 219.024 69.9814 219.762C69.8798 219.899 69.8019 220.052 69.7749 220.225C69.5649 220.648 69.4634 221.138 69.6597 221.587C69.9306 222.248 70.5841 222.779 71.3019 222.779C71.3865 222.779 71.4712 222.772 71.5558 222.755C72.5784 222.54 72.9745 221.526 72.8425 220.624C75.7408 220.008 75.4665 215.231 72.2364 215.017L72.233 215.02Z" fill="black"/>
        <path d="M81.5311 210.159C82.8652 206.084 83.8335 201.883 84.6665 197.662C85.2421 195.871 85.8481 193.91 85.2455 192.044C82.8076 184.225 71.7459 182.277 68.8713 190.979C68.2212 192.262 67.8352 193.655 67.4221 195.027C67.2799 195.534 67.5914 196.079 68.0959 196.215C69.6331 196.463 69.4503 194.25 69.9819 193.297C70.9028 190.935 72.0981 188.177 74.6713 187.292C78.6125 186.24 83.197 189.685 83.6744 193.672C83.4611 199.112 81.1316 204.205 79.7773 209.43C75.6465 207.983 71.3938 206.06 67.0395 205.699C63.6401 205.001 62.3907 209.454 61.6695 212.004C60.5454 215.446 58.155 220.75 61.0364 223.82C63.1729 225.928 66.2608 226.476 68.763 228.014C72.1285 229.397 75.5246 231.718 79.31 231.204C83.2241 230.275 83.0175 223.03 84.338 219.79C85.733 214.438 85.8685 212.191 81.5244 210.155L81.5311 210.159ZM81.6767 222.516C80.7151 224.797 81.179 229.914 77.6577 229.332C73.8452 228.74 70.4796 226.51 66.9955 224.968C63.8568 223.64 60.7486 222.7 61.7508 218.537C62.5431 215.258 63.4302 211.864 65.0249 208.903C67.2325 205.75 71.387 209.294 74.2312 209.706C76.1814 210.329 78.1994 210.789 80.065 211.643C85.496 212.848 82.3945 218.714 81.6733 222.513L81.6767 222.516Z" fill="black"/>
        <path d="M86.5862 203.252C87.5241 202.789 89.217 192.603 86.9383 194.336C86.6878 197.015 85.8853 199.626 85.286 202.247C85.0592 203 85.953 203.66 86.5828 203.248L86.5862 203.252Z" fill="black"/>
        <path d="M79.844 237.319C83.2841 237.009 85.8946 234.561 86.5549 231.17C86.6463 230.738 86.9442 229.063 86.9205 227.858C86.9104 227.245 86.03 227.157 85.8912 227.752C85.2547 230.479 84.5064 233.519 81.8417 234.81C81.0968 235.184 80.2639 235.286 79.475 235.518C78.3678 235.848 78.7639 237.468 79.8406 237.315L79.844 237.319Z" fill="black"/>
        <path d="M85.6075 238.973C87.419 238.639 88.1808 236.573 88.4991 234.929C88.5871 234.466 87.981 234.217 87.7237 234.612C87.0364 235.667 86.0612 236.876 85.0184 237.261C83.9552 237.707 84.6121 239.303 85.6109 238.976L85.6075 238.973Z" fill="black"/>
        <path d="M252.138 256.788C252.138 256.788 252.122 256.798 252.115 256.801C252.125 256.794 252.132 256.791 252.138 256.788Z" fill="black"/>
        <path d="M253.084 254.892C253.084 254.892 253.108 254.858 253.118 254.841C253.111 254.861 253.101 254.882 253.094 254.899C253.094 254.899 253.087 254.892 253.084 254.889V254.892Z" fill="black"/>
        <path d="M228.322 247.518C228.322 247.518 228.333 247.532 228.336 247.539C228.329 247.532 228.326 247.525 228.322 247.518Z" fill="black"/>
        <path d="M236.389 263.406C236.389 263.406 236.405 263.416 236.415 263.422C236.409 263.416 236.399 263.412 236.389 263.406Z" fill="black"/>
        <path d="M118.431 197.634C117.984 197.934 117.53 198.223 117.076 198.509C117.005 197.805 116.727 194.989 115.759 196.443C115.759 196.443 115.759 196.443 115.756 196.44C115.634 197.389 115.729 198.329 115.834 199.272C112.488 200.613 114.381 202.213 115.718 201.175C115.813 201.1 115.932 201.063 116.037 201.005C116.267 201.869 115.935 203.013 116.568 203.701C117.198 204.222 118.173 203.555 117.943 202.775C117.76 201.917 117.601 201.097 117.428 200.252C118.065 199.898 118.698 199.534 119.328 199.173C120.327 198.574 119.433 197.049 118.434 197.634H118.431Z" fill="black"/>
        <path d="M198.094 172.504C197.982 172.092 197.539 171.83 197.126 171.952C197.027 171.979 196.804 172.044 196.513 172.136C196.33 171.224 196.245 170.288 196.015 169.382C195.798 168.749 194.989 168.902 195.053 169.576C195.023 170.587 195.091 171.595 195.162 172.606C193.784 173.137 192.365 173.869 193.289 174.39C193.499 174.444 193.713 174.349 193.916 174.305C194.041 174.305 194.183 174.305 194.261 174.196C194.59 174.094 194.921 174.005 195.253 173.934C195.284 174.42 195.304 174.904 195.307 175.391C195.433 176.242 196.641 176.327 196.872 175.496C197.021 174.897 196.936 174.281 196.811 173.668C197.491 173.545 198.284 173.321 198.097 172.5L198.094 172.504Z" fill="black"/>
        <path d="M238.619 176.671C238.345 176.017 238.643 172.422 237.373 173.198C237.373 173.198 237.373 173.195 237.373 173.191C237.211 173.372 237.19 173.651 237.173 173.886C237.146 174.203 237.126 174.519 237.106 174.836C236.408 175.023 235.694 175.234 235.142 175.721C234.57 176.072 234.573 177.113 235.325 177.222C235.667 177.273 235.992 176.991 235.988 176.64C236.249 176.47 236.625 176.432 237.001 176.398C236.97 176.803 236.97 177.215 237.15 177.566C237.735 178.546 239.198 177.658 238.619 176.677V176.671Z" fill="black"/>
        <path d="M367.821 135.683C367.696 134.845 367.567 134.008 367.391 133.177C367.337 132.748 367.093 131.958 366.538 132.319C366.341 132.479 366.352 132.741 366.338 132.973C366.335 133.446 366.348 133.919 366.358 134.392C365.739 134.522 365.062 134.42 364.483 134.685C363.643 135.141 364.09 136.176 364.923 136.258C365.045 136.275 365.759 136.248 366.392 136.057C366.656 136.796 367.933 136.619 367.824 135.683H367.821Z" fill="black"/>
        <path d="M378.717 169.27C378.741 168.248 392.359 162.447 395.636 160.881C396.08 160.67 396.672 160.527 397.041 160.851C398.385 162.032 378.683 170.662 378.717 169.273V169.27Z" fill="black"/>
        <path d="M94.1433 253.724C88.201 252.767 82.6177 250.452 76.9328 248.556C74.9453 247.889 72.9476 247.249 71.0685 246.302C70.5538 245.955 68.4173 245.305 69.1554 244.502C69.2705 244.386 69.4703 244.338 69.6193 244.396C70.4929 244.73 71.3495 245.111 72.2231 245.441C74.9148 246.449 77.715 247.13 80.4372 248.049C83.2069 248.927 85.9562 249.874 88.7462 250.68C90.622 251.211 92.5417 251.562 94.4446 251.974C95.5789 252.209 95.2945 253.904 94.1433 253.727V253.724Z" fill="black"/>
        <path d="M64.2729 284.305C64.4795 283.226 68.1836 282.344 69.2265 281.891C72.5243 280.805 75.9068 279.862 79.2318 278.916C81.5409 278.446 83.8535 277.275 86.1661 277.149C86.7213 277.408 86.6638 278.289 86.0746 278.47C79.1166 280.962 71.7727 282.129 64.7436 284.223C64.4998 284.274 64.2898 284.598 64.2695 284.305H64.2729Z" fill="black"/>
        <path d="M171.961 346.611C164.238 345.828 156.474 344.823 148.866 343.383C148.734 343.329 148.622 343.217 148.568 343.084C148.487 342.89 148.653 342.682 148.862 342.682C154.639 342.672 160.588 344.081 166.425 344.517C168.341 344.711 170.258 344.905 172.171 345.103C173.143 345.246 172.963 346.73 171.964 346.611H171.961Z" fill="black"/>
        <path d="M277.888 348.959C277.864 348.959 277.844 348.963 277.82 348.966C277.749 348.977 277.671 348.949 277.63 348.878C277.485 348.469 278.213 348.541 278.453 348.452C282.476 347.758 286.586 348.071 290.625 347.615C292.01 347.428 293.385 347.176 294.763 346.948C295.119 346.886 295.464 347.165 295.511 347.519C295.559 347.88 295.301 348.221 294.942 348.272C293.903 348.422 292.864 348.565 291.824 348.711C289.173 349.102 286.501 348.857 283.837 348.834C281.842 348.776 279.852 348.888 277.864 348.966H277.891L277.888 348.959Z" fill="black"/>
        <path d="M439.598 250.65C439.456 250.224 439.693 249.775 440.106 249.622C441.413 249.142 442.723 248.672 444.03 248.202C449.614 246.221 455.454 245.063 461.01 242.997C464.071 241.887 467.024 240.515 469.851 238.901C470.467 238.558 471.08 238.21 471.696 237.867C472.028 237.717 472.489 237.271 472.77 237.676C473.095 238.833 470.237 240.614 469.387 241.22C463.712 244.862 456.981 246.258 450.582 248.08C448.469 248.665 446.36 249.254 444.281 249.952C443.058 250.357 441.84 250.762 440.617 251.16C440.208 251.297 439.737 251.075 439.595 250.65H439.598Z" fill="black"/>
        <path d="M491.507 289.411C485.08 286.313 478.39 283.835 471.598 281.687C471.598 281.687 471.598 281.687 471.601 281.683C471.178 281.629 471.164 280.972 471.591 280.894C472.011 280.812 472.451 280.945 472.864 281.023C477.804 282.228 482.639 283.889 487.339 285.833C487.312 285.823 487.285 285.813 487.258 285.803C488.917 286.494 490.542 287.253 492.177 287.999C493.088 288.465 492.435 289.83 491.503 289.411H491.507Z" fill="black"/>
        <path d="M319.651 347.121C319.638 345.964 319.607 342.774 319.746 342.362C320.146 341.576 321.07 342.025 321.182 342.76C321.402 344.197 321.425 345.671 321.456 347.121C321.456 347.615 321.05 348.027 320.555 348.027C320.061 348.027 319.661 347.615 319.655 347.121H319.651Z" fill="black"/>
        <path d="M327.875 345.531C326.602 345.317 326.08 343.686 327.658 343.506C328.24 343.509 328.935 343.765 329.073 344.398C329.249 345.082 328.525 345.685 327.875 345.531Z" fill="black"/>
        <path d="M303.73 346.451C303.32 346.376 302.887 346.134 302.714 345.736C302.636 345.46 302.575 345.133 302.66 344.854C302.907 344.398 303.503 344.108 304.011 344.265C304.549 344.398 305.328 344.844 305.094 345.508C304.946 346.124 304.383 346.583 303.733 346.451H303.73Z" fill="black"/>
        <path d="M345.223 344.575C344.17 344.132 344.847 342.314 345.913 342.849C347.058 343.448 346.496 345.072 345.223 344.575Z" fill="black"/>
        <path d="M225.857 168.401C224.631 157.276 209.815 158.049 208.386 168.684C200.595 167.213 198.767 175.353 204.824 179.428C205.278 180.065 206.266 180 206.971 180.133C214.176 180.827 221.388 180.729 228.579 181.396C237.691 181.181 233.079 167.574 225.86 168.401H225.857ZM231.664 176.422C231.379 180.929 226.026 179.227 222.996 179.37C218.147 179.343 213.306 178.812 208.46 178.836C206.425 178.846 204.523 177.722 203.635 175.884C203.053 174.679 202.738 173.392 203.08 172.34C203.72 170.24 207.011 169.304 208.765 170.553C209.459 170.832 210.042 170.138 209.93 169.464C209.791 162.24 219.275 157.777 223.118 164.875C224.662 167.019 223.514 169.893 224.57 170.437C225.031 170.696 225.505 170.407 225.921 170.206C228.969 169.845 231.823 173.539 231.664 176.422Z" fill="black"/>
        <path d="M505.691 215.163C504.063 212.92 501.175 212.535 498.601 212.542C501.283 200.072 487.997 200.065 482.854 208.314C482.705 208.603 482.237 209.726 482.918 209.573C483.003 209.607 483.081 209.536 483.043 209.454C485.447 205.989 489.415 204.154 493.614 204.45C496.079 204.443 496.824 207.374 496.952 209.389C497.162 210.806 496.319 212.191 496.573 213.556C497.755 215.82 502.858 212.542 505.157 218.152C506.711 224.808 498.903 225.08 494.535 223.398C494.538 223.398 494.542 223.398 494.545 223.398C488.434 221.798 479.857 219.841 477.788 213.008C477.551 210.782 479.657 208.416 481.943 209.093C481.851 209.447 481.479 210.424 482.075 209.594C483.27 208.48 481.283 207.762 480.345 207.83C477.392 207.977 475.378 211.238 476.062 214.026C478.868 221.533 488.481 223.286 495.31 225.723C502.695 228.355 511.356 222.336 505.688 215.16L505.691 215.163Z" fill="black"/>
        <path d="M493.979 228.954C493.647 228.903 491.403 228.28 490.749 227.701C490.546 227.521 490.729 227.187 490.989 227.255C492.039 227.528 493.099 227.803 494.196 227.889C494.944 228.018 494.721 229.135 493.979 228.958V228.954Z" fill="black"/>
        <path d="M360.548 214.693C360.368 191.684 360.236 168.674 360.236 145.664C360.236 138.488 364.536 117.82 353.302 117.82C293.399 117.82 233.482 117.827 173.586 118.855C173.603 118.855 173.62 118.855 173.637 118.855C172.682 118.838 171.727 118.828 170.772 118.814C170.772 118.814 170.776 118.814 170.779 118.814C163.882 118.76 156.988 118.433 150.091 118.532C150.091 118.532 150.095 118.532 150.098 118.532C122.574 117.02 131.98 123.866 130.419 146.907C129.715 180.603 129.512 214.305 129.512 248.011C129.512 269.462 145.889 263.893 158.786 264.1C167.227 264.056 189.499 264.053 216.343 263.967C215.154 271.232 215.07 278.752 212.449 285.711C210.566 286.429 201.668 285.667 201.089 286.834C200.51 288.002 200.185 289.704 200.94 290.967C201.695 292.23 206.849 291.975 209.127 291.937C216.001 291.825 222.871 291.788 229.744 291.876C249.216 291.73 268.949 290.845 288.303 291.192C289.776 291.219 288.005 286.79 285.55 286.593C283.38 286.419 281.179 286.33 278.992 286.334C278.355 286.334 277.773 285.987 277.478 285.421C273.947 278.647 273.466 271.127 271.976 263.678C475.854 259.651 186.486 261.087 141.132 261.462C141.132 261.462 141.132 261.462 141.135 261.462C133.632 261.462 131.99 251.6 131.99 251.627C132.027 250.221 132.129 241.707 132.251 229.557C207.492 230.217 282.808 229.407 358.069 229.935C357.575 238.364 357.863 246.565 358.269 254.214C357.842 260.999 355.743 259.62 350.549 260.829C349.669 261.639 351.45 262.061 351.992 262.367C355.296 262.783 360.307 262.03 360.121 257.676C360.981 243.422 360.389 229.022 360.554 214.71L360.548 214.693ZM270.964 269.711C271.831 275.76 272.562 282.739 276.676 287.498C277.698 288.227 284.65 287.702 285.946 288.145C286.39 288.547 286.607 289.142 286.85 289.704C258.707 289.35 230.523 289.973 202.383 290.109C202.606 289.347 202.61 288.918 202.694 287.941C204.171 288.489 213.312 288.683 214.345 286.49C217.616 279.542 218.269 271.552 218.432 263.957C235.084 263.903 252.981 263.821 270.382 263.678C270.195 265.554 270.798 268.379 270.961 269.714L270.964 269.711ZM357.886 220.43C358.073 222.745 358.117 225.168 358.096 227.64C282.821 228.093 207.519 227.208 132.261 227.8C132.545 198.976 132.925 151.622 132.871 128.34C130.724 118.171 140.17 122.079 146.6 121.65C159.71 121.65 172.821 121.344 185.934 121.371C185.927 121.371 185.921 121.371 185.91 121.371C236.489 120.813 287.043 120.67 337.608 120.026C363.344 118.518 357.839 120.584 357.866 143.431C357.45 169.096 357.93 194.761 357.883 220.43H357.886Z" fill="black"/>
        <path d="M259.731 186.618C262.511 183.435 259.115 178.203 255.099 179.483C251.239 180.415 250.687 186.295 254.503 187.697C254.3 188.756 248.425 197.015 254.212 197.229C263.249 198.24 259.599 192.616 258.735 187.51C259.108 187.262 259.443 186.959 259.731 186.615V186.618Z" fill="black"/>
        <path d="M300.804 285.752C300.655 274.991 299.873 262.997 300.103 251.661C300.398 237.244 294.746 208.463 303.614 207.241C342.948 205.444 389.294 206.717 426.468 206.288C428.032 206.271 429.383 207.381 429.654 208.93C431.997 222.333 429.562 272.948 429.61 286.198C392.345 286.429 305.314 287.27 300.807 285.748L300.804 285.752Z" fill="#ADDDFF"/>
        <path d="M450.822 320.299C444.815 310.906 430.432 287.287 430.361 286.661C390.255 286.814 340.652 287.624 301.071 286.977C266.918 337.824 275.948 324.731 329.245 325.048C360.239 325.232 391.186 325.463 422.455 325.429C445.523 324.547 450.074 330.563 450.822 320.299Z" fill="#A8A7B6"/>
        <path d="M364.78 223.728C364.022 221.519 364.387 217.015 364.78 214.639C369.039 213.304 370.461 220.396 376.119 217.366C373.83 230.275 368.931 219.528 364.78 223.728Z" fill="#0079D0"/>
        <path d="M380.156 274.259C381.104 279.692 349.764 280.696 348.275 272.495C348.058 271.297 349.568 253.38 351.627 240.968C352.995 232.726 352.592 228.985 353.445 228.906C354.566 228.804 356.553 228.277 357.4 228.947L357.799 234.135L361.209 234.329C361.131 232.491 361.981 228.906 361.981 228.906L367.083 228.331C366.653 230.905 367.74 234.071 367.74 234.071C367.74 234.071 370.557 235.276 371.505 233.73C372.074 232.804 371.895 229.373 371.986 228.716C371.986 228.716 375.961 227.048 376.408 228.631C378.504 236.025 380.231 273.132 380.159 274.259H380.156Z" fill="#EAF5FF"/>
        <path d="M380.944 272.111C380.771 261.026 379.519 249.986 378.51 238.952C377.92 235.347 378.093 231.487 376.888 228.018C376.397 227.442 375.418 227.814 374.748 227.786C369.534 227.882 371.873 230.142 371.054 233.853C366.503 235.262 368.017 231.834 367.4 228.828C367.749 227.936 366.473 227.844 365.098 227.936C365.193 226.979 364.922 224.464 365.586 223.929C367.451 221.785 369.486 224.494 371.589 224.457C376.485 224.569 374.964 219.514 377.487 217.1C377.578 217.012 377.68 216.937 377.785 216.865C378.235 216.559 379.011 215.885 378.225 215.79C375.926 215.517 374.667 217.703 373.173 217.747C370.505 217.597 367.35 212.389 364.39 214.608C364.279 214.693 364.197 214.812 364.157 214.949C363.486 217.175 363.869 226.377 364.512 227.98C363.598 228.065 362.741 228.195 362.396 228.178C360.009 228.75 361.827 232.304 360.703 233.975C359.87 233.986 359.034 233.88 358.204 233.829C358.157 231.089 359.714 227.303 355.333 228.437C354.585 228.654 352.838 228.079 352.587 228.981C351.328 238.234 349.865 247.45 348.988 256.754C348.903 259.681 347.261 267.331 347.451 271.852C347.525 273.612 348.46 275.225 349.96 276.138C355.729 279.651 363.354 278.807 369.879 278.763C374.257 278.126 381.323 278.885 380.941 272.111H380.944ZM364.922 217.124C365.003 215.384 365.65 214.891 366.175 215.024C369.452 215.854 371.602 220.835 375.831 217.917C374.484 219.704 375.3 222.074 373.014 223.095C370.434 224.46 367.614 220.396 364.932 223.245C364.898 221.607 364.831 219.068 364.919 217.124H364.922ZM367.082 228.9C367.082 228.9 367.082 228.903 367.082 228.906C367.082 228.906 367.082 228.903 367.082 228.9ZM376.637 276.478C369.682 278.596 357.09 278.858 351.074 275.365C349.601 274.511 348.754 272.87 348.876 271.164C349.868 257.166 351.961 243.259 353.474 229.322C354.673 229.376 355.861 229.349 357.057 229.288C357.547 230.891 355.57 234.799 358.194 234.799C361.299 235.354 362.501 234.898 362.46 231.504C362.406 230.748 362.826 229.734 362.427 229.073C363.744 228.705 365.396 228.709 366.744 228.9C366.957 230.86 365.413 234.949 368.569 234.847C371.186 235.099 372.737 235.061 372.391 231.906C372.012 228.494 372.5 228.59 375.682 228.654C378.388 242.99 379.143 257.853 379.491 272.471C379.535 274.299 378.377 275.954 376.637 276.482V276.478Z" fill="black"/>
        <path d="M374.881 257.772C375.162 257.435 375.365 257.033 375.497 256.614C375.626 256.209 375.667 255.777 375.633 255.354C375.633 255.314 375.623 255.269 375.616 255.229C375.616 255.174 375.616 255.123 375.616 255.069C375.585 254.919 375.541 254.769 375.487 254.626C375.433 254.446 375.365 254.269 375.281 254.098C375.186 253.908 375.074 253.724 374.942 253.557C374.803 253.38 374.651 253.217 374.485 253.067C373.977 252.624 373.34 252.328 372.67 252.253C372.477 252.233 372.287 252.229 372.094 252.236C371.732 252.219 371.37 252.253 371.018 252.352C370.628 252.464 370.256 252.641 369.928 252.886C369.589 253.142 369.294 253.455 369.071 253.812C368.858 254.149 368.712 254.524 368.627 254.915C368.604 255.028 368.587 255.14 368.573 255.252C368.533 255.647 368.56 256.049 368.658 256.43C368.763 256.835 368.939 257.227 369.196 257.56C369.423 257.857 369.697 258.112 370.019 258.299C370.195 258.401 370.388 258.483 370.591 258.524C370.256 259.446 369.88 260.352 369.477 261.247C369.233 261.891 369.003 262.541 368.736 263.178C368.587 263.641 368.319 264.178 368.394 264.669C368.414 264.747 368.472 264.798 368.539 264.818C368.766 265.499 369.481 265.877 370.344 265.836C370.402 265.836 370.459 265.836 370.517 265.836C370.571 265.836 370.625 265.84 370.683 265.836C370.754 265.836 370.825 265.836 370.899 265.836C371.18 265.836 371.465 265.843 371.746 265.84C372.877 265.847 374.028 265.802 374.915 265.036C375.538 264.379 375.23 263.375 375.064 262.589C374.827 261.554 374.607 260.509 374.299 259.494C374.251 259.147 374.194 258.8 374.119 258.456C374.404 258.269 374.658 258.037 374.874 257.775L374.881 257.772Z" fill="black"/>
        <path d="M380.318 316.588C379.986 314.814 379.695 313.116 379.146 311.376C378.858 308.935 377.301 309.885 375.459 309.687C370.959 309.779 366.456 309.81 361.953 309.824C358.536 309.888 355.103 309.824 351.693 309.977C351.084 310.205 351.202 311.015 351.006 311.529C350.589 313.367 349.96 315.165 349.621 317.024C349.713 317.844 350.728 317.531 351.294 317.548C357.158 317.511 363.022 317.463 368.89 317.463C379.552 317.463 380.69 318.127 380.314 316.581L380.318 316.588ZM351.199 316.547C351.697 314.753 352.072 312.915 352.591 311.124C360.591 310.743 368.955 311.005 376.962 310.94C377.44 310.937 377.859 311.264 377.964 311.73C378.272 313.102 378.371 314.464 378.75 315.798C378.841 316.115 378.604 316.431 378.276 316.425C377.643 316.411 359.589 316.564 351.199 316.547Z" fill="black"/>
        <path d="M449.302 317.024C448.286 315.475 447.355 313.813 446.261 312.309C443.241 307.73 440.912 302.715 437.969 298.082C436.534 295.903 435.074 293.742 433.798 291.464C432.86 290.014 432.24 288.363 431.038 287.093C431.011 287.066 430.984 287.035 430.957 287.001C430.981 286.967 431.005 286.933 431.021 286.896C431.055 286.824 431.062 286.749 431.069 286.671C431.089 286.518 431.089 286.364 431.093 286.208C431.096 286.044 431.099 285.881 431.103 285.718C431.103 285.224 431.109 284.734 431.113 284.24C431.123 282.923 431.126 281.605 431.14 280.288C431.157 278.786 431.16 277.289 431.16 275.791C431.16 274.293 431.137 272.928 431.123 271.494C431.109 269.922 431.106 268.345 431.096 266.773C431.086 265.173 431.059 263.576 431.055 261.976C431.042 258.766 431.025 255.555 431.035 252.345C431.038 250.8 431.035 249.254 431.035 247.708C431.035 246.163 431.042 244.764 431.042 243.293C431.042 241.765 431.049 240.239 431.049 238.711C431.049 237.182 431.038 235.8 431.032 234.343C431.025 232.917 431.015 231.49 430.994 230.064C430.977 228.74 430.971 227.412 430.967 226.088C430.96 224.603 430.964 223.116 430.964 221.631C430.964 220.147 430.954 218.642 430.93 217.148C430.92 216.43 430.913 215.715 430.876 215C430.842 214.326 430.808 213.655 430.774 212.981C430.737 212.263 430.703 211.548 430.663 210.829C430.646 210.513 430.629 210.196 430.591 209.883C430.598 209.475 430.605 209.066 430.612 208.644C430.663 207.698 429.901 206.969 429.125 206.56C428.028 206.115 426.674 206.029 425.438 206.043C425.056 206.043 424.683 206.05 424.328 206.063C422.963 205.944 421.588 205.863 420.217 205.873C419.655 205.873 419.096 205.883 418.534 205.917C417.143 206.026 415.758 206.094 414.37 206.206C414.349 206.206 414.329 206.206 414.309 206.206C411.783 206.179 409.257 206.254 406.731 206.288C402.763 206.138 398.805 206.155 394.83 206.108C392.764 206.101 390.675 206.036 388.59 206.04C387.316 206.04 386.04 206.057 384.774 206.125C384.171 206.155 383.568 206.169 382.962 206.172C381.445 206.172 379.928 206.118 378.412 206.121C378.026 206.121 377.64 206.121 377.25 206.128C376.218 206.155 375.188 206.166 374.156 206.169C372.039 206.169 369.927 206.142 367.81 206.135C366.747 206.135 365.684 206.135 364.617 206.152C360.5 206.145 356.383 206.343 352.266 206.322C350.861 206.312 349.459 206.275 348.057 206.189C345.565 206.087 343.076 206.06 340.584 206.067C336.44 206.067 332.292 206.166 328.145 206.152C325.656 206.162 323.171 206.264 320.682 206.268C319.859 206.268 319.04 206.251 318.217 206.217C315.671 206.162 313.125 206.091 310.579 206.091C309.864 206.046 309.126 206.019 308.378 206.026C305.209 206.012 301.874 206.591 299.832 209.202C297.976 211.633 298.024 214.86 298.051 217.781C298.041 219.933 297.783 222.074 297.807 224.229C297.733 227.167 297.855 230.091 297.797 233.029C297.909 237.659 298.356 242.275 298.572 246.898C298.789 251.562 298.461 256.233 298.555 260.9C298.704 268.076 298.985 275.249 299.27 282.422C299.317 283.58 299.537 284.744 299.443 285.901C298.718 287.59 297.777 289.187 296.944 290.824C294.933 294.307 292.738 297.735 290.578 301.136C287.765 305.459 285.672 310.191 283.187 314.702C282.185 316.564 281.311 318.494 280.217 320.305C279.286 321.885 280.451 323.652 281.365 324.949C282.889 326.382 284.968 326.491 286.221 326.549C290.135 326.726 293.917 326.515 297.827 326.335C303.577 326.1 309.363 326.552 315.116 326.352C322.717 326.14 330.322 325.79 337.933 325.963C341.915 325.831 345.897 325.854 349.882 326.018C354.06 326.096 358.235 326.365 362.413 326.426C367.302 326.525 372.188 326.358 377.078 326.362C380.111 326.307 383.142 326.512 386.175 326.546C389.913 326.518 393.655 326.46 397.396 326.491C401.456 326.389 405.516 326.569 409.572 326.42C411.864 326.372 414.16 326.26 416.455 326.28C417.976 326.317 419.493 326.399 421.013 326.314C425.269 326.222 429.525 326.552 433.778 326.685C437.617 326.706 441.443 327.022 445.283 327.162C446.305 327.182 447.392 327.305 448.381 326.995C448.51 326.917 448.625 326.825 448.733 326.729C449.089 326.508 449.424 326.083 449.654 325.851C450.453 324.932 451.557 324.163 451.967 322.974C452.542 320.574 450.514 318.821 449.295 317.02L449.302 317.024ZM299.798 221.757C299.961 219.97 300.062 218.176 300.089 216.382C299.978 212.855 300.736 209.035 304.613 208.041C305.632 207.776 306.671 207.691 307.714 207.674C308.649 207.674 309.583 207.715 310.514 207.732C311.916 207.732 313.311 207.755 314.713 207.783C316.734 207.861 318.756 207.885 320.78 207.881C324 207.885 327.22 207.827 330.44 207.83C330.833 207.834 331.226 207.834 331.619 207.83C334.293 207.823 336.978 207.677 339.66 207.657C339.978 207.657 340.297 207.657 340.615 207.657C344.394 207.684 348.203 207.762 351.995 207.915C352.08 207.915 352.164 207.915 352.252 207.915C352.279 207.915 352.306 207.915 352.333 207.915C361.882 207.823 371.43 207.575 380.981 207.561C381.449 207.575 381.916 207.582 382.383 207.582C385.234 207.599 388.078 207.367 390.929 207.398C394.857 207.425 398.812 207.211 402.753 207.19C403.233 207.19 403.711 207.19 404.192 207.194C404.554 207.2 404.916 207.2 405.279 207.2C407.618 207.2 409.951 207.006 412.291 206.928C412.887 206.928 413.479 206.911 414.075 206.887C415.758 206.911 417.441 206.938 419.12 206.921C421.036 206.915 422.956 207.037 424.886 207.054C424.954 207.054 425.015 207.054 425.083 207.054C425.13 207.054 425.177 207.054 425.225 207.054C425.34 207.054 425.452 207.054 425.56 207.051C425.973 207.051 426.373 207.075 426.813 207.156C427.524 207.224 428.343 207.126 428.831 207.766C429.312 208.235 429.146 208.947 429.18 209.553C429.251 211.041 429.288 212.535 429.471 214.016C429.532 214.455 429.572 214.898 429.599 215.344C429.599 215.408 429.593 215.47 429.593 215.534C429.572 216.276 429.569 217.015 429.562 217.757C429.532 220.746 429.569 223.735 429.572 226.724V228.709C429.572 229.318 429.562 229.924 429.555 230.534C429.545 232.018 429.545 233.502 429.542 234.987C429.535 237.965 429.555 240.947 429.572 243.926C429.593 246.942 429.603 249.959 429.62 252.975C429.626 254.575 429.633 256.172 429.633 257.768C429.633 259.375 429.64 260.985 429.633 262.592C429.626 264.196 429.616 265.799 429.613 267.402C429.613 268.972 429.613 270.538 429.606 272.107C429.599 273.51 429.586 274.916 429.593 276.322C429.599 277.105 429.599 277.884 429.606 278.664C429.613 279.372 429.626 280.08 429.637 280.792C429.654 282.089 429.66 283.386 429.681 284.686C429.687 285.129 429.687 285.568 429.698 286.01C429.698 286.038 429.698 286.061 429.698 286.089C429.515 286.085 429.332 286.078 429.152 286.075C428.892 286.075 428.628 286.068 428.367 286.065C427.466 286.048 426.566 286.051 425.665 286.051C425.039 286.051 424.412 286.051 423.786 286.051H421.91C420.688 286.051 419.469 286.038 418.247 286.034C415.914 286.024 413.581 286.007 411.251 286.01C408.641 286.01 406.027 286.024 403.416 286.017C398.591 286.004 393.767 286.017 388.942 286.004C386.595 285.997 384.252 286.024 381.906 286.038C379.322 286.051 376.736 286.085 374.152 286.119C369.148 286.181 364.143 286.123 359.139 286.099C356.498 286.085 353.857 286.072 351.216 286.072C350.285 286.072 349.354 286.072 348.423 286.072C346.747 286.072 345.071 286.072 343.395 286.072C340.859 286.065 338.323 286.041 335.783 286.024C333.179 286.01 330.576 285.99 327.975 285.973C323.079 285.939 318.18 285.912 313.281 285.912C310.85 285.912 308.415 285.912 305.984 285.953C304.785 285.973 303.583 286 302.388 286.075C302.036 286.099 301.681 286.123 301.325 286.164C301.508 285.115 301.308 284.022 301.284 282.964C301.19 280.152 301.125 277.336 300.922 274.528C300.648 269.019 300.421 263.501 300.397 257.986C300.367 253.649 300.631 249.288 300.306 244.951C300.103 240.886 299.72 236.825 299.666 232.753C299.744 229.104 299.561 225.42 299.801 221.764L299.798 221.757ZM283.674 317.153C286.109 312.721 288.466 308.241 291.035 303.883C294.452 298.426 298.213 293.115 300.892 287.246C301.091 287.277 301.291 287.301 301.491 287.318C302.077 287.372 302.666 287.413 303.255 287.44C304.488 287.498 305.723 287.522 306.956 287.536C309.394 287.563 311.835 287.566 314.276 287.57C316.795 287.57 319.314 287.563 321.833 287.556C324.254 287.549 326.675 287.525 329.1 287.518C334.219 287.498 339.338 287.437 344.458 287.44C349.686 287.44 354.914 287.447 360.141 287.42C365.169 287.393 370.197 287.358 375.225 287.433C377.802 287.471 380.375 287.495 382.949 287.515C385.248 287.532 387.547 287.553 389.846 287.546C392.683 287.536 395.52 287.539 398.358 287.546C400.383 287.546 402.411 287.549 404.439 287.546C407.049 287.546 409.66 287.563 412.27 287.563C414.556 287.563 416.841 287.549 419.127 287.539C421.626 287.525 424.128 287.532 426.627 287.532C427.358 287.532 428.089 287.522 428.821 287.512C429.068 287.512 429.315 287.512 429.562 287.498C429.643 287.498 429.721 287.498 429.803 287.498C430.094 288.499 430.669 289.364 431.106 290.313C431.099 290.296 431.093 290.286 431.086 290.269C433.006 293.956 435.613 297.234 437.742 300.809C438.88 302.695 439.93 304.632 441.118 306.487C442.622 309.177 444.115 311.873 445.906 314.379C447.03 316.2 448.147 318.025 449.478 319.703C449.715 320.03 449.908 320.336 450.06 320.632C449.722 320.591 449.383 320.554 449.045 320.523C448.164 320.442 447.284 320.391 446.404 320.353C444.419 320.275 442.439 320.237 440.451 320.207C437.136 320.159 433.822 320.152 430.503 320.159C428.78 320.159 427.057 320.159 425.337 320.159C423.613 320.159 421.893 320.159 420.17 320.159C413.269 320.173 406.365 320.203 399.465 320.22C392.507 320.234 385.549 320.237 378.591 320.237C375.073 320.237 371.559 320.244 368.041 320.248C364.638 320.248 361.232 320.237 357.829 320.241C350.735 320.241 343.645 320.261 336.555 320.312C333.071 320.336 329.584 320.377 326.096 320.404C322.609 320.431 319.121 320.438 315.634 320.445C312.255 320.452 308.879 320.469 305.5 320.489C302.134 320.51 298.772 320.506 295.407 320.506C293.934 320.506 292.461 320.5 290.988 320.5C289.475 320.5 287.961 320.517 286.448 320.537C285.78 320.544 285.11 320.547 284.443 320.557C283.908 320.564 283.373 320.574 282.838 320.581C282.547 320.581 282.252 320.588 281.961 320.591C282.012 320.479 282.063 320.363 282.12 320.224C282.594 319.179 283.146 318.178 283.671 317.16L283.674 317.153ZM449.166 324.418C448.713 324.881 448.347 325.405 447.863 325.844C447.853 325.851 447.843 325.861 447.832 325.868C447.602 325.909 447.341 325.851 447.104 325.872C443.566 325.81 440.018 325.409 436.479 325.214C430.737 325.109 424.998 324.687 419.255 324.952C412.931 324.745 406.602 325.119 400.278 324.837C392.724 324.891 385.173 325.007 377.619 324.881C372.72 324.864 367.824 325.02 362.925 324.946C357.978 324.877 353.038 324.622 348.094 324.51C344.857 324.428 341.621 324.431 338.384 324.554C334.964 324.523 331.541 324.469 328.121 324.53C322.46 324.622 316.802 324.952 311.137 324.993C306.6 324.935 302.06 325.17 297.523 325.153C293.673 325.153 285.902 325.436 283.691 324.711C282.74 324.397 282.073 322.974 281.839 322.263C281.728 321.997 281.677 321.797 281.667 321.613C282.124 321.62 282.584 321.623 283.041 321.626C283.719 321.633 284.396 321.65 285.076 321.657C285.97 321.664 286.867 321.674 287.765 321.684C290.802 321.722 293.839 321.688 296.876 321.684C298.61 321.684 300.347 321.674 302.084 321.677C303.675 321.677 305.27 321.691 306.861 321.698C310.274 321.711 313.69 321.722 317.103 321.728C320.557 321.732 324.011 321.742 327.468 321.766C334.571 321.82 341.671 321.868 348.775 321.878C355.685 321.888 362.596 321.861 369.507 321.861C376.502 321.861 383.497 321.844 390.492 321.848C397.396 321.851 404.297 321.861 411.2 321.871C414.299 321.875 417.393 321.885 420.491 321.885C420.827 321.885 421.165 321.885 421.5 321.885C424.974 321.885 428.448 321.875 431.926 321.878C435.288 321.878 438.646 321.851 442.005 321.79C443.688 321.759 445.371 321.722 447.05 321.637C447.819 321.599 448.584 321.548 449.349 321.466C449.681 321.429 450.01 321.395 450.338 321.354C450.345 321.354 450.355 321.354 450.362 321.354C450.663 322.403 450.314 323.315 449.17 324.425L449.166 324.418Z" fill="black"/>
        <path d="M430 305.99C428.243 302.457 426.621 298.8 425.063 295.151C424.071 292.935 423.387 291.059 420.608 291.502C420.618 291.502 420.628 291.502 420.638 291.502C389.485 291.74 358.324 291.696 327.171 291.757C320.805 291.75 314.433 291.716 308.071 291.917C307.035 291.978 305.792 291.777 305.328 292.891C303.209 295.801 301.926 299.202 300.405 302.446C299.268 304.632 298.039 307.567 301.773 307.492C333.58 308.043 365.431 307.533 397.255 307.635C405.137 307.635 413.02 307.679 420.902 307.672C423.089 307.209 430.169 309 430.003 305.99H430ZM425.971 306.508C394.513 306.549 363.058 306.412 331.599 306.406C322.011 306.494 312.395 306.113 302.819 306.644C299.725 306.811 300.151 305.279 301.374 303.086C302.874 299.543 305.057 296.353 306.639 292.846C335.784 293.251 364.947 292.652 394.096 292.72C403.126 292.771 412.211 292.468 421.21 292.761C423.675 292.135 427.092 303.59 428.663 305.973C427.897 306.562 426.919 306.562 425.971 306.511V306.508Z" fill="black"/>
        <path d="M248.5 246.742C249.8 243.31 245.076 240.079 242.666 243.286C241.213 244.832 240.834 248.794 243.864 248.485C245.134 249.884 247.873 248.366 248.496 246.742H248.5ZM255.447 248.6C256.277 254.068 250.667 267.174 237.502 265.077C235.207 264.713 236.114 263.474 233.104 264.948C231.177 266.187 232.44 272.89 227.964 268.567C225.841 267.321 223.715 270.054 222.581 267.062C220.123 268.597 218.585 278.385 215.552 275.552C213.997 276.788 213.07 279.348 210.232 278.187C209.267 284.652 205.885 283.198 200.335 283.304C197.21 284.295 196.99 282.109 197.925 279.631C199.096 274.868 203.992 273.278 207.151 270.017C211.996 266.01 214.81 263.297 219.977 259.719C228.34 253.925 222.12 246.786 228.276 240.096C231.75 236.321 237.573 233.53 242.916 234.684C250.365 236.294 254.438 241.935 255.447 248.6Z" fill="#ADDDFF"/>
        <path d="M244.825 249.782C239.411 249.428 241.189 240.835 246.254 242.02C251.289 242.898 249.816 250.718 244.825 249.782ZM245.448 248.798C248.905 248.668 248.919 243.228 245.475 243.065C241.653 242.915 241.913 248.645 245.448 248.798Z" fill="black"/>
        <path d="M255.097 245.084C247.74 225.492 221.015 233.744 224.093 253.979C221.581 259.055 215.784 261.472 211.745 265.179C207.421 268.798 202.122 271.433 198.54 275.811C197.097 277.574 197.432 280.349 197.09 282.334C196.796 284.029 197.913 284.24 199.274 284.019C205.582 282.96 208.829 287.124 210.658 279.001C214.467 280.056 213.763 278.395 215.987 276.179C217.633 277.615 218.381 276.134 218.943 274.623C219.942 272.57 220.416 270.337 221.879 268.509C222.63 267.447 223.202 269.019 223.781 269.418C224.895 270.085 225.918 268.839 226.995 268.659C228.742 269.758 229.94 272.216 231.728 269.922C233.496 268.611 232.094 265.224 234.728 264.713C235.012 264.836 235.273 264.948 235.588 265.081C247.154 269.86 259.33 256.665 255.097 245.084ZM254.532 251.855C253.547 260.199 244.534 266.47 236.445 264.178C236.451 264.178 236.458 264.178 236.462 264.182C236.14 264.093 235.828 263.978 235.514 263.872C234.464 263.351 233.231 263.702 232.426 264.607C230.963 265.959 232.202 268.41 230.37 269.421C228.149 267.93 227.154 266.756 224.506 268.315C223.094 266.391 221.936 266.555 220.788 267.906L220.809 267.886C220.809 267.886 220.778 267.916 220.761 267.933L220.782 267.913C219.18 270.177 218.598 273.077 217.142 275.426C215.083 273.942 214.098 276.754 212.936 277.966C212.171 278.014 211.359 277.694 210.563 277.765C209.801 277.643 209.469 278.187 209.273 278.837C207.512 284.506 205.487 282.535 201.827 282.793C200.419 282.892 198.607 282.943 198.181 283.032C198.194 282.562 198.276 282.106 198.374 281.649C209.049 273.694 219.559 265.036 229.524 256.332C229.646 255.627 228.755 255.086 228.197 255.552C225.803 257.509 223.409 259.47 221.015 261.428C213.59 267.617 205.931 273.513 198.702 279.944C198.99 278.575 199.054 276.911 200.202 275.957C203.859 272.774 207.797 269.925 211.606 266.919C214.447 264.72 217.25 262.48 220.115 260.315C222.695 258.493 225.877 256.267 225.569 252.682C222.705 229.945 256.269 229.359 254.532 251.858V251.855Z" fill="black"/>
        <path d="M221.422 267.286C221.422 267.286 221.438 267.273 221.445 267.266C221.438 267.273 221.429 267.28 221.422 267.286Z" fill="black"/>
        <path d="M228.19 247.205C227.828 247.16 227.526 246.799 227.591 246.428C227.77 245.325 228.055 244.239 228.586 243.252C230.729 239.262 234.173 236.777 239.221 236.389C241.219 236.236 241.534 236.968 241.344 237.182C240.989 237.346 240.511 237.291 240.139 237.373C237.552 237.88 235.158 238.442 233.042 240.062C231.799 240.951 230.479 242.391 229.88 243.834C229.446 244.743 229.199 245.72 228.945 246.691C228.854 247.024 228.525 247.252 228.19 247.205Z" fill="black"/>
        <path d="M253.043 250.5C252.498 249.874 252.091 250.524 251.969 251.126C251.878 251.252 251.79 251.378 251.732 251.528C251.519 252.138 251.37 252.767 251.116 253.363C250.591 254.817 249.867 256.172 248.814 257.312C248.082 258.17 247.371 259.069 246.478 259.76C246.037 260.138 245.028 260.366 245.34 261.132C245.702 261.823 246.525 261.302 247.057 261.125C249.467 260.039 250.981 257.744 252.071 255.419C252.515 254.578 252.978 253.618 253.111 252.645C253.368 251.937 253.568 251.123 253.043 250.507V250.5Z" fill="black"/>
    </g>
    <defs>
        <clipPath id="clip0_889_3854">
            <rect width="574" height="430" fill="white" transform="translate(0 -0.000488281)"/>
        </clipPath>
    </defs>
</svg>
