<svg width="40" height="40" viewBox="0 0 40 40" fill="none" xmlns="http://www.w3.org/2000/svg">
    <path fill-rule="evenodd" clip-rule="evenodd" d="M3 17C3.275 17 3.5 16.775 3.5 16.5C3.5 16.225 3.275 16 3 16C2.725 16 2.5 16.225 2.5 16.5C2.5 16.775 2.725 17 3 17Z" fill="#EAF5FF"/>
    <path fill-rule="evenodd" clip-rule="evenodd" d="M23 3C23.275 3 23.5 2.775 23.5 2.5C23.5 2.225 23.275 2 23 2C22.725 2 22.5 2.225 22.5 2.5C22.5 2.775 22.725 3 23 3Z" fill="#EAF5FF"/>
    <path fill-rule="evenodd" clip-rule="evenodd" d="M33 31C33.275 31 33.5 30.775 33.5 30.5C33.5 30.225 33.275 30 33 30C32.725 30 32.5 30.225 32.5 30.5C32.5 30.775 32.725 31 33 31Z" fill="#EAF5FF"/>
    <path fill-rule="evenodd" clip-rule="evenodd" d="M37 15C37.275 15 37.5 14.775 37.5 14.5C37.5 14.225 37.275 14 37 14C36.725 14 36.5 14.225 36.5 14.5C36.5 14.775 36.725 15 37 15Z" fill="#EAF5FF"/>
    <path fill-rule="evenodd" clip-rule="evenodd" d="M18 36.5C18.275 36.5 18.5 36.275 18.5 36C18.5 35.725 18.275 35.5 18 35.5C17.725 35.5 17.5 35.725 17.5 36C17.5 36.275 17.725 36.5 18 36.5Z" fill="#EAF5FF"/>
    <path d="M19.4407 12.7696C20.0024 12.7696 20.5804 12.7686 21.0446 12.8849C21.2873 12.9456 21.5323 13.0458 21.743 13.2189C21.9603 13.3975 22.1137 13.6314 22.2003 13.9141L22.2248 14.0018C22.3327 14.4415 22.2469 14.9058 21.9613 15.3152C21.6651 15.7398 21.1746 16.0793 20.521 16.3185L20.5215 16.319C20.0979 16.4742 19.4689 16.5943 18.8039 16.6902C18.1266 16.788 17.3682 16.8661 16.6619 16.9271C15.9547 16.9882 15.2943 17.0326 14.811 17.0615C14.7084 17.0676 14.6135 17.0721 14.5279 17.0769L14.2268 34.5955C14.2157 35.2163 13.7094 35.715 13.0886 35.7151H11.2085C10.9902 35.7151 10.7869 35.6521 10.6137 35.5457C10.4405 35.6521 10.2376 35.7151 10.0193 35.7151H8.12966C7.5467 35.7151 7.06581 35.2769 6.99893 34.7113L6.99096 34.5966L6.84119 26.1865C6.59159 26.3179 6.30004 26.3973 5.9707 26.3973C4.79019 26.3972 4.00192 25.373 3.99285 24.3467L3.99232 24.3472L3.76713 17.5889C3.76693 17.5829 3.7666 17.5768 3.7666 17.5708C3.7666 16.0007 4.17453 14.9528 4.81129 14.2631C5.44118 13.5809 6.22682 13.3248 6.8226 13.1961L7.02814 13.1536C8.07067 12.9512 9.32717 12.8785 11.2664 12.8785C11.9813 12.8785 12.8034 12.8542 13.7493 12.8339L15.4043 12.7999C16.828 12.7737 17.7119 12.7696 19.4407 12.7696ZM19.4407 13.8573C17.1438 13.8573 16.3488 13.8648 13.7732 13.9216H13.7727C12.8397 13.9417 11.9968 13.9662 11.2664 13.9662C9.21243 13.9662 8.01743 14.0506 7.05257 14.2594H7.05204C6.54646 14.3686 6.01874 14.5588 5.61061 15.0008C5.20931 15.4354 4.85431 16.1903 4.85431 17.5708L5.0795 24.3106L5.08003 24.3287C5.08003 24.8709 5.48915 25.3095 5.9707 25.3096C6.45767 25.3096 6.76365 24.8825 6.76365 24.5522C6.76367 24.4754 6.77951 24.4023 6.80826 24.3361L6.70204 18.3659L6.70363 18.3101C6.72658 18.0354 6.95478 17.8175 7.23633 17.8125C7.51782 17.8076 7.75284 18.0173 7.7855 18.291L7.78975 18.3462L8.07867 34.5775L8.08292 34.5966C8.09075 34.6146 8.1088 34.6274 8.12966 34.6274H10.0193C10.0475 34.6273 10.0698 34.6046 10.0698 34.5764V23.8241C10.0698 23.5238 10.3133 23.2803 10.6137 23.2802C10.914 23.2802 11.1575 23.5237 11.1575 23.8241V34.5764C11.1575 34.6046 11.1803 34.6274 11.2085 34.6274H13.0886C13.1153 34.6273 13.1386 34.605 13.1391 34.5764L13.4498 16.5516L13.453 16.498C13.4832 16.2356 13.7001 16.0293 13.9692 16.0173H13.9724C13.9746 16.0172 13.978 16.017 13.9825 16.0168C13.9915 16.0164 14.0052 16.016 14.0228 16.0152C14.0583 16.0135 14.1107 16.0107 14.1779 16.0072C14.3128 16.0003 14.5074 15.9896 14.7457 15.9754C15.2227 15.9469 15.8734 15.9037 16.5684 15.8437C17.2644 15.7835 18.0001 15.7073 18.6488 15.6137C19.3097 15.5183 19.8393 15.4104 20.1471 15.2977L20.3303 15.2244C20.7316 15.051 20.9561 14.8555 21.0696 14.6927C21.1757 14.5405 21.1967 14.4037 21.1732 14.2833L21.1604 14.2328C21.1324 14.1412 21.0942 14.0933 21.0526 14.0591C21.0044 14.0196 20.9231 13.9759 20.7807 13.9402C20.4744 13.8635 20.0468 13.8573 19.4407 13.8573ZM29.8403 12.5508C30.1382 12.5133 30.4103 12.7246 30.4479 13.0224C30.4855 13.3204 30.2742 13.5924 29.9763 13.63L23.8048 14.4081C23.5069 14.4455 23.2348 14.2343 23.1972 13.9364C23.1597 13.6385 23.3709 13.3665 23.6688 13.3289L29.8403 12.5508ZM8.68201 5.80889C10.1775 4.78031 12.2236 5.15894 13.2522 6.65441L13.3446 6.79622C14.256 8.27678 13.8558 10.2282 12.4072 11.2246C10.9585 12.221 8.99292 11.8968 7.93634 10.5161L7.83702 10.3791C6.80847 8.88365 7.18664 6.83749 8.68201 5.80889ZM12.3562 7.2705C11.6681 6.27011 10.2991 6.01685 9.29863 6.70487C8.29816 7.39299 8.04497 8.76196 8.733 9.76246L8.79939 9.85434C9.50626 10.7782 10.8213 10.9947 11.7906 10.3281C12.7598 9.66143 13.0277 8.35611 12.4178 7.36557L12.3562 7.2705Z" fill="#0079D0"/>
    <path d="M20.9247 31.6574C22.2375 31.6528 23.1653 31.8539 23.9526 32.2464C24.2682 32.4034 24.6611 32.6337 24.9999 33.0521C25.2979 33.4201 25.5298 33.9033 25.6585 34.5493L25.7074 34.8366L25.7127 34.8919C25.7237 35.1674 25.5241 35.4121 25.2453 35.4517C24.9666 35.4912 24.7071 35.3118 24.6409 35.0443L24.6303 34.9896L24.592 34.7639C24.4927 34.2639 24.3258 33.9484 24.1544 33.7367C24.0061 33.5536 23.8366 33.4256 23.6541 33.3198L23.4677 33.2199C22.8719 32.9229 22.1216 32.7405 20.9253 32.7451H20.921C19.7251 32.7405 18.9744 32.9229 18.3781 33.2194L18.3786 33.2199C18.1248 33.3462 17.8895 33.4927 17.6919 33.7367C17.496 33.9786 17.3053 34.3562 17.2155 34.9896L17.2048 35.0443C17.1386 35.3117 16.8796 35.4911 16.601 35.4517C16.3036 35.4095 16.0967 35.134 16.1389 34.8366L16.1872 34.5493C16.316 33.9033 16.5483 33.4201 16.8463 33.0521C17.185 32.6339 17.5781 32.4034 17.8937 32.2464L18.0435 32.1752C18.7982 31.8308 19.69 31.6531 20.921 31.6574H20.9247ZM27.7261 34.9896C27.6838 35.2868 27.4088 35.4937 27.1116 35.4517C26.8142 35.4095 26.6074 35.134 26.6495 34.8366L27.7261 34.9896ZM31.4354 31.6574C32.7482 31.6528 33.676 31.8539 34.4632 32.2464C34.7789 32.4034 35.1717 32.6337 35.5106 33.0521C35.8086 33.4201 36.0404 33.9033 36.1691 34.5493L36.218 34.8366L36.2233 34.8919C36.2343 35.1674 36.0348 35.4121 35.7559 35.4517C35.4772 35.4911 35.2177 35.3118 35.1515 35.0443L35.1409 34.9896L35.1027 34.7639C35.0034 34.2639 34.8365 33.9484 34.665 33.7367C34.4673 33.4926 34.2321 33.3462 33.9783 33.2199C33.3826 32.9229 32.6322 32.7405 31.4359 32.7451H31.4316C30.2357 32.7405 29.4851 32.9229 28.8887 33.2194L28.8892 33.2199C28.6354 33.3462 28.4002 33.4927 28.2025 33.7367C28.0066 33.9786 27.816 34.3562 27.7261 34.9896L26.6495 34.8366C26.762 34.0438 27.0164 33.4727 27.357 33.0521C27.6957 32.6339 28.0887 32.4034 28.4043 32.2464L28.5541 32.1752C29.3089 31.8308 30.2007 31.6531 31.4316 31.6574H31.4354ZM18.2931 27.195C18.7845 25.7901 20.2974 25.0025 21.7416 25.427L21.8791 25.4716C23.2386 25.9472 24.0199 27.3787 23.6844 28.7793L23.6472 28.9196C23.2227 30.3637 21.7417 31.2094 20.2943 30.8623L20.1546 30.8252C18.6639 30.387 17.8108 28.8233 18.249 27.3326L18.2931 27.195ZM29.2217 26.3883C30.1403 25.2174 31.826 24.9604 33.0558 25.828L33.1721 25.9145C34.3055 26.8035 34.583 28.4112 33.8131 29.6286L33.7324 29.7486C32.8646 30.9784 31.1903 31.3014 29.9323 30.506L29.8118 30.4252C28.5424 29.5294 28.2394 27.774 29.1351 26.5046L29.2217 26.3883ZM21.4346 26.4706C20.5488 26.2102 19.6211 26.6933 19.3197 27.5551L19.2926 27.6396C19.0239 28.5538 19.5469 29.5127 20.4611 29.7815L20.5471 29.8044C21.4349 30.0172 22.3432 29.4984 22.6036 28.6126L22.6264 28.5271C22.8324 27.6679 22.3531 26.7894 21.519 26.4977L21.4346 26.4706ZM32.4291 26.717C31.6748 26.1847 30.6408 26.3424 30.0773 27.0607L30.0242 27.1318C29.4747 27.9105 29.6604 28.9872 30.439 29.5367L30.5128 29.5861C31.2844 30.074 32.3115 29.8761 32.8439 29.1219L32.8933 29.0481C33.3655 28.3014 33.1952 27.3155 32.5002 26.7702L32.4291 26.717ZM34.5185 4.71533L34.5742 4.71799C34.8484 4.74593 35.0623 4.97766 35.0623 5.25919V22.2669C35.0623 22.5672 34.8188 22.8107 34.5185 22.8107H16.9191C16.6187 22.8107 16.3753 22.5672 16.3752 22.2669C16.3752 21.9665 16.6187 21.723 16.9191 21.723H33.9746V5.80304H15.4023C15.1019 5.80304 14.8584 5.55955 14.8584 5.25919C14.8584 4.95882 15.1019 4.71533 15.4023 4.71533H34.5185Z" fill="#2F3A43"/>
</svg>
