<svg width="310" height="218" viewBox="0 0 310 218" fill="none" xmlns="http://www.w3.org/2000/svg">
    <path d="M202.24 0.621826C202.133 57.6677 203.427 124.188 202.133 174.563C200.839 174.563 110.924 200.396 80.6311 207.284C80.3076 163.477 80.6311 33.5591 80.6311 33.5591C80.6311 33.5591 189.843 3.31163 202.24 0.621826Z" fill="white"/>
    <path d="M202.023 19.5673C192.75 24.3046 97.7699 47.1216 80.9512 52.3947C79.8742 44.8612 81.7047 38.7258 80.6277 33.4492C88.4969 30.7594 191.026 4.06402 202.347 0.511963C202.67 5.5721 202.347 15.9054 202.023 19.5639V19.5673Z" fill="#0079D0"/>
    <path d="M89.7939 43.3531C84.4022 42.4908 88.3935 33.8821 92.2748 38.4029C93.3517 40.1239 92.058 43.463 89.7939 43.3531Z" fill="#EAF5FF"/>
    <path d="M99.9273 40.8797C96.1527 39.2651 98.6336 33.3461 102.515 35.0672C106.396 36.3589 103.162 41.9549 99.9273 40.8797Z" fill="#EAF5FF"/>
    <path d="M112.001 37.5406C107.69 37.3242 109.737 30.6529 113.402 31.7282C117.066 32.6969 115.559 37.97 112.001 37.5406Z" fill="#EAF5FF"/>
    <path d="M120.087 86.9465C104.345 47.5509 160.517 33.1297 170.326 69.7255C169.896 111.059 127.526 105.676 120.087 86.9465Z" fill="#ADDDFF"/>
    <path d="M127.096 95.2358C138.416 104.277 158.576 101.91 165.692 88.9939C158.146 72.6318 130.437 78.3377 127.096 95.2358Z" fill="#0079D0"/>
    <path d="M152.861 68.4339C150.597 55.4108 130.437 60.4675 136.042 73.8169C140.03 83.075 154.908 78.2313 152.861 68.4339Z" fill="#0079D0"/>
    <path d="M140.357 101.694C120.087 99.2172 109.631 76.2903 121.057 59.3923C131.838 43.6759 155.018 43.5694 165.905 59.1758C172.05 67.788 172.374 80.0588 166.659 88.9904C161.377 97.9256 150.593 103.092 140.354 101.691L140.357 101.694ZM140.68 100.292C152.648 101.801 164.398 94.2636 168.066 82.7486C172.487 69.2927 165.048 54.655 151.571 50.2442C140.574 46.5856 128.177 50.9965 121.921 60.6839V60.5774C111.571 76.7231 121.598 98.142 140.68 100.296V100.292Z" fill="#020304"/>
    <path d="M142.944 79.8424C135.182 78.8736 131.517 69.832 136.259 63.6966C141.757 56.8089 152.754 59.7152 154.155 68.4339C155.125 74.8922 149.41 80.7046 142.941 79.8424H142.944ZM143.591 78.4442C149.63 78.8736 154.265 72.8482 152.324 67.1422C149.953 60.1446 140.574 59.0694 136.692 65.4211C133.458 70.9107 137.122 78.0148 143.591 78.4442Z" fill="#020304"/>
    <path d="M127.313 94.6964C127.096 94.5899 126.882 94.48 126.559 94.48C126.452 94.48 126.342 94.48 126.236 94.5865L126.129 94.48C126.129 94.2636 126.236 94.0506 126.346 93.8342C126.562 92.9719 126.993 92.1131 127.316 91.2508C128.18 89.4198 129.257 87.8053 130.444 86.3006C130.66 86.0842 130.874 85.8712 131.091 85.6548C131.414 85.2254 131.737 84.9025 132.168 84.5796C132.384 84.3631 132.598 84.1502 132.814 84.0402C132.921 83.9337 133.031 83.8238 133.138 83.7173H133.245C133.351 83.6108 133.461 83.5009 133.568 83.5009C133.998 83.178 134.432 82.8551 134.862 82.5322C135.725 81.8863 136.696 81.347 137.666 80.8111C137.773 80.8111 137.883 80.7046 137.989 80.5947H138.096C138.203 80.5947 138.313 80.4882 138.419 80.3782C138.636 80.2718 138.85 80.1618 139.066 80.0553C140.9 79.303 142.841 78.7637 144.888 78.4408C146.936 78.1178 149.093 78.2243 151.14 78.4408C153.187 78.7637 155.128 79.303 156.962 80.1618C158.903 81.0241 160.627 82.0993 162.244 83.391C163.754 84.6826 165.155 86.1907 166.342 87.8053C166.448 87.9118 166.558 88.0217 166.558 88.2347C166.665 88.4511 166.775 88.5576 166.665 88.774C166.555 88.9904 166.558 89.0969 166.342 89.2034C166.018 89.4199 165.588 89.4198 165.371 89.0969C164.941 88.4511 164.401 87.8053 163.861 87.1594C163.214 86.5136 162.567 85.7613 161.92 85.222C161.273 84.6826 160.52 84.0368 159.763 83.5009C159.006 82.965 158.146 82.5322 157.499 82.1027C156.635 81.6733 155.775 81.2405 154.911 81.0275C154.048 80.8111 153.077 80.4882 152.217 80.2752C151.354 80.0588 150.383 79.9523 149.523 79.8458H149.416C148.446 79.7393 147.476 79.7393 146.612 79.8458C145.642 79.9523 144.671 80.0622 143.808 80.1687C142.944 80.3851 142.084 80.5981 141.22 80.8145C140.357 81.1374 139.496 81.4604 138.739 81.7833C137.986 82.2127 137.229 82.6455 136.475 83.0749C135.829 83.5043 135.288 83.9372 134.641 84.3666C134.535 84.4731 134.425 84.583 134.211 84.6895H134.105C133.458 85.3353 132.811 85.8747 132.164 86.627C131.624 87.2728 131.087 88.0251 130.547 88.671C130.007 89.5332 129.47 90.2855 129.036 91.1478C128.496 92.1165 128.173 93.0853 127.743 94.1605C127.636 94.3769 127.636 94.4834 127.526 94.6998C127.381 94.7708 127.309 94.7708 127.309 94.6998L127.313 94.6964Z" fill="#020304"/>
    <path d="M181.757 115.579C173.994 118.809 125.589 130.756 105.536 135.923C105.429 131.509 104.242 125.373 105.752 121.285C116.102 117.95 166.989 104.71 181.65 101.158C181.757 107.723 181.543 114.181 181.757 115.583V115.579Z" fill="#ADDDFF"/>
    <path d="M181.647 123.113C181.43 125.05 181.863 137.751 181.863 137.751L105.749 158.956L105.532 143.457C105.532 143.457 159.436 128.925 181.647 123.113Z" fill="#ADDDFF"/>
    <path d="M181.863 161.863L105.209 182.529V167.246L181.863 147.119V161.866V161.863Z" fill="#0079D0"/>
    <path d="M104.349 122.144V120.852C104.349 120.852 104.455 120.746 104.455 120.636C104.455 120.636 104.455 120.53 104.562 120.53C106.396 120.1 108.226 119.561 110.06 119.022C116.312 117.3 122.674 115.686 128.926 113.961C146.499 109.224 163.964 104.597 181.536 99.8596C182.4 99.6432 182.83 100.935 181.967 101.258C179.272 102.01 176.575 102.656 173.881 103.412C167.842 105.026 161.807 106.641 155.768 108.255C144.341 111.268 132.911 114.391 121.484 117.403C115.769 119.125 110.057 120.633 104.342 122.141L104.349 122.144Z" fill="#020304"/>
    <path d="M104.349 136.675C104.132 135.6 105.642 135.707 106.289 135.384C107.153 135.167 108.123 134.954 108.984 134.631C119.98 131.725 131.084 128.712 142.081 125.806C154.478 122.471 166.879 119.131 179.383 115.796C180.353 115.579 181.43 115.257 182.4 114.934V115.579V115.902V116.119V116.225C182.4 116.225 182.4 116.332 182.294 116.332V116.438C182.077 116.545 181.753 116.545 181.54 116.655C169.573 119.884 157.606 123.113 145.639 126.236C132.918 129.681 120.194 133.017 107.473 136.462C106.826 136.679 106.073 136.785 105.426 137.002H105.209C104.779 137.218 104.455 137.002 104.345 136.679L104.349 136.675Z" fill="#020304"/>
    <path d="M181 115.686V100.615C181.107 100.076 181.647 99.863 182.077 100.186C182.507 100.402 182.4 100.938 182.4 101.261V115.04V115.686V116.009C182.294 116.332 181.97 116.438 181.754 116.438C181.43 116.438 181 116.115 181 115.686Z" fill="#020304"/>
    <path d="M104.349 136.569C104.242 135.707 104.349 134.954 104.349 134.092V122.144V121.498C104.349 121.282 104.455 121.175 104.565 121.069C104.996 120.639 105.753 121.069 105.753 121.608V136.569C105.646 136.892 105.322 136.998 105.106 136.998C104.782 136.998 104.459 136.892 104.352 136.569H104.349Z" fill="#020304"/>
    <path d="M104.349 144.532V143.24C104.349 143.24 104.455 143.134 104.455 143.024C104.455 143.024 104.455 142.917 104.562 142.917C106.396 142.488 108.226 141.948 110.06 141.409C116.312 139.688 122.674 138.073 128.926 136.349C146.499 131.612 163.964 126.984 181.536 122.247C182.4 122.031 182.83 123.322 181.967 123.645C179.272 124.398 176.575 125.044 173.881 125.799C167.842 127.414 161.807 129.028 155.768 130.643C144.341 133.656 132.911 136.778 121.484 139.791C115.769 141.512 110.057 143.02 104.342 144.528L104.349 144.532Z" fill="#020304"/>
    <path d="M104.349 159.063C104.132 157.988 105.642 158.094 106.289 157.771C107.153 157.555 108.123 157.342 108.984 157.019C119.98 154.113 131.084 151.1 142.081 148.194C154.478 144.858 166.879 141.519 179.383 138.183C180.353 137.967 181.43 137.644 182.4 137.321V137.967V138.29V138.506V138.613C182.4 138.613 182.4 138.719 182.294 138.719V138.826C182.077 138.932 181.753 138.932 181.54 139.042C169.573 142.271 157.606 145.501 145.639 148.623C132.918 152.069 120.194 155.404 107.473 158.85C106.826 159.066 106.073 159.173 105.426 159.389H105.209C104.779 159.606 104.455 159.389 104.345 159.066L104.349 159.063Z" fill="#020304"/>
    <path d="M181 138.073V123.003C181.107 122.464 181.647 122.251 182.077 122.574C182.507 122.79 182.4 123.326 182.4 123.649V137.428V138.073V138.396C182.294 138.719 181.97 138.826 181.754 138.826C181.43 138.826 181 138.503 181 138.073Z" fill="#020304"/>
    <path d="M104.349 158.956C104.242 158.094 104.349 157.342 104.349 156.48V144.532V143.886C104.349 143.669 104.455 143.563 104.565 143.456C104.996 143.027 105.753 143.456 105.753 143.996V158.956C105.646 159.279 105.322 159.386 105.106 159.386C104.782 159.386 104.459 159.279 104.352 158.956H104.349Z" fill="#020304"/>
    <path d="M104.349 168.321V167.029C104.349 167.029 104.455 166.923 104.455 166.813C104.455 166.813 104.455 166.706 104.562 166.706C106.396 166.277 108.226 165.738 110.06 165.198C116.312 163.477 122.674 161.863 128.926 160.138C146.499 155.401 163.964 150.774 181.536 146.036C182.4 145.82 182.83 147.112 181.967 147.435C179.272 148.187 176.575 148.833 173.881 149.588C167.842 151.203 161.807 152.818 155.768 154.432C144.341 157.445 132.911 160.568 121.484 163.58C115.769 165.301 110.057 166.809 104.342 168.317L104.349 168.321Z" fill="#020304"/>
    <path d="M104.349 182.852C104.132 181.777 105.642 181.883 106.289 181.56C107.153 181.344 108.123 181.131 108.984 180.808C119.98 177.902 131.084 174.889 142.081 171.983C154.478 168.647 166.879 165.308 179.383 161.973C180.353 161.756 181.43 161.433 182.4 161.11V161.756V162.079V162.296V162.402C182.4 162.402 182.4 162.509 182.294 162.509V162.615C182.077 162.721 181.753 162.721 181.54 162.831C169.573 166.061 157.606 169.29 145.639 172.412C132.918 175.858 120.194 179.194 107.473 182.639C106.826 182.856 106.073 182.962 105.426 183.178H105.209C104.779 183.395 104.455 183.178 104.345 182.856L104.349 182.852Z" fill="#020304"/>
    <path d="M181 161.969V146.899C181.107 146.359 181.647 146.146 182.077 146.469C182.507 146.686 182.4 147.222 182.4 147.544V161.323V161.969V162.292C182.294 162.615 181.97 162.721 181.754 162.721C181.43 162.615 181 162.399 181 161.969Z" fill="#020304"/>
    <path d="M104.349 182.742C104.242 181.88 104.349 181.128 104.349 180.265V168.317V167.672C104.349 167.455 104.455 167.349 104.565 167.242C104.996 166.813 105.753 167.242 105.753 167.782V182.742C105.646 183.065 105.322 183.172 105.106 183.172C104.782 183.172 104.459 183.065 104.352 182.742H104.349Z" fill="#020304"/>
    <path d="M115.559 128.386C115.129 128.063 114.695 127.74 114.265 127.417H114.482C114.699 127.417 115.129 127.417 115.452 127.311C115.669 127.311 115.776 127.204 115.993 127.094C116.099 126.988 116.209 126.771 116.209 126.555C116.209 126.339 116.103 126.232 115.993 126.016C115.886 125.909 115.669 125.799 115.452 125.799H115.346C115.022 125.799 114.699 125.799 114.375 125.906H114.159C114.375 125.583 114.699 125.26 114.912 124.937C115.129 124.721 115.129 124.508 115.129 124.291C114.912 123.645 114.052 123.645 113.729 124.185C113.512 124.401 113.405 124.614 113.188 124.831V123.755C113.188 123.326 112.865 123.109 112.435 123.109C112.005 123.109 111.681 123.432 111.788 123.862C111.788 124.401 111.788 124.937 111.895 125.583C111.465 125.366 111.141 125.044 110.818 124.721C110.494 124.504 110.171 124.075 109.741 124.291C109.417 124.398 109.094 124.831 109.2 125.153C109.307 125.37 109.417 125.583 109.631 125.693C110.061 126.122 110.494 126.445 111.031 126.768C110.924 126.768 110.708 126.875 110.601 126.875C110.384 126.875 110.061 126.981 109.847 127.091C109.741 127.091 109.631 127.091 109.631 127.197C109.524 127.197 109.414 127.197 109.414 127.304C109.307 127.304 109.197 127.41 109.197 127.52C109.197 127.63 109.09 127.627 109.09 127.737C109.09 127.953 109.09 128.166 109.307 128.383H109.414C109.52 128.383 109.631 128.489 109.737 128.489H110.277C110.494 128.489 110.708 128.383 110.818 128.383C110.711 128.599 110.601 128.706 110.494 128.812C110.171 129.241 109.847 129.781 110.171 130.21C110.388 130.75 111.358 130.427 111.465 129.887C111.681 129.564 111.895 129.241 112.218 128.919V130.317C112.218 130.746 112.541 130.963 112.972 130.963C113.402 130.963 113.725 130.64 113.618 130.21C113.618 129.671 113.618 129.135 113.512 128.702C114.159 129.132 114.806 129.564 115.559 129.887C115.989 129.887 116.313 128.702 115.559 128.379V128.386Z" fill="#020304"/>
    <path d="M127.419 125.267C126.989 124.944 126.556 124.621 126.126 124.298H126.342C126.559 124.298 126.989 124.298 127.313 124.192C127.53 124.192 127.636 124.085 127.853 123.975C127.96 123.869 128.07 123.652 128.07 123.436C128.07 123.219 127.963 123.113 127.853 122.896C127.746 122.79 127.53 122.68 127.313 122.68H127.206C126.883 122.68 126.559 122.68 126.236 122.787H126.019C126.236 122.464 126.559 122.141 126.773 121.818C126.989 121.601 126.989 121.388 126.989 121.172C126.773 120.526 125.912 120.526 125.589 121.065C125.372 121.282 125.265 121.495 125.049 121.711V120.636C125.049 120.207 124.725 119.99 124.295 119.99C123.865 119.99 123.542 120.313 123.648 120.743C123.648 121.282 123.648 121.818 123.755 122.464C123.325 122.247 123.001 121.924 122.678 121.601C122.355 121.385 122.031 120.956 121.601 121.172C121.278 121.278 120.954 121.711 121.061 122.034C121.167 122.251 121.278 122.464 121.491 122.574C121.921 123.003 122.355 123.326 122.891 123.649C122.785 123.649 122.568 123.755 122.461 123.755C122.244 123.755 121.921 123.862 121.708 123.972C121.601 123.972 121.491 123.972 121.491 124.078C121.384 124.078 121.274 124.078 121.274 124.185C121.167 124.185 121.057 124.291 121.057 124.401C121.057 124.511 120.951 124.508 120.951 124.618C120.951 124.834 120.951 125.047 121.167 125.263H121.274C121.381 125.263 121.491 125.37 121.598 125.37H122.138C122.355 125.37 122.568 125.263 122.678 125.263C122.571 125.37 122.461 125.586 122.355 125.693C122.031 126.122 121.708 126.662 122.031 127.091C122.248 127.63 123.218 127.307 123.325 126.768C123.542 126.445 123.755 126.122 124.078 125.799V127.197C124.078 127.627 124.402 127.843 124.832 127.843C125.262 127.843 125.585 127.52 125.479 127.091C125.479 126.552 125.479 126.016 125.372 125.583C126.019 126.012 126.666 126.445 127.419 126.768C127.96 126.768 128.283 125.583 127.419 125.26V125.267Z" fill="#020304"/>
    <path d="M139.387 122.144C138.957 121.821 138.523 121.498 138.093 121.175H138.31C138.527 121.175 138.957 121.175 139.28 121.069C139.497 121.069 139.603 120.962 139.82 120.852C139.927 120.746 140.037 120.53 140.037 120.313C140.037 120.097 139.93 119.99 139.82 119.774C139.714 119.667 139.497 119.557 139.28 119.557H139.173C138.85 119.557 138.527 119.557 138.203 119.664H137.986C138.203 119.341 138.527 119.018 138.74 118.695C138.957 118.479 138.957 118.266 138.957 118.049C138.74 117.403 137.88 117.403 137.556 117.943C137.339 118.159 137.233 118.372 137.016 118.589V117.513C137.016 117.084 136.693 116.868 136.262 116.868C135.832 116.868 135.509 117.19 135.616 117.62C135.616 118.159 135.616 118.695 135.722 119.341C135.292 119.125 134.969 118.802 134.645 118.479C134.322 118.262 133.998 117.833 133.568 118.049C133.245 118.156 132.921 118.589 133.028 118.912C133.135 119.128 133.245 119.341 133.458 119.451C133.888 119.88 134.322 120.203 134.859 120.526C134.752 120.526 134.535 120.633 134.428 120.633C134.212 120.633 133.888 120.739 133.675 120.849C133.568 120.849 133.458 120.849 133.458 120.956C133.352 120.956 133.241 120.956 133.241 121.062C133.135 121.062 133.025 121.168 133.025 121.278C133.025 121.388 132.918 121.385 132.918 121.495C132.918 121.711 132.918 121.924 133.135 122.141H133.241C133.348 122.141 133.458 122.247 133.565 122.247H134.105C134.322 122.247 134.535 122.141 134.645 122.141C134.539 122.247 134.428 122.464 134.322 122.57C133.998 122.999 133.675 123.539 133.998 123.968C134.215 124.508 135.185 124.185 135.292 123.645C135.509 123.322 135.722 122.999 136.046 122.677V124.075C136.046 124.504 136.369 124.721 136.799 124.721C137.229 124.721 137.553 124.398 137.446 123.968C137.446 123.429 137.446 122.893 137.339 122.46C137.986 122.89 138.633 123.322 139.387 123.645C139.927 123.645 140.14 122.46 139.387 122.137V122.144Z" fill="#020304"/>
    <path d="M115.559 150.561C115.129 150.238 114.695 149.915 114.265 149.592H114.482C114.699 149.592 115.129 149.592 115.452 149.485C115.669 149.485 115.776 149.379 115.993 149.269C116.099 149.162 116.209 148.946 116.209 148.73C116.209 148.513 116.103 148.407 115.993 148.19C115.886 148.084 115.669 147.974 115.452 147.974H115.346C115.022 147.974 114.699 147.974 114.375 148.08H114.159C114.375 147.757 114.699 147.435 114.912 147.112C115.129 146.895 115.129 146.682 115.129 146.466C114.912 145.82 114.052 145.82 113.729 146.359C113.512 146.576 113.405 146.789 113.188 147.005V145.93C113.188 145.5 112.865 145.284 112.435 145.284C112.005 145.284 111.681 145.607 111.788 146.036C111.788 146.576 111.788 147.112 111.895 147.757C111.465 147.541 111.141 147.218 110.818 146.895C110.494 146.679 110.171 146.249 109.741 146.466C109.417 146.572 109.094 147.005 109.2 147.328C109.307 147.544 109.417 147.757 109.631 147.867C110.061 148.297 110.494 148.62 111.031 148.943C110.924 148.943 110.708 149.049 110.601 149.049C110.384 149.049 110.061 149.156 109.847 149.266C109.741 149.266 109.631 149.266 109.631 149.372C109.524 149.372 109.414 149.372 109.414 149.479C109.307 149.479 109.197 149.585 109.197 149.695C109.197 149.805 109.09 149.801 109.09 149.911C109.09 150.128 109.09 150.341 109.307 150.557H109.414C109.52 150.557 109.631 150.664 109.737 150.664H110.277C110.494 150.664 110.708 150.557 110.818 150.557C110.711 150.774 110.601 150.88 110.494 150.987C110.171 151.416 109.847 151.955 110.171 152.385C110.388 152.924 111.358 152.601 111.465 152.062C111.681 151.739 111.895 151.416 112.218 151.093V152.491C112.218 152.921 112.541 153.137 112.972 153.137C113.402 153.137 113.725 152.814 113.618 152.385C113.618 151.845 113.618 151.31 113.512 150.877C114.159 151.306 114.806 151.739 115.559 152.062C115.989 152.062 116.313 150.77 115.559 150.554V150.561Z" fill="#020304"/>
    <path d="M127.419 147.438C126.989 147.115 126.556 146.792 126.126 146.469H126.342C126.559 146.469 126.989 146.469 127.313 146.363C127.53 146.363 127.636 146.256 127.853 146.146C127.96 146.04 128.07 145.823 128.07 145.607C128.07 145.391 127.963 145.284 127.853 145.068C127.746 144.961 127.53 144.851 127.313 144.851H127.206C126.883 144.851 126.559 144.851 126.236 144.958H126.019C126.236 144.635 126.559 144.312 126.773 143.989C126.989 143.773 126.989 143.56 126.989 143.343C126.773 142.697 125.912 142.697 125.589 143.237C125.372 143.453 125.265 143.666 125.049 143.882V142.807C125.049 142.378 124.725 142.161 124.295 142.161C123.865 142.161 123.542 142.484 123.648 142.914C123.648 143.453 123.648 143.989 123.755 144.635C123.325 144.418 123.001 144.095 122.678 143.773C122.355 143.556 122.031 143.127 121.601 143.343C121.278 143.45 120.954 143.882 121.061 144.205C121.167 144.422 121.278 144.635 121.491 144.745C121.921 145.174 122.355 145.497 122.891 145.82C122.785 145.82 122.568 145.926 122.461 145.926C122.244 145.926 121.921 146.033 121.708 146.143C121.601 146.143 121.491 146.143 121.491 146.249C121.384 146.249 121.274 146.249 121.274 146.356C121.167 146.356 121.057 146.462 121.057 146.572C121.057 146.682 120.951 146.679 120.951 146.789C120.951 147.005 120.951 147.218 121.167 147.435H121.274C121.381 147.435 121.491 147.541 121.598 147.541H122.138C122.355 147.541 122.568 147.435 122.678 147.435C122.571 147.651 122.461 147.757 122.355 147.864C122.031 148.293 121.708 148.833 122.031 149.262C122.248 149.801 123.218 149.478 123.325 148.939C123.542 148.616 123.755 148.293 124.078 147.97V149.369C124.078 149.798 124.402 150.014 124.832 150.014C125.262 150.014 125.585 149.691 125.479 149.262C125.479 148.723 125.479 148.187 125.372 147.754C126.019 148.183 126.666 148.616 127.419 148.939C127.96 148.939 128.283 147.754 127.419 147.431V147.438Z" fill="#020304"/>
    <path d="M139.387 144.319C138.957 143.996 138.523 143.673 138.093 143.35H138.31C138.527 143.35 138.957 143.35 139.28 143.244C139.497 143.244 139.603 143.137 139.82 143.027C139.927 142.921 140.037 142.704 140.037 142.488C140.037 142.271 139.93 142.165 139.82 141.948C139.714 141.842 139.497 141.732 139.28 141.732H139.173C138.85 141.732 138.527 141.732 138.203 141.839H137.986C138.203 141.516 138.527 141.193 138.74 140.87C138.957 140.653 138.957 140.44 138.957 140.224C138.74 139.578 137.88 139.578 137.556 140.117C137.339 140.334 137.233 140.547 137.016 140.763V139.688C137.016 139.259 136.693 139.042 136.262 139.042C135.832 139.042 135.509 139.365 135.616 139.795C135.616 140.334 135.616 140.87 135.722 141.516C135.292 141.299 134.969 140.976 134.645 140.653C134.322 140.437 133.998 140.008 133.568 140.224C133.245 140.33 132.921 140.763 133.028 141.086C133.135 141.303 133.245 141.516 133.458 141.626C133.888 142.055 134.322 142.378 134.859 142.701C134.752 142.701 134.535 142.807 134.428 142.807C134.212 142.807 133.888 142.914 133.675 143.024C133.568 143.024 133.458 143.024 133.458 143.13C133.352 143.13 133.241 143.13 133.241 143.237C133.135 143.237 133.025 143.343 133.025 143.453C133.025 143.563 132.918 143.56 132.918 143.67C132.918 143.886 132.918 144.099 133.135 144.315H133.241C133.348 144.315 133.458 144.422 133.565 144.422H134.105C134.322 144.422 134.535 144.315 134.645 144.315C134.539 144.532 134.428 144.638 134.322 144.745C133.998 145.174 133.675 145.714 133.998 146.143C134.215 146.682 135.185 146.359 135.292 145.82C135.509 145.497 135.722 145.174 136.046 144.851V146.249C136.046 146.679 136.369 146.895 136.799 146.895C137.229 146.895 137.553 146.572 137.446 146.143C137.446 145.604 137.446 145.068 137.339 144.635C137.986 145.064 138.633 145.497 139.387 145.82C139.927 145.82 140.14 144.635 139.387 144.312V144.319Z" fill="#020304"/>
    <path d="M151.784 141.196C151.354 140.873 150.92 140.55 150.49 140.227H150.707C150.923 140.227 151.354 140.227 151.677 140.121C151.894 140.121 152 140.014 152.217 139.904C152.324 139.798 152.434 139.582 152.434 139.365C152.434 139.149 152.327 139.042 152.217 138.826C152.111 138.719 151.894 138.609 151.677 138.609H151.57C151.247 138.609 150.923 138.609 150.6 138.716H150.383C150.6 138.393 150.923 138.07 151.137 137.747C151.354 137.531 151.354 137.318 151.354 137.101C151.137 136.455 150.277 136.455 149.953 136.995C149.736 137.211 149.63 137.424 149.413 137.641V136.565C149.413 136.136 149.09 135.92 148.659 135.92C148.229 135.92 147.906 136.242 148.013 136.672C148.013 137.211 148.013 137.747 148.119 138.393C147.689 138.177 147.366 137.854 147.042 137.531C146.719 137.314 146.395 136.885 145.965 137.101C145.642 137.208 145.318 137.641 145.425 137.964C145.532 138.18 145.642 138.393 145.855 138.503C146.285 138.932 146.719 139.255 147.256 139.578C147.149 139.578 146.932 139.685 146.825 139.685C146.609 139.685 146.285 139.791 146.072 139.901C145.965 139.901 145.855 139.901 145.855 140.008C145.748 140.008 145.638 140.008 145.638 140.114C145.532 140.114 145.422 140.22 145.422 140.33C145.422 140.44 145.315 140.437 145.315 140.547C145.315 140.763 145.315 140.976 145.532 141.193H145.638C145.745 141.193 145.855 141.299 145.962 141.299H146.502C146.719 141.299 146.932 141.193 147.042 141.193C146.936 141.409 146.825 141.516 146.719 141.622C146.395 142.051 146.072 142.591 146.395 143.02C146.612 143.56 147.582 143.237 147.689 142.697C147.906 142.374 148.119 142.051 148.443 141.729V143.02C148.443 143.45 148.766 143.666 149.196 143.666C149.626 143.666 149.95 143.343 149.843 142.914C149.843 142.374 149.843 141.839 149.736 141.406C150.383 141.835 151.03 142.268 151.784 142.591C152.324 142.697 152.647 141.516 151.784 141.193V141.196Z" fill="#020304"/>
    <path d="M166.122 137.428C165.691 137.105 165.258 136.782 164.828 136.459H165.045C165.261 136.459 165.691 136.459 166.015 136.352C166.232 136.352 166.338 136.246 166.555 136.136C166.662 136.03 166.772 135.813 166.772 135.597C166.772 135.38 166.665 135.274 166.555 135.057C166.448 134.951 166.232 134.841 166.015 134.841H165.908C165.585 134.841 165.261 134.841 164.938 134.947H164.721C164.938 134.625 165.261 134.302 165.475 133.979C165.691 133.762 165.691 133.549 165.691 133.333C165.475 132.687 164.614 132.687 164.291 133.226C164.074 133.443 163.968 133.656 163.751 133.872V132.797C163.751 132.368 163.427 132.151 162.997 132.151C162.567 132.151 162.244 132.474 162.35 132.903C162.35 133.443 162.35 133.979 162.457 134.625C162.027 134.408 161.704 134.085 161.38 133.762C161.057 133.546 160.733 133.116 160.303 133.333C159.98 133.439 159.656 133.872 159.763 134.195C159.87 134.412 159.98 134.625 160.193 134.734C160.623 135.164 161.057 135.487 161.593 135.81C161.487 135.81 161.27 135.916 161.163 135.916C160.947 135.916 160.623 136.023 160.41 136.133C160.303 136.133 160.193 136.133 160.193 136.239C160.086 136.239 159.976 136.239 159.976 136.346C159.87 136.346 159.759 136.452 159.759 136.562C159.759 136.672 159.653 136.668 159.653 136.778C159.653 136.995 159.653 137.208 159.87 137.424H159.976C160.083 137.424 160.193 137.531 160.3 137.531H160.84C161.057 137.531 161.27 137.424 161.38 137.424C161.273 137.641 161.163 137.747 161.057 137.854C160.733 138.283 160.41 138.822 160.733 139.252C160.95 139.791 161.92 139.468 162.027 138.929C162.244 138.606 162.457 138.283 162.781 137.96V139.252C162.781 139.681 163.104 139.898 163.534 139.898C163.964 139.898 164.288 139.575 164.181 139.145C164.181 138.606 164.181 138.07 164.074 137.637C164.721 138.067 165.368 138.499 166.122 138.822C166.662 138.929 166.875 137.747 166.122 137.424V137.428Z" fill="#020304"/>
    <path d="M202.887 20.3196V8.80461C202.887 6.54421 202.887 4.17732 202.67 1.91692C202.67 1.594 202.67 1.37758 202.563 1.05467C202.67 0.838247 202.67 0.731754 202.67 0.515333C202.347 -0.346917 201.483 0.0859256 200.836 0.298912C199.436 0.728319 198.032 1.05123 196.525 1.37415C161.38 10.7387 126.232 20.2097 91.0879 29.5742C88.263 30.3677 82.4376 31.9411 80.4592 32.4632C80.0497 32.5732 79.7676 32.9407 79.7676 33.3633C79.7676 43.2465 79.8708 153.01 79.7676 206.744C79.7676 206.961 79.8742 207.284 80.091 207.39V207.607C80.1977 208.146 80.7379 208.252 81.168 208.036C86.4496 206.638 164.938 185.648 199.006 176.497C199.976 176.28 200.84 175.957 201.81 175.744C202.24 175.744 202.674 175.315 202.563 174.776V174.669C202.78 174.563 202.887 174.346 202.887 174.13V164.659C202.887 116.545 203.104 68.4338 202.887 20.3196ZM201.593 174.24V174.456C201.376 174.563 201.053 174.563 200.84 174.673C199.439 174.889 198.035 175.318 196.635 175.641C161.49 185.006 84.6191 205.563 81.2781 206.531C81.2781 206.531 81.3848 101.371 81.2781 53.4733C82.7886 53.0439 84.2957 52.611 85.9129 52.2881C87.8535 51.7488 89.6874 51.3194 91.6281 50.78C128.283 40.9861 165.048 31.1888 201.703 21.2883C201.486 72.1989 201.703 123.219 201.597 174.24H201.593ZM201.917 2.45282C201.917 3.42156 201.81 4.39031 201.81 5.35905C201.81 10.0963 201.81 14.8301 201.703 19.5673C200.84 19.7837 199.979 19.9967 199.116 20.2131C163.108 29.9005 127.099 39.4815 91.0913 49.1689C89.2573 49.5983 87.5335 50.1376 85.8096 50.5671C84.2991 50.9965 82.8987 51.3194 81.3882 51.7522V41.3125C81.3882 39.0521 81.3882 36.6852 81.1714 34.4248V33.8477C81.2162 33.8545 81.2884 33.827 81.3882 33.7789C86.6699 32.3808 91.8448 30.9792 97.1299 29.5811C131.197 20.433 165.158 11.3914 199.226 2.23983C200.089 2.02341 201.06 1.81043 201.92 1.48751V2.45625L201.917 2.45282Z" fill="#020304"/>
    <path d="M86.5599 38.4028C85.1595 40.8796 86.99 44.1088 89.7943 44.2153C92.7052 44.4317 94.8626 41.3091 93.6755 38.7257C92.3818 35.713 88.0704 35.6031 86.5599 38.4028ZM90.0076 42.8171C88.067 42.8171 86.7733 40.5567 87.9603 38.9422C88.9306 37.3276 91.4115 37.4341 92.2717 39.1586C93.1353 40.7732 91.8416 42.8171 90.0076 42.8171Z" fill="#020304"/>
    <path d="M97.6634 35.713C96.263 38.1898 98.0935 41.419 100.898 41.5255C103.809 41.7419 105.966 38.6192 104.779 36.0359C103.485 33.0232 99.174 32.9133 97.6634 35.713ZM101.115 40.1239C99.174 40.1239 97.8802 37.8635 99.0673 36.2489C100.038 34.6343 102.518 34.7408 103.379 36.4653C104.242 38.0799 102.949 40.1239 101.115 40.1239Z" fill="#020304"/>
    <path d="M109.2 32.9133C107.8 35.3901 109.63 38.6193 112.434 38.7258C115.239 38.9422 117.393 35.7131 116.316 33.2362C115.022 30.2235 110.711 30.1136 109.2 32.9133ZM112.648 37.2177C110.6 37.3242 109.413 34.9573 110.6 33.3427C111.571 31.7282 114.052 31.8347 114.912 33.5592C115.775 35.1737 114.482 37.2177 112.648 37.2177Z" fill="#020304"/>
    <path d="M208.603 167.459C208.496 164.982 208.386 162.508 208.279 160.032C208.173 156.909 207.956 153.79 207.849 150.667C207.743 147.438 207.526 144.102 207.419 140.873C207.419 140.227 207.419 139.475 207.312 138.829C207.529 138.936 207.636 138.936 207.853 139.046C207.959 139.046 208.069 139.152 208.283 139.152H208.823C208.823 140.014 208.93 140.767 208.93 141.629C209.036 144.858 209.253 148.087 209.36 151.316C209.466 154.439 209.683 157.558 209.79 160.681C209.897 162.941 210.007 165.202 210.113 167.462C210.113 167.679 210.113 167.892 209.897 168.001C209.79 168.108 209.573 168.218 209.356 168.218C209.033 168.111 208.603 167.895 208.603 167.466V167.459Z" fill="#020304"/>
    <path d="M289.888 50.9965C292.369 56.3796 289.242 62.405 286.761 67.3587C283.956 71.8795 278.135 74.4628 276.627 79.7359C275.874 81.6734 273.07 79.0901 271.993 78.4442C268.865 76.4003 270.376 71.7695 268.005 69.4026C264.664 67.2487 264.664 72.0924 263.693 74.1399C261.536 75.4315 263.047 67.6816 262.293 66.3899C261.54 63.7001 257.872 62.4084 255.394 63.7001C253.237 64.7753 248.385 64.4524 252.053 61.6561C253.887 55.3043 249.036 58.8564 245.478 58.5335C242.137 57.7812 241.38 59.6087 240.52 62.6249C240.626 63.1642 240.089 63.5936 239.549 63.4871C234.268 63.2707 230.276 58.1041 229.846 53.1539C230.71 41.8519 241.166 33.9954 252.057 31.948C260.466 31.6251 265.858 31.7316 271.569 38.4063C274.48 42.4977 280.196 41.206 283.967 43.3565C286.771 45.5104 289.572 47.125 289.895 51L289.888 50.9965Z" fill="#413D56"/>
    <path d="M292.046 201.471C277.708 200.286 252.48 197.49 228.005 188.661C226.388 187.047 226.711 183.278 226.388 181.128C227.575 167.459 233.504 179.19 233.827 167.995V168.101C234.044 167.026 234.367 165.841 234.474 164.765V164.872C235.014 162.395 235.338 159.922 235.768 157.445V157.338C242.99 141.299 234.474 154.972 219.166 159.492C211.833 161.646 205.041 151.636 199.76 146.469C187.686 145.394 197.279 150.561 202.777 155.404C217.115 178.115 170.974 145.933 162.564 140.334C155.555 135.597 168.063 129.138 168.063 129.138C175.395 133.013 189.84 140.763 202.454 140.117C210.646 139.688 219.813 133.659 230.699 125.37C236.738 121.278 242.666 115.576 250.212 114.714C253.447 112.453 257.651 91.141 261.209 100.399C268.108 94.48 278.998 87.053 280.292 88.8806C282.339 90.1722 283.85 94.9094 285.467 100.289C290.642 103.195 296.034 106.854 299.915 111.485C314.146 125.37 307.571 147.005 307.677 164.549C304.873 178.541 313.606 203.622 292.046 201.468V201.471Z" fill="#0079D0"/>
    <path d="M233.074 169.613C233.074 169.613 209.246 152.821 200.623 147.438C198.252 145.93 192.214 146.576 192.214 146.576C192.754 147.544 195.665 149.375 198.576 152.065C199.87 153.14 201.917 156.37 202.24 152.927C202.024 155.294 204.721 155.617 205.692 157.342C208.386 155.727 210.003 158.311 212.59 159.709C218.952 163.584 224.774 174.24 232.86 173.378L233.077 169.609L233.074 169.613Z" fill="#413D56"/>
    <path d="M242.236 194.044C242.883 198.349 242.453 202.333 242.343 204.594C239.109 207.716 232.1 212.021 227.788 216.435C227.788 216.435 227.248 195.662 230.269 189.633C233.934 191.894 242.236 194.048 242.236 194.048V194.044Z" fill="#EAF5FF"/>
    <path d="M261.213 107.184C264.987 108.369 261.429 111.921 260.242 113.748C255.607 125.59 251.403 136.892 249.139 149.482C246.875 156.909 246.011 165.305 244.717 172.302C241.483 172.948 233.397 173.378 233.397 173.378C236.525 157.015 240.836 140.227 246.658 124.618C250.432 118.589 250.756 103.089 261.213 107.18V107.184Z" fill="#EAF5FF"/>
    <path d="M276.941 87.5819C279.852 90.5947 269.299 91.6836 267.145 95.0193C265.204 95.8815 261.753 100.615 260.893 99.4336C256.795 86.4105 250.76 108.152 241.163 85.7647C231.89 87.4858 240.516 77.6918 240.516 73.6004C240.086 69.0796 239.763 64.6653 241.917 60.5774C242.457 59.9315 243.104 57.0253 244.181 58.6399C247.845 60.6839 255.931 53.9027 250.326 62.7313C249.462 66.0669 257.872 61.979 260.459 64.5623C263.694 67.0391 260.566 72.0958 263.8 74.5726C266.171 63.8099 268.328 69.0831 270.269 76.7265C276.676 77.1834 276.941 87.5888 276.941 87.5888V87.5819Z" fill="#9E616A"/>
    <path d="M206.875 161.54C206.982 161.756 207.092 161.863 207.092 161.969C207.092 161.863 206.985 161.646 206.875 161.54ZM229.086 173.378C226.068 179.19 226.392 182.849 226.175 186.834C220.136 180.805 217.766 180.915 208.169 167.998C206.875 166.277 199.436 152.175 202.994 152.821C204.181 154.436 205.475 157.342 205.798 157.665C209.139 153.037 224.881 172.412 229.086 173.381V173.378Z" fill="#9E616A"/>
    <path d="M139.171 130.969C139.171 130.969 139.171 130.863 139.064 130.863H138.957C139.028 130.863 139.101 130.898 139.174 130.969H139.171ZM166.122 128.173C166.553 128.389 167.093 128.712 167.093 129.248C166.876 130.111 166.229 130.646 165.799 131.402C165.046 132.587 164.505 133.879 163.965 135.171C163.535 136.033 163.318 137.108 163.101 138.077C162.995 138.723 162.671 139.475 161.808 139.152C161.484 139.046 161.161 138.723 160.731 138.613C159.76 138.506 158.79 138.936 157.82 138.829C156.743 138.829 155.773 138.4 154.802 138.077C153.508 137.648 152.431 136.892 151.351 136.139C149.627 134.954 147.687 133.986 145.636 133.773C144.882 133.666 144.235 133.556 143.478 133.556C142.078 133.556 140.568 133.45 139.274 132.694C138.41 132.155 137.227 131.296 137.657 130.217C137.98 129.571 138.844 129.571 139.38 129.894C140.027 129.678 140.781 129.678 141.538 129.788C142.185 129.788 142.725 129.894 143.372 130.111C143.478 130.111 143.589 130.217 143.695 130.327C144.989 130.433 146.283 130.433 147.577 130.327C146.283 129.252 144.772 128.712 143.372 127.96C142.295 127.531 141.214 127.208 140.137 126.775C139.274 126.452 138.737 125.7 138.197 125.054C137.873 124.624 137.333 123.762 137.98 123.333C138.627 122.903 139.38 123.656 140.027 123.872C140.891 124.302 141.861 124.841 142.722 125.27C143.368 125.593 144.015 125.81 144.662 126.023C145.849 126.239 147.15 125.868 148.337 125.868C145.856 124.253 143.045 123.656 140.457 122.258C139.811 121.828 139.164 121.289 139.057 120.536C138.95 119.351 139.921 118.815 140.998 119.138C142.722 119.678 144.449 120.107 146.066 120.969C147.466 121.722 148.66 122.498 149.954 123.467C148.66 122.069 147.036 121.292 145.636 120.001C144.989 119.355 144.342 118.602 143.695 117.957C143.155 117.417 141.971 116.558 143.048 115.913C143.589 115.696 144.019 116.236 144.449 116.236C144.989 116.342 145.526 116.452 146.173 116.558C146.82 116.775 147.466 116.988 148.22 116.988C147.896 116.342 147.68 115.267 148.65 115.157C148.867 115.157 149.08 115.263 149.297 115.373C149.837 115.803 150.484 116.126 151.021 116.558C153.391 118.067 155.549 119.681 157.596 121.402C158.243 121.832 158.89 122.477 159.537 123.017C161.261 124.415 162.988 125.816 164.712 127.108C165.252 127.538 165.575 127.86 166.112 128.183L166.122 128.173Z" fill="#9E616A"/>
    <path d="M243.207 182.958H243.424C243.317 183.065 243.317 182.958 243.207 182.958Z" fill="#020304"/>
    <path d="M214.421 161C214.204 160.784 214.204 160.677 214.421 160.571L214.528 160.677L214.744 160.894L214.851 161C214.851 161 214.958 161.107 215.068 161.107H214.851C214.634 161 214.528 161 214.421 161Z" fill="#020304"/>
    <path d="M216.685 159.602C216.685 159.602 216.792 159.602 216.792 159.709C216.685 159.709 216.685 159.602 216.685 159.602Z" fill="#020304"/>
    <path d="M226.498 17.5233C226.498 17.5233 226.498 17.6298 226.605 17.6298L226.498 17.5233Z" fill="#020304"/>
    <path d="M223.694 32.051C223.477 31.0823 222.83 30.543 221.536 30.543C219.166 30.543 218.949 34.2015 221.106 34.7409C220.783 37.4307 224.664 36.2489 223.264 34.095C223.694 33.5557 223.911 32.8034 223.694 32.051Z" fill="#020304"/>
    <path d="M229.409 28.286C228.869 26.3485 227.899 23.1194 225.421 23.5488C222.187 23.7652 218.952 25.2698 215.825 26.3485C214.854 22.4735 213.02 18.705 212.914 14.6171C213.237 11.6044 216.688 9.12755 219.706 9.87987C221.647 10.5257 222.51 12.5697 223.264 14.4007C223.694 15.0465 223.481 16.7676 224.664 16.5546C225.094 16.4481 225.311 16.0152 225.204 15.6923C224.017 7.51298 214.961 5.57549 211.837 13.4319C211.407 14.8301 211.837 16.3382 212.267 17.6298C212.914 20.7525 213.667 23.8717 214.638 26.8878C211.403 28.3959 211.51 30.117 212.48 34.0984C213.451 36.4653 213.344 41.9549 216.255 42.6007C219.059 43.0301 221.647 41.2026 224.124 40.2338C231.346 37.2211 232.317 35.9294 229.406 28.286H229.409ZM225.418 37.9734C223.37 38.9422 216.468 43.6794 215.285 39.6945C214.531 36.8947 211.833 31.0823 213.667 29.3612C215.825 27.2073 220.136 26.2386 223.154 25.4862C225.311 24.9469 226.605 24.624 227.465 27.3172C228.219 29.4711 228.865 31.1922 229.299 33.1297C230.163 36.2524 227.788 37.0047 225.418 37.9734Z" fill="#020304"/>
    <path d="M210.756 21.8277C210.65 21.7213 210.54 21.6113 210.433 21.3983C210.216 20.646 210.003 19.8903 210.003 19.1379C209.786 17.8463 209.356 16.5546 209.896 15.263C210.003 14.94 210.436 14.8336 210.543 15.1565C210.65 15.4794 210.543 15.9088 210.65 16.2317C210.756 16.984 210.973 17.7398 211.19 18.3856C211.407 19.2479 211.513 20.1067 211.837 20.9689C211.837 21.6148 211.19 22.1541 210.76 21.8312L210.756 21.8277Z" fill="#020304"/>
    <path d="M215.825 47.228C213.237 47.0116 211.297 45.184 210.757 42.7072C210.54 41.6319 210.327 40.4468 210.65 39.3715C210.757 39.1551 210.973 39.1551 211.08 39.3715C211.297 39.801 211.297 40.3403 211.403 40.7697C211.62 41.4155 211.727 42.0614 211.944 42.6007C212.374 43.7859 213.131 44.8611 214.314 45.4004C214.855 45.7233 215.502 45.7233 216.148 45.9398C216.902 46.0463 216.689 47.2314 215.825 47.2314V47.228Z" fill="#020304"/>
    <path d="M211.513 48.4132C211.083 48.3067 210.65 47.9838 210.22 47.6608C209.573 47.2314 209.033 46.5856 208.709 45.8298C208.492 45.184 208.169 44.5382 208.279 43.8924C208.386 43.5694 208.819 43.4629 209.033 43.7859C209.356 44.4317 209.573 45.0775 209.896 45.6169C210.326 46.2627 211.083 46.6921 211.73 47.015C212.701 47.4444 212.27 48.6296 211.513 48.4132Z" fill="#020304"/>
    <path d="M234.261 112.996C228.202 111.509 222.06 105.892 224.341 99.2172C215.137 95.8678 209.907 84.5315 210.87 75.2047C210.891 75.0055 211.187 75.0055 211.204 75.2047C211.352 76.8674 211.62 79.5057 211.944 80.9176C213.592 88.0698 217.384 95.4899 224.665 98.032C230.369 87.503 238.559 103.951 225.741 99.6466C224.111 103.315 226.423 107.524 229.692 109.489C230.483 110.502 237.265 111.529 234.474 112.996C234.474 112.996 234.368 112.996 234.258 112.996H234.261ZM230.741 96.2045C229.416 94.6071 226.905 96.4072 226.062 98.3481C230.486 100.296 232.692 98.5576 230.741 96.2045Z" fill="#020304"/>
    <path d="M235.338 111.488C235.338 111.417 235.338 111.417 235.338 111.488C235.445 111.381 235.445 111.488 235.445 111.488C235.445 111.488 235.445 111.594 235.338 111.488Z" fill="#020304"/>
    <path d="M251.079 65.7441C250.216 65.4211 249.356 65.2047 248.385 65.2047C246.661 65.2047 244.827 65.2047 243.427 66.1735C243.21 66.28 242.997 66.3899 242.887 66.6029C242.67 66.9258 242.78 67.4651 243.21 67.6781C243.751 67.8945 244.074 67.3552 244.611 67.1388C246.551 66.4929 248.815 66.3864 250.756 67.1388C251.186 67.2453 251.51 66.9223 251.62 66.4929C251.726 66.17 251.513 65.8471 251.079 65.7406V65.7441Z" fill="#020304"/>
    <path d="M245.471 71.8794C244.607 72.0958 243.637 72.5252 242.99 73.2776C242.773 73.494 242.56 74.0299 242.99 74.1398C243.42 74.2463 243.854 73.9234 244.177 73.8169C244.931 73.494 245.688 73.1711 246.441 73.0646C246.981 72.9581 247.518 72.9581 248.058 73.0646C248.382 73.1711 248.705 73.1711 248.922 73.0646C249.245 72.8482 249.352 72.3123 249.029 71.9893C248.165 71.237 246.548 71.5599 245.471 71.8829V71.8794Z" fill="#020304"/>
    <path d="M309.728 132.477C308.865 112.996 298.191 109.767 285.147 98.8943C284.07 95.4488 283.747 91.0379 280.942 88.4546C280.512 87.5923 278.678 88.0252 277.925 88.3481C277.385 86.7335 277.061 85.119 276.524 83.5044C276.094 75.1086 289.679 70.0485 291.509 58.8564C293.126 50.3541 288.381 42.0649 279.542 40.7732C267.898 39.0521 272.426 29.3647 255.067 30.6564C245.904 31.1957 236.848 36.3623 231.78 44.1123C228.115 49.7083 227.682 57.5682 233.827 61.4432C235.551 62.6283 237.708 64.133 239.866 63.5971C239.436 66.2869 239.542 68.9801 240.083 71.5634C240.083 75.5449 237.065 78.774 236.308 82.649C235.555 85.7717 237.385 87.5992 240.513 86.4175C242.883 90.6154 244.934 97.2901 250.863 97.1802C253.233 96.8572 255.497 96.2114 257.762 95.1362C257.762 95.1362 257.762 95.2427 257.868 95.2427C257.975 95.5656 258.192 95.8885 258.298 96.2114C258.622 96.8572 258.945 97.3966 259.375 97.9325C258.835 97.9325 258.405 98.7947 257.975 99.1176C255.817 101.378 253.77 104.501 253.553 107.73C252.043 109.344 250.749 111.282 250.212 113.436C242.99 116.236 236.305 120.217 230.053 124.738C223.26 129.475 216.362 134.642 208.706 137.977C206.335 139.162 205.578 139.269 203.748 139.592C196.415 140.884 189.3 137.331 182.401 134.965C170.217 131.519 161.271 122.587 151.138 115.483C150.274 114.944 148.01 113.116 147.15 114.085C146.558 114.758 146.826 115.627 147.229 116.39C146.286 116.016 144.899 115.686 144.562 115.487C144.022 115.27 143.485 115.057 142.838 115.057C142.408 115.057 141.868 115.274 141.761 115.81C141.655 116.778 142.408 117.531 143.055 118.176C143.241 118.434 143.437 118.664 143.643 118.881C142.821 118.472 141.957 118.128 141.008 117.96C140.144 117.744 139.174 117.854 138.637 118.606C137.884 120.327 139.714 121.835 140.901 122.697C142.412 123.666 144.135 124.205 145.753 124.851C146.248 124.992 146.792 125.226 147.318 125.432C147.332 125.442 147.349 125.452 147.366 125.452C147.415 125.476 147.49 125.504 147.573 125.531C147.673 125.569 147.772 125.603 147.869 125.634C148.041 125.703 148.113 125.772 147.8 125.823C146.723 125.823 145.536 125.284 144.459 124.961C142.735 124.422 141.118 123.776 139.501 123.24C136.913 122.488 136.16 124.532 138.1 126.146C139.717 127.438 141.658 128.3 143.492 129.052C143.592 129.104 143.716 129.169 143.85 129.245C142.763 128.956 141.648 128.781 140.474 128.836C137.023 128.73 136.053 130.99 138.964 133.034C141.445 134.649 144.679 134.219 147.48 135.188C151.685 136.696 154.596 140.461 159.34 139.602C159.771 139.496 160.417 139.386 160.958 139.709C171.738 145.628 193.195 166.081 205.482 163.821C206.559 166.081 207.746 168.235 209.04 170.386L209.903 171.784C215.185 177.38 220.147 183.948 226.829 187.929C227.231 188.51 227.978 189.056 228.938 189.571C228.817 190.166 228.738 190.736 228.659 191.361C228.552 192.33 228.336 193.299 228.229 194.267C227.906 196.311 227.582 198.359 227.365 200.403C227.149 202.557 226.935 204.707 226.825 206.861C226.825 207.936 226.718 209.015 226.718 210.09V216.871C226.718 217.088 226.719 217.301 226.935 217.517C227.042 217.624 227.259 217.734 227.365 217.734C227.482 217.734 227.565 217.699 227.62 217.62C228.876 217.751 230.927 215.834 232 215.15C233.941 213.642 235.881 212.028 237.715 210.307C238.579 209.661 239.439 208.909 240.303 208.153C240.843 207.613 241.49 207.184 242.027 206.645C242.274 206.459 242.557 206.205 242.649 205.916C242.89 205.796 243.104 205.549 243.104 205.243C242.997 202.983 243.104 200.616 243.32 198.355C243.32 196.981 243.393 195.607 243.53 194.233C256.268 196.954 269.202 199.829 282.239 201.602C289.248 202.141 298.735 203.539 304.663 199.018C308.438 193.745 307.681 186.641 308.004 180.396C307.898 164.467 310.375 148.427 309.728 132.498V132.477ZM281.696 92.1132C282.559 94.2671 282.99 96.6339 283.743 98.8943C281.479 100.615 278.892 101.801 276.734 103.738C274.147 105.676 271.776 108.688 268.218 109.011C264.444 109.011 261.426 105.998 257.762 105.243C258.515 104.167 259.379 103.199 260.242 102.336C264.877 96.8469 270.809 92.1097 277.815 89.8493C280.509 88.6641 280.832 89.8493 281.696 92.1097V92.1132ZM244.501 91.4673C246.335 91.3608 247.952 90.6051 249.459 89.4233C250.106 88.9939 252.263 86.5171 250.322 86.84C248.599 88.5611 246.441 89.7463 243.96 90.1757C243.097 88.7775 242.56 86.9465 241.48 85.6549C242.343 85.1155 242.99 84.1468 244.067 84.3632C244.714 84.6861 245.791 84.4697 245.467 83.6109C243.634 81.7799 241.369 83.9338 240.076 85.3319C238.459 86.0843 236.948 85.6549 237.271 83.6109C237.595 79.5195 240.936 76.0774 240.936 71.986C240.506 68.9732 240.289 65.8506 241.153 62.9444C241.583 61.3298 242.23 59.8217 243.2 58.4236C245.357 60.2546 248.052 58.853 250.422 58.4236C255.057 59.3923 243.737 64.5589 254.197 65.3113C255.06 65.3113 255.707 64.8818 256.568 64.5589C259.479 63.4837 262.173 66.4964 261.526 69.4026C261.419 71.1237 261.309 72.9547 262.173 74.4628C262.926 75.7544 264.437 75.538 264.867 74.1399C265.73 71.1272 265.297 66.8193 268.531 71.8795C268.961 72.9547 269.178 77.2625 269.395 78.2313C269.288 85.3354 265.944 88.2416 260.555 92.2231C255.057 95.5587 248.372 98.8978 244.49 91.4707L244.501 91.4673ZM258.625 94.803C262.937 92.5426 266.711 89.097 269.299 85.1155C270.809 82.2093 271.346 78.4408 270.376 75.3216C270.159 73.8135 270.592 72.199 269.729 70.8008C268.865 69.0797 266.278 66.6029 264.66 68.9698C263.907 70.368 264.12 72.1989 263.583 73.707C261.966 70.5844 264.66 67.4652 261.536 64.5589C259.489 62.405 257.225 62.7279 254.637 63.8066C253.45 64.023 251.943 63.9131 250.973 63.1608C251.836 61.6527 253.99 60.1481 252.807 58.3171C251.19 55.8402 248.495 57.8877 246.338 58.1006C245.151 57.7777 243.534 56.4861 242.674 57.9942C241.38 59.2858 240.626 61.0069 240.303 62.8379C235.881 63.2673 230.6 57.5647 230.493 53.2569C231.57 39.3716 247.312 31.2988 260.143 32.2675C266.828 32.5904 268.875 36.3589 273.187 40.2339C275.881 42.0649 279.225 42.0649 282.243 43.1401C290.005 45.6169 292.163 55.3043 289.142 62.0855C286.337 69.4061 278.362 73.1711 275.557 80.3852C275.341 80.0623 274.911 77.4789 274.587 78.3412C274.587 81.8933 275.881 85.4453 276.745 88.8909C271.246 91.5807 265.854 94.9198 261.543 99.3306C261.472 99.2596 261.4 99.1875 261.326 99.1142C260.463 97.6061 259.602 96.208 258.632 94.8098L258.625 94.803ZM259.379 98.142C259.485 98.3585 259.595 98.4649 259.702 98.5714C259.919 99.0008 260.242 99.4337 260.566 99.7566C260.672 99.8631 257.655 103.848 256.361 106.108C255.714 106.325 254.961 106.648 254.314 107.077C255.391 103.848 257.655 100.942 259.382 98.142H259.379ZM251.293 114.071C252.156 111.059 254.204 108.042 257.115 106.644C259.055 107.074 260.779 108.042 262.613 108.798C261.213 112.35 257.221 117.946 252.91 116.009C252.156 115.469 250.969 115.04 251.293 114.071ZM259.165 115.579C252.05 133.663 247.092 152.821 244.504 172.089C240.946 172.089 237.388 172.306 233.831 172.735C233.937 171.766 234.047 171.121 234.261 170.152C237.925 151.529 243.747 133.45 250.863 115.902C253.344 117.733 256.791 117.733 259.165 115.579ZM217.655 159.602C217.762 159.709 217.872 159.819 218.085 159.925C218.085 160.032 218.192 160.032 218.192 160.032C218.299 160.032 218.409 160.138 218.409 160.138C218.481 160.121 218.543 160.104 218.612 160.087C223.202 163.202 227.782 166.332 232.317 169.503C232.533 169.609 232.64 169.719 232.857 169.826C232.64 170.794 232.533 171.657 232.317 172.625C231.563 172.625 229.299 172.625 229.189 172.842C223.367 170.688 210.97 153.896 206.008 156.696C205.145 155.404 204.174 151.636 202.02 152.605C201.59 152.821 201.59 153.357 201.59 154.003C198.679 151.636 195.985 148.943 192.857 146.792C195.122 147.009 199.109 146.686 200.837 147.867C203.641 150.021 206.552 151.959 209.463 153.896C212.143 155.707 214.824 157.517 217.501 159.331C217.446 159.348 217.39 159.369 217.335 159.386C217.442 159.492 217.552 159.492 217.659 159.602H217.655ZM220.167 159.671C223.759 158.462 227.169 156.562 230.486 154.759C232.864 153.429 235.413 152.347 237.461 150.633C235.837 156.5 234.488 162.443 233.29 168.427C228.866 165.556 224.516 162.612 220.167 159.671ZM162.417 138.97C161.285 138.424 160.297 138.118 159.547 138.18C154.479 139.255 150.814 134.089 145.963 133.443C143.375 133.013 138.524 133.766 138.093 130.32C138.985 129.207 144.641 131.11 146.692 130.993C147.339 131.21 148.141 130.073 147.707 129.643C147.277 129.427 146.069 128.922 145.639 128.709C143.699 127.847 139.064 126.449 138.307 124.405C139.06 124.298 139.707 124.621 140.354 124.834C141.218 125.157 141.971 125.373 142.835 125.696C143.588 125.913 144.452 126.236 145.206 126.449C146.069 126.771 147.146 127.094 148.117 126.771C149.035 126.315 149.004 125.27 148.443 124.837C148.443 124.837 148.443 124.837 148.443 124.834C148.443 124.834 148.44 124.834 148.437 124.834C148.34 124.762 148.23 124.707 148.106 124.676C148.106 124.676 148.099 124.676 148.096 124.676C147.112 124.212 146.052 123.824 144.992 123.436C143.482 122.79 139.711 121.282 139.711 119.238C139.927 119.131 140.251 119.131 140.464 119.131C141.218 119.348 141.975 119.454 142.728 119.777C144.129 120.53 145.532 121.175 147.04 121.821C147.139 121.866 147.243 121.911 147.346 121.952C148.134 122.58 148.949 123.178 149.844 123.652C150.491 123.869 150.921 123.113 150.384 122.684C149.63 121.821 148.66 121.392 147.797 120.64C146.179 119.348 144.345 118.056 143.052 116.335C143.915 116.335 144.669 116.658 145.532 116.765C146.272 116.871 146.909 116.974 147.642 117.081C149.273 119.922 152.245 121.526 154.695 123.546C155.019 123.762 155.342 123.652 155.559 123.439C156.099 122.471 153.835 121.502 153.295 120.749C151.461 119.135 149.414 117.843 148.443 115.476C155.036 119.386 160.614 124.731 166.9 129.121C166.893 129.132 166.886 129.138 166.879 129.149C165.045 131.626 163.428 134.209 162.781 137.222C162.781 137.613 162.547 138.324 162.417 138.98V138.97ZM177.659 149.698C174.635 147.902 168.015 142.024 163.301 139.427C163.452 138.977 163.604 138.523 163.752 138.073C164.398 135.597 165.586 133.446 167.093 131.399C167.402 130.883 167.715 130.368 168.121 129.949C168.531 130.22 168.94 130.492 169.357 130.753C177.873 134.951 195.338 142.917 204.505 140.657C221.647 135.707 233.831 121.282 250.322 114.607V114.824C246.765 122.467 243.854 130.324 241.373 138.29C240.11 141.766 238.985 145.281 237.967 148.829C237.757 148.743 237.502 148.757 237.275 148.946C236.628 149.592 235.875 150.021 235.228 150.454C233.394 151.852 231.24 152.715 229.189 153.9C225.955 155.621 222.827 157.452 219.486 158.637C219.286 158.695 219.097 158.757 218.908 158.826C213.083 154.882 207.257 150.959 201.267 147.228C199.219 145.291 195.228 145.507 192.534 145.614C188.87 146.26 195.875 150.135 196.632 151.32C198.356 152.718 200.083 154.226 202.024 155.301C202.887 158.208 204.181 161.007 204.828 162.512C196.849 163.697 184.345 154.01 177.659 149.702V149.698ZM226.175 186.294C223.481 184.357 221.217 181.88 218.842 179.513C215.715 176.067 212.374 172.732 209.569 169.073C206.659 164.123 203.748 158.956 202.561 153.357C203.101 153.141 204.608 156.157 205.471 157.125C204.284 159.925 207.519 161.863 209.246 163.584C210.54 164.659 218.732 173.271 213.881 167.029C211.617 164.23 208.489 162.292 206.335 159.386C205.688 158.094 206.118 156.909 207.629 157.448C215.391 161.54 220.46 169.719 228.329 173.594C225.958 177.253 224.988 182.096 226.171 186.294H226.175ZM241.806 198.445C241.6 200.715 241.493 202.986 241.486 205.26C241.339 205.37 241.194 205.514 241.053 205.659C240.729 205.982 240.406 206.305 239.976 206.628C238.142 208.136 236.525 209.64 234.694 211.255C232.864 212.869 230.813 214.484 228.872 215.992C228.608 216.191 228.301 216.346 228.005 216.49C228.012 216.397 228.012 216.301 228.012 216.208V208.998C228.119 208.029 228.119 206.954 228.229 205.875C228.336 203.938 228.552 202 228.769 200.063C228.876 199.2 228.986 198.232 229.093 197.373C229.309 196.404 229.416 195.435 229.523 194.573C229.629 193.498 229.74 192.313 229.953 191.238C230.015 190.87 230.077 190.506 230.135 190.138C233.865 191.784 239.474 193.048 242.085 193.893C241.972 195.377 241.813 196.875 241.813 198.452L241.806 198.445ZM300.995 199.534C285.04 203.838 259.165 195.336 242.453 192.536H242.237C238.249 191.567 234.257 190.276 230.376 188.878C229.946 188.878 229.512 188.555 229.082 188.448C228.976 188.448 228.866 188.448 228.866 188.342C225.525 185.542 226.925 176.287 229.512 174.24C229.729 174.133 236.951 173.81 238.352 173.701C240.616 173.701 242.88 173.484 245.144 173.484C246.008 173.484 246.761 173.484 247.625 173.378C258.082 173.701 268.755 174.992 279.105 173.378C281.262 172.948 279.969 167.995 279.858 166.813C278.135 158.633 277.271 150.344 276.731 142.055C276.301 136.349 275.654 130.646 276.084 125.047C276.084 124.401 276.514 120.849 275.76 121.924C274.037 128.706 274.897 135.703 275.437 142.591C275.76 152.172 277.701 161.536 278.995 171.007C279.101 171.547 278.671 171.976 278.131 172.083C267.458 173.591 256.568 171.976 245.787 171.976C248.158 152.278 253.98 133.12 260.342 114.284C261.853 112.886 263.036 111.162 263.36 109.118C268.751 112.886 274.033 108.042 277.914 104.49C279.855 102.769 282.336 101.584 284.383 99.9696C288.048 103.738 292.469 106.428 296.567 109.551C306.487 116.438 308.964 127.74 308.428 139.042C308.211 153.034 306.594 166.919 306.594 180.911C306.163 186.401 307.457 197.486 300.988 199.534H300.995Z" fill="#020304"/>
    <path d="M95.3996 115.792C95.5063 116.222 95.0762 116.655 94.6461 116.545C93.1356 116.005 87.3137 114.501 86.777 114.284C84.5129 119.234 76.5336 125.909 75.1332 126.771C65.2134 133.982 53.1395 136.136 41.1724 133.982C36.3208 133.12 24.7838 129.784 16.6979 119.128C11.5229 112.347 8.28852 103.951 7.64164 95.3388C6.45456 82.6387 10.6592 67.9976 25.1072 57.8807C30.2822 54.0058 38.7982 50.5602 42.4661 50.1308C76.5336 46.0394 89.1477 70.1515 92.0586 84.8956C94.5394 91.7833 92.1653 101.471 89.7945 108.252C89.7945 108.252 94.5394 113.848 95.3996 115.785V115.792Z" fill="#ADDDFF"/>
    <path d="M68.6641 112.134C66.8301 102.017 59.6078 72.9547 59.6078 72.9547L55.1245 73.4013L55.3997 80.8386L53.5692 80.8112C53.5692 80.8112 52.2617 75.8541 52.2617 74.1296C52.2617 74.1296 52.3752 72.7383 45.91 74.8888L46.457 81.67L43.5324 81.7765C42.8855 80.7012 42.0218 78.008 41.6984 76.2869L36.3066 77.0461C36.7367 87.0564 37.0774 109.867 37.9376 119.877C37.9376 119.877 41.0653 122.567 47.3173 123C55.2965 123.216 65.9699 119.664 68.6641 112.127V112.134Z" fill="#EAF5FF"/>
    <path d="M58.8337 63.0062C57.8634 64.2979 56.4527 62.831 55.5925 64.2326C52.6815 71.6596 44.9087 67.9804 45.9444 60.7114C49.4988 61.6287 50.8235 58.3171 52.8708 58.2106C55.1348 58.3171 56.9137 61.2542 59.7146 61.4706C59.7146 61.4706 59.3739 62.8997 58.8337 63.0062Z" fill="#0079D0"/>
    <path d="M95.0759 114.934C93.5654 112.457 91.7349 110.306 90.5478 107.723C91.7349 105.033 92.8118 100.402 92.4884 101.588C99.2806 72.5253 73.8358 44.9711 44.2964 49.169C10.5523 53.5798 -5.18601 94.0506 16.8077 119.99C35.4603 142.594 72.1153 139.904 87.2068 114.824C88.9306 114.607 98.5271 119.884 95.0759 114.93V114.934ZM92.3817 115.256C90.8712 114.934 87.3134 112.78 86.3431 114.288C71.5717 138.723 35.9971 141.519 17.6679 119.454C-2.92539 95.2358 10.1222 57.2418 41.2788 50.7835C69.3111 44.5417 95.7228 68.5438 92.2716 96.9603C90.6545 112.031 85.8029 103.312 94.429 115.906C93.7822 115.689 93.0286 115.476 92.3817 115.26V115.256Z" fill="#020304"/>
    <path d="M60.4478 72.7074C60.3893 72.4429 60.145 72.2642 59.8732 72.2951C58.7309 72.4154 55.8406 72.728 54.8668 72.8826C54.6673 72.9135 54.5193 73.0853 54.5193 73.2879C54.509 74.693 54.7567 80.0897 54.7567 80.2752H54.0032C53.7864 79.413 52.8299 74.717 52.5649 73.762C52.4892 73.4837 52.214 73.312 51.9318 73.3635C50.903 73.5456 48.5977 73.9509 48.1813 74.0334C48.1813 74.0334 47.9646 71.8795 47.8579 71.2336C47.6411 69.8355 47.4278 68.3274 47.211 66.9293C47.8579 67.7915 48.6114 68.6503 49.6918 68.9732C49.9086 69.0797 50.2321 69.0797 50.5555 69.0797H51.0957C53.0363 69.0797 54.3301 67.5717 55.1937 65.9571C55.6238 65.2048 55.9473 64.1261 57.0277 64.0196C58.2148 64.0196 59.3984 64.3425 59.9386 62.9444C60.1554 62.515 60.1554 61.9756 60.4788 61.6527C60.5855 61.5462 61.3906 61.2645 61.1257 60.5775C60.9571 60.1412 60.1554 60.471 60.0487 60.5775C58.1872 61.1512 56.4186 59.5435 55.8784 59.0041C55.0148 58.2518 53.8312 57.819 52.6441 58.1419C51.5671 58.3583 50.8824 58.7465 50.0222 59.3923C49.482 59.8217 49.0519 60.2546 48.2983 60.3611C47.6514 60.4675 46.2923 60.0897 46.2923 59.9797C46.2923 59.8698 46.0756 58.9904 46.0515 58.774C46.0136 58.451 45.7212 58.1281 45.3874 58.2071C44.8541 58.3308 44.9573 58.853 44.9573 58.853C44.9573 59.0694 45.2807 61.1134 45.3874 61.7592C45.4941 62.5115 45.6042 63.2673 45.7108 63.9131C45.9276 65.4212 46.1409 66.9258 46.4644 68.4339C46.6811 69.8321 47.5413 74.03 47.5413 74.1399C47.4691 74.1399 46.5607 74.3048 46.0721 74.4628C45.8347 74.5384 45.6833 74.7651 45.6971 75.0124C45.7728 76.3178 46.1375 80.8146 46.1375 81.031H43.7668C43.7668 80.9451 42.6313 77.1698 42.2012 75.751C42.1083 75.4453 41.8055 75.2529 41.4889 75.2976L36.3415 76.0155C36.0077 76.0636 35.7634 76.3487 35.7738 76.6854C35.8288 78.7637 37.36 118.681 37.36 120.403C37.36 120.619 42.8343 124.332 51.9593 123.333C53.3598 123.116 54.6535 122.793 55.9473 122.471C57.241 122.041 58.5347 121.608 59.7218 121.072C60.9089 120.533 62.0926 119.887 63.173 119.135C63.3897 119.028 63.4964 118.918 63.7132 118.812C64.7901 118.06 65.8706 117.197 66.7308 116.335C67.7011 115.473 69.535 113 69.6417 112.89C69.6417 112.89 60.7162 73.8925 60.4547 72.7074H60.4478ZM47.1284 65.9124C46.8738 65.5552 46.4231 61.1718 46.4231 61.1718C46.6398 61.3882 48.522 61.7489 49.537 60.8454C53.0948 58.1556 53.6763 58.853 55.0767 60.1446C55.8303 60.7905 57.6883 61.5256 59.1954 61.6321C59.0887 62.0615 58.49 62.9684 58.1528 63.0234C56.8763 63.2295 56.1193 62.8688 55.149 64.054C54.2853 65.1292 53.6419 66.3831 52.6303 67.3209C50.5796 69.2275 47.4863 66.4208 47.1216 65.9124H47.1284ZM67.2469 113.979C66.7067 114.624 65.9531 115.27 65.3063 115.916C64.5527 116.562 60.8848 118.822 59.8078 119.362C58.7309 119.901 57.6505 120.33 56.4668 120.76C55.3898 121.083 54.2028 121.406 53.1258 121.622C52.0488 121.838 50.9684 121.945 49.8914 122.051H46.7637C46.0102 121.945 45.1465 121.835 44.2829 121.729C43.636 121.512 42.8825 121.406 42.2356 121.189C41.6954 120.973 41.1586 120.76 40.7251 120.543C40.295 120.327 39.7548 120.004 39.3247 119.681C39.218 119.575 39.0012 119.465 38.8946 119.358C38.7879 117.744 38.6778 116.023 38.6778 114.408C38.5711 112.577 38.461 110.749 38.461 108.918C38.3544 107.087 38.2443 105.366 38.2443 103.535C38.1376 101.704 38.0275 99.9833 38.0275 98.1523C37.9208 96.3213 37.8107 94.6003 37.8107 92.7693C37.704 90.9383 37.5939 89.1107 37.4873 87.2797C37.3806 85.4488 36.8404 77.3759 36.7337 77.1629C36.8404 77.1629 41.2619 76.4106 41.4786 76.4106C41.4786 76.4999 42.5384 80.3749 42.8825 81.6253C42.9444 81.852 43.1509 82.0066 43.3883 82.0032L46.8979 81.9654C47.1525 81.9654 47.3521 81.7455 47.3314 81.4913C47.211 80.0417 46.8497 75.6926 46.7603 75.3354C47.4071 75.2289 51.0716 74.583 51.0716 74.583C51.2884 74.583 51.5017 74.4765 51.7185 74.4765C51.8252 74.7994 51.8252 75.1224 51.9353 75.5518C52.0247 76.0877 52.7851 79.7256 53.0398 80.9451C53.0879 81.1787 53.2944 81.3436 53.5352 81.3402C54.0582 81.3333 54.9597 81.3161 55.4999 81.2612C55.7167 81.2406 55.875 81.0516 55.8578 80.8318C55.7442 79.334 55.4896 73.8101 55.4896 73.7173C55.7064 73.7173 59.4775 73.3944 59.5876 73.3944C59.8044 74.3632 60.0177 75.4384 60.2345 76.5171C60.5579 78.1317 60.988 79.6397 61.3115 81.2543C61.6349 82.8689 62.065 84.377 62.3885 85.9915C62.7119 87.6061 63.142 89.2207 63.4654 90.8352C63.8955 92.4498 64.219 94.0644 64.5424 95.679C64.8658 97.2935 65.2959 98.8016 65.6194 100.416C65.9428 102.031 66.3729 103.645 66.6964 105.26C67.0198 106.874 68.3514 112.316 68.3514 112.316C68.3514 112.316 67.7733 113.443 67.2331 113.979H67.2469Z" fill="#020304"/>
    <path d="M4.94719 104.923C4.62376 104.707 4.51709 104.171 4.40699 103.848C4.08355 102.663 3.76011 101.481 3.54334 100.296C2.57303 96.098 2.6797 91.5772 3.76011 87.3793C3.97688 86.627 5.16052 86.9499 4.94719 87.7022C3.87022 91.2543 3.65345 95.0228 4.19366 98.6813C4.41043 100.189 4.73386 101.588 4.94719 103.096C4.94719 103.312 5.59407 105.14 4.94719 104.927V104.923Z" fill="#020304"/>
    <path d="M0.312507 96.7404C0.0957358 96.5239 0.205842 96.0945 0.205842 95.8781C0.0991766 94.2635 0.205842 92.7555 0.422613 91.1409C0.639385 88.8805 0.852715 86.6201 1.39292 84.3597C1.49959 83.9303 2.0398 83.3909 2.4699 83.7139C2.79333 83.9303 2.68667 84.3597 2.4699 84.5761C1.82302 85.9743 1.71636 87.4823 1.39292 88.8805C1.06949 91.1409 0.74605 93.4013 0.74605 95.6617V96.5239C0.639385 96.8469 0.422613 96.8468 0.315948 96.7404H0.312507Z" fill="#020304"/>
    <path d="M95.2927 81.134C94.9693 80.7046 95.0759 80.2718 94.9693 79.7359C94.7525 78.6607 94.5392 77.582 94.2157 76.5068C93.4622 74.2464 92.0583 72.4154 90.8747 70.3714C90.768 70.155 90.5513 69.942 90.5513 69.7256C90.5513 69.5091 90.6579 69.2961 90.9814 69.2961C91.1981 69.2961 91.4115 69.5126 91.6282 69.7256C93.2454 71.5565 94.7559 73.707 95.7262 75.9674C96.1564 77.1526 96.3731 78.3343 96.5899 79.5195C96.5899 79.9489 96.8067 80.4882 96.6966 80.9176C96.2665 81.457 95.5095 81.5635 95.2961 81.134H95.2927Z" fill="#020304"/>
    <path d="M96.5868 76.2903C96.2633 75.3216 96.0465 74.2463 95.5098 73.2776C94.8629 71.8794 93.9993 70.5878 93.1391 69.1862C92.9223 68.7568 92.4922 68.3239 92.4922 67.8945C92.4922 67.4651 93.0324 67.4651 93.2457 67.6781C93.8926 68.2174 94.3227 68.9698 94.8629 69.7221C95.8332 70.9073 96.6969 72.3054 97.127 73.7036C97.3437 74.3494 97.5571 75.1017 97.7738 75.7475C97.8805 76.0704 97.6672 76.3934 97.3437 76.6098C97.2371 76.7163 96.8035 76.6098 96.5902 76.2869L96.5868 76.2903Z" fill="#020304"/>
    <path d="M61.2255 111.488C60.0384 109.657 58.8547 107.719 57.561 105.892C57.2376 105.462 57.3442 104.923 57.6677 104.6C60.7954 101.588 57.9911 95.6651 53.2462 96.5274C49.0415 97.2797 48.0712 102.986 51.3056 105.14C51.629 105.356 51.8458 105.785 51.7357 106.215C51.0888 108.905 50.6587 111.704 50.0119 114.394C49.9052 116.009 49.9052 116.761 51.7357 116.655C54.54 116.871 59.2814 114.071 61.0087 112.673C61.3321 112.457 61.4388 111.921 61.2255 111.488Z" fill="#020304"/>
</svg>
