<?xml version="1.0" encoding="UTF-8"?><svg id="uuid-c359be8b-c3aa-4626-8e34-4e3426f0c80a" xmlns="http://www.w3.org/2000/svg" viewBox="0 0 1044.29 946.22"><defs><style>.uuid-e885ab8b-db0d-4bdd-aad0-0cf72215ce10{fill:#c2e3fb;}.uuid-e885ab8b-db0d-4bdd-aad0-0cf72215ce10,.uuid-1448d587-24c1-45ff-9529-c796cef67ba9,.uuid-ec637642-9ae7-4164-8efb-f98dcf70cf91,.uuid-8c7ca3ab-9c00-43e5-b00e-70ab08c1e8ff,.uuid-e0948172-fd4f-4963-aab3-eabb1d17afe5,.uuid-d4573ada-af3d-4c11-9e40-b8baf0d137a0,.uuid-9bc31ba2-33a7-43eb-a9ee-1e861d98694f,.uuid-68bdbb7d-999b-4109-b87d-4e6e948a91f5,.uuid-07794925-a373-4e20-b010-35c198bd381c{stroke-width:0px;}.uuid-1448d587-24c1-45ff-9529-c796cef67ba9{fill:#9e6156;}.uuid-ec637642-9ae7-4164-8efb-f98dcf70cf91{fill:#000;}.uuid-8c7ca3ab-9c00-43e5-b00e-70ab08c1e8ff{fill:#0079d0;}.uuid-e0948172-fd4f-4963-aab3-eabb1d17afe5{fill:#daab9b;}.uuid-d4573ada-af3d-4c11-9e40-b8baf0d137a0{fill:#0c5c98;}.uuid-9bc31ba2-33a7-43eb-a9ee-1e861d98694f{fill:#e1f3ff;}.uuid-68bdbb7d-999b-4109-b87d-4e6e948a91f5{fill:#a8a7b6;}.uuid-07794925-a373-4e20-b010-35c198bd381c{fill:#fff;}</style></defs><path class="uuid-e885ab8b-db0d-4bdd-aad0-0cf72215ce10" d="M843.47,252.07l.52,214.64-472.09.87,1.58-215.59c.03-3.85,3.14-6.96,6.99-6.98,53.24-.32,396.59-2.34,454.49-1.46,4.67.07,8.44,3.84,8.51,8.52Z"/><path class="uuid-68bdbb7d-999b-4109-b87d-4e6e948a91f5" d="M551.91,541.95c-.42-.05-.23.18-.07.41.02-.13.05-.27.07-.41ZM847.14,500.78c2.92,31.43-5.1,35.25-25.72,35.43-16.89.15-170.83,1-163.1,1.09,8.26.72,3.73,33.81,11.77,43.11,2.12,14.66,27.94,1.27,27.94,13.34,0,6.29-75.2,1.54-75.2,1.54,0,0-73.83,2.29-107.01.91,3.4.14.01-6.5,2.47-7.19,10.75-3.04,18.66,2.09,23.75-1.86,3.96-3.07,11.11-47.28,7.11-47.69-21.35-2.19-175.94-.78-175.94-.78l.36-69.45s439.63.89,468.97.74c2.14-.27,4.41,21.75,4.58,30.82Z"/><path class="uuid-ec637642-9ae7-4164-8efb-f98dcf70cf91" d="M617.13,498.36c-1.03-1.96-2.69-3.61-4.72-4.53-2.18-1-4.71-1.27-7.07-.8-2.44.49-4.62,1.83-6.25,3.72-.86,1-1.46,2.18-1.88,3.42-.37,1.12-.58,2.3-.53,3.49.06,1.11.27,2.22.65,3.27.33.92.83,1.79,1.41,2.58,1.16,1.59,2.68,2.88,4.51,3.63.89.36,1.83.66,2.78.79.44.06.89.09,1.33.09.67,0,1.33-.06,1.98-.19.86-.16,1.72-.41,2.52-.78.25-.08.5-.17.74-.27.66-.29,1.31-.63,1.89-1.06.87-.65,1.61-1.42,2.22-2.32.68-1.01,1.16-2.17,1.44-3.36.29-1.28.4-2.62.21-3.92-.2-1.31-.61-2.58-1.23-3.76ZM615.19,504.7c-.08.31-.17.62-.27.93-.12.31-.26.6-.41.9-.18.31-.37.61-.58.91-.27.36-.55.7-.86,1.03-.27.27-.54.54-.83.78-.28.23-.58.44-.89.64-.13.08-.26.16-.4.24-.13.05-.26.1-.39.15-.36.12-.73.21-1.1.29-.29.05-.58.09-.88.11-.36.02-.71.02-1.07,0-.41-.03-.82-.09-1.23-.16-.31-.06-.62-.14-.93-.23-.26-.09-.51-.19-.75-.3-.28-.14-.56-.29-.83-.46-.31-.2-.6-.41-.88-.64-.25-.22-.5-.44-.73-.68-.2-.21-.38-.44-.55-.67-.15-.22-.29-.45-.41-.68-.12-.25-.24-.5-.34-.75-.13-.36-.23-.73-.31-1.1-.07-.32-.11-.64-.14-.96-.01-.28,0-.57,0-.85.04-.49.11-.98.2-1.47.05-.22.12-.44.19-.66.13-.33.28-.65.44-.97.18-.32.37-.62.58-.93.19-.25.38-.49.59-.72.21-.21.42-.42.65-.61.23-.18.47-.35.72-.51.27-.16.55-.31.84-.45.3-.13.6-.25.9-.36.32-.1.63-.18.96-.25.3-.05.59-.09.89-.11.28-.01.55-.02.83,0,.32.02.63.06.94.12.29.06.56.14.84.22.33.12.66.25.98.39.34.17.67.35.99.55.32.21.63.44.93.69.23.2.44.4.65.61.2.22.39.45.56.69.18.26.34.52.49.79.14.27.26.54.36.82.08.25.16.51.22.77.07.35.12.69.15,1.05.02.3.02.59,0,.89-.03.34-.07.67-.14,1Z"/><path class="uuid-ec637642-9ae7-4164-8efb-f98dcf70cf91" d="M846.19,249.43c-.9-4.14-2.44-6.42-6.47-8.02-1.29-.56-2.64-.82-4.01-.94-.06-.07-454.66.87-458.74.9-2.82.02-5.11,2.29-5.14,5.11-.34,25-1.26,254.9-1.39,290.09,0,2.49,2.01,4.5,4.49,4.49,26.69-.15,171.26-.92,174.05-.92-.28,1.23-3.91,45.5-9.46,45.81s-14.36.83-21.38,1.11c-1.97.08-3.56,1.65-3.65,3.63-.07,1.46-.11,3.15-.13,4.58-.02,1.81,1.44,3.3,3.25,3.29,18.24-.01,106.81-.08,113.33-.14,7.53-.07,15.06-.17,22.59-.27,7.48-.1,43.19-.47,43.55-.52.37-.06.69-.22.96-.46,0,0,.01,0,.02,0,2.53.25.05-7.41-1.36-8.58-.63-.76-12.72-1.6-18.09-2.2-2.34-.26-4.28-1.89-4.95-4.14-3.19-10.73-9.26-41.28-9.76-42.83h0c8.05-.04,167.35-1.79,179.49-2.07,2.82-.06,5.07-2.37,5.05-5.2-.22-35.72-2.19-282.05-2.24-282.74ZM375.69,248.6c0-1.39,1.13-2.52,2.52-2.52l454.5-1.42c4.21-.01,7.64,3.37,7.68,7.58.37,38.41,2.01,209.48,2.03,213.88-6.02,0-465.08.11-466.74.22-.23.02-.46.04-.69.05,0-1.82.62-193.55.7-217.79ZM668.32,580.11c1.18,2.76,2.22,5.86,4.22,8.15.79.91,1.93,1.43,3.13,1.49,4.24.22,14.88.42,17.34,1.12.09.03.17.08.24.14.64.63,1.05,1.45,1.42,2.3.17.38-.11.81-.52.81-9.26-.04-89.11.03-95.8.06-6.69.03-67.3.57-78.37.75-.89.01-1.6-.73-1.56-1.62.02-.49.04-1.02.05-1.52.02-.68.63-1.19,1.31-1.08,4.22.65,18.81-.14,22.42-.57,2.07-.06,3.68-5.2,3.95-5.97,1.97-4.83,5.45-25.69,5.83-31.04.32-3.83.91-12.98.91-12.98.11-.11,99.69-.65,106.69-.69.29,0,.53.21.57.49.72,4.96,4.51,31.52,8.16,40.17ZM842.45,528c0,1.86-1.45,3.38-3.3,3.47-11.41.57-410.78,5.05-458.83,4.88-2.62,0-4.74-2.11-4.78-4.73-.19-14.09-.73-60.77-.73-60.77.01-.19.01-.38.05-.57.02-.08.07-.14.14-.17,0,0,0-.01,0-.02.01,0,.03,0,.04,0,0,0,0,0,.01,0,.04,0,.07,0,.1.01.7.05,1.39.09,2.09.12,2.53.12,464.21.59,465.2.59.02,3.1,0,45,0,57.19Z"/><path class="uuid-ec637642-9ae7-4164-8efb-f98dcf70cf91" d="M635.03,344.12c8.76,3.08,18.2,3.8,27.42,4,7.52.09,15.08-.36,22.44-1.93,3.46-.72,6.88-1.65,10.21-2.86,1.26-.46,1.95-1.87,1.5-3.14-1.4-3.28-4.99-.53-7.37-.11-3.35.94-6.77,1.64-10.21,2.17-13.69,1.75-27.84,1.29-41.27-2.2-1.26-.36-2.74-.61-3.73.46-1.08,1.15-.37,3.07,1.01,3.61Z"/><path class="uuid-ec637642-9ae7-4164-8efb-f98dcf70cf91" d="M608.57,377.51s-.07,0-.1,0c-.05,0-.1-.01-.15-.02.13.02.16.02.2.02,1.36.15,2.73.17,4.1.25.94.05,1.87.1,2.81.11.5,0,1,.01,1.51.01,1.1,0,2.2-.02,3.31-.04,2.53-.05,5.16-.13,7.79-.21,1.34-.04,2.35-1.38,2.24-2.66-.05-.63-.36-1.23-.84-1.65-.52-.45-1.15-.61-1.82-.6-2.42.07-4.84.14-7.26.23-4,.15-7.99.46-11.95,1.05-.02,0-.04,0-.06,0-.95.03-1.67.98-1.59,1.89.08.96.89,1.59,1.82,1.59Z"/><path class="uuid-ec637642-9ae7-4164-8efb-f98dcf70cf91" d="M680.37,301.74c6.38,1.66,12.3,4.72,17.85,8.22,2.73,1.7,5.3-2.21,2.7-4.06-7.15-4.47-15.07-8.84-23.63-9.44-1.93-.09-3.41,2.07-2.05,3.65,1.35,1.25,3.47,1.03,5.14,1.62Z"/><path class="uuid-ec637642-9ae7-4164-8efb-f98dcf70cf91" d="M542.65,340.07c-2.38-.42-5.98-3.17-7.37.11-.45,1.27.24,2.68,1.5,3.14,3.33,1.21,6.74,2.14,10.21,2.86,6.79,1.45,13.74,1.94,20.68,1.94.59,0,1.18,0,1.77-.01,9.23-.2,18.67-.92,27.42-4,1.38-.54,2.1-2.45,1.01-3.61-1-1.08-2.47-.82-3.73-.46-13.43,3.49-27.58,3.95-41.27,2.2-3.44-.52-6.86-1.23-10.21-2.17Z"/><path class="uuid-ec637642-9ae7-4164-8efb-f98dcf70cf91" d="M532.3,310.38c.43,0,.9-.13,1.37-.42,5.55-3.5,11.46-6.56,17.85-8.22,1.67-.59,3.79-.38,5.14-1.62,1.35-1.59-.13-3.74-2.05-3.65-8.56.6-16.48,4.96-23.63,9.44-2.15,1.53-.76,4.48,1.33,4.48Z"/><path class="uuid-ec637642-9ae7-4164-8efb-f98dcf70cf91" d="M610.04,420.24c-1.67,0-3.26-.11-4.75-.34-5.61-.85-9.22-3.27-10.18-6.82-.96-3.55.95-7.46,5.37-11.01,3.87-3.12,9.37-5.74,15.49-7.39,6.12-1.65,12.19-2.15,17.11-1.41,5.61.85,9.22,3.27,10.18,6.82,2.09,7.73-9.19,15.25-20.86,18.4-4.27,1.15-8.51,1.74-12.36,1.74ZM628.31,397.86c-3.4,0-7.2.54-11.06,1.58-5.48,1.48-10.34,3.78-13.69,6.48-2.68,2.16-4.1,4.42-3.71,5.9.4,1.48,2.76,2.72,6.17,3.24,4.26.65,9.62.19,15.09-1.29,5.48-1.48,10.34-3.78,13.69-6.48,2.68-2.16,4.1-4.42,3.71-5.9h0c-.4-1.48-2.76-2.72-6.17-3.24-1.26-.19-2.61-.28-4.03-.28Z"/><path class="uuid-d4573ada-af3d-4c11-9e40-b8baf0d137a0" d="M965.47,525.95c-7.57-23.21-21.84-43.07-28.91-66.43-.94-24,7.62-48.49.83-72.67-1.41-3.17-4.84-31.7-7.41-23.77.61,29.7-16.27,10.22-20.79-4.36-14.76,8.6-21.11,12.11-24.12,12.11s.52,36.17.85,40.49,6.97,78.16,4.75,117.91c7.26,6.16,21.16,7.76,29.34,1.69.9-12.26-1.15-25.63.43-38.32,9.01,11.87,14.35,31.39,25.75,42.19,6.78,4.85,19.61-.18,19.28-8.85Z"/><path class="uuid-d4573ada-af3d-4c11-9e40-b8baf0d137a0" d="M884.78,352.62c17.22-3.33,13.61-34.22,31.43-37.98,12.33-1.66,15.4,11.99,18.65,19.74,2.42-.19-.54-17.04-5.5-19.73s-13.14-6.86-17.41-3.11c-11.4,10-12.87,14.23-16.44,10.7-6.78,6.92-10.63,20.86-10.73,30.38Z"/><path class="uuid-e885ab8b-db0d-4bdd-aad0-0cf72215ce10" d="M897.98,312.71c1.53-.81.71,2.46.55,2.67-.9,1.23-1.79,2.46-2.61,3.65-1.14,1.7-2.22,3.43-3.2,5.23-1.11,1.77-3.2,8.86-6.4,5.86-1.75-1.86-3.19-5.35-.76-7.25,3.78-3.81,7.99-7.15,12.42-10.17Z"/><path class="uuid-e885ab8b-db0d-4bdd-aad0-0cf72215ce10" d="M908.56,312.48c.16.55-2.97,3.57-4.08,4.74-2.12,1.87-4.43,8.2-8.09,4.85-.98-.66-1.36-1.8-.55-2.75.78-1.17,1.64-2.28,2.52-3.38,1.42-1.73,2.78-3.61,4.58-4.94.31-.15,5.3.46,5.62,1.49Z"/><path class="uuid-e885ab8b-db0d-4bdd-aad0-0cf72215ce10" d="M931.33,323.47c6.95,11.92-.97,38.7-4.25,54.87-5.43,2.59-14.08-11.16-16.31-15.43s-2.48-3.67,2.1-9.18c3.23-3.89,5.8-8.33,9.27-12.03-.1-.14-.24-.28-.38-.42-3.25,3.72-13.63-4.54-16.6-7.06-2.65-2.32-2.74-3.92-1.45-7.08,1.96-3.58,3.53-8.86,7.27-10.58,6.71-5.66,16.6,1.31,20.35,6.91Z"/><path class="uuid-e885ab8b-db0d-4bdd-aad0-0cf72215ce10" d="M915.2,533.84c-7.54,5.24-18.03-2.67-24.98-2.61-3.57,6.07-21.5-1.64-21.5,7.15,0,5.53,32.61,4.6,37.02,5.97,5.85,1.2,13.02.27,10.46-8.58-.25-.86.26-2.17-1.01-1.93Z"/><path class="uuid-e885ab8b-db0d-4bdd-aad0-0cf72215ce10" d="M967.12,529.05c-6.87,3.83-13.56,12.84-23.64,3.15-3.6-.32-6.99,5.51-10.83,6.84-11.03-.17-7.11,10.51,1.88,9.84h-.02c9.07,1.08,17.01-1.58,24.61-6.19,6.92-.39,17.76-3.29,8.01-13.63Z"/><path class="uuid-e885ab8b-db0d-4bdd-aad0-0cf72215ce10" d="M915.87,309.64c1.34-.98,3.35-3.3,4.76-4.18.51-.41,10.11,8.42,10.05,9.01-.07.64-15.77-4.23-14.81-4.82Z"/><path class="uuid-07794925-a373-4e20-b010-35c198bd381c" d="M939.89,275.25c.89,4.41,1.08,9.05-.36,13.36-.91,4.14-3.26,7.69-6.09,10.75-1.16,1.5-2.42,3.01-4.24,1.3-1.71-1.77-2.42-4.33-2.62-6.73.06-2.29-.09-4.77-1.16-6.81-1.06-2.43-3.56-3.4-5.85-4.33-1.98-1.08-3.69-2.48-5.43-3.89-2.8-2.31-5.61-4.62-8.13-7.26-1.79-1.99-3.98-3.75-5.31-6.1-.35-.65-.09-1.56.66-1.78.51-.17,1,.11,1.35.45.64.65,1.3,1.25,1.95,1.88,2-.84,3.73-2.05,5.73-2.87,3.38-1.51,7.12-2.23,10.82-1.9,8.13.69,16.23,5.92,18.68,13.94Z"/><path class="uuid-1448d587-24c1-45ff-9529-c796cef67ba9" d="M923.83,286.18c5.82,8.53-5.36,25.84-15.62,25.28-9.81-.54-2.78-12.29-14.75-22.15-3.87-3.19,4.57-11.38,8.17-14.73,6.8-10.51,11.19,10.85,22.2,11.61Z"/><path class="uuid-1448d587-24c1-45ff-9529-c796cef67ba9" d="M923.9,296.84c-1.28-.21-1.02-2.06-.46-2.85-.04-.49.27-.92.45-1.35.15-.32.29-.65.6-.85.57-.36,1.29.11,1.3.74,0,.36-.15.71-.26,1.05.29.58-.03,1.17-.38,1.64.06.77-.33,1.76-1.25,1.62Z"/><path class="uuid-1448d587-24c1-45ff-9529-c796cef67ba9" d="M887.41,331.93c.77.73.76,1.74.16,2.53-.98,2.24-.5,4.83-1.25,7.14-.66,1.45-2.09,2.34-3.21,3.41-2.59,2.28-5.84,4.14-9.35,4.28-10.08.36-15.69-9.11-22.13-15.28-2.13-1.84-4.3-3.22-6.75-4.48-1.66-1.1-7.1-1.99-5.43-4.81-1.82-1.23-2.7-2.83-.52-4.25-.78-4.92,7.19.12,9.15-1.54.67-.87-.21-1.86-.77-2.53-.34-.19-.51-.6-.47-.98.07-.79,1.02-1.14,1.63-.69.81-.19,1.22.63,1.69,1.13,3.17,3.32,6.1,6.92,9.33,10.04,4.54,3.73,10.15,6.31,15.83,7.5.21.05.43-.05.52-.21,1.65-1.87,3.27-3.97,5.05-5.58.8-.86,2.31-1.37,2.97-.07.79,1.75,2.3,3,3.55,4.4Z"/><path class="uuid-1448d587-24c1-45ff-9529-c796cef67ba9" d="M919.92,343.01c.44,1.38-.99,2.27-1.66,3.28-2.07,2.58-4.39,4.95-6.31,7.65-5.05,7.24-9.21,10.58-17.35,14-2.78,1.3-5.8,1.95-8.82,2.41-5.71.99-11.49,1.45-17.28,1.34-11.77-.1-23.52-.51-35.25-1.49-2.91-.26-5.88-.37-8.77-.28-1.34-.53-.74-2.2.6-2.13,1.82-1.2,3.17-.41,5.08-1.45-2.33-.8-3.77-1.13-6.19-1.3-1.23-.14-2.55.19-3.71-.2-.53-.33-.67-1.07-.28-1.56.33-.4.89-.46,1.37-.55,1.97-.35,3.93-.5,5.81-.9-2.53-.72-5.15-1.08-7.76-1.4-.5-.05-1.02-.12-1.29-.61-.52-.96.49-1.73,1.4-1.71,2.76-.3,5.54.04,8.31-.08-1.04-.53-3.83-1.63-4.61-2.51-.48-.66,1.41-.87,2.19-1.09,2.35-.48,4.82.4,7.19-.05.13-1.25-.7-3.13.7-2.88,1.99.49,4.7,3.37,6.41,4.37,2.38,1.58,5.27,2.51,8.05,2.8,8.6.71,17.05-1.04,25.41-2.75,6.05-1.05,12.28-1.61,17.68-4.63,4.34-3.41,10.09-17.75,11.19-19,10.36,10.95,13.81,9.58,17.88,10.72Z"/><path class="uuid-ec637642-9ae7-4164-8efb-f98dcf70cf91" d="M927.57,296.5c.94,2.48,4.18,5.89-.85,5.51-2.73-.04-3.84-1.94-3.61-4.48.12-1.22-.14-2.42-.08-3.63-.13-1.28-.32-2.56.03-3.82.3-.92.2-1.87-.37-2.66-.05-.12-.12-.24-.21-.37-1.41-.85-3.21-2.08-4.9-1.49-1.36.58-2.04,2.16-3.55,2.5-1.04.32-1.96-.8-1.52-1.78.34-.97.78-1.91.75-2.94,0-1.4-.56-2.67-.83-4.02-.02-.31.13-.6.44-.68.64-.09,7.68,3.97,12.64,7.43,1.17,2.32,1.03,8.09,2.04,10.46Z"/><path class="uuid-ec637642-9ae7-4164-8efb-f98dcf70cf91" d="M927.55,333.18s0,0,0,0c.02.02.03.03.05.05-.02-.02-.03-.03-.05-.05Z"/><path class="uuid-ec637642-9ae7-4164-8efb-f98dcf70cf91" d="M928.65,328.21s0,0,0,0c0,0,0,0,0,0,0,0,0,0,0,0Z"/><path class="uuid-ec637642-9ae7-4164-8efb-f98dcf70cf91" d="M970.87,533.06c-.72-1.46-1.47-2.91-2.3-4.31-.28-.43-.53-.98-.96-1.27.13-1.4-.5-2.72-1.04-4-1.26-2.96-2.63-5.88-3.97-8.8-7.58-16.55-16.83-32.53-22.92-49.71-1.12-3.52-2.48-7.12-2.37-10.86.41-3.4,1.06-6.77,1.52-10.17,2.26-14.82,3.43-29.92,1.95-44.88-1.38-10.76-4.13-21.29-6.31-31.91-.61-2.94-1.2-5.88-1.6-8.86-.14-1.04-.23-2.09-.36-3.13.62-3.33,1.31-6.65,2.03-9.95.74-3.38,1.24-7.06,1.38-10.8.06-.23.06-.49.02-.75.25-10.98-2.77-22.32-12.68-27.83-.06-.04-.15-.07-.24-.11,0-.02.01-.03.01-.05.23-2.47.61-4.89,1.3-7.24.16-.91.81-1.84.56-2.77-.54-1.08-1.82-.6-2.06.44-.78,2.12-1.31,4.32-1.65,6.56-.41.35-.76.91-1.14,1.22-1.81,1.84-3.77,3.6-6.1,4.76-2.45,1.15-5.22,2.01-7.93,1.49-.5-.05-.99-.36-1.49-.4-.24-1.13-.75-2.97-1.03-3.98-.84-2.91-1.56-5.86-2.56-8.71,1.93.9,3.98,1.43,6.15,1.16,1.25-.26,4.49-2.44,2.32-3.52-1.25-.24-1.87,1.44-3.1,1.43-2.89.02-5.51-1.47-7.84-3.05-1.5-1.17-3.39-2.07-4.42-3.73-.67-1.67-.17-3.28.71-4.76.03.03.05.06.08.09,1.58,1.92,5.38,4.16,7.89,3.53.73-.41.66-1.55-.13-1.85-.31-.11-.64-.12-.96-.19-2.2-.45-4.25-1.61-5.56-3.45.38-.48.76-.95,1.11-1.39,0,0,0,0,0,0,.72.68,2.06,1.09,2.79,1.1,1.95-.04,1.88-2.45-.14-2.19-.34-.06-.68-.27-1.02-.48-.26-.58-.61-1.18-.42-1.73.21-.39.58-.64.93-.89,1-.65,2.01-1.3,2.9-2.1.69-.66,1.94-1.95,2.65-2.94.09.09.17.17.26.26,3.55,3.48,7.07,7.04,10.98,10.12,1.6,1.13,3.55,1.63,5.28,2.5,2.31,1.22,3.47,2.24,3.5,4.98.07.94-.04,1.87-.18,2.79-.29,1.98.62,3.86,1.59,5.53,1.03,1.61,2.06,3.73,4.27,3.94,2.04.19,5.08-3.48,5.71-4.13,1.47-1.53,2.72-3.23,3.72-5.1,2-3.73,2.9-8,2.63-12.23-.27-4.07-1.65-8.07-3.97-11.42-2.39-3.45-5.7-6.22-9.55-7.92-3.65-1.62-7.7-2.24-11.67-1.83-3.95.41-7.79,1.9-11,4.24-.31.22-.6.46-.89.69-2.26-1.78-4.57-3.06-6.02-2.18-2.26,1.57.48,4.74,1.76,6.1.68.75,1.38,1.47,2.09,2.19-1.05,1.16-2.9,3.18-4.11,3.94-1.12.75-2.46,1.44-2.96,2.77-.23.59-.21,1.2-.08,1.8-.48.44-.92,1.07-1.27,1.44-3.36,3.83-5.51,9.2-.28,12.52,1.13.83,2.32,1.7,3.56,2.5,0,.14.01.28.07.42.82,2.44,1.57,4.9,2.22,7.39.44,1.64,1.15,4.24,1.6,5.88.04.14.07.3.11.46-4.51,1.62-8.64,4.16-12.03,7.56-3.82,3.62-7.77,7.1-11.73,10.56-1.52,1.32-2.95,2.78-4.06,4.44-.54-.26-1.24-.42-1.68-.58-2-.7-3.97-1.52-5.83-2.44-2.47-1.27-4.87-2.72-6.99-4.53-2.88-2.51-4.31-6.29-7.41-8.6-1.92-1.33-3.95-3.1-6.36-3.25-2.76.61-.6,3.67.44,4.97-1.8-.43-3.56-1.21-5.45-1.08-1.84.14-5.15.36-5.2,2.78.11.52.4.93.78,1.26-.88.4-1.58,1.12-1.42,2.16.11.86,1.03,1.67,2.18,2.28-.49.68-.48,1.88,1.2,2.99,2.74,1.62,6,2.14,8.67,3.94.64.37,1.28.76,1.89,1.17,2.95,1.56,6.61,7.26,9.22,9.94,4.17,4.3,9.94,8.15,16.2,7.2,3.61-.51,6.72-2.64,9.6-4.77-.31,1.88-1.02,6.45-1.02,6.45,0,0-6.83,1.93-10.26,2.63-9.71,1.81-19.72,3.23-29.54,1.56-.16-.04-.31-.07-.47-.11-1.36-.69-2.5-1.77-3.79-2.6-1.88-1.26-3.74-3.28-6.15-3.24-1.63.11-2.4,1.82-2.35,3.28-2.08-.14-7.98-1.16-9.07.92-.55,1.34.93,2.22,1.95,2.69-2.06-.03-4.24-.35-6.17.53-.86.35-1.67,1.29-1.25,2.25.85,1.47,2.91,1.59,4.4,2.02-1.52.23-4.12,1.98-2.22,3.46,2,.88,4.3.84,6.45,1.08-.95.18-2.06.49-2.54,1.41-.41.76-.07,1.74.7,2.12,4.36,1.45,9.11,1.72,13.68,2.02.24-.02.52,0,.81,0,1.97.23,4.18.23,5.71.23.67,0,1.21,0,1.55.02,4.97.09,9.85.64,14.8.64.56,0,1.13,0,1.69-.02,7.2-.08,14.71-.3,21.97-1.51.09,5.52.28,11.03.43,16.55,1.09,36.94,7.23,73.6,6.27,110.63.02,6.57-.2,13.13-.5,19.68,0,3.84-.73,7.95.72,11.6-.34.24-.68.46-1.03.68-1.17-3-3.17-6.08-5.86-7.89-3.46-1.85-5.52,1.89-2.87,4.47,1.83,1.96,4.25,3.23,6.52,4.63-.37.17-.74.34-1.12.49-3.67,1.1-7.59.29-11.36.64-5.41.33-9.05,2.04-6.82,8.08.95,1.51,4.75,1.26,6.47,1.67,3.98.49,7.96,1.05,11.95,1.5,8.29.63,16.62,2.16,24.94,1.7,3.17-.35,7.12-1.39,7.13-5.26.06-1.04.38-4.61-.12-6.62,1.21-.48,2.35-1.1,3.36-1.96,1.32-1.5.79-3.64.74-5.46-.55-8.97-1.62-17.96-1.18-26.95.09-1.25.22-2.5.39-3.74,4.03,7.8,8.31,15.47,12.64,23.11,2.33,4.08,4.3,8.41,7.11,12.19-.29.29-.57.59-.85.78-.09.07-.18.15-.27.23-3.56-9.31-9.61-4.89-5-.28.79.67,2.05,2.01,3.17,1.84-1.48,1.29-2.99,2.55-4.71,3.49-1.22.66-2.62.55-3.95.7-1.6.23-3.39.62-4.37,2.01-1.07,1.46-.71,3.37-.36,5.01.25,1.21.66,2.56,1.81,3.19,2.91,1.22,6.1,1.64,9.21,2.06,1.69.22,3.39.37,5.09.37,3.43-.02,6.79-.95,9.93-2.28,2.17-.86,4.06-2.29,6.18-3.24,2.83-.51,5.72-.91,8.42-1.94,2.9-1.2,6.57-3.31,6.89-6.75-.08-1.22-.8-2.29-1.28-3.38ZM900.98,264.19c.9-.75,11.13,9.33,14.33,12.24.35.32.7.65,1.06.97.39.35.87.85,1.44.77,1-.22.87-1.28.24-1.86-2.05-2.21-4.31-4.23-6.46-6.35-.91-.8-2.51-2.45-4.31-4.05.56-.43,1.14-.84,1.74-1.22.76-.46,1.53-.88,2.34-1.25.82-.37,1.66-.68,2.52-.95.88-.26,1.76-.47,2.66-.62.9-.14,1.81-.23,2.72-.26.96-.02,1.92.02,2.73.1.96.1,1.91.27,2.84.5.84.21,1.67.48,2.49.79.87.34,1.72.74,2.54,1.19.75.42,1.48.89,2.19,1.39.71.53,1.39,1.09,2.04,1.7.63.6,1.22,1.24,1.77,1.91.54.67,1.04,1.36,1.5,2.09.47.77.9,1.55,1.28,2.37.37.83.69,1.67.96,2.53.26.87.47,1.76.63,2.66.15.94.24,1.88.28,2.83.02.94-.02,1.87-.11,2.81-.11.91-.27,1.81-.48,2.7-.22.87-.49,1.72-.81,2.56-.34.86-.73,1.69-1.17,2.5-.44.78-.92,1.54-1.45,2.27-.54.72-1.11,1.41-1.72,2.06-.82.85-2.64,2.75-2.76,2.86-1.01,1.18-2.1.41-2.76-.63-.6-.89-1.15-1.81-1.64-2.76-.34-.73-.68-1.49-.73-2.3-.03-.61.12-1.21.18-1.82.15-1.63.06-3.33-.4-4.89-.39-.89-.96-1.67-1.68-2.31-1.9-1.73-4.41-2.44-6.68-3.51-1.05-.53-1.91-1.36-2.79-2.12-3.22-2.71-6.05-5.61-9.04-8.53-1.41-1.39-6.24-5.69-5.48-6.33ZM881.32,524.46s0,0,0,0c1.44-.26,3.81,3.15,4.58,4.28-1.17-.76-4.74-2.76-4.58-4.28ZM935.39,529.05c.63.46,1.03,1.18,1.44,1.83-.58-.52-1.15-1.1-1.44-1.83ZM920.15,306.78s.09-.09.14-.14c.35.16.86.37,1.57.66,2.77,1.55,5.13,3.8,6.96,6.4-2.79-2.07-5.92-3.4-7.95-3.88-1.31-.33-2.66-.44-4-.39,1.17-.78,2.27-1.67,3.28-2.65ZM914.89,311.83c2.95-.71,5.96,0,8.77.96,1.65.57,5.99,4.15,7.32,5.3.13.1.25.21.36.33,1.08,2.68,1.72,5.51,2.06,8.39-.11-.25-.22-.51-.33-.76-1.48-3.44-3.71-6.47-6.35-9.11-4.07-4.15-11.14-5.3-15.5-2.64-2.24,1.4-3.98,3.45-5.42,5.65-1.13,1.81-2,3.78-2.78,5.76-.85,2.47-1.01,2.78-2.06,5.18-2.98,6.39-6.07,12.91-10.27,18.6-1.37,1.24-3.33,1.49-5.13,1.97,1.79-12.28,3.18-18.68,9.38-28.55.56.47,1.16.91,1.82,1.24,1.07.55,2.3.9,3.49.6,1.23-.28,1.78-1.51,2.39-2.49.53-.85,1.08-1.7,1.65-2.54,2.46-3.77,6.07-7.02,10.6-7.89ZM903.15,311.64c.16-.06.32-.12.47-.18.7.84,2.75,1.04,4.59.96-.51.36-.99.74-1.45,1.15-2.76,2.41-4.6,5.38-6.5,8.44-.57,1.33-2.25.36-3.11-.17-.33-.2-.66-.53-1.01-.79.17-.26.35-.53.53-.8.25-.44.58-.84.76-1.31,1.23-1.82,2.34-3.74,3.87-5.33.52-.7,1.42-1.21,1.87-1.97ZM884.56,325.4c4.56-3.92,8.66-8.59,13.85-11.6-.95,1.23-1.8,2.54-2.58,3.9-.19.44-.53.92-.79,1.41-2.64,3.58-4.94,7.46-6.72,11.55-1.29-.45-2-1.76-2.73-2.84-.45-.74-.85-1.46-1.19-2.27.05-.05.11-.1.17-.15ZM871.91,348.39c-8.51-1.03-16.4-12.64-18.93-14.84-2.53-2.21-8.01-5.07-9.11-5.53-1.48-.62-3.23-.85-4.42-2.01.97.28,1.89.38,2.47.23.82-.43.66-1.8-.26-2-1.37-.32-2.84-.59-3.99-1.47,2.15-.56,4.36.33,6.45.81,1.01.28,3.11,1.2,3.09-.59-.08-.99-3.09-1.85-5.68-2.29-.13-.15-.31-.28-.55-.35-.82-.25-1.61-.57-2.36-.98,2.26-.82,4.62-.34,6.82.42,3.82,1.29,4.63-1.64,2.25-4.23,6.15,2.85,6.94,7.79,11.74,11.55,2.85,2.2,6.03,3.97,9.36,5.35,1.13.32,3.1,1.42,4.64,1.63-.31.67-.57,1.37-.75,2.11-.38,1.35,1.73,1.96,2.11.58,1.11-4.31,4.79-7.05,8.07-9.86.31.84.89,1.69,1.2,2.31.89,1.4,1.82,2.76,3.46,3.36-.29.75-.57,1.5-.82,2.26-.77,2.5-1.34,5.05-1.82,7.61-3.74,2.98-7.92,6.33-12.95,5.92ZM860.68,370.83c-4.96.1-33.3-1.48-36.34-2.11,1.42-.39,2.89-.46,4.37-.46.62,0,1.26.01,1.88-.11,1.07-.17,1.36-1.52.56-2.19-.6-.61-1.49-.84-2.32-.98-2.83-.39-5.55-.24-8.41-.78,2.32-.63,4.59-.47,7.02-.66.79.05,1.76-.43,1.54-1.35-.46-1.22-2.15-1.1-3.22-1.39-2.38-.36-4.78-.51-7.08-1.29,2.91-.53,5.93.03,8.86.1.71.01,1.51.23,2.14-.19,1.08-.98.02-1.99-1.07-2.24-1.39-.51-2.85-1-4.21-1.72,2.06-.18,4.12.06,6.17.3.54.06,1.11.18,1.62-.08,1.21-.65.17-2.21.88-3.15,1.13-.12,2.11.9,3.04,1.45,1.9,1.26,3.63,2.9,5.65,3.97,17.71,3.71,38.43-2.32,48.68-5.67,3.1-1.24,8.45-11.57,11.78-18.99.96,1.47,2.5,3,3.11,3.61,2.62,2.47,5.86,4.1,9.26,5.21,1.6.62,3.24,1.15,4.94,1.41-5.65,8.09-13,16.73-20.71,20.89-11.88,5.71-25.26,6.41-38.16,6.45ZM893.25,538.11c-.16.06-.33.07-.49.07-2.02-.33-2.62-2.93-3.35-4.54,1.46,1.27,3.17,2.59,3.84,4.47ZM915.93,539.52c-.11,1.25-.08,2.82-1.51,3.27-5.82,2.43-15.82.18-22.29-.15-7.61-.73-15.22-1.62-22.77-2.79-.74-3.06-.13-3.8,2.89-4.41,4.48-.84,9.14.26,13.57-.82.55-.18,1.1-.38,1.63-.62-.02.1-.02.2,0,.3.34,1.47,1.05,2.84,1.89,4.08.97,1.41,2.84,2.36,4.53,1.81,3.79-1.65-.1-5.8-2.96-8.12.17-.11.34-.23.5-.34,1.94,1.62,5.04,1.84,7.35,2.72,3.08.82,6.22,1.82,9.44,1.52,2.47-.36,5.15-.58,7.66-1.24.03.21.06.41.04.62.09,1.39.11,2.79.02,4.18ZM931.27,509.95c-14.53-25.28-25.81-52.48-34.65-80.21-2.1-7.08-3.75-14.3-5.43-21.49-.13-.58-.79-.92-1.34-.76-.57.15-.92.77-.76,1.34,1.6,6.93,3.2,13.86,5.19,20.69,3.04,10.47,7.05,20.63,10.97,30.8,2.62,6.69,5.3,13.36,8.3,19.89,1.95,4.31,4.02,8.57,6.16,12.78-.94,1.9-.92,6.69-1.1,7.74-.39,9.71,1.04,19.4,1.35,29.07-.33,2.96-11.44,4.12-13.99,4-3.97-.53-7.81-1.79-11.61-3-2.21-.39-2.8-2.62-2.87-4.58-.17-3.16.03-6.33.15-9.5.74-16.72.51-33.48-.17-50.2-1.23-25.78-5.08-51.43-5.63-77.22-.18-6.06-.39-12.13-.48-18.19,6.65-1.31,13.04-3.53,18.73-7.35,6.31-5.01,11.64-11.25,16.4-17.72,2.59-3.89,7.31-11.34,7.61-12.07.3-.73-1.69-1.57-2.21-.55-.63,1.18-1.3,2.35-1.99,3.5-.91,1.47-1.91,3.02-2.98,4.61-.82-.04-1.61-.19-2.47-.37-4.36-1.3-8.8-2.91-12.12-6.21-.8-.79-1.54-1.6-2.16-2.55-.38-.6-.68-1.05-.91-1.4.75-1.75,1.32-3.22,1.65-4.17.06-.08.12-.16.16-.26,1.79-4.59,5.08-11.1,10.6-11.43,8.22-.48,12.95,6.93,14.06,8.94,1.53,2.96,3.14,6.25,4.02,9.59-.01.95-.04,1.89-.08,2.83-.39,4.85-1.55,9.54-2.52,14.26-1.81,8.43-2.92,16.99-3.68,25.57-1.06,4.01-6.88-2.1-8.14-3.55-2.58-2.97-4.95-6.14-6.75-9.64-.48-.96-.91-1.95-1.29-2.95-.59-1.31-2.53-.5-2.02.85,1.57,4.15,4.04,7.84,6.8,11.27,2.46,2.89,6.89,8.48,11.12,7.37,2.25-.63,2.6-3.16,2.67-5.15.13-1.65.3-3.29.49-4.93.27-2.52.61-5.02.99-7.53.34,2.03.75,4.05,1.16,6.06,2.06,10.17,4.64,20.24,6.04,30.53,1.34,12.47.69,25.12-.83,37.55-.47,3.67-1.02,7.33-1.58,10.99-.33,2.51-.94,5-1.03,7.53.14,4.56,1.81,8.91,3.31,13.16,2.66,7.09,5.8,13.99,9.08,20.82,5.86,11.97,12.02,23.81,17.26,36.08.36.91.88,1.85.63,2.85-.49,1.82-2.08,3.11-3.56,4.16-3.4,2.38-7.7,2.96-11.77,2.79-1.39-.05-2.66-.66-3.91-1.24-.4-.2-.77-.45-1.11-.75-2.5-2.35-4.21-5.38-5.86-8.35-2.59-4.79-5.23-9.55-7.9-14.3ZM969.42,537.7c-2.69,3.44-7.36,4.32-11.44,5.01-2.01.08-3.66,1.23-5.34,2.22-7.47,4.17-12.73,4.06-20.89,2.55-1.32-.27-2.64-.58-3.91-1.02-.3-.08-.55-.25-.68-.54-.42-1-.58-2.1-.7-3.18-.11-.8.19-1.68.99-2,1.59-.75,3.39-.51,5.07-.85.86-.19,1.64-.54,2.4-.97,1.44-.87,2.75-1.93,4.03-3.02,1.02,2.89,2.54,6.65,5.48,5.37,2.71-2.42-.15-5.77-2.77-7.7.04-.04.08-.07.13-.11.25-.21.39-.37.52-.51.92,1.05,1.97,2,3.26,2.55,1.95,1.02,4.12,1.43,6.31,1.31,4.6-.13,8.93-1.18,12.51-4.22.94-.81,1.84-1.75,2.46-2.84.98,2.04,2.03,4.06,2.9,6.15.38.62,0,1.26-.35,1.81ZM941.2,535.86c.83.92,2.39,2.18,2.1,3.53-1.12-.84-1.56-2.29-2.1-3.53Z"/><path class="uuid-ec637642-9ae7-4164-8efb-f98dcf70cf91" d="M915.71,294.51c-.93-.18-1.71-.92-1.97-1.83-.4-1.37-2.48-.8-2.11.58.74,2.92,4.32,4.37,6.92,2.92,2.78-1.29,4.25-4.67,3.11-7.55-.41-1.07-1.42-2.09-2.63-2.05-.03,0-.07,0-.1,0-.3-.03-.63.05-.94.29-1.04.85-.75,2.42-1.37,3.53-1.04.45-.68,2.15.46,2.1,1.68-.19,1.91-2.21,2.24-3.6.36.37.47,1.04.51,1.52.29,2.2-1.9,4.43-4.11,4.08Z"/><path class="uuid-ec637642-9ae7-4164-8efb-f98dcf70cf91" d="M903.99,278.15c.81.91,1.59,1.78,2.36,2.7.56.53.97,1.5,1.83,1.54,1.23-.07,1.23-1.46.47-2.15-.98-1.21-1.96-2.41-3.03-3.53-.95-.94-2.45.38-1.64,1.44Z"/><path class="uuid-ec637642-9ae7-4164-8efb-f98dcf70cf91" d="M909.05,384.74c-.72-.78-1.45-1.55-2.2-2.29-.15-.15-.32-.23-.48-.28-.09-.06-.18-.11-.29-.14-.59-.16-1.17.2-1.35.77-.22.7-.15,1.49-.01,2.2.16.86.43,1.68.74,2.5.66,1.74,1.54,3.41,2.47,5.02.7,1.21,1.45,2.38,2.15,3.42,1.77,2.61,3.71,5.11,5.85,7.42.95,1.02,1.94,2,2.99,2.91.93.8,1.92,1.56,3.01,2.11.18.09.36.17.55.24.13.05.27.08.41.08.42,0,.82-.24.99-.65,0,0,0-.01,0-.02.01-.02.02-.05.02-.08.01-.05.03-.09.04-.14,0-.02,0-.05,0-.07,0-.05,0-.1,0-.15,0-1.17-1.26-3.24-1.57-4.06-3.48-6.87-8.18-13.1-13.33-18.81ZM920.25,404.54c-1.26-1.11-2.42-2.32-3.52-3.56-1.73-1.97-3.33-4.06-4.78-6.19-1.21-1.8-2.35-3.66-3.33-5.59-.49-.97-.94-1.97-1.3-2.99-.02-.06-.03-.11-.05-.17,2.6,2.8,4.94,5.7,7.19,8.82,2.27,3.21,4.48,6.54,6.24,10.05-.15-.13-.31-.25-.46-.38Z"/><path class="uuid-ec637642-9ae7-4164-8efb-f98dcf70cf91" d="M373.95,511.38s0,.05,0,.08c0-.03,0-.06,0-.08Z"/><path class="uuid-ec637642-9ae7-4164-8efb-f98dcf70cf91" d="M374.17,482.8h0s0-.02,0-.03c0,.02,0,.03,0,.05v-.02s0,.04,0,.06c0-.02,0-.04,0-.07Z"/><path class="uuid-8c7ca3ab-9c00-43e5-b00e-70ab08c1e8ff" d="M435.6,431.51c.02-.06.03-.12.05-.18,0,.07.01.15.02.22-.02-.01-.04-.03-.06-.04Z"/><path class="uuid-d4573ada-af3d-4c11-9e40-b8baf0d137a0" d="M432.33,418.32c-8.05,23.74-27.9,44.69-14.58,70.5-.42,7.08-4.91,19.65,1.02,24.11,1.89,1.42-3.91,41.61,1.25,60.58,3.22,11.58,8.2,25.09,5.15,37.34-3.78,1.21-7.56-.83-12.27.89-22.38,8.14-11.38-27.35-16.79-40.85-9.37-13.57-2.48-68.59-14.84-31.52-10.87,30.79-6.48,89.57-26.07,83.36,7.03,15.78-8.97,17.58-20.04,12.44-5.27-6.74,2.76-20.46,3.14-30.27,6.62-29.14,6.14-61.62,9.77-92.39,1.88-15.91,5.57-11.21,10.34-45.72,4.56-14.32,35.83-44.54,20.48-72.4,4.33-2.39,7.53-1.08,7.53-1.08,0,0,2.93,23.52,3.77,28.87,4.94,5.71,20.35,4.71,27.6,6.99,4.65-4.93,7.5-27.41,14.53-10.83Z"/><path class="uuid-e885ab8b-db0d-4bdd-aad0-0cf72215ce10" d="M381.86,403.67c3.16,9.4,1.45,20.95-11.05,38.57-3.47-1.72-5.99-2.27-9.31-4.92-1.21-1.63,1.16-2.57,2.23-3.33,13.49-6.07-12.26-7.51-12.29-17.24,4.97-10.55,28.79-35.5,30.42-13.09Z"/><path class="uuid-e885ab8b-db0d-4bdd-aad0-0cf72215ce10" d="M358.92,464.95l-.5-11.7,5.86.76-5.37,10.94Z"/><path class="uuid-e885ab8b-db0d-4bdd-aad0-0cf72215ce10" d="M423.86,415.04c-.58,4.25-2.64,13.75-7.49,14.66-7.44-2.25-24.67-1.31-25.37-7.67-1.49-13.51-4.57-28.75-4.57-28.75,0,0,7.94-1.03,12.82-.9,2.87.08,2.49,1.19,3.47,3.14,3.06,6.21,6.54,7.75,12.58,10.17,2.35,3.6,4.95,6.88,8.55,9.34Z"/><path class="uuid-e885ab8b-db0d-4bdd-aad0-0cf72215ce10" d="M435.15,447.68c-1.49,1.76-16.36,1.56-16.36,1.56,0,0,8.98-15.62,13.07-30.2,1.29-4.6,4.78,26.87,3.29,28.63Z"/><path class="uuid-07794925-a373-4e20-b010-35c198bd381c" d="M453.8,378.14c.24,5.34-.65,10.97-3.26,15.69-1.03,2.06-2.9,3.77-3.45,6.03.13.6,2.16,2.81,1.69,3.6-1.28,1.73-4.06-1.74-5.19-2.62-4.37-3.57-9.02-6.92-12.74-11.19-2.78-3.26-4.54-7.45-7.77-10.31-3.15-3.52-17.43-4.48-2.04-15.51,6.56-4.1,15.04-4.71,21.92-1.04,5.87,2.87,10.6,8.67,10.84,15.37Z"/><path class="uuid-9bc31ba2-33a7-43eb-a9ee-1e861d98694f" d="M351.26,638.76c1.34.89-.12,2.28-.67,3.14-3.39,4.68-3.4,12.39-11.01,11.54-3.03-.3-6.71-.16-8.99-2.47-2.01-3.32.92-6.89,2.95-9.42,1.14-1.43,2.24-2.89,3.39-4.31.39-.64,1.3-1.15,1.87-.43,2.65.71,5.4,1.49,8.12,1.77,1.43.19,2.99-.35,4.36.18Z"/><path class="uuid-9bc31ba2-33a7-43eb-a9ee-1e861d98694f" d="M443.12,625.46c1.92,1.62,1.61,3.82-.83,4.63-2.3.41-4.58.31-6.89.63-7.48.89-14.9,2.5-22.47,2.21-6.37.13-11.33-1.19-10.54-8.71.13-1.76.45-3.51.88-5.21.13-.76,1.13-1.14,1.65-.5,4.16.39,8.29.34,12.36-.5,2.29-.31,4.61-1.54,6.93-1.15.82.37,1.19,1.3,1.92,1.81,2.64,2.1,6.16,2.79,9.22,4.05,2.54,1.03,5.53,1.08,7.77,2.73Z"/><path class="uuid-07794925-a373-4e20-b010-35c198bd381c" d="M423.35,614.06c.72,1.9-1.05,2.46-2.56,2.68-4.56,1.04-9.25,1.34-13.92,1.33-1.22-.09-3.18.15-3.54-1.38-.18-.9-.22-1.57-.22-2.4,0-.49.08-.98.52-1.28.35-.23.87-.1,1.08.25.33-.16.7-.09,1.06-.05,1.38.14,2.87.13,4.13.04,3.59-.21,7.09-1.11,10.67-1.38,1.73-.24,2.25.74,2.77,2.19Z"/><path class="uuid-8c7ca3ab-9c00-43e5-b00e-70ab08c1e8ff" d="M480.76,627.18c.74,12.41-34.2,49.78-27.76,17.67,11.77,6.15,24.33-38.13,27.76-17.67Z"/><path class="uuid-e885ab8b-db0d-4bdd-aad0-0cf72215ce10" d="M475.9,619.45c2.41,1.5-6.14,15.21-13.27,21.5-5.84,5.15-10.55,3.64-8.91.6,3.63-6.76,8.2-10.74,10.9-11.16-9.63-26.47-21.73-54.56-30.01-80.88-3.07-5.33-18.31-49.2-9.18-30.96,11.2,31.16,41.05,108.25,41.05,108.25,0,0,5.03-10.07,9.41-7.35Z"/><path class="uuid-e885ab8b-db0d-4bdd-aad0-0cf72215ce10" d="M421.65,508.75c.03.3-.07.55-.23.73,0,.09-.01.18-.02.27-.11,1.26-1.97,1.26-2.07,0,.07-.48,0-1,.02-1.49-1.89-6.39-5.02-12.35-7.07-18.69-1.35-3.66-2.59-7.35-3.89-11.02-1.27-3.89-3.04-7.35-4.3-11.12-.39-1.54,1.9-1.93,2.04-.37,3.51,8.18,6.21,16.57,9.25,24.92,1.95,5.64,4.86,10.97,6.27,16.78Z"/><path class="uuid-e885ab8b-db0d-4bdd-aad0-0cf72215ce10" d="M398.17,445.9c.88.96-.46,2.36-1.46,1.51-1.25-1.75-1.72-4.03-2.53-6.02-.27-.58-.75-1.26-.6-1.91-.24-.98-.52-1.99-.39-3,.22-1.17,1.83-1.14,2.14-.04.38,1.32.69,2.67.89,4.03.32,1.84,1.27,3.76,1.95,5.45Z"/><path class="uuid-ec637642-9ae7-4164-8efb-f98dcf70cf91" d="M395.45,447.99c-.64-.09-.9-.72-1.14-1.24-.2-.43-.41-.85-.61-1.28-.37-.79-.7-1.58-1-2.4-.34-.93-.59-1.88-.86-2.82-.25-.86-.51-1.71-.44-2.61.08-.92.49-1.86,1.24-2.44.52-.4,1.24-.6,1.9-.54.49.05.94.23,1.34.5.37.25.68.63.9,1.02.27.48.46.98.65,1.49.16.44.31.88.45,1.32.16.49.29.99.44,1.49.37,1.2.78,2.38,1.21,3.55.25.65.52,1.3.8,1.94.22.5,0,1.1-.5,1.33-.49.22-1.12,0-1.33-.5-.43-1.04-.89-2.07-1.27-3.13-.41-1.15-.76-2.32-1.15-3.48-.12-.34-.23-.68-.36-1.02-.23-.6-.48-1.2-.77-1.78-.04-.07-.09-.15-.13-.22-.04-.05-.07-.09-.11-.13-.03-.03-.06-.07-.1-.1-.01-.01-.03-.02-.04-.03-.02-.01-.05-.03-.07-.04-.01,0-.03-.01-.04-.02-.02,0-.04-.01-.06-.01-.02,0-.05,0-.07,0,0,0,0,0,0,0,0,0-.02,0-.02,0-.05.01-.1.03-.15.04-.03.01-.06.02-.09.04-.01,0-.03.02-.04.02,0,0,0,0,0,0-.02.02-.05.05-.07.07-.04.05-.08.11-.12.16-.05.08-.1.16-.14.25-.01.03-.02.06-.04.09-.02.07-.03.14-.05.21-.01.07-.02.13-.02.2,0,.08,0,.15,0,.23.01.11.03.22.06.33.08.31.17.61.26.91.11.39.22.79.34,1.18.21.72.45,1.43.71,2.13.26.69.55,1.38.85,2.06.19.43.36.86.48,1.31.05.17.08.35.11.53.05.35.09.74-.15,1.03-.16.21-.42.36-.69.36-.04,0-.07,0-.11,0Z"/><path class="uuid-ec637642-9ae7-4164-8efb-f98dcf70cf91" d="M481.15,623.51c-.69-1.5-1.73-2.79-2.84-4-.32-.41-.78-.84-1.26-.94-.81-.57-1.81-.96-2.79-.95-2.97.56-5.05,3.34-6.87,5.55-.18.29-.48.63-.75.98-.05-.14-.11-.29-.16-.43-2.46-6.62-4.91-13.24-7.36-19.86-2.45-6.62-4.9-13.23-7.35-19.85-2.7-7.29-5.4-14.57-8.1-21.86-2.64-7.12-5.28-14.25-7.92-21.37-2.7-7.28-5.39-14.55-8.09-21.83-2.62-7.07-5.24-14.14-7.86-21.21-2.53-6.82-5.06-13.65-7.59-20.47-2.48-6.7-4.96-13.41-7.46-20.1-1.31-3.51-2.62-7.02-3.97-10.52-.66-1.7-1.32-3.4-2-5.09-.31-.76-.62-1.52-.95-2.28-.13-.29-.25-.59-.41-.87-.12-.21-.26-.42-.48-.54-.41-.22-.93-.03-1.06.43-.01.04-.02.07-.02.11-.05.26,0,.53.07.8.11.4.23.79.36,1.18.32,1.01.66,2.02,1.01,3.03,1.1,3.22,2.31,6.55,3.52,9.88,1.13,3.1,2.27,6.2,3.42,9.3,2.48,6.71,4.97,13.41,7.45,20.12,2.57,6.92,5.13,13.85,7.7,20.77,2.63,7.08,5.25,14.16,7.88,21.25,2.67,7.22,5.35,14.43,8.02,21.65,2.65,7.14,5.29,14.28,7.94,21.42,2.67,7.2,5.34,14.39,8,21.59,2.48,6.68,4.96,13.37,7.43,20.05,2.01,5.42,5.16,13.2,7.26,18.82-.13.56-.46,1.07-.86,1.48-.11.1-.23.2-.36.29-.19-.5-.37-1-.56-1.5-2.46-6.62-4.91-13.24-7.36-19.86-2.45-6.62-4.9-13.23-7.35-19.85-2.7-7.29-5.4-14.57-8.1-21.86-2.64-7.12-5.28-14.25-7.92-21.37-2.7-7.28-5.39-14.55-8.09-21.83-2.62-7.07-5.24-14.14-7.86-21.21-2.53-6.82-5.06-13.65-7.59-20.47-2.48-6.7-4.96-13.41-7.46-20.1-1.31-3.51-2.62-7.02-3.97-10.52-.66-1.7-1.32-3.4-2-5.09-.31-.76-.62-1.52-.95-2.28-.13-.29-.25-.59-.41-.87-.12-.21-.26-.42-.48-.54-.41-.22-.93-.03-1.06.43,0,.04-.02.07-.02.11-.05.26,0,.53.07.8.11.4.23.79.36,1.18.32,1.01.66,2.02,1.01,3.03,1.1,3.22,2.31,6.55,3.52,9.88,1.13,3.1,2.27,6.2,3.42,9.3,2.48,6.71,4.97,13.41,7.45,20.12,2.57,6.92,5.13,13.85,7.7,20.77,2.63,7.08,5.25,14.16,7.88,21.25,2.67,7.22,5.35,14.43,8.02,21.65,2.65,7.14,5.29,14.28,7.94,21.42,2.67,7.2,5.34,14.39,8,21.59,2.48,6.68,4.96,13.37,7.43,20.05,1.88,5.08,3.77,10.16,5.65,15.24-.25.08-.52.27-.76.6-2.18,2.8-4.59,5.41-6.79,8.19-.85,1.3-3.06,3.47-2.93,5.19-.05.09-.1.2-.12.32-.35,2.53-.1,5.12-.28,7.67-.02,3.42-1.23,5.82,3.02,6.9,11.35,2.17,18.99-12.12,23.72-20.35,1.24-2.18,2.57-4.31,3.79-6.5,1.63-2.4.57-5.56-.48-8ZM462.65,631.25c.03.06.06.12.1.17.01.22.13.41.4.53,2.66,1.08,5.74-3.01,4.7-5.27-.04-.15-.11-.3-.2-.44.62-.45,1.06-1.49,1.57-1.97,1.04-1.28,2.15-2.53,3.46-3.54,1.28-.95,1.81-1.21,3.22-.26-.87,2.35-2.43,4.21-3.82,6.39-1.75,2.55-3.6,5.03-5.52,7.45-1.79,2.24-3.74,4.54-5.88,6.65-1.88,1.8-4.33,3.97-6.95,2.17,2.36-4.39,6.42-7.6,8.93-11.89ZM479.88,630.3c-1.2,2.16-2.49,4.27-3.72,6.41-3.72,6.31-7.14,13.25-13.35,17.51-2.68,1.83-6.67,3.28-9.63,1.32-.14-2.46.13-4.92.13-7.38-.02-.87.04-1.77,0-2.65.72.32,1.53.48,2.27.54,2.96.17,5.27-2.16,7.25-4.07,3.42-3.49,6.42-7.36,9.29-11.3,1.78-2.49,3.5-5.04,5.07-7.66.16-.26.32-.55.47-.85,1.19,1.49,2.03,3.24,2.43,5.11.17,1,.38,2.13-.22,3.03Z"/><path class="uuid-e0948172-fd4f-4963-aab3-eabb1d17afe5" d="M415.12,511.93c-.51-2.19-.48-4.52-.32-6.77-.06-1.11,1.07-1.96,1.88-.96.29.5.14,1.08.15,1.62-.08,1.85-.01,3.73.28,5.53,0-.04-.01-.08-.02-.12,0-.02-.01-.03-.02-.05.33,1.2-1.39,1.86-1.95.74Z"/><path class="uuid-e0948172-fd4f-4963-aab3-eabb1d17afe5" d="M409.79,457.4c.21.44.04.99-.34,1.27-.48.36-1.17.18-1.73.12-.83-.08-1.65-.16-2.48-.23,1.01.43,2.05.83,3.07,1.25.54.19,1.09.58,1.08,1.21-.03,1.28-1.49,1.14-2.39.97.73.36,1.65.6,2.06,1.36.45.97-.61,1.75-1.52,1.56-2.5-.14-5.01-.36-7.49-.7-.13.43-.56.74-1,.74-.09,0-.19-.01-.28-.04-1.02-.34-2.04-.69-3.05-1.06-1.56-.58-3.09-1.23-4.62-1.88-2.33-.98-4.66-1.97-7.03-2.8-1.69-.58-3.4-1.1-5.11-1.62-1.8-.55-3.59-1.13-5.39-1.67-3.6-1.08-7.28-1.85-10.94-2.66-3.8-.84-7.61-1.69-11.29-2.97-.95-.33-1.88-.69-2.79-1.11-.84-.39-1.68-.82-2.43-1.37-.82-.6-1.87-.43-2.31-1.35-.36-.77-.13-2.53-.18-3.37-.04-.72-.01-1.45.03-2.17.06-.93.16-1.86.29-2.79.25-1.84.59-3.67,1.05-5.47.65-2.56,1.45-5.08,2.27-7.44.48-1.39.98-2.77,1.49-4.14.21-.57.43-1.14.67-1.7.21-.49.48-1.11,1.06-1.2.3-.06.62.01.86.26.15.15.24.33.27.53.87.24,1.63,1.6,2.38,2.05,3.57,3.15,7.41,6.26,11.88,7.95,1.94.64,2.16,2.15.54,3.39-1.85,1.69-3.65,3.58-5.95,4.64,4.28,2.34,8.62,4.49,13.01,6.6,4.78,2.18,9.81,4.29,15.06,4.64,2.69.2,5.4-.07,8.08.26,2.99.45,5.75,1.06,8.53,2.19,1.22.57,5.57,2.58,4.61,4.2-.27.4-.67.55-1.13.55-1.25-.07-2.46-.4-3.71-.49,1.08.46,2.16.9,3.23,1.38.59.29,1.34.5,1.65,1.14Z"/><path class="uuid-e0948172-fd4f-4963-aab3-eabb1d17afe5" d="M436.52,407.68c-.63.4-2.36.24-2.93.68-3.34,1.7-6.74,5.73-10.79,4.67-2.73-1.57-4.34-4.51-6.88-6.34-3.46-2.47-7.4-4.46-10-7.94-1.72-2.28-3.27-6.38-2.76-6.65.79-.39,4.96-.99,10.29-9.47,2.15-.82,7.83-2.33,10.1-1.79,1.24.38,6.09,8.28,8.42,10.73,1.91,1.88,5.1,5.14,7.02,7.01.41.16-.27,7.25-2.46,9.1Z"/><path class="uuid-e0948172-fd4f-4963-aab3-eabb1d17afe5" d="M434.65,448.45s-.98,66.07-4.3,75.18c-.4,1.23-6.14-5.18-4.88-13.13-.86,1.13-3.69,4.33-4.19,3.74-.33-.38.91-9.4.68-9.99-.27-1.33-2.73-5.34-3.73-7.95-2.53-9.08.12-46.83,1.82-46.73.41-.4,14.6-1.12,14.6-1.12Z"/><path class="uuid-1448d587-24c1-45ff-9529-c796cef67ba9" d="M414.54,381.45c-.13-.47.25-.86.52-1.2.81-1.01,1.67-2,2.4-3.08.63-.76,1.73.23,1.04.95.8-.7,2.21.17,2.47,1.04.66.2.63,1.19-.02,1.4-.43.14-.91.01-1.31-.17-1.32.5-2.62,1.05-3.94,1.52-.44.19-1.04.04-1.16-.47Z"/><path class="uuid-ec637642-9ae7-4164-8efb-f98dcf70cf91" d="M412.4,371.71s-.01.07-.02.11c0-.04.01-.08.02-.12,0,0,0,0,0,.01,0,0,0,0,0,0Z"/><path class="uuid-ec637642-9ae7-4164-8efb-f98dcf70cf91" d="M454.85,373.94c-1.27-3.78-3.53-7.25-6.53-9.89-2.64-2.33-5.78-4.07-9.19-5.01-3.49-.96-7.18-1.1-10.72-.38-3.54.72-6.91,2.28-9.74,4.54-1.46,1.17-2.78,2.51-3.88,4.02-.55.76-1.08,1.56-1.5,2.39-.2.39-.38.79-.56,1.19-.11.24-.23.5-.3.76,0,.02,0,.05-.01.07,0,.02,0,.04-.01.06,0,0,0,0,0-.01-.11.58,0,1.29.14,1.77.48,1.57,1.68,2.54,3.04,3.29-.11.13-.21.26-.28.4-1.48,1.94-2.78,4.02-4,6.14-3.64,7.86-9.06,8.24-16.96,8.46-10.61-.02-22.24-.18-30.92,6.86-9.84,8-16.65,19.81-19.84,32-1.25,5.13-2.69,11.5-1.13,16.72.07.21.2.39.37.52.02.02.04.05.06.07,3.9,3.2,9.07,4.26,13.85,5.52.04.01.08.02.13.03-.02.32-.02.64-.01.9,0,.99,0,3.49.02,4.49.06,6.57-.19,13.19-1.22,19.7-1.32,8.77-4.55,17.09-6.92,25.6-3.7,12.61-3.28,25.82-3.41,38.82-.15,5.36-.48,10.8-.81,16.18-.49,7.03-1.88,13.27-2.89,20.24-1.47,9.72-2.94,19.44-4.3,29.18-1.03,6.43-2.99,12.67-4.41,19.02-.37,2.15-1.42,4.46-.56,6.6.09.21.2.4.33.59-2.13.28-4.72,1-4.64,3.37.58,2.26,3.33,1.66,5.53,1.19-1.5,1.87-3.18,3.62-4.21,5.81-2.93,5.99,1.2,8.98,6.85,9.6,5.93.6,10.41-.14,12.48-6.38,1.4-3.76,3.91-6.57,6.09-9.94.31-.53.18-1.04-.14-1.38.98-1.14,1.74-2.53,2.26-3.87,1.18-2.86,2.76-6.53.45-9.25,4.52-.76,6.34-.47,8.83-4.89,4.13-8.02,6.08-17,7.75-25.8,2.26-13.09,2.45-26.49,5.43-39.47,1.15-5.36,2.78-10.62,4.79-15.72,1.04-2.67,2.22-5.29,3.41-7.9.31,4.7.52,9.41.79,14.1.36,9.11.11,11.42,4.62,19.59,1.53,3.84,1.91,7.99,2.34,12.06.69,7.18,1.21,14.38,1.82,21.57.38,3.95.25,8.04,1.54,11.83.55,1.35,1.56,2.47,2.79,3.28-.04.62.16,1.29.15,1.89.19,1.88.2,3.78-.1,5.65-.43,2.81-1.49,5.68-.74,8.52.93,3.7,4.92,5.32,8.41,5.57,8.18.44,16.34-.91,24.5-1.38,3.24-.35,6.87-.11,9.67-2.02,2.1-1.45,2.97-4.66.86-6.49-1.83-1.71-4.39-2-6.76-2.28-2.18-.31-4.32-.89-6.34-1.78-1.11-.47-2.13-1.11-3.04-1.88,2.24-1.13,4.32-2.61,5.81-4.67.86-1.1,1.6-2.46,1.47-3.9-.11-1.31-1.33-2.37-2.65-2.2-2.72.3-5.3,4.73-7.23,7.76-.65-1.02-1.16-2.12-1.53-3.26.17-.02.35-.04.52-.07,1.53-.07,2.79-1.14,3.05-2.66.88-6.69.38-13.61-.79-20.24-.98-4.75-2.92-9.21-4.58-13.74-4.65-13.44-2.1-27.93-2.04-41.84.12-4.44.18-8.89.23-13.33,0-1.17.04-3.85.07-6.06.86,1.39,1.99.98,3.09-.05-.02,2.96-.39,6.62,1.04,9.09.6.76,1.69.78,2.46.27.2,1.64.58,2.89,1.27,3.32,2.1,1.04,2.75-1.85,3.14-3.33,1.29-4.34,1.82-8.86,1.99-13.37.02-.11.04-.24.05-.4.31-4.85,1.65-39.2,2.24-56.61.49-14.46,1.87-32.57-4.07-40.06-.25-.38-.71-.79-1.2-1.02.51-.45.99-.93,1.44-1.4.08-.08.14-.17.2-.26.63.13,1.46-.06,2.07-.1,1.67-.17,3.88-.56,4.38-2.44.52-2.13.57-4.36,1.1-6.49.08-.37.27-.83.36-1.27.17.13.33.27.5.4,2.34,1.6,4.43,4.1,7.34,4.55,2.92-.03,2.26-2.96.73-4.43-.39-.44-.79-.88-1.19-1.31.52-.4,1.04-.88,1.55-1.36,1.71-1.63,3.17-3.52,4.31-5.59,1.38-2.5,2.29-5.27,2.66-8.1.45-3.46.12-7.01-1-10.31ZM415.53,380.93c.39-.86,1.69-2.11,2.09-3.21.3.13.59.26.87.39.87.43,1.67.84,2.47,1.31-.04,0-.08,0-.12.02-.69.13-1.37.31-2.04.5-.77.21-1.54.43-2.29.7-.35.12-.7.26-1.05.4.02-.03.04-.07.07-.11ZM401.66,393.58c.02.61.24,1.25.36,1.82.8,3.06,2.84,5.58,5.17,7.63,2.33,2.19,5.19,4.17,8.51,4.2.26.43.48.79.63,1.06.47.75.95,1.53,1.47,2.29-.78.03-1.56.04-2.33-.01-.68-.06-1.36-.17-2.04-.3-.68-.15-1.36-.34-2.02-.57-.62-.23-1.23-.5-1.83-.8-.64-.34-1.25-.71-1.84-1.12-.55-.39-1.08-.81-1.58-1.26-.62-.58-1.21-1.19-1.77-1.83-.71-.84-1.36-1.72-1.96-2.63-.79-1.23-1.5-2.52-2.15-3.83-.48-1-.92-2.02-1.34-3.05-.16-.4-.33-.79-.5-1.19,1.1-.08,2.17-.21,3.2-.4ZM394.2,394.14c.64,0,1.26-.02,1.89-.04.06.21.14.43.2.62.19.55.4,1.1.61,1.64.46,1.16.96,2.31,1.52,3.43,2.08,4.15,4.91,8.09,8.92,10.56,1.99,1.23,4.19,2.03,6.49,2.41,1.01.17,2.03.24,3.05.24.93,0,1.86-.06,2.78-.15.91.88,1.97,1.57,3.27,1.88.17.04.33.06.49.08-.52,2.37-1.39,4.64-2.43,6.83-.88,1.66-2.82,6.34-4.79,6.76-4.38-.76-8.76-1.55-13.16-2.22-2.49-.62-11.07-1.26-11.19-4.35-.39-8.03-1.55-16-3.12-23.88-.29-.95-.43-2.59-.92-3.75,2.14-.04,4.28-.03,6.39-.06ZM351.71,449.64c-2.01-.63-4.25-1.41-6.11-2.56-.28-.18-.54-.37-.8-.57-.06-.09-.12-.17-.18-.25-.28-1.01-.4-2.05-.42-3.09-.04-3.63.7-7.99,1.58-11.51.96-3.88,2.45-7.99,4.38-12,.12-.24.44-.29.62-.09,1.23,1.26,2.86,2.5,3.8,3.37,0,0,.01.01.02.02,3.42,2.69,7.05,5.39,11.18,6.84.28.1.35.46.12.65-1.1.9-2.24,1.76-3.4,2.58-.74.36-1.1,1.22-.57,1.91.98,1.13,2.19-.24,3.07-.82,1.82-1.34,3.57-2.78,5.24-4.3,3.17-2.8,5.55-6.73,7.13-10.67,0,0,0-.01,0-.02.3-.97,1.39-2.95.59-3.79-1.71-1.24-2.58,2.94-3.2,3.98-.62,1.35-1.34,2.74-2.17,4.08-1.07,1.69-2.37,3.23-3.83,4.59-.1.09-.23.12-.36.09-2.54-.59-4.9-1.76-7.08-3.19-2.13-1.36-4.16-2.87-6.09-4.5-1.1-.94-2.37-2.11-3.48-3.25-.12-.12-.14-.3-.06-.45,4.12-7.52,9.8-14.39,16.48-18.38,2.93-1.69,6.08-2.69,9.32-3.28.17.08.28.14.45.22,1.34,2.6,2.58,5.99,3.27,8.94,2.37,10.08,1.01,18.5-4.64,27.25-1.44,2.23-3.03,4.44-4.52,6.65-.55.83-1.12,1.65-1.66,2.49-.1.16-.31.22-.48.14-.71-.34-1.41-.7-2.11-1.07-3.57-1.72-6.98-3.85-10.72-5.2-.73-.22-1.68-.54-2.33,0-.47.49.07,1.09.57,1.27,5.17,2.46,10.07,5.45,15.26,7.88,2.97,1.39,6.08,2.5,9.2,3.5,3.38,1.13,9.29,2.17,12.35,2.48,1,.1,2,.04,2.97-.2.84-.2,1.69-.39,2.57-.34,3.54.44,9.03,2.53,11.8,5.03.32.28,0,.8-.39.64-1.09-.43-3.83-1.59-5.27-1.6-1.42-.15-1.77,1.98-.38,2.29.65.09,3.71.98,4.61,1.26,2.4.46,1.95,1.34,1.34,1.43,0,0,0,0,0,0-2.02.19-3.99-.74-5.92-1.21-1.41-.31-2.02,1.71-.68,2.24,1.04.36,2.1.63,3.16.92.78.2,3.39.89,3.28,1.25s-2.65-.27-4.06-.51c-.63-.1-1.22.44-1.28,1.05-.06.58.34,1.12.9,1.26,1.1.26,2.22.45,3.35.54.06.18.17.37.33.55-2.1.48-4.3-.1-6.4-.34-2.81-.46-5.66-.78-8.4-1.56-1.96-.58-3.74-1.58-5.55-2.49-4.55-2.29-9.5-3.63-14.42-4.87-7.3-1.86-14.74-3.15-21.96-5.28ZM384.29,446.02c.02-.07.04-.14.05-.22.68-3.1,1.49-6.16,2.6-9.14.31-1.95,2.07-2.61,3.85-2.65,5.77-.19,11.54.69,17.15,1.99,1.72.51,3.76.64,5.1,1.94,2.57,3.67.57,8.54-.45,12.45-.34,1.08-.73,2.15-1.13,3.21-.85-1.32-2.32-2.41-3.47-3.25-4.24-2.44-9.78-5-14.56-2.81-.16-.12-6.33-.79-9.15-1.53ZM359.2,458.46c-.08-.65.02-2.8-.15-4.46,1.34.31,2.69.62,4.04.92-.77,1.53-1.49,3.08-2.26,4.61-.53,1.06-1.06,2.12-1.61,3.18.01-1.41.01-2.83-.02-4.24ZM341.9,638.58c-.24.42-.36,1-.5,1.46-.35.94-.74,1.86-1.3,2.7-.7-.94-.86-2.13-1.31-3.18-.31-.73-.75-1.43-1.33-1.97,1.39.42,2.93.74,4.45,1ZM334.9,636.58c.07.04.14.07.21.11,0,.01-.01.02-.02.03-.35.03-.7.1-1.04.19-.99.24-2,.43-3.02.51,1.22-.51,2.54-.7,3.86-.84ZM346.89,646.53c-2.04,5.65-3.95,6.25-9.77,5.91-5.76-.55-8.28-2.64-4.55-8.03.52-.96,2.46-2.86,3.67-4.66.27.41.44.9.61,1.31.57,1.53,1.15,3.67,2.95,4.09,2,.2,2.79-2.11,3.49-3.59.23-.74.84-1.86.69-2.68,2.07.28,3.97.46,5.24.64.72.07,1.4,0,2.04-.17-1.62,2.28-3.32,4.54-4.36,7.16ZM433.03,610.02c.01,1.28-1,2.3-1.75,3.25-.98,1.14-2.23,2.01-3.55,2.72.77-1.11,3.98-6.61,5.3-5.97ZM425.57,619.29c2.02,2,4.57,3.44,7.34,4.2,2.16,1.11,13.32.84,9.27,5.21-2.74,1.96-6.97,1.42-10.33,1.89-2.15.17-4.3.34-6.44.52-5.6.36-11.1,1.24-16.73.65-8.21-1.22-5.44-6.75-4.66-12.65.81.34,1.92.38,2.63.49,5.08.35,10.25-.26,15.09-1.86.65-.23,1.32-.43,1.96-.69.05.07.09.14.13.21-3.39.93-13.03,5.9-8.63,9.26,4.37,1.49,8.11-3.95,10.37-7.22ZM403.97,614.36c-.04-.21-.06-.42-.08-.63.5.15,1.01.25,1.52.31,4.7.28,9.35-.84,14.01-1.32.71-.09,1.42-.18,2.13-.27,0,.05.01.09.03.14.25.84.57,1.65.95,2.43-5.13,1.89-10.65,2.63-16.11,2.36-.51-.04-1.02-.09-1.53-.14-.22-.02-.47-.06-.7-.05.03-.94-.02-1.89-.22-2.81ZM422.05,620.27c-1.39,1.87-3.1,3.99-5.56,4.27-.05,0-.1,0-.15,0,.5-1.07,1.61-1.68,2.52-2.37,1.03-.69,2.1-1.32,3.2-1.9ZM420.2,510.78c-.24-.31-.63-.51-1.02-.48-.08,0-.15.03-.22.04.07-1.74-.3-3.62-.68-4.93-.31-1.13-.68-2.24-1.01-3.36-.24-.77-1.33-1.02-1.9-.47-.68-4.47-1.83,3.51-2.08,4.75-.16,2.37-.79,7.6,2.11,8.46,1.15-.04,1.96-.46,2.51-1.11.03.43.05.85.05,1.22-.04,2.27-.05,8.05-.09,10.32-.02,11.48-1.05,22.95-.83,34.42.08,7.39,1.75,14.62,4.67,21.39,2.28,5.63,3.53,11.61,3.71,17.69.13,3.17.22,6.29-.12,9.46-.12.44-.07,1.09-.5,1.34-1.05.27-2.14.32-3.21.48-3.45.43-6.9.9-10.35,1.35-3.26.38-7.18.98-9.63-1.77-1.15-1.34-1.23-3.24-1.51-4.92,2.09.38,4.89.27,5.86.41.65.01,1.19-.55,1.19-1.19-.13-1.75-2.35-1.06-3.53-1.29-1.19-.08-2.49-.19-3.75-.44-.27-3.29-.47-6.6-.78-9.89-.63-7.3-1.06-14.62-2.03-21.88-.42-2.91-1.07-5.81-2.33-8.48-1.17-2.23-2.48-4.41-3.07-6.89-.8-3.29-.67-6.71-.89-10.07-.29-5.88-.65-11.75-1.05-17.62-.05-.55-.08-1.11-.16-1.66,1.44-3.27,2.78-6.58,3.79-10.02.18-.63-.3-1.29-.9-1.42-.55-.12-1.2.19-1.38.75-1,3.26-2.23,6.43-3.61,9.54-.14.16-.24.36-.26.6-.03.06-.05.13-.08.19-2.68,5.95-5.47,11.87-7.43,18.1-1.63,4.99-2.82,10.12-3.74,15.28-2.75,16.04-2.75,32.55-7.62,48.2-1.19,3.9-2.44,7.98-4.56,11.53-1.86,3.3-4.09,2.41-7.19,3.23-.11.03-.23.07-.34.12-1.33-.6-3.75-.34-4.94-.39-1.17.03-1.63,1.64-.6,2.24,1.26.33,2.67.05,4,.23,0,.33.11.67.34.99.54.65,1.08,1.3,1.1,2.19.11.72-.09,1.42-.3,2.1-.37,1.2-.82,2.38-1.33,3.54-.67,1.41-1.43,2.88-2.74,3.8-1.49,1.14-3.45.5-5.14.33-1.13-.15-2.26-.3-3.38-.47-2-.34-4.03-.65-5.95-1.32-.05-.05-.11-.09-.18-.12-.21-.09-.43-.15-.65-.2-1.33-.56-2.43-1.38-2-2.96.58-3.24,1.45-6.43,2.22-9.64.92-3.68,1.93-7.35,2.63-11.08.65-3.63,1.07-7.29,1.61-10.93,1.44-9.91,3-19.79,4.44-29.7.52-3.55,1.34-7.01,1.45-10.59,0,0,0-.02,0-.03.12-1.87.23-3.74.33-5.62.71-9.07.56-18.13.73-27.22.17-6.35.87-12.7,2.33-18.89,1.95-8.32,5.2-16.33,6.99-24.75,1.12-5.24,1.69-10.58,1.91-15.93.14-.1.27-.23.36-.39.82-1.3,1.52-2.68,2.23-4.04.73-1.4,1.45-2.81,2.14-4.23.39-.81.78-1.62,1.15-2.44.11-.28.25-.57.36-.86,4.66,1.05,9.32,2.11,13.9,3.48,2.16.66,4.36,1.43,6.48,2.39,2.21,1.03,4.32,2.3,6.64,3.07,3.18,1.02,6.52,1.36,9.81,1.91,2.53.28,5.38,1.06,7.75-.18,1.17-.57,1.24-1.74.68-2.67,1.44-.63,1.74-2.21.5-3.47,1.02-.59,1.29-2.7,1.87-3.65,1.37-3.45,2.61-6.98,3.28-10.65,2.35-11.74-5.57-11.52-14.44-13.25-4.62-.42-11.66-2.06-15.62.75-1.15,1.14-1.43,2.84-1.99,4.31-.82,2.6-1.66,5.21-2.09,7.9,0,.01,0,.03,0,.04-.39-.12-.79-.24-1.18-.37-2.92-.91-5.78-1.95-8.57-3.17.53-.8,1.06-1.61,1.6-2.4,1.75-2.63,3.66-5.16,5.29-7.87,6.58-10.68,6.74-21.25,2.8-32.94-.41-1.03-1.11-2.73-1.87-4.01,1.78-.21,3.57-.32,5.37-.39.03.71.42,1.46.49,2.15,1.25,6.19,2.31,12.44,2.96,18.72.19,2.02.3,4.06.45,6.11-.03,1.72.67,3.37,2.2,4.25,3.64,2.09,8.01,2.43,12.07,3.19,4.11.6,8.17,1.37,12.27,2.08,4.34.73,9.46-12.42,9.73-16.05,1.07-.25,2.08-.75,3.02-1.38.27.62,1.1,1.09,1.37,1.75.08.15.15.31.22.46-.01.09-.03.18-.04.26-.08.5-.15,1-.24,1.5-.37,2.49-1.3,4.84-2.25,7.16-2.84,6.83-5.4,13.8-8.76,20.41-3.14,6.09-4.42,12.84-5.94,19.46-.39,1.59-.82,3.16-1.23,4.74-.28,1.23-.76,2.44-.75,3.71.14,1.93,1.17,3.66,2.08,5.33,1.04,1.82,2.21,3.58,3.36,5.34.04.05.08.1.13.14.05,2.65.17,5.3.41,7.95.04.37.21.63.44.81.96,2.99,3.05,6.74,3.52,7.73,1.26,3.51-.34,7.14-.86,10.73ZM415.92,512.3c-.76-2.27-.32-4.65-.15-7.04.47,1.89,1.57,5.45.15,7.04ZM417.51,459.66c-.31,6.51-.75,13.03-.83,19.55-1.44-2.22-3.27-5.13-3.16-6.94.67-2.89,1.54-5.72,2.19-8.61.63-2.68,1.17-5.39,1.86-8.05.02,1.36.01,2.71-.07,4.06ZM426.82,521.42c-.19-.07-.4-.1-.63-.04-.49-2.66-.39-5.39-.36-8.08-.05-.65.12-1.39.03-2.05.43-.59.8-1.11,1.08-1.44.19,2.08-.29,7.42-.12,11.6ZM433.51,453.48c-.47,7.51-1.48,39.05-1.85,50.52-.02-.01-.03-.02-.03-.02,0,0-.76,12.25-2.37,18.32-.18-4.68.11-9.41-.03-14.09,0-1.56-1.68-2.53-2.89-1.38-1.46,1.48-2.55,3.29-3.87,4.89.56-4.13,2.4-8.57.76-12.65-.7-1.5-1.62-2.89-2.28-4.41-.52-1.18-1.26-3.43-1.59-4.9-.19-3.41-.36-6.83-.33-10.25.02-9.64,1.37-19.27.72-28.92,1.12.21,2.53.16,3.27.22,3.58,0,7.22-.28,10.64-1.37-.06,1.36-.12,2.7-.15,4.04ZM430.5,423.98c.59-1.49,1.08-3.02,1.41-4.58,2.91,8.68,2.34,18.22,1.87,27.47-.93.33-1.87.62-2.84.84-1.06.23-2.18.39-3.3.51-2.02.19-4.05.28-6.07.21-.5,0-1-.06-1.51-.09.95-2.17,2.02-4.32,3.02-6.4,2.61-5.93,5.02-11.94,7.41-17.96ZM436.64,404.41c-.12.86-.2,1.73-.39,2.57-.02.21-.12.35-.27.44-.22-.12-.44-.25-.66-.39-.67-.51-1.31-1.08-1.82-1.76-.21-.37-.5-.72-.96-.77-.74-.1-1.36.59-1.25,1.31.23.78.82,1.55,1.54,2.2-.22.02-.43.04-.65.06-.39.03-.71.26-.9.57-.04-.01-.08-.03-.13-.03-.42-.24-.83-.49-1.23-.78-1.23-.9-2.23-2.08-3.1-3.32-.33-.51-.63-1.11-1.32-1.15-.54-.05-1.11.41-1.17.95.15,1.93,2.73,4.41,4.7,5.75-1.56,1.45-3.41,2.76-5.59,2.35-3.26-.55-8.11-10.33-9.25-13.49-.16-.65-.35-1.36-.2-2.03.53-.75.15-1.94-.85-1.96-3.2.9-1.01,5.94,1.05,9.69-2.18-.49-3.9-2.04-5.54-3.48-2.22-1.91-4.14-4.58-4.71-7.54,0-.19-.04-.37-.1-.54,3.82-1.11,7.01-3.35,9.11-7.88.21-.37.42-.73.63-1.09.53-.33,1.07-.66,1.63-.93.41-.19.83-.35,1.26-.51.49-.18.98-.36,1.47-.52.85-.28,1.72-.5,2.6-.68.42-.08.89-.16,1.37-.2.18,0,.35-.01.53,0,.14.01.28.03.42.06.28.06.57.13.85.2,0,0,.01,0,.02,0,.9,1.07,1.45,2.42,2.08,3.66,1.21,2.46,2.81,4.7,4.74,6.65,2.46,2.5,5.11,4.79,7.83,7.01-1.32.84-1.46,4.37-1.75,5.58ZM453.71,382.04c-.04.98-.15,1.95-.32,2.92-.13.74-.35,1.63-.61,2.5-.29.92-.65,1.81-1.05,2.69h0s-.02.04-.02.06l-.04.07c-.37.77-.82,1.58-1.33,2.36-.41.63-.95,1.36-1.53,2.05-.59.7-1.23,1.35-1.91,1.97-.28.25-.57.5-.87.74-.1.08-.21.17-.31.25-2.27-2.27-4.67-4.42-7-6.64-1.45-1.3-2.9-2.6-4.39-3.85-.47-.39-1.17-.38-1.59.1-.42.47-.35,1.16.1,1.59,4.88,4.38,9.84,8.75,14.23,13.63-3.42-2.15-6.48-4.84-9.58-7.41-2.55-2.23-5.13-4.47-7.22-7.14-2.05-2.46-2.85-5.78-4.99-8.23-2.45-2.42-5.76-3.61-8.78-5.11-.81-.5-1.58-1.21-1.83-2.16-.09-.3-.11-.64-.2-.94.06-.1.12-.2.18-.3.7-1.07,1.45-2.1,2.27-3.08h0s.05-.06.07-.09c.6-.69,1.3-1.42,2.05-2.1.64-.57,1.31-1.1,2-1.59.77-.53,1.57-1.02,2.4-1.45.79-.4,1.6-.76,2.43-1.07.83-.3,1.67-.54,2.53-.74.89-.19,1.78-.34,2.68-.43.9-.08,1.8-.1,2.69-.07.97.04,1.94.15,2.9.31.89.17,1.77.38,2.63.65.86.28,1.71.61,2.53.99.84.4,1.66.86,2.45,1.36.77.5,1.5,1.05,2.21,1.65.67.58,1.3,1.19,1.9,1.85.57.64,1.1,1.31,1.6,2.01.5.72.95,1.47,1.36,2.24.42.82.8,1.66,1.12,2.52.29.81.55,1.67.75,2.53.19.87.33,1.74.42,2.62.08.91.11,1.83.08,2.74Z"/><path class="uuid-ec637642-9ae7-4164-8efb-f98dcf70cf91" d="M419.58,383.36c-3.72.84-6.64,6.52-3.15,9.21.55.33,1.28.17,1.63-.39.35-.56.15-1.27-.38-1.63-.17-.1-.25-.29-.3-.47-.58-2.21,1.71-4.93,4-4.43.59.42-.04,1.22.43,1.74.48.7,1.56.57,1.95-.15,1.2-2.55-1.78-4.79-4.16-3.88Z"/><path class="uuid-ec637642-9ae7-4164-8efb-f98dcf70cf91" d="M428.42,395.37c-1.23,1.98,3,4.56,4.41,5.46,1.33.8,2.57-1.2,1.25-2.03-.48-.28-.95-.58-1.4-.9-.68-.49-1.34-1.03-1.89-1.67-.53-.89-1.41-1.87-2.37-.86Z"/><path class="uuid-ec637642-9ae7-4164-8efb-f98dcf70cf91" d="M362.3,483.98c-1.63-.91-1.87,1.13-1.7,2.28-.09,5.45-.79,11.1-2.56,16.35-.79,2.3-1.7,4.55-2.71,6.77-.27.59.07,1.32.65,1.56.6.26,1.31-.06,1.56-.65,1.31-2.8,2.43-5.7,3.32-8.66,1.17-3.94,1.7-8.03,2-12.12-.04-1.64.57-4.07-.56-5.52Z"/><path class="uuid-8c7ca3ab-9c00-43e5-b00e-70ab08c1e8ff" d="M188.76,207.04c2.29,11.09,9.03,45.51,9.03,45.51,0,0-42.73,7.02-38.45-4.39,2.15-8.25,8.21-34.15,9.94-42.51,1.38-3.22,17.79-8.09,19.47,1.4Z"/><path class="uuid-8c7ca3ab-9c00-43e5-b00e-70ab08c1e8ff" d="M224,361.08c-27.82,11.66-75.56,9.34-88.09-.86,1.93-11.22,11.31-52.47,11.31-52.47,0,0,32.13,8.42,63.04,1.23,3.85,3.04,4.35,19.2,13.74,52.1Z"/><path class="uuid-8c7ca3ab-9c00-43e5-b00e-70ab08c1e8ff" d="M281.26,458.5c5.56,11.01-16.96,19.19-16.96,19.19,0,0-36.72,31.08-49.81,27.02-23.41-3.94-83.64-8.62-133.56-16.07-8.44-3.41-9.76-11.11-3.47-15.81,33.3-15.26,41.05-14.05,43.02-47.67.48-2.57.73-11.87,4.8-7.38,33.69,12.39,72.72,12.23,105.62-.45,5.83-2.25,4.64,3.34,5.2,5.96,2.41,16.62,7.07,28.54,7.07,28.54,0,0,20.69-2.21,38.08,6.66Z"/><path class="uuid-07794925-a373-4e20-b010-35c198bd381c" d="M210.26,308.97s-38.4,6.2-63.37-2.57c6.45-29.77,12.97-53.01,12.97-53.01,0,0,18.65,3.59,38.97-1.08,3.43,15.74,11.44,56.66,11.44,56.66Z"/><path class="uuid-07794925-a373-4e20-b010-35c198bd381c" d="M234.74,414.98c-37.39,13.73-80.05,15.92-111.02.44,5.4-34.18,10.05-55.53,11.43-53.41,21.17,11.22,62.34,8.15,88.05,1.06,5.01,13.89,7.59,36.1,11.54,51.91Z"/><path class="uuid-ec637642-9ae7-4164-8efb-f98dcf70cf91" d="M282.62,458.04c-.19-.29-.4-.66-.63-1.02-2.54-5.73-23.67-5.65-28.24-5.84-2.75-.02-5.5,0-8.24,0-.47.05-.98-.02-1.49-.04-1.57-7.06-3.14-14.11-4.7-21.17-2.18-9.83-4.37-19.66-6.55-29.5-2.19-9.86-4.38-19.72-6.57-29.59-2.19-9.85-4.38-19.71-6.57-29.56-2.22-10.01-4.45-20.02-6.67-30.03-2.22-10-4.44-19.99-6.66-29.99-2.15-9.67-4.3-19.34-6.45-29.01-2-9-4-18-6.01-26.99-.92-4.1-1.84-8.2-2.8-12.3-.42-1.79-.85-3.58-1.3-5.36-.09-.34-.17-.68-.26-1.02.09-.1,1.27-2.62-5.28-4.82-2.33-.78-4.88-.74-7.29-.39-1.8.31-7.37,1.33-8.22,3.29-.03.04-.37.7-.45,1.04-.15.61-.29,1.22-.43,1.84-.33,1.46-.66,2.92-.98,4.38-1.29,5.81-2.58,11.62-3.87,17.43-1.68,7.58-3.36,15.16-5.04,22.74-1.98,8.95-3.97,17.9-5.96,26.85-1.79,8.09-3.59,16.18-5.38,24.27-1.97,8.91-3.95,17.82-5.93,26.73-2.08,9.36-4.15,18.72-6.23,28.08-2.18,9.86-4.37,19.72-6.56,29.58-2.17,9.78-4.34,19.56-6.51,29.33-2.13,9.61-4.26,19.22-6.39,28.83-.56,2.53-1.12,5.07-1.69,7.6,0,0,0,0,0,0-.64.08-1.17.54-1.73.83-5.13,3.07-10.46,5.82-15.86,8.37-5.95,2.81-12.02,5.43-17.69,8.8-1.95,1.3-4.36,2.41-5.52,4.54-.12.42-.17.81-.19,1.18-.13.5-.11,1.03-.1,1.54.04,2.16.38,4.34,1.25,6.34,1.16,2.95,3.72,4.61,6.77,5.12,0,0,.02,0,.03,0,5.84,1.71,13.96,1.97,17.03,2.57,8.76,1.05,17.44,1.67,26.22,2.62,15.95,1.96,31.94,3.53,47.89,5.49,15.35,1.85,30.53,5.31,46.01,5.92.66.06,1.3.1,1.93.1,7.37,0,12.77-4.23,18.63-8.51,9.47-6.98,19.39-13.29,29.4-19.46,2.8-1.78,5.58-3.6,8.37-5.41,2.16-1.63,5.08-2.82,6.8-4.96-.02-.09-.04-.17-.06-.26.56-.29.92-1.02,1.06-1.66.87-2.8.45-5.92-.85-8.52ZM187.02,205.32c-.92.53-1.96.79-3.01.92-3.78.41-7.58-.25-11.23-1.23,4.37-1.35,10.17-2.33,14.25.31ZM164.17,235.9c1.34-6.05,6.36-28.76,6.38-28.86,3.09,1.07,6.36,1.64,9.61,1.89,2.17.11,5.12.06,7.34-.93.26,1.36,2.29,11.06,3.05,14.55,1.95,8.89,3.93,17.78,5.9,26.67.14.65.29,1.3.43,1.94-.19.03-.37.07-.54.12-5.15.93-10.37,1.45-15.59,1.74-5.88.34-12.2.08-18.07-1.14-.56-.01-1.25-.27-1.95-.49,1.15-5.16,2.29-10.33,3.44-15.49ZM160.16,253.99c.13.03.25.06.36.09,3.61.89,7.31,1.37,11.01,1.6,8.67.38,17.39-.39,25.92-1.94,1.82,8.2,9.72,43.76,11.85,53.35-.17,0-.35.02-.53.09-2.11.81-4.27,1.35-6.54,1.77-7.32,1.4-14.77,1.29-22.24,1.25-8.08-.13-16.22-.14-24.17-1.73-2.1-.44-4.16-.98-6.19-1.68-.36-.1-.73-.28-1.1-.37,1.44-6.5,11.06-49.88,11.63-52.43ZM147.97,308.97s.1.03.15.04c6.93,2.58,14.37,3.29,21.71,3.58,13.29.15,27.16,1.49,39.92-2.97.04-.02.08-.04.12-.06,2.11,9.48,9.74,43.85,11.45,51.55-.24-.04-.48-.03-.72.06-.45.16-.9.31-1.35.46-.4.13-.8.25-1.2.37-3.87,1.14-7.83,2.01-11.79,2.75-2.85.52-5.88.95-8.93,1.29-4.53.51-9.06.89-13.61,1.15-1.4.08-2.97.14-4.54.18-4.54.1-9.09.12-13.62-.19-.29-.02-.59-.04-.88-.07-2.29-.18-4.57-.41-6.84-.79-2.1-.35-4.2-.72-6.29-1.15-1.89-.39-3.75-.85-5.6-1.39-1.79-.52-3.57-1.06-5.33-1.66-1.04-.36-2.06-.76-3.08-1.18-.33-.14-.66-.27-1-.38,1.59-7.18,11.24-50.68,11.44-51.57ZM135.97,363.07c.06.03.13.06.19.09.88.39,1.78.76,2.69,1.1,1.98.73,4.01,1.35,6.05,1.94,1.1.32,2.21.63,3.32.91,1.09.27,2.18.5,3.28.72,2.15.43,4.31.81,6.47,1.16,2.28.37,4.59.57,6.9.75,2.31.18,4.62.28,6.94.3.65,0,1.31,0,1.96,0,3.93,0,7.86-.11,11.78-.35,4.53-.28,9.05-.69,13.55-1.23,4.32-.52,8.59-1.28,12.84-2.21,1.94-.43,3.88-.9,5.8-1.44,1.29-.36,2.58-.75,3.84-1.21.1-.04.2-.09.28-.15.31,1.38.62,2.77.92,4.15,2.2,9.88,4.39,19.77,6.59,29.65,1.29,5.83,2.59,11.66,3.89,17.48-.1.03-.21.06-.31.12-2.64,1.56-5.55,2.57-8.46,3.5-14.93,4.33-30.89,5.71-46.41,6.4-16.24.6-33.17.15-48.12-7.01-1.47-.74-3.19-1.69-4.62-2.78-.23-.23-.49-.38-.75-.47,1.29-5.8,11.03-49.73,11.41-51.43ZM123.96,417.21c1.96,1.71,5.86,3.34,7.6,4.16,11.5,4.73,24.04,6.29,36.4,6.16,19.52-.15,39.41-1.4,58.21-6.97,2.11-.68,4.2-1.43,6.19-2.41.41-.22.97-.46,1.46-.75.72,3.23,9.94,44.79,10.86,48.9.02.09.04.17.07.25-.01.03-.03.07-.04.1-.1.22-.22.44-.35.65-.16.25-.34.49-.52.73-.28.34-.59.66-.91.96-.48.44-.98.85-1.51,1.23-.83.59-1.71,1.12-2.6,1.61,0,0-.01,0-.02.01-1.62.87-3.33,1.62-5.06,2.29-3.17,1.22-6.59,2.22-10.05,3.07-1.5.37-3.17.74-4.85,1.08-5.01,1.02-10.08,1.77-15.16,2.34-.1.01-.2.02-.31.03-.95.11-2.07.22-3.2.33-4.92.47-9.86.78-14.81.94-4.41.15-8.82.18-13.22.1-1.47-.03-2.94-.07-4.42-.12-4.13-.15-8.26-.41-12.38-.78-3.82-.35-7.63-.79-11.41-1.37-2.01-.31-4.02-.65-6.02-1.05-3.16-.62-6.3-1.35-9.4-2.25-.03,0-.06-.02-.08-.03-2.53-.75-5.02-1.61-7.43-2.69-1.19-.54-2.38-1.14-3.52-1.84,0,0,0,0,0,0-.7-.43-1.37-.9-2.01-1.42-.39-.33-.77-.67-1.12-1.04-.23-.25-.44-.51-.64-.78-.15-.21-.29-.43-.42-.66-.1-.19-.19-.38-.27-.57-.06-.18-.12-.35-.17-.53-.04-.16-.06-.32-.08-.48-.01-.16-.02-.32-.02-.48,0-.19.02-.38.05-.57.03-.18.07-.35.12-.52.08-.24,10.28-44.29,11.02-47.63ZM81.42,472.45c8.63-4.71,17.86-8.22,26.4-13.1,1.6-.89,3.19-1.79,4.72-2.79-.39,1.77-1.91,7.56-2.12,8.36-.28,1.07-.22,2.23.14,3.28.36,1.05.96,1.99,1.69,2.81,1.5,1.68,3.42,2.94,5.39,3.99,3.21,1.71,6.66,2.93,10.14,3.95.56.16,1.3.37,2.03.57,2.89.77,5.82,1.42,8.76,1.96,4.17.78,8.37,1.37,12.58,1.84,3.31.37,6.62.65,9.94.86,4.86.31,9.74.47,14.61.49.42,0,.84,0,1.26,0,3.77,0,7.55-.08,11.32-.25,5.21-.23,10.41-.63,15.6-1.21,3.98-.45,7.96-1,11.92-1.71,4.56-.81,9.09-1.81,13.53-3.14,3.7-1.1,7.36-2.43,10.76-4.27,1.12-.6,2.34-1.36,3.48-2.24,1.58-1.22,3.04-2.76,3.74-4.67.12-.32.1-.67-.03-.97.02-.13.02-.26,0-.39-.75-3.39-1.51-6.78-2.26-10.17-.14-.64-.28-1.28-.42-1.91,1.85.01,3.7,0,5.54,0,7.56.16,22.92-.19,29.21,4,.08.12.17.23.25.35-.81,2.67-4.08,3.62-6.13,5.26-5.9,3.89-11.87,7.67-17.88,11.38-6.64,4.08-13.04,8.52-19.35,13.08-3.76,2.56-7.29,5.57-11.45,7.48-5.6,2.5-12,1.12-17.91.74-11.27-1.24-22.78-3.42-34.1-4.9-23.03-2.77-46.07-5.47-69.17-7.64-5.77-.61-11.93-1.27-17.79-2.11-3.7-.71-8.18-.73-10.89-3.68-.89-1.56,5.09-4.34,6.49-5.29ZM274.93,470.78c-5.9,3.89-11.87,7.67-17.88,11.38-6.64,4.08-13.04,8.52-19.35,13.08-3.76,2.56-7.29,5.57-11.45,7.48-5.6,2.5-12,1.12-17.91.74-11.27-1.24-22.78-3.42-34.1-4.9-23.03-2.77-46.07-5.47-69.17-7.64-5.78-.61-11.93-1.27-17.79-2.11-1.97-.38-4.16-.56-6.19-1.1-.1-.05-.21-.1-.34-.14-.22-.05-.43-.11-.65-.16-.28-.1-.56-.2-.83-.31,0,.03,0,.06-.01.09-2.68-.76-3.8-3.32-4.25-5.94,5.36,3.12,16.94,3.33,20.74,4.08,8.76,1.05,17.44,1.67,26.22,2.62,15.95,1.96,31.94,3.53,47.89,5.49,15.35,1.85,30.53,5.31,46.01,5.92,8.38.82,14.19-3.77,20.56-8.42,9.47-6.98,19.39-13.29,29.4-19.46,2.8-1.78,5.58-3.6,8.37-5.41,2.15-1.62,5.05-2.81,6.77-4.94.39,1.48.45,3.04.02,4.54-.11.29-.23.58-.31.87-.03,0-.05,0-.08,0-1.22,1.94-3.91,2.84-5.68,4.26Z"/><path class="uuid-8c7ca3ab-9c00-43e5-b00e-70ab08c1e8ff" d="M839.29,394.2c2.68,12.98,10.57,53.26,10.57,53.26,0,0-50.01,8.22-45-5.14,2.52-9.66,9.61-39.97,11.64-49.75,1.61-3.77,20.82-9.47,22.79,1.63Z"/><path class="uuid-8c7ca3ab-9c00-43e5-b00e-70ab08c1e8ff" d="M880.53,574.47c-32.56,13.65-88.43,10.94-103.1-1.01,2.26-13.13,13.24-61.41,13.24-61.41,0,0,37.61,9.86,73.78,1.44,4.51,3.55,5.09,22.47,16.08,60.98Z"/><path class="uuid-8c7ca3ab-9c00-43e5-b00e-70ab08c1e8ff" d="M947.54,688.49c6.5,12.88-19.85,22.46-19.85,22.46,0,0-42.97,36.38-58.29,31.62-27.4-4.62-97.89-10.08-156.31-18.81-9.88-3.99-11.43-13-4.06-18.5,38.97-17.86,48.05-16.44,50.35-55.8.56-3,.85-13.89,5.62-8.64,39.43,14.5,85.1,14.31,123.61-.52,6.82-2.63,5.43,3.91,6.08,6.98,2.82,19.45,8.28,33.4,8.28,33.4,0,0,24.21-2.59,44.57,7.79Z"/><path class="uuid-07794925-a373-4e20-b010-35c198bd381c" d="M864.45,513.5s-44.94,7.26-74.17-3c7.55-34.85,15.17-62.04,15.17-62.04,0,0,21.83,4.21,45.61-1.26,4.01,18.42,13.38,66.31,13.38,66.31Z"/><path class="uuid-07794925-a373-4e20-b010-35c198bd381c" d="M893.09,637.56c-43.76,16.07-93.68,18.63-129.93.51,6.33-40,11.76-64.99,13.38-62.51,24.77,13.13,72.96,9.54,103.04,1.24,5.86,16.26,8.88,42.25,13.51,60.76Z"/><path class="uuid-ec637642-9ae7-4164-8efb-f98dcf70cf91" d="M949.13,687.96c-.22-.34-.47-.77-.74-1.19-2.97-6.7-27.7-6.62-33.05-6.84-3.22-.03-6.43,0-9.65,0-.55.06-1.15-.03-1.74-.04-1.84-8.26-3.67-16.52-5.5-24.78-2.55-11.51-5.11-23.01-7.67-34.52-2.56-11.54-5.13-23.08-7.69-34.63-2.56-11.53-5.13-23.06-7.69-34.59-2.6-11.72-5.21-23.43-7.81-35.15-2.6-11.7-5.2-23.4-7.8-35.09-2.51-11.32-5.03-22.63-7.54-33.95-2.34-10.53-4.68-21.06-7.04-31.59-1.08-4.8-2.15-9.6-3.28-14.39-.49-2.09-.99-4.18-1.53-6.27-.1-.4-.2-.79-.31-1.19.11-.12,1.48-3.07-6.18-5.65-2.72-.92-5.71-.87-8.53-.45-2.11.36-8.63,1.56-9.62,3.85-.03.04-.43.82-.53,1.21-.18.71-.33,1.43-.5,2.15-.39,1.71-.77,3.42-1.15,5.13-1.51,6.8-3.02,13.6-4.53,20.4-1.97,8.87-3.94,17.75-5.9,26.62-2.32,10.48-4.65,20.95-6.97,31.43-2.1,9.47-4.2,18.94-6.3,28.41-2.31,10.43-4.63,20.86-6.94,31.29-2.43,10.95-4.86,21.91-7.29,32.86-2.56,11.54-5.12,23.08-7.68,34.62-2.54,11.44-5.07,22.89-7.61,34.33-2.49,11.25-4.99,22.49-7.48,33.74-.66,2.96-1.31,5.93-1.97,8.89,0,0,0,0,0,0-.75.09-1.37.63-2.02.98-6,3.6-12.24,6.81-18.57,9.79-6.97,3.29-14.07,6.35-20.7,10.3-2.29,1.52-5.11,2.82-6.46,5.31-.14.49-.2.94-.22,1.38-.15.58-.12,1.2-.12,1.8.05,2.53.44,5.08,1.46,7.41,1.36,3.45,4.36,5.39,7.93,5.99.01,0,.02,0,.03,0,6.84,2,16.34,2.3,19.94,3.01,10.25,1.23,20.41,1.95,30.69,3.07,18.66,2.29,37.38,4.13,56.04,6.42,17.96,2.17,35.73,6.22,53.85,6.93.77.08,1.52.11,2.26.11,8.62,0,14.94-4.95,21.8-9.96,11.08-8.17,22.69-15.55,34.4-22.77,3.28-2.08,6.54-4.21,9.79-6.34,2.53-1.9,5.95-3.3,7.96-5.8-.03-.1-.05-.2-.08-.3.66-.34,1.08-1.19,1.24-1.94,1.02-3.28.53-6.93-1-9.97ZM837.25,392.19c-1.08.62-2.3.92-3.52,1.08-4.42.48-8.88-.29-13.15-1.44,5.12-1.57,11.9-2.73,16.67.36ZM810.51,427.98c1.57-7.08,7.44-33.66,7.47-33.78,3.61,1.25,7.44,1.91,11.24,2.21,2.54.13,5.99.07,8.59-1.09.3,1.59,2.67,12.95,3.57,17.03,2.28,10.41,4.6,20.81,6.91,31.22.17.76.34,1.52.51,2.28-.22.04-.43.08-.63.14-6.02,1.09-12.14,1.69-18.24,2.04-6.89.4-14.28.09-21.15-1.33-.65-.02-1.47-.32-2.28-.57,1.34-6.04,2.68-12.09,4.02-18.13ZM805.82,449.14c.15.04.29.07.43.1,4.22,1.04,8.55,1.6,12.89,1.87,10.14.45,20.36-.46,30.34-2.27,2.13,9.6,11.38,51.22,13.87,62.43-.2,0-.41.03-.62.11-2.47.95-5,1.58-7.65,2.08-8.57,1.63-17.29,1.52-26.03,1.47-9.45-.15-18.99-.16-28.29-2.02-2.46-.51-4.87-1.15-7.25-1.96-.42-.12-.85-.33-1.29-.43,1.69-7.6,12.95-58.38,13.61-61.36ZM791.55,513.5c.06.02.12.04.18.05,8.11,3.02,16.82,3.86,25.4,4.18,15.55.17,31.79,1.75,46.72-3.48.05-.02.09-.05.14-.07,2.46,11.1,11.4,51.32,13.4,60.33-.28-.05-.57-.03-.85.07-.52.19-1.05.37-1.58.54-.47.15-.93.29-1.4.43-4.53,1.33-9.16,2.36-13.8,3.21-3.34.61-6.89,1.11-10.45,1.51-5.3.59-10.61,1.04-15.93,1.34-1.64.09-3.47.17-5.31.21-5.32.12-10.63.14-15.94-.23-.34-.02-.69-.05-1.04-.08-2.68-.21-5.35-.48-8-.92-2.46-.41-4.92-.85-7.36-1.34-2.21-.45-4.39-1-6.56-1.63-2.09-.6-4.18-1.24-6.24-1.94-1.22-.42-2.41-.89-3.6-1.38-.39-.16-.78-.31-1.17-.45,1.87-8.41,13.15-59.31,13.39-60.36ZM777.51,576.81c.07.03.15.07.22.1,1.04.46,2.08.89,3.15,1.28,2.32.86,4.7,1.58,7.07,2.27,1.29.38,2.58.74,3.89,1.06,1.27.31,2.55.58,3.83.84,2.51.5,5.04.95,7.57,1.36,2.67.43,5.37.67,8.07.88,2.7.21,5.41.33,8.12.35.77,0,1.53.01,2.3.01,4.6,0,9.19-.13,13.78-.41,5.3-.33,10.59-.8,15.86-1.43,5.05-.6,10.06-1.49,15.03-2.59,2.28-.5,4.54-1.05,6.78-1.68,1.51-.43,3.02-.88,4.5-1.41.12-.04.23-.11.33-.18.36,1.62.72,3.24,1.08,4.85,2.57,11.57,5.14,23.14,7.71,34.7,1.52,6.82,3.03,13.64,4.55,20.46-.12.03-.24.07-.36.14-3.09,1.83-6.5,3-9.9,4.1-17.47,5.07-36.15,6.68-54.32,7.49-19.01.7-38.82.17-56.32-8.2-1.72-.87-3.73-1.97-5.41-3.25-.26-.27-.57-.45-.88-.54,1.51-6.79,12.91-58.2,13.35-60.19ZM763.45,640.17c2.3,2,6.86,3.91,8.89,4.87,13.46,5.54,28.13,7.36,42.6,7.21,22.85-.18,46.12-1.64,68.13-8.16,2.47-.8,4.91-1.68,7.24-2.82.48-.26,1.14-.54,1.71-.88.84,3.78,11.63,52.42,12.71,57.23.02.1.05.2.09.29-.02.04-.03.08-.05.12-.12.26-.26.51-.41.76-.19.29-.39.58-.61.85-.33.4-.69.77-1.06,1.13-.56.52-1.15.99-1.76,1.44-.97.69-2,1.32-3.05,1.89,0,0-.02,0-.03.01-1.9,1.02-3.9,1.9-5.93,2.68-3.71,1.42-7.71,2.59-11.76,3.59-1.75.43-3.71.86-5.68,1.26-5.87,1.19-11.79,2.07-17.74,2.74-.11.01-.24.03-.36.04-1.11.12-2.43.26-3.74.39-5.76.55-11.54.91-17.33,1.1-5.16.17-10.32.21-15.47.12-1.71-.03-3.44-.08-5.17-.14-4.84-.18-9.67-.48-14.49-.91-4.47-.4-8.92-.93-13.36-1.61-2.36-.36-4.71-.77-7.05-1.22-3.7-.73-7.38-1.58-11-2.63-.03,0-.07-.02-.1-.03-2.96-.88-5.88-1.89-8.7-3.14-1.39-.63-2.78-1.34-4.12-2.15,0,0,0,0,0,0-.81-.51-1.6-1.05-2.35-1.66-.46-.38-.9-.79-1.31-1.22-.27-.29-.52-.6-.75-.91-.17-.25-.34-.5-.49-.77-.12-.22-.22-.44-.31-.67-.07-.21-.14-.41-.2-.62-.04-.19-.07-.37-.1-.56-.02-.19-.02-.38-.02-.57,0-.22.03-.44.06-.66.04-.21.08-.41.14-.61.09-.28,12.03-51.83,12.9-55.75ZM713.66,704.82c10.1-5.51,20.9-9.63,30.9-15.33,1.87-1.04,3.73-2.1,5.53-3.27-.46,2.07-2.23,8.85-2.48,9.79-.33,1.26-.26,2.62.17,3.84.42,1.22,1.12,2.33,1.98,3.29,1.75,1.96,4,3.44,6.31,4.67,3.75,2,7.8,3.43,11.87,4.63.66.19,1.52.44,2.38.67,3.38.91,6.81,1.66,10.26,2.3,4.88.91,9.8,1.61,14.73,2.15,3.87.43,7.75.76,11.63,1,5.69.36,11.4.55,17.1.57.49,0,.98,0,1.47,0,4.42,0,8.83-.1,13.24-.29,6.1-.27,12.19-.73,18.25-1.41,4.66-.52,9.32-1.17,13.95-2,5.33-.95,10.64-2.12,15.83-3.67,4.33-1.29,8.62-2.84,12.59-4.99,1.31-.71,2.74-1.59,4.08-2.62,1.85-1.43,3.56-3.23,4.38-5.46.14-.38.11-.78-.04-1.13.02-.15.02-.3,0-.46-.87-3.97-1.77-7.94-2.65-11.9-.17-.75-.33-1.49-.5-2.24,2.16.02,4.32,0,6.49,0,8.85.19,26.82-.22,34.18,4.69.09.14.19.27.29.41-.95,3.13-4.78,4.24-7.17,6.16-6.91,4.55-13.89,8.98-20.93,13.31-7.77,4.78-15.26,9.97-22.65,15.3-4.4,3-8.53,6.52-13.4,8.75-6.55,2.93-14.04,1.31-20.96.86-13.19-1.45-26.66-4-39.91-5.74-26.95-3.24-53.92-6.41-80.95-8.94-6.76-.71-13.97-1.49-20.82-2.47-4.32-.83-9.57-.86-12.74-4.31-1.04-1.82,5.95-5.08,7.59-6.19ZM940.14,702.87c-6.91,4.55-13.89,8.98-20.93,13.32-7.77,4.78-15.26,9.98-22.65,15.3-4.4,3-8.53,6.52-13.4,8.75-6.55,2.93-14.04,1.31-20.96.86-13.19-1.45-26.66-4-39.91-5.74-26.95-3.24-53.92-6.41-80.95-8.94-6.76-.71-13.97-1.49-20.82-2.47-2.31-.44-4.87-.66-7.25-1.29-.12-.06-.25-.12-.4-.16-.26-.05-.51-.13-.76-.19-.33-.11-.65-.23-.97-.36,0,.03,0,.07-.01.1-3.14-.89-4.45-3.89-4.98-6.95,6.28,3.65,19.82,3.9,24.28,4.77,10.25,1.23,20.41,1.95,30.69,3.07,18.66,2.29,37.38,4.13,56.04,6.42,17.96,2.17,35.73,6.22,53.85,6.93,9.8.96,16.61-4.41,24.06-9.85,11.08-8.17,22.69-15.55,34.4-22.77,3.28-2.08,6.54-4.21,9.79-6.34,2.51-1.9,5.91-3.29,7.93-5.78.46,1.73.52,3.56.03,5.32-.13.34-.27.68-.36,1.01-.03,0-.06,0-.09,0-1.43,2.27-4.57,3.32-6.65,4.98Z"/></svg>