<svg width="40" height="40" viewBox="0 0 40 40" fill="none" xmlns="http://www.w3.org/2000/svg">
    <path fill-rule="evenodd" clip-rule="evenodd" d="M36.5 9C36.2243 9 36 8.7757 36 8.5C36 8.22428 36.2243 8 36.5 8C36.7757 8 37 8.22428 37 8.5C37 8.7757 36.7757 9 36.5 9Z" fill="#EAF5FF"/>
    <path fill-rule="evenodd" clip-rule="evenodd" d="M3.5 9C3.2243 9 3 8.7757 3 8.5C3 8.22428 3.2243 8 3.5 8C3.7757 8 4 8.22428 4 8.5C4 8.7757 3.7757 9 3.5 9Z" fill="#EAF5FF"/>
    <path fill-rule="evenodd" clip-rule="evenodd" d="M5.5 34C5.2243 34 5 33.7757 5 33.5C5 33.2243 5.2243 33 5.5 33C5.7757 33 6 33.2243 6 33.5C6 33.7757 5.7757 34 5.5 34Z" fill="#EAF5FF"/>
    <path fill-rule="evenodd" clip-rule="evenodd" d="M32.5 36C32.2243 36 32 35.7757 32 35.5C32 35.2243 32.2243 35 32.5 35C32.7757 35 33 35.2243 33 35.5C33 35.7757 32.7757 36 32.5 36Z" fill="#EAF5FF"/>
    <path fill-rule="evenodd" clip-rule="evenodd" d="M9.5 3C9.2243 3 9 2.7757 9 2.5C9 2.22428 9.2243 2 9.5 2C9.7757 2 10 2.22428 10 2.5C10 2.7757 9.7757 3 9.5 3Z" fill="#EAF5FF"/>
    <path fill-rule="evenodd" clip-rule="evenodd" d="M27.5 39C27.2243 39 27 38.7757 27 38.5C27 38.2243 27.2243 38 27.5 38C27.7757 38 28 38.2243 28 38.5C28 38.7757 27.7757 39 27.5 39Z" fill="#EAF5FF"/>
    <path fill-rule="evenodd" clip-rule="evenodd" d="M27.5451 21.0195C27.2901 21.0195 27.0751 20.8295 27.0451 20.5745V13.7945C27.0451 13.4245 26.8151 13.1745 26.6051 13.1545H13.4301C13.1951 13.1545 12.9851 13.4195 12.9651 13.7445V16.7395H15.0851C15.3651 16.7395 15.5901 16.9695 15.5901 17.2445C15.5901 17.4995 15.4001 17.7145 15.1451 17.7445H12.9651V19.3645H14.8201C15.4351 19.3995 15.9151 19.9045 15.9151 20.5195V22.6395H27.3851C27.6651 22.6395 27.8901 22.8645 27.8901 23.1445C27.8901 23.4245 27.6601 23.6495 27.3851 23.6495H13.4301C12.6401 23.6495 11.9951 22.9595 11.9551 22.0795V13.7945C11.9551 12.9145 12.5651 12.1895 13.3501 12.1445H13.9301C13.9201 12.0945 13.9201 12.0395 13.9201 11.9895V11.3345C13.9201 10.8845 14.1801 10.4795 14.5751 10.2895V9.09953C14.5751 6.25453 16.9401 4.26953 20.3251 4.26953C23.7101 4.26953 26.0751 6.25453 26.0751 9.09953C26.0751 9.37953 25.8501 9.60453 25.5701 9.60453C25.2901 9.60453 25.0651 9.37453 25.0651 9.09953C25.0651 6.84453 23.1051 5.27453 20.3201 5.27453C17.5351 5.27453 15.6301 6.77453 15.5751 9.00453V10.1745H16.7101C17.3501 10.1745 17.8701 10.6945 17.8701 11.3345V11.9895C17.8701 12.0445 17.8651 12.0945 17.8601 12.1445H22.7801C22.7701 12.0945 22.7701 12.0395 22.7701 11.9895V11.3345C22.7701 10.8845 23.0301 10.4945 23.4051 10.3045V9.57953C23.3701 8.07453 22.0701 7.06453 20.1701 7.06453C18.8501 7.06453 17.4401 7.56953 17.4401 8.98953C17.4401 9.25453 17.2251 9.46953 16.9601 9.46953C16.6951 9.46953 16.4801 9.25453 16.4801 8.98953C16.4801 7.17953 17.8601 6.09953 20.1751 6.09953C22.6501 6.09953 24.3751 7.55953 24.3751 9.64453V10.1745H25.5751C26.2151 10.1745 26.7351 10.6945 26.7351 11.3345V11.9895C26.7351 12.0403 26.7308 12.0867 26.7262 12.1368L26.7251 12.1495C27.4451 12.2295 28.0151 12.8845 28.0501 13.7095V20.5145C28.0501 20.7945 27.8201 21.0195 27.5451 21.0195ZM14.9051 20.5145C14.8951 20.4195 14.8301 20.3595 14.7501 20.3595V20.3645H12.9551V21.9945C12.9551 22.3645 13.1851 22.6145 13.3951 22.6345H14.9051V20.5145ZM16.7201 12.1395C16.8051 12.1395 16.8751 12.0695 16.8751 11.9845V11.3295C16.8751 11.2445 16.8051 11.1745 16.7201 11.1745H15.0801C14.9951 11.1745 14.9251 11.2445 14.9251 11.3295V11.9845C14.9251 12.0695 14.9951 12.1395 15.0801 12.1395H16.7201ZM25.5751 12.1395C25.6601 12.1395 25.7301 12.0695 25.7301 11.9845V11.3295C25.7301 11.2445 25.6601 11.1745 25.5751 11.1745H23.9351C23.8501 11.1745 23.7801 11.2445 23.7801 11.3295V11.9845C23.7801 12.0695 23.8501 12.1395 23.9351 12.1395H25.5751Z" fill="#0079D0"/>
    <path fill-rule="evenodd" clip-rule="evenodd" d="M21.4901 19.8595C21.4901 20.4995 20.9701 21.0195 20.3301 21.0195C19.6901 21.0195 19.1701 20.4995 19.1701 19.8595V18.7095C18.5601 18.3145 18.1851 17.6345 18.1851 16.9045C18.1851 15.7195 19.1451 14.7595 20.3301 14.7595C21.5151 14.7595 22.4751 15.7245 22.4751 16.9045C22.4751 17.6345 22.1001 18.3145 21.4901 18.7095V19.8595ZM20.3101 20.0095C20.4101 20.0095 20.4801 19.9445 20.4801 19.8595V19.0495H20.1751V19.8595C20.1751 19.9345 20.2351 19.9995 20.3101 20.0095ZM21.4651 16.9045C21.4651 16.2795 20.9551 15.7695 20.3301 15.7695C19.7051 15.7695 19.1951 16.2795 19.1951 16.9045C19.1951 17.5295 19.7051 18.0395 20.3301 18.0395C20.9551 18.0395 21.4651 17.5295 21.4651 16.9045Z" fill="#0079D0"/>
    <path fill-rule="evenodd" clip-rule="evenodd" d="M31.5 8.55957C32.845 8.55957 33.945 9.61957 34 10.9496V28.0596C34 29.4046 32.94 30.4996 31.61 30.5596H22.01C22.08 32.6346 22.605 33.5596 23.5 33.5596H24.5C24.775 33.5596 25 33.7846 25 34.0596C25 34.3146 24.81 34.5296 24.56 34.5596H15.5C15.225 34.5596 15 34.3346 15 34.0596C15 33.8046 15.19 33.5896 15.44 33.5596H16.5C17.39 33.5596 17.92 32.6346 17.99 30.5596H15.5C15.225 30.5596 15 30.3346 15 30.0596C15 29.8046 15.19 29.5896 15.44 29.5596H31.5C32.3 29.5596 32.95 28.9346 33 28.1496V11.0596C33 10.2596 32.375 9.60957 31.59 9.55957H29.5C29.225 9.55957 29 9.33457 29 9.05957C29 8.80457 29.19 8.58957 29.44 8.55957H31.5ZM21.005 30.5546H18.985C18.94 31.8696 18.715 32.8796 18.29 33.5546H21.7C21.28 32.8796 21.05 31.8696 21.005 30.5546Z" fill="#2F3A43"/>
    <path d="M11.415 8.56457C11.69 8.56457 11.915 8.78957 11.915 9.06457C11.915 9.31957 11.725 9.52957 11.475 9.55957H8.5C7.7 9.55957 7.05 10.1846 7 10.9696V28.0646C7 28.8646 7.625 29.5146 8.41 29.5646H11.5C11.775 29.5646 12 29.7896 12 30.0646C12 30.3196 11.81 30.5346 11.56 30.5646H8.5C7.155 30.5646 6.06 29.5046 6 28.1746V11.0646C6 9.71957 7.06 8.61957 8.39 8.56457H11.415Z" fill="#2F3A43"/>
    <path d="M30.5 25.5546C30.775 25.5546 31 25.7796 31 26.0546C31 26.3096 30.805 26.5246 30.56 26.5496H9.5C9.225 26.5496 9 26.3246 9 26.0496C9 25.7946 9.195 25.5796 9.44 25.5546H30.5Z" fill="#2F3A43"/>
    <path d="M20.5 27.5546C20.775 27.5546 21 27.7796 21 28.0546C21 28.3096 20.81 28.5246 20.56 28.5546H19.5C19.225 28.5546 19 28.3296 19 28.0546C19 27.7996 19.19 27.5846 19.44 27.5546H20.5Z" fill="#2F3A43"/>
</svg>
