<svg width="398" height="203" viewBox="0 0 398 203" fill="none" xmlns="http://www.w3.org/2000/svg">
    <path d="M395.651 102.865C405.218 132.753 381.297 153.762 357.936 158.583C330.241 164.3 300.796 157.867 273.433 167.205C244.024 176.375 221.234 199.188 188.282 202.165C140.979 206.44 113.377 191.769 72.5531 176.813C40.7648 168.497 -4.03526 172.044 0.507261 124.877C4.52295 83.1733 63.6179 81.1231 95.2892 60.1276C126.972 39.1227 158.77 7.77064 201.226 6.83149C242.509 5.91823 268.713 39.4805 301.136 58.4306C332.229 74.3561 377.771 66.6052 395.648 102.865H395.651Z" fill="#EAF5FF"/>
    <path d="M249.117 47.3869C249.503 64.3339 248.745 111.468 248.745 111.468C200.353 112.063 91.5334 111.654 91.5334 111.654C92.5262 89.5615 91.6622 63.4772 91.7535 39.7631C91.7582 38.3461 93.971 36.143 95.3805 36.143C98.2231 36.143 212.772 35.5851 245.146 35.6628C249.538 35.6722 249.026 43.4537 249.117 47.3869Z" fill="#0079D0"/>
    <path d="M151.169 136.232C151.031 136.213 151.092 136.291 151.146 136.368C151.155 136.324 151.162 136.276 151.169 136.232ZM177.708 134.636C184.004 134.539 166.752 134.384 156.939 134.391C156.379 134.391 156.353 135.234 156.913 135.262C163.364 135.596 171.313 134.135 177.671 134.636C177.682 134.636 177.696 134.636 177.708 134.636ZM248.888 111.837C249.084 111.861 249.239 112.012 249.267 112.209C250.15 118.753 249.379 132.616 247.642 133.009C231.668 136.625 201.341 134.622 188.659 134.841C188.395 134.845 188.198 135.083 188.238 135.347C188.633 137.893 189.72 149.024 192.462 151.548C193.26 152.282 195.976 152.277 198.44 152.233C199.24 152.218 200.072 154.382 198.997 154.365C185.854 154.139 168.864 154.365 154.984 154.365C151.094 154.365 134.732 155.629 141.152 152.19C141.185 152.171 141.223 152.157 141.258 152.148C143.983 151.456 148.767 153.433 149.289 149.321C149.294 149.293 149.301 149.262 149.31 149.234C151.282 143.898 151.19 137.194 150.797 135.151C150.755 134.937 150.565 134.787 150.347 134.796C144.606 135.074 104.969 135.46 96.7527 135.194C96.6262 135.189 91.7489 131.753 91.7489 131.625C91.496 109.896 90.7795 111.795 91.5334 111.659C91.5475 111.659 241.947 111.042 248.888 111.84V111.837Z" fill="#A8A7B6"/>
    <path d="M117.51 35.5897C117.452 35.5827 117.388 35.5709 117.33 35.5568C117.318 35.5544 117.306 35.5497 117.297 35.5474C117.721 35.5544 118.145 35.5591 118.569 35.5638C118.295 35.5638 118.021 35.5685 117.749 35.5827C117.693 35.5874 117.639 35.5921 117.583 35.5921C117.559 35.5921 117.534 35.5921 117.51 35.5897Z" fill="black"/>
    <path d="M115.311 35.5144C115.707 35.5215 116.1 35.5285 116.496 35.5356C116.44 35.5379 116.384 35.5403 116.328 35.5426C116.213 35.5379 116.093 35.5474 115.974 35.5568C115.876 35.5638 115.777 35.5732 115.679 35.5732C115.553 35.5732 115.428 35.5591 115.314 35.5144H115.311Z" fill="black"/>
    <path d="M169.222 126.835C168.906 126.793 168.59 126.69 168.295 126.569C167.686 126.318 167.178 125.885 166.792 125.355C166.6 125.091 166.433 124.799 166.323 124.491C166.197 124.14 166.127 123.769 166.108 123.397C166.089 123.001 166.159 122.603 166.284 122.229C166.422 121.81 166.623 121.417 166.909 121.081C167.45 120.45 168.176 119.998 168.99 119.833C169.775 119.675 170.618 119.767 171.346 120.101C172.02 120.41 172.575 120.963 172.919 121.622C173.125 122.015 173.264 122.441 173.329 122.881C173.392 123.317 173.36 123.769 173.261 124.197C173.17 124.595 173.008 124.983 172.781 125.322C172.58 125.623 172.332 125.882 172.041 126.099C171.847 126.242 171.629 126.358 171.409 126.454C171.33 126.489 171.248 126.52 171.163 126.546C170.896 126.668 170.613 126.751 170.325 126.807C170.107 126.847 169.885 126.871 169.665 126.871C169.515 126.871 169.367 126.861 169.22 126.84L169.222 126.835ZM170.067 126.056C170.166 126.047 170.264 126.035 170.36 126.016C170.484 125.988 170.608 125.953 170.728 125.913C170.772 125.896 170.817 125.88 170.859 125.861C170.903 125.833 170.948 125.805 170.992 125.776C171.095 125.706 171.194 125.63 171.287 125.55C171.383 125.461 171.477 125.369 171.564 125.27C171.664 125.153 171.76 125.03 171.849 124.903C171.917 124.797 171.983 124.691 172.041 124.581C172.093 124.475 172.14 124.369 172.18 124.26C172.215 124.152 172.245 124.042 172.271 123.931C172.294 123.813 172.308 123.696 172.318 123.576C172.322 123.47 172.32 123.364 172.315 123.258C172.304 123.133 172.287 123.008 172.266 122.886C172.245 122.794 172.222 122.702 172.194 122.613C172.158 122.514 172.119 122.417 172.072 122.321C172.023 122.224 171.969 122.13 171.91 122.041C171.852 121.956 171.791 121.874 171.723 121.796C171.655 121.721 171.582 121.648 171.507 121.577C171.407 121.49 171.304 121.408 171.196 121.332C171.088 121.262 170.978 121.198 170.866 121.137C170.758 121.085 170.651 121.038 170.538 120.996C170.444 120.965 170.353 120.939 170.257 120.918C170.154 120.899 170.051 120.885 169.946 120.876C169.854 120.871 169.763 120.873 169.669 120.876C169.569 120.885 169.47 120.897 169.372 120.916C169.264 120.939 169.159 120.97 169.054 121.005C168.951 121.043 168.85 121.085 168.752 121.132C168.656 121.182 168.562 121.236 168.473 121.295C168.391 121.354 168.311 121.415 168.234 121.478C168.159 121.547 168.087 121.62 168.016 121.695C167.946 121.777 167.88 121.862 167.817 121.951C167.747 122.06 167.681 122.168 167.623 122.281C167.569 122.394 167.518 122.509 167.475 122.627C167.45 122.705 167.429 122.782 167.412 122.862C167.382 123.036 167.358 123.211 167.344 123.387C167.34 123.488 167.337 123.59 167.342 123.691C167.351 123.806 167.368 123.919 167.389 124.034C167.417 124.166 167.452 124.298 167.494 124.428C167.527 124.519 167.564 124.606 167.607 124.696C167.649 124.778 167.696 124.858 167.745 124.938C167.801 125.021 167.862 125.101 167.927 125.178C168.005 125.263 168.087 125.346 168.171 125.421C168.265 125.503 168.363 125.579 168.466 125.649C168.555 125.708 168.646 125.762 168.742 125.812C168.824 125.852 168.908 125.887 168.993 125.917C169.096 125.95 169.196 125.979 169.302 126C169.438 126.026 169.573 126.047 169.712 126.059C169.831 126.066 169.948 126.068 170.067 126.059V126.056Z" fill="black"/>
    <path d="M171.262 51.7648C169.164 33.4573 175.266 50.788 182.131 45.1908C180.522 48.2389 180.291 50.3596 179.309 51.0963C176.785 52.9864 174.008 48.8203 171.262 51.7672V51.7648Z" fill="#EAF5FF"/>
    <path d="M185.091 96.0437C187.98 104.023 155.309 102.735 155.993 95.8507C156.342 92.3224 159.62 63.8466 160.657 56.1428L164.633 56.2464C164.839 57.282 164.343 59.9465 164.464 61.0268C164.464 61.0268 167.86 61.4105 168.063 60.782C168.583 59.1909 168.733 55.9498 168.733 55.9498C171.201 55.2484 173.102 55.9827 173.102 55.9827L173.334 60.6502C173.987 61.5352 176.022 61.3258 177.49 60.6173L177.677 55.9098L181.611 55.5026C182.36 59.2144 185.149 87.1818 185.093 96.0437H185.091Z" fill="#ADDDFF"/>
    <path d="M184.133 44.3128C184.091 44.214 183.974 44.1669 183.875 44.2069C183.751 44.2563 183.632 44.3152 183.51 44.374C183.452 44.3505 183.384 44.3411 183.309 44.3505C180.167 44.8919 179.708 47.6363 176.355 45.0213C175.05 44.1622 173.84 42.8158 172.159 42.8723C171.739 42.8817 171.309 43.0347 171.025 43.3549C170.779 43.2748 170.475 43.4537 170.482 43.7432C170.412 45.7604 170.536 47.7823 170.66 49.7971C170.742 51.2658 170.798 52.7369 170.843 54.208C170.887 54.6976 170.812 55.2319 170.981 55.6956C171.369 56.0251 171.309 55.0271 171.337 54.8082C171.36 54.3092 171.372 53.8102 171.377 53.3089C171.409 51.0752 171.276 48.8462 171.245 46.6148C171.243 45.8946 171.241 45.1743 171.262 44.4564C171.241 44.2022 171.346 43.8962 171.28 43.6467C171.779 43.4137 172.346 43.449 172.854 43.6349C173.718 43.9245 174.392 44.5647 175.097 45.1202C175.987 45.8051 176.884 46.5513 177.965 46.9043C179.26 47.3256 180.433 46.6336 181.534 46.0028C181.059 46.6713 180.721 47.4527 180.52 48.2389C180.209 49.6841 180.216 50.1572 178.832 50.9175C176.582 52.0802 175.549 49.8418 173.552 50.1737C172.896 50.282 172.201 50.555 171.796 51.1105C171.711 51.2329 171.634 51.3647 171.613 51.513C171.59 51.6518 171.768 51.7507 171.871 51.6613C172.219 51.2635 172.695 51.0422 173.208 50.941C173.617 50.8657 174.046 50.8304 174.439 50.9881C175.057 51.2023 175.57 51.6283 176.177 51.8613C176.614 52.0332 177.085 52.1085 177.553 52.1344C178.666 52.1461 179.665 51.4518 180.37 50.6397C180.883 49.9901 180.909 49.1215 181.068 48.3425C181.22 47.6034 181.515 46.8949 181.93 46.2641C182.138 45.944 182.393 45.6639 182.677 45.4144C182.932 45.3132 183.194 45.2237 183.466 45.1484C183.695 45.0825 183.779 44.8824 183.754 44.6988C183.843 44.6541 183.932 44.6118 184.023 44.5717C184.121 44.527 184.17 44.414 184.128 44.3105L184.133 44.3128Z" fill="black"/>
    <path d="M181.761 56.3805C181.529 56.3264 181.478 56.0581 181.351 55.8886C181.03 55.5026 181.721 55.1942 181.81 55.7709C181.864 55.745 181.923 55.8086 181.871 55.8509C181.871 55.9827 181.937 56.1004 181.955 56.2275C181.953 56.324 181.855 56.4041 181.761 56.3829V56.3805Z" fill="black"/>
    <path d="M185.66 95.4224C185.33 82.5402 183.967 69.6934 182.461 56.8984C182.222 55.4461 181.962 54.7188 180.328 55.0766C175.423 55.3332 177.769 57.0185 176.966 60.5985C176.912 60.6056 176.858 60.6244 176.811 60.6621C175.868 60.6997 174.484 61.1799 173.725 60.4832C173.564 59.0097 173.901 57.6681 173.704 56.1923C173.615 55.2178 172.896 55.2249 172.477 55.279C166.115 55.0248 168.827 56.2323 167.551 60.7115C166.689 60.735 165.827 60.6385 164.97 60.5773C165.047 59.1109 165.263 57.468 164.989 55.9875C164.663 55.2178 163.329 55.6956 162.661 55.6674C162.083 55.8557 160.219 55.3802 160.161 56.164C158.456 68.3518 156.712 80.5443 155.695 92.8238C152.413 104.324 175.931 101.952 182.272 100.478C184.025 100.071 183.925 99.8192 184.775 99.2943C186.14 98.454 185.538 96.6934 185.662 95.4153L185.66 95.4224ZM184.524 98.4446C179.602 101.686 159.955 102.083 156.452 96.844C156.37 96.7216 156.337 96.5733 156.346 96.4274C157.185 83.1781 159.182 70.023 160.61 56.8372C160.634 56.6183 160.826 56.463 161.046 56.4771C161.987 56.5406 162.905 56.4912 163.844 56.4488C164.064 56.4394 164.254 56.6065 164.268 56.8278C164.35 58.2259 163.727 59.7841 164.237 61.0905C164.282 61.2058 164.382 61.2882 164.502 61.3211C165.464 61.5942 167.138 61.7801 168.019 61.42C168.075 61.3964 168.127 61.3611 168.164 61.3117C168.766 60.5491 169.058 57.7999 168.892 56.5995C168.864 56.3876 169.005 56.1923 169.211 56.1499C170.351 55.9122 171.62 56.0063 172.784 56.0205C172.847 56.0205 172.908 56.0369 172.962 56.0675C172.987 56.0817 173.016 56.0911 173.044 56.0981C172.976 60.3278 171.875 62.3238 177.19 61.3517C177.289 61.3329 177.383 61.2811 177.441 61.2011C178.401 59.8971 177.539 57.8611 177.893 56.3571C178.087 55.665 179.89 55.9028 180.839 55.891C181.038 55.8887 181.211 56.0275 181.248 56.2229C183.801 69.9359 184.409 84.1643 184.702 98.1033C184.704 98.2398 184.641 98.3716 184.526 98.4469L184.524 98.4446Z" fill="black"/>
    <path d="M369.386 77.0239C369.386 76.9858 369.417 76.9548 369.455 76.9548C369.493 76.9548 369.524 76.9858 369.524 77.0239C369.524 77.062 369.493 77.0929 369.455 77.0929C369.417 77.0929 369.386 77.062 369.386 77.0239Z" fill="#FDC82E"/>
    <path d="M369.831 77.6499C369.831 77.6165 369.857 77.5902 369.891 77.5902C369.924 77.5902 369.95 77.6165 369.95 77.6499C369.95 77.6834 369.924 77.7097 369.891 77.7097C369.857 77.7097 369.831 77.6834 369.831 77.6499Z" fill="#FDC82E"/>
    <path d="M369.62 77.0239C369.62 76.9858 369.651 76.9548 369.689 76.9548C369.727 76.9548 369.758 76.9858 369.758 77.0239C369.758 77.062 369.727 77.0929 369.689 77.0929C369.651 77.0929 369.62 77.062 369.62 77.0239Z" fill="#FDC82E"/>
    <path d="M370.065 77.6499C370.065 77.6165 370.091 77.5902 370.125 77.5902C370.158 77.5902 370.184 77.6165 370.184 77.6499C370.184 77.6834 370.158 77.7097 370.125 77.7097C370.091 77.7097 370.065 77.6834 370.065 77.6499Z" fill="#FDC82E"/>
    <path d="M132.899 133.32C132.913 133.056 132.924 132.793 132.934 132.532C132.936 132.447 132.938 132.362 132.941 132.277C133.212 132.294 133.479 132.31 133.744 132.324C133.765 132.675 133.786 133.026 133.812 133.374C133.507 133.358 133.203 133.339 132.899 133.32Z" fill="black"/>
    <path d="M129.012 133.082C129.021 132.732 129.028 132.381 129.033 132.033C130.035 132.098 131.002 132.16 131.927 132.216C131.887 132.565 131.842 132.911 131.793 133.257C130.866 133.2 129.939 133.144 129.012 133.085V133.082Z" fill="black"/>
    <path d="M124.261 132.762V132.734C124.261 132.388 124.244 132.042 124.228 131.696C125.476 131.788 126.686 131.873 127.848 131.953C127.824 132.303 127.799 132.654 127.771 133.002C126.6 132.925 125.429 132.847 124.261 132.765V132.762Z" fill="black"/>
    <path d="M119.77 132.431C119.73 132.068 119.69 131.708 119.653 131.345C120.837 131.44 121.994 131.529 123.12 131.614C123.111 131.953 123.102 132.294 123.09 132.633C123.09 132.649 123.09 132.664 123.088 132.68C121.98 132.6 120.875 132.518 119.77 132.431Z" fill="black"/>
    <path d="M116.014 132.127C116.047 131.875 116.072 131.623 116.082 131.369C116.087 131.263 116.089 131.155 116.091 131.049C116.913 131.119 117.726 131.188 118.524 131.254C118.531 131.614 118.54 131.974 118.55 132.334C117.702 132.266 116.857 132.197 116.012 132.127H116.014Z" fill="black"/>
    <path d="M78.8097 127.676C68.3971 125.92 57.9352 123.891 48.2624 120.356C48.1781 119.953 48.1313 119.544 48.0845 119.136C64.0489 125.421 93.2451 129.072 115.328 130.985C115.3 131.345 115.239 131.703 115.162 132.056C102.965 131.018 90.8264 129.611 78.8074 127.676H78.8097Z" fill="black"/>
    <path d="M47.5763 120.101C47.1712 119.946 46.7521 119.779 46.326 119.602C46.2885 119.318 46.251 119.033 46.2136 118.748C46.1948 118.609 46.1761 118.47 46.155 118.334C46.621 118.539 47.101 118.741 47.5951 118.939C47.6255 119.318 47.6606 119.699 47.7075 120.078C47.7098 120.104 47.7145 120.127 47.7168 120.153C47.67 120.137 47.6232 120.118 47.5763 120.101Z" fill="black"/>
    <path d="M44.7104 118.91C44.6589 118.55 44.6144 118.188 44.5723 117.825C44.5629 117.745 44.5559 117.665 44.5465 117.588C44.9375 117.778 45.3426 117.969 45.7594 118.155C45.7594 118.164 45.7594 118.174 45.7594 118.183C45.7758 118.463 45.7875 118.741 45.7969 119.019C45.8016 119.141 45.8039 119.264 45.8062 119.384C45.4433 119.231 45.078 119.073 44.7081 118.906L44.7104 118.91Z" fill="black"/>
    <path d="M42.8605 118.028C42.7973 117.675 42.7317 117.322 42.6545 116.971C42.624 116.827 42.5913 116.684 42.5585 116.538C42.9542 116.766 43.3686 116.99 43.7971 117.211C43.8088 117.522 43.8135 117.832 43.8135 118.143C43.8135 118.261 43.8135 118.378 43.8135 118.496C43.4951 118.346 43.1766 118.188 42.8605 118.028Z" fill="black"/>
    <path d="M41.273 117.162C41.2496 116.686 41.2261 116.211 41.2074 115.735C41.2097 115.728 41.2121 115.719 41.2144 115.712C41.4697 115.881 41.7366 116.048 42.0082 116.213C42.0269 116.364 42.0433 116.517 42.0597 116.67C42.0808 116.98 42.1019 117.286 42.1136 117.599C42.1136 117.611 42.1136 117.625 42.1136 117.637C41.8302 117.482 41.5469 117.324 41.2706 117.162H41.273Z" fill="black"/>
    <path d="M65.0134 95.7048C65.2569 95.6553 65.4981 95.6059 65.7369 95.5588C65.7369 95.8366 65.7206 96.1143 65.7065 96.3921C65.5005 96.4391 65.2874 96.4909 65.0626 96.5427C65.0462 96.2626 65.0322 95.9825 65.0134 95.7024V95.7048Z" fill="black"/>
    <path d="M66.4769 95.9707C66.4512 95.7894 66.4254 95.6082 66.3973 95.4293C66.6947 95.3728 66.9897 95.3163 67.2801 95.2622C67.2731 95.5235 67.266 95.7847 67.252 96.046C67.0038 96.1001 66.7556 96.1543 66.5074 96.2084C66.498 96.1284 66.4887 96.0484 66.4769 95.9707Z" fill="black"/>
    <path d="M67.8303 95.8577C67.8303 95.8695 67.835 95.8812 67.8373 95.8953L67.8279 95.8506C67.8279 95.8506 67.8279 95.8506 67.8279 95.853C67.7905 95.6294 67.7577 95.4058 67.7179 95.1798C68.1628 95.0974 68.5983 95.0197 69.0245 94.9468C69.0245 95.1798 69.0198 95.4128 69.0174 95.6458C68.6264 95.7353 68.233 95.8247 67.8397 95.9142L67.8279 95.8553L67.8303 95.8577Z" fill="black"/>
    <path d="M69.4084 95.2435C69.3967 95.1234 69.3897 95.0057 69.385 94.8833C81.3454 93.0827 79.8445 93.1863 69.4389 95.5495C69.4295 95.4482 69.4201 95.3447 69.4084 95.2435Z" fill="black"/>
    <path d="M140.642 132.838C140.642 132.838 140.64 132.833 140.637 132.828C140.644 132.838 140.649 132.85 140.656 132.86C140.652 132.852 140.647 132.845 140.642 132.835V132.838Z" fill="black"/>
    <path d="M140.586 132.743C140.595 132.76 140.604 132.774 140.611 132.788C140.602 132.774 140.595 132.76 140.586 132.743Z" fill="black"/>
    <path d="M268.242 130.258C268.21 129.905 267.968 129.568 267.645 129.422C268.896 129.279 270.146 129.133 271.396 128.98C271.41 129.126 271.422 129.272 271.429 129.418C271.438 129.615 271.436 129.813 271.434 130.011C271.434 130.03 271.434 130.046 271.431 130.065C270.371 130.195 269.308 130.319 268.245 130.439C268.249 130.38 268.249 130.319 268.245 130.258H268.242Z" fill="black"/>
    <path d="M272.808 129.862C272.792 129.622 272.766 129.387 272.733 129.149C272.717 129.039 272.696 128.93 272.675 128.82C274.007 128.653 275.337 128.481 276.667 128.3C276.651 128.467 276.639 128.631 276.627 128.799C276.613 129.001 276.599 129.201 276.585 129.403C275.33 129.573 274.07 129.735 272.813 129.893C272.813 129.881 272.813 129.872 272.811 129.86L272.808 129.862Z" fill="black"/>
    <path d="M277.564 128.664C277.559 128.504 277.557 128.342 277.555 128.182C278.875 128.001 280.194 127.812 281.509 127.619C281.505 127.709 281.502 127.798 281.498 127.885C281.484 128.165 281.465 128.443 281.451 128.721C280.168 128.909 278.885 129.093 277.597 129.269C277.585 129.067 277.573 128.867 277.564 128.664Z" fill="black"/>
    <path d="M282.64 127.45C284.314 127.198 285.984 126.934 287.651 126.661C287.66 126.777 287.67 126.894 287.677 127.01V126.977C287.689 127.231 287.7 127.485 287.712 127.739C286.057 128.015 284.396 128.278 282.734 128.528C282.696 128.168 282.666 127.81 282.643 127.448L282.64 127.45Z" fill="black"/>
    <path d="M288.541 126.513C291.529 126.014 294.507 125.477 297.471 124.898C304.859 123.401 312.146 121.678 318.992 119.061C321.526 118.07 324.057 116.905 326.169 115.479C338.263 107.177 317.868 100.763 309.427 98.5057C298.951 95.7824 288.206 93.8711 277.346 92.4165C277.346 92.3812 277.346 92.3482 277.346 92.3129C277.346 92.24 277.337 92.1646 277.332 92.0917C277.323 91.9693 277.311 91.8445 277.288 91.7245C277.271 91.6303 277.255 91.5338 277.231 91.4397C277.222 91.4067 277.213 91.3738 277.203 91.3408C284.176 92.2776 291.109 93.3909 297.97 94.7491C305.428 96.2649 312.864 98.0278 319.779 100.704C326.75 103.361 335.706 108.603 328.829 114.897C326.822 116.684 324.261 118.032 321.61 119.183C316.693 121.295 311.392 122.799 306.046 124.11C300.312 125.444 294.516 126.588 288.677 127.577C288.637 127.222 288.592 126.866 288.543 126.513H288.541Z" fill="black"/>
    <path d="M274.04 91.9858C274.024 91.6304 274.012 91.2703 273.972 90.9172C274.928 91.0279 275.913 91.1809 276.843 91.2915C276.897 91.4092 276.92 91.5386 276.939 91.6657C276.939 91.6587 276.939 91.6516 276.937 91.6445C276.953 91.7716 276.967 91.8988 276.974 92.0282V92.0047C276.974 92.0776 276.974 92.1506 276.974 92.2259C276.974 92.2189 276.974 92.2118 276.974 92.2024C276.974 92.2565 276.974 92.3107 276.972 92.3648C275.995 92.2353 275.019 92.1082 274.043 91.9858H274.04Z" fill="black"/>
    <path d="M271.523 91.6776C271.495 91.3198 271.469 90.962 271.439 90.6042C272.069 90.6796 272.698 90.7572 273.326 90.8373C273.335 91.188 273.31 91.541 273.272 91.8918C272.689 91.8188 272.106 91.7482 271.521 91.6776H271.523Z" fill="black"/>
    <path d="M268.081 91.2797C268.062 90.922 268.048 90.5642 268.036 90.2064C268.903 90.3053 269.769 90.4065 270.635 90.5077C270.628 90.8608 270.619 91.2162 270.6 91.5693C269.762 91.4704 268.921 91.3739 268.081 91.2797Z" fill="black"/>
    <path d="M264.494 90.889C264.421 90.5124 264.306 90.1452 264.182 89.7827C265.229 89.8933 266.278 90.0087 267.325 90.1264C267.294 90.4794 267.264 90.8325 267.238 91.1856C266.325 91.0843 265.409 90.9855 264.494 90.889Z" fill="black"/>
    <path d="M260.944 90.5265C260.93 90.1687 260.925 89.8086 260.944 89.4508C261.686 89.5261 262.426 89.6014 263.166 89.6791C263.253 90.0392 263.323 90.4064 263.367 90.7736C262.56 90.6889 261.752 90.6088 260.942 90.5288L260.944 90.5265Z" fill="black"/>
    <path d="M256.013 90.0534C256.017 89.698 256.113 89.3261 256.034 88.9753C257.394 89.1024 258.752 89.2319 260.113 89.3661C260.035 89.7144 259.998 90.0722 259.974 90.43C258.654 90.3005 257.333 90.1758 256.013 90.0534Z" fill="black"/>
    <path d="M167.382 75.0482C167.457 74.8152 167.525 74.5798 167.59 74.3468C167.595 74.3279 167.6 74.3091 167.604 74.2903C179.97 74.3868 192.338 74.1255 204.678 73.5041C221.504 72.5909 238.421 71.1433 254.788 67.9539C260.11 66.8759 265.362 65.6355 270.296 63.7478C272.122 63.0346 273.946 62.1943 275.468 61.1657C284.183 55.1848 269.486 50.562 263.405 48.9356C261.073 48.3307 258.72 47.7799 256.352 47.2762C256.352 47.1067 256.343 46.9396 256.326 46.7701C256.317 46.6689 256.303 46.5654 256.287 46.4618C261.276 47.5022 266.233 48.7261 270.863 50.5197C275.887 52.4333 282.341 56.2111 277.384 60.7491C275.937 62.0366 274.094 63.0087 272.183 63.8372C268.641 65.3578 264.819 66.4428 260.967 67.389C242.886 71.5952 223.976 73.1699 205.209 74.2408C194.403 74.801 183.571 75.0741 172.739 75.0741C170.953 75.0741 169.169 75.067 167.382 75.0529V75.0482Z" fill="black"/>
    <path d="M164.921 75.0223C164.799 74.7634 164.661 74.5092 164.518 74.2573C164.724 74.2597 164.93 74.262 165.134 74.2644C165.09 74.4291 165.043 74.5939 164.998 74.7587C164.975 74.8458 164.949 74.9352 164.926 75.0223C164.926 75.0223 164.923 75.0223 164.921 75.0223Z" fill="black"/>
    <path d="M131.358 72.9534C130.585 72.8992 129.787 72.8404 128.965 72.7792C128.988 73.0357 129.005 73.2946 129.019 73.5512C129.766 73.6053 130.51 73.6595 131.257 73.7089C131.262 73.6642 131.269 73.6218 131.274 73.5771C131.269 73.6101 131.264 73.6407 131.262 73.6736C131.292 73.4335 131.325 73.1934 131.358 72.9534Z" fill="black"/>
    <path d="M126.825 72.612C126.832 72.8709 126.836 73.1298 126.841 73.3887C127.321 73.4264 127.799 73.4617 128.279 73.497C128.283 73.2404 128.283 72.9839 128.279 72.725C127.801 72.6873 127.316 72.6496 126.825 72.6096V72.612Z" fill="black"/>
    <path d="M123.874 73.1487C124.617 73.2123 125.359 73.2711 126.101 73.3299C126.113 73.1416 126.122 72.9533 126.131 72.765C126.134 72.6968 126.139 72.6262 126.141 72.5579C125.378 72.4967 124.6 72.4308 123.809 72.3625C123.832 72.6238 123.853 72.8874 123.874 73.1487Z" fill="black"/>
    <path d="M122.942 72.2873C122.17 72.219 121.385 72.1484 120.592 72.0754C120.592 72.3391 120.592 72.6003 120.592 72.864C121.376 72.9369 122.16 73.0052 122.945 73.0734C122.945 72.8569 122.945 72.6427 122.942 72.4285C122.942 72.3814 122.942 72.3367 122.94 72.2896L122.942 72.2873Z" fill="black"/>
    <path d="M117.651 72.5791C118.213 72.6356 118.775 72.6897 119.339 72.7439C119.341 72.6215 119.346 72.4991 119.348 72.3767C119.353 72.2378 119.355 72.0966 119.36 71.9577C118.782 71.9012 118.199 71.8447 117.613 71.7859C117.627 72.0495 117.641 72.3155 117.651 72.5791Z" fill="black"/>
    <path d="M115.759 72.3862C116.061 72.4168 116.36 72.4498 116.662 72.4804C116.662 72.4427 116.667 72.405 116.67 72.365C116.681 72.1414 116.691 71.9178 116.7 71.6942C116.431 71.666 116.159 71.6401 115.89 71.6118C115.848 71.8707 115.803 72.1296 115.759 72.3886V72.3862Z" fill="black"/>
    <path d="M67.6312 59.1179C63.7677 52.8758 82.4998 48.6531 88.1827 47.3162C89.3066 47.0761 90.4235 46.8148 91.5404 46.5559C91.5521 46.4171 91.5661 46.2758 91.5778 46.137C83.7174 47.3821 69.5536 50.7339 66.6384 55.6485C64.3063 59.8759 70.5347 62.884 74.7073 64.4986C81.8161 67.1607 89.5337 68.6601 97.2162 69.957C102.915 70.875 108.654 71.6282 114.417 72.2496C114.471 71.993 114.522 71.7341 114.574 71.4775C95.1276 69.3968 72.5133 65.5861 67.6312 59.1227V59.1179Z" fill="black"/>
    <path d="M94.5447 45.751C94.5779 45.7867 94.6111 45.82 94.6467 45.8557C94.6206 45.8605 94.5945 45.8676 94.5684 45.8724C94.5613 45.8319 94.5518 45.7915 94.5447 45.751Z" fill="black"/>
    <path d="M153.787 192.458C136.917 191.875 120.03 190.943 103.257 189.34C102.962 189.311 102.731 189.076 102.702 188.782C102.691 188.657 102.672 188.525 102.646 188.403C102.606 188.226 102.749 188.064 102.927 188.08C116.695 189.413 128.838 190.178 135.989 190.519C157.44 191.616 200.339 191.71 200.446 191.708C200.554 191.705 200.758 192.159 200.57 192.423C200.383 192.687 191.701 192.988 186.699 192.988C175.725 192.988 164.752 192.807 153.785 192.456L153.787 192.458Z" fill="black"/>
    <path d="M84.9586 186.482C84.9586 186.482 84.9586 186.471 84.9586 186.466C84.9586 186.466 84.9586 186.463 84.9586 186.461C84.9586 186.454 84.9586 186.444 84.9586 186.437C84.9586 186.454 84.9562 186.471 84.9539 186.487V186.482H84.9586Z" fill="black"/>
    <path d="M84.9655 186.409C84.9655 186.409 84.9655 186.39 84.9678 186.381C84.9678 186.395 84.9655 186.411 84.9631 186.425C84.9631 186.421 84.9631 186.416 84.9631 186.409H84.9655Z" fill="black"/>
    <path d="M62.4402 183.851C62.7048 183.502 62.967 183.154 63.2293 182.806C63.5477 182.862 63.8638 182.921 64.1846 182.977C64.1776 183.001 64.1706 183.022 64.1659 183.046C64.0605 183.399 63.9551 183.754 63.8498 184.107C63.3791 184.022 62.9108 183.938 62.4425 183.853L62.4402 183.851Z" fill="black"/>
    <path d="M58.8179 183.166C58.9256 182.789 59.0263 182.412 59.127 182.036C59.9254 182.191 60.7332 182.347 61.5457 182.497C61.2928 182.846 61.04 183.196 60.7871 183.545C60.1291 183.42 59.4735 183.295 58.8179 183.168V183.166Z" fill="black"/>
    <path d="M55.2565 182.446C55.3595 182.241 55.4695 182.041 55.5866 181.843C55.6826 181.685 55.781 181.532 55.884 181.379C56.7176 181.553 57.5582 181.725 58.4081 181.892C58.2934 182.267 58.1787 182.643 58.0522 183.015C57.118 182.829 56.1884 182.641 55.2588 182.446H55.2565Z" fill="black"/>
    <path d="M34.1267 176.533C-2.5296 162.13 47.1759 150.14 63.3768 147.52C66.3342 147.043 67.9943 146.645 68.4017 146.887C33.3329 152.986 -7.58023 167.466 55.5398 181.306C55.3267 181.655 55.116 182.005 54.9427 182.377C47.8058 180.868 40.793 179.028 34.1267 176.53V176.533Z" fill="black"/>
    <path d="M213.446 191.776C213.465 191.665 213.482 191.552 213.5 191.441C214.353 191.418 215.203 191.394 216.055 191.369C215.9 191.778 215.727 192.178 215.54 192.574C214.797 192.595 214.058 192.616 213.315 192.635C213.357 192.348 213.402 192.063 213.449 191.776H213.446Z" fill="black"/>
    <path d="M220.016 192.352C219.981 192.173 219.946 191.995 219.911 191.813C219.888 191.698 219.974 191.59 220.091 191.585C221.583 191.536 223.072 191.481 224.564 191.423C224.704 191.418 224.802 191.561 224.746 191.689C224.624 191.969 224.496 192.244 224.362 192.517C224.332 192.581 224.269 192.621 224.198 192.625C223.121 192.665 221.065 192.663 220.333 192.625C220.178 192.618 220.049 192.503 220.019 192.35L220.016 192.352Z" fill="black"/>
    <path d="M229.795 191.508C229.727 191.347 229.678 191.176 229.621 191.009C229.605 190.964 229.591 190.919 229.575 190.872C231.851 190.773 234.126 190.667 236.4 190.552C236.796 190.531 237.189 190.509 237.585 190.486C237.369 190.898 237.149 191.31 236.913 191.71C234.616 191.828 232.316 191.938 230.019 192.039C229.945 191.861 229.87 191.684 229.795 191.505V191.508Z" fill="black"/>
    <path d="M241.409 190.272C263.562 188.975 307.292 183.1 310.142 182.711C310.219 182.702 310.284 182.763 310.282 182.841C310.266 183.159 310.235 183.474 310.198 183.789C310.188 183.865 310.13 183.926 310.055 183.94C287.757 188.078 264.824 190.043 241.978 191.418C241.779 191.041 241.594 190.658 241.409 190.272Z" fill="black"/>
    <path d="M314.71 182.311C314.66 182.168 314.616 182.022 314.569 181.878C316.035 181.582 317.498 181.276 318.957 180.955C318.866 181.151 318.76 181.341 318.66 181.532C318.533 181.751 318.404 181.963 318.262 182.168C318.22 182.224 318.175 182.278 318.131 182.335C317.072 182.558 316.014 182.777 314.953 182.991C314.869 182.765 314.787 182.542 314.71 182.311Z" fill="black"/>
    <path d="M321.402 181.374C321.392 181.083 321.402 180.791 321.409 180.499C321.413 180.468 321.416 180.438 321.42 180.407C322.783 180.094 324.141 179.767 325.492 179.423C325.349 179.68 325.202 179.934 325.043 180.179C324.872 180.426 324.691 180.668 324.495 180.899C324.49 180.904 324.485 180.911 324.481 180.916C324.324 180.956 324.165 180.993 324.008 181.033C323.148 181.233 322.289 181.429 321.427 181.622C321.418 181.539 321.411 181.459 321.404 181.377L321.402 181.374Z" fill="black"/>
    <path d="M328.211 178.962C328.211 178.962 328.211 178.971 328.211 178.976C328.211 178.887 328.211 178.797 328.204 178.708C329.74 178.286 331.264 177.841 332.774 177.366C332.381 177.827 331.992 178.291 331.601 178.752C331.501 178.865 331.4 178.978 331.299 179.089C330.281 179.388 329.253 179.675 328.223 179.95C328.204 179.621 328.206 179.291 328.209 178.962H328.211Z" fill="black"/>
    <path d="M336.982 176.914C336.945 176.799 336.907 176.686 336.856 176.575C336.807 176.467 336.746 176.366 336.685 176.264C336.647 176.206 336.603 176.151 336.551 176.1C337.212 175.864 337.87 175.62 338.525 175.37C341.368 174.259 344.206 172.953 346.575 171.352C360.14 162.041 337.265 154.848 327.801 152.315C319.362 150.121 310.767 148.396 302.08 146.993C302.08 146.991 302.075 146.986 302.075 146.984C302.035 146.718 302.007 146.449 302.014 146.181C302.014 146.172 302.016 146.16 302.019 146.15C302.021 146.141 302.023 146.132 302.028 146.122C302.044 146.087 302.063 146.052 302.082 146.016C302.087 146.012 302.089 146.007 302.091 146.002C302.103 145.988 302.117 145.976 302.129 145.965C302.178 145.922 302.227 145.88 302.276 145.837C306.521 146.518 310.75 147.268 314.951 148.102C323.315 149.801 331.655 151.778 339.41 154.779C347.229 157.759 357.271 163.639 349.558 170.698C347.306 172.701 344.435 174.214 341.464 175.507C340.026 176.123 338.558 176.695 337.066 177.229C337.043 177.124 337.017 177.018 336.984 176.914H336.982Z" fill="black"/>
    <path d="M85.9301 195.455C87.9462 192.821 88.7563 187.913 85.8365 185.691C84.2138 185.825 86.0683 187.671 86.0964 188.518C87.4053 193.228 82.8042 198.496 77.9714 197.55C77.0722 197.38 76.8193 198.795 77.7255 198.948C80.8421 199.562 84.085 197.973 85.9301 195.455Z" fill="black"/>
    <path d="M87.4499 199.936C87.8292 199.562 88.0915 199.072 88.4193 198.653C90.0045 195.787 91.5171 192.548 91.2268 189.184C91.1846 184.773 87.1408 180.468 82.7973 183.194C79.943 185.221 81.7577 188.911 81.458 191.731C79.1774 197.175 73.7099 188.97 74.6161 185.783C74.8877 178.988 81.5259 174.56 87.9252 176.017C92.3741 177.27 95.8957 181.003 97.3334 185.352C97.8579 186.284 97.3053 188.923 98.4433 189.019C98.8273 189.034 99.1645 188.723 99.1762 188.337C98.9772 178.814 88.2507 170.992 79.4747 175.789C75.1219 177.919 72.7944 182.944 73.2206 187.675C73.8598 190.785 75.9461 194.704 79.449 194.934C85.8038 194.031 80.9054 187.708 83.2797 184.651C87.9299 181.318 90.6976 188.036 89.6861 191.917C89.2084 193.88 88.3537 195.709 87.5108 197.531C87.0355 198.131 85.6329 200.708 87.4523 199.941L87.4499 199.936Z" fill="black"/>
    <path d="M98.5342 188.356C98.5081 188.32 98.4582 188.311 98.4226 188.337C98.387 188.363 98.3776 188.413 98.4037 188.449C98.4298 188.485 98.4796 188.494 98.5152 188.468C98.5508 188.442 98.5603 188.392 98.5342 188.356Z" fill="black"/>
    <path d="M94.2472 195.05C98.9747 187.318 90.18 173.226 81.13 178.847C77.4562 181.44 76.145 187.24 77.9385 191.232C79.4793 191.783 78.8728 189.893 78.7253 189.076C78.5848 188.054 78.5614 187.019 78.6808 185.993C79.8539 176.653 89.8615 177.14 93.0413 185.016C94.0809 187.428 94.39 190.18 93.7648 192.743C93.5143 193.508 92.6198 196.215 94.2472 195.047V195.05Z" fill="black"/>
    <path d="M94.8326 174.29C93.2217 171.449 89.0702 170.733 86.0192 170.583C77.9574 170.427 69.7082 176.763 69.3055 185.152C69.2868 185.538 69.5982 185.875 69.9822 185.891C71.2091 185.748 70.5933 183.949 71.0125 183.102C73.1901 173.965 84.8367 169.168 92.8681 173.795C92.8423 173.781 92.8611 173.791 92.8002 173.76C93.3692 173.937 94.4065 175.09 94.835 174.29H94.8326Z" fill="black"/>
    <path d="M86.656 167.534C84.9443 165.91 81.9027 166.487 79.7462 166.821C75.0632 167.883 70.64 171.216 69.1719 175.928C68.898 176.801 70.256 177.234 70.5206 176.349C71.9864 171.719 76.557 168.681 81.1815 167.986C82.2586 167.468 86.8316 168.558 86.656 167.537V167.534Z" fill="black"/>
    <path d="M82.2188 164.223C82.6379 162.69 78.2663 163.505 77.4257 163.764C74.4824 164.606 71.5953 166.131 69.6004 168.511C69.1695 169.14 68.0854 170.345 69.0829 170.919C69.6308 171.157 70.0242 170.691 70.1717 170.203C72.738 166.176 77.8261 164.837 82.2188 164.223Z" fill="black"/>
    <path d="M228.141 15.9503C228.124 15.9264 228.093 15.9216 228.069 15.9384C228.046 15.9551 228.041 15.9862 228.057 16.0101C228.074 16.0339 228.105 16.0387 228.129 16.022C228.153 16.0053 228.157 15.9742 228.141 15.9503Z" fill="black"/>
    <path d="M221.215 16.555C221.234 15.9336 220.253 13.3162 219.612 14.5919C220.682 16.4538 220.569 18.8405 218.984 20.4081C217.987 21.4625 216.476 22.1051 215.027 21.8109C214.456 21.7026 214.292 22.6065 214.87 22.703C218.307 23.3785 221.637 19.982 221.215 16.5526V16.555Z" fill="black"/>
    <path d="M228.538 15.4581C228.144 11.0566 224.11 6.90689 219.623 6.98221C214.737 7.06224 210.667 11.9086 212.33 16.7126C212.971 18.9934 216.205 21.7732 217.923 18.9322C218.874 17.0539 216.509 13.2267 219.82 13.0384C222.843 13.1867 223.028 17.3764 222.094 19.5466C221.693 20.8152 220.85 21.9192 220.478 23.1666C220.813 23.9716 221.445 22.856 221.689 22.5147C226.856 14.3965 219.572 8.90052 217.151 14.0764C216.598 15.677 218.123 17.8424 216.626 19.0476C214.737 19.8431 213.482 17.3199 212.981 15.8488C212.669 14.4295 213.044 12.9043 213.557 11.5767C216.018 6.91395 222.602 6.8198 225.648 10.9248C226.8 12.3205 227.643 14.06 227.648 15.9006C227.819 16.8374 228.814 16.2184 228.535 15.4557L228.538 15.4581Z" fill="black"/>
    <path d="M225.404 13.3279C221.679 5.23099 212.215 9.92438 215.003 17.7836C216.324 18.1013 215.249 16.1124 215.427 15.4275C215.104 12.0004 218.488 8.51212 221.808 10.5458C224.557 12.1298 225.826 15.7099 225.098 18.7486C225.058 19.2782 224.395 20.142 225.048 20.408C226.91 18.9251 226.233 15.3121 225.402 13.3256L225.404 13.3279Z" fill="black"/>
    <path d="M213.701 7.79667C216.689 5.33935 221.131 4.74385 224.526 6.66216C224.51 6.65274 224.522 6.65981 224.482 6.63862C227.891 8.44866 224.107 4.29428 220.157 4.61204C215.015 4.51318 209.754 8.55458 209.496 13.9047C209.484 14.1518 209.683 14.366 209.927 14.3778C210.709 14.286 210.318 13.1397 210.585 12.5983C211.037 10.6847 212.194 9.02062 213.699 7.79667H213.701Z" fill="black"/>
    <path d="M209.709 8.58753C210.452 8.71698 210.372 7.60837 210.73 7.18469C211.231 6.25966 211.873 5.53471 212.664 4.88036C214.641 3.26568 217.263 2.60663 219.768 2.94087C220.033 2.9644 220.581 3.07503 220.562 2.66548C217.734 0.871914 213.517 2.7102 211.302 4.90154C210.723 5.55824 208.717 7.89788 209.707 8.58753H209.709Z" fill="black"/>
    <path d="M209.951 4.59557C211.44 1.83697 214.894 0.968429 217.734 0.556522C218.017 0.149322 217.305 0.0622346 217.039 0.0151594C214.765 -0.137835 212.512 0.895463 210.733 2.25593C210.162 2.82554 208.534 4.0189 209.354 4.82859C209.571 4.92509 209.859 4.82859 209.948 4.59792L209.951 4.59557Z" fill="black"/>
    <path d="M350.535 105.047C351.09 113.212 333.161 106.614 330.842 102.448C329.405 100.775 331.896 96.1802 334.177 97.9384C337.649 94.1842 345.711 91.4915 344.819 99.4331C344.664 100.13 344.344 101.05 345.393 101.109C347.917 100.572 350.094 102.373 350.535 105.047Z" fill="white"/>
    <path d="M307.772 73.6101C306.976 77.7127 294.158 82.5638 292.707 81.6247C290.957 80.4925 289.941 75.8392 288.703 69.2392C288.054 65.7886 299.188 62.9759 303.197 62.644C305.524 62.4533 308.268 71.0587 307.774 73.6101H307.772Z" fill="#ADDDFF"/>
    <path d="M158.344 70.9643C160.219 71.2421 162.015 74.5162 160.664 77.1547C159.55 79.3343 142.637 78.1715 141.852 76.5663C139.448 74.4126 139.848 70.2559 144.765 70.616C145.948 68.9472 146.983 63.8207 151.071 64.5833C157.042 65.3459 154.464 71.3857 158.344 70.9643Z" fill="#EAF5FF"/>
    <path d="M57.907 101.18C59.2323 103.343 57.7196 108.13 56.6285 110.649C53.9639 115.62 46.0121 108.98 43.8158 107.302C41.3033 105.675 45.0099 99.233 45.9442 96.7357C45.7147 95.2693 57.4152 99.7391 57.907 101.182V101.18Z" fill="white"/>
    <path d="M300.131 73.1911C301.606 71.6306 300.525 69.0767 298.291 69.3168C295.725 69.5922 295.427 73.3959 297.797 73.8996C297.525 76.8606 301.686 75.5896 300.131 73.1911Z" fill="black"/>
    <path d="M306.924 66.8547C306.334 64.7763 305.313 61.1256 302.534 61.7C298.977 61.9895 295.5 63.5759 292.119 64.7434C291.178 61.1115 289.663 57.5621 289.122 53.8478C288.7 50.9456 290.243 48.0505 292.945 46.9395C293.969 46.5182 295.076 46.5771 296.137 46.8219C296.24 46.8454 296.343 46.876 296.441 46.916C298.441 47.6904 299.394 49.677 300.129 51.5623C300.567 52.3391 300.41 54.1515 301.672 53.9467C302.084 53.8337 302.337 53.3888 302.223 52.9746C300.876 43.9314 290.445 41.5424 287.651 50.5384C286.907 52.9346 289.604 62.006 290.681 65.3318C287.356 66.8947 287.19 68.853 288.389 73.2193C289.326 76.6298 289.328 81.8269 292.498 82.5472C295.594 82.9662 298.368 81.069 301.122 79.9416C309.02 76.5969 310.067 75.2458 306.922 66.857L306.924 66.8547ZM302.574 77.4466C300.16 78.261 292.934 83.5946 291.573 79.3649C290.878 77.2065 289.599 73.5629 289.335 70.7455C289.173 69.0366 290.108 67.3961 291.646 66.6523C294.325 65.3577 297.495 65.0093 300.183 63.7218C304.414 61.8883 304.868 65.7602 305.946 68.8295C307.641 73.4923 307.704 75.8107 302.576 77.449L302.574 77.4466Z" fill="black"/>
    <path d="M286.555 59.697C285.79 59.3722 284.415 50.9245 286.267 52.4097C286.471 54.5987 287.127 56.7359 287.618 58.8779C287.803 59.4922 287.073 60.0312 286.558 59.697H286.555Z" fill="black"/>
    <path d="M292.069 87.5419C289.257 87.2901 287.124 85.287 286.583 82.5167C286.361 81.3115 286.11 80.0099 286.48 78.8119C286.555 78.6259 286.834 78.6236 286.906 78.8119C287.077 79.3061 287.082 79.8499 287.255 80.3465C287.478 81.0244 287.642 81.7187 287.866 82.3943C288.361 83.6582 289.166 84.9128 290.433 85.4918C291.042 85.7978 291.721 85.8825 292.369 86.0708C293.219 86.3227 293.004 87.5466 292.173 87.5466C292.14 87.5466 292.105 87.5466 292.067 87.5396L292.069 87.5419Z" fill="black"/>
    <path d="M287.356 88.8954C286.834 88.7354 286.387 88.4223 285.972 88.074C285.291 87.5444 284.668 86.9136 284.359 86.0921C284.115 85.4354 283.785 84.694 283.947 83.9902C284.083 83.6395 284.586 83.5783 284.806 83.8796C285.162 84.541 285.364 85.2965 285.79 85.9273C286.326 86.5934 287.056 87.1607 287.841 87.4949C288.606 87.8127 288.295 88.9284 287.574 88.9284C287.506 88.9284 287.433 88.919 287.358 88.8954H287.356Z" fill="black"/>
    <path d="M50.4776 102.086C49.4473 102.018 48.7846 102.425 48.4522 103.467C48.2461 104.117 48.4732 104.854 48.9205 105.365C48.8502 105.459 48.7964 105.565 48.7776 105.685C48.6325 105.977 48.5622 106.315 48.698 106.626C48.8853 107.083 49.3372 107.45 49.8336 107.45C49.8922 107.45 49.9507 107.445 50.0093 107.434C50.7164 107.285 50.9904 106.584 50.899 105.96C52.9034 105.534 52.7137 102.232 50.4799 102.083L50.4776 102.086Z" fill="black"/>
    <path d="M56.9073 98.7246C57.8299 95.9072 58.4995 93.0026 59.0755 90.084C59.4736 88.8459 59.8927 87.4901 59.4759 86.2003C57.7901 80.7937 50.1403 79.4473 48.1524 85.4635C47.7028 86.3509 47.4359 87.3136 47.1502 88.2622C47.0519 88.6129 47.2673 88.9895 47.6162 89.0836C48.6792 89.2555 48.5528 87.7255 48.9204 87.0665C49.5573 85.4329 50.3839 83.5264 52.1634 82.9144C54.8889 82.1871 58.0593 84.5691 58.3895 87.3254C58.242 91.0867 56.631 94.6079 55.6944 98.2209C52.8378 97.2206 49.8968 95.8907 46.8856 95.6412C44.5348 95.1587 43.6708 98.2374 43.172 100C42.3946 102.38 40.7415 106.047 42.7342 108.17C44.2117 109.627 46.3471 110.006 48.0775 111.07C50.4049 112.026 52.7535 113.631 55.3713 113.276C58.0781 112.633 57.9352 107.624 58.8484 105.383C59.8131 101.683 59.9068 100.13 56.9026 98.7223L56.9073 98.7246ZM57.008 107.269C56.343 108.846 56.6638 112.383 54.2286 111.981C51.5921 111.571 49.2646 110.03 46.8552 108.963C44.6846 108.045 42.5351 107.396 43.2282 104.517C43.7761 102.251 44.3896 99.9038 45.4925 97.8561C47.0191 95.6765 49.8921 98.1268 51.859 98.4116C53.2077 98.8423 54.6033 99.1601 55.8934 99.7508C59.6492 100.584 57.5044 104.64 57.0056 107.266L57.008 107.269Z" fill="black"/>
    <path d="M60.4031 93.9489C61.0517 93.6288 62.2224 86.5863 60.6466 87.7844C60.4733 89.6368 59.9184 91.4421 59.5039 93.2545C59.347 93.7747 59.9652 94.2313 60.4007 93.9465L60.4031 93.9489Z" fill="black"/>
    <path d="M55.7412 117.503C58.1201 117.289 59.9254 115.597 60.382 113.252C60.4453 112.953 60.6513 111.795 60.6349 110.962C60.6279 110.538 60.0191 110.477 59.9231 110.889C59.4829 112.774 58.9654 114.876 57.1227 115.768C56.6075 116.027 56.0315 116.098 55.486 116.258C54.7203 116.486 54.9942 117.607 55.7388 117.501L55.7412 117.503Z" fill="black"/>
    <path d="M59.7262 118.647C60.9789 118.416 61.5058 116.988 61.7259 115.851C61.7867 115.531 61.3676 115.359 61.1897 115.632C60.7143 116.361 60.04 117.197 59.3188 117.463C58.5836 117.771 59.0378 118.875 59.7286 118.649L59.7262 118.647Z" fill="black"/>
    <path d="M174.89 130.964C174.89 130.964 174.879 130.971 174.875 130.973C174.882 130.969 174.886 130.966 174.89 130.964Z" fill="black"/>
    <path d="M175.545 129.654C175.545 129.654 175.561 129.63 175.568 129.618C175.564 129.632 175.556 129.646 175.552 129.658C175.552 129.658 175.547 129.654 175.545 129.651V129.654Z" fill="black"/>
    <path d="M158.421 124.555C158.421 124.555 158.428 124.564 158.43 124.569C158.426 124.564 158.423 124.56 158.421 124.555Z" fill="black"/>
    <path d="M163.998 135.54C163.998 135.54 164.01 135.546 164.016 135.551C164.012 135.546 164.005 135.544 163.998 135.54Z" fill="black"/>
    <path d="M82.425 90.0652C82.116 90.2723 81.8022 90.4724 81.4884 90.6701C81.4393 90.1829 81.2473 88.2363 80.5776 89.2414C80.5776 89.2414 80.5776 89.2414 80.5752 89.239C80.4909 89.8957 80.5565 90.5454 80.6291 91.1974C78.3157 92.1248 79.6246 93.231 80.5495 92.5131C80.615 92.4613 80.697 92.4355 80.7696 92.3954C80.9288 92.9933 80.6993 93.7842 81.1372 94.2596C81.5727 94.6197 82.2471 94.1584 82.0879 93.6194C81.9614 93.0262 81.8514 92.459 81.7319 91.8753C82.1721 91.6305 82.61 91.3786 83.0455 91.1291C83.7363 90.7149 83.1181 89.6604 82.4274 90.0652H82.425Z" fill="black"/>
    <path d="M137.516 72.6897C137.439 72.4049 137.132 72.2237 136.846 72.3084C136.778 72.3272 136.624 72.372 136.422 72.4355C136.296 71.8047 136.237 71.1574 136.078 70.5313C135.928 70.0935 135.369 70.1994 135.413 70.6655C135.392 71.3646 135.439 72.0613 135.488 72.7603C134.535 73.1275 133.554 73.6336 134.193 73.9937C134.339 74.0314 134.486 73.9655 134.627 73.9349C134.713 73.9349 134.811 73.9349 134.865 73.8595C135.092 73.7889 135.322 73.7277 135.551 73.6783C135.572 74.0149 135.587 74.3491 135.589 74.6857C135.676 75.2741 136.511 75.333 136.671 74.7587C136.774 74.3444 136.715 73.9184 136.629 73.4947C137.099 73.41 137.647 73.2546 137.518 72.6874L137.516 72.6897Z" fill="black"/>
    <path d="M165.541 75.5707C165.352 75.1187 165.558 72.6332 164.68 73.1698C164.68 73.1698 164.68 73.1675 164.68 73.1651C164.567 73.2899 164.553 73.4829 164.542 73.6453C164.523 73.8642 164.509 74.0831 164.495 74.302C164.012 74.4314 163.518 74.5774 163.137 74.914C162.741 75.1564 162.743 75.8767 163.263 75.952C163.5 75.9873 163.724 75.7919 163.722 75.5495C163.902 75.4318 164.162 75.4059 164.422 75.3824C164.401 75.6625 164.401 75.9473 164.525 76.1897C164.93 76.8676 165.942 76.2533 165.541 75.5754V75.5707Z" fill="black"/>
    <path d="M254.891 47.2314C254.804 46.6524 254.716 46.0734 254.594 45.4991C254.556 45.2025 254.388 44.6564 254.004 44.9059C253.868 45.0165 253.875 45.1978 253.866 45.3578C253.863 45.685 253.873 46.0122 253.88 46.3394C253.451 46.4288 252.983 46.3582 252.582 46.5418C252.002 46.8572 252.311 47.5727 252.887 47.6292C252.971 47.641 253.465 47.6221 253.903 47.4903C254.086 48.0011 254.968 47.8787 254.893 47.2314H254.891Z" fill="black"/>
    <path d="M262.426 70.4537C262.442 69.7476 271.86 65.7368 274.126 64.654C274.433 64.5081 274.843 64.4092 275.098 64.6328C276.028 65.4496 262.403 71.4164 262.426 70.456V70.4537Z" fill="black"/>
    <path d="M65.6294 128.846C61.52 128.184 57.6589 126.584 53.7275 125.273C52.353 124.811 50.9716 124.369 49.672 123.714C49.3161 123.474 47.8386 123.025 48.3491 122.469C48.4287 122.389 48.5668 122.356 48.6698 122.396C49.274 122.627 49.8664 122.891 50.4705 123.119C52.332 123.816 54.2684 124.286 56.151 124.922C58.0663 125.529 59.9676 126.183 61.897 126.741C63.1942 127.109 64.5219 127.351 65.8378 127.636C66.6222 127.798 66.4255 128.97 65.6294 128.848V128.846Z" fill="black"/>
    <path d="M44.9726 149.989C45.1154 149.243 47.677 148.634 48.3982 148.321C50.6788 147.57 53.018 146.918 55.3173 146.263C56.9143 145.939 58.5135 145.129 60.1128 145.042C60.4968 145.221 60.457 145.83 60.0495 145.955C55.2377 147.678 50.159 148.485 45.298 149.933C45.1294 149.968 44.9843 150.192 44.9702 149.989H44.9726Z" fill="black"/>
    <path d="M119.444 193.068C114.103 192.526 108.734 191.832 103.473 190.836C103.381 190.799 103.304 190.721 103.267 190.629C103.21 190.495 103.325 190.352 103.47 190.352C107.465 190.345 111.579 191.319 115.616 191.62C116.941 191.754 118.266 191.889 119.589 192.025C120.261 192.124 120.137 193.15 119.446 193.068H119.444Z" fill="black"/>
    <path d="M192.698 194.692C192.682 194.692 192.668 194.694 192.652 194.697C192.602 194.704 192.549 194.685 192.521 194.636C192.42 194.353 192.923 194.403 193.089 194.341C195.871 193.861 198.714 194.078 201.507 193.762C202.465 193.633 203.416 193.459 204.369 193.301C204.614 193.259 204.853 193.452 204.886 193.696C204.919 193.946 204.741 194.181 204.493 194.217C203.774 194.32 203.055 194.419 202.336 194.52C200.503 194.791 198.655 194.621 196.812 194.605C195.433 194.565 194.057 194.643 192.682 194.697H192.701L192.698 194.692Z" fill="black"/>
    <path d="M304.529 126.72C304.43 126.426 304.594 126.115 304.88 126.009C305.784 125.678 306.69 125.353 307.594 125.028C311.455 123.658 315.494 122.858 319.336 121.429C321.453 120.662 323.495 119.713 325.45 118.597C325.876 118.36 326.3 118.12 326.726 117.882C326.956 117.778 327.274 117.47 327.468 117.75C327.693 118.55 325.717 119.781 325.129 120.2C321.205 122.719 316.55 123.684 312.125 124.943C310.663 125.348 309.205 125.755 307.767 126.238C306.922 126.518 306.079 126.798 305.233 127.073C304.95 127.168 304.625 127.015 304.526 126.72H304.529Z" fill="black"/>
    <path d="M340.426 153.52C335.982 151.378 331.355 149.665 326.658 148.179C326.658 148.179 326.658 148.179 326.661 148.177C326.368 148.139 326.359 147.685 326.654 147.631C326.944 147.575 327.248 147.666 327.534 147.72C330.95 148.554 334.294 149.702 337.544 151.046C337.525 151.039 337.507 151.032 337.488 151.025C338.635 151.503 339.759 152.028 340.89 152.543C341.52 152.866 341.068 153.81 340.424 153.52H340.426Z" fill="black"/>
    <path d="M221.579 193.421C221.569 192.621 221.548 190.415 221.644 190.13C221.92 189.587 222.56 189.897 222.637 190.406C222.789 191.399 222.806 192.418 222.827 193.421C222.827 193.762 222.546 194.047 222.204 194.047C221.862 194.047 221.586 193.762 221.581 193.421H221.579Z" fill="black"/>
    <path d="M227.266 192.322C226.386 192.174 226.025 191.046 227.116 190.921C227.519 190.924 227.999 191.1 228.095 191.538C228.217 192.011 227.716 192.428 227.266 192.322Z" fill="black"/>
    <path d="M210.569 192.957C210.285 192.905 209.986 192.738 209.866 192.463C209.812 192.272 209.77 192.046 209.829 191.853C210 191.538 210.412 191.338 210.763 191.446C211.135 191.538 211.674 191.846 211.512 192.305C211.409 192.731 211.021 193.049 210.571 192.957H210.569Z" fill="black"/>
    <path d="M239.264 191.66C238.536 191.354 239.004 190.097 239.742 190.467C240.533 190.881 240.144 192.004 239.264 191.66Z" fill="black"/>
    <path d="M156.716 69.8535C155.869 62.1614 145.622 62.6957 144.634 70.0489C139.246 69.032 137.982 74.6599 142.171 77.4773C142.485 77.9175 143.168 77.8727 143.656 77.9645C148.638 78.4447 153.626 78.3765 158.599 78.8378C164.9 78.6895 161.711 69.2815 156.719 69.8535H156.716ZM160.732 75.3989C160.535 78.5153 156.834 77.3384 154.738 77.4373C151.385 77.4185 148.036 77.0513 144.686 77.0678C143.279 77.0748 141.963 76.2981 141.349 75.0271C140.946 74.1938 140.729 73.3041 140.965 72.5768C141.408 71.1245 143.684 70.4772 144.897 71.3411C145.377 71.5341 145.779 71.0539 145.702 70.5879C145.606 65.5932 152.165 62.5074 154.822 67.415C155.89 68.8979 155.096 70.8844 155.827 71.261C156.145 71.4399 156.473 71.2399 156.761 71.101C158.868 70.8515 160.842 73.4053 160.732 75.3989Z" fill="black"/>
    <path d="M350.235 102.185C349.109 100.633 347.111 100.368 345.332 100.372C347.186 91.7504 337.998 91.7457 334.441 97.4489C334.338 97.6489 334.015 98.4257 334.486 98.3198C334.545 98.3433 334.598 98.2939 334.573 98.2374C336.235 95.8412 338.979 94.5726 341.883 94.7773C343.587 94.7726 344.103 96.7992 344.192 98.1926C344.337 99.1718 343.754 100.13 343.929 101.074C344.746 102.639 348.275 100.372 349.865 104.251C350.94 108.853 345.54 109.041 342.52 107.878C342.522 107.878 342.524 107.878 342.527 107.878C338.3 106.772 332.369 105.419 330.939 100.695C330.775 99.1553 332.231 97.5195 333.812 97.9879C333.748 98.2327 333.491 98.9082 333.903 98.3339C334.729 97.5642 333.355 97.0676 332.706 97.1146C330.665 97.2158 329.271 99.4707 329.744 101.398C331.686 106.588 338.333 107.801 343.056 109.486C348.163 111.305 354.152 107.144 350.233 102.182L350.235 102.185Z" fill="black"/>
    <path d="M342.136 111.72C341.906 111.684 340.354 111.254 339.902 110.854C339.761 110.729 339.888 110.498 340.068 110.545C340.794 110.733 341.527 110.924 342.285 110.983C342.803 111.072 342.648 111.844 342.136 111.722V111.72Z" fill="black"/>
    <path d="M249.862 101.86C249.737 85.9508 249.646 70.0418 249.646 54.1327C249.646 49.171 252.62 34.8813 244.851 34.8813C203.425 34.8813 161.989 34.8861 120.568 35.5969C120.58 35.5969 120.592 35.5969 120.603 35.5969C119.943 35.5851 119.283 35.5781 118.622 35.5686C118.622 35.5686 118.625 35.5686 118.627 35.5686C113.857 35.531 109.09 35.305 104.32 35.3733C104.32 35.3733 104.323 35.3733 104.325 35.3733C85.291 34.3282 91.7957 39.0616 90.7163 54.9919C90.2292 78.2894 90.0887 101.592 90.0887 124.896C90.0887 139.727 101.415 135.876 110.333 136.02C116.171 135.989 131.573 135.987 150.137 135.928C149.315 140.951 149.256 146.151 147.444 150.962C146.142 151.458 139.989 150.931 139.588 151.738C139.188 152.546 138.963 153.723 139.485 154.596C140.007 155.469 143.571 155.293 145.147 155.267C149.9 155.189 154.651 155.163 159.404 155.224C172.87 155.123 186.517 154.511 199.901 154.751C200.919 154.77 199.695 151.708 197.997 151.571C196.496 151.451 194.974 151.39 193.462 151.392C193.021 151.392 192.619 151.152 192.415 150.762C189.973 146.078 189.64 140.878 188.61 135.728C329.602 132.944 129.489 133.937 98.1248 134.196C98.1248 134.196 98.1248 134.196 98.1271 134.196C92.9384 134.196 91.8027 127.377 91.8027 127.396C91.8285 126.424 91.8987 120.537 91.983 112.136C144.016 112.593 196.101 112.033 248.148 112.398C247.806 118.226 248.005 123.896 248.286 129.185C247.991 133.876 246.539 132.922 242.947 133.758C242.338 134.318 243.57 134.61 243.945 134.822C246.23 135.109 249.695 134.589 249.567 131.578C250.161 121.723 249.752 111.767 249.866 101.872L249.862 101.86ZM187.91 139.899C188.509 144.082 189.015 148.907 191.86 152.197C192.567 152.701 197.374 152.339 198.271 152.645C198.578 152.922 198.728 153.334 198.896 153.723C179.434 153.478 159.943 153.909 140.483 154.003C140.637 153.475 140.64 153.179 140.698 152.503C141.719 152.882 148.041 153.016 148.755 151.501C151.017 146.697 151.469 141.172 151.581 135.921C163.097 135.883 175.474 135.827 187.507 135.728C187.378 137.025 187.795 138.979 187.908 139.901L187.91 139.899ZM248.021 105.826C248.15 107.427 248.18 109.102 248.166 110.811C196.11 111.124 144.035 110.512 91.99 110.922C92.1867 90.9926 92.449 58.2518 92.4115 42.1545C90.927 35.1238 97.4598 37.8259 101.906 37.5293C110.973 37.5293 120.039 37.3175 129.108 37.3363C129.103 37.3363 129.098 37.3363 129.091 37.3363C164.069 36.9503 199.03 36.8514 233.998 36.4066C251.796 35.3639 247.988 36.7926 248.007 52.5887C247.719 70.3337 248.052 88.0786 248.019 105.826H248.021Z" fill="black"/>
    <path d="M180.141 82.4485C182.063 80.2477 179.715 76.63 176.938 77.515C174.268 78.1599 173.887 82.2249 176.526 83.1946C176.385 83.9266 172.322 89.6369 176.324 89.7851C182.574 90.4842 180.049 86.5958 179.452 83.0652C179.71 82.8933 179.942 82.6839 180.141 82.4461V82.4485Z" fill="black"/>
    <path d="M208.546 150.99C208.443 143.55 207.902 135.257 208.061 127.419C208.265 117.451 204.357 97.5525 210.489 96.7075C237.69 95.4647 269.741 96.345 295.448 96.0484C296.53 96.0367 297.464 96.804 297.652 97.875C299.272 107.142 297.589 142.137 297.621 151.298C271.851 151.458 211.665 152.04 208.548 150.987L208.546 150.99Z" fill="#ADDDFF"/>
    <path d="M312.291 174.876C308.137 168.382 298.19 152.051 298.141 151.618C270.406 151.724 236.103 152.284 208.731 151.837C185.112 186.993 191.357 177.94 228.214 178.159C249.648 178.286 271.05 178.446 292.674 178.423C308.626 177.813 311.773 181.972 312.291 174.876Z" fill="#A8A7B6"/>
    <path d="M252.789 108.107C252.264 106.579 252.517 103.465 252.789 101.822C255.734 100.9 256.718 105.802 260.63 103.708C259.047 112.633 255.659 105.202 252.789 108.107Z" fill="#0079D0"/>
    <path d="M263.421 143.043C264.077 146.8 242.404 147.494 241.373 141.824C241.223 140.996 242.268 128.608 243.691 120.026C244.637 114.328 244.359 111.741 244.949 111.687C245.724 111.616 247.098 111.251 247.684 111.715L247.96 115.302L250.318 115.436C250.264 114.165 250.852 111.687 250.852 111.687L254.38 111.289C254.083 113.068 254.835 115.257 254.835 115.257C254.835 115.257 256.783 116.091 257.438 115.022C257.832 114.382 257.708 112.009 257.771 111.555C257.771 111.555 260.52 110.402 260.829 111.496C262.278 116.608 263.472 142.264 263.423 143.043H263.421Z" fill="#EAF5FF"/>
    <path d="M263.967 141.558C263.847 133.894 262.981 126.261 262.283 118.633C261.876 116.14 261.995 113.471 261.162 111.072C260.822 110.675 260.146 110.931 259.682 110.912C256.076 110.978 257.694 112.541 257.127 115.107C253.98 116.081 255.027 113.711 254.601 111.633C254.842 111.016 253.959 110.952 253.009 111.016C253.074 110.355 252.887 108.615 253.346 108.246C254.636 106.763 256.043 108.636 257.497 108.61C260.883 108.688 259.832 105.193 261.576 103.524C261.639 103.463 261.71 103.411 261.782 103.362C262.094 103.15 262.63 102.684 262.087 102.618C260.497 102.429 259.626 103.941 258.593 103.971C256.748 103.868 254.566 100.266 252.519 101.801C252.442 101.86 252.386 101.942 252.358 102.036C251.894 103.576 252.159 109.938 252.604 111.047C251.971 111.105 251.379 111.195 251.14 111.183C249.489 111.579 250.747 114.036 249.969 115.192C249.393 115.199 248.815 115.126 248.241 115.09C248.209 113.196 249.286 110.578 246.256 111.362C245.738 111.513 244.53 111.115 244.357 111.739C243.486 118.136 242.474 124.508 241.868 130.941C241.809 132.965 240.674 138.254 240.805 141.379C240.856 142.596 241.502 143.712 242.54 144.343C246.53 146.772 251.803 146.188 256.315 146.158C259.342 145.717 264.229 146.242 263.965 141.558H263.967ZM252.887 103.54C252.943 102.338 253.39 101.996 253.753 102.088C256.02 102.662 257.507 106.106 260.431 104.089C259.499 105.325 260.064 106.963 258.483 107.669C256.699 108.613 254.748 105.802 252.894 107.772C252.871 106.64 252.824 104.884 252.885 103.54H252.887ZM254.381 111.682C254.381 111.682 254.381 111.684 254.381 111.687C254.381 111.687 254.381 111.684 254.381 111.682ZM260.989 144.578C256.179 146.042 247.471 146.223 243.31 143.809C242.292 143.218 241.706 142.083 241.79 140.904C242.477 131.225 243.924 121.61 244.97 111.974C245.799 112.012 246.621 111.993 247.448 111.95C247.787 113.059 246.42 115.761 248.234 115.761C250.381 116.145 251.213 115.829 251.185 113.483C251.147 112.96 251.438 112.259 251.161 111.802C252.072 111.548 253.215 111.55 254.147 111.682C254.294 113.038 253.226 115.865 255.409 115.794C257.219 115.968 258.291 115.942 258.052 113.76C257.79 111.402 258.127 111.468 260.328 111.513C262.199 121.424 262.721 131.701 262.962 141.808C262.993 143.072 262.192 144.216 260.989 144.581V144.578Z" fill="black"/>
    <path d="M259.773 131.644C259.968 131.411 260.108 131.134 260.199 130.844C260.288 130.564 260.317 130.265 260.293 129.973C260.293 129.945 260.286 129.914 260.281 129.886C260.281 129.848 260.281 129.813 260.281 129.775C260.26 129.672 260.23 129.568 260.192 129.469C260.155 129.345 260.108 129.222 260.05 129.105C259.984 128.973 259.907 128.846 259.815 128.73C259.719 128.608 259.614 128.495 259.499 128.391C259.148 128.085 258.708 127.881 258.244 127.829C258.111 127.815 257.98 127.812 257.846 127.817C257.596 127.805 257.345 127.829 257.102 127.897C256.832 127.975 256.575 128.097 256.348 128.267C256.114 128.443 255.91 128.66 255.755 128.907C255.608 129.14 255.507 129.399 255.449 129.67C255.432 129.747 255.42 129.825 255.411 129.903C255.383 130.176 255.402 130.453 255.47 130.717C255.542 130.997 255.664 131.268 255.842 131.498C255.999 131.703 256.188 131.88 256.411 132.009C256.533 132.08 256.666 132.136 256.807 132.165C256.575 132.802 256.315 133.428 256.036 134.048C255.868 134.492 255.708 134.942 255.523 135.382C255.42 135.702 255.235 136.074 255.287 136.413C255.301 136.467 255.341 136.502 255.388 136.517C255.545 136.987 256.039 137.249 256.636 137.22C256.675 137.22 256.715 137.22 256.755 137.22C256.793 137.22 256.83 137.223 256.87 137.22C256.919 137.22 256.968 137.22 257.02 137.22C257.214 137.22 257.411 137.225 257.605 137.223C258.387 137.227 259.183 137.197 259.797 136.667C260.228 136.213 260.014 135.519 259.9 134.975C259.736 134.259 259.584 133.537 259.371 132.835C259.338 132.595 259.298 132.355 259.246 132.117C259.443 131.988 259.619 131.828 259.769 131.647L259.773 131.644Z" fill="black"/>
    <path d="M263.534 172.31C263.304 171.084 263.103 169.909 262.723 168.707C262.524 167.019 261.447 167.676 260.173 167.539C257.062 167.603 253.947 167.624 250.833 167.633C248.471 167.678 246.096 167.633 243.738 167.739C243.317 167.897 243.399 168.457 243.263 168.812C242.975 170.084 242.54 171.326 242.305 172.611C242.369 173.179 243.071 172.962 243.462 172.974C247.518 172.948 251.573 172.915 255.631 172.915C263.004 172.915 263.791 173.374 263.531 172.305L263.534 172.31ZM243.397 172.282C243.741 171.041 244.001 169.77 244.359 168.532C249.892 168.269 255.675 168.45 261.213 168.405C261.543 168.403 261.834 168.629 261.906 168.951C262.119 169.9 262.187 170.841 262.449 171.764C262.513 171.983 262.349 172.202 262.122 172.197C261.684 172.188 249.199 172.294 243.397 172.282Z" fill="black"/>
    <path d="M311.239 172.611C310.537 171.541 309.893 170.392 309.137 169.352C307.048 166.186 305.437 162.719 303.402 159.515C302.41 158.009 301.4 156.514 300.518 154.939C299.869 153.937 299.44 152.795 298.609 151.917C298.591 151.898 298.572 151.877 298.553 151.854C298.569 151.83 298.586 151.807 298.598 151.781C298.621 151.731 298.626 151.68 298.63 151.625C298.644 151.519 298.644 151.414 298.647 151.305C298.649 151.192 298.651 151.079 298.654 150.966C298.654 150.625 298.658 150.286 298.661 149.945C298.668 149.034 298.67 148.123 298.679 147.212C298.691 146.174 298.694 145.138 298.694 144.103C298.694 143.067 298.677 142.123 298.668 141.132C298.658 140.045 298.656 138.955 298.649 137.868C298.642 136.761 298.623 135.658 298.621 134.551C298.612 132.332 298.6 130.112 298.607 127.892C298.609 126.824 298.607 125.755 298.607 124.687C298.607 123.618 298.612 122.651 298.612 121.634C298.612 120.577 298.616 119.523 298.616 118.466C298.616 117.409 298.609 116.453 298.605 115.446C298.6 114.46 298.593 113.473 298.579 112.487C298.567 111.572 298.562 110.654 298.56 109.738C298.555 108.712 298.558 107.683 298.558 106.657C298.558 105.631 298.551 104.59 298.534 103.557C298.527 103.06 298.523 102.566 298.497 102.072C298.473 101.606 298.45 101.142 298.427 100.676C298.401 100.179 298.377 99.685 298.349 99.1884C298.338 98.9695 298.326 98.7506 298.3 98.5341C298.305 98.2516 298.31 97.9692 298.314 97.6773C298.349 97.0229 297.823 96.5192 297.286 96.2368C296.528 95.9285 295.591 95.8696 294.736 95.879C294.472 95.879 294.214 95.8837 293.968 95.8931C293.025 95.8108 292.074 95.7543 291.126 95.7613C290.737 95.7613 290.351 95.7684 289.962 95.7919C289 95.8673 288.042 95.9143 287.082 95.992C287.068 95.992 287.054 95.992 287.04 95.992C285.293 95.9732 283.546 96.025 281.8 96.0485C279.055 95.9449 276.318 95.9567 273.569 95.9237C272.141 95.919 270.696 95.8743 269.254 95.8767C268.373 95.8767 267.491 95.8884 266.615 95.9355C266.198 95.9567 265.781 95.9661 265.362 95.9685C264.313 95.9685 263.264 95.9308 262.215 95.9332C261.948 95.9332 261.681 95.9332 261.412 95.9379C260.698 95.9567 259.986 95.9638 259.272 95.9661C257.808 95.9661 256.347 95.9473 254.884 95.9426C254.149 95.9426 253.413 95.9426 252.676 95.9543C249.829 95.9496 246.981 96.0862 244.134 96.072C243.162 96.065 242.193 96.0391 241.224 95.9802C239.5 95.9096 237.779 95.8908 236.056 95.8955C233.19 95.8955 230.322 95.9638 227.453 95.9543C225.732 95.9614 224.013 96.032 222.292 96.0344C221.723 96.0344 221.157 96.0226 220.588 95.9991C218.827 95.9614 217.066 95.912 215.305 95.912C214.811 95.8814 214.301 95.8625 213.783 95.8673C211.592 95.8578 209.285 96.258 207.873 98.0633C206.59 99.7439 206.623 101.975 206.642 103.995C206.635 105.482 206.457 106.963 206.473 108.453C206.422 110.484 206.506 112.506 206.466 114.537C206.543 117.738 206.853 120.93 207.002 124.126C207.152 127.351 206.925 130.58 206.991 133.807C207.094 138.769 207.288 143.729 207.485 148.688C207.518 149.488 207.67 150.293 207.604 151.093C207.103 152.261 206.452 153.365 205.876 154.497C204.485 156.905 202.968 159.275 201.474 161.627C199.528 164.616 198.081 167.888 196.363 171.006C195.67 172.294 195.065 173.628 194.309 174.881C193.665 175.973 194.471 177.194 195.103 178.091C196.157 179.082 197.594 179.157 198.461 179.197C201.167 179.32 203.783 179.174 206.487 179.049C210.463 178.887 214.465 179.2 218.443 179.061C223.7 178.915 228.959 178.672 234.222 178.792C236.976 178.701 239.73 178.717 242.486 178.83C245.375 178.884 248.262 179.07 251.152 179.113C254.533 179.181 257.912 179.065 261.293 179.068C263.391 179.03 265.486 179.171 267.584 179.195C270.169 179.176 272.757 179.136 275.344 179.157C278.152 179.087 280.959 179.211 283.764 179.108C285.349 179.075 286.937 178.997 288.524 179.011C289.576 179.037 290.625 179.094 291.676 179.035C294.619 178.971 297.563 179.2 300.504 179.291C303.159 179.306 305.805 179.524 308.46 179.621C309.167 179.635 309.919 179.72 310.602 179.506C310.691 179.452 310.771 179.388 310.846 179.322C311.092 179.169 311.324 178.875 311.483 178.715C312.035 178.079 312.799 177.547 313.082 176.726C313.48 175.066 312.078 173.854 311.235 172.609L311.239 172.611ZM207.85 106.744C207.962 105.508 208.033 104.268 208.051 103.027C207.974 100.589 208.499 97.948 211.18 97.2607C211.884 97.0771 212.603 97.0182 213.325 97.0065C213.971 97.0065 214.617 97.0347 215.261 97.0465C216.23 97.0465 217.195 97.063 218.164 97.0818C219.562 97.1359 220.96 97.1524 222.36 97.1501C224.587 97.1524 226.814 97.1124 229.041 97.1147C229.312 97.1171 229.584 97.1171 229.856 97.1147C231.705 97.11 233.562 97.0088 235.417 96.9947C235.637 96.9947 235.857 96.9947 236.077 96.9947C238.69 97.0135 241.324 97.0677 243.947 97.1736C244.005 97.1736 244.064 97.1736 244.125 97.1736C244.143 97.1736 244.162 97.1736 244.181 97.1736C250.784 97.11 257.387 96.9382 263.992 96.9288C264.316 96.9382 264.639 96.9429 264.962 96.9429C266.933 96.9547 268.9 96.7946 270.872 96.8158C273.588 96.8346 276.323 96.6864 279.048 96.6722C279.381 96.6722 279.711 96.6722 280.043 96.6746C280.294 96.6793 280.545 96.6793 280.795 96.6793C282.413 96.6793 284.026 96.5451 285.644 96.491C286.056 96.491 286.466 96.4792 286.878 96.4628C288.042 96.4792 289.206 96.4981 290.367 96.4863C291.692 96.4816 293.02 96.5663 294.355 96.5781C294.402 96.5781 294.444 96.5781 294.491 96.5781C294.523 96.5781 294.556 96.5781 294.589 96.5781C294.668 96.5781 294.746 96.5781 294.821 96.5757C295.106 96.5757 295.383 96.5922 295.687 96.6487C296.179 96.6958 296.745 96.6275 297.083 97.07C297.415 97.3948 297.3 97.8868 297.324 98.3057C297.373 99.3343 297.399 100.368 297.525 101.392C297.567 101.695 297.595 102.001 297.614 102.309C297.614 102.354 297.609 102.397 297.609 102.441C297.595 102.954 297.593 103.465 297.588 103.978C297.567 106.045 297.593 108.111 297.595 110.178V111.55C297.595 111.972 297.588 112.391 297.584 112.812C297.577 113.838 297.577 114.864 297.574 115.891C297.57 117.95 297.584 120.012 297.595 122.072C297.609 124.157 297.616 126.242 297.628 128.328C297.633 129.434 297.638 130.538 297.638 131.642C297.638 132.753 297.642 133.866 297.638 134.977C297.633 136.086 297.626 137.195 297.623 138.303C297.623 139.388 297.623 140.471 297.619 141.556C297.614 142.526 297.605 143.498 297.609 144.47C297.614 145.011 297.614 145.55 297.619 146.089C297.623 146.579 297.633 147.069 297.64 147.56C297.652 148.457 297.656 149.354 297.67 150.253C297.675 150.559 297.675 150.863 297.682 151.169C297.682 151.188 297.682 151.204 297.682 151.223C297.556 151.221 297.429 151.216 297.305 151.214C297.125 151.214 296.942 151.209 296.762 151.206C296.139 151.195 295.516 151.197 294.893 151.197C294.46 151.197 294.027 151.197 293.594 151.197H292.297C291.451 151.197 290.608 151.188 289.763 151.185C288.15 151.178 286.536 151.166 284.925 151.169C283.12 151.169 281.313 151.178 279.507 151.173C276.171 151.164 272.834 151.173 269.497 151.164C267.875 151.159 266.254 151.178 264.632 151.188C262.845 151.197 261.056 151.221 259.27 151.244C255.809 151.286 252.348 151.246 248.887 151.23C247.061 151.221 245.235 151.211 243.408 151.211C242.764 151.211 242.12 151.211 241.476 151.211C240.317 151.211 239.158 151.211 237.999 151.211C236.246 151.206 234.492 151.19 232.736 151.178C230.935 151.169 229.134 151.155 227.336 151.143C223.95 151.119 220.562 151.101 217.174 151.101C215.493 151.101 213.809 151.101 212.128 151.129C211.299 151.143 210.468 151.162 209.641 151.214C209.398 151.23 209.152 151.246 208.906 151.275C209.033 150.55 208.894 149.794 208.878 149.062C208.812 147.118 208.768 145.171 208.627 143.23C208.438 139.421 208.281 135.606 208.264 131.793C208.243 128.794 208.426 125.779 208.201 122.78C208.061 119.97 207.796 117.162 207.759 114.347C207.813 111.823 207.686 109.277 207.852 106.749L207.85 106.744ZM196.7 172.701C198.383 169.636 200.013 166.539 201.79 163.526C204.153 159.753 206.754 156.081 208.606 152.023C208.745 152.044 208.883 152.061 209.021 152.073C209.426 152.11 209.833 152.139 210.241 152.157C211.093 152.197 211.948 152.214 212.8 152.223C214.486 152.242 216.174 152.244 217.862 152.247C219.604 152.247 221.347 152.242 223.089 152.237C224.763 152.233 226.437 152.216 228.113 152.211C231.654 152.197 235.194 152.155 238.735 152.157C242.35 152.157 245.965 152.162 249.58 152.143C253.058 152.124 256.535 152.101 260.012 152.153C261.794 152.179 263.573 152.195 265.353 152.209C266.943 152.221 268.533 152.235 270.122 152.23C272.085 152.223 274.047 152.226 276.009 152.23C277.409 152.23 278.812 152.233 280.214 152.23C282.02 152.23 283.825 152.242 285.63 152.242C287.211 152.242 288.791 152.233 290.372 152.226C292.1 152.216 293.83 152.221 295.558 152.221C296.064 152.221 296.57 152.214 297.076 152.207C297.246 152.207 297.417 152.207 297.588 152.197C297.645 152.197 297.698 152.197 297.755 152.197C297.956 152.889 298.354 153.487 298.656 154.144C298.651 154.132 298.647 154.125 298.642 154.113C299.97 156.662 301.773 158.929 303.245 161.401C304.032 162.705 304.758 164.044 305.58 165.327C306.62 167.186 307.652 169.05 308.891 170.783C309.668 172.042 310.441 173.304 311.361 174.464C311.525 174.69 311.658 174.902 311.764 175.106C311.53 175.078 311.296 175.052 311.061 175.031C310.453 174.975 309.844 174.939 309.235 174.913C307.863 174.859 306.493 174.833 305.119 174.812C302.826 174.779 300.534 174.775 298.239 174.779C297.047 174.779 295.856 174.779 294.666 174.779C293.474 174.779 292.285 174.779 291.093 174.779C286.321 174.789 281.547 174.81 276.775 174.822C271.963 174.831 267.151 174.833 262.339 174.833C259.906 174.833 257.476 174.838 255.043 174.841C252.69 174.841 250.334 174.833 247.981 174.836C243.076 174.836 238.173 174.85 233.269 174.885C230.86 174.902 228.448 174.93 226.037 174.949C223.625 174.968 221.213 174.972 218.801 174.977C216.464 174.982 214.13 174.993 211.793 175.008C209.466 175.022 207.141 175.019 204.813 175.019C203.795 175.019 202.776 175.015 201.757 175.015C200.711 175.015 199.664 175.026 198.617 175.041C198.156 175.045 197.693 175.048 197.231 175.055C196.861 175.059 196.491 175.066 196.121 175.071C195.92 175.071 195.716 175.076 195.515 175.078C195.55 175.001 195.585 174.921 195.625 174.824C195.953 174.101 196.335 173.409 196.697 172.706L196.7 172.701ZM311.146 177.724C310.832 178.044 310.579 178.406 310.244 178.71C310.237 178.715 310.23 178.722 310.223 178.727C310.064 178.755 309.884 178.715 309.72 178.729C307.273 178.687 304.819 178.409 302.372 178.275C298.401 178.202 294.432 177.91 290.461 178.093C286.087 177.95 281.711 178.209 277.337 178.013C272.113 178.051 266.891 178.131 261.667 178.044C258.279 178.032 254.893 178.14 251.505 178.089C248.084 178.042 244.668 177.865 241.249 177.787C239.011 177.731 236.772 177.733 234.534 177.818C232.169 177.797 229.802 177.759 227.437 177.802C223.522 177.865 219.609 178.093 215.692 178.122C212.554 178.082 209.414 178.244 206.277 178.232C203.614 178.232 198.24 178.428 196.711 177.926C196.054 177.71 195.592 176.726 195.431 176.234C195.353 176.05 195.318 175.911 195.311 175.784C195.627 175.789 195.946 175.791 196.262 175.794C196.73 175.798 197.199 175.81 197.669 175.815C198.287 175.82 198.908 175.827 199.528 175.834C201.629 175.86 203.729 175.836 205.829 175.834C207.028 175.834 208.229 175.827 209.431 175.829C210.531 175.829 211.634 175.839 212.734 175.843C215.095 175.853 217.457 175.86 219.818 175.864C222.206 175.867 224.594 175.874 226.985 175.89C231.897 175.928 236.807 175.961 241.72 175.968C246.499 175.975 251.278 175.956 256.057 175.956C260.895 175.956 265.732 175.944 270.57 175.947C275.344 175.949 280.116 175.956 284.89 175.963C287.033 175.966 289.173 175.973 291.315 175.973C291.547 175.973 291.781 175.973 292.013 175.973C294.416 175.973 296.818 175.966 299.223 175.968C301.548 175.968 303.871 175.949 306.193 175.907C307.357 175.886 308.521 175.86 309.682 175.801C310.214 175.775 310.743 175.74 311.272 175.683C311.502 175.657 311.729 175.634 311.956 175.605C311.961 175.605 311.968 175.605 311.972 175.605C312.181 176.33 311.939 176.961 311.148 177.729L311.146 177.724Z" fill="black"/>
    <path d="M297.891 164.983C296.675 162.54 295.554 160.012 294.477 157.488C293.791 155.956 293.318 154.659 291.395 154.965C291.402 154.965 291.409 154.965 291.416 154.965C269.872 155.13 248.323 155.099 226.779 155.142C222.377 155.137 217.97 155.114 213.57 155.252C212.854 155.295 211.995 155.156 211.674 155.926C210.208 157.938 209.321 160.289 208.269 162.533C207.483 164.044 206.633 166.073 209.215 166.021C231.211 166.402 253.238 166.049 275.246 166.12C280.697 166.12 286.148 166.15 291.599 166.146C293.112 165.825 298.008 167.064 297.893 164.983H297.891ZM295.104 165.341C273.349 165.369 251.597 165.275 229.842 165.27C223.21 165.331 216.561 165.068 209.939 165.435C207.799 165.55 208.094 164.491 208.939 162.975C209.976 160.525 211.487 158.319 212.58 155.895C232.736 156.175 252.903 155.761 273.061 155.808C279.306 155.843 285.588 155.634 291.812 155.836C293.517 155.403 295.879 163.323 296.966 164.971C296.436 165.378 295.76 165.378 295.104 165.343V165.341Z" fill="black"/>
    <path d="M172.374 124.018C173.273 121.646 170.007 119.412 168.34 121.629C167.335 122.698 167.073 125.438 169.169 125.223C170.047 126.191 171.941 125.141 172.372 124.018H172.374ZM177.179 125.303C177.753 129.083 173.873 138.145 164.769 136.696C163.181 136.444 163.809 135.587 161.727 136.606C160.395 137.463 161.268 142.097 158.173 139.108C156.705 138.247 155.234 140.137 154.45 138.068C152.75 139.129 151.687 145.896 149.589 143.938C148.514 144.792 147.873 146.562 145.91 145.76C145.243 150.23 142.904 149.225 139.066 149.298C136.905 149.983 136.753 148.471 137.399 146.758C138.209 143.465 141.595 142.366 143.78 140.111C147.13 137.34 149.076 135.465 152.649 132.991C158.433 128.985 154.131 124.049 158.388 119.424C160.791 116.813 164.818 114.883 168.513 115.681C173.664 116.795 176.481 120.695 177.179 125.303Z" fill="#ADDDFF"/>
    <path d="M169.833 126.12C166.089 125.875 167.319 119.934 170.822 120.753C174.303 121.361 173.285 126.767 169.833 126.12ZM170.264 125.44C172.655 125.35 172.664 121.589 170.283 121.476C167.639 121.373 167.82 125.334 170.264 125.44Z" fill="black"/>
    <path d="M176.938 122.872C171.85 109.326 153.368 115.031 155.496 129.022C153.759 132.532 149.75 134.203 146.957 136.766C143.967 139.268 140.302 141.09 137.825 144.117C136.828 145.336 137.059 147.254 136.823 148.627C136.619 149.799 137.392 149.945 138.333 149.792C142.695 149.06 144.941 151.938 146.205 146.322C148.84 147.052 148.352 145.903 149.891 144.371C151.029 145.364 151.546 144.34 151.935 143.295C152.626 141.876 152.954 140.332 153.965 139.068C154.485 138.334 154.881 139.421 155.281 139.696C156.051 140.158 156.759 139.296 157.503 139.172C158.711 139.932 159.54 141.631 160.777 140.045C161.999 139.139 161.029 136.797 162.851 136.444C163.048 136.528 163.228 136.606 163.446 136.698C171.444 140.002 179.865 130.879 176.938 122.872ZM176.547 127.553C175.865 133.322 169.632 137.658 164.038 136.074C164.043 136.074 164.048 136.074 164.05 136.076C163.828 136.015 163.612 135.935 163.394 135.862C162.668 135.502 161.816 135.744 161.259 136.371C160.247 137.305 161.104 139 159.838 139.699C158.302 138.668 157.613 137.856 155.782 138.934C154.806 137.604 154.005 137.717 153.211 138.651L153.225 138.637C153.225 138.637 153.204 138.658 153.192 138.67L153.206 138.656C152.099 140.221 151.696 142.227 150.689 143.851C149.266 142.825 148.584 144.769 147.781 145.607C147.252 145.64 146.69 145.418 146.14 145.468C145.613 145.383 145.383 145.76 145.248 146.209C144.03 150.128 142.63 148.765 140.099 148.944C139.125 149.013 137.872 149.048 137.577 149.109C137.586 148.784 137.642 148.469 137.71 148.153C145.093 142.653 152.361 136.667 159.252 130.649C159.337 130.161 158.721 129.787 158.334 130.11C156.679 131.463 155.023 132.819 153.368 134.172C148.233 138.451 142.937 142.528 137.937 146.974C138.136 146.028 138.181 144.877 138.975 144.218C141.504 142.017 144.227 140.047 146.861 137.969C148.825 136.448 150.764 134.899 152.745 133.402C154.529 132.143 156.73 130.604 156.517 128.125C154.536 112.405 177.748 112 176.547 127.556V127.553Z" fill="black"/>
    <path d="M153.649 138.222C153.649 138.222 153.66 138.213 153.665 138.209C153.66 138.213 153.654 138.218 153.649 138.222Z" fill="black"/>
    <path d="M158.33 124.338C158.079 124.308 157.871 124.058 157.915 123.802C158.039 123.039 158.236 122.288 158.603 121.606C160.086 118.847 162.467 117.129 165.958 116.86C167.34 116.754 167.557 117.261 167.426 117.409C167.18 117.522 166.85 117.484 166.593 117.541C164.804 117.891 163.148 118.28 161.685 119.4C160.826 120.014 159.912 121.01 159.498 122.008C159.198 122.637 159.027 123.312 158.852 123.983C158.788 124.214 158.561 124.371 158.33 124.338Z" fill="black"/>
    <path d="M175.516 126.617C175.139 126.184 174.858 126.633 174.774 127.05C174.711 127.137 174.65 127.224 174.61 127.328C174.463 127.749 174.359 128.184 174.184 128.596C173.821 129.601 173.32 130.538 172.592 131.327C172.086 131.92 171.594 132.541 170.976 133.019C170.672 133.28 169.974 133.438 170.189 133.968C170.44 134.445 171.009 134.085 171.376 133.963C173.044 133.212 174.09 131.626 174.844 130.018C175.151 129.437 175.472 128.773 175.563 128.1C175.741 127.61 175.879 127.047 175.516 126.621V126.617Z" fill="black"/>
</svg>
