<svg width="497" height="339" viewBox="0 0 497 339" fill="none" xmlns="http://www.w3.org/2000/svg">
<path d="M126.925 216.858C161.387 216.858 189.324 188.921 189.324 154.459C189.324 119.997 161.387 92.0596 126.925 92.0596C92.4634 92.0596 64.5264 119.997 64.5264 154.459C64.5264 188.921 92.4634 216.858 126.925 216.858Z" fill="white"/>
<path d="M338.663 146.889C379.217 146.889 412.093 114.013 412.093 73.4585C412.093 32.9041 379.217 0.0283203 338.663 0.0283203C298.108 0.0283203 265.232 32.9041 265.232 73.4585C265.232 114.013 298.108 146.889 338.663 146.889Z" fill="white"/>
<path d="M318.683 274.386C298.376 274.975 274.244 274.386 256.88 274.092C239.811 274.68 215.385 274.975 195.078 274.386C215.09 262.908 222.153 241.719 223.036 227.593H290.136C291.902 241.425 298.965 262.908 318.683 274.386Z" fill="url(#paint0_linear_6429_20142)"/>
<g filter="url(#filter0_d_6429_20142)">
<path d="M383.724 49.5384V225.233C383.724 229.648 380.192 232.885 376.366 232.885H138.869C134.749 232.885 131.512 229.354 131.512 225.233V49.5384C131.512 45.4183 135.043 41.8867 138.869 41.8867H376.072C380.487 41.8867 383.724 45.4183 383.724 49.5384Z" fill="white"/>
</g>
<path d="M383.724 49.5384V200.807H131.512V49.5384C131.512 45.4183 135.043 41.8867 138.869 41.8867H376.072C380.487 41.8867 383.724 45.4183 383.724 49.5384Z" fill="#989FB0"/>
<path d="M374.017 51.6025H140.052V192.276H374.312V51.6025H374.017Z" fill="white"/>
<path d="M257.182 222.4C260.714 222.4 263.362 219.751 263.362 216.219C263.362 212.688 260.714 210.039 257.182 210.039C253.651 210.039 251.002 212.688 251.002 216.219C251.002 219.751 253.651 222.4 257.182 222.4Z" fill="#D0D8E6"/>
<path d="M360.484 77.4954V95.4475C360.484 98.0962 358.424 100.156 355.775 100.156H158.008C155.359 100.156 153.299 98.0962 153.299 95.4475V77.4954C153.299 74.8467 155.359 72.7867 158.008 72.7867H355.481C358.423 72.4924 360.484 74.8467 360.484 77.4954Z" fill="#E5E9F1"/>
<path d="M180.954 72.499V100.457H157.705C155.056 100.457 152.996 98.3971 152.996 95.7484V77.7964C152.996 75.1477 155.056 73.0876 157.705 73.0876L180.954 72.499Z" fill="#E3EAF2"/>
<path opacity="0.8" d="M360.484 115.166V133.118C360.484 135.767 358.424 137.827 355.775 137.827H158.008C155.359 137.827 153.299 135.767 153.299 133.118V115.166C153.299 112.518 155.359 110.458 158.008 110.458H355.481C358.423 110.163 360.484 112.518 360.484 115.166Z" fill="#E5E9F1"/>
<path d="M180.954 72.499V100.457H157.705C155.056 100.457 152.996 98.3971 152.996 95.7484V77.7964C152.996 75.1477 155.056 73.0876 157.705 73.0876L180.954 72.499Z" fill="#0079D0"/>
<path d="M166.247 92.5043C165.659 92.5043 165.07 92.21 164.776 91.9157L160.361 87.5013C159.478 86.6184 159.478 85.4412 160.361 84.5583C161.244 83.6754 162.421 83.6754 163.304 84.5583L165.953 87.207L172.428 80.7325C173.31 79.8496 174.488 79.8496 175.371 80.7325C176.253 81.6154 176.253 82.7926 175.371 83.6754L167.425 91.6215C167.13 92.21 166.542 92.5043 166.247 92.5043Z" fill="white"/>
<path opacity="0.5" d="M360.484 152.828V170.78C360.484 173.428 358.424 175.488 355.775 175.488H158.008C155.359 175.488 153.299 173.428 153.299 170.78V152.828C153.299 150.179 155.359 148.119 158.008 148.119H355.481C358.423 147.824 360.484 149.885 360.484 152.828Z" fill="#E5E9F1"/>
<path opacity="0.3" d="M360.475 190.217V192.277H152.996V190.217C152.996 187.568 155.056 185.508 157.705 185.508H355.472C358.415 185.508 360.475 187.568 360.475 190.217Z" fill="#E5E9F1"/>
<path d="M149.763 62.4839C151.234 62.4839 152.412 61.3067 152.412 59.8352C152.412 58.3637 151.234 57.1865 149.763 57.1865C148.291 57.1865 147.114 58.3637 147.114 59.8352C147.114 61.3067 148.291 62.4839 149.763 62.4839Z" fill="#E3EAF2"/>
<path d="M158.294 62.4839C159.766 62.4839 160.943 61.3067 160.943 59.8352C160.943 58.3637 159.766 57.1865 158.294 57.1865C156.823 57.1865 155.646 58.3637 155.646 59.8352C155.646 61.3067 156.823 62.4839 158.294 62.4839Z" fill="#E3EAF2"/>
<path d="M166.832 62.4839C168.304 62.4839 169.481 61.3067 169.481 59.8352C169.481 58.3637 168.304 57.1865 166.832 57.1865C165.361 57.1865 164.184 58.3637 164.184 59.8352C164.184 61.3067 165.361 62.4839 166.832 62.4839Z" fill="#E3EAF2"/>
<path d="M176.017 274.995L338.665 274.995" stroke="#989FB0" stroke-width="2" stroke-miterlimit="10" stroke-linecap="round" stroke-linejoin="round"/>
<path d="M117.253 266.451C125.699 266.451 132.546 259.605 132.546 251.159C132.546 242.713 125.699 235.866 117.253 235.866C108.808 235.866 101.961 242.713 101.961 251.159C101.961 259.605 108.808 266.451 117.253 266.451Z" fill="white"/>
<path d="M256.888 35.3923C262.656 35.3923 267.332 30.7165 267.332 24.9486C267.332 19.1807 262.656 14.5049 256.888 14.5049C251.12 14.5049 246.444 19.1807 246.444 24.9486C246.444 30.7165 251.12 35.3923 256.888 35.3923Z" fill="white"/>
<path d="M427.661 87.9484L426.201 100.731L434.738 103.86L443.723 100.731L442.263 89.5462C438.369 86.1376 430.906 87.0607 427.661 87.9484Z" fill="#F7CBAF"/>
<path d="M427.661 87.9484L426.201 100.731L434.738 103.86L443.723 100.731L442.263 89.5462C438.369 86.1376 430.906 87.0607 427.661 87.9484Z" fill="black" fill-opacity="0.05"/>
<path d="M420.871 71.9803C421.355 73.4303 422.799 79.4893 423.461 82.3375C422.839 79.0922 424.343 75.3996 424.861 72.1199C432.888 68.5812 446.093 70.7389 446.956 71.602C447.647 72.2925 447.196 76.0369 447.196 79.6619C447.973 75.893 449.526 66.9226 449.526 61.1917C449.526 55.4607 443.6 55.2939 440.636 55.9268L442.88 51.6113C441.816 52.3018 437.391 54.1316 428.208 55.9268C416.729 58.1708 420.267 70.1678 420.871 71.9803Z" fill="#26395E"/>
<path d="M420.331 78.046C419.986 76.6696 421.306 75.4603 422.647 75.9235C423.359 76.1693 423.84 76.8344 423.851 77.587L423.899 80.9982C423.91 81.749 423.323 82.3728 422.572 82.4075C421.911 82.4381 421.32 81.998 421.159 81.3556L420.331 78.046Z" fill="#F2C7AC"/>
<path d="M449.716 78.046C450.061 76.6696 448.74 75.4603 447.399 75.9235C446.688 76.1693 446.207 76.8344 446.196 77.587L446.148 80.9982C446.137 81.749 446.724 82.3728 447.474 82.4075C448.136 82.4381 448.727 81.998 448.888 81.3556L449.716 78.046Z" fill="#F2C7AC"/>
<path d="M428.079 91.6738C428.852 92.1892 430.574 92.8604 432.206 93.4283C434.048 94.0691 436.023 94.3601 437.869 93.731C438.011 93.6828 438.152 93.6327 438.294 93.581C441.122 92.5491 443.311 90.3487 444.939 87.8168C446.461 85.4492 447.44 82.7633 447.642 79.956C447.725 78.7935 447.786 77.6408 447.786 76.7608C447.786 74.6303 447.076 69.4818 446.721 67.1738C442.992 71.4347 436.601 67.7064 428.612 67.7064C422.221 67.7064 421.688 73.7427 422.221 76.7608C422.926 81.6995 424.052 86.757 427.123 90.6886C427.479 91.1437 427.806 91.4915 428.079 91.6738Z" fill="#F7CBAF"/>
<path d="M431.913 86.7341C434.129 86.673 438.257 86.3673 438.661 86.7341C439.165 87.1927 435.051 90.5355 431.913 86.7341Z" fill="white"/>
<path d="M448.486 70.9675C448.296 72.1756 447.893 75.8489 447.645 78.7638C447.625 79.0042 447.319 79.0075 447.305 78.7666C447.108 75.3571 447.467 71.9658 446.934 68.7173L448.486 70.9675Z" fill="#26395E"/>
<path d="M421.108 71.7127C421.383 72.9045 422.041 76.5406 422.492 79.431C422.53 79.6695 422.834 79.6514 422.831 79.4101C422.79 75.9952 422.195 72.6372 422.499 69.3595L421.108 71.7127Z" fill="#26395E"/>
<mask id="mask0_6429_20142" style="mask-type:alpha" maskUnits="userSpaceOnUse" x="400" y="317" width="23" height="22">
<path d="M402.449 332.111C402.932 331.387 407.499 323.486 409.943 319.243C410.101 318.968 410.318 318.728 410.605 318.593C412.957 317.484 417.663 317.946 420.786 318.509C421.704 318.674 422.382 319.483 422.459 320.412L422.463 320.468C422.706 323.404 423.177 329.097 422.346 329.928C421.286 330.988 418.729 330.739 417.731 330.676C416.733 330.614 415.984 332.111 415.984 333.358C415.984 334.606 415.922 335.916 414.799 336.664C413.676 337.413 408.25 338.535 403.01 338.598C397.771 338.66 401.825 333.047 402.449 332.111Z" fill="#D9D9D9"/>
</mask>
<g mask="url(#mask0_6429_20142)">
<path d="M402.449 332.111C402.932 331.387 407.499 323.486 409.943 319.243C410.101 318.968 410.318 318.728 410.605 318.593C412.957 317.484 417.663 317.946 420.786 318.509C421.704 318.674 422.382 319.483 422.459 320.412L422.463 320.468C422.706 323.404 423.177 329.097 422.346 329.928C421.286 330.988 418.729 330.739 417.731 330.676C416.733 330.614 415.984 332.111 415.984 333.358C415.984 334.606 415.922 335.916 414.799 336.664C413.676 337.413 408.25 338.535 403.01 338.598C397.771 338.66 401.825 333.047 402.449 332.111Z" fill="#263E68"/>
<path d="M418.91 326.887C420.699 327.865 418.602 329.139 417.134 331.822C415.666 334.506 415.383 337.582 413.594 336.603C411.806 335.624 411.545 332.656 413.013 329.973C414.481 327.29 417.122 325.908 418.91 326.887Z" fill="#D9D9D9" fill-opacity="0.3"/>
<path d="M403.199 337.959C401.928 337.981 401.517 338.514 401.48 339.098C401.434 339.819 402.216 340.217 402.938 340.189C405.7 340.079 411.092 339.605 417.425 338.282C423.874 336.934 424.759 331.158 424.292 327.378C424.18 326.47 423.357 325.823 422.471 326.051C420.805 326.478 419.284 327.537 418.116 328.705C416.597 330.225 416.505 332.849 415.492 334.69C414.479 336.532 405.869 337.913 403.199 337.959Z" fill="#030304"/>
<path d="M407.159 327.604H412.97" stroke="#948D99"/>
<path d="M408.25 325.499H414.06" stroke="#948D99"/>
<path d="M409.641 323.416H415.451" stroke="#948D99"/>
</g>
<mask id="mask1_6429_20142" style="mask-type:alpha" maskUnits="userSpaceOnUse" x="451" y="317" width="23" height="22">
<path d="M471.536 332.111C471.054 331.387 466.486 323.486 464.043 319.243C463.884 318.968 463.668 318.728 463.38 318.593C461.029 317.484 456.323 317.946 453.199 318.509C452.282 318.674 451.604 319.483 451.527 320.412L451.522 320.468C451.279 323.404 450.808 329.097 451.639 329.928C452.699 330.988 455.257 330.739 456.255 330.676C457.253 330.614 458.001 332.111 458.001 333.358C458.001 334.606 458.064 335.916 459.186 336.664C460.309 337.413 465.736 338.535 470.975 338.598C476.214 338.66 472.16 333.047 471.536 332.111Z" fill="#D9D9D9"/>
</mask>
<g mask="url(#mask1_6429_20142)">
<path d="M471.536 332.111C471.054 331.387 466.486 323.486 464.043 319.243C463.884 318.968 463.668 318.728 463.38 318.593C461.029 317.484 456.323 317.946 453.199 318.509C452.282 318.674 451.604 319.483 451.527 320.412L451.522 320.468C451.279 323.404 450.808 329.097 451.639 329.928C452.699 330.988 455.257 330.739 456.255 330.676C457.253 330.614 458.001 332.111 458.001 333.358C458.001 334.606 458.064 335.916 459.186 336.664C460.309 337.413 465.736 338.535 470.975 338.598C476.214 338.66 472.16 333.047 471.536 332.111Z" fill="#263E68"/>
<path d="M455.075 326.887C453.286 327.865 455.384 329.139 456.852 331.822C458.32 334.506 458.602 337.582 460.391 336.603C462.18 335.624 462.44 332.656 460.972 329.973C459.504 327.29 456.864 325.908 455.075 326.887Z" fill="#D9D9D9" fill-opacity="0.3"/>
<path d="M470.787 337.959C472.057 337.981 472.468 338.514 472.505 339.098C472.551 339.819 471.769 340.217 471.047 340.189C468.285 340.079 462.893 339.605 456.56 338.282C450.112 336.934 449.226 331.158 449.693 327.378C449.805 326.47 450.628 325.823 451.514 326.051C453.18 326.478 454.702 327.537 455.869 328.705C457.389 330.225 457.481 332.849 458.494 334.69C459.507 336.532 468.116 337.913 470.787 337.959Z" fill="#030304"/>
<path d="M466.826 327.604H461.016" stroke="#948D99"/>
<path d="M465.735 325.499H459.925" stroke="#948D99"/>
<path d="M464.345 323.416H458.534" stroke="#948D99"/>
</g>
<mask id="mask2_6429_20142" style="mask-type:alpha" maskUnits="userSpaceOnUse" x="408" y="184" width="56" height="138">
<path d="M410.208 184.246C431.919 190.167 451.131 187.231 460.835 184.764C462.071 202.352 463.592 265.356 463.592 271.278C463.592 276.014 463.661 305.989 463.661 319.476C459.315 321.028 455.614 321.102 451.656 319.94C449.682 311.058 441.646 254.309 441.294 250.366C441.049 247.614 437.639 228.235 436.323 219.189C435.83 222.643 430.259 267.138 429.773 270.058C429.319 272.79 425.21 304.18 423.072 319.477C416.912 322.183 413.515 321.273 408.728 319.94C408.728 315.598 409.714 227.668 410.208 184.246Z" fill="#2A2F57"/>
</mask>
<g mask="url(#mask2_6429_20142)">
<path d="M410.208 184.246C431.919 190.167 451.131 187.231 460.835 184.764C462.071 202.352 463.592 265.356 463.592 271.278C463.592 276.014 463.661 305.989 463.661 319.476C459.315 321.028 455.614 321.102 451.656 319.94C449.682 311.058 441.646 254.309 441.294 250.366C441.049 247.614 437.639 228.235 436.323 219.189C435.83 222.643 430.259 267.138 429.773 270.058C429.319 272.79 425.21 304.18 423.072 319.477C416.912 322.183 413.515 321.273 408.728 319.94C408.728 315.598 409.714 227.668 410.208 184.246Z" fill="#EFD6B6"/>
<path d="M482.449 309.479C482.449 333.214 467.376 325.673 460.294 325.673C453.211 325.673 458.941 310.105 458.941 286.37C458.941 262.635 458.675 229.432 465.758 229.432C472.841 229.432 482.449 285.745 482.449 309.479Z" fill="#DDC3A1"/>
<path d="M438.131 308.55C435.479 331.907 425.122 323.214 419.859 322.617C414.596 322.019 420.594 307.182 423.246 283.824C425.899 260.467 429.412 227.769 434.675 228.366C439.938 228.964 440.784 285.193 438.131 308.55Z" fill="#DDC3A1"/>
<path d="M416.677 197.62C416.137 202.751 409.192 200.372 405.848 200.02C402.504 199.668 405.563 196.587 406.103 191.456C406.643 186.324 407.273 179.133 410.617 179.484C413.961 179.836 417.217 192.488 416.677 197.62Z" fill="black" fill-opacity="0.1"/>
<path d="M454.401 197.62C454.941 202.751 461.886 200.372 465.23 200.02C468.574 199.668 465.515 196.587 464.975 191.456C464.435 186.324 463.805 179.133 460.461 179.484C457.117 179.836 453.861 192.488 454.401 197.62Z" fill="black" fill-opacity="0.1"/>
</g>
<mask id="mask3_6429_20142" style="mask-type:alpha" maskUnits="userSpaceOnUse" x="374" y="94" width="123" height="95">
<path d="M393.082 144.777L406.269 133.41C406.269 138.541 406.927 169.43 407.256 184.233C430.941 192.128 454.626 187.523 463.507 184.233L459.066 133.41L478.194 144.795C479.094 145.331 479.428 146.471 478.959 147.408L465.481 174.364L467.948 178.805C473.869 175.253 489.166 155.285 496.074 145.745C489.001 134.396 473.277 109.922 466.961 102.817C460.645 95.7113 450.185 94.5929 445.744 94.9218L442.176 98.5611C438.359 102.453 432.129 102.572 428.167 98.8284L424.033 94.9218C420.25 94.9218 410.907 96.5008 403.802 102.817C396.814 109.028 381.935 133.25 375.03 145.157C374.805 145.544 374.716 145.984 374.815 146.421C376.738 154.889 392.502 170.44 400.348 177.325C401.532 176.141 403.802 174.2 404.789 173.378C403.664 171.878 396.514 156.012 392.558 147.095C392.201 146.29 392.416 145.352 393.082 144.777Z" fill="#D9C8C8"/>
</mask>
<g mask="url(#mask3_6429_20142)">
<path d="M426.635 96.3546C422.852 96.3546 411.894 100.245 404.789 106.561L406.269 133.405C406.269 138.537 406.927 169.426 407.256 184.229C430.941 192.124 454.626 187.519 463.508 184.229L458.967 127.934L478.603 144.725C479.301 145.322 479.502 146.318 479.092 147.14L465.481 174.36L467.948 178.801C473.87 175.249 489.166 155.281 496.074 145.741C489.002 134.392 471.797 113.667 465.481 106.561C459.165 99.4558 447.628 96.0256 443.187 96.3546L442.184 97.3994C438.377 101.367 432.08 101.516 428.09 97.733L426.635 96.3546Z" fill="#E8EFFB"/>
</g>
<path d="M443.245 96.2949L438.723 100.252C438.805 128.45 439.591 187.527 446.626 190.018C451.238 189.911 459.304 189.016 463.503 184.24L459.362 128.507L478.527 144.688C479.258 145.306 479.45 146.356 478.983 147.192L464.711 172.744L467.944 178.812C473.65 175.389 488.059 156.726 495.282 146.836C495.761 146.179 495.79 145.301 495.354 144.615C487.93 132.927 472.125 111.102 466.013 104.226C459.697 97.1209 447.686 95.9659 443.245 96.2949Z" fill="#1C3760"/>
<path d="M426.524 96.29C422.741 96.29 411.891 98.0435 404.785 104.359L406.265 133.411C406.265 138.543 406.923 169.432 407.252 184.235C416.066 189.761 424.039 190.329 428.126 190.301C430.809 152.295 429.971 140.311 430.931 100.476L426.524 96.29Z" fill="#1C3760"/>
<circle cx="440.931" cy="123.362" r="1.39436" fill="#455473"/>
<circle cx="441.361" cy="133.247" r="1.39436" fill="#455473"/>
<circle cx="441.583" cy="143.125" r="1.39436" fill="#455473"/>
<circle cx="442.33" cy="152.957" r="1.39436" fill="#455473"/>
<circle cx="443.34" cy="164.312" r="1.39436" fill="#455473"/>
<rect width="12.2131" height="10.7445" rx="0.520312" transform="matrix(0.989709 0.143092 -0.10739 0.994217 412.727 167.693)" fill="#3F5073"/>
<rect width="14.4623" height="3.4949" rx="0.260156" transform="matrix(0.995015 0.0997251 -0.15396 0.988077 412.12 166.704)" fill="#364563"/>
<rect width="12.2131" height="10.7445" rx="0.520312" transform="matrix(-0.989709 0.143092 0.10739 0.994217 458.185 169.094)" fill="#3F5073"/>
<rect width="14.4623" height="3.4949" rx="0.260156" transform="matrix(-0.995015 0.0997251 0.15396 0.988077 458.791 168.104)" fill="#364563"/>
<path d="M459.881 174.036C456.292 174.441 456.808 179.772 457.514 182.387C459.55 184.786 461.494 180.622 462.816 179.837C464.139 179.053 465.957 179.196 467.538 179.467C469.119 179.738 466.776 175.838 466.236 175.246C465.696 174.654 464.367 173.531 459.881 174.036Z" fill="#F7CBAF"/>
<path d="M468.121 178.958C466.962 177.684 464.86 175.124 463.886 174.232C464.189 173.865 464.456 173.171 464.923 172.299L469.465 177.693L468.121 178.958Z" fill="#1C3760"/>
<path d="M349.426 113.957C350.582 114.687 353.052 118.773 354.142 120.725L351.936 126.201C336.878 124.224 330.489 116.314 329.957 115.782C329.425 115.25 329.957 109.85 331.022 109.85C332.086 109.85 339.692 113.957 341.441 113.957C343.19 113.957 341.593 112.36 340.756 111.979C339.92 111.599 340.072 110.306 340.756 109.85C341.441 109.394 347.981 113.044 349.426 113.957Z" fill="#F7CBAF"/>
<path d="M390.404 143.92C392.788 143.588 404.9 130.24 410.659 123.608L411.301 100.155C400.17 104.459 384.848 128.059 383.954 128.184C383.239 128.283 363.267 121.451 353.37 118.022L351.174 127.326C355.732 130.595 387.424 144.336 390.404 143.92Z" fill="#1C3760"/>
<path d="M55.3578 306.819C55.7743 308.244 58.0508 321.582 61.52 328.2C54.232 333.568 49.6244 321.513 48.2316 314.814C48.3329 313.797 48.4252 309.175 48.4586 306.992L55.3578 306.819Z" fill="#F7CBAF"/>
<path d="M67.4452 332.962C67.5201 332.479 67.4127 331.369 66.384 330.799C65.0981 330.088 62.1116 328.173 61.6605 327.81C60.224 328.38 56.9194 329.121 55.1932 327.532C53.0354 325.546 48.4815 317.521 48.2492 314.292C48.2343 314.043 48.2609 313.5 48.4842 313.304C48.4862 313.302 48.4881 313.3 48.4901 313.299C48.4881 313.3 48.4861 313.302 48.4842 313.304C47.2251 314.39 44.7821 317.272 45.8329 320.137C47.1486 323.724 48.2586 325.253 48.1174 332.157L49.5372 332.122L49.5718 324.68C49.9846 325.39 50.6195 326.894 51.0646 329.086C51.621 331.826 52.0005 333.068 54.9334 333.275C57.8662 333.482 65.5688 334.297 67.4452 332.962Z" fill="#1B325A"/>
<path d="M75.3981 308.073C75.4619 310.648 78.7929 322.185 80.4504 327.632C74.0592 328.257 69.4246 319.064 67.9062 314.39C67.9966 313.708 67.9954 310.197 67.9835 308.527L75.3981 308.073Z" fill="#F7CBAF"/>
<path d="M63.9217 320.054C64.6725 321.604 65.3054 328.704 65.5279 332.061L67.2367 332.018C67.2127 330.46 67.1437 326.861 67.0596 324.93C66.9546 322.517 67.7683 323.563 68.9996 324.479C70.8155 325.831 73.2214 330.1 73.6998 331.341C74.1782 332.581 76.3746 332.75 82.0652 333.1C86.6176 333.38 89.1302 332.924 89.1034 331.851C89.0529 329.831 82.8705 328.06 81.2617 327.156C80.2409 326.582 79.4124 327.202 77.1139 326.558C75.6567 326.15 72.7896 321.834 72.4218 321.441C72.1277 321.126 69.1197 315.78 67.6524 313.147C65.6494 313.555 62.9831 318.118 63.9217 320.054Z" fill="#1B325A"/>
<path d="M83.9208 242.398C88.2692 229.166 90.1435 197.838 90.5371 183.828L67.7969 185.027C65.4268 215.233 60.6994 276.808 60.7507 281.463C60.802 286.118 64.0501 302.637 65.6677 310.315L77.7635 309.677C74.0699 294.831 78.4853 258.938 83.9208 242.398Z" fill="#243D6C"/>
<mask id="mask4_6429_20142" style="mask-type:alpha" maskUnits="userSpaceOnUse" x="60" y="183" width="31" height="128">
<path d="M83.9305 242.394C88.2789 229.162 90.1533 197.834 90.5469 183.824L67.8067 185.023C65.4366 215.229 60.7091 276.804 60.7604 281.459C60.8117 286.114 64.0598 302.633 65.6775 310.311L77.7733 309.673C74.0797 294.828 78.4951 258.934 83.9305 242.394Z" fill="#243D6C"/>
</mask>
<g mask="url(#mask4_6429_20142)">
<path d="M69.657 244.49C73.7435 231.175 72.4893 200.959 72.6064 186.944L52.4044 187.448C50.6307 217.695 47.1191 279.352 47.2622 284.005C47.4053 288.658 50.9787 305.11 52.7475 312.754L64.8284 311.878C60.8426 297.108 64.5489 261.134 69.657 244.49Z" fill="#1C3460"/>
</g>
<path d="M66.108 256.874C69.451 246.362 71.0025 203.738 71.3604 183.739L45.2594 186.809C39.4895 209.14 45.349 243.425 49 257.776C46.6665 269.76 43.9462 310.568 45.8471 310.468L58.9421 309.778C57.3397 289.021 63.0517 265.86 66.108 256.874Z" fill="#315091"/>
<path d="M92.9156 114.138C96.9495 119.446 93.9374 128.617 91.8433 132.725C91.7911 132.827 91.6631 132.859 91.5642 132.801C71.3263 120.875 47.4883 130.967 37.6312 137.531C37.5648 137.575 37.4788 137.572 37.4123 137.528C27.2475 130.794 37.1974 114.135 38.1161 113.16C39.0382 112.182 44.4148 109.378 43.4269 103.72C42.4389 98.0611 44.5945 93.0314 47.1991 89.8879C49.8038 86.7443 49.6242 82.7026 49.6242 81.4451C49.6242 80.1877 52.139 62.943 65.9707 62.6736C79.8024 62.4041 86.0895 70.4876 86.0895 74.4395C86.0895 78.3914 87.0775 83.5109 88.6044 87.0137C90.1313 90.5166 88.0655 96.3546 87.0775 101.744C86.0895 107.133 87.796 107.402 92.9156 114.138Z" fill="#26395E"/>
<path d="M72.3862 115.166C72.1095 113.428 72.6529 106.415 72.9941 102.766C73.0023 102.678 72.9511 102.597 72.8686 102.565L63.6598 98.8986C63.5269 98.8456 63.3828 98.943 63.3825 99.086C63.3746 103.437 61.4399 111.439 60.3872 115.209C60.3515 115.336 60.4482 115.46 60.5809 115.46H72.1545C72.2989 115.46 72.4089 115.309 72.3862 115.166Z" fill="url(#paint1_linear_6429_20142)"/>
<path d="M81.7327 83.7774C81.6804 83.0981 80.8158 79.2826 80.2583 76.8928C80.2113 76.6913 79.8991 76.6763 79.8139 76.8649C77.28 82.4762 64.1626 86.7078 61.9287 87.1266C59.5989 87.5635 57.9971 90.1118 57.7058 91.932C57.4751 93.3741 58.225 94.8875 58.6403 95.4824C58.6485 95.4942 58.6552 95.5063 58.6608 95.5195C60.9402 100.855 69.1834 103.596 73.0468 104.305C73.0617 104.308 73.0766 104.309 73.0917 104.308C80.8608 103.907 81.8054 84.723 81.7327 83.7774Z" fill="#F7CBAF"/>
<path d="M69.6826 96.4374C71.8087 96.5869 75.7867 96.6819 76.1383 97.0707C76.5778 97.5567 72.3277 100.369 69.6826 96.4374Z" fill="white"/>
<path d="M137.267 129.228C136.285 129.848 134.187 133.32 133.261 134.978L135.135 139.63C147.927 137.95 153.354 131.231 153.806 130.779C154.258 130.327 153.806 125.739 152.901 125.739C151.997 125.739 145.536 129.228 144.05 129.228C142.564 129.228 143.921 127.871 144.632 127.548C145.342 127.225 145.213 126.127 144.632 125.739C144.05 125.352 138.494 128.453 137.267 129.228Z" fill="#F7CBAF"/>
<path d="M102.456 154.684C100.431 154.402 90.1413 143.063 85.2497 137.428L85.6828 115.958C91.657 121.193 107.176 141.21 107.935 141.316C108.543 141.4 125.509 135.596 133.917 132.683L135.782 140.587C131.91 143.364 104.988 155.038 102.456 154.684Z" fill="#B14ABA"/>
<path d="M78.0729 112.719C69.2655 107.824 59.6401 110.513 55.7965 112.686C55.7312 112.723 55.6949 112.776 55.6984 112.851C56.0416 120.221 55.5526 167.929 56.6095 189.14C56.6138 189.227 56.6682 189.295 56.7524 189.316C62.4678 190.741 78.8981 188.909 86.6172 187.783C86.7132 187.769 86.7808 187.687 86.7836 187.59C87.9419 147.493 82.4134 119.842 78.1446 112.787C78.1268 112.757 78.1029 112.736 78.0729 112.719Z" fill="#E8EFFB"/>
<path d="M73.7886 121.992C75.8925 117.939 72.9968 113.202 72.3968 110.596C72.3845 110.543 72.3527 110.498 72.3056 110.47C69.207 108.636 63.6361 109.411 61.775 110.4C61.6682 110.457 61.6474 110.596 61.725 110.689C65.6738 115.417 69.3218 121.977 73.613 122.097C73.6864 122.099 73.7548 122.058 73.7886 121.992Z" fill="#EBC1A6"/>
<path d="M61.7583 209.897C59.6613 210.535 46.3544 209.418 39.7126 208.756C39.5811 208.743 39.4975 208.622 39.5385 208.496C40.8768 204.386 44.7454 178.539 46.57 165.765C46.9671 162.985 46.6736 158.198 43.468 166.768C40.9438 173.516 36.7916 146.902 37.6774 143.083C38.5633 139.264 40.2784 120.793 43.8875 117.51C46.7356 114.92 54.8116 112.302 58.6482 111.272C58.7407 111.248 58.8327 111.289 58.8745 111.376C60.7235 115.185 65.1196 123.929 68.4942 129.615C72.7667 136.815 71.6131 143.344 70.821 146.349C70.0289 149.355 67.5465 161.613 67.6087 165.52C67.6709 169.426 70.5448 191.659 70.9585 199.862C71.3722 208.064 64.4137 209.089 61.7583 209.897Z" fill="#B14ABA"/>
<rect width="11.7404" height="10.3286" rx="0.520312" transform="matrix(0.989709 0.143092 -0.10739 0.994217 49.4707 191.737)" fill="#93309C"/>
<rect width="13.9025" height="3.35962" rx="0.260156" transform="matrix(0.995015 0.0997251 -0.15396 0.988077 48.8887 190.784)" fill="#8A2993"/>
<path d="M90.4971 123.305C89.2554 115.556 78.8633 111.807 73.8224 110.901C80.7224 114.752 85.2953 147.717 85.4752 153.895C85.6551 160.072 85.7258 206.982 89.6125 207.366C92.6447 207.665 98.7103 204.907 101.57 203.385C101.68 203.326 101.712 203.187 101.637 203.086C98.4957 198.843 96.1978 182.779 95.433 175.167C94.9871 171.32 91.9566 138.989 90.4971 123.305Z" fill="#B14ABA"/>
<path d="M43.1081 193.421C42.9469 192.271 40.646 188.931 39.5157 187.404L34.5051 187.198C30.7722 199.548 34.663 207.259 34.8891 207.857C35.1152 208.456 39.482 209.931 39.8542 209.107C40.2264 208.282 39.7052 200.958 40.3167 199.604C40.9281 198.25 41.6064 200.044 41.6084 200.825C41.6104 201.606 42.6646 201.94 43.2572 201.569C43.8497 201.199 43.3096 194.859 43.1081 193.421Z" fill="#F7CBAF"/>
<path d="M34.2308 151.226C35.0075 148.28 37.6138 122.042 45.9666 117.717L53.4924 145.462C46.2632 148.753 44.5696 161.072 44.1605 161.72C43.8332 162.239 42.1417 180.091 41.3369 188.952L33.3659 187.4C32.4284 182.728 33.579 153.697 34.2308 151.226Z" fill="#B14ABA"/>
<path d="M65.5292 152.16C65.4167 152.892 65.7382 153.548 66.4699 153.661C67.2016 153.773 67.8859 153.271 67.9984 152.54C68.1109 151.808 67.609 151.124 66.8773 151.011C66.1457 150.899 65.6417 151.428 65.5292 152.16Z" fill="#8A2993"/>
<path d="M64.4951 169.322C64.3825 170.054 64.704 170.71 65.4357 170.823C66.1674 170.935 66.8517 170.433 66.9643 169.702C67.0768 168.97 66.5748 168.286 65.8432 168.173C65.1115 168.061 64.6076 168.59 64.4951 169.322Z" fill="#8A2993"/>
<path d="M64.497 161.121C64.3845 161.853 64.706 162.509 65.4377 162.622C66.1693 162.734 66.8537 162.232 66.9662 161.501C67.0787 160.769 66.5768 160.085 65.8451 159.972C65.1134 159.86 64.6095 160.389 64.497 161.121Z" fill="#8A2993"/>
<path d="M65.1132 177.511C65.0007 178.242 65.3222 178.899 66.0539 179.011C66.7856 179.124 67.4699 178.622 67.5824 177.89C67.6949 177.159 67.193 176.474 66.4613 176.362C65.7296 176.249 65.2257 176.779 65.1132 177.511Z" fill="#8A2993"/>
<path d="M65.9326 185.732C65.82 186.464 66.1415 187.121 66.8732 187.233C67.6049 187.346 68.2892 186.844 68.4018 186.112C68.5143 185.38 68.0123 184.696 67.2807 184.583C66.549 184.471 66.0451 185.001 65.9326 185.732Z" fill="#8A2993"/>
<defs>
<filter id="filter0_d_6429_20142" x="109.512" y="30.8867" width="296.212" height="234.998" filterUnits="userSpaceOnUse" color-interpolation-filters="sRGB">
<feFlood flood-opacity="0" result="BackgroundImageFix"/>
<feColorMatrix in="SourceAlpha" type="matrix" values="0 0 0 0 0 0 0 0 0 0 0 0 0 0 0 0 0 0 127 0" result="hardAlpha"/>
<feOffset dy="11"/>
<feGaussianBlur stdDeviation="11"/>
<feColorMatrix type="matrix" values="0 0 0 0 0.397708 0 0 0 0 0.47749 0 0 0 0 0.575 0 0 0 0.27 0"/>
<feBlend mode="normal" in2="BackgroundImageFix" result="effect1_dropShadow_6429_20142"/>
<feBlend mode="normal" in="SourceGraphic" in2="effect1_dropShadow_6429_20142" result="shape"/>
</filter>
<linearGradient id="paint0_linear_6429_20142" x1="256.905" y1="273.08" x2="256.905" y2="231.173" gradientUnits="userSpaceOnUse">
<stop stop-color="#E8ECF5"/>
<stop offset="0.9913" stop-color="#BDC4D7"/>
</linearGradient>
<linearGradient id="paint1_linear_6429_20142" x1="67.5212" y1="102.141" x2="66.5929" y2="110.944" gradientUnits="userSpaceOnUse">
<stop stop-color="#EBC1A6"/>
<stop offset="1" stop-color="#EBC1A6"/>
</linearGradient>
</defs>
</svg>
