<?xml version="1.0" encoding="UTF-8"?>
<svg id="Calque_32" data-name="Calque 32" xmlns="http://www.w3.org/2000/svg" viewBox="0 0 1044.29 946.22">
  <defs>
    <style>
      .cls-1 {
        fill: none;
      }

      .cls-2 {
        fill: #3f3d56;
      }

      .cls-3 {
        fill: #adddff;
      }

      .cls-4 {
        fill: #9e616a;
      }

      .cls-5 {
        fill: #fff;
      }

      .cls-6 {
        fill: #0079d0;
      }

      .cls-7 {
        fill: #9959d9;
      }

      .cls-8 {
        fill: #d19988;
      }

      .cls-9 {
        fill: #eaf5ff;
      }

      .cls-10 {
        fill: #0c5c98;
      }

      .cls-11 {
        fill: #ffcbae;
      }
    </style>
  </defs>
  <path d="M435.73,497.39s.04-.02.06-.03c-.12.01-.24.03-.36.04.1,0,.2,0,.3,0Z"/>
  <g>
    <path class="cls-3" d="M504.54,184.27c-81.73,0-148.23,66.49-148.23,148.23s66.49,148.23,148.23,148.23,148.23-66.49,148.23-148.23-66.49-148.23-148.23-148.23Z"/>
    <path class="cls-1" d="M587.71,279.71c-.17-.77-.35-1.54-.54-2.3.13.73.25,1.47.36,2.2.06.03.12.06.18.1Z"/>
    <path class="cls-1" d="M474.45,446.09c.04.17.07.35.11.53,0-.19,0-.38,0-.58-.04.01-.07.03-.11.05Z"/>
    <path class="cls-4" d="M600.76,316.08c-4.19-1.35-11.63.05-8.89-1.85-.23-11.98,1.69-23.82-1.25-35.66-.06-.03-1.41-3.69-1.47-3.72-5.04-25.5-25.93-44.48-51.77-50.56-28.6-5.84-61.78-4.19-85.53,14.25-14.99,12.13-26.99,28.22-28.58,47.33-1.74,11.03,1.58,42.81-.17,32.08-1.38-8.43-6.01-6.37-6.01-6.37-4.78-1.58-8.58,6.78-10.22,10.22-4.56,11.49,5.09,29.21,14.83,35.93,16.76,37.54,31.2,60.42,57.61,66.6-1.51,10.6-3.3,24.45-.53,31.33,10.53,8.07,24.31,10.57,36.65,6.57,4.04-1.5,19.29-5.23,19.19-10.6.67-7.29-1.49-21.2-2.68-30.95,28.41-9.4,40.9-30.41,46.57-57.74,28.6-1.45,28.01-34.95,22.25-46.85Z"/>
    <path class="cls-5" d="M500.03,390.63c-10.06-.59-20.28-2.82-29.15-7.71.28.78.59,1.55.92,2.31,7.94,18.85,32.6,28.97,50.46,17.55,7.23-4.46,12.45-11.69,15.57-19.51.13-.34.26-.69.38-1.04-3.99,1.91-8.07,3.62-12.26,5.03-8.32,2.75-17.18,3.82-25.92,3.36Z"/>
    <path class="cls-9" d="M537.87,440.01c-.73.05-1.45.11-2.18.18.05,1.94.06,3.88.03,5.82-.23,5.7.07,11.42-5.56,14.64-8.14,4.82-18.92,7.02-28.32,6.48-7.69-.4-24.93-4.83-26.72-13.44-.43-2.33-.56-8.62-.55-9.11-.29.03-.58.06-.85.09-1.24.15-2.48.32-3.73.49-12.28,1.6-24.24,3.68-36.09,6.66-4.18.98-8.34,2.07-12.38,3.42,23.7,16.08,52.28,25.49,83.02,25.49,35.14,0,67.46-12.3,92.89-32.81-10.4-3.22-21.09-5.4-31.89-6.72-9.24-1.21-18.4-1.85-27.67-1.18Z"/>
    <g>
      <path d="M504.54,179c-84.63,0-153.49,68.85-153.49,153.49,0,49.1,23.17,92.88,59.15,120.99.65.51,1.3,1,1.95,1.5,1.12.85,2.25,1.68,3.39,2.5,25.12,17.94,55.84,28.5,88.99,28.5,37.58,0,72.04-13.58,98.75-36.08,1.39-1.17,2.76-2.36,4.11-3.58.28-.25.55-.5.82-.75h0c30.6-28.08,49.81-68.37,49.81-113.07,0-84.63-68.86-153.49-153.49-153.49ZM504.54,480.72c-30.74,0-59.32-9.41-83.02-25.49,4.04-1.35,8.2-2.44,12.38-3.42,11.86-2.99,23.82-5.07,36.09-6.66,1.24-.17,2.48-.34,3.73-.49.27-.03.56-.06.85-.09,0,.49,0,.98,0,1.48,0,.19,0,.38,0,.58.01,2.37.13,4.73.56,7.06,1.79,8.61,19.03,13.05,26.72,13.44,9.4.54,20.18-1.66,28.32-6.48,5.63-3.22,5.33-8.94,5.56-14.64.04-1.94.02-3.88-.03-5.82.73-.06,1.45-.12,2.18-.18,9.27-.67,18.43-.03,27.67,1.18,10.79,1.32,21.48,3.51,31.89,6.72-25.43,20.51-57.75,32.81-92.89,32.81ZM430.06,369.27c-1.07-3.38-1.94-6.83-2.59-10.31v-.05c-.02-.06-.03-.12-.04-.18-.62-3.46-1.05-7.06-1.22-10.69,0-.15-.03-.63-.03-1.11-.01-1.36-1.06-2.52-2.45-2.54-1.33-.02-2.55,1.09-2.54,2.45.02,2.5.12,4.99.32,7.48-3.53-1.87-6.05-5.44-8.22-8.7-4.02-7.23-7.37-16.2-3.73-24.23,1.64-3.44,4.22-9.97,9-8.39,0,0,0,0,0,0,.33.28.69.45,1.04.53.14,1.36.32,2.72.59,4.06.18.93.4,1.85.75,2.73.17.44.37.89.66,1.26.48.63,1.13,1,1.91,1.04.1,0,.19,0,.29,0,.67-.04,1.31-.47,1.67-1.03.26-.4.36-.86.39-1.33.03-.53-.05-1.08-.12-1.61-.14-1.12-.28-2.24-.38-3.36-.21-2.24-.34-4.48-.41-6.73-.18-6.75.28-13.5.95-20.21.38-3.66.97-7.52,1.86-11.32.82-3.29,1.87-6.5,3.08-9.66,1.08-2.72,2.3-5.36,3.7-7.93,1.62-2.88,3.42-5.64,5.36-8.31,1.79-2.4,3.71-4.69,5.77-6.86,1.97-2.02,4.03-3.94,6.21-5.74,2.06-1.64,4.22-3.14,6.45-4.55,2.85-1.74,5.8-3.29,8.84-4.69,3.01-1.32,6.07-2.48,9.21-3.46,3.88-1.17,8.19-2.13,12.55-2.87,5.21-.82,10.67-1.3,16.15-1.51,6.27-.18,12.53-.04,18.78.54,4.56.48,9.08,1.21,13.54,2.29,2.49.65,5.31,1.53,8.09,2.57,2.43.98,4.79,2.09,7.11,3.32,2.35,1.34,4.61,2.8,6.8,4.38,2.39,1.81,4.68,3.73,6.85,5.8,2.15,2.12,4.17,4.34,6.08,6.68,1.84,2.34,3.53,4.77,5.11,7.29,1.81,3.01,3.45,6.1,4.92,9.29,1.5,3.38,2.79,6.81,3.89,10.34.34,1.14.64,2.29.93,3.45.19.76.37,1.53.54,2.3.25,1.16.49,2.32.7,3.49h0c.01.08.02.14.03.2.63,3.95,1.01,8.09,1.17,12.26.18,5.93.06,11.89-.34,17.81-.03.45-.05.89-.08,1.34-.04.48.08.93.28,1.33-.59.61-1.12,1.25-1.59,1.93-2.02,2.06-.43,5.61,2.23,5.05.25-.05.51-.13.78-.26,2.6-1.87,4.97-6.35,8.73-5.19,3.19,4.41,2.7,10.6,2.39,15.79.01,4.21-3.53,15.81-8.46,21.67-.07,0-.15-.03-.22-.03-1.56-.13-2.84,1.27-2.86,2.72-1.65.93-3.38,1.08-5.14.09.28-2.02.47-4.04.64-6.07.02-.1.03-.21.03-.31.01-.15.02-.29.03-.44.13-1.58-1.35-2.92-2.85-2.95-.27,0-.54.04-.8.11-.46.13-.9.35-1.25.68-.58.55-.85,1.27-.9,2.05-.01.15-.02.3-.03.45,0,.04,0,.07,0,.11-.03.39-.06.78-.09,1.17-.08.84-.17,1.67-.27,2.51-.1.84-.22,1.67-.35,2.5-.08.54-.18,1.07-.27,1.6-.21,1.21-.44,2.41-.7,3.6-.77,3.35-1.75,6.65-2.93,9.88-1.19,3.16-2.57,6.25-4.14,9.24l-.03.05s-.05.09-.07.14c-1.55,2.88-3.33,5.75-5.28,8.51-.04.05-.07.1-.11.16-.55.76-1.11,1.5-1.69,2.24-1.41,1.82-2.9,3.57-4.45,5.27h0c-.07.08-.14.16-.21.23-2.1,2.24-4.54,4.54-7.11,6.69-2.23,1.84-4.87,3.77-7.61,5.54-2.74,1.73-5.58,3.3-8.51,4.71-2.15,1-4.34,1.91-6.57,2.73-.96.35-1.92.69-2.89,1-1.21.39-2.5.75-3.82,1.1-1.92.5-3.93.96-5.96,1.34-3.33.59-6.69.97-10.08,1.14-3.43.14-6.86.08-10.28-.21-3.43-.32-6.83-.85-10.2-1.59-3.39-.79-6.72-1.78-9.98-2.97-3.16-1.2-6.25-2.59-9.24-4.16-2.89-1.56-5.67-3.28-8.36-5.16l-.03-.02c-.06-.04-.13-.09-.19-.13-2.64-1.9-5.26-4.04-7.76-6.34-2.29-2.15-4.44-4.43-6.47-6.82-2.16-2.6-4.15-5.31-5.98-8.15-1.77-2.81-3.38-5.71-4.8-8.71-1.42-3.05-2.65-6.17-3.7-9.36ZM430.82,387.63c.1,2.77-.29,5.57-1.27,8.17-1.92,5.46-7.63,11.03-13.62,7.65-3.44-2.32-5.21-6.43-6.47-10.25-2.74-9.52-1.36-19.79,2.2-28.91.96-2.35,1.98-4.7,3.48-6.76.1-.12.21-.23.31-.36,1.89,1.5,4,2.71,6.37,3.5.15.03.3.04.45.04.17,1.01.35,2.01.56,3.01,1.58,7.48,4.24,14.72,7.84,21.46,0,.81.11,1.66.16,2.44ZM575.68,386.32c2.7-4.84,4.94-9.95,6.62-15.25.76-2.38,1.39-4.79,1.93-7.23,3.32,1.07,6.33.57,9-.95.43.97.79,1.98,1.09,3.01,2.18,6.94,2.37,14.3,1.61,21.49-.56,4.19-.95,8.7-3.3,12.33-3.27,5.06-9.98,4.77-13.51.16-2.86-3.48-3.42-8.15-3.26-12.5,0-.39-.07-.74-.18-1.05ZM480.54,425.51c2.17.62,4.36,1.17,6.57,1.62,4.13.83,8.32,1.35,12.54,1.55,5.85.28,11.74-.06,17.51-1.05,3.99-.69,7.93-1.67,11.78-2.91.42,5.24.83,10.49,1,15.74.09,3.23.06,6.89-.29,10.49-.17,1.53-.27,3.25-1.71,4.14-2.48,2.04-5.62,3.02-8.62,4-12.33,4-27.05,3.09-37.58-4.97-1.7-1.81-1.14-4.7-1.33-7-.13-6.65.25-13.29.36-19.93.05-.6-.03-1.17-.21-1.67ZM602.65,443.49c-18.78-6.49-41.05-9.47-58.52-9.53-2.51.04-5.02.14-7.52.33-.39.03-.78.07-1.17.1-.22-3.8-.53-7.59-.84-11.38,0-.11-.04-.21-.06-.32,3.63-1.46,7.16-3.18,10.54-5.16,8.55-5.02,16.22-11.5,22.48-19.2,1.04-1.28,2.02-2.59,2.98-3.92,1.29,6.34,4.97,12.2,11.39,14.2,9.78,3.15,17.41-4.97,18.78-14.15,2.1-11.59,2.53-24.65-2.98-35.34,4.81-5.45,7.96-13.91,9.2-19.71,1.42-7.26,1.88-15.16-.84-22.18-2.09-5.53-6.68-6.41-10.95-4.83.36-5.91.45-11.85.22-17.76-.15-3.96-.52-7.92-1.16-11.83-.33-2.01-.72-4-1.19-5.98-.48-2.03-1.07-4.03-1.7-6.01-2.52-7.9-6.21-15.42-10.78-22.33-1.18-1.78-2.46-3.5-3.8-5.15-1.24-1.53-2.51-3.04-3.87-4.46-2.81-2.94-5.79-5.74-9.05-8.18-1.69-1.27-3.4-2.52-5.2-3.63-1.78-1.1-3.59-2.11-5.44-3.07-3.86-1.99-7.99-3.47-12.16-4.67-4.19-1.21-8.51-2-12.82-2.59-4.05-.56-8.16-.86-12.25-1-8.23-.27-16.48.02-24.65,1.09-8.16,1.07-16.24,3-23.86,6.13-3.6,1.48-7.1,3.22-10.45,5.19-3.55,2.08-6.96,4.43-10.08,7.11-6.1,5.26-11.39,11.45-15.59,18.33-2.07,3.39-3.91,6.91-5.39,10.6-1.61,4-2.94,8.07-3.94,12.26-.88,3.7-1.42,7.48-1.82,11.26-.42,4.01-.74,8.04-.91,12.07-.1,2.44-.12,4.88-.05,7.32-4.43-1.27-9.92,2.38-12.1,6.41-4.37,6.74-6.38,15.19-3.8,22.97,1.65,5.74,4.27,11.97,8.25,16.8-2.33,2.13-4.22,6.58-5.05,8.53-4.34,10.59-5.83,22.77-2.34,33.81,1.79,5.25,4.7,10.84,9.9,13.36,11,4.85,19.81-4.77,22.05-15.02,6.22,8.73,14.06,16.2,23.11,21.96,5.39,3.43,11.2,6.22,17.25,8.31-1.04.77-1.2,2.15-1.3,3.36-.32,3.87-.46,7.76-.53,11.64-.1,0-.21,0-.32.02-10.45.67-20.83,2.45-31.09,4.5-9.21,2.06-18.6,4.03-27.45,7.38-36.08-27.06-59.46-70.17-59.46-118.64,0-81.73,66.49-148.23,148.23-148.23s148.23,66.49,148.23,148.23c0,44.14-19.4,83.82-50.11,111Z"/>
      <path d="M592.48,346.11c3.7.25,3.26-4.07,3.69-6.6.29-2.35.54-4.7.9-7.04.2-1.41.36-3.21-1.01-4.11-5.44-2.51-4.94,7.16-5.62,10.3-.21,2.63-1.78,6.84,2.05,7.45Z"/>
      <path d="M559.39,247.44c.77.04,1.48-.12,2.09-.62.59-.47.96-1.17,1.04-1.92.16-1.48-.98-3.06-2.54-3.14-.77-.04-1.48.12-2.09.62-.59.47-.96,1.17-1.04,1.92-.16,1.48.98,3.06,2.54,3.14Z"/>
      <path d="M567.65,259.84c.78.04,1.51-.13,2.13-.63.6-.48.98-1.19,1.06-1.95.16-1.5-1-3.11-2.58-3.19-.78-.04-1.51.13-2.13.63-.6.48-.98,1.19-1.06,1.95-.16,1.5,1,3.11,2.58,3.19Z"/>
      <path d="M556.39,258.65c.78.04,1.5-.13,2.12-.62.59-.48.97-1.18,1.05-1.94.16-1.5-.99-3.1-2.56-3.17-.78-.04-1.5.13-2.12.62-.59.48-.97,1.18-1.05,1.94-.16,1.5.99,3.1,2.56,3.17Z"/>
      <path d="M414.86,324.14c-1.71.46-2.45,2.37-2.02,4-.24,1.48.5,2.97.89,4.38.6,1.47.79,3.12,1.65,4.45,1.29,1.75,4.26,1.26,4.97-.79.48-1.2-.1-2.43-.48-3.57-1.14-2.9-.28-9.34-5.02-8.46Z"/>
      <path d="M441.74,316.21c14.08-.06,30.12-1.11,42.66-7.92,5.65-3.49,2.82-9.77-2.77-11.18-9.42-2.29-15.31.25-30.35,4.33-15.03,4.07-11.01,5.38-14.94,7.3-1.47.72-2.28,2.39-1.81,3.95.49,1.62,2.98,3.5,7.2,3.53Z"/>
      <path d="M563.37,315.11c13.65,4.33,21.73-6.92,6.93-13.08-6.29-3.08-12.87-5.58-19.55-7.67-5.57-1.48-15.07-5.85-17.74,1.91-.44,1.62-.24,4.96,1.44,6.47,1.68,1.51,19.54,9.21,28.92,12.36Z"/>
      <path d="M475.24,333.6c3.19-.97,11.63.04,10.62-5.07-1.27-3.69-5.61-1.32-8.35-1.13-5.09.83-9.71,1.21-15.08,1-7.82-.19-16.33-2.1-24.16-3.53-1.41.22-2.59,1.64-2.29,3.11.72,2.48,3.93,3.27,7.07,3.77-.66,1.82.17,4.34,2.97,4.84,2.28.4,5.05-.9,5.41-3.36,0-.02,0-.04,0-.06,7.88,1.13,15.89,1.54,23.79.44Z"/>
      <path d="M533.43,330.9c1.4.13,2.8.23,4.21.31-.05,1.73,1.16,3.69,4.21,3.89,2.43.3,6.29-1.36,6.56-3.79,6.79-.23,13.57-1.05,20.18-2.54,2.14-.49,4.26-1.04,6.4-1.56,1.53-.38,2.41-2.11,1.99-3.59-.45-1.56-2.06-2.36-3.59-1.99-2.44.59-4.86,1.23-7.31,1.77-3.91.84-7.86,1.43-11.85,1.78-7.05.55-14.13.49-21.19.24-2.37-.24-4.38,2-2.81,4.14.78.95,2.04,1.17,3.2,1.35Z"/>
      <path d="M480.98,351.82c-.6-1.34-2.27-2.08-3.64-1.43-3.98,2.57-1,8.58,1.7,11.09,6.56,6.19,16.24,5.47,24.59,6.42,7.15.19,22.95-.03,26.98-6.56,1.82-2.68,4.45-9.45-.64-9.93-.78.02-1.52.35-2.05.91-1.15,1.25-.61,3.11-1.43,4.57-2.69,5.31-10.37,3.99-15.36,5.18-4.77.43-9.04-.09-14.01-.58-6.38-.37-16.18-1.48-16.15-9.68Z"/>
      <path d="M540.22,375.04c-.53.04-1.05.22-1.54.5-4.12,2.12-8.44,4.03-12.85,5.64-15.77,5.62-33.68,4.9-49.09-1.77-2.24-.96-4.29-2.29-6.47-3.36-1.19-.53-2.27-.3-3.03.3-.5-.01-.99.12-1.41.4.11-.62,0-1.3-.48-1.99-2.15-4.26-7.15-1.02-4.75,2.88.95,1.84,2.89,1.76,4.14.81-.45,2.22.33,4.56.97,6.68,3.7,11.31,12.85,20.19,23.62,24.94,25.84,11.22,51.38-6.77,56.26-33.09.51-3.46-3.97-4.56-5.37-1.94ZM537.82,383.27c-3.12,7.82-8.34,15.05-15.57,19.51-17.86,11.42-42.52,1.3-50.46-17.55-.33-.76-.63-1.54-.92-2.31,8.87,4.89,19.1,7.12,29.15,7.71,8.74.45,17.6-.61,25.92-3.36,4.19-1.41,8.27-3.12,12.26-5.03-.13.35-.25.69-.38,1.04Z"/>
      <path d="M553.96,369.84c-1.58-.07-2.96,1.18-3.03,2.76-.07,1.58,1.18,2.96,2.76,3.03,1.58.07,2.96-1.18,3.03-2.76.08-1.58-1.18-2.96-2.76-3.03Z"/>
    </g>
  </g>
  <g>
    <path class="cls-5" d="M793.34,600.6c.56-3.81.2-7.65-1.69-11.48-.25-.47-.52-.92-.8-1.36.96,1.76,1.7,3.63,2.13,5.69.58,2.39.64,4.78.35,7.15Z"/>
    <path class="cls-3" d="M652.74,678.43c13.85-7.76,29.26-12.71,44.97-14.9,0-.3,0-.6.01-.89.03-2.09.06-4.17.14-6.25-.04-1.03.05-2.37.47-3.44-4.38-1.69-8.6-3.75-12.57-6.26-14.19-9.57-25.38-24.75-28.07-41.86-.29-2.13-1.27-6.76-.15-9.15-4.61-2.46-8.6-5.88-10.92-10.39-2-4.62,1.05-9.09,3.33-12.96.49-.84.99-1.67,1.48-2.51-.23-.05-.45-.12-.69-.24-6.1-3.79-5.38-12.43-4.44-18.63,1.6-11.92,11.17-22.54,22.85-24.7.1-.12.19-.24.3-.35.59-1.14,1.45-2.15,2.63-2.68,1.81-.89,3.58-.21,4.95,1.08,1.45-2.38,4.51-9.91,7.57-12.87-6.06-5.15-10.09-12.49-9.87-20.62.34-7.96,13.45-22.11,14.51-22.93,2.57-1.78,5.21-3.44,7.78-5.21,1.03-.69,2.04-1.41,3.04-2.15-71.69,10.35-126.96,72.18-126.96,146.69,0,43.66,18.97,82.96,49.11,110.11.66-2.02,1.38-4.15,2.15-6.43,5.05-15.1,13.89-25.66,28.36-32.46Z"/>
    <path class="cls-3" d="M858.1,606.26c-2.74,5.92-4.21,12.44-7.9,17.9-9.82,12.81-27.2,12.99-41.82,11.19-6.22-.35-12.3,1.15-18.13,3.19-3.5.89-8.19,3.67-11.62,1.87-2.85,1.84-5.8,3.52-8.81,5.06-3.52,2.01-7.49,3.35-10.74,5.76.88,5.64,1.61,13.03,1.92,18.74.44,0,7.21,2.65,10.11,3.25,5.74.81,11.55-1.51,17.26-.52,16.22,2.73,32.73,5.97,46.92,14.68,2.49,1.57,4.86,3.35,7.11,5.3,17.12-24.17,27.19-53.67,27.19-85.48,0-4.87-.24-9.68-.7-14.43-4.2,4.15-8.21,8.43-10.77,13.5Z"/>
    <path class="cls-7" d="M679.59,632.03c-.17,0-.34.03-.51.04-.3.22-.63.39-.98.51.03.03.05.05.08.08.24-.1.48-.2.7-.3.24-.1.47-.22.71-.32Z"/>
    <path class="cls-8" d="M795.36,593.56c-.43-2.05-2.19-5.25-3.14-7.01-2.35-3.68-7.2-5.19-10.31-8.25-.97-.95-1.91-1.94-2.76-2.99-.58-.69-1.09-1.42-1.55-2.17h0c-1.94-3.12-2.94-6.72-3.62-10.33-.42-3.89-2.36-6.35-5-8.13h0s-.05-.03-.07-.04c-4.41-2.92-10.74-3.99-15.3-6.57-15.63-7.02-6.78-27.13-25.83-29.44-11.1-1.74-22.7,3.04-33.44-1.51-1.9-.7-3.73-1.59-5.47-2.64-.52,1.08-1.36,2.09-1.83,3.14-3.46,6.31-6.66,12.75-10.13,19.05-2.3,4.26-4.66,8.49-7.04,12.71,1.13.24,2.24.6,3.15.85,1.78.58,3.1,1.28,4.06,2.03.14-.3.28-.6.44-.9,1.84-3.53,4.36-6.67,7.42-9.22,3.24-2.7,7.02-4.66,11.03-5.81.53-1.12,1.36-2.27,2.58-3.47.54-.45,1.23-.6,1.89-.52.76-.38,1.69-.68,2.83-.87,4.85,0,9.33,1.91,13.6,4.38,9.35,3.8,20.64,9.83,22.71,15.85.89,3.98-1.92,7.89-5.59,9.38.48,3.46.4,7.01-.36,10.43,0,.03-.01.05-.02.08.02,0,.04.02.07.03h0s0,0,0,0c5.91,2.29,11.68,4.91,17.46,7.49,3.44,1.53,6.88,3.07,10.32,4.61,2.18.97,4.36,1.95,6.54,2.93.46.21.83.54,1.11.93,5.61-3.46,14.21-1.04,16.11,5.61,3.24,12.76-5.06,29.58-19.02,30.88-2.79.08-7.44-1.6-5.7-5.13,2.31-3.52,5.38,1.03,9.08-1.62,5.09-2.74,8.91-7.86,10.03-13.54.34-3.87,1.95-10.13-2.88-11.72-5.38-2.4-7.61,6.63-11.59,2.71-.84-1.06-.74-2.15-.22-3.15-3.05-1.37-6.1-2.74-9.16-4.1-4.2-1.88-8.4-3.77-12.59-5.68-2.8-1.27-5.61-2.54-8.37-3.89-.91-.44-1.82-.9-2.72-1.36-.12.31-.24.61-.38.92-.9,2.03-2.04,3.92-3.34,5.71-2.39,3.28-5.54,6.01-9.04,8.06-3.56,2.08-7.55,3.36-11.64,3.86-1.15.14-2.31.21-3.47.21-6.89,0-13.77-2.46-19.08-6.85-6.35-5.26-10.51-13.18-10.69-21.49-.02-.72,0-1.44.03-2.16-.21-.42-.32-.89-.3-1.39.02-.48.08-.96.09-1.06.15-1.48.41-2.94.76-4.37-.25-.12-.5-.27-.75-.45-1.55-1.44-3.58-2.15-5.62-2.56-.58-.02-1.21-.11-1.8-.27-3.21,5.61-6.47,11.18-9.78,16.73-1.53,3.62-6.47,8.01-4.9,12.05,4.71,6.78,13.58,10.24,21.57,11.13,3.31.77,3.06-3.42,3.05-5.64-.43-1.85-.29-4.19,1.89-4.76,4.57-.84,4.09,5.3,3.77,8.25-.28,5.46-4.75,9-10.13,7.84-3.15-.44-6.49-1.24-9.71-2.42,0,.25.02.5.03.74.2,2.52.66,5.01,1.08,7.1.8,3.97,2.12,7.8,3.83,11.46,1.67.44,3.42,1.16,4.77,1.11,5.28.9,11.08,1.19,16.32.71,5.09-.43,10.04-1.89,14.57-4.24.7-.36,1.39-.75,2.07-1.15.36-.38.71-.76,1.06-1.15.57-.85,1.35-1.69,2.23-2.13-2.35-3.83-3.09-7.28,1.91-7.04,1.71.86,2.1,2.94,3.24,4.35,1.96,2.86,4.2,5.53,6.75,7.88,2.69,2.61-1.45,6.76-4.1,4.1-.84-.71-2.58-2.48-4.34-4.6-.02.09-.03.18-.05.27-.7,1.43-1.95,2.42-3.38,3.24-.4.41-.8.83-1.22,1.24-6.46,6.33-13.7,11.96-21.94,15.77-.93.36-1.91.85-2.92,1.29,1.67,1.47,3.39,2.87,5.17,4.15,10.95,7.37,29.6,13.08,42.78,11.61,3.76-.39,4.57,5.09.79,5.74-3.78.5-7.6.43-11.38-.02-5.58-.78-11.16-1.97-16.57-3.68.06.76.05,1.54.1,2.2.07,2.07.07,4.14.07,6.21.03,5.74-.11,11.56.71,17.24.69,1.66,2.81,2.28,4.25,3.19,2.04,1.01,4.16,1.84,6.3,2.6,6.71,2.32,13.81,3.65,20.93,3.08,6.31-.41,12.54-2.33,17.88-5.75,2.79-1.32,1.59-13.98,1.54-16.81-.26-3.72-.66-7.43-1.22-11.12-1.36-5.72-.4-8.44,5.05-11.02,6.13-3.08,12.5-6.18,18.28-10.04.48-1.22,1.16-2.42,1.66-3.5,4.07-9.39,14.95-16.97,16.52-27.57.28-2.37.58-7.44,0-9.83ZM756.98,558.29c0-1.58,1.32-2.9,2.9-2.9s2.9,1.32,2.9,2.9-1.32,2.9-2.9,2.9-2.9-1.32-2.9-2.9ZM763.12,578.9c-1.56,0-2.87-1.3-2.87-2.87s1.3-2.87,2.87-2.87,2.87,1.3,2.87,2.87-1.3,2.87-2.87,2.87ZM765.91,568.38c-1.58,0-2.9-1.32-2.9-2.9s1.32-2.9,2.9-2.9,2.9,1.32,2.9,2.9-1.32,2.9-2.9,2.9ZM772.55,578.78c-1.58,0-2.9-1.32-2.9-2.9s1.32-2.9,2.9-2.9c1.01,0,1.92.55,2.44,1.36.17.27.3.57.38.89.05.21.08.43.08.65,0,1.58-1.32,2.9-2.9,2.9ZM766.88,602.95c1.21-2.18,1.03-6.23,4.35-6.11,1.48-.09,2.61,1.35,2.72,2.69.05,1.21-.51,2.35-.88,3.49-1.52,2.8-2.04,9.51-6.55,7.93-3.4-1.78-.4-5.53.37-7.99Z"/>
    <path class="cls-9" d="M667.01,532.79c-10.52,3.78-16.06,15.25-15.54,26.19.19,2.23.66,4.67,2.37,6.25.06.06.11.12.16.18,5.47-9.34,10.87-18.73,16.07-28.22-1.81-.79-2.85-2.53-3.07-4.41Z"/>
    <path class="cls-9" d="M728.49,564.71c-.04-1.1-.13-2.19-.28-3.2-.02-.11-.04-.22-.06-.33-4.4-1.38-8.41-3.97-12.63-5.82-5.38-2.74-16.45-7.04-19.49-12.98-.6.22-1.19.44-1.78.7-.99.46-1.96.97-2.89,1.54-.9.58-1.78,1.21-2.61,1.88-.81.68-1.58,1.41-2.31,2.17-.73.8-1.41,1.64-2.05,2.51-.59.86-1.14,1.74-1.64,2.65-.47.9-.88,1.83-1.26,2.78-.36.97-.66,1.95-.91,2.95-.25,1.07-.43,2.16-.55,3.25-.03.28-.04.57-.07.85-.04.47-.16.91-.37,1.31.04,1.09.16,2.17.31,3.25.19,1.16.44,2.32.76,3.45.34,1.13.75,2.23,1.22,3.31.46,1.01.98,1.98,1.56,2.93.6.94,1.24,1.84,1.94,2.71.71.84,1.47,1.64,2.27,2.4.81.73,1.64,1.41,2.53,2.04.84.58,1.71,1.12,2.61,1.61.9.47,1.82.89,2.77,1.26.98.36,1.97.67,2.98.92,1.04.24,2.09.42,3.14.54,1,.09,2.01.13,3.02.13,1.1-.03,2.19-.13,3.28-.29,1.07-.18,2.13-.42,3.17-.72,1.01-.31,2-.68,2.97-1.1,1.02-.47,2.02-1,2.98-1.59.91-.58,1.79-1.22,2.62-1.9.78-.67,1.53-1.37,2.24-2.12.72-.79,1.39-1.61,2.02-2.47.59-.85,1.14-1.74,1.64-2.65.48-.92.9-1.86,1.28-2.82,1.23-2.03,1.33-5.07,1.45-6.08.1-1.02.14-2.05.13-3.08Z"/>
    <path class="cls-5" d="M679.59,632.03c4.11-1.82,8.12-3.98,11.84-6.46.62-.42,1.21-.88,1.82-1.32-5.71,1.02-11.62,1.02-17.37.38-1.05-.24-2.74-.42-4.56-.68,2,3.07,4.28,5.96,6.79,8.63.34-.12.67-.29.98-.51.17,0,.34-.03.51-.04Z"/>
    <path class="cls-10" d="M755.01,689.33c-8.81,5.1-19.33,6.62-29.36,5.38-6.69-.96-13.28-2.91-19.39-5.81-4.17-1.97-8.14-4.55-8.07-9.69-.35-3.36-.48-6.74-.51-10.11-3.91.86-8.79,1.41-10.66,2.22-10.91,2.58-21.68,6.65-31.41,12.11-10.64,5.1-19.6,13.07-23.76,24.34-1.52,4.1-3.45,8.82-4.94,13.61,25.66,21.26,58.57,34.05,94.42,34.05,47.86,0,90.49-22.81,117.61-58.12-7.92-6.74-17.85-11.14-27.78-13.9-13.24-3.56-26.83-5.55-40.36-7.63-3.05-.74-6.57-.61-9.68-1.36,0,.93-.02,1.86-.06,2.79-.31,5.47-.58,9.54-6.06,12.13Z"/>
    <path d="M758.27,669.05s0-.05,0-.07c-.11.07-.2.16-.29.24.1-.06.19-.12.3-.17Z"/>
    <path d="M768.93,554.62s-.01.01-.02.02c.02.01.05.03.07.04-.01-.02-.03-.04-.04-.06Z"/>
    <path d="M775.37,575.23c-.08-.32-.21-.62-.38-.89.13.29.25.59.38.89Z"/>
    <path d="M711.91,614.92s.08.09.12.14c.02-.13.03-.26.04-.38-.05.08-.1.16-.16.24Z"/>
    <g>
      <path d="M886.37,563.92c.14-13.04-11.19-21.49-17.27-31.84-5.44-10.9-1.7-23.98-6.88-35.07-3.73-9.81-15.51-10.77-22.35-17.29-2.87-3.26-4.47-7.37-6.59-11.11-4.18-7.69-9.59-14.7-15.84-20.81-10.43-10.11-24.67-19.1-39.77-16.5-9.94,2.11-18.53,8.21-28.43,10.47-10.13,1.77-21.19-.9-30.49,4.67-3.86,2.27-7.38,5.04-10.86,7.87-78.35,6.84-140.03,72.79-140.03,152.89,0,84.63,68.85,153.49,153.49,153.49s153.49-68.85,153.49-153.49c0-6.48-.41-12.86-1.19-19.13,6.76-6.74,12.79-13.84,12.73-24.15ZM727.78,518.63c19.05,2.31,10.2,22.42,25.83,29.44,4.56,2.58,10.89,3.65,15.3,6.57,0,0,.01-.01.02-.02.01.02.03.04.04.06,2.65,1.78,4.59,4.24,5,8.13.68,3.61,1.68,7.21,3.62,10.33.47.75.97,1.48,1.55,2.17.85,1.06,1.79,2.04,2.76,2.99,3.11,3.05,6.59,5.79,8.94,9.46.28.44.55.89.8,1.36,1.88,3.83,2.25,7.67,1.69,11.48-1.57,10.6-10.43,20.96-14.5,30.35-.5,1.08-1.19,2.28-1.66,3.5-5.78,3.86-12.15,6.96-18.28,10.04-5.44,2.58-6.4,5.3-5.05,11.02.57,3.69.96,7.4,1.22,11.12.05,2.83,1.25,15.48-1.54,16.81-5.34,3.42-11.57,5.34-17.88,5.75-7.12.58-14.21-.76-20.93-3.08-2.15-.75-4.26-1.59-6.3-2.59-1.43-.91-3.56-1.53-4.25-3.19-.82-5.68-.68-11.5-.71-17.24,0-2.07,0-4.14-.07-6.21-.05-.66-.04-1.44-.1-2.2,5.41,1.7,10.99,2.9,16.57,3.68,3.78.45,7.6.52,11.38.02,3.79-.65,2.98-6.13-.79-5.74-13.18,1.46-31.83-4.24-42.78-11.61-1.78-1.29-3.51-2.68-5.17-4.15,1.01-.44,1.99-.93,2.92-1.29,8.24-3.81,15.48-9.45,21.94-15.77.41-.4.81-.82,1.22-1.24,1.43-.82,2.68-1.81,3.38-3.24.03-.09.04-.18.05-.27-.04-.05-.08-.09-.12-.14.06-.08.11-.16.16-.24,0,.13-.01.25-.04.38,1.77,2.12,3.51,3.89,4.34,4.6,2.65,2.66,6.79-1.49,4.1-4.1-2.55-2.35-4.79-5.02-6.75-7.88-1.14-1.41-1.53-3.49-3.24-4.35-5-.25-4.26,3.21-1.91,7.04-.88.45-1.66,1.28-2.23,2.13-.35.39-.7.77-1.06,1.15-.68.4-1.37.79-2.07,1.15-4.53,2.35-9.48,3.81-14.57,4.24-5.23.48-11.03.19-16.32-.71-1.35.05-3.1-.67-4.77-1.11-1.72-3.65-3.04-7.48-3.83-11.46-.42-2.09-.88-4.59-1.08-7.1-.01-.24-.02-.49-.03-.74,3.23,1.18,6.56,1.98,9.71,2.42,5.38,1.17,9.85-2.38,10.13-7.84.32-2.95.8-9.09-3.77-8.25-2.19.57-2.32,2.91-1.89,4.76.01,2.22.26,6.41-3.05,5.64-7.99-.9-16.86-4.35-21.57-11.13-1.57-4.04,3.38-8.42,4.9-12.05,3.3-5.55,6.57-11.13,9.78-16.73.59.16,1.22.25,1.8.27,2.04.41,4.07,1.12,5.62,2.56.25.19.5.33.75.45-.35,1.43-.61,2.89-.76,4.37-.01.11-.07.59-.09,1.06-.02.49.09.97.3,1.39-.04.72-.05,1.44-.03,2.16.18,8.31,4.34,16.23,10.69,21.49,5.3,4.4,12.19,6.85,19.08,6.85,1.16,0,2.32-.07,3.47-.21,4.09-.5,8.08-1.78,11.64-3.86,3.49-2.05,6.64-4.78,9.04-8.06,1.3-1.79,2.44-3.68,3.34-5.71.13-.3.25-.61.38-.92.91.46,1.81.92,2.72,1.36,2.77,1.35,5.57,2.62,8.37,3.89,4.19,1.9,8.39,3.8,12.59,5.68,3.05,1.37,6.1,2.74,9.16,4.1.2-.39.47-.76.76-1.11-.3.35-.56.73-.76,1.11-.52,1.01-.62,2.1.22,3.15,3.98,3.92,6.21-5.11,11.59-2.71,4.84,1.59,3.22,7.85,2.88,11.72-1.11,5.68-4.94,10.8-10.03,13.54-3.7,2.65-6.77-1.89-9.08,1.62-1.74,3.52,2.92,5.2,5.7,5.13,13.97-1.3,22.27-18.12,19.02-30.88-1.9-6.66-10.51-9.07-16.11-5.61-.28-.39-.65-.73-1.11-.93-2.18-.97-4.36-1.95-6.54-2.93-3.44-1.53-6.88-3.07-10.32-4.61-5.78-2.58-11.56-5.2-17.46-7.49h0s0,0,0,0c-.02,0-.04-.02-.07-.03,0-.03.01-.05.02-.08.75-3.42.84-6.97.36-10.43,3.67-1.48,6.48-5.39,5.59-9.38-2.07-6.02-13.37-12.06-22.71-15.85-4.28-2.47-8.75-4.38-13.6-4.38-1.14.19-2.07.49-2.83.87-.66-.07-1.35.08-1.89.52-1.22,1.2-2.05,2.36-2.58,3.47-4.01,1.14-7.78,3.1-11.03,5.81-3.06,2.55-5.58,5.69-7.42,9.22-.15.3-.3.6-.44.9-.96-.75-2.28-1.45-4.06-2.03-.91-.25-2.02-.61-3.15-.85,2.38-4.22,4.74-8.45,7.04-12.71,3.47-6.3,6.67-12.74,10.13-19.05.47-1.05,1.31-2.06,1.83-3.14,1.74,1.05,3.57,1.94,5.47,2.64,10.74,4.54,22.34-.24,33.44,1.5ZM735.18,690.69c-1.4.06-2.79.1-4.19.09,0,0,0,0,0,0,1.4,0,2.79-.03,4.19-.09ZM730.99,690.79c-.15.01-.31.02-.46.03.15-.01.31-.02.46-.03h0ZM679.59,632.03c-.24.1-.47.22-.71.32-.22.11-.46.2-.7.3-.03-.03-.05-.05-.08-.08-2.51-2.67-4.79-5.56-6.79-8.63,1.82.26,3.51.44,4.56.68,5.75.63,11.67.64,17.37-.38.43-.32.88-.62,1.3-.95-.43.33-.87.63-1.3.95h0c-.6.44-1.2.9-1.82,1.32-3.71,2.48-7.73,4.64-11.84,6.46ZM651.47,558.98c-.52-10.94,5.02-22.41,15.54-26.19.22,1.88,1.26,3.61,3.07,4.41-5.2,9.49-10.6,18.88-16.07,28.22-.06-.06-.1-.12-.16-.18-1.72-1.58-2.19-4.02-2.38-6.25ZM696.03,542.39c3.04,5.94,14.11,10.24,19.49,12.98,4.22,1.84,8.23,4.43,12.63,5.82.02.11.05.22.06.33.15,1.01.25,2.1.28,3.2.01,1.03-.03,2.05-.13,3.08-.12,1-.28,2-.5,2.99,0,0,0,.01,0,.02-.19.79-.43,1.57-.69,2.34-.08.24-.16.49-.25.73-.38.96-.8,1.9-1.28,2.82-.5.91-1.05,1.8-1.64,2.65-.63.86-1.3,1.68-2.02,2.47-.71.75-1.46,1.45-2.24,2.12-.84.68-1.71,1.31-2.62,1.9-.96.59-1.96,1.12-2.98,1.59-.97.42-1.96.79-2.97,1.1-1.05.3-2.1.54-3.17.72-1.09.16-2.18.26-3.28.29-1.01,0-2.01-.03-3.02-.12-1.06-.12-2.11-.3-3.14-.54-1.01-.25-2.01-.56-2.98-.92-.95-.37-1.87-.79-2.77-1.26-.9-.49-1.77-1.03-2.61-1.61-.88-.64-1.72-1.32-2.53-2.04-.8-.76-1.56-1.56-2.27-2.4-.7-.86-1.35-1.77-1.94-2.71-.57-.95-1.09-1.92-1.56-2.93-.47-1.08-.88-2.19-1.22-3.31-.32-1.14-.57-2.29-.76-3.45-.16-1.08-.27-2.16-.31-3.25.22-.39.33-.84.37-1.31.03-.28.04-.56.07-.85.12-1.09.3-2.18.55-3.25.25-1,.56-1.98.91-2.95.37-.95.79-1.87,1.26-2.78.5-.91,1.04-1.8,1.64-2.65.63-.88,1.32-1.71,2.05-2.51.73-.77,1.5-1.49,2.31-2.17.84-.67,1.71-1.3,2.61-1.88.93-.57,1.9-1.08,2.89-1.54.59-.26,1.18-.48,1.78-.7q-.32-.63,0,0ZM622.23,717.3c-30.13-27.15-49.11-66.44-49.11-110.1,0-74.51,55.27-136.35,126.96-146.69-1,.74-2.01,1.46-3.04,2.15-2.57,1.77-5.22,3.43-7.78,5.21-10,7.27-14.17,14.97-14.51,22.93-.23,8.13,3.81,15.46,9.87,20.62-3.06,2.95-6.11,10.48-7.57,12.87-1.36-1.29-3.13-1.97-4.95-1.08-1.18.53-2.04,1.55-2.63,2.68-.11.11-.2.23-.3.35-11.68,2.17-21.25,12.78-22.85,24.7-.95,6.2-1.67,14.84,4.44,18.63.23.11.46.18.69.24-.49.84-.99,1.67-1.48,2.51-2.29,3.87-5.34,8.34-3.33,12.96,2.32,4.52,6.31,7.93,10.92,10.39-1.12,2.38-.14,7.01.15,9.15,2.69,17.11,13.88,32.29,28.07,41.86,3.97,2.51,8.19,4.57,12.57,6.26-.42,1.07-.51,2.41-.47,3.44-.07,2.08-.11,4.17-.14,6.25,0,.3,0,.6-.01.89-15.71,2.19-31.12,7.14-44.97,14.9-14.47,6.8-23.31,17.36-28.36,32.46-.77,2.27-1.49,4.4-2.15,6.42ZM721.34,755.43c-35.85,0-68.76-12.79-94.42-34.05,1.49-4.79,3.42-9.5,4.94-13.61,4.16-11.27,13.12-19.24,23.76-24.34,9.72-5.46,20.49-9.53,31.4-12.11,1.87-.8,6.75-1.36,10.66-2.22.03,3.38.15,6.76.51,10.11-.08,5.14,3.9,7.72,8.07,9.69,6.11,2.9,12.7,4.85,19.39,5.81,10.03,1.24,20.55-.29,29.36-5.38,5.48-2.59,5.74-6.67,6.06-12.13.04-.93.06-1.86.06-2.79,3.11.75,6.63.62,9.68,1.36,13.53,2.08,27.13,4.07,40.36,7.63,9.93,2.76,19.86,7.16,27.78,13.9.08-.1.16-.21.24-.31,1.08-1.42,2.15-2.85,3.18-4.31-2.25-1.94-4.62-3.72-7.11-5.3-14.18-8.72-30.7-11.95-46.92-14.68-5.71-.99-11.44-1.87-17.18-2.68-2.27-.32-4.53-.63-6.8-.93-.96-.24-2.19-.43-3.36-.45,0-.12,0-.24-.02-.36-.3-5.71-1.04-11.41-1.92-17.05,3.25-2.41,7.22-3.75,10.74-5.76,3.02-1.54,5.97-3.22,8.81-5.06,3.43,1.8,8.12-.98,11.62-1.87,5.82-2.04,11.91-3.54,18.13-3.19,14.62,1.8,32.01,1.62,41.82-11.19,3.69-5.46,5.16-11.98,7.9-17.9,2.55-5.07,6.56-9.34,10.77-13.5.46,4.75.7,9.56.7,14.43,0,81.73-66.49,148.23-148.23,148.23Z"/>
      <path d="M759.88,561.19c1.58,0,2.9-1.32,2.9-2.9s-1.32-2.9-2.9-2.9-2.9,1.32-2.9,2.9,1.32,2.9,2.9,2.9Z"/>
      <path d="M765.91,568.38c1.58,0,2.9-1.32,2.9-2.9s-1.32-2.9-2.9-2.9-2.9,1.32-2.9,2.9,1.32,2.9,2.9,2.9Z"/>
      <path d="M772.55,578.78c1.58,0,2.9-1.32,2.9-2.9,0-.22-.03-.44-.08-.65-.13-.3-.25-.6-.38-.89-.52-.81-1.42-1.36-2.44-1.36-1.58,0-2.9,1.32-2.9,2.9s1.32,2.9,2.9,2.9Z"/>
      <path d="M763.12,573.16c-1.56,0-2.87,1.3-2.87,2.87s1.3,2.87,2.87,2.87,2.87-1.3,2.87-2.87-1.3-2.87-2.87-2.87Z"/>
      <path d="M682.24,563.95c.9,2.17,3.74,4.16,7.34,5.89-.57,1.22-.62,2.82-.05,3.9,1.91,2.66,4.74.81,5.61-1.62,5.7,2.04,11.79,3.47,14.98,4.05,3.49.54,4.55-4.86,1.11-5.68-6.53-1.25-12.98-3.05-19-5.92-2.92-1.19-9.46-6.98-9.98-.63Z"/>
      <path d="M766.51,610.94c4.51,1.59,5.04-5.13,6.55-7.93.37-1.13.93-2.27.88-3.49-.11-1.33-1.23-2.78-2.72-2.69-3.32-.12-3.14,3.93-4.35,6.11-.78,2.46-3.77,6.21-.37,7.99Z"/>
    </g>
  </g>
  <g>
    <path class="cls-9" d="M922.39,555.4c.81,1.04,1.48,2.25,1.26,3.61-.51,2.68-3.16,5.12-4.15,7.46-1.63,2.56-2.31,8.68-6.61,6.59-1.8-1.15-1.9-3.97-2.92-5.56-.9-2.01-2.35-3.81-3.04-5.9-1.68.31-3.28-1.5-2.98-3.08.12-1.15,1.15-1.83,1.71-2.77,2.17-3.2,3.5-6.85,4.35-10.6.33-1.34.45-2.9,1.29-4.04.97-1.31,2.93-1.52,4.2-.54,1.82,1.72,1.86,4.51,2.75,6.74.99,2.88,2.46,5.55,4.12,8.09Z"/>
    <path class="cls-9" d="M945.94,576.92c.14,1.95-1.22,3.64-1.95,5.37-1.03,2.51-2.95,2.64-4.53.46l.05.06c-.54-.61-1.08-1.23-1.61-1.85-1.32.61-2.72-1.03-1.92-2.24.16-.3.36-.59.55-.88.95-1.42,1.82-2.89,2.59-4.41.34-.69.63-1.42,1.38-1.77.94-.44,1.96.12,2.51.91.97,1.43,2.38,2.7,2.92,4.35Z"/>
    <path class="cls-6" d="M906.09,717.68c-1.94-3.1.26-7.94,3.83-8.56,1.78-.29,3.9.96,3.68,2.94,4.12,4.93-3.89,10.86-7.51,5.62Z"/>
    <path d="M925.43,558.3s.01-.03.01-.04c0-.02,0-.03-.01-.04-.01-.46-.15-.93-.45-1.38-.35-.81-.76-1.32-1.22-1.57-.69-.89-1.34-1.8-1.93-2.76-3.97-6.6-5.09-14.32-6.55-21.74-.58-3.58-5.58-3.59-6.06.03-.33,3.33-.78,6.65-1.68,9.89-1.4,4.82-3.23,10.79-7.15,14.4-.52.42-.81.92-.93,1.44-.01.02-.03.03-.04.05-1.36,2.25.79,4.09,2.18,5.48,1.85,1.98,3.44,4.23,4.79,6.65,2.48,3.41,3.51,13,7.02,13.9,2.86.65,3.79-2.83,3.91-5.28.54-4.02,1.52-8,3.36-11.54.79-2.06,2.52-3.55,3.71-5.31.63-.56,1.03-1.35,1.04-2.19ZM913.18,570.71c-.7-2.15-4.16-8.88-7.64-12.66,3.43-3.64,5.31-8.57,6.82-13.28.36,1.25.76,2.49,1.21,3.72,1.3,3.57,3.05,6.95,5.33,9.97-2.86,3.94-5.52,10.17-5.72,12.25Z"/>
    <path d="M946.75,576.14c-.07-.21-.18-.4-.32-.59-1.07-1.33-1.96-2.81-2.62-4.38-.56-1.84-2.39-4.78-4.27-2.35-.86,2.15-1.31,4.54-2.89,6.36-.65,1.33-3.24,2.33-3.07,3.79-.03.23-.02.5.05.82.18.61.69.86,1.19,1.08,3.7,1.37,3.63,5.06,5.32,7.96,3.79,2.45,2.12-6.44,6.99-10.08.9-.84.45-2.14-.38-2.62ZM940.98,582.83c-.74-1.6-1.87-3.01-3.29-3.96,1.68-1.61,3.15-4.2,3.64-5.43.69,1.47,1.59,2.84,2.6,4.11-1.33,1.5-2.29,3.34-2.95,5.28Z"/>
    <path d="M904.8,723.77c-2.1-1.17-3.75-3.04-4.53-5.33-1.05-3.07-.47-6.39,1.44-8.98,1.16-1.48,2.68-2.63,4.47-3.25.64-.22,1.32-.38,2-.48.28-.12.58-.19.9-.19,2.85-.04,5.57,1.07,7.51,3.2,1.66,1.82,2.5,4.22,2.49,6.66-.02,3.43-2.02,6.62-4.97,8.31-1.42.81-3.07,1.22-4.72,1.22-1.6,0-3.2-.39-4.59-1.16ZM909.42,719.15c.18,0,.35-.02.53-.04.16-.03.33-.06.49-.1.18-.06.35-.12.52-.18.13-.06.25-.12.38-.19.15-.09.29-.19.43-.3.14-.12.28-.24.42-.37.11-.13.23-.25.33-.39.1-.14.19-.28.28-.42.08-.14.15-.29.21-.44.05-.14.1-.29.15-.43.04-.18.08-.36.11-.54.02-.17.03-.34.03-.51,0-.18-.02-.35-.04-.53-.03-.17-.06-.34-.1-.51-.05-.17-.11-.33-.17-.49-.08-.16-.16-.32-.25-.48-.09-.13-.17-.26-.27-.39-.11-.13-.23-.26-.35-.39-.11-.1-.22-.2-.34-.3-.14-.1-.29-.2-.44-.29-.14-.08-.28-.15-.43-.21-.16-.06-.32-.12-.49-.17-.17-.04-.35-.08-.52-.11-.25-.03-.5-.04-.54-.04-.17,0-.35-.02-.51-.04-.17.03-.33.07-.5.11-.17.06-.34.12-.5.18-.13.07-.26.13-.39.2-.16.1-.31.2-.47.31-.14.12-.27.24-.4.36-.11.12-.22.25-.32.38-.1.14-.19.28-.28.42-.07.14-.14.29-.21.43-.05.15-.1.29-.15.44-.05.2-.09.4-.12.6-.01.17-.02.34-.03.51,0,.19.02.37.04.55.03.18.07.35.12.53.05.16.11.32.17.47.07.15.14.29.22.43.09.14.19.29.29.42.11.13.23.26.34.39.12.11.23.21.35.31.14.1.28.19.42.28.15.08.3.15.46.22.16.06.32.12.49.16.17.04.34.07.52.1.18.02.35.03.53.04Z"/>
    <path d="M903.38,488.8c-1.46-4.54,21.78-21.06,26.02-25.54,4.11-3.48,8.23-6.94,12.38-10.35,1.22-1,3.12-.7,4.07.52.99,1.27.7,3.06-.52,4.06-9.94,8.16-19.73,16.51-29.43,24.96-2.44,2.21-4.99,4.34-7.13,6.85-1.08,2.34-4.72,2.01-5.39-.51Z"/>
    <path d="M890.21,485.34c-3.68-1.85-.53-5.55,1.14-7.68,3.52-4.7,7.07-9.38,10.7-14,2.27-2.98,6.92.59,4.59,3.54-2.3,2.92-4.55,5.88-6.81,8.84-1.99,2.61-4.03,5.2-5.89,7.9-.58,1.38-2.38,1.96-3.72,1.4Z"/>
    <path d="M981.82,684.14c-10.91-4.7-21.67-9.75-32.7-14.16-1.85-.72-4.55-.99-4.52-3.56.84-5.61,7.38-1.29,10.5-.25,9.71,4.1,19.3,8.45,28.95,12.67,3.44,1.43,1.17,6.8-2.24,5.31Z"/>
    <path d="M948.43,688.93c-.96-.72-1.92-1.43-2.86-2.17-1.07-.85-2.63-1.97-2.32-3.56.19-.94.76-1.64,1.69-1.93,1.3-.41,2.56.56,3.59,1.23,1.4,1.13,3.56,1.73,4.18,3.56.74,2.44-2.31,4.43-4.27,2.86Z"/>
  </g>
  <g>
    <path class="cls-3" d="M270.62,406.69c-4.82.28-3.69-6.91.34-7.18,2.84-.33,5.06,3.14,4.18,5.7-.62,1.74-2.98,2.4-4.52,1.49Z"/>
    <g>
      <path class="cls-9" d="M217.78,418.85c-.01,4.24-3.29,7.67-4.6,11.58-.91,3.68-4.11,5.68-6.99,2.4-2.28-2.6-4.23-5.47-6.42-8.14-1.42.73-3.44-.28-3.61-1.96-.13-.81.2-1.5.62-2.15.98-1.53,1.85-3.13,2.67-4.75,1.29-2.65,2.23-5.11,2.93-7.87.25-1.27.54-2.58,1.61-3.44,4.5-2.73,6.24,4.26,8.38,6.91,1.45,2.75,4.74,4.32,5.42,7.43Z"/>
      <path class="cls-9" d="M183.5,459.88c-2.3-1.61-4.21-4.57-2.52-7.28,1.22-2.2,2.29-7.37,5.13-7.58,1.28-.07,2.32,1.22,2.16,2.44,4.2.03,3.44,4.14,2.13,6.83-.97,2.88-3.14,7.67-6.89,5.59Z"/>
      <path class="cls-3" d="M118.8,468.29c-6.66-1.5-4.38-11.16,1.94-10.81,6.65,1.07,4.63,12.21-1.94,10.81Z"/>
      <path d="M193.54,423.44c-5.53-4.41,6.71-5.62,7.51-21.88.23-2.13-.26-4.49.76-6.45,2.44-3.77,6.38-.27,7.31,2.84,3.26,6.32,5.75,13.66,11.62,18.07,3,2.25-.57,6.89-3.54,4.59-5.13-3.66-8.03-9.49-10.8-14.98-.58,4.87-6.56,20.15-12.87,17.8Z"/>
      <path d="M210.16,444.04c-3.16-.79-3.61-4.83-5.31-7.17-1.73-3.02-3.61-6.03-6.2-8.39-1.98-2.47-8.47-2.48-6.49-6.83,5.01-5.36,14.8,6.72,16.97,11.05,1.08-3.45,5.61-16.04,10.47-12.79,1.22.94,1.53,2.85.52,4.06-8.53,9.03-3.9,20.65-9.96,20.07Z"/>
      <path d="M216.42,421.51c-2.74-4.06,5.63-7.73,6.47-2.7.55,3.06-4.67,4.96-6.47,2.7Z"/>
      <path d="M180.93,454.82s.02-.01.02-.02c-1.57.14-3.13-1.61-2.74-3.15,0,0,0,0-.01.01,1.6-3.09,2.8-6.26,3.1-9.8,1.25-5.16,6.13-3.31,8.03.34,1.04,1.41,2.03,2.85,3.11,4.23.97,1.25.72,3.11-.52,4.07-2.51,1.88-4.54-.88-5.79-2.83-.82,2.68-1.94,6.79-5.21,7.15Z"/>
      <path d="M183.89,462.62c-1.82-2.21-4.34-3.78-6.09-5.97-.39-1-.21-2.16.57-2.92,3.36-2.69,6.75,2.13,9.01,4.2,1.73-2.76,1.02-9.13,5.62-8.35,3.78,1.27,1.32,5.66.61,8.25-1.14,4.81-5.19,9.5-9.72,4.78Z"/>
      <path d="M268.45,412.08c-1.01-.47-1.84-1.11-2.6-1.88-.28-.17-.52-.4-.73-.67-3.21-4.2-2.6-10.71,1.55-14.07,2.19-1.77,5.22-2.27,7.85-1.22,2.47.99,4.21,3.15,5.05,5.62.82,2.4.7,5.21-.35,7.53-1.23,2.72-3.75,5.04-6.83,5.3-.26.02-.53.03-.79.03-1.08,0-2.15-.2-3.15-.66ZM271.66,407.01c.07,0,.14-.02.21-.03.09-.02.17-.05.26-.07.09-.04.18-.07.27-.11.11-.06.21-.12.31-.18.1-.07.19-.15.29-.22.11-.1.21-.21.31-.31.1-.13.2-.26.29-.39.09-.15.18-.31.26-.46.08-.18.15-.37.22-.56.06-.19.11-.39.15-.59.03-.22.06-.44.08-.66,0-.2,0-.4,0-.6-.02-.22-.05-.43-.09-.65-.05-.19-.1-.38-.15-.57-.07-.17-.14-.34-.21-.51-.08-.14-.15-.28-.24-.41-.09-.12-.18-.23-.27-.35-.1-.11-.21-.22-.32-.32-.07-.06-.15-.12-.23-.17-.1-.06-.2-.12-.3-.17-.08-.03-.16-.06-.24-.09-.09-.03-.18-.05-.27-.07-.08-.01-.16-.02-.24-.03-.07,0-.15,0-.22,0-.08,0-.17.02-.25.03-.08.02-.16.04-.23.06-.09.04-.19.08-.28.12-.09.05-.18.1-.27.16-.1.07-.2.15-.3.22-.11.11-.22.22-.33.33-.1.12-.19.24-.28.37-.09.15-.17.3-.25.45-.09.2-.17.39-.24.59-.06.19-.1.38-.14.57-.04.22-.06.45-.08.68,0,.21,0,.41,0,.62.02.21.05.42.09.62.04.19.1.37.15.55.06.16.13.32.2.48.08.16.17.31.26.46.04.06.09.12.14.18.1.12.18.26.25.39,0,0,0,0,0,0,.11.09.23.18.35.27.1.06.19.11.29.16.09.04.17.07.26.1.09.02.17.05.26.06.08.01.16.02.24.03.1,0,.2,0,.3,0Z"/>
      <path d="M116.05,472.03c-1.79-.75-3.26-2.02-4.3-3.65-.45-.7-.78-1.47-1.01-2.27-.26-.36-.44-.78-.52-1.24-.38-2.19.06-4.54,1.22-6.44,1.46-2.38,3.86-4.01,6.61-4.47,3.18-.52,6.38.7,8.53,3.05,2.07,2.27,2.83,5.56,2.12,8.53-.66,2.75-2.61,5.07-5.15,6.28-1.24.59-2.61.88-3.98.88-1.2,0-2.4-.23-3.51-.69ZM119.83,466.94c.16-.02.32-.04.48-.07.15-.04.29-.08.44-.13.16-.06.31-.13.47-.21.14-.08.29-.17.43-.26.13-.1.26-.2.38-.31.11-.11.21-.22.31-.33.09-.12.19-.25.27-.38.08-.13.15-.27.22-.4.06-.14.12-.28.17-.43.04-.15.08-.31.12-.46.02-.16.04-.32.06-.48,0-.16,0-.32,0-.48-.02-.17-.04-.34-.08-.51-.04-.16-.09-.31-.14-.47-.06-.14-.12-.27-.18-.4-.09-.15-.18-.3-.27-.44-.09-.11-.17-.22-.27-.33-.12-.12-.24-.24-.37-.35-.12-.09-.24-.18-.37-.27-.13-.08-.26-.15-.4-.22-.15-.06-.3-.12-.45-.18-.14-.04-.29-.08-.44-.11-.16-.02-.32-.04-.48-.06-.18,0-.37,0-.55.01-.14.02-.28.04-.42.07-.17.04-.34.1-.5.15-.13.05-.26.11-.38.17-.16.09-.31.19-.47.29-.12.09-.24.19-.36.3-.1.1-.2.2-.29.31-.09.12-.18.24-.27.37-.08.14-.16.28-.23.42-.06.15-.12.3-.18.45-.04.15-.08.29-.11.44-.02.17-.04.33-.06.5,0,.17,0,.34,0,.51.01.12.03.24.05.35.04.24.05.47.03.7.03.06.05.12.08.17.09.16.19.31.29.47.1.13.2.26.31.39.12.12.25.24.38.36.13.1.25.19.39.28.15.09.3.17.46.25.15.06.29.12.44.17.15.04.31.08.47.12.17.03.34.05.51.06.18,0,.36,0,.53,0Z"/>
      <path d="M134.34,380.41c-4.73-4.7-9.39-9.48-14.29-14-1.84-1.39-4.64-3.25-2.74-5.79,3.9-3.97,9.23,4.76,12.29,6.91,2.11,3.09,12.44,9.21,8.83,12.88-1.12,1.11-2.99,1.12-4.1,0Z"/>
      <path d="M134.95,730.87c-2.87.09-4-4.1-1.41-5.41,6.03-5.17,11.89-10.55,17.95-15.7,1.9-1.63,5.06.24,4.62,2.68-2.1,4.09-7.22,6.57-10.34,9.94-3.67,2.59-6.48,7.23-10.84,8.49,0,0,0,0,.02,0ZM133.57,725.46c.34-.19.72-.31,1.11-.36-.39.03-.77.15-1.11.36Z"/>
      <path d="M129.44,751.3c-2.91-3.32,2.29-5.65,4.22-7.68,6.58-5.81,13.16-11.62,19.7-17.47.58-.52,1.25-.85,2.05-.85,2.47-.1,3.91,3.27,2.05,4.95-6.64,5.96-13.33,11.86-19.76,17.51-2.39,1.6-5.18,6.23-8.26,3.54Z"/>
      <path d="M118.74,381.62c-8.68-7.26-17.49-14.28-25.57-22.13-2.67-1.85-2.48-6.23,1.37-6.01,2.91,1.1,4.53,4.31,7.1,6.07,6.78,5.95,13.67,11.76,20.64,17.48,2.97,2.27-.6,6.92-3.54,4.59Z"/>
    </g>
  </g>
  <g>
    <g>
      <path class="cls-3" d="M659.16,175.9c1.6,1.24,1.96,3.71.57,5.25-3.31,3.09-6.96,5.94-9.4,9.83-1.31,2.52-3.54,5.43-6.58,3.24-1.79-1.61-2.33-4.24-3.5-6.26-1.97-3.87-4.85-7.62-8.95-9.35-1.54,1.4-4.31.48-4.27-1.73.03-1.5,1.24-2.43,2.25-3.37,2.23-2.04,4.15-4.39,5.86-6.88,1.63-2.34,2.51-5.17,3.43-7.79.41-1.19.82-2.47,1.86-3.26,3.18-2.36,5.77,1.21,6.84,3.97,1.35,2.73,2.87,5.38,4.58,7.9,2.05,3.13,4.51,5.94,7.3,8.44Z"/>
      <path class="cls-3" d="M738.8,272.83c-.89-1.32-.75-3.21.1-4.55,1.47-2,4.75-1.02,6,.73,2.01,3.37-3.89,6.61-6.1,3.82Z"/>
      <path class="cls-3" d="M367.09,156.57c-8.06-3.01-2.51-17.92,2.38-10.75,6.36,1.31,4.91,13.64-2.38,10.75Z"/>
      <path d="M644.09,206.38c-3.39-2.18-2.61-7.26-4.28-10.61-2.37-7.26-8.29-14.21-16.46-14.19-3.44.11-6.61-3.35-3.59-6.24,8.56-5.31,17.11-11.63,18.57-22.23-.14-3.53,1.96-10.08,6.4-6.55,2.47,3.31,3.38,7.64,5.47,11.23,3.68,7.3,9.07,13.96,16.13,18.2,2.01,1.12,2.98,3.94,1.1,5.63-2.73,1.92-6.2,2.53-8.89,4.59-10.13,5.74-7.61,22.72-14.46,20.16ZM631.46,177.46c7.04,3.12,11.71,9.91,14.04,17.06,2.4-7.06,7.65-12.84,14.54-15.74-7.51-5.56-12.96-13.47-16.72-21.94-1.55,8.45-7.99,14.91-14.77,19.65.99.25,1.97.57,2.91.97Z"/>
      <path d="M739.73,278.04c-2.3-.64-4.26-2.24-5.28-4.39-.21-.26-.38-.57-.48-.91-.65-2.1-.49-4.49.64-6.4.74-1.24,1.71-2.32,2.98-3.04,1.51-.86,3.29-1.27,5.03-1.04,3.17.43,5.97,2.7,6.81,5.84.83,3.12-.23,6.55-2.82,8.53-1.41,1.07-3.15,1.68-4.91,1.68-.66,0-1.32-.09-1.97-.26ZM741.55,272.57c.1,0,.2,0,.3-.02.1-.02.2-.03.3-.05.1-.03.2-.06.3-.09.1-.04.2-.09.29-.14.08-.05.15-.1.23-.15.08-.06.15-.13.23-.19.08-.09.17-.18.24-.27.05-.07.1-.14.15-.21.05-.09.1-.19.14-.29.04-.1.07-.19.1-.29.02-.1.04-.21.06-.31,0-.09.02-.18.02-.28,0-.1,0-.2-.02-.31-.01-.08-.03-.16-.04-.25-.03-.1-.06-.2-.1-.3-.04-.08-.07-.16-.11-.24-.05-.09-.11-.18-.17-.26-.06-.07-.12-.15-.18-.22-.08-.08-.16-.15-.24-.22-.08-.06-.16-.11-.24-.17-.1-.05-.2-.1-.3-.15-.09-.03-.17-.06-.26-.09-.1-.02-.19-.04-.29-.06-.1,0-.19-.02-.29-.02-.1,0-.2,0-.3.01-.09.01-.18.03-.27.05-.1.03-.2.06-.3.09-.08.04-.17.07-.25.11-.08.05-.17.1-.25.16-.08.06-.16.13-.23.19-.06.07-.13.14-.19.2-.07.1-.14.19-.21.29-.05.1-.1.2-.15.3-.03.08-.06.16-.08.24-.02.1-.05.2-.07.31,0,.09-.02.19-.02.28,0,.1,0,.2.02.3.01.08.03.16.04.24.02.07.04.13.06.2.05.15.08.31.1.47.02.04.05.07.07.11.07.09.14.17.21.25.09.08.17.16.26.24.09.06.18.13.27.19.09.05.18.1.27.14.09.04.19.07.29.1.11.03.21.05.32.07.08,0,.17.01.25.02Z"/>
      <path d="M367.12,162.35c-2.49-.26-4.94-1.54-6.59-3.42-.45-.51-.84-1.05-1.18-1.62-.13-.15-.25-.32-.34-.51-1-1.94-1.38-4.09-1.13-6.26.28-2.41,1.49-4.72,3.26-6.37,2.35-2.19,5.67-3.24,8.85-2.72.16.03.32.06.48.09.08.01.15.03.23.05,2.4.56,4.48,1.93,6.03,3.87,1.68,2.1,2.37,4.89,2.11,7.54-.25,2.61-1.57,5.16-3.57,6.85-1.98,1.68-4.43,2.57-6.98,2.57-.38,0-.77-.02-1.16-.06ZM368.52,156.62c.22-.02.45-.04.67-.07.18-.04.37-.08.55-.13.2-.07.41-.14.6-.23.17-.08.34-.18.51-.27.17-.11.34-.23.5-.35.17-.15.34-.31.5-.47.13-.14.25-.29.36-.44.12-.19.24-.38.35-.57.1-.2.19-.4.27-.61.06-.2.12-.39.17-.59.04-.19.06-.39.09-.58.01-.22.02-.44.01-.65-.02-.22-.04-.43-.07-.64-.04-.18-.08-.37-.13-.55-.06-.19-.13-.37-.21-.55-.09-.18-.18-.35-.28-.53-.12-.18-.25-.36-.38-.53-.14-.17-.3-.33-.45-.48-.15-.13-.3-.25-.45-.37-.19-.12-.38-.24-.57-.35-.18-.09-.37-.17-.55-.24-.25-.08-.51-.14-.76-.21-.16-.03-.33-.05-.49-.07-.2-.01-.4-.02-.6-.01-.21.02-.41.04-.62.07-.19.04-.38.09-.57.14-.19.06-.38.13-.56.21-.18.09-.36.18-.54.29-.18.12-.36.25-.53.38-.15.13-.3.27-.45.42-.14.16-.28.33-.41.51-.12.18-.23.36-.33.55-.09.18-.17.37-.24.56-.07.21-.13.41-.18.62-.04.22-.07.43-.1.65-.01.19-.01.38-.01.57.01.21.04.41.07.61.04.19.09.39.14.58.06.18.13.37.2.55.04.08.08.16.12.24.04.08.08.16.11.24,0,.01.02.03.02.04.12.18.25.36.38.54.14.16.29.32.44.47.16.14.32.27.49.4.18.12.37.24.56.34.19.09.38.18.57.25.21.07.42.13.64.19.21.04.42.07.64.1.18.01.37.01.55.01Z"/>
      <g>
        <path d="M595.47,129.09c-3.7-3.64-9.8,6.85-12.89,9.01-6.19,6.44-12.31,12.95-18.29,19.6-1.9,2.98-8.97,7.23-4.66,10.74,2.54,1.49,4.17-1.29,5.57-2.98,9.7-11.11,19.95-21.73,30.28-32.26,1.11-1.12,1.12-2.98,0-4.1Z"/>
        <path d="M449.36,98.88c-2.37-1.97-5.83,1.12-4.24,3.73,2.97,5.49,6.04,10.92,9.03,16.4.76,1.38,2.63,1.82,3.96,1.04,4.16-2.79-3.01-9.82-4.12-13.31-1.6-2.57-2.68-5.54-4.63-7.86Z"/>
        <path d="M366.22,222.24c-8.1-4.25-17.06-7.88-25.51-11.59-5.42-2.34-10.85-4.67-16.3-6.93-1.46-.61-3.18.08-3.8,1.54-.61,1.45.09,3.19,1.54,3.8,14.12,6.05,28.41,11.8,42.16,18.65,3.67,1.54,5.75-4.36,1.9-5.46Z"/>
        <path d="M347.5,228.88c-9.6-2.64-19.21-5.31-28.95-7.4-3.2-.28-9.63-3.35-10.25,1.68.25,3.95,5.32,2.71,8,3.73,9.87,2.13,19.88,4.86,29.67,7.54,3.57,1.03,5.13-4.59,1.53-5.55Z"/>
        <path d="M456.41,132.27s-.02-.02-.02-.03c-.71-.96-1.41-1.92-2.11-2.87-5.09-6.92-10.19-13.84-15.28-20.76-3.43-4.66-6.86-9.32-10.29-13.98-1.73-2.35-3.46-4.7-5.19-7.04-1.56-2.12-3.17-4.22-4.7-6.37-.05-.09-.11-.18-.18-.26-.04-.04-.06-.09-.1-.13-.51-.58-1.12-.99-1.9-1.09-.76-.1-1.55.11-2.16.59-1.15.9-1.42,2.52-.71,3.75,0,0,0,0,0,0,.04.06.07.12.11.17,0,.01.02.03.03.04.05.08.11.15.17.23.05.07.1.13.15.19,1.87,2.46,3.66,4.99,5.49,7.47,6.75,9.17,13.49,18.34,20.23,27.51,3.96,5.38,7.92,10.75,11.87,16.13.01.01.02.03.03.04.09.12.18.25.27.37.54.73,1.4,1.1,2.27,1.1.64,0,1.28-.2,1.8-.61,1.27-.99,1.44-2.8.5-4.07-.09-.13-.19-.26-.28-.39Z"/>
        <path d="M589.03,152.34c-4.91,1.9-8.19,7.22-12.26,10.57-2.15,2.98-8.91,6.89-8.55,10.53,3.3,6.05,9.09-3.94,12.16-6,3.51-3.44,7.04-6.87,10.7-10.14,1.86-1.68.42-5.05-2.05-4.95Z"/>
      </g>
    </g>
    <path class="cls-9" d="M502.07,128.41c-.01,4.24-3.29,7.67-4.6,11.58-.91,3.68-4.11,5.68-6.99,2.4-2.28-2.6-4.23-5.47-6.42-8.14-1.42.73-3.44-.28-3.61-1.96-.13-.81.2-1.5.62-2.15.98-1.53,1.85-3.13,2.67-4.75,1.29-2.65,2.23-5.11,2.93-7.87.25-1.27.54-2.58,1.61-3.44,4.5-2.73,6.24,4.26,8.38,6.91,1.45,2.75,4.74,4.32,5.42,7.43Z"/>
    <path d="M505.03,125.58c-5.87-4.41-8.36-11.75-11.62-18.07-.94-3.1-4.87-6.61-7.31-2.84-1.02,1.97-.53,4.32-.76,6.45-.58,11.76-7.14,15.64-8.64,18.56-.08.08-.17.15-.25.24-1.99,4.35,4.51,4.36,6.49,6.83,2.59,2.36,4.47,5.37,6.2,8.39,1.71,2.34,2.15,6.38,5.31,7.17,6.07.58,1.44-11.04,9.96-20.07.5-.61.68-1.39.57-2.13,1.31-1.08,1.81-3.21.06-4.53ZM493.42,140.97c-1.3-2.58-5.31-7.93-9.4-10.67,3.59-4.24,6.3-11.91,6.68-15.1,2.45,4.83,4.99,9.94,9.08,13.59-3.11,2.75-5.59,9.75-6.35,12.19Z"/>
    <path d="M500.71,131.07c-2.74-4.06,5.63-7.73,6.47-2.7.55,3.06-4.67,4.96-6.47,2.7Z"/>
  </g>
  <path class="cls-3" d="M295.91,459.11c-81.73,0-148.23,66.49-148.23,148.23s66.49,148.23,148.23,148.23,148.23-66.49,148.23-148.23-66.49-148.23-148.23-148.23Z"/>
  <path class="cls-11" d="M365.2,576.13c-.08,36.94-17.09,37.02-25.16,54.65-3.67,8.01-3.22,20.05-2.47,40.13-4.3,25.09-60.98,28.85-64.1,1.86-1.28-13.26-4.66-26.04-5.22-39.39-4.44-17.8-20.62-32.62-14.81-52.22,8.98-33.23,33.46,24.04,33.94-8.03-18.98-37.06,10.86-34.25,21.99-63.51,16.3-48.08,38.91,23.39,54.26,35.46,1.66,2.28.13,5.73-2.88,5.14-1.19,8.84,4.99,16.92,4.45,25.93Z"/>
  <path class="cls-5" d="M346.73,602.05c-1.25-.37-2.28-1.22-2.68-2.48-1.36.84-2.86,2.02-4.56,1.6-1.42-.4-2.22-1.82-1.87-3.24.3-1.21,1.46-1.73,2.42-2.34,3.49-2.4,6.81-5.06,9.99-7.85,2.3-2.05,4.49-4.21,6.45-6.42,1.77-1.71,2.8-4.25,5-5.43,4.75-1.64,5.43,4.91,4.37,8.07,2.4,1.59,1.02,4.94,0,7-3.5,6.69-11.42,12.07-19.13,11.1Z"/>
  <path class="cls-6" d="M295.91,755.56c48.75,0,90.3-21.31,117.32-57.74.06-.06,1.65.85,1.7.77-5.24-5.87-16.03-11.14-24.3-13.61-5.43-1.67-28.99-9.68-34.57-10.79-5.44-1.45-12.58-6.75-15.87-2.5-.28.35-.53.74-.74,1.17-.46.94-.77,2.06-.86,3.38-1.87,2.48-4.32,4.47-7.05,6.12-3.67,2.21-7.83,3.83-11.75,5.21-3.54.97-7.17,1.95-10.85,2.7-6.97,1.43-14.1,2.04-21.09.3-3.56-1.23-6.4-3.43-8.86-6.05-1.5-1.6-2.86-3.37-4.15-5.17-.57-.8-1.14-1.61-1.7-2.41.57-1.7-.18-2.68-1.88-3.1-.06-.02-.11-.04-.18-.05-10.42-2.32-53.9,14.53-58.14,15.83-5.32,1.96-10.14,4.97-14.68,8.23-4.22,2.81-7.48,6.71-10.01,11.25.19.21.4.43.6.64,27,28.21,65.02,45.81,107.06,45.81Z"/>
  <path d="M276.93,584s0,.02,0,.02c0,0,0-.02,0-.02Z"/>
  <path d="M276.93,584.04s.02-.08.03-.12l-.03.15s0-.02,0-.04Z"/>
  <g>
    <circle class="cls-9" cx="652.99" cy="367.89" r="36.51"/>
    <path d="M651.8,407.4c-5.82-.18-11.47-1.59-16.69-4.16-2.5-1.23-4.88-2.77-7.05-4.52-.55-.44-1.1-.9-1.62-1.38-.18-.17-.37-.34-.55-.5-.06-.05-.12-.11-.18-.17-.53-.42-.99-.96-1.44-1.42-1.05-1.07-2-2.23-2.92-3.41-1.67-2.15-3.06-4.52-4.24-6.97-2.58-5.36-3.87-11.35-3.82-17.3.06-5.86,1.45-11.62,3.98-16.89.71-1.47,1.51-2.9,2.41-4.27.04-.08.09-.16.14-.24.05-.07.1-.15.15-.22.06-.09.12-.17.19-.25.22-.32.45-.64.68-.96.27-.37.53-.74.81-1.11,1.27-1.63,2.68-3.16,4.18-4.57,3.96-3.69,8.67-6.53,13.76-8.35,10.38-3.71,22.25-2.8,31.93,2.49,5.1,2.78,9.58,6.62,13.02,11.31,3.39,4.61,5.71,9.91,6.9,15.5,2.38,11.29-.57,23.53-7.8,32.51-3.78,4.7-8.54,8.45-13.97,11.07-5.16,2.49-10.99,3.81-16.73,3.81-.38,0-.76,0-1.14-.02ZM653.59,401.61c1.59-.06,3.16-.21,4.73-.45,1.36-.25,2.7-.56,4.04-.93,1.39-.44,2.76-.94,4.1-1.52,1.39-.65,2.73-1.36,4.05-2.14,1.28-.82,2.51-1.7,3.69-2.65,1.02-.87,2-1.78,2.94-2.73.98-1.06,1.9-2.15,2.76-3.3.9-1.26,1.73-2.56,2.48-3.91.65-1.24,1.23-2.5,1.76-3.79.51-1.36.94-2.73,1.31-4.13.35-1.49.62-3,.8-4.52.15-1.61.21-3.21.17-4.82-.07-1.46-.22-2.9-.44-4.35-.26-1.44-.59-2.85-1-4.26-.44-1.38-.94-2.72-1.52-4.04-.61-1.31-1.28-2.58-2.03-3.82-.8-1.26-1.66-2.47-2.59-3.63-.9-1.07-1.84-2.09-2.85-3.07-1.05-.98-2.15-1.89-3.29-2.76-1.17-.84-2.38-1.61-3.64-2.32-1.28-.69-2.6-1.31-3.95-1.86-1.39-.53-2.8-.98-4.23-1.35-1.57-.37-3.14-.64-4.74-.82-1.49-.13-2.97-.18-4.46-.15-1.5.07-2.99.21-4.48.45-1.44.26-2.86.59-4.27,1-1.4.44-2.76.96-4.1,1.55-1.25.58-2.47,1.23-3.66,1.94-1.25.79-2.46,1.64-3.62,2.56-1.17.96-2.27,1.99-3.32,3.08-.95,1.02-1.84,2.09-2.67,3.21-.27.38-.53.78-.8,1.16-.5.75-.97,1.52-1.42,2.3-.75,1.38-1.41,2.8-2,4.26-.5,1.34-.93,2.7-1.29,4.09-.36,1.55-.63,3.11-.81,4.7-.13,1.47-.18,2.93-.15,4.41.06,1.49.21,2.97.44,4.45.26,1.48.61,2.94,1.03,4.39.43,1.35.93,2.68,1.5,3.98.64,1.38,1.36,2.71,2.15,4.02.76,1.19,1.58,2.33,2.46,3.43.65.78,1.32,1.53,2.02,2.26.26.27.56.53.81.81.03.03.06.06.09.09.43.33.81.74,1.2,1.09.7.61,1.44,1.18,2.19,1.74,1.07.75,2.16,1.45,3.29,2.1,1.35.73,2.74,1.39,4.16,1.97,1.43.54,2.87.99,4.34,1.38,1.49.34,2.99.6,4.51.78,1.43.13,2.85.18,4.29.17Z"/>
    <path d="M647.68,390.77c-.87-.01-1.65-.41-2.22-1.05-.62-.7-1.24-1.39-1.86-2.09-1.09-1.23-2.18-2.45-3.27-3.68-1.11-1.27-2.22-2.54-3.3-3.83-.5-.61-1-1.22-1.47-1.85-.65-.87-1.31-1.73-1.75-2.73-.24-.55-.31-1.24-.09-1.81.1-.3.27-.59.5-.81.34-.33.78-.51,1.24-.55,1.42-.16,2.64,1.07,3.64,1.99.58.53,1.15,1.07,1.7,1.64,1.1,1.13,2.16,2.29,3.22,3.45.91,1,1.82,2.02,2.72,3.02.18.21.37.41.55.62.54-.89,1.09-1.79,1.63-2.68,1.65-2.72,3.3-5.44,4.96-8.15,3.31-5.44,6.61-10.88,9.92-16.32,1.28-2.1,2.57-4.2,3.84-6.31.06-.09.11-.17.16-.26.82-1.35,2.63-1.8,3.98-.98,1.35.82,1.8,2.63.98,3.98-1.12,1.84-2.24,3.69-3.36,5.53-3.13,5.14-6.25,10.28-9.38,15.42-3.13,5.14-6.26,10.28-9.38,15.42-.18.3-.36.6-.57.89-.54.73-1.46,1.15-2.36,1.15-.01,0-.03,0-.04,0Z"/>
  </g>
  <g>
    <circle class="cls-9" cx="868.57" cy="640.27" r="36.51"/>
    <g>
      <path d="M907.02,632.4c-1.18-5.6-3.5-10.89-6.9-15.5-3.44-4.69-7.92-8.53-13.02-11.31-9.68-5.28-21.55-6.19-31.93-2.49-5.09,1.82-9.8,4.66-13.76,8.35-1.51,1.41-2.92,2.93-4.18,4.57-.28.36-.55.73-.81,1.1-.23.31-.46.63-.68.96-.07.08-.13.17-.19.25-.05.07-.1.15-.15.22-.05.08-.1.16-.14.24-.89,1.37-1.7,2.8-2.41,4.27-2.53,5.28-3.92,11.03-3.98,16.89-.06,5.95,1.24,11.94,3.82,17.3,1.18,2.45,2.58,4.82,4.24,6.97.92,1.18,1.87,2.34,2.92,3.41.45.46.91,1.01,1.44,1.42.06.06.12.11.18.17.18.17.36.34.55.5.52.48,1.07.93,1.62,1.38,2.17,1.75,4.54,3.29,7.05,4.52,5.22,2.57,10.87,3.98,16.69,4.16.38.01.76.02,1.14.02,5.74,0,11.57-1.32,16.73-3.81,5.43-2.62,10.19-6.37,13.97-11.07,7.23-8.98,10.18-21.23,7.8-32.51ZM901.83,643.91c-.19,1.52-.45,3.02-.8,4.52-.37,1.4-.8,2.78-1.31,4.13-.52,1.3-1.11,2.56-1.76,3.79-.75,1.35-1.58,2.65-2.48,3.91-.87,1.15-1.79,2.24-2.76,3.3-.94.96-1.92,1.86-2.94,2.73-1.19.95-2.41,1.83-3.69,2.65-1.32.79-2.66,1.5-4.05,2.14-1.35.57-2.71,1.08-4.1,1.52-1.33.37-2.68.68-4.04.93-1.57.24-3.14.39-4.73.45-1.44.01-2.86-.04-4.29-.17-1.52-.18-3.02-.44-4.51-.78-1.48-.38-2.92-.84-4.34-1.38-1.42-.58-2.81-1.24-4.16-1.97-1.13-.66-2.22-1.35-3.29-2.1-.75-.55-1.49-1.12-2.19-1.74-.4-.35-.78-.76-1.2-1.09-.03-.03-.06-.06-.09-.09-.26-.28-.55-.54-.81-.81-.71-.72-1.37-1.48-2.02-2.26-.88-1.11-1.69-2.25-2.46-3.43-.79-1.3-1.51-2.64-2.15-4.02-.57-1.3-1.07-2.62-1.5-3.98-.42-1.44-.77-2.9-1.03-4.39-.23-1.48-.37-2.96-.44-4.45-.03-1.47.02-2.94.15-4.41.18-1.58.45-3.15.81-4.7.36-1.39.79-2.75,1.29-4.09.58-1.46,1.25-2.87,2-4.26.45-.78.92-1.55,1.42-2.3.27-.38.53-.77.8-1.16.83-1.12,1.72-2.19,2.67-3.21,1.05-1.09,2.15-2.12,3.32-3.08,1.16-.92,2.37-1.77,3.62-2.56,1.19-.71,2.41-1.36,3.66-1.94,1.34-.59,2.7-1.11,4.1-1.55,1.41-.41,2.83-.75,4.27-1,1.49-.23,2.98-.38,4.48-.45,1.49-.03,2.97.02,4.46.15,1.6.18,3.18.46,4.74.82,1.43.38,2.84.83,4.23,1.35,1.35.55,2.66,1.17,3.95,1.86,1.25.72,2.46,1.49,3.64,2.32,1.15.86,2.24,1.78,3.29,2.76,1,.98,1.95,2,2.85,3.07.93,1.16,1.79,2.37,2.59,3.63.75,1.24,1.42,2.51,2.03,3.82.58,1.32,1.08,2.66,1.52,4.04.41,1.4.74,2.82,1,4.26.22,1.44.37,2.89.44,4.35.04,1.61-.02,3.21-.17,4.82Z"/>
      <path d="M887.38,620.75c-1.35-.82-3.16-.37-3.98.98-.05.09-.11.17-.16.26-1.27,2.11-2.56,4.21-3.84,6.31-3.31,5.44-6.61,10.88-9.92,16.32-1.66,2.72-3.31,5.44-4.96,8.15-.54.89-1.09,1.79-1.63,2.68-.18-.21-.37-.41-.55-.62-.91-1.01-1.81-2.02-2.72-3.02-1.06-1.16-2.12-2.32-3.22-3.45-.55-.56-1.12-1.1-1.7-1.64-.99-.92-2.21-2.15-3.64-1.99-.46.04-.9.22-1.24.55-.23.22-.4.5-.5.81-.22.57-.15,1.26.09,1.81.43,1,1.1,1.86,1.75,2.73.47.63.96,1.24,1.47,1.85,1.08,1.29,2.18,2.56,3.3,3.83,1.09,1.23,2.18,2.46,3.27,3.68.62.7,1.24,1.39,1.86,2.09.57.64,1.36,1.04,2.22,1.05.01,0,.03,0,.04,0,.9,0,1.82-.43,2.36-1.15.21-.28.39-.58.57-.89,3.12-5.15,6.26-10.28,9.38-15.42,3.13-5.14,6.25-10.28,9.38-15.42,1.12-1.84,2.24-3.69,3.36-5.53.82-1.35.37-3.16-.98-3.98Z"/>
    </g>
  </g>
  <path class="cls-2" d="M334.03,489.87c-.47-3.57-2.76-6.62-4.67-9.57-4.61-6.71-11.24-11.72-18.21-15.8-11.69-6.58-25.68-6.75-38.76-6.58-24.92.39-46.8,7.54-63.6,25.97-.02.02-.05.04-.07.05,0,0,0,0,.01.01-.86.95-1.71,1.91-2.55,2.92-19.77-8.92-29.18-7.41-47.79,3.11-7.65,4.12-14.54,9.86-19.14,17.31-4.62,7.46-5.95,16.39-6.41,25.01-.55,13.21,4.39,26.47,12.7,36.66,4.63,5.76,10.99,9.66,17.45,13.06,3.36,1.77,5.82,3.21,7.56,5.24-.66,17.38,9.51,34.42,23.5,44.27.03.02.07.05.11.07,10.6,9.1,24.22,14.81,38.3,13.59,15.41-2.23,16.4-5.94,31.97,1.79,12.32,1.88.24-20.83-1.78-26.01-3.38-8-7.53-15.68-10.56-23.83-3.13-7.79-1.76-16.41,2.72-23.45,4.54-7.27,13.92-4.58,19.72-.44,2.46,1.72,4.79,3.66,6.82,5.89.84,1.04,1.8,2.05,3.19,2.27,1.6.3,3.16-.94,3.5-2.46.55-2.67-.74-5.24-1.58-7.71-2.15-5.59-4.8-10.98-6.75-16.66-1.36-3.14-1.78-7.3.46-10.26,3.41-4.64,8.41-7.77,12.56-11.68,12.49-10.86,17.05-22.04,20.88-37.69,1.28-3.91,3.96-3.74,7.31-2.49,2.59.85,4.91,2.38,7.57,2.98,3.41.74,6.03-2.27,5.54-5.57Z"/>
  <path d="M184.22,712.47c.53.57,1.06,1.15,1.6,1.71.06.06.12.13.19.19-.06-.06-.13-.13-.19-.19-.55-.56-1.07-1.14-1.6-1.71Z"/>
  <g>
    <path d="M274.62,592.52c-2.58-.29-3.71,2.47-2.63,4.53.91,2.18,1.85,4.42,3.21,6.36,2.12,2.86,6.55.09,4.91-3.05-1.8-2.12-2.62-7.42-5.49-7.85Z"/>
    <path d="M283.52,610.91c-6.42,3.69-12.99-3.19-15.65-8.61-3.15-5.63-1.98-12.93,2.17-17.72.19.16.41.32.65.47,1.39,1.08,2.53,2.48,4.02,3.42,3.28,1.91,6.24-2.88,3.04-4.94-1.5-1.08-2.7-2.58-4.42-3.38-.2-.1-.39-.18-.58-.25-.25-.62-.74-1.14-1.38-1.41-1.58-.65-3.3.25-4.51,1.27-5.48,5.08-7.88,13.42-5.93,20.64,2.22,7.39,7.58,14.46,15.15,16.83,3.47,1.46,14.75-.26,11.5-5.8-.96-1.24-2.82-1.49-4.06-.52Z"/>
    <path d="M313.26,530.09c2.28-3.03-2.23-6.48-4.58-3.54-3.99,5.05-7.88,10.19-11.47,15.54-2.05,3.68-5.46,7.24-5.81,11.55.25,2.26,3.39,3.05,4.67,1.21,1.92-3.22,3.81-6.46,5.92-9.57,3.45-5.09,7.33-10.18,11.28-15.2Z"/>
    <path d="M320.65,547.18c.53-.66,1.07-1.31,1.61-1.97,2.29-3.02-2.24-6.48-4.59-3.54-4.29,5.27-8.55,10.58-13.02,15.69-1.28,1.55-3.75,3.39-2.4,5.61,2.18,3.13,5.15,0,6.75-1.99,1.67-1.82,3.27-3.7,4.85-5.59,1.1-1.31,2.2-2.63,3.29-3.94.32.63.97,1.15,2.03,1.42,2.8.87,5.02-2.84,2.9-4.88-.47-.44-.95-.69-1.42-.81Z"/>
    <path d="M295.91,453.85c-2.54,0-5.07.06-7.59.19-.03,0-.06,0-.1,0-9.76-.8-19.79-.13-28.93,1.04-16.79,1.54-32.23,8.83-45.95,18.34-1.51,1.34-6.98,4.51-9.5,7.42-6.14-2.81-13.09-3.91-19.8-3.57-16.22,1.38-32.17,9.62-42.75,21.99-5.05,6.51-8.49,14.17-10.18,22.23-4.34,21.18,1.26,38.83,15.17,51.5-2.53,11.04-3.87,22.55-3.87,34.35,0,39.7,15.15,75.92,39.97,103.19.6.66,1.22,1.3,1.82,1.94.53.57,1.06,1.15,1.6,1.71.06.06.12.13.19.19.13.13.26.27.39.4,27.86,28.41,66.67,46.06,109.52,46.06,49.91,0,94.33-23.95,122.38-60.95.09-.12.19-.25.28-.37,1.4-1.85,2.75-3.74,4.07-5.66,1.02-1.49,2.02-2.99,2.98-4.52.56-.88,1.1-1.76,1.65-2.65.46-.77.92-1.54,1.37-2.32,2.17-3.71,4.18-7.53,6.03-11.44.91-1.9,1.77-3.82,2.59-5.75,6.01-14.16,9.96-29.41,11.45-45.36.1-.96.19-1.93.26-2.9.06-.95.13-1.92.18-2.88.17-2.88.25-5.77.25-8.69,0-84.64-68.85-153.49-153.49-153.49ZM135.66,538.4c-1.63-26.05,12.24-44.47,36.52-52.89,9.11-3.06,20.65-3.82,29.51.74,1.36.7,2.67,1.52,3.88,2.48.23.23.49.43.76.59.61.37,1.32.53,2.07.32,1.73-.71,2.12-1.91,1.8-3.17-.22-.86-.77-1.75-1.47-2.52,7.62-5.85,15.67-11.13,24.28-15.43,15.5-7.7,33.32-9.19,50.48-8.88,1.5.03,3,.06,4.49.12,20.94.85,39.71,13.5,43.13,34.1-.29-.05-.58-.08-.86-.07-4.15-2.92-8.9-5.17-13.98-4.06-3.87,1.13-4.56,5.69-5.43,9.06-1.02,4.45-1.83,9.02-3.93,13.12-3.66,6.97-8.78,13.11-14.69,18.29-3.41,3.08-7.29,5.55-10.87,8.41-4.94,4.11-6.79,11.22-4.98,17.32,1.91,5.89,6.16,10.69,8.01,16.61.41,1.67,1.62,4.65.36,6.34-2.12-.64-3.19-2.9-4.77-4.31-2.95-3.08-6.37-5.91-10.44-7.35-9.33-2.96-18.43,5.69-20.44,14.35-2.49,11.23,2.16,22.45,6.85,32.47,3.95,8.68,9.86,16.85,10.65,26.62.09,1.43.05,2.86-.14,4.27-3.38-2.14-7.14-3.7-10.98-4.69-.32-.07-.66-.13-1-.19-.01-.08-.01-.16-.03-.24-.36-1.3-1.75-2.32-3.12-2.06-3.5,1.04-6.96,2.31-10.56,2.99-8.48,1.57-17.32.36-25.75-1.12-20.75-3.67-37.36-18.55-41.7-39.41-.81-4.37-1.34-8.27-1.06-12.86,0-.12,0-.24.02-.36,2.71.34,5.44.16,8.07-.85.28-.12.51-.27.72-.43,2.78-1.21,4.81-5.04,5.43-7.72,1.61-6.61-3.28-13.04-1.19-19.56,1.25-3.76,4.98-5.58,8.07-7.61,3.85-2.6,7.53-5.55,10.46-9.18,15.91-17.28-8.38-27.37,3.96-41.7.97-1.24.72-3.1-.52-4.06-3.46-2.29-5.64,2.66-7.13,5.07-4.95,8.68,1.12,17.77,3.46,26.22.87,4.54-2.35,8.49-5.06,11.77-5.48,7.03-16.33,9.14-18.94,18.34-2.32,6.65,2.13,13.12,1.26,19.76-.3,1.3-.95,2.51-1.79,3.55-.2.02-.4.05-.61.11-4.6,1.7-9.49-.12-13.64-2.22-4.54-2.26-8.74-4.9-12.47-7.95-1.55-1.26-3-2.6-4.37-4-7.17-7.34-11.79-16.63-12.29-28.07ZM334.02,513.22c1.77,1.66,4.22.22,5.1-1.68.99,1.39,1.96,2.78,2.89,4.21.34.41.68.82.9,1.31.03.06.05.13.07.2,1.31,2.07,2.55,4.19,3.68,6.36-1.14-.85-2.37-1.41-3.72-.92-3.65,2.06.11,5.41,2.14,7.06,5.68,4.91,12.05,9.01,17.14,14.59,4.72,3.84-9.99,12.92-12.97,14.89-1.38.68-2.82,2.3-4.44,1.94-.33-.17-.59-.43-.81-.73-.95-1.26-2.82-1.48-4.07-.52-2.82,2.33.3,5.84,2.88,6.7,3.12,1.25,6.28-.3,8.84-2.05,3.16-2.05,6.39-4.11,9.33-6.51.72,2.55,1.68,5.07,1.83,7.67-2.88,5.95-8.09,10.18-12.93,14.61-5.17,4.5-10.63,8.96-16.35,12.79-1.09.81-1.76,2.06-1.78,3.42.16,4.81,6.31,5.95,10.16,6.32,5.85.47,12.09-.62,17.37-3.38-1.43,3.48-2.88,6.74-5.08,10.13-7.69,10.57-18.49,21.04-31.38,24.57-4.7.99-9.36.97-14.23.83-3.56.05-3.81,5.36-.3,5.77,10.83.78,19.24-1,27.37-5.76-.16,4.67-.38,9.33-.54,13.99-.33,7.71-.38,15.43-.79,23.13-.12,1.52-.19,3.07-.58,4.55-.68,1.43-1.81,2.62-2.96,3.7-7.07,5.84-16.25,8.54-25.25,9.5-7.47.38-26.52-2.66-28.57-11.05-.12-8.58,1.33-21.76-4.21-28.73-.57-.62-1.17-1.22-1.79-1.78.3-.73.53-1.49.71-2.16,1.55-6.5-.33-13.29-2.88-19.28-5.44-11.92-13.31-23.43-14.56-36.95-.41-4.73.46-9.75,3.72-13.38,2.25-2.47,5.54-4.78,9.04-4.08,3.89,1.09,6.92,4.09,9.64,6.94.86.96,1.7,1.97,2.66,2.84.09.04.18.08.27.13.26.15.47.37.65.62.32.24.66.45,1.02.64,3.74,2.26,8.3.39,9.43-3.81,1.02-3.48-.12-7.16-1.29-10.47-1.91-6.07-7.01-10.9-7.87-17.29-.64-6.29,3.75-9.5,8.42-12.61,10.43-7.76,20.01-17.8,24.34-30.28,1.58-4.53,1.8-9.48,3.73-13.89,5-.4,9.17,3.34,12.83,6.27.41.31.83.48,1.24.57,1.39,1.79,2.77,3.59,4.13,5.41-2.25.49-4.05,3.8-2.18,5.68ZM363.17,575.46c2.13,6.19,2.08,13.48-4.05,17.33-3.68,2.46-7.94,4.05-12.37,4.31-2.63.13-5.32.12-7.85-.66,8.69-6.21,17.05-13.1,24.28-20.98ZM184.7,705.22c-23.03-26.13-37.02-60.41-37.02-97.88,0-10.48,1.09-20.71,3.18-30.58,0,0,0,0,0-.01,3.69,2.75,7.82,5.22,12.39,7.37,1.25.6,2.56,1.15,3.9,1.61-.34,1.55-.37,3.2-.46,4.74-.27,18.83,10.19,37.05,26.16,46.89,11.43,6.93,24.97,9.3,38.17,9.8,5.9.19,11.47-.68,17.17-2.5.75-.29,1.71-.52,2.65-.8.98,1.25,2.71,1.52,4.13,2.07,3.12,1.1,6.35,2.49,9.15,4.36,5.86,3.55,6.49,7.66,6.94,14.04.12,1.88.18,3.79.2,5.71-2.29-1.84-7.57-.37-10.16-.17-14.34,2.31-48.44,15.14-60.81,22.47-5.66,3.65-11.54,7.54-15.59,12.89ZM295.91,755.56c-42.04,0-80.06-17.6-107.06-45.81.61-.99,1.3-1.95,2.08-2.83,5.85-5.8,13.01-10.34,20.51-13.96,8.79-4.1,38.23-15.22,47.81-17.12,2.99-.58,6.16-1.19,9.55-1.47.82.06,1.65-.15,2.29-.57.06-.04.12-.07.18-.12,0,0,0,0,0,0,0,.2,0,.39,0,.59.03,2.34-.34,4.72.29,7.01,3.92,10.21,18.64,13.13,28.35,14.24,12.16,1.06,28.96-3.92,37.12-13.29,2.16-2.37,2.81-5.36,3.06-8.45.23.03.47.04.7.02,3.39.29,6.56.89,9.55,1.47,9.58,1.9,39.02,13.01,47.81,17.12,4.61,2.23,9.09,4.8,13.21,7.8-27.19,33.74-68.83,55.37-115.44,55.37ZM443.89,615.92c-.06.98-.12,1.95-.19,2.93-.07.97-.16,1.94-.26,2.9-1.39,14.43-4.87,28.27-10.13,41.2-.76,1.9-1.57,3.78-2.42,5.63-1.99,4.37-4.19,8.62-6.58,12.76-.45.78-.91,1.55-1.37,2.32-.54.91-1.09,1.8-1.66,2.69-.87,1.38-1.76,2.74-2.68,4.09-1.11,1.64-2.26,3.25-3.44,4.84-.05.07-.09.14-.15.2-.02.03-.04.05-.06.08-1.87-1.32-3.78-2.58-5.67-3.8-12.38-7.34-46.47-20.17-60.81-22.47-2-.16-5.6-1.06-8.19-.62.02-.59.05-1.18.09-1.76.29-11.39.75-22.76,1.14-34.15.02-.51-.13-.98-.37-1.4,1.18-.89,2.37-1.84,3.57-2.86,10.37-9.13,17-17.46,21.42-30.83.45-1.25,1.07-2.74.55-4.02.02-.03.05-.05.07-.08,2.59-3.72,4.01-8.36,3.42-12.89-.62-3.61-1.32-7.55-2.95-10.82,2.74-3.82.67-8.37-.4-12.4-.44-1.15-.7-2.61-1.28-3.81.47-.56.93-1.13,1.36-1.73,4.75-6.23.86-10.85-4.09-15.14-2.51-2.32-5.19-4.43-7.88-6.54,1.12-5.35-10.94-22.44-17.46-30.55.08-1.59-.36-3.34-.4-4.85-.78-6.65-3.21-13.04-6.84-18.64-4.64-7.53-10.95-12.72-18.2-16.21,0,0,0,0,0,0,74.19,8.05,132.11,71.06,132.11,147.35,0,2.88-.08,5.74-.25,8.59Z"/>
  </g>
  <g>
    <circle class="cls-9" cx="440.57" cy="640.47" r="36.51"/>
    <g>
      <path d="M479.02,632.6c-1.18-5.6-3.5-10.89-6.9-15.5-3.44-4.69-7.92-8.53-13.02-11.31-9.68-5.28-21.55-6.19-31.93-2.49-5.09,1.82-9.8,4.66-13.76,8.35-1.51,1.41-2.92,2.94-4.18,4.57-.28.36-.55.73-.81,1.1-.23.31-.46.63-.68.96-.07.08-.13.16-.19.25-.05.07-.1.15-.15.22-.05.08-.1.16-.14.24-.89,1.37-1.7,2.8-2.41,4.27-2.53,5.28-3.92,11.03-3.98,16.89-.06,5.95,1.24,11.94,3.82,17.3,1.18,2.45,2.58,4.82,4.24,6.97.92,1.18,1.87,2.34,2.92,3.41.45.46.91,1.01,1.44,1.42.06.06.12.11.18.17.18.17.36.34.55.5.52.48,1.07.93,1.62,1.38,2.17,1.75,4.54,3.29,7.05,4.52,5.22,2.57,10.87,3.98,16.69,4.16.38.01.76.02,1.14.02,5.74,0,11.57-1.32,16.73-3.81,5.43-2.62,10.19-6.37,13.97-11.07,7.23-8.98,10.18-21.23,7.8-32.51ZM473.83,644.11c-.19,1.52-.45,3.02-.8,4.52-.37,1.4-.8,2.78-1.31,4.13-.52,1.3-1.11,2.56-1.76,3.79-.75,1.35-1.58,2.65-2.48,3.91-.87,1.15-1.78,2.24-2.76,3.3-.94.96-1.92,1.86-2.94,2.73-1.19.95-2.41,1.83-3.69,2.65-1.32.79-2.66,1.5-4.05,2.14-1.35.57-2.71,1.08-4.1,1.52-1.33.37-2.68.68-4.04.93-1.57.24-3.14.39-4.73.45-1.44.01-2.86-.04-4.29-.17-1.52-.18-3.02-.44-4.51-.78-1.48-.38-2.92-.84-4.34-1.38-1.42-.58-2.81-1.24-4.16-1.97-1.13-.66-2.22-1.35-3.29-2.1-.75-.55-1.49-1.12-2.19-1.74-.39-.35-.78-.76-1.2-1.09-.03-.03-.06-.06-.09-.09-.26-.28-.55-.54-.81-.81-.7-.72-1.37-1.48-2.02-2.26-.88-1.11-1.69-2.25-2.46-3.43-.79-1.3-1.51-2.64-2.15-4.02-.57-1.3-1.07-2.62-1.5-3.98-.42-1.44-.77-2.91-1.03-4.39-.23-1.48-.37-2.96-.44-4.45-.03-1.47.02-2.94.15-4.41.18-1.58.45-3.15.81-4.7.36-1.39.79-2.75,1.29-4.09.59-1.46,1.25-2.87,2-4.26.45-.78.92-1.55,1.42-2.3.27-.38.53-.77.8-1.16.83-1.12,1.72-2.19,2.67-3.21,1.05-1.09,2.15-2.12,3.32-3.08,1.16-.92,2.37-1.77,3.62-2.56,1.19-.71,2.41-1.36,3.66-1.94,1.34-.59,2.7-1.11,4.1-1.55,1.41-.41,2.83-.75,4.27-1,1.49-.23,2.98-.38,4.48-.45,1.49-.03,2.97.02,4.46.15,1.6.18,3.18.46,4.74.82,1.43.38,2.84.82,4.23,1.35,1.35.55,2.66,1.17,3.95,1.86,1.25.72,2.46,1.49,3.64,2.32,1.15.86,2.24,1.78,3.29,2.76,1,.98,1.95,2,2.85,3.07.93,1.16,1.79,2.37,2.59,3.63.75,1.24,1.42,2.51,2.03,3.82.58,1.32,1.08,2.66,1.52,4.04.41,1.4.74,2.82,1,4.26.22,1.44.37,2.89.44,4.35.04,1.61-.02,3.21-.17,4.82Z"/>
      <path d="M459.38,620.95c-1.35-.82-3.16-.37-3.98.98-.05.09-.11.17-.16.26-1.27,2.11-2.56,4.21-3.84,6.31-3.31,5.44-6.61,10.88-9.92,16.32-1.66,2.72-3.31,5.44-4.96,8.15-.54.89-1.09,1.79-1.63,2.68-.18-.21-.37-.41-.55-.62-.91-1.01-1.81-2.02-2.72-3.02-1.06-1.16-2.12-2.32-3.22-3.45-.55-.56-1.12-1.1-1.7-1.64-.99-.92-2.21-2.15-3.64-1.99-.46.04-.9.22-1.24.55-.23.22-.4.5-.5.81-.22.57-.15,1.26.09,1.81.43,1,1.1,1.86,1.75,2.73.47.63.96,1.24,1.47,1.85,1.08,1.29,2.18,2.56,3.3,3.83,1.09,1.23,2.18,2.46,3.27,3.68.62.7,1.24,1.39,1.86,2.09.57.64,1.36,1.04,2.22,1.05.01,0,.03,0,.04,0,.9,0,1.82-.43,2.36-1.15.21-.28.39-.58.57-.89,3.12-5.15,6.25-10.28,9.38-15.42,3.13-5.14,6.25-10.28,9.38-15.42,1.12-1.84,2.24-3.69,3.36-5.53.82-1.35.37-3.16-.98-3.98Z"/>
    </g>
  </g>
</svg>