<svg width="141" height="140" viewBox="0 0 141 140" fill="none" xmlns="http://www.w3.org/2000/svg">
<path d="M54.2115 91H55.7215L56.3915 89.18H59.1915L59.8615 91H61.3715L58.7215 84H56.8615L54.2115 91ZM56.8315 87.97L57.7915 85.34L58.7515 87.97H56.8315ZM62.5852 91H63.8552V87.77C64.0452 87.45 64.4452 87.11 65.0652 87.11C65.2952 87.11 65.4652 87.14 65.6252 87.18V85.93C65.5052 85.89 65.3552 85.86 65.1852 85.86C64.6152 85.86 64.1852 86.12 63.8552 86.46V85.96H62.5852V91ZM67.2997 89.16C67.2997 90.39 67.8997 91.1 69.1597 91.1C69.5797 91.1 69.8797 91.05 70.1297 90.94V89.83C69.9597 89.9 69.7297 89.94 69.3797 89.94C68.8797 89.94 68.5797 89.72 68.5797 89.16V87.1H70.1197V85.96H68.5797V84.7H67.2997V85.96H66.3597V87.1H67.2997V89.16ZM72.111 91.12C72.581 91.12 72.991 90.73 72.991 90.25C72.991 89.78 72.581 89.38 72.111 89.38C71.621 89.38 71.231 89.78 71.231 90.25C71.231 90.73 71.621 91.12 72.111 91.12ZM81.6516 89C81.6516 88.23 81.2616 87.6 80.5516 87.24C81.0716 86.88 81.3516 86.33 81.3516 85.68C81.3516 84.53 80.4016 83.8 79.1216 83.8C77.9916 83.8 77.2016 84.29 76.6916 85.12L77.7916 85.8C78.0816 85.3 78.4616 85 79.0216 85C79.5716 85 79.9716 85.3 79.9716 85.83C79.9716 86.37 79.5416 86.7 78.9516 86.7H77.8916V87.9H79.0416C79.7816 87.9 80.2816 88.3 80.2816 88.94C80.2816 89.59 79.7716 90 79.0916 90C78.4016 90 77.9316 89.66 77.5416 88.89L76.3616 89.62C76.9316 90.62 77.7816 91.2 79.1016 91.2C80.5616 91.2 81.6516 90.33 81.6516 89ZM82.5224 91H87.3624V89.78H84.1724L85.8624 88.15C86.5524 87.48 87.1824 86.74 87.1824 85.78C87.1824 84.58 86.2024 83.8 84.9824 83.8C83.7624 83.8 82.8924 84.4 82.3024 85.36L83.4024 86.03C83.7724 85.41 84.1824 85 84.8524 85C85.4024 85 85.8024 85.34 85.8024 85.92C85.8024 86.49 85.4624 86.87 84.9224 87.42L82.5224 89.78V91Z" fill="#08416A"/>
<circle cx="70" cy="70" r="48.75" stroke="#08416A" stroke-width="0.5"/>
<circle cx="70" cy="70" r="69.5" stroke="#08416A"/>
<path d="M32.8566 76H37.8406V68.58H39.0166L43.9446 76H49.7686L43.7766 67.684C45.7366 66.676 46.8566 64.884 46.8566 62.504C46.8566 58.668 44.0286 56.4 39.4366 56.4H32.8566V76ZM39.7446 60.516C41.0046 60.516 41.7326 61.328 41.7326 62.448C41.7326 63.652 41.0046 64.464 39.7446 64.464H37.8406V60.516H39.7446ZM61.0152 71.884C57.7392 71.884 55.3592 69.504 55.3592 66.2C55.3592 62.924 57.5992 60.516 60.7352 60.516C62.6952 60.516 64.1792 61.468 65.1032 62.812L69.0512 59.788C67.2312 57.408 64.3192 55.84 60.7352 55.84C54.4912 55.84 50.2352 60.6 50.2352 66.2C50.2352 71.8 54.6032 76.56 61.0152 76.56C64.7112 76.56 67.7632 75.02 69.6112 72.584V63.904H60.1192V68.132H64.6272V70.708C63.7032 71.436 62.4712 71.884 61.0152 71.884ZM73.8723 76H78.8563V68.58H80.8723C85.4643 68.58 88.2923 66.312 88.2923 62.504C88.2923 58.668 85.4643 56.4 80.8723 56.4H73.8723V76ZM81.1523 60.516C82.4123 60.516 83.1403 61.328 83.1403 62.448C83.1403 63.652 82.4123 64.464 81.1523 64.464H78.8563V60.516H81.1523ZM91.4816 76H99.3216C105.566 76 109.822 71.492 109.822 66.2C109.822 60.908 105.566 56.4 99.3216 56.4H91.4816V76ZM99.3496 60.908C102.43 60.908 104.67 63.148 104.67 66.2C104.67 69.224 102.43 71.492 99.3496 71.492H96.4656V60.908H99.3496Z" fill="#08416A"/>
<circle cx="70" cy="129" r="2" fill="#08416A"/>
<path d="M61.8877 124.977L60.765 124.779L60.2547 127.694L59.4275 127.548C59.3881 127.541 59.3487 127.535 59.2995 127.526L57.8895 124.271L56.5502 124.035L58.1864 127.563C57.4141 127.741 56.8919 128.289 56.7453 129.126C56.5315 130.348 57.2833 131.272 58.7309 131.528L60.6808 131.872L61.8877 124.977ZM58.8391 130.562C58.1399 130.439 57.8051 129.973 57.9137 129.353C58.0293 128.693 58.502 128.37 59.2012 128.493L60.0875 128.65L59.7254 130.718L58.8391 130.562Z" fill="#08416A"/>
<path d="M50.8137 128.287L49.8634 127.975L50.3389 129.878L51.4223 130.233L50.8137 128.287ZM49.6086 122.609L50.136 123.414C50.5604 123.111 51.1284 123.013 51.7081 123.202C52.6299 123.504 53.0905 124.255 52.8172 125.323L49.2821 124.165C49.1977 124.295 49.0982 124.505 49.0271 124.723C48.6317 125.941 49.1935 127.125 50.5144 127.557C52.0349 128.055 53.321 127.203 53.7875 125.767C54.2416 124.369 53.6489 122.86 51.9954 122.318C51.1021 122.025 50.2499 122.157 49.6086 122.609ZM50.7991 126.746C50.0294 126.493 49.7809 125.802 49.9565 125.196L52.5318 126.04C52.1388 126.732 51.5118 126.979 50.7991 126.746Z" fill="#08416A"/>
<path d="M48.1035 120.046C48.5504 119.118 47.9342 118.185 46.54 117.508C45.1638 116.84 43.8545 117.115 43.3815 118.097C42.9867 118.917 43.2807 119.805 44.45 120.373L45.6823 120.971C45.9252 121.089 45.9721 121.246 45.8809 121.435C45.8159 121.57 45.6698 121.666 45.4695 121.713C45.3159 121.594 45.1491 121.479 44.9512 121.383C43.8268 120.837 42.8007 121.239 42.3755 122.122C42.2714 122.338 42.2122 122.577 42.202 122.805L41.3115 122.372L40.9297 123.165L42.6028 123.978C42.7982 124.217 43.0647 124.425 43.4065 124.591C44.5129 125.128 45.5346 124.735 45.9555 123.861C46.1985 123.357 46.1949 122.788 45.9423 122.298C46.4103 122.225 46.72 122.02 46.8936 121.66C47.0064 121.426 47.0246 121.134 46.9091 120.867C47.4838 120.757 47.8822 120.506 48.1035 120.046ZM44.5994 122.091C45.1841 122.375 45.3393 122.928 45.092 123.442C44.849 123.946 44.325 124.159 43.7403 123.875C43.1556 123.591 42.996 123.046 43.239 122.542C43.4863 122.028 44.0147 121.807 44.5994 122.091ZM47.1612 119.744C47.005 120.069 46.717 120.229 46.3697 120.305L44.9305 119.606C44.2378 119.269 44.1605 118.854 44.3471 118.466C44.6031 117.935 45.294 117.837 46.1935 118.274C47.048 118.689 47.4042 119.24 47.1612 119.744Z" fill="#08416A"/>
<path d="M40.6339 117.028L39.7663 116.473L35.7488 122.806L36.6165 123.361L40.6339 117.028Z" fill="#08416A"/>
<path d="M32.222 111.715L32.4241 112.656C32.9287 112.527 33.4935 112.64 33.9655 113.027C34.716 113.641 34.8752 114.508 34.2361 115.406L31.3577 113.05C31.2322 113.141 31.0641 113.301 30.9191 113.479C30.1124 114.473 30.21 115.781 31.2855 116.661C32.5235 117.675 34.0289 117.343 34.9806 116.171C35.9071 115.03 35.8979 113.407 34.5516 112.305C33.8243 111.709 32.9827 111.524 32.222 111.715ZM31.843 116.006C31.2163 115.493 31.2336 114.758 31.6152 114.256L33.7121 115.973C33.0967 116.477 32.4233 116.481 31.843 116.006Z" fill="#08416A"/>
<path d="M30.7404 109.099L30.0574 108.328L27.522 110.594C27.0422 110.7 26.4622 110.709 26.0378 110.23C25.6001 109.736 25.663 109.144 26.2148 108.651L28.519 106.592L27.8294 105.813L25.4953 107.899C25.4208 107.965 25.3537 108.025 25.2932 108.093C24.7562 108.21 24.2142 108.172 23.8164 107.723C23.3853 107.236 23.4416 106.636 23.9934 106.143L26.2976 104.084L25.608 103.306L23.2739 105.391C22.2374 106.317 22.2376 107.403 22.9339 108.189C23.5108 108.84 24.1481 108.942 24.7795 108.9C24.5443 109.54 24.6978 110.18 25.1553 110.697C25.5996 111.198 26.12 111.364 26.6496 111.373L26.2991 111.686L26.9821 112.457L30.7404 109.099Z" fill="#08416A"/>
<path d="M21.1956 97.707L21.092 98.6637C21.6119 98.6991 22.1125 98.9842 22.4393 99.4992C22.959 100.318 22.8379 101.191 21.9488 101.843L19.9558 98.7022C19.8081 98.7493 19.5983 98.8479 19.4045 98.9719C18.3264 99.6619 18.0084 100.934 18.7531 102.108C19.6103 103.459 21.1438 103.617 22.4157 102.803C23.6538 102.011 24.1549 100.467 23.2227 98.9979C22.719 98.2042 21.978 97.7643 21.1956 97.707ZM19.4882 101.661C19.0542 100.977 19.3017 100.284 19.8216 99.9279L21.2735 102.216C20.5308 102.501 19.89 102.294 19.4882 101.661Z" fill="#08416A"/>
<path d="M20.6127 94.6699L20.1886 93.7313L17.0948 95.1413C16.5873 95.0869 16.0272 94.8916 15.7431 94.2628C15.4466 93.6067 15.7022 93.0066 16.4301 92.6749L19.1509 91.4348L18.7226 90.4871L15.9655 91.7437C14.637 92.3492 14.3045 93.4348 14.7616 94.4464C15.0581 95.1025 15.5279 95.4379 16.0483 95.6183L15.6025 95.8215L16.0266 96.7601L20.6127 94.6699Z" fill="#08416A"/>
<path d="M15.8267 87.2851C17.0046 86.9309 17.4212 86.1583 17.0842 85.0274C16.9728 84.6537 16.8449 84.3998 16.6806 84.1985L15.8091 84.4605C15.9276 84.6129 16.0316 84.8218 16.1287 85.1476C16.2887 85.6843 16.1808 86.0926 15.5296 86.2884L13.2695 86.9678L12.7925 85.3674L11.9019 85.6352L12.3789 87.2356L11.1722 87.5983L11.4693 88.595L12.676 88.2323L12.9473 89.1427L13.838 88.8749L13.5666 87.9645L15.8267 87.2851Z" fill="#08416A"/>
<path d="M16.1322 75.6221C17.1601 75.5564 17.6683 74.562 17.5703 73.0151C17.4736 71.4882 16.5882 70.4826 15.5005 70.5521C14.5923 70.6101 13.9648 71.3015 14.0469 72.5989L14.1335 73.9662C14.1506 74.2356 14.0378 74.353 13.8282 74.3664C13.6785 74.376 13.5232 74.2957 13.3833 74.1443C13.4112 73.9522 13.4285 73.7507 13.4146 73.5311C13.3356 72.2836 12.4798 71.5867 11.5018 71.6492C11.2623 71.6645 11.026 71.7297 10.8221 71.8329L10.7595 70.8449L9.88128 70.901L9.99886 72.7573C9.88682 73.045 9.83783 73.3788 9.86185 73.7581C9.9396 74.9856 10.7854 75.6831 11.7534 75.6213C12.3123 75.5856 12.8054 75.3035 13.1069 74.8434C13.401 75.2154 13.7324 75.3846 14.1316 75.3591C14.3911 75.3425 14.6536 75.2155 14.8293 74.9839C15.2083 75.4306 15.6233 75.6546 16.1322 75.6221ZM12.6256 73.5715C12.6667 74.2202 12.2616 74.6268 11.6927 74.6632C11.1339 74.6989 10.6907 74.3464 10.6496 73.6977C10.6085 73.049 11.0036 72.643 11.5625 72.6073C12.1313 72.571 12.5845 72.9228 12.6256 73.5715ZM15.9306 74.653C15.5713 74.6759 15.2898 74.5035 15.0526 74.2381L14.9514 72.6413C14.9028 71.8729 15.2263 71.6017 15.6554 71.5743C16.2442 71.5367 16.6701 72.0906 16.7333 73.0886C16.7933 74.0367 16.4894 74.6173 15.9306 74.653Z" fill="#08416A"/>
<path d="M9.42113 64.5479L7.84985 63.2521L7.76825 64.3891L9.34955 65.5453L9.42113 64.5479ZM14.5592 63.0819L13.9071 63.787C14.3038 64.1263 14.5366 64.6543 14.493 65.2628C14.4235 66.2303 13.807 66.8577 12.7048 66.8488L12.9711 63.1384C12.8244 63.0877 12.5971 63.0413 12.3677 63.0249C11.091 62.9333 10.079 63.7629 9.9795 65.1494C9.86497 66.7453 11.0031 67.7894 12.5093 67.8975C13.9755 68.0027 15.296 67.0649 15.4206 65.3293C15.4879 64.3917 15.154 63.5958 14.5592 63.0819ZM10.8359 65.2309C10.8938 64.423 11.5046 64.0156 12.1344 64.0408L11.9404 66.7438C11.1739 66.5284 10.7822 65.979 10.8359 65.2309Z" fill="#08416A"/>
<path d="M15.8862 60.2925L16.103 59.2856L12.7805 58.564C12.4052 58.2165 12.0713 57.7244 12.2165 57.0499C12.3681 56.346 12.9298 56.0177 13.7116 56.1875L16.6335 56.822L16.8524 55.8053L13.8914 55.1623C12.4646 54.8525 11.5528 55.5243 11.3192 56.6094C11.1676 57.3133 11.3458 57.8636 11.6567 58.32L11.1778 58.216L10.961 59.2229L15.8862 60.2925Z" fill="#08416A"/>
<path d="M13.417 47.812L12.2687 46.1267L11.8747 47.1964L13.0714 48.7504L13.417 47.812ZM18.7553 47.8428L17.9336 48.3376C18.2202 48.7748 18.2971 49.3474 18.0862 49.9198C17.751 50.83 16.9851 51.2603 15.9298 50.9429L17.2154 47.4521C17.0886 47.3624 16.8834 47.2541 16.6678 47.174C15.4679 46.7283 14.2663 47.2421 13.7859 48.5464C13.233 50.0478 14.0355 51.37 15.451 51.8958C16.829 52.4077 18.3567 51.8764 18.958 50.2436C19.2829 49.3616 19.1834 48.5032 18.7553 47.8428ZM14.5852 48.8646C14.8651 48.1046 15.5643 47.8842 16.1618 48.0849L15.2253 50.6279C14.5494 50.2061 14.326 49.5684 14.5852 48.8646Z" fill="#08416A"/>
<path d="M20.8409 45.4987L21.3179 44.5858L18.3455 43.0191C18.0855 42.5882 17.9792 42.0574 18.2756 41.4902C18.3729 41.3041 18.4736 41.1763 18.583 41.0531L17.6895 40.5822C17.594 40.6788 17.4979 40.7977 17.4238 40.9395C17.1367 41.489 17.1806 42.0096 17.3635 42.5016L16.8593 42.2358L16.3822 43.1487L20.8409 45.4987Z" fill="#08416A"/>
<path d="M25.1335 38.5958C25.4888 38.0878 25.6211 37.4101 25.4679 36.8615L25.9336 37.19L26.524 36.346L23.8028 34.4265C22.8958 33.7867 21.8122 33.9402 21.0328 35.0546C20.517 35.7922 20.4148 36.6012 20.6472 37.3158L21.5707 37.0249C21.4018 36.5509 21.444 36.0545 21.7592 35.6038C22.1317 35.0711 22.7059 34.9132 23.2125 35.2706L23.425 35.4204L22.7114 36.9118C22.2453 37.8924 22.3566 38.6929 22.9776 39.131C23.7049 39.644 24.5604 39.4153 25.1335 38.5958ZM23.541 38.2557C23.2304 38.0366 23.1588 37.6679 23.43 37.0883L24.0215 35.8412L24.7324 36.3427C24.9527 36.8652 24.917 37.4397 24.556 37.956C24.2579 38.3821 23.8596 38.4805 23.541 38.2557Z" fill="#08416A"/>
<path d="M28.7992 33.6865L29.4837 32.9169L23.9008 27.9087L23.2163 28.6783L28.7992 33.6865Z" fill="#08416A"/>
<path d="M35.8456 26.0496C36.5602 26.2312 37.268 26.1321 37.9524 25.628C38.7092 25.0705 39.0053 24.1196 38.4295 23.3142C37.4091 21.9171 35.621 23.6566 35.0253 22.8409C34.8248 22.5664 34.8528 22.1979 35.2393 21.9132C35.5775 21.6641 36.0067 21.6585 36.4364 21.789L36.6403 20.8813C36.0673 20.7072 35.3316 20.8019 34.7358 21.2408C33.9226 21.8398 33.7483 22.788 34.2378 23.4583C35.2877 24.8957 37.0581 23.132 37.6597 23.9557C37.8838 24.2626 37.8434 24.665 37.4489 24.9556C37.0463 25.2521 36.565 25.2713 36.0516 25.1279L35.8456 26.0496Z" fill="#08416A"/>
<path d="M44.2074 19.0224C44.6213 19.7876 44.4562 20.47 43.7802 20.8388C43.0868 21.2172 42.4355 20.9802 42.0216 20.215L40.6513 17.6819L39.7383 18.18L41.0848 20.6691C41.8033 21.9972 42.9952 22.3721 44.2418 21.692C45.4795 21.0167 45.815 19.8084 45.0966 18.4803L43.75 15.9911L42.8371 16.4892L44.2074 19.0224Z" fill="#08416A"/>
<path d="M49.5667 18.9776L50.5292 18.611L49.3422 15.4677C49.4332 14.9729 49.7056 14.5053 50.3037 14.2775C50.4999 14.2027 50.66 14.1739 50.8237 14.1543L50.4669 13.2095C50.3313 13.2183 50.1805 13.2436 50.031 13.3006C49.4516 13.5213 49.1393 13.9398 48.95 14.4293L48.7486 13.896L47.7861 14.2626L49.5667 18.9776Z" fill="#08416A"/>
<path d="M61.3234 15.7249L62.3411 15.5667L61.1984 8.15425L60.1807 8.3125L61.3234 15.7249Z" fill="#08416A"/>
<path d="M68.0205 15.2207C68.6401 15.1978 69.2593 14.8946 69.6029 14.4416L69.6239 15.0112L70.6532 14.9731L70.531 11.6453C70.4902 10.5361 69.7114 9.76439 68.3523 9.81473C67.4529 9.84804 66.7474 10.2544 66.3197 10.8707L67.1108 11.4318C67.3856 11.0113 67.8061 10.7456 68.3557 10.7252C69.0053 10.7012 69.4789 11.0639 69.5017 11.6835L69.5112 11.9433L67.8922 12.2734C66.8296 12.4929 66.2602 13.0644 66.288 13.8239C66.3207 14.7133 67.0212 15.2577 68.0205 15.2207ZM67.3259 13.7454C67.3119 13.3657 67.5618 13.0862 68.1874 12.953L69.538 12.6728L69.5699 13.5422C69.2877 14.033 68.8091 14.3509 68.1795 14.3742C67.6599 14.3935 67.3402 14.1352 67.3259 13.7454Z" fill="#08416A"/>
<path d="M78.9124 18.237L79.9211 18.4453L80.5188 15.5258C80.8476 16.0634 81.3243 16.4273 82.0392 16.5749C83.5866 16.8944 84.8068 15.87 85.1016 14.4298C85.3964 12.9897 84.6776 11.5649 83.1302 11.2454C82.4153 11.0978 81.8343 11.2434 81.3209 11.6071L81.4252 11.0976L80.4165 10.8894L78.9124 18.237ZM82.8084 12.1695C83.7583 12.3656 84.2425 13.2416 84.0439 14.2115C83.8454 15.1813 83.0564 15.7945 82.1065 15.5983C81.4699 15.4669 80.9914 15.0618 80.7414 14.4384L81.0983 12.6945C81.5612 12.2285 82.162 12.036 82.8084 12.1695Z" fill="#08416A"/>
<path d="M87.3105 17.8429L88.2818 18.1856L89.3915 15.0142C89.7787 14.6948 90.2871 14.5137 90.8906 14.7267C91.0886 14.7965 91.2296 14.8781 91.3673 14.9691L91.7008 14.0158C91.5915 13.9348 91.4599 13.8565 91.309 13.8033C90.7244 13.597 90.217 13.7148 89.7581 13.9665L89.9464 13.4284L88.9751 13.0857L87.3105 17.8429Z" fill="#08416A"/>
<path d="M98.0056 16.7403C96.5559 15.9951 95.0102 16.5835 94.3335 17.911C93.6569 19.2385 94.0856 20.8418 95.5353 21.5871C96.9938 22.3369 98.5307 21.7439 99.2073 20.4164C99.8839 19.0889 99.4641 17.4901 98.0056 16.7403ZM95.9846 20.7274C95.122 20.2839 94.8536 19.269 95.2941 18.4047C95.7345 17.5405 96.7113 17.1656 97.574 17.6091C98.4189 18.0434 98.6918 19.0495 98.2468 19.9226C97.8108 20.7779 96.8295 21.1617 95.9846 20.7274Z" fill="#08416A"/>
<path d="M101.867 23.1368C101.166 24.1476 101.321 25.0124 102.288 25.6887C102.607 25.9122 102.865 26.0316 103.119 26.0869L103.637 25.3391C103.45 25.2935 103.239 25.1945 102.96 24.9997C102.501 24.6787 102.332 24.2916 102.719 23.7328L104.064 21.7934L105.432 22.7505L105.962 21.9862L104.594 21.0291L105.312 19.9937L104.459 19.3977L103.741 20.4331L102.963 19.8887L102.433 20.653L103.211 21.1974L101.867 23.1368Z" fill="#08416A"/>
<path d="M109.888 30.9613L109.736 30.0109C109.226 30.1135 108.668 29.9701 108.217 29.559C107.5 28.9054 107.388 28.0311 108.074 27.1681L110.822 29.6748C110.952 29.5905 111.129 29.4401 111.283 29.2695C112.142 28.3201 112.114 27.009 111.087 26.0724C109.905 24.9942 108.384 25.2448 107.371 26.3648C106.385 27.4551 106.308 29.0763 107.593 30.2488C108.288 30.8823 109.118 31.1119 109.888 30.9613ZM110.495 26.6968C111.094 27.2426 111.037 27.976 110.629 28.4568L108.627 26.6306C109.268 26.1599 109.941 26.1914 110.495 26.6968Z" fill="#08416A"/>
<path d="M113.353 35.074C112.724 34.3221 112.849 33.3016 113.613 32.657C114.37 32.0189 115.4 32.0661 116.022 32.8104C116.394 33.2554 116.475 33.7888 116.357 34.255L117.35 34.4769C117.529 33.7243 117.354 32.891 116.764 32.1851C115.68 30.8885 114.045 30.8809 112.921 31.8284C111.797 32.7759 111.521 34.3949 112.605 35.6915C113.201 36.4051 113.982 36.7151 114.751 36.6684L114.705 35.6473C114.228 35.6838 113.719 35.5113 113.353 35.074Z" fill="#08416A"/>
<path d="M117.413 39.0112C116.379 39.6763 116.19 40.5344 116.824 41.5295C117.034 41.8584 117.227 42.0675 117.44 42.2158L118.205 41.7238C118.05 41.6098 117.892 41.4375 117.71 41.1508C117.409 40.6785 117.4 40.256 117.972 39.8883L119.958 38.6123L120.855 40.0206L121.637 39.5178L120.74 38.1094L121.8 37.4281L121.241 36.5511L120.181 37.2324L119.67 36.4312L118.888 36.9341L119.399 37.7352L117.413 39.0112Z" fill="#08416A"/>
<path d="M124.926 43.3505C125.094 43.6915 125.522 43.8364 125.862 43.6676C126.203 43.4987 126.348 43.0694 126.18 42.7284C126.013 42.3874 125.585 42.2424 125.244 42.4113C124.904 42.5801 124.759 43.0095 124.926 43.3505ZM119.178 45.6209L119.633 46.5452L124.148 44.3058L123.693 43.3815L119.178 45.6209Z" fill="#08416A"/>
<path d="M127.052 50.9681C126.517 49.4285 124.991 48.7869 123.585 49.2798C122.179 49.7727 121.383 51.2281 121.918 52.7678C122.456 54.3169 123.978 54.949 125.384 54.4561C126.791 53.9631 127.59 52.5172 127.052 50.9681ZM122.837 52.4563C122.518 51.5401 123.024 50.6208 123.94 50.2999C124.855 49.979 125.821 50.3822 126.14 51.2984C126.451 52.1958 125.955 53.1117 125.03 53.4359C124.124 53.7535 123.149 53.3537 122.837 52.4563Z" fill="#08416A"/>
<path d="M123.675 58.284L123.867 59.2959L127.207 58.6566C127.687 58.8293 128.186 59.1512 128.315 59.8291C128.449 60.5365 128.06 61.059 127.274 61.2095L124.337 61.7717L124.531 62.7935L127.507 62.2237C128.941 61.9492 129.519 60.973 129.312 59.8825C129.178 59.1751 128.8 58.7384 128.336 58.4403L128.817 58.3482L128.625 57.3363L123.675 58.284Z" fill="#08416A"/>
<path d="M127.509 71.5097C126.041 71.425 124.737 72.3414 124.646 73.9288C124.605 74.6477 124.834 75.2018 125.259 75.647L124.75 75.6176L124.69 76.6659L132.177 77.0979L132.237 76.0496L129.272 75.8785C129.746 75.4851 130.036 74.961 130.077 74.2422C130.168 72.6548 128.977 71.5944 127.509 71.5097ZM127.447 72.5979C128.435 72.655 129.157 73.3477 129.101 74.3161C129.065 74.9451 128.744 75.4775 128.174 75.8152L126.357 75.7103C125.847 75.3404 125.57 74.7634 125.607 74.1145C125.662 73.1461 126.458 72.5409 127.447 72.5979Z" fill="#08416A"/>
<path d="M124.056 84.5073L124.792 83.8909C124.441 83.5037 124.277 82.9501 124.396 82.352C124.587 81.401 125.278 80.857 126.369 81.0064L125.638 84.6538C125.777 84.7228 125.997 84.7978 126.222 84.8434C127.477 85.0971 128.585 84.4029 128.858 83.04C129.173 81.4713 128.176 80.2902 126.695 79.9909C125.255 79.6995 123.827 80.4617 123.485 82.1677C123.3 83.0894 123.531 83.9216 124.056 84.5073ZM128.019 82.85C127.86 83.6442 127.203 83.9704 126.582 83.8652L127.114 81.2081C127.847 81.5195 128.167 82.1146 128.019 82.85Z" fill="#08416A"/>
<path d="M123.188 86.9041C122.498 87.1651 121.974 87.652 121.702 88.4571C121.4 89.3475 121.702 90.2959 122.636 90.6252C124.273 91.1842 124.743 88.7348 125.699 89.0611C126.021 89.171 126.209 89.4888 126.055 89.9435C125.92 90.3413 125.571 90.592 125.144 90.7314L125.497 91.5916C126.067 91.4057 126.616 90.9063 126.853 90.2054C127.177 89.2487 126.777 88.3724 125.991 88.1042C124.307 87.5291 123.865 89.9882 122.9 89.6586C122.54 89.5358 122.343 89.1832 122.5 88.719C122.66 88.2454 123.044 87.9538 123.547 87.7769L123.188 86.9041Z" fill="#08416A"/>
<path d="M119.787 99.2551C118.544 98.4704 116.962 98.6423 116.118 99.99C115.736 100.6 115.67 101.197 115.828 101.793L115.396 101.521L114.839 102.411L121.181 106.415L121.738 105.525L119.227 103.939C119.83 103.823 120.336 103.504 120.718 102.894C121.562 101.546 121.03 100.04 119.787 99.2551ZM119.209 100.179C120.046 100.708 120.344 101.664 119.829 102.486C119.495 103.02 118.958 103.332 118.297 103.352L116.758 102.38C116.49 101.809 116.525 101.169 116.87 100.618C117.384 99.7958 118.372 99.6506 119.209 100.179Z" fill="#08416A"/>
<path d="M115.297 110.152C116.355 108.912 116.143 107.265 115.014 106.293C113.885 105.321 112.232 105.363 111.174 106.603C110.109 107.85 110.327 109.489 111.457 110.461C112.586 111.433 114.232 111.399 115.297 110.152ZM111.903 107.243C112.532 106.505 113.578 106.482 114.313 107.115C115.048 107.747 115.185 108.789 114.555 109.527C113.938 110.249 112.9 110.279 112.158 109.64C111.43 109.014 111.286 107.966 111.903 107.243Z" fill="#08416A"/>
<path d="M107.314 110.907L106.537 111.584L108.76 114.157C108.852 114.66 108.824 115.255 108.304 115.708C107.761 116.181 107.115 116.107 106.592 115.502L104.637 113.239L103.853 113.923L105.834 116.215C106.789 117.32 107.92 117.329 108.757 116.6C109.3 116.127 109.487 115.579 109.512 115.027L109.832 115.398L110.609 114.721L107.314 110.907Z" fill="#08416A"/>
<path d="M100.971 115.98L100.104 116.536L101.925 119.407C101.942 119.918 101.827 120.502 101.246 120.874C100.639 121.262 100.011 121.094 99.5827 120.419L97.9811 117.894L97.1051 118.454L98.7281 121.013C99.5102 122.246 100.628 122.421 101.563 121.823C102.169 121.435 102.435 120.92 102.541 120.378L102.804 120.792L103.671 120.236L100.971 115.98Z" fill="#08416A"/>
<path d="M93.8568 126.513L93.4664 128.516L94.5038 128.043L94.7668 126.099L93.8568 126.513ZM90.1248 122.697L91.0544 122.933C91.1635 122.422 91.5165 121.964 92.0716 121.712C92.9543 121.309 93.7986 121.551 94.3152 122.524L90.93 124.067C90.9554 124.22 91.0228 124.442 91.1174 124.652C91.6444 125.818 92.8545 126.311 94.1194 125.735C95.5754 125.071 95.9508 123.57 95.3292 122.194C94.724 120.855 93.2721 120.143 91.6887 120.864C90.8333 121.254 90.2932 121.928 90.1248 122.697ZM93.7835 124.942C93.0464 125.278 92.3982 124.936 92.1206 124.37L94.5867 123.247C94.7622 124.024 94.466 124.632 93.7835 124.942Z" fill="#08416A"/>
<path d="M82.9088 124.949L83.7984 125.309C83.9753 124.817 84.3866 124.411 84.9708 124.236C85.8998 123.957 86.7042 124.31 87.0853 125.344L83.5227 126.415C83.5273 126.57 83.5642 126.799 83.6299 127.019C83.9954 128.246 85.1286 128.898 86.4597 128.497C87.9921 128.037 88.5659 126.601 88.1348 125.154C87.715 123.745 86.3717 122.844 84.7053 123.344C83.8051 123.615 83.179 124.21 82.9088 124.949ZM86.2333 127.668C85.4576 127.901 84.861 127.474 84.662 126.876L87.2573 126.096C87.3268 126.89 86.9516 127.452 86.2333 127.668Z" fill="#08416A"/>
<path d="M80.4071 125.301C79.8519 124.815 79.1757 124.581 78.3368 124.718C77.4092 124.87 76.7143 125.582 76.8632 126.561C77.1406 128.268 79.5236 127.533 79.6855 128.53C79.7401 128.866 79.5481 129.181 79.0744 129.259C78.66 129.327 78.2745 129.136 77.9503 128.825L77.3573 129.54C77.7896 129.956 78.4887 130.206 79.219 130.086C80.2157 129.923 80.8007 129.158 80.6676 128.339C80.3822 126.582 78.004 127.347 77.8404 126.34C77.7795 125.965 77.9978 125.625 78.4814 125.546C78.9748 125.465 79.4128 125.667 79.8059 126.028L80.4071 125.301Z" fill="#08416A"/>
</svg>
