<svg width="707" height="249" viewBox="0 0 707 249" fill="none" xmlns="http://www.w3.org/2000/svg">
<mask id="mask0_1400_25186" style="mask-type:alpha" maskUnits="userSpaceOnUse" x="0" y="0" width="293" height="249">
<path d="M292.009 153.794C292.009 235.174 272.479 248.785 191.099 248.785C109.719 248.785 0 179.43 0 98.0501C0 16.67 131.183 0 198.082 0C283.81 0 292.009 103.726 292.009 153.794Z" fill="url(#paint0_linear_1400_25186)"/>
</mask>
<g mask="url(#mask0_1400_25186)">
<path d="M292.009 153.794C292.009 235.174 272.479 248.785 191.099 248.785C109.719 248.785 0 179.43 0 98.0501C0 16.67 131.183 0 198.082 0C283.81 0 292.009 103.726 292.009 153.794Z" fill="url(#paint1_linear_1400_25186)"/>
<g filter="url(#filter0_f_1400_25186)">
<circle cx="92.2212" cy="209.082" r="96.935" fill="#1D3C83" fill-opacity="0.9"/>
</g>
<path d="M306.118 240.651C270.581 335.957 164.512 384.409 69.2066 348.872C-26.0992 313.335 -74.5513 207.266 -39.0143 111.96C-3.47726 16.6545 -37.9051 130.291 57.4006 165.828C152.706 201.365 341.655 145.345 306.118 240.651Z" fill="url(#paint2_linear_1400_25186)"/>
<path d="M163.534 35.6085C163.534 97.082 162.929 146.916 101.455 146.916C39.9816 146.916 -9.85254 97.082 -9.85254 35.6085C-9.85254 -25.8651 39.9816 -75.6992 101.455 -75.6992C162.929 -75.6992 163.534 -25.8651 163.534 35.6085Z" fill="url(#paint3_linear_1400_25186)" fill-opacity="0.2"/>
<path d="M378.932 235.705C353.125 291.499 238.933 399.073 183.139 373.265C127.345 347.457 128.304 143.087 154.112 87.2936C179.92 31.4998 268.77 80.5882 324.564 106.396C380.358 132.204 404.74 179.911 378.932 235.705Z" fill="url(#paint4_linear_1400_25186)"/>
<path opacity="0.7" d="M127.194 187.227C117.884 239.326 45.0983 241.7 7.14716 234.918C-30.8039 228.136 -43.1213 197.118 -33.8115 145.019C-24.5016 92.9206 2.91008 39.4697 40.8612 46.2515C78.8123 53.0332 136.503 135.128 127.194 187.227Z" fill="url(#paint5_linear_1400_25186)"/>
<path opacity="0.7" d="M287.316 -68.5102C338.317 -82.6481 371.936 -18.0486 382.235 19.1027C392.534 56.2539 369.894 80.7747 318.893 94.9125C267.892 109.05 207.843 107.452 197.545 70.3005C187.246 33.1493 236.315 -54.3723 287.316 -68.5102Z" fill="url(#paint6_linear_1400_25186)"/>
<path d="M184.036 205.737C117.072 238.348 -72.5285 251.872 -105.14 184.907C-137.751 117.943 19.6883 -73.1835 86.6524 -105.795C153.617 -138.406 199.429 -24.2662 232.041 42.698C264.652 109.662 251 173.125 184.036 205.737Z" fill="url(#paint7_linear_1400_25186)" fill-opacity="0.1"/>
</g>
<path d="M358.584 171.715C353.809 171.715 349.563 171.056 345.849 169.739C342.134 168.423 338.586 166.25 335.203 163.221C334.473 162.695 333.909 162.069 333.511 161.345C333.18 160.555 333.014 159.765 333.014 158.975C333.014 157.724 333.478 156.605 334.407 155.617C335.335 154.629 336.496 154.136 337.889 154.136C338.95 154.136 339.945 154.498 340.874 155.222C343.395 157.526 346.015 159.271 348.734 160.456C351.52 161.641 354.77 162.234 358.485 162.234C361.138 162.234 363.559 161.806 365.748 160.95C368.004 160.094 369.795 158.942 371.121 157.493C372.448 156.045 373.111 154.366 373.111 152.457C373.111 150.087 372.415 148.144 371.022 146.63C369.695 145.05 367.738 143.766 365.151 142.778C362.631 141.725 359.579 140.836 355.998 140.112C352.681 139.519 349.696 138.696 347.043 137.643C344.456 136.59 342.234 135.273 340.376 133.693C338.519 132.047 337.093 130.104 336.098 127.866C335.103 125.627 334.606 123.027 334.606 120.064C334.606 116.048 335.667 112.591 337.79 109.694C339.912 106.797 342.798 104.559 346.446 102.979C350.094 101.399 354.207 100.609 358.783 100.609C362.962 100.609 366.876 101.267 370.524 102.584C374.172 103.835 377.124 105.547 379.379 107.719C380.971 109.102 381.767 110.583 381.767 112.163C381.767 113.348 381.27 114.468 380.275 115.521C379.346 116.509 378.252 117.003 376.992 117.003C376.063 117.003 375.267 116.739 374.604 116.212C373.542 115.093 372.116 114.106 370.325 113.25C368.534 112.328 366.611 111.571 364.554 110.978C362.564 110.386 360.641 110.089 358.783 110.089C355.799 110.089 353.245 110.517 351.122 111.373C349 112.163 347.374 113.283 346.247 114.731C345.119 116.114 344.555 117.76 344.555 119.669C344.555 121.908 345.186 123.751 346.446 125.199C347.772 126.648 349.597 127.833 351.918 128.755C354.24 129.611 356.893 130.401 359.878 131.125C363.526 131.915 366.776 132.804 369.629 133.791C372.547 134.779 375.002 136.063 376.992 137.643C378.981 139.157 380.507 141.067 381.568 143.371C382.63 145.675 383.16 148.539 383.16 151.963C383.16 155.913 382.033 159.37 379.777 162.333C377.522 165.295 374.537 167.6 370.823 169.246C367.174 170.892 363.095 171.715 358.584 171.715Z" fill="#292929"/>
<path d="M416.687 171.715C411.182 171.715 406.406 170.595 402.359 168.357C398.313 166.053 395.162 162.925 392.907 158.975C390.718 154.959 389.624 150.383 389.624 145.247C389.624 139.454 390.785 134.516 393.106 130.434C395.494 126.286 398.579 123.126 402.359 120.953C406.14 118.714 410.153 117.595 414.399 117.595C417.649 117.595 420.733 118.253 423.652 119.57C426.57 120.821 429.157 122.599 431.413 124.903C433.734 127.142 435.558 129.808 436.885 132.903C438.212 135.931 438.908 139.256 438.975 142.877C438.908 144.194 438.378 145.28 437.383 146.136C436.388 146.992 435.227 147.42 433.9 147.42H395.196L392.808 139.026H430.219L428.328 140.803V138.334C428.196 136.03 427.433 134.022 426.04 132.31C424.647 130.532 422.922 129.183 420.866 128.261C418.81 127.273 416.654 126.78 414.399 126.78C412.409 126.78 410.485 127.109 408.628 127.767C406.837 128.36 405.212 129.347 403.752 130.73C402.359 132.113 401.232 133.956 400.37 136.26C399.574 138.499 399.176 141.297 399.176 144.655C399.176 148.276 399.938 151.436 401.464 154.136C402.99 156.835 405.046 158.942 407.633 160.456C410.22 161.905 413.072 162.629 416.19 162.629C418.644 162.629 420.667 162.398 422.259 161.938C423.851 161.411 425.178 160.785 426.239 160.061C427.3 159.337 428.229 158.646 429.025 157.987C430.02 157.395 431.015 157.098 432.01 157.098C433.204 157.098 434.199 157.526 434.995 158.382C435.791 159.172 436.189 160.127 436.189 161.246C436.189 162.695 435.459 164.012 434 165.197C432.209 166.908 429.721 168.423 426.537 169.739C423.42 171.056 420.136 171.715 416.687 171.715ZM414.299 115.027C413.835 115.027 413.238 114.797 412.508 114.336C411.845 113.809 411.546 113.118 411.613 112.262C411.613 111.735 411.812 111.176 412.21 110.583L418.08 100.707C418.544 99.8515 419.175 99.0943 419.971 98.436C420.833 97.7117 421.795 97.3496 422.856 97.3496C424.382 97.3496 425.542 97.7776 426.338 98.6335C427.134 99.4235 427.499 100.444 427.433 101.695C427.366 102.288 427.201 102.88 426.935 103.473C426.67 104.065 426.305 104.658 425.841 105.25L418.279 113.447C417.682 114.04 417.019 114.468 416.289 114.731C415.626 114.929 414.962 115.027 414.299 115.027Z" fill="#292929"/>
<path d="M471.414 117.595C474.996 117.595 478.18 117.99 480.966 118.78C483.751 119.504 485.907 120.558 487.433 121.94C489.025 123.257 489.821 124.804 489.821 126.582C489.821 127.701 489.489 128.755 488.826 129.742C488.162 130.664 487.168 131.125 485.841 131.125C484.912 131.125 484.116 130.96 483.453 130.631C482.856 130.302 482.292 129.907 481.761 129.446C481.231 128.985 480.568 128.524 479.772 128.063C479.042 127.668 477.947 127.339 476.488 127.076C475.095 126.813 473.835 126.681 472.707 126.681C469.192 126.681 466.14 127.471 463.553 129.051C461.033 130.631 459.043 132.771 457.584 135.47C456.191 138.17 455.494 141.231 455.494 144.655C455.494 148.078 456.191 151.14 457.584 153.839C459.043 156.539 461 158.679 463.454 160.259C465.975 161.839 468.893 162.629 472.21 162.629C474.2 162.629 475.825 162.497 477.085 162.234C478.345 161.905 479.44 161.51 480.369 161.049C481.364 160.456 482.193 159.864 482.856 159.271C483.586 158.613 484.581 158.284 485.841 158.284C487.3 158.284 488.395 158.744 489.124 159.666C489.92 160.522 490.318 161.608 490.318 162.925C490.318 164.374 489.423 165.789 487.632 167.172C485.907 168.489 483.586 169.575 480.667 170.431C477.748 171.287 474.531 171.715 471.016 171.715C465.842 171.715 461.331 170.53 457.484 168.159C453.703 165.789 450.751 162.563 448.629 158.481C446.573 154.399 445.544 149.79 445.544 144.655C445.544 139.454 446.639 134.845 448.828 130.829C451.017 126.747 454.068 123.521 457.982 121.15C461.895 118.78 466.373 117.595 471.414 117.595Z" fill="#292929"/>
<path d="M536.839 118.78C538.232 118.78 539.393 119.274 540.321 120.262C541.316 121.183 541.814 122.368 541.814 123.817V149.79C541.814 156.638 539.89 162.003 536.043 165.888C532.196 169.707 526.756 171.616 519.725 171.616C512.76 171.616 507.354 169.707 503.507 165.888C499.726 162.003 497.836 156.638 497.836 149.79V123.817C497.836 122.368 498.3 121.183 499.229 120.262C500.157 119.274 501.351 118.78 502.811 118.78C504.204 118.78 505.364 119.274 506.293 120.262C507.288 121.183 507.786 122.368 507.786 123.817V149.79C507.786 154.07 508.78 157.263 510.77 159.37C512.827 161.477 515.812 162.53 519.725 162.53C523.705 162.53 526.723 161.477 528.779 159.37C530.836 157.263 531.864 154.07 531.864 149.79V123.817C531.864 122.368 532.328 121.183 533.257 120.262C534.185 119.274 535.379 118.78 536.839 118.78Z" fill="#292929"/>
<path d="M558.634 170.727C557.175 170.727 555.981 170.266 555.052 169.344C554.124 168.357 553.659 167.139 553.659 165.69V123.817C553.659 122.368 554.124 121.183 555.052 120.262C555.981 119.274 557.175 118.78 558.634 118.78C560.027 118.78 561.188 119.274 562.117 120.262C563.111 121.183 563.609 122.368 563.609 123.817V134.878L562.614 130.631C563.145 128.788 563.941 127.076 565.002 125.496C566.13 123.916 567.456 122.533 568.982 121.348C570.507 120.163 572.199 119.241 574.056 118.583C575.98 117.924 577.97 117.595 580.026 117.595C581.751 117.595 583.243 118.056 584.503 118.978C585.764 119.899 586.394 121.052 586.394 122.434C586.394 124.212 585.93 125.529 585.001 126.385C584.072 127.175 583.044 127.57 581.916 127.57C580.922 127.57 579.96 127.372 579.031 126.977C578.102 126.516 577.008 126.286 575.748 126.286C574.355 126.286 572.929 126.648 571.469 127.372C570.01 128.096 568.683 129.183 567.489 130.631C566.295 132.014 565.334 133.66 564.604 135.569C563.941 137.478 563.609 139.618 563.609 141.988V165.69C563.609 167.139 563.111 168.357 562.117 169.344C561.188 170.266 560.027 170.727 558.634 170.727Z" fill="#292929"/>
<path d="M602.609 165.69C602.609 167.139 602.145 168.357 601.216 169.344C600.287 170.266 599.093 170.727 597.634 170.727C596.241 170.727 595.047 170.266 594.052 169.344C593.123 168.357 592.659 167.139 592.659 165.69V123.422C592.659 121.973 593.123 120.788 594.052 119.867C595.047 118.879 596.241 118.385 597.634 118.385C599.093 118.385 600.287 118.879 601.216 119.867C602.145 120.788 602.609 121.973 602.609 123.422V165.69ZM597.534 111.867C595.611 111.867 594.218 111.538 593.356 110.88C592.493 110.155 592.062 108.97 592.062 107.324V105.744C592.062 104.098 592.526 102.946 593.455 102.288C594.384 101.629 595.777 101.3 597.634 101.3C599.624 101.3 601.05 101.662 601.912 102.386C602.775 103.045 603.206 104.164 603.206 105.744V107.324C603.206 109.036 602.741 110.221 601.813 110.88C600.951 111.538 599.524 111.867 597.534 111.867Z" fill="#292929"/>
<path d="M610.918 162.629C610.321 161.707 610.056 160.654 610.122 159.469C610.189 158.218 610.885 157.164 612.212 156.308C613.141 155.716 614.102 155.485 615.097 155.617C616.159 155.683 617.154 156.177 618.082 157.098C619.94 159.139 621.996 160.752 624.251 161.938C626.573 163.123 629.359 163.715 632.609 163.715C633.935 163.649 635.295 163.452 636.688 163.123C638.081 162.728 639.275 162.069 640.27 161.148C641.265 160.16 641.763 158.744 641.763 156.901C641.763 155.255 641.232 153.938 640.171 152.951C639.109 151.963 637.716 151.173 635.992 150.58C634.267 149.922 632.41 149.329 630.42 148.803C628.297 148.21 626.142 147.552 623.953 146.828C621.83 146.103 619.906 145.182 618.182 144.062C616.457 142.877 615.031 141.363 613.903 139.519C612.842 137.676 612.311 135.404 612.311 132.705C612.311 129.611 613.174 126.944 614.898 124.706C616.689 122.467 618.978 120.722 621.764 119.471C624.616 118.221 627.7 117.595 631.017 117.595C632.941 117.595 634.964 117.858 637.086 118.385C639.209 118.846 641.265 119.603 643.255 120.657C645.245 121.71 646.97 123.093 648.429 124.804C649.092 125.66 649.457 126.681 649.523 127.866C649.656 129.051 649.125 130.104 647.931 131.026C647.135 131.685 646.174 131.981 645.046 131.915C643.918 131.849 642.99 131.487 642.26 130.829C641 129.249 639.375 128.031 637.385 127.175C635.395 126.253 633.139 125.792 630.619 125.792C629.359 125.792 628.032 125.99 626.639 126.385C625.312 126.714 624.185 127.339 623.256 128.261C622.327 129.183 621.863 130.532 621.863 132.31C621.863 133.956 622.394 135.273 623.455 136.26C624.583 137.248 626.042 138.071 627.833 138.729C629.624 139.388 631.581 139.98 633.703 140.507C635.76 141.034 637.783 141.659 639.773 142.383C641.829 143.108 643.653 144.062 645.245 145.247C646.903 146.367 648.23 147.848 649.225 149.692C650.286 151.469 650.817 153.741 650.817 156.506C650.817 159.732 649.855 162.497 647.931 164.802C646.074 167.04 643.686 168.752 640.768 169.937C637.915 171.122 634.897 171.715 631.713 171.715C627.932 171.715 624.152 171.056 620.371 169.739C616.656 168.357 613.505 165.987 610.918 162.629Z" fill="#292929"/>
<path d="M683.904 171.715C678.398 171.715 673.622 170.595 669.576 168.357C665.53 166.053 662.379 162.925 660.124 158.975C657.935 154.959 656.84 150.383 656.84 145.247C656.84 139.454 658.001 134.516 660.323 130.434C662.711 126.286 665.795 123.126 669.576 120.953C673.357 118.714 677.37 117.595 681.615 117.595C684.865 117.595 687.95 118.253 690.868 119.57C693.787 120.821 696.374 122.599 698.629 124.903C700.951 127.142 702.775 129.808 704.102 132.903C705.428 135.931 706.125 139.256 706.191 142.877C706.125 144.194 705.594 145.28 704.599 146.136C703.604 146.992 702.443 147.42 701.117 147.42H662.412L660.024 139.026H697.435L695.545 140.803V138.334C695.412 136.03 694.649 134.022 693.256 132.31C691.863 130.532 690.139 129.183 688.083 128.261C686.026 127.273 683.87 126.78 681.615 126.78C679.625 126.78 677.702 127.109 675.844 127.767C674.053 128.36 672.428 129.347 670.969 130.73C669.576 132.113 668.448 133.956 667.586 136.26C666.79 138.499 666.392 141.297 666.392 144.655C666.392 148.276 667.155 151.436 668.681 154.136C670.206 156.835 672.262 158.942 674.849 160.456C677.436 161.905 680.289 162.629 683.406 162.629C685.86 162.629 687.884 162.398 689.475 161.938C691.067 161.411 692.394 160.785 693.455 160.061C694.517 159.337 695.445 158.646 696.241 157.987C697.236 157.395 698.231 157.098 699.226 157.098C700.42 157.098 701.415 157.526 702.211 158.382C703.007 159.172 703.405 160.127 703.405 161.246C703.405 162.695 702.675 164.012 701.216 165.197C699.425 166.908 696.938 168.423 693.754 169.739C690.636 171.056 687.353 171.715 683.904 171.715ZM681.516 115.027C681.051 115.027 680.454 114.797 679.725 114.336C679.061 113.809 678.763 113.118 678.829 112.262C678.829 111.735 679.028 111.176 679.426 110.583L685.297 100.707C685.761 99.8515 686.391 99.0943 687.187 98.436C688.049 97.7117 689.011 97.3496 690.072 97.3496C691.598 97.3496 692.759 97.7776 693.555 98.6335C694.351 99.4235 694.716 100.444 694.649 101.695C694.583 102.288 694.417 102.88 694.152 103.473C693.887 104.065 693.522 104.658 693.057 105.25L685.496 113.447C684.899 114.04 684.235 114.468 683.506 114.731C682.842 114.929 682.179 115.027 681.516 115.027Z" fill="#292929"/>
<mask id="path-11-outside-1_1400_25186" maskUnits="userSpaceOnUse" x="332.998" y="32.5312" width="326" height="47" fill="black">
<rect fill="white" x="332.998" y="32.5312" width="326" height="47"/>
<path d="M337.229 34.0904C337.726 34.0904 338.243 34.2146 338.782 34.4631C339.32 34.7116 339.734 35.0637 340.024 35.5192L355.804 59.5616L353.133 59.4373L369.223 35.5192C369.886 34.5667 370.735 34.0904 371.77 34.0904C372.598 34.0904 373.323 34.401 373.944 35.0222C374.607 35.6021 374.938 36.3476 374.938 37.2587V74.4716C374.938 75.3827 374.648 76.1489 374.069 76.7702C373.489 77.35 372.723 77.6399 371.77 77.6399C370.776 77.6399 369.968 77.35 369.347 76.7702C368.767 76.1489 368.477 75.3827 368.477 74.4716V42.9742L370.465 43.4091L356.798 64.221C356.508 64.5937 356.135 64.925 355.68 65.215C355.224 65.4635 354.748 65.567 354.251 65.5256C353.795 65.567 353.319 65.4635 352.822 65.215C352.366 64.925 351.994 64.5937 351.704 64.221L338.533 43.7197L340.024 41.2347V74.4716C340.024 75.3827 339.734 76.1489 339.154 76.7702C338.616 77.35 337.891 77.6399 336.98 77.6399C336.11 77.6399 335.386 77.35 334.806 76.7702C334.267 76.1489 333.998 75.3827 333.998 74.4716V37.2587C333.998 36.389 334.309 35.6435 334.93 35.0222C335.593 34.401 336.359 34.0904 337.229 34.0904Z"/>
<path d="M414.466 61.3011C414.466 64.6144 413.742 67.555 412.292 70.1228C410.842 72.6492 408.875 74.6372 406.39 76.0868C403.905 77.5364 401.109 78.2612 398.003 78.2612C394.897 78.2612 392.101 77.5364 389.616 76.0868C387.131 74.6372 385.143 72.6492 383.652 70.1228C382.203 67.555 381.478 64.6144 381.478 61.3011C381.478 57.9463 382.203 55.0058 383.652 52.4793C385.143 49.9115 387.131 47.9028 389.616 46.4532C392.101 44.9622 394.897 44.2167 398.003 44.2167C401.109 44.2167 403.905 44.9622 406.39 46.4532C408.875 47.9028 410.842 49.9115 412.292 52.4793C413.742 55.0058 414.466 57.9463 414.466 61.3011ZM408.254 61.3011C408.254 59.0232 407.798 57.0559 406.887 55.3992C405.976 53.7011 404.733 52.3758 403.16 51.4232C401.627 50.4292 399.908 49.9322 398.003 49.9322C396.098 49.9322 394.359 50.4292 392.785 51.4232C391.211 52.3758 389.968 53.7011 389.057 55.3992C388.146 57.0559 387.69 59.0232 387.69 61.3011C387.69 63.4962 388.146 65.4427 389.057 67.1408C389.968 68.8389 391.211 70.1642 392.785 71.1168C394.359 72.0694 396.098 72.5457 398.003 72.5457C399.908 72.5457 401.627 72.0694 403.16 71.1168C404.733 70.1642 405.976 68.8389 406.887 67.1408C407.798 65.4427 408.254 63.4962 408.254 61.3011Z"/>
<path d="M437.091 44.2167C440.032 44.2167 442.31 44.838 443.925 46.0805C445.54 47.2816 446.659 48.9175 447.28 50.9884C447.943 53.0178 448.274 55.2957 448.274 57.8221V74.4716C448.274 75.3827 447.963 76.1489 447.342 76.7702C446.762 77.35 446.037 77.6399 445.168 77.6399C444.257 77.6399 443.511 77.35 442.931 76.7702C442.351 76.1489 442.061 75.3827 442.061 74.4716V57.8842C442.061 56.3932 441.854 55.0679 441.44 53.9082C441.026 52.7071 440.301 51.7546 439.266 51.0505C438.272 50.305 436.864 49.9322 435.041 49.9322C433.343 49.9322 431.852 50.305 430.568 51.0505C429.284 51.7546 428.27 52.7071 427.524 53.9082C426.82 55.0679 426.468 56.3932 426.468 57.8842V74.4716C426.468 75.3827 426.157 76.1489 425.536 76.7702C424.956 77.35 424.232 77.6399 423.362 77.6399C422.451 77.6399 421.705 77.35 421.125 76.7702C420.545 76.1489 420.256 75.3827 420.256 74.4716V48.1306C420.256 47.2194 420.545 46.4739 421.125 45.8941C421.705 45.2729 422.451 44.9622 423.362 44.9622C424.232 44.9622 424.956 45.2729 425.536 45.8941C426.157 46.4739 426.468 47.2194 426.468 48.1306V51.6096L425.35 52.2309C425.64 51.3197 426.137 50.4085 426.841 49.4974C427.586 48.5448 428.477 47.675 429.512 46.8881C430.548 46.0598 431.707 45.4178 432.991 44.9622C434.275 44.4652 435.642 44.2167 437.091 44.2167Z"/>
<path d="M469.697 78.2612C466.715 78.2612 464.065 77.847 461.745 77.0187C459.426 76.1904 457.21 74.8236 455.098 72.9184C454.642 72.5871 454.29 72.1937 454.042 71.7381C453.835 71.2411 453.731 70.7441 453.731 70.2471C453.731 69.4602 454.021 68.7561 454.601 68.1348C455.181 67.5136 455.906 67.203 456.775 67.203C457.438 67.203 458.059 67.4307 458.639 67.8863C460.213 69.3359 461.849 70.4335 463.547 71.179C465.286 71.9244 467.316 72.2972 469.635 72.2972C471.292 72.2972 472.804 72.028 474.17 71.4896C475.578 70.9512 476.697 70.2264 477.525 69.3152C478.353 68.404 478.768 67.3479 478.768 66.1468C478.768 64.6558 478.333 63.434 477.463 62.4815C476.635 61.4875 475.413 60.6798 473.798 60.0586C472.224 59.3959 470.319 58.8368 468.082 58.3812C466.011 58.0085 464.147 57.4908 462.491 56.8281C460.876 56.1654 459.488 55.3371 458.328 54.3431C457.169 53.3077 456.278 52.0859 455.657 50.6777C455.036 49.2696 454.725 47.6336 454.725 45.7699C454.725 43.2434 455.388 41.0691 456.713 39.2467C458.039 37.4244 459.84 36.0162 462.118 35.0222C464.396 34.0282 466.964 33.5312 469.822 33.5312C472.431 33.5312 474.874 33.9454 477.152 34.7737C479.43 35.5607 481.273 36.6375 482.681 38.0042C483.675 38.874 484.172 39.8059 484.172 40.7999C484.172 41.5454 483.862 42.2494 483.241 42.9121C482.661 43.5334 481.977 43.844 481.19 43.844C480.611 43.844 480.114 43.6783 479.699 43.347C479.037 42.6429 478.146 42.0217 477.028 41.4832C475.91 40.9034 474.709 40.4271 473.425 40.0544C472.182 39.6816 470.981 39.4952 469.822 39.4952C467.958 39.4952 466.363 39.7645 465.038 40.3029C463.713 40.7999 462.698 41.5039 461.994 42.4151C461.29 43.2849 460.938 44.3203 460.938 45.5214C460.938 46.9295 461.331 48.0892 462.118 49.0004C462.946 49.9115 464.085 50.657 465.535 51.2369C466.985 51.7753 468.641 52.2723 470.505 52.7278C472.783 53.2248 474.812 53.784 476.593 54.4052C478.416 55.0265 479.948 55.8341 481.19 56.8281C482.433 57.7807 483.385 58.9818 484.048 60.4313C484.711 61.8809 485.042 63.6825 485.042 65.8362C485.042 68.3212 484.338 70.4956 482.93 72.3593C481.522 74.2231 479.658 75.6727 477.339 76.7081C475.061 77.7435 472.514 78.2612 469.697 78.2612Z"/>
<path d="M505.976 78.2612C502.538 78.2612 499.556 77.5571 497.03 76.1489C494.503 74.6994 492.536 72.7321 491.128 70.2471C489.761 67.7207 489.078 64.8422 489.078 61.6117C489.078 57.9671 489.803 54.8608 491.252 52.293C492.743 49.6837 494.669 47.6957 497.03 46.329C499.391 44.9208 501.896 44.2167 504.547 44.2167C506.576 44.2167 508.502 44.6309 510.325 45.4592C512.147 46.2462 513.762 47.3644 515.17 48.814C516.62 50.2221 517.759 51.8995 518.587 53.8461C519.416 55.7513 519.85 57.8428 519.892 60.1207C519.85 60.949 519.519 61.6324 518.898 62.1708C518.277 62.7093 517.552 62.9785 516.723 62.9785H492.557L491.066 57.6978H514.425L513.244 58.8161V57.263C513.162 55.8134 512.685 54.5502 511.816 53.4733C510.946 52.3551 509.869 51.5061 508.585 50.9262C507.301 50.305 505.955 49.9944 504.547 49.9944C503.304 49.9944 502.103 50.2014 500.944 50.6156C499.825 50.9884 498.811 51.6096 497.9 52.4793C497.03 53.3491 496.326 54.5088 495.787 55.9583C495.29 57.3665 495.042 59.1267 495.042 61.239C495.042 63.5169 495.518 65.5049 496.471 67.203C497.423 68.901 498.707 70.2264 500.322 71.179C501.938 72.0901 503.719 72.5457 505.665 72.5457C507.198 72.5457 508.461 72.4007 509.455 72.1108C510.449 71.7795 511.277 71.386 511.94 70.9305C512.602 70.4749 513.182 70.04 513.679 69.6258C514.301 69.2531 514.922 69.0667 515.543 69.0667C516.289 69.0667 516.91 69.3359 517.407 69.8743C517.904 70.3713 518.152 70.9719 518.152 71.6759C518.152 72.5871 517.697 73.4154 516.786 74.1609C515.667 75.2378 514.114 76.1904 512.126 77.0187C510.18 77.847 508.13 78.2612 505.976 78.2612Z"/>
<path d="M528.778 77.6399C527.866 77.6399 527.121 77.35 526.541 76.7702C525.961 76.1489 525.671 75.3827 525.671 74.4716V48.1306C525.671 47.2194 525.961 46.4739 526.541 45.8941C527.121 45.2729 527.866 44.9622 528.778 44.9622C529.647 44.9622 530.372 45.2729 530.952 45.8941C531.573 46.4739 531.884 47.2194 531.884 48.1306V55.0886L531.263 52.4172C531.594 51.2576 532.091 50.1807 532.754 49.1867C533.458 48.1927 534.286 47.323 535.239 46.5775C536.191 45.832 537.247 45.2522 538.407 44.838C539.608 44.4238 540.851 44.2167 542.134 44.2167C543.211 44.2167 544.143 44.5067 544.93 45.0865C545.717 45.6663 546.11 46.3911 546.11 47.2609C546.11 48.3791 545.821 49.2074 545.241 49.7459C544.661 50.2429 544.019 50.4914 543.315 50.4914C542.694 50.4914 542.093 50.3671 541.513 50.1186C540.933 49.8287 540.25 49.6837 539.463 49.6837C538.593 49.6837 537.703 49.9115 536.792 50.3671C535.881 50.8227 535.052 51.5061 534.307 52.4172C533.561 53.287 532.961 54.3224 532.505 55.5235C532.091 56.7246 531.884 58.0706 531.884 59.5616V74.4716C531.884 75.3827 531.573 76.1489 530.952 76.7702C530.372 77.35 529.647 77.6399 528.778 77.6399Z"/>
<path d="M553.175 44.6516C553.796 44.6516 554.376 44.8173 554.914 45.1486C555.494 45.4799 555.908 45.9769 556.157 46.6396L565.91 69.191L564.73 69.7501L574.608 46.7017C575.188 45.335 576.119 44.6723 577.403 44.7137C578.232 44.7137 578.915 44.9829 579.453 45.5214C580.033 46.0184 580.323 46.681 580.323 47.5094C580.323 47.7579 580.282 48.0271 580.199 48.317C580.116 48.5655 580.013 48.814 579.888 49.0625L568.085 75.6519C567.546 76.8944 566.656 77.5571 565.413 77.6399C564.792 77.7228 564.171 77.5985 563.549 77.2672C562.97 76.8944 562.514 76.356 562.183 75.6519L550.441 49.0625C550.358 48.8968 550.275 48.6897 550.193 48.4412C550.11 48.1513 550.068 47.82 550.068 47.4472C550.068 46.826 550.338 46.2047 550.876 45.5835C551.456 44.9622 552.222 44.6516 553.175 44.6516Z"/>
<path d="M591.244 74.4716C591.244 75.3827 590.954 76.1489 590.374 76.7702C589.794 77.35 589.048 77.6399 588.137 77.6399C587.268 77.6399 586.522 77.35 585.901 76.7702C585.321 76.1489 585.031 75.3827 585.031 74.4716V47.8821C585.031 46.9709 585.321 46.2254 585.901 45.6456C586.522 45.0244 587.268 44.7137 588.137 44.7137C589.048 44.7137 589.794 45.0244 590.374 45.6456C590.954 46.2254 591.244 46.9709 591.244 47.8821V74.4716ZM588.075 40.6135C586.874 40.6135 586.004 40.4064 585.466 39.9922C584.928 39.5367 584.658 38.7912 584.658 37.7557V36.7617C584.658 35.7263 584.948 35.0015 585.528 34.5874C586.108 34.1732 586.978 33.9661 588.137 33.9661C589.38 33.9661 590.27 34.1939 590.809 34.6495C591.347 35.0637 591.616 35.7677 591.616 36.7617V37.7557C591.616 38.8326 591.326 39.5781 590.747 39.9922C590.208 40.4064 589.318 40.6135 588.075 40.6135Z"/>
<path d="M612.833 44.2167C615.069 44.2167 617.057 44.4652 618.797 44.9622C620.536 45.4178 621.882 46.0805 622.835 46.9502C623.829 47.7786 624.326 48.7519 624.326 49.8701C624.326 50.5742 624.119 51.2369 623.705 51.8581C623.291 52.4379 622.669 52.7278 621.841 52.7278C621.261 52.7278 620.764 52.6243 620.35 52.4172C619.977 52.2101 619.625 51.9616 619.294 51.6717C618.963 51.3818 618.548 51.0919 618.051 50.802C617.596 50.5535 616.913 50.3464 616.001 50.1807C615.132 50.0151 614.345 49.9322 613.641 49.9322C611.445 49.9322 609.54 50.4292 607.925 51.4232C606.351 52.4172 605.109 53.7633 604.198 55.4613C603.328 57.1594 602.893 59.0853 602.893 61.239C602.893 63.3926 603.328 65.3185 604.198 67.0166C605.109 68.7147 606.331 70.0607 607.863 71.0547C609.437 72.0487 611.259 72.5457 613.33 72.5457C614.572 72.5457 615.587 72.4629 616.374 72.2972C617.161 72.0901 617.844 71.8416 618.424 71.5517C619.045 71.179 619.563 70.8062 619.977 70.4334C620.433 70.0193 621.054 69.8122 621.841 69.8122C622.752 69.8122 623.436 70.1021 623.891 70.682C624.388 71.2204 624.637 71.9037 624.637 72.7321C624.637 73.6432 624.078 74.5337 622.959 75.4034C621.883 76.2318 620.433 76.9152 618.611 77.4536C616.788 77.992 614.78 78.2612 612.584 78.2612C609.354 78.2612 606.538 77.5157 604.135 76.0247C601.775 74.5337 599.932 72.5043 598.606 69.9365C597.322 67.3686 596.68 64.4695 596.68 61.239C596.68 57.9671 597.364 55.0679 598.731 52.5415C600.097 49.9736 602.003 47.9442 604.446 46.4532C606.89 44.9622 609.685 44.2167 612.833 44.2167Z"/>
<path d="M644.551 78.2612C641.114 78.2612 638.132 77.5571 635.605 76.1489C633.079 74.6994 631.111 72.7321 629.703 70.2471C628.337 67.7207 627.653 64.8422 627.653 61.6117C627.653 57.9671 628.378 54.8608 629.828 52.293C631.319 49.6837 633.244 47.6957 635.605 46.329C637.966 44.9208 640.472 44.2167 643.122 44.2167C645.152 44.2167 647.078 44.6309 648.9 45.4592C650.722 46.2462 652.337 47.3644 653.746 48.814C655.195 50.2221 656.334 51.8995 657.162 53.8461C657.991 55.7513 658.426 57.8428 658.467 60.1207C658.426 60.949 658.094 61.6324 657.473 62.1708C656.852 62.7093 656.127 62.9785 655.299 62.9785H631.132L629.641 57.6978H653L651.82 58.8161V57.263C651.737 55.8134 651.261 54.5502 650.391 53.4733C649.521 52.3551 648.444 51.5061 647.16 50.9262C645.876 50.305 644.53 49.9944 643.122 49.9944C641.88 49.9944 640.679 50.2014 639.519 50.6156C638.401 50.9884 637.386 51.6096 636.475 52.4793C635.605 53.3491 634.901 54.5088 634.363 55.9583C633.866 57.3665 633.617 59.1267 633.617 61.239C633.617 63.5169 634.093 65.5049 635.046 67.203C635.999 68.901 637.283 70.2264 638.898 71.179C640.513 72.0901 642.294 72.5457 644.241 72.5457C645.773 72.5457 647.036 72.4007 648.03 72.1108C649.024 71.7795 649.852 71.386 650.515 70.9305C651.178 70.4749 651.758 70.04 652.255 69.6258C652.876 69.2531 653.497 69.0667 654.118 69.0667C654.864 69.0667 655.485 69.3359 655.982 69.8743C656.479 70.3713 656.728 70.9719 656.728 71.6759C656.728 72.5871 656.272 73.4154 655.361 74.1609C654.243 75.2378 652.689 76.1904 650.701 77.0187C648.755 77.847 646.705 78.2612 644.551 78.2612Z"/>
</mask>
<path d="M337.229 34.0904C337.726 34.0904 338.243 34.2146 338.782 34.4631C339.32 34.7116 339.734 35.0637 340.024 35.5192L355.804 59.5616L353.133 59.4373L369.223 35.5192C369.886 34.5667 370.735 34.0904 371.77 34.0904C372.598 34.0904 373.323 34.401 373.944 35.0222C374.607 35.6021 374.938 36.3476 374.938 37.2587V74.4716C374.938 75.3827 374.648 76.1489 374.069 76.7702C373.489 77.35 372.723 77.6399 371.77 77.6399C370.776 77.6399 369.968 77.35 369.347 76.7702C368.767 76.1489 368.477 75.3827 368.477 74.4716V42.9742L370.465 43.4091L356.798 64.221C356.508 64.5937 356.135 64.925 355.68 65.215C355.224 65.4635 354.748 65.567 354.251 65.5256C353.795 65.567 353.319 65.4635 352.822 65.215C352.366 64.925 351.994 64.5937 351.704 64.221L338.533 43.7197L340.024 41.2347V74.4716C340.024 75.3827 339.734 76.1489 339.154 76.7702C338.616 77.35 337.891 77.6399 336.98 77.6399C336.11 77.6399 335.386 77.35 334.806 76.7702C334.267 76.1489 333.998 75.3827 333.998 74.4716V37.2587C333.998 36.389 334.309 35.6435 334.93 35.0222C335.593 34.401 336.359 34.0904 337.229 34.0904Z" fill="#292929"/>
<path d="M414.466 61.3011C414.466 64.6144 413.742 67.555 412.292 70.1228C410.842 72.6492 408.875 74.6372 406.39 76.0868C403.905 77.5364 401.109 78.2612 398.003 78.2612C394.897 78.2612 392.101 77.5364 389.616 76.0868C387.131 74.6372 385.143 72.6492 383.652 70.1228C382.203 67.555 381.478 64.6144 381.478 61.3011C381.478 57.9463 382.203 55.0058 383.652 52.4793C385.143 49.9115 387.131 47.9028 389.616 46.4532C392.101 44.9622 394.897 44.2167 398.003 44.2167C401.109 44.2167 403.905 44.9622 406.39 46.4532C408.875 47.9028 410.842 49.9115 412.292 52.4793C413.742 55.0058 414.466 57.9463 414.466 61.3011ZM408.254 61.3011C408.254 59.0232 407.798 57.0559 406.887 55.3992C405.976 53.7011 404.733 52.3758 403.16 51.4232C401.627 50.4292 399.908 49.9322 398.003 49.9322C396.098 49.9322 394.359 50.4292 392.785 51.4232C391.211 52.3758 389.968 53.7011 389.057 55.3992C388.146 57.0559 387.69 59.0232 387.69 61.3011C387.69 63.4962 388.146 65.4427 389.057 67.1408C389.968 68.8389 391.211 70.1642 392.785 71.1168C394.359 72.0694 396.098 72.5457 398.003 72.5457C399.908 72.5457 401.627 72.0694 403.16 71.1168C404.733 70.1642 405.976 68.8389 406.887 67.1408C407.798 65.4427 408.254 63.4962 408.254 61.3011Z" fill="#292929"/>
<path d="M437.091 44.2167C440.032 44.2167 442.31 44.838 443.925 46.0805C445.54 47.2816 446.659 48.9175 447.28 50.9884C447.943 53.0178 448.274 55.2957 448.274 57.8221V74.4716C448.274 75.3827 447.963 76.1489 447.342 76.7702C446.762 77.35 446.037 77.6399 445.168 77.6399C444.257 77.6399 443.511 77.35 442.931 76.7702C442.351 76.1489 442.061 75.3827 442.061 74.4716V57.8842C442.061 56.3932 441.854 55.0679 441.44 53.9082C441.026 52.7071 440.301 51.7546 439.266 51.0505C438.272 50.305 436.864 49.9322 435.041 49.9322C433.343 49.9322 431.852 50.305 430.568 51.0505C429.284 51.7546 428.27 52.7071 427.524 53.9082C426.82 55.0679 426.468 56.3932 426.468 57.8842V74.4716C426.468 75.3827 426.157 76.1489 425.536 76.7702C424.956 77.35 424.232 77.6399 423.362 77.6399C422.451 77.6399 421.705 77.35 421.125 76.7702C420.545 76.1489 420.256 75.3827 420.256 74.4716V48.1306C420.256 47.2194 420.545 46.4739 421.125 45.8941C421.705 45.2729 422.451 44.9622 423.362 44.9622C424.232 44.9622 424.956 45.2729 425.536 45.8941C426.157 46.4739 426.468 47.2194 426.468 48.1306V51.6096L425.35 52.2309C425.64 51.3197 426.137 50.4085 426.841 49.4974C427.586 48.5448 428.477 47.675 429.512 46.8881C430.548 46.0598 431.707 45.4178 432.991 44.9622C434.275 44.4652 435.642 44.2167 437.091 44.2167Z" fill="#292929"/>
<path d="M469.697 78.2612C466.715 78.2612 464.065 77.847 461.745 77.0187C459.426 76.1904 457.21 74.8236 455.098 72.9184C454.642 72.5871 454.29 72.1937 454.042 71.7381C453.835 71.2411 453.731 70.7441 453.731 70.2471C453.731 69.4602 454.021 68.7561 454.601 68.1348C455.181 67.5136 455.906 67.203 456.775 67.203C457.438 67.203 458.059 67.4307 458.639 67.8863C460.213 69.3359 461.849 70.4335 463.547 71.179C465.286 71.9244 467.316 72.2972 469.635 72.2972C471.292 72.2972 472.804 72.028 474.17 71.4896C475.578 70.9512 476.697 70.2264 477.525 69.3152C478.353 68.404 478.768 67.3479 478.768 66.1468C478.768 64.6558 478.333 63.434 477.463 62.4815C476.635 61.4875 475.413 60.6798 473.798 60.0586C472.224 59.3959 470.319 58.8368 468.082 58.3812C466.011 58.0085 464.147 57.4908 462.491 56.8281C460.876 56.1654 459.488 55.3371 458.328 54.3431C457.169 53.3077 456.278 52.0859 455.657 50.6777C455.036 49.2696 454.725 47.6336 454.725 45.7699C454.725 43.2434 455.388 41.0691 456.713 39.2467C458.039 37.4244 459.84 36.0162 462.118 35.0222C464.396 34.0282 466.964 33.5312 469.822 33.5312C472.431 33.5312 474.874 33.9454 477.152 34.7737C479.43 35.5607 481.273 36.6375 482.681 38.0042C483.675 38.874 484.172 39.8059 484.172 40.7999C484.172 41.5454 483.862 42.2494 483.241 42.9121C482.661 43.5334 481.977 43.844 481.19 43.844C480.611 43.844 480.114 43.6783 479.699 43.347C479.037 42.6429 478.146 42.0217 477.028 41.4832C475.91 40.9034 474.709 40.4271 473.425 40.0544C472.182 39.6816 470.981 39.4952 469.822 39.4952C467.958 39.4952 466.363 39.7645 465.038 40.3029C463.713 40.7999 462.698 41.5039 461.994 42.4151C461.29 43.2849 460.938 44.3203 460.938 45.5214C460.938 46.9295 461.331 48.0892 462.118 49.0004C462.946 49.9115 464.085 50.657 465.535 51.2369C466.985 51.7753 468.641 52.2723 470.505 52.7278C472.783 53.2248 474.812 53.784 476.593 54.4052C478.416 55.0265 479.948 55.8341 481.19 56.8281C482.433 57.7807 483.385 58.9818 484.048 60.4313C484.711 61.8809 485.042 63.6825 485.042 65.8362C485.042 68.3212 484.338 70.4956 482.93 72.3593C481.522 74.2231 479.658 75.6727 477.339 76.7081C475.061 77.7435 472.514 78.2612 469.697 78.2612Z" fill="#292929"/>
<path d="M505.976 78.2612C502.538 78.2612 499.556 77.5571 497.03 76.1489C494.503 74.6994 492.536 72.7321 491.128 70.2471C489.761 67.7207 489.078 64.8422 489.078 61.6117C489.078 57.9671 489.803 54.8608 491.252 52.293C492.743 49.6837 494.669 47.6957 497.03 46.329C499.391 44.9208 501.896 44.2167 504.547 44.2167C506.576 44.2167 508.502 44.6309 510.325 45.4592C512.147 46.2462 513.762 47.3644 515.17 48.814C516.62 50.2221 517.759 51.8995 518.587 53.8461C519.416 55.7513 519.85 57.8428 519.892 60.1207C519.85 60.949 519.519 61.6324 518.898 62.1708C518.277 62.7093 517.552 62.9785 516.723 62.9785H492.557L491.066 57.6978H514.425L513.244 58.8161V57.263C513.162 55.8134 512.685 54.5502 511.816 53.4733C510.946 52.3551 509.869 51.5061 508.585 50.9262C507.301 50.305 505.955 49.9944 504.547 49.9944C503.304 49.9944 502.103 50.2014 500.944 50.6156C499.825 50.9884 498.811 51.6096 497.9 52.4793C497.03 53.3491 496.326 54.5088 495.787 55.9583C495.29 57.3665 495.042 59.1267 495.042 61.239C495.042 63.5169 495.518 65.5049 496.471 67.203C497.423 68.901 498.707 70.2264 500.322 71.179C501.938 72.0901 503.719 72.5457 505.665 72.5457C507.198 72.5457 508.461 72.4007 509.455 72.1108C510.449 71.7795 511.277 71.386 511.94 70.9305C512.602 70.4749 513.182 70.04 513.679 69.6258C514.301 69.2531 514.922 69.0667 515.543 69.0667C516.289 69.0667 516.91 69.3359 517.407 69.8743C517.904 70.3713 518.152 70.9719 518.152 71.6759C518.152 72.5871 517.697 73.4154 516.786 74.1609C515.667 75.2378 514.114 76.1904 512.126 77.0187C510.18 77.847 508.13 78.2612 505.976 78.2612Z" fill="#292929"/>
<path d="M528.778 77.6399C527.866 77.6399 527.121 77.35 526.541 76.7702C525.961 76.1489 525.671 75.3827 525.671 74.4716V48.1306C525.671 47.2194 525.961 46.4739 526.541 45.8941C527.121 45.2729 527.866 44.9622 528.778 44.9622C529.647 44.9622 530.372 45.2729 530.952 45.8941C531.573 46.4739 531.884 47.2194 531.884 48.1306V55.0886L531.263 52.4172C531.594 51.2576 532.091 50.1807 532.754 49.1867C533.458 48.1927 534.286 47.323 535.239 46.5775C536.191 45.832 537.247 45.2522 538.407 44.838C539.608 44.4238 540.851 44.2167 542.134 44.2167C543.211 44.2167 544.143 44.5067 544.93 45.0865C545.717 45.6663 546.11 46.3911 546.11 47.2609C546.11 48.3791 545.821 49.2074 545.241 49.7459C544.661 50.2429 544.019 50.4914 543.315 50.4914C542.694 50.4914 542.093 50.3671 541.513 50.1186C540.933 49.8287 540.25 49.6837 539.463 49.6837C538.593 49.6837 537.703 49.9115 536.792 50.3671C535.881 50.8227 535.052 51.5061 534.307 52.4172C533.561 53.287 532.961 54.3224 532.505 55.5235C532.091 56.7246 531.884 58.0706 531.884 59.5616V74.4716C531.884 75.3827 531.573 76.1489 530.952 76.7702C530.372 77.35 529.647 77.6399 528.778 77.6399Z" fill="#292929"/>
<path d="M553.175 44.6516C553.796 44.6516 554.376 44.8173 554.914 45.1486C555.494 45.4799 555.908 45.9769 556.157 46.6396L565.91 69.191L564.73 69.7501L574.608 46.7017C575.188 45.335 576.119 44.6723 577.403 44.7137C578.232 44.7137 578.915 44.9829 579.453 45.5214C580.033 46.0184 580.323 46.681 580.323 47.5094C580.323 47.7579 580.282 48.0271 580.199 48.317C580.116 48.5655 580.013 48.814 579.888 49.0625L568.085 75.6519C567.546 76.8944 566.656 77.5571 565.413 77.6399C564.792 77.7228 564.171 77.5985 563.549 77.2672C562.97 76.8944 562.514 76.356 562.183 75.6519L550.441 49.0625C550.358 48.8968 550.275 48.6897 550.193 48.4412C550.11 48.1513 550.068 47.82 550.068 47.4472C550.068 46.826 550.338 46.2047 550.876 45.5835C551.456 44.9622 552.222 44.6516 553.175 44.6516Z" fill="#292929"/>
<path d="M591.244 74.4716C591.244 75.3827 590.954 76.1489 590.374 76.7702C589.794 77.35 589.048 77.6399 588.137 77.6399C587.268 77.6399 586.522 77.35 585.901 76.7702C585.321 76.1489 585.031 75.3827 585.031 74.4716V47.8821C585.031 46.9709 585.321 46.2254 585.901 45.6456C586.522 45.0244 587.268 44.7137 588.137 44.7137C589.048 44.7137 589.794 45.0244 590.374 45.6456C590.954 46.2254 591.244 46.9709 591.244 47.8821V74.4716ZM588.075 40.6135C586.874 40.6135 586.004 40.4064 585.466 39.9922C584.928 39.5367 584.658 38.7912 584.658 37.7557V36.7617C584.658 35.7263 584.948 35.0015 585.528 34.5874C586.108 34.1732 586.978 33.9661 588.137 33.9661C589.38 33.9661 590.27 34.1939 590.809 34.6495C591.347 35.0637 591.616 35.7677 591.616 36.7617V37.7557C591.616 38.8326 591.326 39.5781 590.747 39.9922C590.208 40.4064 589.318 40.6135 588.075 40.6135Z" fill="#292929"/>
<path d="M612.833 44.2167C615.069 44.2167 617.057 44.4652 618.797 44.9622C620.536 45.4178 621.882 46.0805 622.835 46.9502C623.829 47.7786 624.326 48.7519 624.326 49.8701C624.326 50.5742 624.119 51.2369 623.705 51.8581C623.291 52.4379 622.669 52.7278 621.841 52.7278C621.261 52.7278 620.764 52.6243 620.35 52.4172C619.977 52.2101 619.625 51.9616 619.294 51.6717C618.963 51.3818 618.548 51.0919 618.051 50.802C617.596 50.5535 616.913 50.3464 616.001 50.1807C615.132 50.0151 614.345 49.9322 613.641 49.9322C611.445 49.9322 609.54 50.4292 607.925 51.4232C606.351 52.4172 605.109 53.7633 604.198 55.4613C603.328 57.1594 602.893 59.0853 602.893 61.239C602.893 63.3926 603.328 65.3185 604.198 67.0166C605.109 68.7147 606.331 70.0607 607.863 71.0547C609.437 72.0487 611.259 72.5457 613.33 72.5457C614.572 72.5457 615.587 72.4629 616.374 72.2972C617.161 72.0901 617.844 71.8416 618.424 71.5517C619.045 71.179 619.563 70.8062 619.977 70.4334C620.433 70.0193 621.054 69.8122 621.841 69.8122C622.752 69.8122 623.436 70.1021 623.891 70.682C624.388 71.2204 624.637 71.9037 624.637 72.7321C624.637 73.6432 624.078 74.5337 622.959 75.4034C621.883 76.2318 620.433 76.9152 618.611 77.4536C616.788 77.992 614.78 78.2612 612.584 78.2612C609.354 78.2612 606.538 77.5157 604.135 76.0247C601.775 74.5337 599.932 72.5043 598.606 69.9365C597.322 67.3686 596.68 64.4695 596.68 61.239C596.68 57.9671 597.364 55.0679 598.731 52.5415C600.097 49.9736 602.003 47.9442 604.446 46.4532C606.89 44.9622 609.685 44.2167 612.833 44.2167Z" fill="#292929"/>
<path d="M644.551 78.2612C641.114 78.2612 638.132 77.5571 635.605 76.1489C633.079 74.6994 631.111 72.7321 629.703 70.2471C628.337 67.7207 627.653 64.8422 627.653 61.6117C627.653 57.9671 628.378 54.8608 629.828 52.293C631.319 49.6837 633.244 47.6957 635.605 46.329C637.966 44.9208 640.472 44.2167 643.122 44.2167C645.152 44.2167 647.078 44.6309 648.9 45.4592C650.722 46.2462 652.337 47.3644 653.746 48.814C655.195 50.2221 656.334 51.8995 657.162 53.8461C657.991 55.7513 658.426 57.8428 658.467 60.1207C658.426 60.949 658.094 61.6324 657.473 62.1708C656.852 62.7093 656.127 62.9785 655.299 62.9785H631.132L629.641 57.6978H653L651.82 58.8161V57.263C651.737 55.8134 651.261 54.5502 650.391 53.4733C649.521 52.3551 648.444 51.5061 647.16 50.9262C645.876 50.305 644.53 49.9944 643.122 49.9944C641.88 49.9944 640.679 50.2014 639.519 50.6156C638.401 50.9884 637.386 51.6096 636.475 52.4793C635.605 53.3491 634.901 54.5088 634.363 55.9583C633.866 57.3665 633.617 59.1267 633.617 61.239C633.617 63.5169 634.093 65.5049 635.046 67.203C635.999 68.901 637.283 70.2264 638.898 71.179C640.513 72.0901 642.294 72.5457 644.241 72.5457C645.773 72.5457 647.036 72.4007 648.03 72.1108C649.024 71.7795 649.852 71.386 650.515 70.9305C651.178 70.4749 651.758 70.04 652.255 69.6258C652.876 69.2531 653.497 69.0667 654.118 69.0667C654.864 69.0667 655.485 69.3359 655.982 69.8743C656.479 70.3713 656.728 70.9719 656.728 71.6759C656.728 72.5871 656.272 73.4154 655.361 74.1609C654.243 75.2378 652.689 76.1904 650.701 77.0187C648.755 77.847 646.705 78.2612 644.551 78.2612Z" fill="#292929"/>
<path d="M337.229 34.0904C337.726 34.0904 338.243 34.2146 338.782 34.4631C339.32 34.7116 339.734 35.0637 340.024 35.5192L355.804 59.5616L353.133 59.4373L369.223 35.5192C369.886 34.5667 370.735 34.0904 371.77 34.0904C372.598 34.0904 373.323 34.401 373.944 35.0222C374.607 35.6021 374.938 36.3476 374.938 37.2587V74.4716C374.938 75.3827 374.648 76.1489 374.069 76.7702C373.489 77.35 372.723 77.6399 371.77 77.6399C370.776 77.6399 369.968 77.35 369.347 76.7702C368.767 76.1489 368.477 75.3827 368.477 74.4716V42.9742L370.465 43.4091L356.798 64.221C356.508 64.5937 356.135 64.925 355.68 65.215C355.224 65.4635 354.748 65.567 354.251 65.5256C353.795 65.567 353.319 65.4635 352.822 65.215C352.366 64.925 351.994 64.5937 351.704 64.221L338.533 43.7197L340.024 41.2347V74.4716C340.024 75.3827 339.734 76.1489 339.154 76.7702C338.616 77.35 337.891 77.6399 336.98 77.6399C336.11 77.6399 335.386 77.35 334.806 76.7702C334.267 76.1489 333.998 75.3827 333.998 74.4716V37.2587C333.998 36.389 334.309 35.6435 334.93 35.0222C335.593 34.401 336.359 34.0904 337.229 34.0904Z" stroke="#292929" stroke-width="0.786547" mask="url(#path-11-outside-1_1400_25186)"/>
<path d="M414.466 61.3011C414.466 64.6144 413.742 67.555 412.292 70.1228C410.842 72.6492 408.875 74.6372 406.39 76.0868C403.905 77.5364 401.109 78.2612 398.003 78.2612C394.897 78.2612 392.101 77.5364 389.616 76.0868C387.131 74.6372 385.143 72.6492 383.652 70.1228C382.203 67.555 381.478 64.6144 381.478 61.3011C381.478 57.9463 382.203 55.0058 383.652 52.4793C385.143 49.9115 387.131 47.9028 389.616 46.4532C392.101 44.9622 394.897 44.2167 398.003 44.2167C401.109 44.2167 403.905 44.9622 406.39 46.4532C408.875 47.9028 410.842 49.9115 412.292 52.4793C413.742 55.0058 414.466 57.9463 414.466 61.3011ZM408.254 61.3011C408.254 59.0232 407.798 57.0559 406.887 55.3992C405.976 53.7011 404.733 52.3758 403.16 51.4232C401.627 50.4292 399.908 49.9322 398.003 49.9322C396.098 49.9322 394.359 50.4292 392.785 51.4232C391.211 52.3758 389.968 53.7011 389.057 55.3992C388.146 57.0559 387.69 59.0232 387.69 61.3011C387.69 63.4962 388.146 65.4427 389.057 67.1408C389.968 68.8389 391.211 70.1642 392.785 71.1168C394.359 72.0694 396.098 72.5457 398.003 72.5457C399.908 72.5457 401.627 72.0694 403.16 71.1168C404.733 70.1642 405.976 68.8389 406.887 67.1408C407.798 65.4427 408.254 63.4962 408.254 61.3011Z" stroke="#292929" stroke-width="0.786547" mask="url(#path-11-outside-1_1400_25186)"/>
<path d="M437.091 44.2167C440.032 44.2167 442.31 44.838 443.925 46.0805C445.54 47.2816 446.659 48.9175 447.28 50.9884C447.943 53.0178 448.274 55.2957 448.274 57.8221V74.4716C448.274 75.3827 447.963 76.1489 447.342 76.7702C446.762 77.35 446.037 77.6399 445.168 77.6399C444.257 77.6399 443.511 77.35 442.931 76.7702C442.351 76.1489 442.061 75.3827 442.061 74.4716V57.8842C442.061 56.3932 441.854 55.0679 441.44 53.9082C441.026 52.7071 440.301 51.7546 439.266 51.0505C438.272 50.305 436.864 49.9322 435.041 49.9322C433.343 49.9322 431.852 50.305 430.568 51.0505C429.284 51.7546 428.27 52.7071 427.524 53.9082C426.82 55.0679 426.468 56.3932 426.468 57.8842V74.4716C426.468 75.3827 426.157 76.1489 425.536 76.7702C424.956 77.35 424.232 77.6399 423.362 77.6399C422.451 77.6399 421.705 77.35 421.125 76.7702C420.545 76.1489 420.256 75.3827 420.256 74.4716V48.1306C420.256 47.2194 420.545 46.4739 421.125 45.8941C421.705 45.2729 422.451 44.9622 423.362 44.9622C424.232 44.9622 424.956 45.2729 425.536 45.8941C426.157 46.4739 426.468 47.2194 426.468 48.1306V51.6096L425.35 52.2309C425.64 51.3197 426.137 50.4085 426.841 49.4974C427.586 48.5448 428.477 47.675 429.512 46.8881C430.548 46.0598 431.707 45.4178 432.991 44.9622C434.275 44.4652 435.642 44.2167 437.091 44.2167Z" stroke="#292929" stroke-width="0.786547" mask="url(#path-11-outside-1_1400_25186)"/>
<path d="M469.697 78.2612C466.715 78.2612 464.065 77.847 461.745 77.0187C459.426 76.1904 457.21 74.8236 455.098 72.9184C454.642 72.5871 454.29 72.1937 454.042 71.7381C453.835 71.2411 453.731 70.7441 453.731 70.2471C453.731 69.4602 454.021 68.7561 454.601 68.1348C455.181 67.5136 455.906 67.203 456.775 67.203C457.438 67.203 458.059 67.4307 458.639 67.8863C460.213 69.3359 461.849 70.4335 463.547 71.179C465.286 71.9244 467.316 72.2972 469.635 72.2972C471.292 72.2972 472.804 72.028 474.17 71.4896C475.578 70.9512 476.697 70.2264 477.525 69.3152C478.353 68.404 478.768 67.3479 478.768 66.1468C478.768 64.6558 478.333 63.434 477.463 62.4815C476.635 61.4875 475.413 60.6798 473.798 60.0586C472.224 59.3959 470.319 58.8368 468.082 58.3812C466.011 58.0085 464.147 57.4908 462.491 56.8281C460.876 56.1654 459.488 55.3371 458.328 54.3431C457.169 53.3077 456.278 52.0859 455.657 50.6777C455.036 49.2696 454.725 47.6336 454.725 45.7699C454.725 43.2434 455.388 41.0691 456.713 39.2467C458.039 37.4244 459.84 36.0162 462.118 35.0222C464.396 34.0282 466.964 33.5312 469.822 33.5312C472.431 33.5312 474.874 33.9454 477.152 34.7737C479.43 35.5607 481.273 36.6375 482.681 38.0042C483.675 38.874 484.172 39.8059 484.172 40.7999C484.172 41.5454 483.862 42.2494 483.241 42.9121C482.661 43.5334 481.977 43.844 481.19 43.844C480.611 43.844 480.114 43.6783 479.699 43.347C479.037 42.6429 478.146 42.0217 477.028 41.4832C475.91 40.9034 474.709 40.4271 473.425 40.0544C472.182 39.6816 470.981 39.4952 469.822 39.4952C467.958 39.4952 466.363 39.7645 465.038 40.3029C463.713 40.7999 462.698 41.5039 461.994 42.4151C461.29 43.2849 460.938 44.3203 460.938 45.5214C460.938 46.9295 461.331 48.0892 462.118 49.0004C462.946 49.9115 464.085 50.657 465.535 51.2369C466.985 51.7753 468.641 52.2723 470.505 52.7278C472.783 53.2248 474.812 53.784 476.593 54.4052C478.416 55.0265 479.948 55.8341 481.19 56.8281C482.433 57.7807 483.385 58.9818 484.048 60.4313C484.711 61.8809 485.042 63.6825 485.042 65.8362C485.042 68.3212 484.338 70.4956 482.93 72.3593C481.522 74.2231 479.658 75.6727 477.339 76.7081C475.061 77.7435 472.514 78.2612 469.697 78.2612Z" stroke="#292929" stroke-width="0.786547" mask="url(#path-11-outside-1_1400_25186)"/>
<path d="M505.976 78.2612C502.538 78.2612 499.556 77.5571 497.03 76.1489C494.503 74.6994 492.536 72.7321 491.128 70.2471C489.761 67.7207 489.078 64.8422 489.078 61.6117C489.078 57.9671 489.803 54.8608 491.252 52.293C492.743 49.6837 494.669 47.6957 497.03 46.329C499.391 44.9208 501.896 44.2167 504.547 44.2167C506.576 44.2167 508.502 44.6309 510.325 45.4592C512.147 46.2462 513.762 47.3644 515.17 48.814C516.62 50.2221 517.759 51.8995 518.587 53.8461C519.416 55.7513 519.85 57.8428 519.892 60.1207C519.85 60.949 519.519 61.6324 518.898 62.1708C518.277 62.7093 517.552 62.9785 516.723 62.9785H492.557L491.066 57.6978H514.425L513.244 58.8161V57.263C513.162 55.8134 512.685 54.5502 511.816 53.4733C510.946 52.3551 509.869 51.5061 508.585 50.9262C507.301 50.305 505.955 49.9944 504.547 49.9944C503.304 49.9944 502.103 50.2014 500.944 50.6156C499.825 50.9884 498.811 51.6096 497.9 52.4793C497.03 53.3491 496.326 54.5088 495.787 55.9583C495.29 57.3665 495.042 59.1267 495.042 61.239C495.042 63.5169 495.518 65.5049 496.471 67.203C497.423 68.901 498.707 70.2264 500.322 71.179C501.938 72.0901 503.719 72.5457 505.665 72.5457C507.198 72.5457 508.461 72.4007 509.455 72.1108C510.449 71.7795 511.277 71.386 511.94 70.9305C512.602 70.4749 513.182 70.04 513.679 69.6258C514.301 69.2531 514.922 69.0667 515.543 69.0667C516.289 69.0667 516.91 69.3359 517.407 69.8743C517.904 70.3713 518.152 70.9719 518.152 71.6759C518.152 72.5871 517.697 73.4154 516.786 74.1609C515.667 75.2378 514.114 76.1904 512.126 77.0187C510.18 77.847 508.13 78.2612 505.976 78.2612Z" stroke="#292929" stroke-width="0.786547" mask="url(#path-11-outside-1_1400_25186)"/>
<path d="M528.778 77.6399C527.866 77.6399 527.121 77.35 526.541 76.7702C525.961 76.1489 525.671 75.3827 525.671 74.4716V48.1306C525.671 47.2194 525.961 46.4739 526.541 45.8941C527.121 45.2729 527.866 44.9622 528.778 44.9622C529.647 44.9622 530.372 45.2729 530.952 45.8941C531.573 46.4739 531.884 47.2194 531.884 48.1306V55.0886L531.263 52.4172C531.594 51.2576 532.091 50.1807 532.754 49.1867C533.458 48.1927 534.286 47.323 535.239 46.5775C536.191 45.832 537.247 45.2522 538.407 44.838C539.608 44.4238 540.851 44.2167 542.134 44.2167C543.211 44.2167 544.143 44.5067 544.93 45.0865C545.717 45.6663 546.11 46.3911 546.11 47.2609C546.11 48.3791 545.821 49.2074 545.241 49.7459C544.661 50.2429 544.019 50.4914 543.315 50.4914C542.694 50.4914 542.093 50.3671 541.513 50.1186C540.933 49.8287 540.25 49.6837 539.463 49.6837C538.593 49.6837 537.703 49.9115 536.792 50.3671C535.881 50.8227 535.052 51.5061 534.307 52.4172C533.561 53.287 532.961 54.3224 532.505 55.5235C532.091 56.7246 531.884 58.0706 531.884 59.5616V74.4716C531.884 75.3827 531.573 76.1489 530.952 76.7702C530.372 77.35 529.647 77.6399 528.778 77.6399Z" stroke="#292929" stroke-width="0.786547" mask="url(#path-11-outside-1_1400_25186)"/>
<path d="M553.175 44.6516C553.796 44.6516 554.376 44.8173 554.914 45.1486C555.494 45.4799 555.908 45.9769 556.157 46.6396L565.91 69.191L564.73 69.7501L574.608 46.7017C575.188 45.335 576.119 44.6723 577.403 44.7137C578.232 44.7137 578.915 44.9829 579.453 45.5214C580.033 46.0184 580.323 46.681 580.323 47.5094C580.323 47.7579 580.282 48.0271 580.199 48.317C580.116 48.5655 580.013 48.814 579.888 49.0625L568.085 75.6519C567.546 76.8944 566.656 77.5571 565.413 77.6399C564.792 77.7228 564.171 77.5985 563.549 77.2672C562.97 76.8944 562.514 76.356 562.183 75.6519L550.441 49.0625C550.358 48.8968 550.275 48.6897 550.193 48.4412C550.11 48.1513 550.068 47.82 550.068 47.4472C550.068 46.826 550.338 46.2047 550.876 45.5835C551.456 44.9622 552.222 44.6516 553.175 44.6516Z" stroke="#292929" stroke-width="0.786547" mask="url(#path-11-outside-1_1400_25186)"/>
<path d="M591.244 74.4716C591.244 75.3827 590.954 76.1489 590.374 76.7702C589.794 77.35 589.048 77.6399 588.137 77.6399C587.268 77.6399 586.522 77.35 585.901 76.7702C585.321 76.1489 585.031 75.3827 585.031 74.4716V47.8821C585.031 46.9709 585.321 46.2254 585.901 45.6456C586.522 45.0244 587.268 44.7137 588.137 44.7137C589.048 44.7137 589.794 45.0244 590.374 45.6456C590.954 46.2254 591.244 46.9709 591.244 47.8821V74.4716ZM588.075 40.6135C586.874 40.6135 586.004 40.4064 585.466 39.9922C584.928 39.5367 584.658 38.7912 584.658 37.7557V36.7617C584.658 35.7263 584.948 35.0015 585.528 34.5874C586.108 34.1732 586.978 33.9661 588.137 33.9661C589.38 33.9661 590.27 34.1939 590.809 34.6495C591.347 35.0637 591.616 35.7677 591.616 36.7617V37.7557C591.616 38.8326 591.326 39.5781 590.747 39.9922C590.208 40.4064 589.318 40.6135 588.075 40.6135Z" stroke="#292929" stroke-width="0.786547" mask="url(#path-11-outside-1_1400_25186)"/>
<path d="M612.833 44.2167C615.069 44.2167 617.057 44.4652 618.797 44.9622C620.536 45.4178 621.882 46.0805 622.835 46.9502C623.829 47.7786 624.326 48.7519 624.326 49.8701C624.326 50.5742 624.119 51.2369 623.705 51.8581C623.291 52.4379 622.669 52.7278 621.841 52.7278C621.261 52.7278 620.764 52.6243 620.35 52.4172C619.977 52.2101 619.625 51.9616 619.294 51.6717C618.963 51.3818 618.548 51.0919 618.051 50.802C617.596 50.5535 616.913 50.3464 616.001 50.1807C615.132 50.0151 614.345 49.9322 613.641 49.9322C611.445 49.9322 609.54 50.4292 607.925 51.4232C606.351 52.4172 605.109 53.7633 604.198 55.4613C603.328 57.1594 602.893 59.0853 602.893 61.239C602.893 63.3926 603.328 65.3185 604.198 67.0166C605.109 68.7147 606.331 70.0607 607.863 71.0547C609.437 72.0487 611.259 72.5457 613.33 72.5457C614.572 72.5457 615.587 72.4629 616.374 72.2972C617.161 72.0901 617.844 71.8416 618.424 71.5517C619.045 71.179 619.563 70.8062 619.977 70.4334C620.433 70.0193 621.054 69.8122 621.841 69.8122C622.752 69.8122 623.436 70.1021 623.891 70.682C624.388 71.2204 624.637 71.9037 624.637 72.7321C624.637 73.6432 624.078 74.5337 622.959 75.4034C621.883 76.2318 620.433 76.9152 618.611 77.4536C616.788 77.992 614.78 78.2612 612.584 78.2612C609.354 78.2612 606.538 77.5157 604.135 76.0247C601.775 74.5337 599.932 72.5043 598.606 69.9365C597.322 67.3686 596.68 64.4695 596.68 61.239C596.68 57.9671 597.364 55.0679 598.731 52.5415C600.097 49.9736 602.003 47.9442 604.446 46.4532C606.89 44.9622 609.685 44.2167 612.833 44.2167Z" stroke="#292929" stroke-width="0.786547" mask="url(#path-11-outside-1_1400_25186)"/>
<path d="M644.551 78.2612C641.114 78.2612 638.132 77.5571 635.605 76.1489C633.079 74.6994 631.111 72.7321 629.703 70.2471C628.337 67.7207 627.653 64.8422 627.653 61.6117C627.653 57.9671 628.378 54.8608 629.828 52.293C631.319 49.6837 633.244 47.6957 635.605 46.329C637.966 44.9208 640.472 44.2167 643.122 44.2167C645.152 44.2167 647.078 44.6309 648.9 45.4592C650.722 46.2462 652.337 47.3644 653.746 48.814C655.195 50.2221 656.334 51.8995 657.162 53.8461C657.991 55.7513 658.426 57.8428 658.467 60.1207C658.426 60.949 658.094 61.6324 657.473 62.1708C656.852 62.7093 656.127 62.9785 655.299 62.9785H631.132L629.641 57.6978H653L651.82 58.8161V57.263C651.737 55.8134 651.261 54.5502 650.391 53.4733C649.521 52.3551 648.444 51.5061 647.16 50.9262C645.876 50.305 644.53 49.9944 643.122 49.9944C641.88 49.9944 640.679 50.2014 639.519 50.6156C638.401 50.9884 637.386 51.6096 636.475 52.4793C635.605 53.3491 634.901 54.5088 634.363 55.9583C633.866 57.3665 633.617 59.1267 633.617 61.239C633.617 63.5169 634.093 65.5049 635.046 67.203C635.999 68.901 637.283 70.2264 638.898 71.179C640.513 72.0901 642.294 72.5457 644.241 72.5457C645.773 72.5457 647.036 72.4007 648.03 72.1108C649.024 71.7795 649.852 71.386 650.515 70.9305C651.178 70.4749 651.758 70.04 652.255 69.6258C652.876 69.2531 653.497 69.0667 654.118 69.0667C654.864 69.0667 655.485 69.3359 655.982 69.8743C656.479 70.3713 656.728 70.9719 656.728 71.6759C656.728 72.5871 656.272 73.4154 655.361 74.1609C654.243 75.2378 652.689 76.1904 650.701 77.0187C648.755 77.847 646.705 78.2612 644.551 78.2612Z" stroke="#292929" stroke-width="0.786547" mask="url(#path-11-outside-1_1400_25186)"/>
<path d="M337.87 223.348H341.569V200.633H337.87V223.348ZM347.153 223.348H350.496V212.315C351.339 210.887 352.67 209.491 354.909 209.491C357.245 209.491 358.673 211.049 358.673 213.645V223.348H362.048V213.515C362.048 208.778 359.29 206.344 355.688 206.344C353.351 206.344 351.729 207.285 350.496 208.583V206.993H347.153V223.348ZM366.595 223.348H369.938V212.315C370.781 210.887 372.112 209.491 374.351 209.491C376.687 209.491 378.115 211.049 378.115 213.645V223.348H381.49V213.515C381.49 208.778 378.732 206.344 375.13 206.344C372.793 206.344 371.171 207.285 369.938 208.583V206.993H366.595V223.348ZM393.631 206.344C388.342 206.344 384.74 210.335 384.74 215.17C384.74 220.005 388.342 223.997 393.631 223.997C398.953 223.997 402.522 220.005 402.522 215.17C402.522 210.335 398.953 206.344 393.631 206.344ZM393.663 220.849C390.516 220.849 388.244 218.318 388.244 215.17C388.244 212.023 390.516 209.491 393.663 209.491C396.746 209.491 399.018 211.99 399.018 215.17C399.018 218.285 396.746 220.849 393.663 220.849ZM403.427 206.993L409.593 223.348H414.038L420.236 206.993H416.602L411.832 219.713L407.029 206.993H403.427ZM426.802 223.834C428.814 223.834 430.859 222.926 432.027 221.498V223.348H435.369V212.542C435.369 208.94 432.936 206.344 428.522 206.344C425.602 206.344 423.265 207.577 421.805 209.524L424.304 211.438C425.245 210.108 426.64 209.297 428.425 209.297C430.534 209.297 432.027 210.53 432.027 212.542V213.385L426.738 214.262C423.265 214.846 421.351 216.63 421.351 219.097C421.351 221.985 423.557 223.834 426.802 223.834ZM424.726 218.967C424.726 217.734 425.569 216.858 427.614 216.501L432.027 215.754V218.577C431.053 220.135 429.463 221.109 427.419 221.109C425.732 221.109 424.726 220.232 424.726 218.967ZM440.933 217.669C440.933 221.66 442.945 223.672 446.774 223.672C448.04 223.672 448.948 223.51 449.727 223.185V220.232C449.143 220.46 448.397 220.589 447.293 220.589C445.476 220.589 444.308 219.875 444.308 217.669V210.011H449.727V206.993H444.308V202.904H440.933V206.993H437.85V210.011H440.933V217.669ZM454.751 203.358C455.984 203.358 457.023 202.32 457.023 201.087C457.023 199.854 455.984 198.815 454.751 198.815C453.518 198.815 452.48 199.854 452.48 201.087C452.48 202.32 453.518 203.358 454.751 203.358ZM453.064 223.348H456.406V206.993H453.064V223.348ZM468.818 206.344C463.528 206.344 459.926 210.335 459.926 215.17C459.926 220.005 463.528 223.997 468.818 223.997C474.14 223.997 477.709 220.005 477.709 215.17C477.709 210.335 474.14 206.344 468.818 206.344ZM468.85 220.849C465.703 220.849 463.431 218.318 463.431 215.17C463.431 212.023 465.703 209.491 468.85 209.491C471.933 209.491 474.205 211.99 474.205 215.17C474.205 218.285 471.933 220.849 468.85 220.849ZM481.237 223.348H484.58V212.315C485.423 210.887 486.754 209.491 488.993 209.491C491.329 209.491 492.757 211.049 492.757 213.645V223.348H496.132V213.515C496.132 208.778 493.374 206.344 489.772 206.344C487.435 206.344 485.813 207.285 484.58 208.583V206.993H481.237V223.348ZM506.765 223.348H510.724L513.125 216.987H523.022L525.424 223.348H529.415L520.556 200.633H515.624L506.765 223.348ZM514.358 213.807L518.09 204.007L521.789 213.807H514.358ZM532.991 223.348H536.69V205.403L548.372 223.348H553.207V200.633H549.475V218.577L537.793 200.633H532.991V223.348ZM557.649 220.2C559.661 222.634 562.16 223.997 565.729 223.997C569.786 223.997 572.933 221.433 572.998 217.377C572.998 209.719 562.419 210.887 562.419 206.214C562.419 204.494 563.685 203.293 565.664 203.293C567.514 203.293 569.072 204.364 570.402 206.214L573.16 203.748C571.343 201.476 568.909 199.984 565.632 199.984C561.511 199.984 558.623 202.839 558.623 206.311C558.623 213.905 569.202 212.769 569.202 217.474C569.202 219.389 567.904 220.654 565.664 220.654C563.685 220.654 561.868 219.583 560.375 217.701L557.649 220.2ZM575.665 220.2C577.677 222.634 580.176 223.997 583.746 223.997C587.802 223.997 590.95 221.433 591.014 217.377C591.014 209.719 580.436 210.887 580.436 206.214C580.436 204.494 581.701 203.293 583.681 203.293C585.53 203.293 587.088 204.364 588.418 206.214L591.177 203.748C589.359 201.476 586.926 199.984 583.648 199.984C579.527 199.984 576.639 202.839 576.639 206.311C576.639 213.905 587.218 212.769 587.218 217.474C587.218 219.389 585.92 220.654 583.681 220.654C581.701 220.654 579.884 219.583 578.391 217.701L575.665 220.2ZM595.976 223.348H599.675V200.633L595.976 200.633V223.348Z" fill="#777777"/>
<defs>
<filter id="filter0_f_1400_25186" x="-123.489" y="-6.6284" width="431.42" height="431.419" filterUnits="userSpaceOnUse" color-interpolation-filters="sRGB">
<feFlood flood-opacity="0" result="BackgroundImageFix"/>
<feBlend mode="normal" in="SourceGraphic" in2="BackgroundImageFix" result="shape"/>
<feGaussianBlur stdDeviation="59.3874" result="effect1_foregroundBlur_1400_25186"/>
</filter>
<linearGradient id="paint0_linear_1400_25186" x1="18.1655" y1="23.5451" x2="143.422" y2="309.202" gradientUnits="userSpaceOnUse">
<stop stop-color="#05DEC6"/>
<stop offset="1" stop-color="#0245DA"/>
</linearGradient>
<linearGradient id="paint1_linear_1400_25186" x1="20.1762" y1="21.9964" x2="132.373" y2="293.874" gradientUnits="userSpaceOnUse">
<stop stop-color="#05DEC6"/>
<stop offset="1" stop-color="#0245DA"/>
</linearGradient>
<linearGradient id="paint2_linear_1400_25186" x1="195.632" y1="116.686" x2="89.0883" y2="325.567" gradientUnits="userSpaceOnUse">
<stop stop-color="#05DFC6" stop-opacity="0.2"/>
<stop offset="1" stop-color="#0145DC"/>
</linearGradient>
<linearGradient id="paint3_linear_1400_25186" x1="-39.8974" y1="-75.6992" x2="122.73" y2="194.771" gradientUnits="userSpaceOnUse">
<stop stop-color="#1992DC"/>
<stop offset="1" stop-color="#6C1CB9"/>
</linearGradient>
<linearGradient id="paint4_linear_1400_25186" x1="127.306" y1="-14.6228" x2="183.791" y2="320.492" gradientUnits="userSpaceOnUse">
<stop stop-color="#1992DC" stop-opacity="0"/>
<stop offset="1" stop-color="#6C1CB9"/>
</linearGradient>
<linearGradient id="paint5_linear_1400_25186" x1="49.5726" y1="36.3509" x2="87.7407" y2="220.838" gradientUnits="userSpaceOnUse">
<stop stop-color="#8C1EE5" stop-opacity="0.3"/>
<stop offset="1" stop-color="#E01F8C" stop-opacity="0.9"/>
</linearGradient>
<linearGradient id="paint6_linear_1400_25186" x1="184.85" y1="66.7278" x2="334.684" y2="-47.4744" gradientUnits="userSpaceOnUse">
<stop offset="0.578125" stop-color="#8C1EE5" stop-opacity="0.3"/>
<stop offset="1" stop-color="#E01F8C" stop-opacity="0.9"/>
</linearGradient>
<linearGradient id="paint7_linear_1400_25186" x1="216.655" y1="10.373" x2="94.4034" y2="64.671" gradientUnits="userSpaceOnUse">
<stop stop-color="white"/>
<stop offset="1" stop-color="white" stop-opacity="0"/>
</linearGradient>
</defs>
</svg>
