<svg width="140" height="140" viewBox="0 0 140 140" fill="none" xmlns="http://www.w3.org/2000/svg">
<circle cx="70" cy="70" r="69.5" stroke="#08416A"/>
<path d="M35.184 83H41.948V72.93H43.544L50.232 83H58.136L50.004 71.714C52.664 70.346 54.184 67.914 54.184 64.684C54.184 59.478 50.346 56.4 44.114 56.4H35.184V83ZM44.532 61.986C46.242 61.986 47.23 63.088 47.23 64.608C47.23 66.242 46.242 67.344 44.532 67.344H41.948V61.986H44.532ZM73.3993 77.414C68.9533 77.414 65.7233 74.184 65.7233 69.7C65.7233 65.254 68.7633 61.986 73.0193 61.986C75.6793 61.986 77.6933 63.278 78.9473 65.102L84.3053 60.998C81.8353 57.768 77.8833 55.64 73.0193 55.64C64.5453 55.64 58.7693 62.1 58.7693 69.7C58.7693 77.3 64.6973 83.76 73.3993 83.76C78.4153 83.76 82.5573 81.67 85.0653 78.364V66.584H72.1833V72.322H78.3013V75.818C77.0473 76.806 75.3753 77.414 73.3993 77.414ZM88.1501 79.276C90.5821 82.05 93.6601 83.76 98.5621 83.76C103.578 83.76 107.758 80.72 107.834 75.4C107.834 66.09 96.1301 67.42 96.1301 63.468C96.1301 62.366 97.0801 61.53 98.4481 61.53C100.234 61.53 101.906 62.86 103.464 64.684L108.366 60.2C105.896 57.464 102.628 55.64 98.4101 55.64C93.0141 55.64 89.2901 59.326 89.2901 63.772C89.2901 72.892 100.994 71.562 100.994 75.628C100.994 77.148 100.044 77.832 98.4861 77.832C96.5481 77.832 94.4581 76.616 93.0521 74.754L88.1501 79.276Z" fill="#08416A"/>
<path d="M22.4797 95.4656L21.9724 94.4447L19.3216 95.7618L18.9478 95.0096C18.93 94.9738 18.9122 94.9379 18.89 94.8932L20.673 91.8297L20.0678 90.6118L18.1989 94.0194C17.5965 93.5036 16.8454 93.4078 16.0842 93.786C14.9737 94.3378 14.6757 95.4909 15.3298 96.8073L16.2109 98.5805L22.4797 95.4656ZM16.1718 96.322C15.8559 95.6861 16.0316 95.141 16.5958 94.8606C17.1958 94.5625 17.7365 94.7517 18.0524 95.3875L18.4529 96.1935L16.5723 97.1279L16.1718 96.322Z" fill="#08416A"/>
<path d="M12.724 86.9499L10.7845 86.3285L11.13 87.4149L13.0271 87.9028L12.724 86.9499ZM16.9532 83.6845L16.6088 84.581C17.103 84.7491 17.5149 85.1533 17.6997 85.7346C17.9937 86.659 17.6536 87.4702 16.6266 87.8704L15.4991 84.3253C15.344 84.3327 15.1157 84.3738 14.8966 84.4435C13.6768 84.8315 13.0442 85.9771 13.4655 87.3017C13.9505 88.8264 15.3945 89.3745 16.8335 88.9169C18.2344 88.4713 19.1134 87.1109 18.586 85.4528C18.3011 84.557 17.6961 83.9414 16.9532 83.6845ZM14.2911 87.0601C14.0456 86.2882 14.462 85.6836 15.0563 85.4736L15.8776 88.0561C15.0858 88.14 14.5185 87.7748 14.2911 87.0601Z" fill="#08416A"/>
<path d="M12.2269 81.6111L13.1427 81.4495L12.9776 80.514L17.0251 79.7996L16.8443 78.7755L12.7969 79.4898L12.5066 77.8452L11.5908 78.0068L11.881 79.6514L11.2803 79.7574C10.719 79.8565 10.3152 79.5825 10.2266 79.0803C10.1779 78.8045 10.2283 78.5722 10.3268 78.3822L9.39355 78.1001C9.28639 78.4135 9.23426 78.8086 9.31421 79.2616C9.51756 80.4138 10.4369 80.9624 11.4906 80.7764L12.0618 80.6756L12.2269 81.6111Z" fill="#08416A"/>
<path d="M10.2961 71.2578L8.58868 70.1476L8.63591 71.2866L10.3376 72.257L10.2961 71.2578ZM15.236 69.2214L14.6676 69.9956C15.1001 70.2879 15.391 70.7863 15.4163 71.3958C15.4565 72.365 14.9147 73.058 13.8185 73.1735L13.6644 69.4567C13.5129 69.423 13.2818 69.4025 13.052 69.412C11.7731 69.4651 10.8612 70.4037 10.9188 71.7925C10.9851 73.3911 12.2339 74.3001 13.7426 74.2376C15.2113 74.1767 16.4176 73.0958 16.3455 71.3572C16.3065 70.4181 15.8849 69.6649 15.236 69.2214ZM11.7789 71.7768C11.7454 70.9675 12.3062 70.4939 12.9348 70.4478L13.0471 73.1555C12.2612 73.0279 11.81 72.5262 11.7789 71.7768Z" fill="#08416A"/>
<path d="M16.293 65.8142L16.3942 64.7892L13.0505 64.4589C12.6481 64.1579 12.3511 63.7065 12.414 63.0696C12.4346 62.8606 12.4802 62.7044 12.5357 62.5491L11.5306 62.4498C11.478 62.5752 11.4334 62.7215 11.4177 62.8808C11.3568 63.4978 11.5922 63.9632 11.9459 64.3498L11.3786 64.2938L11.2774 65.3188L16.293 65.8142Z" fill="#08416A"/>
<path d="M17.5945 54.1165L16.8344 54.7036C17.1693 55.104 17.3113 55.6633 17.1672 56.2561C16.9382 57.1987 16.2261 57.7151 15.1407 57.5234L16.019 53.9086C15.8827 53.8343 15.6663 53.7509 15.4428 53.6966C14.199 53.3943 13.0634 54.0446 12.7352 55.3953C12.3574 56.95 13.3065 58.1686 14.7738 58.5251C16.2022 58.8722 17.6601 58.1665 18.0709 56.4757C18.2929 55.5622 18.0957 54.7219 17.5945 54.1165ZM13.5661 55.6178C13.7574 54.8307 14.4272 54.5303 15.0441 54.6597L14.4043 57.293C13.6841 56.9534 13.389 56.3466 13.5661 55.6178Z" fill="#08416A"/>
<path d="M19.5162 51.1697L19.9093 50.2176L16.7667 48.92C16.4593 48.5117 16.2183 47.9687 16.4816 47.3309C16.7564 46.6654 17.368 46.4419 18.1075 46.7472L20.8711 47.8884L21.2681 46.9271L18.4674 45.7707C17.118 45.2135 16.1003 45.7129 15.6767 46.7388C15.4019 47.4043 15.4791 47.9772 15.7038 48.4811L15.2509 48.2941L14.8578 49.2461L19.5162 51.1697Z" fill="#08416A"/>
<path d="M21.8579 42.1812C22.9141 42.8117 23.7642 42.5971 24.369 41.5839C24.5689 41.249 24.6695 40.983 24.7066 40.7256L23.9253 40.2592C23.8931 40.4497 23.8096 40.6676 23.6353 40.9596C23.3483 41.4404 22.9749 41.6368 22.391 41.2882L20.3645 40.0786L21.2205 38.6447L20.422 38.168L19.566 39.6019L18.4841 38.9561L17.951 39.8491L19.0329 40.4949L18.546 41.3106L19.3446 41.7873L19.8315 40.9716L21.8579 42.1812Z" fill="#08416A"/>
<path d="M22.6513 33.1401C22.8837 32.8395 22.8262 32.3906 22.5256 32.1582C22.2249 31.9258 21.776 31.9832 21.5436 32.2839C21.3112 32.5845 21.3687 33.0334 21.6693 33.2658C21.97 33.4982 22.4189 33.4408 22.6513 33.1401ZM27.2068 37.319L27.8368 36.5041L23.8493 33.4216L23.2193 34.2365L27.2068 37.319Z" fill="#08416A"/>
<path d="M33.5043 29.1856L32.5498 29.2923C32.628 29.8085 32.4587 30.3601 32.0277 30.7918C31.3423 31.4782 30.4655 31.5495 29.6377 30.8218L32.2662 28.1895C32.1883 28.0552 32.0467 27.8714 31.884 27.7089C30.9782 26.8045 29.67 26.7701 28.6879 27.7537C27.5573 28.8859 27.7353 30.4202 28.8038 31.4871C29.844 32.5258 31.4563 32.6802 32.6858 31.4489C33.3499 30.7837 33.618 29.9633 33.5043 29.1856ZM29.2823 28.3755C29.8546 27.8023 30.583 27.8937 31.043 28.3247L29.1281 30.2424C28.6892 29.578 28.7524 28.9062 29.2823 28.3755Z" fill="#08416A"/>
<path d="M36.7695 27.6324L37.5834 27.0013L32.9877 21.0743L32.1737 21.7054L36.7695 27.6324Z" fill="#08416A"/>
<path d="M46.306 22.6086C46.732 23.5464 47.8418 23.6683 49.253 23.0273C50.646 22.3945 51.272 21.2095 50.8212 20.2171C50.4449 19.3886 49.576 19.0474 48.3923 19.585L47.145 20.1516C46.8992 20.2633 46.7494 20.1995 46.6625 20.0083C46.6005 19.8718 46.6204 19.698 46.7123 19.5134C46.9019 19.4713 47.0964 19.4159 47.2967 19.3249C48.4347 18.8079 48.7826 17.7603 48.3773 16.868C48.278 16.6495 48.1333 16.4517 47.9645 16.2977L48.8658 15.8882L48.5019 15.087L46.8084 15.8563C46.4997 15.8537 46.1703 15.9265 45.8243 16.0836C44.7045 16.5923 44.3525 17.6309 44.7536 18.514C44.9852 19.0239 45.4238 19.3848 45.9609 19.5033C45.7174 19.9104 45.6768 20.2804 45.8422 20.6446C45.9498 20.8813 46.1616 21.0816 46.4405 21.1636C46.1573 21.6767 46.0951 22.1442 46.306 22.6086ZM46.979 18.6015C46.3872 18.8703 45.8634 18.636 45.6277 18.117C45.3961 17.6071 45.5684 17.0676 46.1602 16.7988C46.752 16.5299 47.2716 16.7552 47.5032 17.265C47.739 17.784 47.5708 18.3327 46.979 18.6015ZM47.1404 22.0758C46.9915 21.748 47.0528 21.4236 47.2168 21.1075L48.6735 20.4458C49.3746 20.1274 49.7428 20.3335 49.9206 20.725C50.1647 21.2622 49.7979 21.8572 48.8874 22.2707C48.0225 22.6636 47.372 22.5857 47.1404 22.0758Z" fill="#08416A"/>
<path d="M54.7607 12.2719L55.4363 10.3506L54.3407 10.6654L53.7996 12.5481L54.7607 12.2719ZM57.9059 16.5913L57.0193 16.2217C56.8374 16.711 56.4218 17.1114 55.8355 17.2798C54.9032 17.5477 54.1019 17.1849 53.7308 16.147L57.3061 15.1197C57.3032 14.9645 57.2685 14.7351 57.205 14.5141C56.8514 13.2838 55.7241 12.6194 54.3881 13.0032C52.8504 13.4451 52.2619 14.8732 52.6789 16.3245C53.0849 17.7373 54.42 18.6542 56.0924 18.1737C56.9958 17.9141 57.6282 17.3266 57.9059 16.5913ZM54.6064 13.8353C55.3849 13.6116 55.9776 14.0448 56.1708 14.6447L53.5662 15.3932C53.5046 14.5993 53.8856 14.0424 54.6064 13.8353Z" fill="#08416A"/>
<path d="M61.4173 16.8008L62.439 16.6708L62.0098 13.298C62.2122 12.8287 62.5646 12.3504 63.2491 12.2633C63.9633 12.1724 64.4604 12.593 64.5614 13.3866L64.9389 16.3527L65.9705 16.2214L65.588 13.2156C65.4037 11.7673 64.4658 11.1306 63.3647 11.2707C62.6505 11.3616 62.1911 11.7124 61.8646 12.1572L61.8028 11.6711L60.781 11.8011L61.4173 16.8008Z" fill="#08416A"/>
<path d="M72.9017 10.3525L74.1255 8.72454L72.9859 8.69417L71.9021 10.3259L72.9017 10.3525ZM74.5973 15.4195L73.8636 14.7997C73.5425 15.2113 73.0255 15.4676 72.4157 15.4514C71.446 15.4255 70.7915 14.8379 70.7508 13.7364L74.4695 13.8355C74.5134 13.6866 74.5496 13.4575 74.5557 13.2276C74.5898 11.9481 73.7154 10.9744 72.3259 10.9374C70.7265 10.8947 69.7346 12.0787 69.6944 13.5882C69.6552 15.0577 70.6515 16.3347 72.3909 16.381C73.3306 16.4061 74.1107 16.0367 74.5973 15.4195ZM72.283 11.7965C73.0927 11.8181 73.5271 12.4099 73.5303 13.0402L70.8213 12.968C71.002 12.1925 71.5333 11.7766 72.283 11.7965Z" fill="#08416A"/>
<path d="M77.9247 16.7058L78.9404 16.8765L79.4974 13.563C79.8251 13.1821 80.2957 12.9164 80.9268 13.0225C81.1339 13.0574 81.2867 13.1135 81.4379 13.1794L81.6053 12.1834C81.4838 12.1224 81.3408 12.068 81.183 12.0414C80.5716 11.9386 80.0913 12.1418 79.6815 12.4684L79.776 11.9063L78.7602 11.7355L77.9247 16.7058Z" fill="#08416A"/>
<path d="M86.2018 18.7727C86.7929 18.9598 87.478 18.8829 87.954 18.572L87.782 19.1154L88.764 19.4262L89.7686 16.2513C90.1035 15.193 89.6298 14.2041 88.3332 13.7938C87.4751 13.5222 86.674 13.6673 86.0639 14.1036L86.6201 14.8984C87.0203 14.595 87.5056 14.4864 88.03 14.6523C88.6497 14.8484 88.9737 15.3495 88.7866 15.9406L88.7082 16.1885L87.0727 15.9541C85.9982 15.803 85.2698 16.1493 85.0405 16.8739C84.772 17.7225 85.2484 18.4711 86.2018 18.7727ZM86.0441 17.1495C86.1588 16.7873 86.4881 16.6083 87.1219 16.6935L88.4879 16.8845L88.2255 17.7139C87.7946 18.0811 87.237 18.2193 86.6363 18.0292C86.1406 17.8723 85.9265 17.5214 86.0441 17.1495Z" fill="#08416A"/>
<path d="M92.3887 20.9846L93.3236 21.4168L96.4709 14.6091L95.5359 14.1769L92.3887 20.9846Z" fill="#08416A"/>
<path d="M103.464 24.5228C102.548 25.6724 102.543 27.2669 103.787 28.2579C104.35 28.7066 104.934 28.8398 105.543 28.7497L105.225 29.1485L106.046 29.8029L110.721 23.9377L109.899 23.2833L108.048 25.6059C108 24.9922 107.74 24.4524 107.177 24.0036C105.934 23.0127 104.38 23.3732 103.464 24.5228ZM104.317 25.2021C104.934 24.4279 105.916 24.2387 106.674 24.8432C107.167 25.2359 107.416 25.8054 107.363 26.4661L106.229 27.8894C105.632 28.092 105.001 27.9854 104.493 27.5803C103.734 26.9758 103.7 25.9763 104.317 25.2021Z" fill="#08416A"/>
<path d="M112.385 35.23L112.318 34.2719C111.799 34.3286 111.255 34.1366 110.842 33.688C110.184 32.9748 110.149 32.0958 110.911 31.2988L113.432 34.0342C113.569 33.9619 113.759 33.8281 113.928 33.6722C114.869 32.8047 114.958 31.4991 114.016 30.477C112.931 29.3005 111.391 29.4147 110.281 30.4381C109.2 31.4344 108.979 33.0389 110.158 34.3183C110.795 35.0095 111.604 35.3114 112.385 35.23ZM113.37 31.0452C113.919 31.6407 113.797 32.3647 113.348 32.8064L111.511 30.8137C112.193 30.4028 112.861 30.4937 113.37 31.0452Z" fill="#08416A"/>
<path d="M117.274 42.5662C116.997 43.2514 117 43.9673 117.406 44.714C117.855 45.5397 118.756 45.9606 119.63 45.4963C121.15 44.6696 119.671 42.6623 120.558 42.1797C120.857 42.0173 121.218 42.0943 121.447 42.5159C121.648 42.8849 121.595 43.3118 121.408 43.721L122.278 44.0444C122.528 43.4988 122.534 42.7558 122.18 42.1058C121.697 41.2185 120.783 40.919 120.054 41.3156C118.49 42.1662 119.996 44.1591 119.1 44.6465C118.766 44.8281 118.373 44.7343 118.139 44.3038C117.9 43.8646 117.946 43.3842 118.158 42.8936L117.274 42.5662Z" fill="#08416A"/>
<path d="M126.443 50.2791L128.412 50.8021L128.012 49.7345L126.093 49.3426L126.443 50.2791ZM122.384 53.7533L122.683 52.8405C122.181 52.6975 121.749 52.3145 121.535 51.7433C121.195 50.8348 121.494 50.0075 122.499 49.5562L123.804 53.04C123.958 53.0249 124.184 52.9723 124.4 52.8917C125.598 52.4428 126.173 51.2668 125.685 49.9651C125.124 48.4667 123.654 47.9919 122.24 48.5215C120.863 49.0369 120.054 50.4399 120.664 52.0694C120.994 52.9497 121.629 53.534 122.384 53.7533ZM124.873 50.2479C125.157 51.0065 124.771 51.6313 124.188 51.871L123.238 49.333C124.025 49.2094 124.61 49.5456 124.873 50.2479Z" fill="#08416A"/>
<path d="M123.693 59.4411C123.487 58.483 124.074 57.641 125.051 57.4309C126.019 57.2228 126.909 57.7475 127.113 58.6958C127.235 59.2629 127.058 59.7715 126.735 60.1272L127.512 60.7888C128.021 60.2088 128.255 59.3915 128.061 58.492C127.706 56.8397 126.261 56.0661 124.824 56.375C123.387 56.6839 122.388 57.9829 122.743 59.6352C122.938 60.5444 123.485 61.1838 124.188 61.5033L124.624 60.5811C124.184 60.3893 123.813 59.9984 123.693 59.4411Z" fill="#08416A"/>
<path d="M126.111 68.3488C125.242 68.3996 124.696 67.9608 124.651 67.1921C124.604 66.4035 125.097 65.9139 125.965 65.863L128.84 65.6947L128.779 64.6565L125.954 64.8219C124.447 64.9102 123.599 65.8313 123.682 67.2488C123.765 68.6564 124.714 69.4723 126.221 69.3841L129.047 69.2187L128.986 68.1804L126.111 68.3488Z" fill="#08416A"/>
<path d="M123.84 73.7202L123.749 74.7462L127.096 75.0417C127.502 75.3386 127.803 75.7868 127.747 76.4244C127.729 76.6336 127.685 76.7903 127.631 76.9462L128.637 77.035C128.688 76.909 128.731 76.7622 128.745 76.6029C128.8 75.9853 128.56 75.5223 128.202 75.1394L128.77 75.1895L128.86 74.1635L123.84 73.7202Z" fill="#08416A"/>
<path d="M128.775 82.6586C128.697 83.0304 128.944 83.4096 129.316 83.4881C129.688 83.5665 130.067 83.3195 130.145 82.9477C130.224 82.5759 129.977 82.1967 129.605 82.1182C129.233 82.0398 128.854 82.2868 128.775 82.6586ZM122.856 80.8777L122.643 81.8855L127.574 82.9263L127.787 81.9185L122.856 80.8777Z" fill="#08416A"/>
<path d="M122.987 87.2411C121.823 86.8449 121.036 87.2322 120.656 88.3493C120.53 88.7185 120.487 88.9997 120.505 89.2591L121.366 89.5522C121.358 89.3593 121.394 89.1286 121.504 88.8068C121.684 88.2766 122.008 88.0066 122.652 88.2256L124.886 88.9857L124.348 90.5667L125.229 90.8663L125.767 89.2853L126.96 89.6911L127.295 88.7065L126.102 88.3007L126.408 87.4013L125.527 87.1018L125.221 88.0012L122.987 87.2411Z" fill="#08416A"/>
<path d="M122.804 98.1188L123.753 99.9206L124.267 98.9031L123.255 97.2262L122.804 98.1188ZM117.498 97.4884L118.372 97.0896C118.137 96.6235 118.126 96.0465 118.401 95.5021C118.838 94.6363 119.649 94.2953 120.662 94.7289L118.985 98.0492C119.101 98.1525 119.292 98.283 119.498 98.3867C120.64 98.9639 121.894 98.589 122.521 97.3484C123.242 95.9203 122.595 94.5178 121.247 93.8369C119.935 93.174 118.355 93.5296 117.571 95.0827C117.147 95.9217 117.148 96.7848 117.498 97.4884ZM121.762 96.9427C121.397 97.6657 120.676 97.8058 120.105 97.5395L121.327 95.1207C121.951 95.6153 122.1 96.2733 121.762 96.9427Z" fill="#08416A"/>
<path fill-rule="evenodd" clip-rule="evenodd" d="M23.0586 104C33.4213 119.098 50.8039 129 70.4993 129C90.1948 129 107.577 119.098 117.94 104H111.733C102.119 116.181 87.2222 124 70.4993 124C53.7765 124 38.8798 116.181 29.2655 104H23.0586Z" fill="#08416A"/>
</svg>
