<svg width="20" height="16" viewBox="0 0 20 16" fill="none" xmlns="http://www.w3.org/2000/svg">
<mask id="mask0_13108_30876" style="mask-type:alpha" maskUnits="userSpaceOnUse" x="0" y="0" width="20" height="16">
<path d="M19.0665 9.89068C19.0665 15.1254 17.7932 16 12.4781 16C7.163 16 0 11.537 0 6.30868C0 1.07395 8.56687 0 12.9352 0C18.5311 0 19.0665 6.66881 19.0665 9.89068Z" fill="url(#paint0_linear_13108_30876)"/>
</mask>
<g mask="url(#mask0_13108_30876)">
<path d="M19.0665 9.89068C19.0665 15.1254 17.7932 16 12.4781 16C7.163 16 0 11.537 0 6.30868C0 1.07395 8.56687 0 12.9352 0C18.5311 0 19.0665 6.66881 19.0665 9.89068Z" fill="url(#paint1_linear_13108_30876)"/>
<path d="M19.9991 15.4514C17.681 21.58 10.7531 24.699 4.53038 22.4096C-1.69235 20.1202 -4.85269 13.3035 -2.53467 7.17486C-0.216655 1.04624 -2.46285 8.35171 3.75989 10.6411C9.98262 12.9241 22.3236 9.31634 19.9991 15.4514Z" fill="url(#paint2_linear_13108_30876)"/>
<path d="M10.7189 2.26693C10.7189 6.22192 10.6797 9.42449 6.66396 9.42449C2.65477 9.42449 -0.603516 6.21549 -0.603516 2.26693C-0.603516 -1.68805 2.64824 -4.89062 6.66396 -4.89062C10.6797 -4.89062 10.7189 -1.68805 10.7189 2.26693Z" fill="url(#paint3_linear_13108_30876)" fill-opacity="0.2"/>
<path d="M24.7588 15.1612C23.0742 18.7496 15.6173 25.6692 11.9738 24.0101C8.33029 22.3509 8.39558 9.2062 10.0802 5.61778C11.7649 2.02935 17.5697 5.18691 21.2132 6.84607C24.8568 8.50524 26.4435 11.5728 24.7588 15.1612Z" fill="url(#paint4_linear_13108_30876)"/>
<path opacity="0.7" d="M8.32534 12.03C7.71808 15.3805 2.96451 15.5349 0.489787 15.0976C-1.99147 14.6603 -2.79461 12.6667 -2.18736 9.31622C-1.5801 5.96574 0.209013 2.53165 2.69027 2.96252C5.165 3.39982 8.93259 8.67956 8.32534 12.03Z" fill="url(#paint5_linear_13108_30876)"/>
<path opacity="0.7" d="M18.7832 -4.35516C22.1134 -5.26192 24.3073 -1.10757 24.9799 1.27828C25.6589 3.66413 24.1767 5.23969 20.8466 6.15288C17.5165 7.05963 13.5987 6.95673 12.9262 4.57088C12.2536 2.1786 15.4531 -3.44841 18.7832 -4.35516Z" fill="url(#paint6_linear_13108_30876)"/>
<path d="M12.0218 13.2251C7.64699 15.3216 -4.73318 16.1897 -6.86184 11.8875C-8.9905 7.58522 1.29366 -4.7106 5.66198 -6.80706C10.0368 -8.90352 13.0274 -1.5659 15.1561 2.74278C17.2847 7.04503 16.3967 11.1286 12.0218 13.2251Z" fill="url(#paint7_linear_13108_30876)" fill-opacity="0.1"/>
</g>
<defs>
<linearGradient id="paint0_linear_13108_30876" x1="6.41652" y1="-0.657627" x2="13.5538" y2="16.9032" gradientUnits="userSpaceOnUse">
<stop stop-color="#05DEC6"/>
<stop offset="1" stop-color="#0245DA"/>
</linearGradient>
<linearGradient id="paint1_linear_13108_30876" x1="6.41652" y1="-0.657627" x2="13.5538" y2="16.9032" gradientUnits="userSpaceOnUse">
<stop stop-color="#05DEC6"/>
<stop offset="1" stop-color="#0245DA"/>
</linearGradient>
<linearGradient id="paint2_linear_13108_30876" x1="11.0975" y1="6.62747" x2="4.30736" y2="20.1441" gradientUnits="userSpaceOnUse">
<stop stop-color="#05DFC6" stop-opacity="0.2"/>
<stop offset="1" stop-color="#0145DC"/>
</linearGradient>
<linearGradient id="paint3_linear_13108_30876" x1="0.349117" y1="-6.6176" x2="10.7321" y2="10.9157" gradientUnits="userSpaceOnUse">
<stop stop-color="#1992DC"/>
<stop offset="1" stop-color="#6C1CB9"/>
</linearGradient>
<linearGradient id="paint4_linear_13108_30876" x1="14.451" y1="-1.95349" x2="18.0314" y2="19.6152" gradientUnits="userSpaceOnUse">
<stop stop-color="#1992DC" stop-opacity="0"/>
<stop offset="1" stop-color="#6C1CB9"/>
</linearGradient>
<linearGradient id="paint5_linear_13108_30876" x1="1.2042" y1="2.74788" x2="3.62462" y2="14.6266" gradientUnits="userSpaceOnUse">
<stop stop-color="#8C1EE5" stop-opacity="0.3"/>
<stop offset="1" stop-color="#E01F8C" stop-opacity="0.9"/>
</linearGradient>
<linearGradient id="paint6_linear_13108_30876" x1="13.3658" y1="5.9803" x2="23.0393" y2="-1.50607" gradientUnits="userSpaceOnUse">
<stop offset="0.5781" stop-color="#8C1EE5" stop-opacity="0.3"/>
<stop offset="1" stop-color="#E01F8C" stop-opacity="0.9"/>
</linearGradient>
<linearGradient id="paint7_linear_13108_30876" x1="14.238" y1="0.848594" x2="6.29588" y2="4.43023" gradientUnits="userSpaceOnUse">
<stop stop-color="white"/>
<stop offset="1" stop-color="white" stop-opacity="0"/>
</linearGradient>
</defs>
</svg>
