<svg width="330" height="330" viewBox="0 0 330 330" fill="none" xmlns="http://www.w3.org/2000/svg">
<g clip-path="url(#clip0_4515_5374)">
<path d="M165 3.5C254.194 3.5 326.5 75.806 326.5 165C326.5 254.194 254.194 326.5 165 326.5C75.806 326.5 3.5 254.194 3.5 165C3.5 75.806 75.806 3.5 165 3.5Z" fill="#CECECE"/>
<path d="M165 6.00003C252.813 6.00003 324 77.1867 324 165C324 252.813 252.813 324 165 324C77.1867 324 6 252.813 6 165C6 77.1867 77.1867 6.00003 165 6.00003Z" fill="white"/>
<path d="M42.0469 235.948L44.1647 239.988L64.0829 229.548L61.9651 225.508L42.0469 235.948Z" fill="#424242"/>
<path d="M50.8533 250.732L53.7179 254.282L66.3692 244.075L60.0321 262.108L63.7037 266.659L81.2055 252.537L78.3409 248.987L65.6896 259.195L72.0266 241.161L68.3551 236.611L50.8533 250.732Z" fill="#424242"/>
<path d="M72.4401 274.091L79.3168 279.638C84.8681 284.115 91.8662 283.115 95.6782 278.388C99.4901 273.662 98.9865 266.611 93.4351 262.133L86.5585 256.587L72.4401 274.091ZM90.8833 265.4C94.1341 268.022 94.5484 272.318 92.0273 275.444C89.5263 278.544 85.2194 279.074 81.9686 276.452L78.5928 273.729L87.5075 262.677L90.8833 265.4Z" fill="#424242"/>
<path d="M98.1199 292.884L102.241 294.841L111.888 274.527L107.767 272.57L98.1199 292.884Z" fill="#424242"/>
<path d="M125.242 299.367C121.134 298.313 119.032 294.357 120.102 290.187C121.173 286.018 124.92 283.563 129.028 284.618C131.517 285.257 133.166 286.974 133.956 289.067L138.136 287.254C136.823 284.098 134.042 281.494 130.09 280.479C123.213 278.714 117.157 282.798 115.559 289.021C113.962 295.245 117.303 301.741 124.18 303.506C128.132 304.52 131.815 303.609 134.501 301.412L131.703 297.842C130.003 299.296 127.731 300.006 125.242 299.367Z" fill="#424242"/>
<path d="M143.82 308.176L156.856 309.543L157.252 305.773L148.753 304.882L149.356 299.131L156.577 299.888L156.972 296.118L149.751 295.361L150.307 290.057L158.806 290.948L159.202 287.178L146.166 285.811L143.82 308.176Z" fill="#424242"/>
<path d="M196.232 302.14C192.12 303.177 188.383 300.706 187.33 296.532C186.278 292.358 188.398 288.411 192.51 287.374C195.002 286.746 197.271 287.466 198.964 288.928L201.77 285.338C199.109 283.193 195.422 282.234 191.465 283.231C184.581 284.966 181.212 291.448 182.782 297.678C184.353 303.909 190.391 308.019 197.276 306.283C201.232 305.286 204.032 302.725 205.343 299.512L201.179 297.713C200.38 299.802 198.724 301.512 196.232 302.14Z" fill="#424242"/>
<path d="M226.424 270.135L221.461 272.565L219.795 282.824L210.67 277.848L205.678 280.292L219.738 287.895L223.906 296.407L228.003 294.401L223.793 285.802L226.424 270.135Z" fill="#424242"/>
<path d="M244.695 284.615L250.357 280.33C254.481 277.209 255.505 273.292 253.024 270.013C251.609 268.143 249.395 267.4 246.86 267.99C247.495 266.22 247.211 264.461 246.106 263C243.819 259.977 240.143 259.858 236.403 262.688L231.125 266.682L244.695 284.615ZM238.767 265.653C240.15 264.606 241.532 264.729 242.482 265.984C243.471 267.291 243.213 268.654 241.83 269.701L240.113 271L237.051 266.952L238.767 265.653ZM244.63 272.336C246.321 271.057 248.004 271.152 249.167 272.689C250.311 274.201 249.965 275.873 248.274 277.152L246.045 278.839L242.401 274.023L244.63 272.336Z" fill="#424242"/>
<path d="M265.696 267.469L274.024 257.347L271.096 254.938L265.667 261.537L261.201 257.863L265.815 252.257L262.887 249.848L258.274 255.455L254.156 252.066L259.585 245.467L256.658 243.059L248.33 253.18L265.696 267.469Z" fill="#424242"/>
<path d="M281.089 248.61L283.495 244.735L275.771 239.939L277.007 237.947L287.9 237.638L290.73 233.08L278.558 233.805C278.877 231.28 277.853 229.094 275.533 227.653C271.984 225.45 268.219 226.705 265.609 230.908L261.983 236.749L281.089 248.61ZM268.965 232.689C269.982 231.051 271.558 230.706 273.004 231.604C274.56 232.57 274.922 234.118 273.905 235.756L272.55 237.94L267.61 234.873L268.965 232.689Z" fill="#424242"/>
<mask id="path-5-inside-1_4515_5374" fill="white">
<path fill-rule="evenodd" clip-rule="evenodd" d="M117.418 49.6594L109.461 30.2806C108.208 27.2303 109.654 23.7258 112.747 22.5807C143.27 11.2771 171.678 12.6056 186.703 14.8807C189.922 15.3681 191.982 18.4678 191.385 21.6679L187.517 42.3969C186.907 45.6637 183.757 47.7959 180.464 47.3503C157.147 44.196 137.093 48.964 125.404 53.0921C122.245 54.2076 118.691 52.758 117.418 49.6594ZM41.5674 87.8036L59.3293 98.9109C62.1693 100.687 65.9024 99.7928 67.8186 97.0453C74.91 86.8772 88.4256 71.3128 109.21 60.2841C112.145 58.7264 113.462 55.1579 112.053 52.1481L103.112 33.0504C101.732 30.1021 98.2516 28.7842 95.3522 30.2645C81.8177 37.1743 57.9606 52.6548 39.7487 79.6319C37.9036 82.3649 38.7716 86.0553 41.5674 87.8036ZM40.2677 170.98C43.7213 170.98 46.4527 168.076 46.4682 164.622C46.5246 152.101 48.7518 132.478 58.7793 112.366C60.2622 109.392 59.2592 105.723 56.363 104.093L37.9859 93.7519C35.1489 92.1555 31.5497 93.1087 30.0513 95.9987C23.291 109.037 13.341 134.192 13.462 165.235C13.4745 168.446 16.13 170.98 19.341 170.98H40.2677ZM198.117 23.2216L193.278 43.6039C192.504 46.863 194.546 50.1136 197.762 51.0497C209.665 54.5142 228.736 62.338 245.836 78.4996C248.251 80.7822 252.053 80.8875 254.454 78.5894L269.686 64.0075C272.038 61.7563 272.172 58.0371 269.842 55.7639C258.964 45.1525 236.663 27.5041 205.277 18.8833C202.097 18.01 198.878 20.0133 198.117 23.2216Z"/>
</mask>
<path fill-rule="evenodd" clip-rule="evenodd" d="M117.418 49.6594L109.461 30.2806C108.208 27.2303 109.654 23.7258 112.747 22.5807C143.27 11.2771 171.678 12.6056 186.703 14.8807C189.922 15.3681 191.982 18.4678 191.385 21.6679L187.517 42.3969C186.907 45.6637 183.757 47.7959 180.464 47.3503C157.147 44.196 137.093 48.964 125.404 53.0921C122.245 54.2076 118.691 52.758 117.418 49.6594ZM41.5674 87.8036L59.3293 98.9109C62.1693 100.687 65.9024 99.7928 67.8186 97.0453C74.91 86.8772 88.4256 71.3128 109.21 60.2841C112.145 58.7264 113.462 55.1579 112.053 52.1481L103.112 33.0504C101.732 30.1021 98.2516 28.7842 95.3522 30.2645C81.8177 37.1743 57.9606 52.6548 39.7487 79.6319C37.9036 82.3649 38.7716 86.0553 41.5674 87.8036ZM40.2677 170.98C43.7213 170.98 46.4527 168.076 46.4682 164.622C46.5246 152.101 48.7518 132.478 58.7793 112.366C60.2622 109.392 59.2592 105.723 56.363 104.093L37.9859 93.7519C35.1489 92.1555 31.5497 93.1087 30.0513 95.9987C23.291 109.037 13.341 134.192 13.462 165.235C13.4745 168.446 16.13 170.98 19.341 170.98H40.2677ZM198.117 23.2216L193.278 43.6039C192.504 46.863 194.546 50.1136 197.762 51.0497C209.665 54.5142 228.736 62.338 245.836 78.4996C248.251 80.7822 252.053 80.8875 254.454 78.5894L269.686 64.0075C272.038 61.7563 272.172 58.0371 269.842 55.7639C258.964 45.1525 236.663 27.5041 205.277 18.8833C202.097 18.01 198.878 20.0133 198.117 23.2216Z" fill="url(#paint0_linear_4515_5374)"/>
<path d="M109.461 30.2806L110.386 29.9008L109.461 30.2806ZM117.418 49.6594L116.493 50.0392L117.418 49.6594ZM112.747 22.5807L112.399 21.6429L112.747 22.5807ZM186.703 14.8807L186.554 15.8695L186.703 14.8807ZM191.385 21.6679L192.368 21.8513V21.8513L191.385 21.6679ZM187.517 42.3969L186.534 42.2134L187.517 42.3969ZM180.464 47.3503L180.598 46.3594L180.464 47.3503ZM125.404 53.0921L125.071 52.1492L125.404 53.0921ZM59.3293 98.9109L58.7991 99.7588L59.3293 98.9109ZM41.5674 87.8036L42.0976 86.9557H42.0976L41.5674 87.8036ZM67.8186 97.0453L68.6388 97.6174L67.8186 97.0453ZM109.21 60.2841L109.678 61.1675L109.21 60.2841ZM112.053 52.1481L111.147 52.5721V52.5721L112.053 52.1481ZM103.112 33.0504L102.207 33.4743V33.4743L103.112 33.0504ZM95.3522 30.2645L95.807 31.1551L95.3522 30.2645ZM39.7487 79.6319L40.5775 80.1914H40.5775L39.7487 79.6319ZM46.4682 164.622L45.4682 164.618L46.4682 164.622ZM58.7793 112.366L59.6743 112.813L58.7793 112.366ZM56.363 104.093L55.8726 104.964H55.8726L56.363 104.093ZM37.9859 93.7519L37.4955 94.6234L37.9859 93.7519ZM30.0513 95.9987L30.9391 96.459L30.0513 95.9987ZM13.462 165.235L14.462 165.231L13.462 165.235ZM193.278 43.6039L194.251 43.8349L193.278 43.6039ZM198.117 23.2216L197.144 22.9906V22.9906L198.117 23.2216ZM197.762 51.0497L197.482 52.0099L197.762 51.0497ZM245.836 78.4996L245.149 79.2263L245.836 78.4996ZM254.454 78.5894L255.145 79.3117L254.454 78.5894ZM269.686 64.0075L270.378 64.7298L269.686 64.0075ZM269.842 55.7639L269.144 56.4797V56.4797L269.842 55.7639ZM205.277 18.8833L205.541 17.919L205.277 18.8833ZM108.536 30.6604L116.493 50.0392L118.343 49.2795L110.386 29.9008L108.536 30.6604ZM112.399 21.6429C108.752 22.9937 107.078 27.111 108.536 30.6604L110.386 29.9008C109.338 27.3496 110.557 24.458 113.094 23.5184L112.399 21.6429ZM186.853 13.892C171.719 11.6004 143.129 10.263 112.399 21.6429L113.094 23.5184C143.411 12.2913 171.637 13.6108 186.554 15.8695L186.853 13.892ZM192.368 21.8513C193.062 18.1324 190.668 14.4696 186.853 13.892L186.554 15.8695C189.176 16.2666 190.902 18.8031 190.402 21.4844L192.368 21.8513ZM188.5 42.5803L192.368 21.8513L190.402 21.4844L186.534 42.2134L188.5 42.5803ZM180.33 48.3413C184.116 48.8536 187.786 46.4048 188.5 42.5803L186.534 42.2134C186.028 44.9226 183.398 46.7382 180.598 46.3594L180.33 48.3413ZM125.737 54.035C137.327 49.9418 157.216 45.2145 180.33 48.3413L180.598 46.3594C157.078 43.1775 136.859 47.9861 125.071 52.1492L125.737 54.035ZM116.493 50.0392C117.982 53.6653 122.112 55.3152 125.737 54.035L125.071 52.1492C122.378 53.1 119.399 51.8506 118.343 49.2795L116.493 50.0392ZM59.8595 98.063L42.0976 86.9557L41.0372 88.6515L58.7991 99.7588L59.8595 98.063ZM66.9983 96.4733C65.3651 98.8151 62.216 99.5367 59.8595 98.063L58.7991 99.7588C62.1226 101.837 66.4398 100.77 68.6388 97.6174L66.9983 96.4733ZM108.741 59.4008C87.7757 70.5256 74.1497 86.2191 66.9983 96.4733L68.6388 97.6174C75.6702 87.5353 89.0754 72.1001 109.678 61.1675L108.741 59.4008ZM111.147 52.5721C112.315 55.0681 111.237 58.0764 108.741 59.4008L109.678 61.1675C113.054 59.3765 114.608 55.2477 112.958 51.7241L111.147 52.5721ZM102.207 33.4743L111.147 52.5721L112.958 51.7241L104.018 32.6264L102.207 33.4743ZM95.807 31.1551C98.1693 29.949 101.05 31.004 102.207 33.4743L104.018 32.6264C102.414 29.2001 98.3339 27.6195 94.8975 29.3738L95.807 31.1551ZM40.5775 80.1914C58.6662 53.3967 82.3702 38.015 95.807 31.1551L94.8975 29.3738C81.2652 36.3336 57.2549 51.9129 38.9198 79.0724L40.5775 80.1914ZM42.0976 86.9557C39.7593 85.4935 39.0637 82.4337 40.5775 80.1914L38.9198 79.0724C36.7436 82.2961 37.7839 86.617 41.0372 88.6515L42.0976 86.9557ZM45.4682 164.618C45.455 167.56 43.1328 169.98 40.2677 169.98V171.98C44.3098 171.98 47.4503 168.592 47.4682 164.627L45.4682 164.618ZM57.8844 111.92C47.7692 132.207 45.5251 151.993 45.4682 164.618L47.4682 164.627C47.5241 152.209 49.7344 132.748 59.6743 112.813L57.8844 111.92ZM55.8726 104.964C58.2742 106.316 59.1453 109.391 57.8844 111.92L59.6743 112.813C61.3791 109.393 60.2441 105.13 56.8534 103.221L55.8726 104.964ZM37.4955 94.6234L55.8726 104.964L56.8534 103.221L38.4763 92.8804L37.4955 94.6234ZM30.9391 96.459C32.1602 94.1038 35.1189 93.286 37.4955 94.6234L38.4763 92.8804C35.1789 91.0249 30.9393 92.1136 29.1635 95.5384L30.9391 96.459ZM14.462 165.231C14.3418 134.397 24.2281 109.402 30.9391 96.459L29.1635 95.5384C22.3539 108.672 12.3402 133.988 12.462 165.239L14.462 165.231ZM19.341 169.98C16.6558 169.98 14.4723 167.866 14.462 165.231L12.462 165.239C12.4768 169.025 15.6042 171.98 19.341 171.98V169.98ZM40.2677 169.98H19.341V171.98H40.2677V169.98ZM194.251 43.8349L199.09 23.4525L197.144 22.9906L192.305 43.3729L194.251 43.8349ZM198.041 50.0896C195.3 49.2917 193.609 46.5391 194.251 43.8349L192.305 43.3729C191.399 47.1869 193.791 50.9356 197.482 52.0099L198.041 50.0896ZM246.523 77.7728C229.274 61.4704 210.045 53.5833 198.041 50.0896L197.482 52.0099C209.285 55.445 228.198 63.2056 245.149 79.2263L246.523 77.7728ZM253.762 77.867C251.772 79.7728 248.576 79.7136 246.523 77.7728L245.149 79.2263C247.926 81.8509 252.335 82.0021 255.145 79.3117L253.762 77.867ZM268.995 63.2851L253.762 77.867L255.145 79.3117L270.378 64.7298L268.995 63.2851ZM269.144 56.4797C271.043 58.3319 270.965 61.3989 268.995 63.2851L270.378 64.7298C273.111 62.1137 273.302 57.7423 270.54 55.0481L269.144 56.4797ZM205.012 19.8476C236.186 28.4101 258.345 45.945 269.144 56.4797L270.54 55.0481C259.584 44.3599 237.14 26.5981 205.541 17.919L205.012 19.8476ZM199.09 23.4525C199.727 20.7692 202.403 19.1311 205.012 19.8476L205.541 17.919C201.791 16.8889 198.03 19.2573 197.144 22.9906L199.09 23.4525Z" fill="white" mask="url(#path-5-inside-1_4515_5374)"/>
<path d="M258.627 82.9549L274.377 69.1426C276.857 66.9684 280.641 67.1996 282.727 69.7533C303.319 94.9604 311.276 122.264 313.997 137.215C314.58 140.418 312.316 143.372 309.095 143.845L288.232 146.909C284.944 147.391 281.906 145.103 281.259 141.844C276.68 118.764 265.666 101.34 257.97 91.6219C255.89 88.9959 256.109 85.1635 258.627 82.9549Z" fill="url(#paint1_linear_4515_5374)"/>
<mask id="path-8-inside-2_4515_5374" fill="white">
<path fill-rule="evenodd" clip-rule="evenodd" d="M316.182 154.101C316.016 151.909 314.062 150.315 311.874 150.527L287.024 152.93C284.801 153.145 283.19 155.138 283.337 157.366C283.515 160.053 283.614 163.215 283.547 166.758C283.504 169.052 285.321 170.978 287.615 170.978H312.627C314.772 170.978 316.541 169.286 316.573 167.141C316.637 162.909 316.519 158.556 316.182 154.101Z"/>
</mask>
<path fill-rule="evenodd" clip-rule="evenodd" d="M316.182 154.101C316.016 151.909 314.062 150.315 311.874 150.527L287.024 152.93C284.801 153.145 283.19 155.138 283.337 157.366C283.515 160.053 283.614 163.215 283.547 166.758C283.504 169.052 285.321 170.978 287.615 170.978H312.627C314.772 170.978 316.541 169.286 316.573 167.141C316.637 162.909 316.519 158.556 316.182 154.101Z" fill="url(#paint2_linear_4515_5374)"/>
<path d="M316.573 167.141L315.573 167.126L316.573 167.141ZM287.12 153.925L311.97 151.522L311.777 149.531L286.927 151.935L287.12 153.925ZM284.547 166.777C284.615 163.205 284.515 160.014 284.335 157.3L282.34 157.432C282.516 160.092 282.614 163.226 282.547 166.739L284.547 166.777ZM287.615 171.978H312.627V169.978H287.615V171.978ZM315.185 154.176C315.519 158.6 315.637 162.923 315.573 167.126L317.573 167.156C317.637 162.896 317.518 158.512 317.179 154.025L315.185 154.176ZM312.627 171.978C315.301 171.978 317.532 169.864 317.573 167.156L315.573 167.126C315.549 168.708 314.242 169.978 312.627 169.978V171.978ZM282.547 166.739C282.494 169.569 284.738 171.978 287.615 171.978V169.978C285.904 169.978 284.514 168.535 284.547 166.777L282.547 166.739ZM311.97 151.522C313.618 151.363 315.063 152.561 315.185 154.176L317.179 154.025C316.97 151.256 314.505 149.268 311.777 149.531L311.97 151.522ZM286.927 151.935C284.139 152.204 282.158 154.692 282.34 157.432L284.335 157.3C284.222 155.583 285.463 154.086 287.12 153.925L286.927 151.935Z" fill="white" mask="url(#path-8-inside-2_4515_5374)"/>
</g>
<defs>
<linearGradient id="paint0_linear_4515_5374" x1="271.522" y1="74.0947" x2="13.4685" y2="75.8548" gradientUnits="userSpaceOnUse">
<stop stop-color="#5CC7FF"/>
<stop offset="0.213542" stop-color="#3788D7"/>
<stop offset="0.432292" stop-color="#2C57AA"/>
<stop offset="0.760417" stop-color="#6B24DD"/>
<stop offset="1" stop-color="#A826B3"/>
</linearGradient>
<linearGradient id="paint1_linear_4515_5374" x1="302.996" y1="141.503" x2="265.496" y2="72.5029" gradientUnits="userSpaceOnUse">
<stop stop-color="#9BABB5"/>
<stop offset="1" stop-color="#B5CAD6" stop-opacity="0.57"/>
</linearGradient>
<linearGradient id="paint2_linear_4515_5374" x1="304.823" y1="168.074" x2="297.345" y2="155.131" gradientUnits="userSpaceOnUse">
<stop stop-color="#F0B500"/>
<stop offset="1" stop-color="#F2CA50"/>
</linearGradient>
<clipPath id="clip0_4515_5374">
<rect width="330" height="330" fill="white"/>
</clipPath>
</defs>
</svg>
