<svg width="100" height="101" viewBox="0 0 100 101" fill="none" xmlns="http://www.w3.org/2000/svg">
    <path d="M86.6667 65.605C86.6667 76.11 78.2098 84.6259 67.7778 84.6259C57.3458 84.6259 48.8889 76.11 48.8889 65.605C48.8889 55.1 57.3458 46.584 67.7778 46.584C78.2098 46.584 86.6667 55.1 86.6667 65.605Z" fill="#EAF5FF"/>
    <path fill-rule="evenodd" clip-rule="evenodd" d="M67.5 44.2063C55.764 44.2063 46.25 53.7868 46.25 65.6049C46.25 65.6851 46.2505 65.7651 46.2513 65.8451C46.2039 70.0155 47.418 74.2186 49.9443 77.867C53.785 83.4136 59.9439 86.6464 66.4065 86.9757C66.6879 86.99 66.9707 86.9989 67.2549 87.0021C70.0503 87.0342 72.8857 86.5221 75.5999 85.4185C75.6793 85.3862 75.7544 85.3461 75.8242 85.2994C78.8816 83.9873 81.5713 81.9743 83.6941 79.4609C83.845 79.3846 83.9868 79.2721 84.1106 79.1193C87.1944 75.3121 88.8012 70.6096 88.7488 65.8369C88.7496 65.7597 88.75 65.6823 88.75 65.6049C88.75 53.7868 79.2361 44.2063 67.5 44.2063ZM73.5276 47.7206C71.6359 47.0743 69.6086 46.7238 67.5 46.7238C62.4271 46.7238 57.8247 48.7525 54.4492 52.0482C54.6699 52.3307 54.8546 52.6381 54.9976 52.9616C55.1259 53.2444 55.2316 53.5352 55.3169 53.8352C55.486 54.4297 55.5645 54.9333 55.5982 55.6111L55.6156 56.1563C55.6191 56.3516 55.6205 56.562 55.6205 56.7916L55.6212 57.0433L55.6285 57.4685L55.6446 57.7978L55.6708 58.0473C55.692 58.1906 55.7208 58.2916 55.759 58.3718C55.7652 58.3847 55.7949 58.404 55.8485 58.4287L55.9873 58.4851L56.1899 58.5547L56.4567 58.6359L56.9782 58.7764L57.6466 58.9348L59.1691 59.263L59.7027 59.397C60.641 59.6524 61.3348 60.0801 62.1391 60.8528L62.3075 61.018L62.2942 60.9898C61.5488 59.2481 61.447 56.9676 61.9168 55.4454L62.0057 55.1849C62.6523 53.4566 64.1044 52.786 66.0948 52.7397C66.1558 52.7382 66.2158 52.7373 66.2755 52.7369L66.639 52.7403C66.7015 52.7419 66.7657 52.744 66.8324 52.7465L68.1856 52.8219L68.5759 52.8338L68.7638 52.8304L68.9144 52.818C69.1255 52.792 69.3803 52.5382 69.6657 51.9755L70.0895 51.0183L70.247 50.6837C70.3224 50.5305 70.3901 50.4052 70.4391 50.3391C70.8526 49.7819 71.5076 49.1919 72.4691 48.4758L73.0244 48.0722L73.5276 47.7206ZM68.1142 84.4761C67.9103 84.4827 67.7055 84.486 67.5 84.486C57.225 84.486 48.8804 76.1633 48.7515 65.8472C48.8027 61.8513 50.1744 57.8905 52.8094 54.6323L52.9075 54.5116L52.9135 54.5282C53.0058 54.8528 53.059 55.1549 53.0883 55.5489L53.1102 55.9778L53.1195 56.4933L53.1243 57.3604C53.141 58.3636 53.2198 58.8626 53.5061 59.463C53.9535 60.398 54.6121 60.7896 56.2045 61.1877L56.7392 61.3143L57.3412 61.4452L58.4121 61.6718L58.7553 61.7514L59.0498 61.8272C59.7177 62.0089 60.2852 62.4752 61.2506 63.5606L61.914 64.3065C62.2912 64.7163 62.5462 64.9595 62.8314 65.1232C63.2485 65.3625 63.7648 65.3402 64.1599 65.0658C64.6364 64.735 65.143 63.9946 65.3821 63.1506C65.6183 62.3166 65.5696 61.4856 65.1334 60.8634L65.0047 60.699C64.1435 59.6987 63.9186 57.2074 64.3445 56.0742C64.5517 55.5203 65.0684 55.2817 66.1526 55.2565L66.4425 55.2547L66.941 55.2715L67.9554 55.3313L68.351 55.3484C68.41 55.3502 68.4659 55.3514 68.5193 55.3521L68.8156 55.349L69.0833 55.3315C69.1272 55.3274 69.1711 55.3226 69.2158 55.3172C70.3696 55.1751 71.1567 54.4581 71.7646 53.3612L71.9428 53.0177L72.0551 52.7755L72.3292 52.1384L72.4414 51.8534C72.4437 51.8458 72.444 51.8431 72.4419 51.8459C72.6165 51.6107 72.9317 51.3117 73.3783 50.951L73.7931 50.6269L74.2709 50.2727C74.3557 50.2112 74.4431 50.1485 74.533 50.0845L75.1029 49.6861L75.5038 49.4125L75.7581 49.5314C80.6971 51.9105 84.3378 56.3109 85.6849 61.5777L85.7972 62.042C86.0839 63.2999 86.2329 64.5722 86.2486 65.8392C86.2158 68.5564 85.613 71.1356 84.555 73.4609C84.3676 71.8403 83.8068 71.0159 82.3672 70.2057C81.8736 69.932 81.4826 69.7352 81.0178 69.5207L80.6526 69.355C79.6207 68.8959 79.3778 68.7207 78.8253 67.9253L78.5398 67.5088C77.1329 65.4025 76.0457 64.7272 73.4663 65.1286C68.8919 65.8428 67.5644 66.7275 67.2104 69.0802L67.0889 69.9219C67.076 70.0181 67.0641 70.1116 67.053 70.2025L66.9986 70.7179C66.8648 72.2592 67.106 72.9741 68.006 73.9041L68.6639 74.5892L69.2813 75.245L69.8579 75.8709L70.3935 76.4664L70.8877 77.0309L71.3402 77.5639L71.7509 78.0649L72.1194 78.5334L72.4454 78.9688C72.4962 79.0386 72.5452 79.107 72.5924 79.174L72.8543 79.5589C73.0946 79.9267 73.2701 80.243 73.3797 80.5055L73.4949 80.7993C73.7527 81.4974 73.9298 82.2798 73.9546 83.0604L73.955 83.3373C72.1248 84.0131 70.1609 84.4098 68.1142 84.4761ZM76.4015 82.2268C78.5595 81.0524 80.4629 79.4643 82.0069 77.568C82.092 77.0094 82.1369 76.4141 82.1369 75.7818L82.1368 75.248L82.1335 74.7481L82.1233 74.3215L82.1035 73.9602C82.0309 73.0219 81.8085 72.7752 81.1545 72.4071L80.8459 72.2394C80.4502 72.0289 80.1035 71.864 79.6401 71.6568L79.3684 71.5336C78.148 70.9678 77.5732 70.5148 76.7724 69.3619L76.3458 68.7362L76.1127 68.4042C75.5626 67.6522 75.2262 67.4712 74.4052 67.5445L74.0492 67.5867L73.5189 67.6686L72.6371 67.8163L71.9056 67.9549L71.4942 68.0449L71.1387 68.1347C70.1516 68.4053 69.8603 68.6942 69.7346 69.1868L69.6982 69.3588L69.6109 69.9386L69.5205 70.5793L69.4819 70.9139L69.4612 71.1865L69.4588 71.4071C69.4669 71.6382 69.5135 71.784 69.6021 71.9171L69.6884 72.0297C69.7207 72.0674 69.7565 72.1057 69.7958 72.1464L70.1674 72.5317L70.8757 73.2773L71.5376 73.9899L72.153 74.6697L72.7219 75.3169L73.2444 75.9316L73.7205 76.5142L74.1502 77.0648C74.8954 78.0451 75.4069 78.8654 75.6852 79.5318C76.0283 80.3577 76.2901 81.2707 76.4015 82.2268Z" fill="#0079D0"/>
    <path d="M83.7416 22.661C83.6694 22.035 83.141 21.5491 82.5 21.5491H15L14.8542 21.5575C14.2326 21.6303 13.75 22.1623 13.75 22.8078V80.7099L13.7584 80.8567C13.8306 81.4827 14.359 81.9687 15 81.9687H45L45.1458 81.9602C45.7674 81.8875 46.25 81.3554 46.25 80.7099L46.2416 80.5631C46.1694 79.9371 45.641 79.4512 45 79.4512H16.25V34.1365H62.5L62.6458 34.128C63.2674 34.0553 63.75 33.5233 63.75 32.8777C63.75 32.1826 63.1904 31.619 62.5 31.619H16.25V24.0666H81.25V31.619H70L69.8542 31.6275C69.2326 31.7002 68.75 32.2322 68.75 32.8777C68.75 33.5729 69.3096 34.1365 70 34.1365H81.25V42.9477L81.2584 43.0945C81.3306 43.7205 81.859 44.2064 82.5 44.2064C83.1904 44.2064 83.75 43.6429 83.75 42.9477V22.8078L83.7416 22.661Z" fill="#2F3A43"/>
    <path d="M20 29.1015C19.3108 29.1015 18.75 28.5368 18.75 27.8428C18.75 27.1486 19.3108 26.584 20 26.584C20.6892 26.584 21.25 27.1486 21.25 27.8428C21.25 28.5368 20.6892 29.1015 20 29.1015Z" fill="#2F3A43"/>
    <path d="M23.75 27.8428C23.75 28.5368 24.3108 29.1015 25 29.1015C25.6892 29.1015 26.25 28.5368 26.25 27.8428C26.25 27.1486 25.6892 26.584 25 26.584C24.3108 26.584 23.75 27.1486 23.75 27.8428Z" fill="#2F3A43"/>
    <path d="M30 29.1015C29.3108 29.1015 28.75 28.5368 28.75 27.8428C28.75 27.1486 29.3108 26.584 30 26.584C30.6893 26.584 31.25 27.1486 31.25 27.8428C31.25 28.5368 30.6893 29.1015 30 29.1015Z" fill="#2F3A43"/>
    <path d="M77.5 26.584C78.1904 26.584 78.75 27.1476 78.75 27.8428C78.75 28.4883 78.2674 29.0203 77.6458 29.0931L77.5 29.1015H40C39.3096 29.1015 38.75 28.538 38.75 27.8428C38.75 27.1973 39.2325 26.6652 39.8542 26.5925L40 26.584H77.5Z" fill="#2F3A43"/>
    <path d="M48.75 42.9477C48.75 42.2525 48.1904 41.6889 47.5 41.6889H25L24.8542 41.6974C24.2325 41.7701 23.75 42.3021 23.75 42.9477C23.75 43.6429 24.3096 44.2064 25 44.2064H47.5L47.6458 44.1979C48.2674 44.1252 48.75 43.5932 48.75 42.9477Z" fill="#2F3A43"/>
    <path d="M42.5 49.2414C43.1904 49.2414 43.75 49.8049 43.75 50.5001C43.75 51.1456 43.2675 51.6777 42.6458 51.7504L42.5 51.7589H25C24.3096 51.7589 23.75 51.1953 23.75 50.5001C23.75 49.8546 24.2325 49.3226 24.8542 49.2498L25 49.2414H42.5Z" fill="#2F3A43"/>
    <path d="M41.25 58.0526C41.25 57.3574 40.6904 56.7938 40 56.7938H25L24.8542 56.8023C24.2325 56.875 23.75 57.407 23.75 58.0526C23.75 58.7478 24.3096 59.3113 25 59.3113H40L40.1458 59.3028C40.7675 59.2301 41.25 58.6981 41.25 58.0526Z" fill="#2F3A43"/>
</svg>
