<svg width="24" height="24" viewBox="0 0 24 24" fill="none" xmlns="http://www.w3.org/2000/svg">
<path d="M17.7769 17.9393C17.9645 18.4934 17.4984 19 16.9134 19C16.2952 19 15.5279 19 14.9316 19H9.06839C8.47214 19 7.70479 19 7.08663 19C6.50165 19 6.03549 18.4934 6.22311 17.9393C6.95041 15.7913 9.26504 14 12 14C14.735 14 17.0496 15.7913 17.7769 17.9393Z" fill="white"/>
<path d="M15.5 9.49512C15.5 11.4282 13.9357 13 12 13C10.0642 13 8.5 11.4282 8.5 9.49512C8.5 7.56208 10.0642 6 12 6C13.9357 6 15.5 7.56208 15.5 9.49512Z" fill="white"/>
</svg>
