<svg width="24" height="24" viewBox="0 0 24 24" fill="none" xmlns="http://www.w3.org/2000/svg">
<g clip-path="url(#clip0_8995_19269)">
<path d="M12 5C11.175 5 10.5 5.675 10.5 6.5C10.5 7.325 11.175 8 12 8C12.825 8 13.5 7.325 13.5 6.5C13.5 5.675 12.825 5 12 5ZM12 16C11.175 16 10.5 16.675 10.5 17.5C10.5 18.325 11.175 19 12 19C12.825 19 13.5 18.325 13.5 17.5C13.5 16.675 12.825 16 12 16ZM12 10.5C11.175 10.5 10.5 11.175 10.5 12C10.5 12.825 11.175 13.5 12 13.5C12.825 13.5 13.5 12.825 13.5 12C13.5 11.175 12.825 10.5 12 10.5Z" fill="#0079D0"/>
</g>
<defs>
<clipPath id="clip0_8995_19269">
<rect width="24" height="24" fill="white"/>
</clipPath>
</defs>
</svg>
