<svg width="100" height="101" viewBox="0 0 100 101" fill="none" xmlns="http://www.w3.org/2000/svg">
<path d="M50.9147 23.3522C54.5356 19.5307 60.4519 19.5656 64.0392 23.3591C65.4155 24.8145 66.1781 26.9328 66.2452 29.3707C66.2642 30.0608 66.839 30.6049 67.5291 30.5859C68.2192 30.5669 68.7633 29.9921 68.7443 29.302C68.6613 26.2851 67.6864 23.5774 65.8556 21.6414C61.5731 17.1126 54.6489 16.7897 50 20.7759C45.3511 16.7897 38.4269 17.1126 34.1443 21.6414C29.7571 26.2808 30.5387 35.3529 35.2942 40.3817C37.4745 42.6873 40.7029 45.1489 44.986 47.7802L46.1803 48.502C46.7905 48.865 47.4203 49.2313 48.0698 49.6007L49.3684 50.3289C49.4079 50.352 49.4486 50.3729 49.4902 50.3914C49.6548 50.4652 49.8283 50.5004 49.9997 50.5003C50.1713 50.5005 50.345 50.4652 50.5098 50.3914C50.5514 50.3729 50.592 50.3521 50.6315 50.329L51.9302 49.6007C52.5796 49.2313 53.2095 48.865 53.8197 48.502L55.014 47.7802C59.2971 45.1489 62.5255 42.6873 64.7058 40.3817C65.1802 39.8801 65.1581 39.0889 64.6565 38.6146C64.1549 38.1403 63.3637 38.1624 62.8894 38.664C60.8675 40.8021 57.7879 43.1452 53.6571 45.6795L52.5044 46.3754C51.7055 46.8503 50.8707 47.3317 50 47.8194C49.1293 47.3317 48.2945 46.8503 47.4956 46.3754L46.3429 45.6795C42.2121 43.1452 39.1325 40.8021 37.1106 38.664C33.2087 34.5378 32.5558 26.9598 35.9608 23.3591C39.548 19.5657 45.4642 19.5307 49.0851 23.352C49.0952 23.3629 49.1055 23.3736 49.1161 23.3841C49.2188 23.487 49.3353 23.5682 49.4598 23.6278C49.7994 23.7905 50.1987 23.7916 50.5402 23.6278C50.6647 23.5682 50.7812 23.4869 50.8839 23.3841C50.8944 23.3736 50.9047 23.363 50.9147 23.3522Z" fill="#0079D0"/>
<path d="M76.1648 53.8615C79.1029 52.1652 82.7758 52.9102 84.3475 55.6324C85.9192 58.3547 84.7279 61.908 81.7898 63.6043L61.7357 76.6691L61.4358 76.8208C58.9048 78.0424 55.5852 78.2029 50.9202 77.6837L50.5473 77.6412L49.7847 77.548L48.9838 77.4421L48.1248 77.3213L45.7447 76.9645L42.8566 76.5411L41.1451 76.3103L40.2449 76.2003L39.4323 76.1115L38.7011 76.0438L38.0452 75.9972L37.6466 75.9777L37.2769 75.9676L36.7724 75.9697C36.7195 75.9711 36.6676 75.9728 36.6167 75.975L36.3226 75.9925L36.0501 76.0193L35.7972 76.0551L35.5623 76.1001L35.3434 76.1542L35.1388 76.2173L34.9465 76.2895C34.9154 76.3023 34.8848 76.3155 34.8545 76.329L34.6775 76.4147L34.5082 76.5094L34.4796 76.527L35.2213 78.5648L35.2905 78.7731C35.8569 80.6539 34.9002 82.6723 33.0551 83.3439L26.2329 85.827L26.093 85.8689C25.4842 86.0137 24.85 85.6823 24.6308 85.0799C24.3946 84.4311 24.7291 83.7138 25.3779 83.4777L32.2001 80.9946L32.3239 80.9408C32.8404 80.677 33.0941 80.03 32.872 79.4199L25.1766 58.2768L25.1186 58.141C24.8394 57.5746 24.2053 57.3 23.6496 57.5023L16.8274 59.9854L16.7036 60.0393C16.187 60.303 15.9333 60.95 16.1554 61.5602L20.078 73.5085L20.1155 73.6497C20.2408 74.2629 19.8893 74.8861 19.2802 75.086C18.6243 75.3013 17.918 74.9441 17.7027 74.2882L13.7253 62.1731C13.1705 60.3261 14.1273 58.3077 15.9723 57.6362L22.7945 55.1531L23.0002 55.085C24.857 54.5312 26.8457 55.5531 27.5258 57.4217L27.8619 58.3452C27.9235 58.2832 27.9925 58.2268 28.0687 58.1772C35.3806 53.4246 45.3378 54.0652 50.9054 58.0184L51.1894 58.2259C53.5448 59.9951 55.6383 59.9225 59.2706 57.9352L59.8734 57.5962L60.5049 57.2235L61.1667 56.8171C61.3926 56.676 61.6238 56.5293 61.8607 56.3769C61.877 56.3664 61.8934 56.3564 61.91 56.3467L61.928 56.3352L61.9401 56.3276L64.2845 54.8845L64.5029 54.7556C66.7813 53.488 69.6867 54.2187 71.0881 56.4613C72.7908 59.1863 72.9939 60.9214 70.6904 62.3608L70.1469 62.7231L66.6415 65.049L64.0545 66.7485L61.208 68.5903L59.7805 69.4941C57.8442 70.7058 54.6291 70.4976 50.0085 68.9859L49.1256 68.6872C48.8258 68.5826 48.5205 68.4729 48.2096 68.3581L47.2603 67.9988C46.7773 67.8117 46.2817 67.6132 45.7735 67.4036C45.1353 67.1404 44.8313 66.4097 45.0945 65.7715C45.3577 65.1333 46.0884 64.8293 46.7267 65.0925C46.8899 65.1598 47.0516 65.2258 47.2118 65.2905L48.1545 65.6634C48.3085 65.7229 48.461 65.7812 48.6119 65.8382L49.499 66.1647C49.7885 66.2684 50.0717 66.3671 50.3487 66.4607L51.1609 66.7262L51.9352 66.9617C55.2084 67.9168 57.4099 68.0284 58.4544 67.3749L60.1845 66.2771L62.3078 64.9031L65.7501 62.6417L69.5011 60.1484C69.952 59.8145 69.9587 59.4867 69.414 58.5267L69.2118 58.1825L68.968 57.7861C68.2531 56.6421 66.7462 56.2942 65.6021 57.009L63.2506 58.4566L63.2357 58.4647L63.2131 58.4795L62.8414 58.7168L62.1176 59.1677C61.9991 59.2402 61.8817 59.3113 61.7652 59.3812L61.0784 59.7842C56.3532 62.4925 53.3204 62.8309 49.9307 60.4029L49.6879 60.2247C44.9905 56.6962 35.954 56.0336 29.4312 60.2734C29.1859 60.4328 28.9056 60.4952 28.6353 60.4701L33.6117 74.1426L33.682 74.1044L33.9225 73.9865L34.1674 73.8802L34.4188 73.7853L34.6789 73.7018L34.95 73.6296L35.2343 73.5687C35.3315 73.5503 35.4312 73.5338 35.5339 73.5191L35.851 73.4807L36.1879 73.4533L36.5467 73.4371C36.6084 73.4353 36.6712 73.4339 36.735 73.4331L37.1308 73.4333L37.554 73.4444L38.0068 73.4665L38.4915 73.4993L39.0101 73.5429L39.8567 73.6283L40.7921 73.7376L42.1904 73.9201L44.2057 74.2068L47.5559 74.7104L48.9026 74.9069L50.0948 75.0673L50.8355 75.1579L51.7162 75.2545C55.8189 75.6719 58.6511 75.475 60.4706 74.5159L80.4826 61.4744L80.6839 61.3512C82.3867 60.2498 82.9957 58.2911 82.1824 56.8824C81.3379 55.4196 79.2127 54.9886 77.4148 56.0266C76.817 56.3718 76.0525 56.1669 75.7073 55.5691C75.3621 54.9712 75.567 54.2067 76.1648 53.8615Z" fill="#282828"/>
<path d="M21.25 63C21.9403 63 22.5 62.4404 22.5 61.75C22.5 61.0596 21.9403 60.5 21.25 60.5C20.5596 60.5 20 61.0596 20 61.75C20 62.4404 20.5596 63 21.25 63Z" fill="#282828"/>
</svg>
