<?xml version="1.0" encoding="UTF-8"?>
<svg id="_29" data-name="29" xmlns="http://www.w3.org/2000/svg" viewBox="0 0 1044.29 950.89">
  <defs>
    <style>
      .cls-1 {
        fill: #f26389;
      }

      .cls-2 {
        fill: #0079d0;
      }

      .cls-3 {
        fill: #eaf5ff;
      }

      .cls-4 {
        fill: #0c5c98;
      }

      .cls-5 {
        fill: #c2e3fa;
      }
    </style>
  </defs>
  <g>
    <path d="M411.93,427.63s.05-.03.08-.04c-.03.01-.05.03-.08.04Z"/>
    <path class="cls-3" d="M578.93,614.68c.97,39-22.21,74.7-52.45,97.71-.25-.18-.55-.32-.86-.42-73.4,1.3-272.5.27-338.37.33-81.31-63.39-62.04-160.04,23.46-208.02,23.51-14.85,50.6-21.45,76.38-30.75,19.54-7.82,45.62-31.54,13.69-43.59-73.01-15.05-162.06-58.55-165.72-143.15-.77-31.32,14.24-61.22,35.98-83.13,6.96-5.86,13.66-15.95,23.29-16.38,45.72-2.02,285.97-1.99,326.23-2.84,20.24,14.82,37.96,33.82,48.51,56.77,43.83,97.21-63.99,173.27-149.43,186.75-27.97,7.07-25.77,26.4-3.36,39.54,19.51,12.35,43.14,14.78,63.69,25.01,49.34,21.62,97.75,64.73,98.96,122.17Z"/>
    <path class="cls-4" d="M576.53,184.82c-33.31,1.05-437.59,6.29-436.91,1.02.16-3.15.51-16.8.96-19.92.07-2.81,425.29-2.48,433.67-1.75l2.28,20.65Z"/>
    <path class="cls-4" d="M575.44,731.41c-33.31,1.05-437.59,6.29-436.91,1.02.16-3.15.51-16.8.96-19.92.07-2.81,425.29-2.48,433.67-1.75l2.28,20.65Z"/>
    <path class="cls-1" d="M239.91,531.6c-.21.08-.42.17-.63.25.21-.08.42-.17.63-.25Z"/>
    <path class="cls-1" d="M524.61,611.67c-4.91-62.66-80.98-108.94-136.54-122.33-30.34-6.09-60.96,2.96-88.81,14.64-.43.17-34.19,11.77-49.31,20.11-4.33,2.4-30.96,20.55-39.02,28.1-44.21,39.67-35.83,97.19,11.01,130.53,87.09,1.31,174.42.16,261.48-.24.24.08.47.17.67.31,22.79-16.33,41.26-42.16,40.53-71.12Z"/>
    <path d="M187.97,188.81c0-.1.09-.17.19-.17s.18.09.17.19c0,.1-.09.17-.19.17s-.18-.09-.17-.19Z"/>
    <path d="M411.93,427.63s.05-.03.08-.04c-.03.01-.05.03-.08.04Z"/>
    <path d="M577.3,717.19c-.19-.96-.15-3.1-.57-4.76.38-.38.4-.95-.2-1.8-1.42-.86-3.33-.41-4.99-.61-3.74-.09-7.48-.12-11.23-.13-10.22,0-20.44,0-30.66,0,1.27-1.03,2.53-2.07,3.77-3.14,3.29-2.85,6.47-5.83,9.52-8.94,5.54-5.65,10.65-11.75,15.18-18.24,4.7-6.73,8.81-13.92,12.04-21.47,2.69-6.29,4.88-12.8,6.35-19.49,1.73-7.85,2.57-15.88,2.41-23.92-.17-8.73-1.48-17.44-3.86-25.84-2.09-7.38-4.96-14.53-8.49-21.33-1.88-3.61-3.93-7.13-6.15-10.53-.96-1.47-1.94-2.92-2.95-4.35-.54-.76-1.09-1.52-1.65-2.27-.28-.37-.56-.75-.84-1.12-.2-.27-.4-.58-.63-.84-.16-.23-.35-.45-.52-.66-2.69-3.45-5.52-6.81-8.51-10-11.97-12.81-25.94-23.69-41.02-32.6-7.87-4.66-15.98-8.88-24.34-12.59-8.36-3.71-16.9-7.02-25.6-9.86-5.7-1.86-11.46-3.54-17.27-5.05-.14-.06-.27-.11-.4-.17-.91-.38-1.81-.75-2.72-1.12-2.17-.89-4.33-1.81-6.46-2.79-3.86-1.79-7.63-3.77-11.24-6.02l-.13-.08c-2.22-1.4-4.54-3.04-6.75-4.83-1.51-1.25-2.95-2.57-4.3-3.99-.02-.02-.05-.05-.07-.07-.91-.98-1.84-2.08-2.68-3.24-.58-.81-1.11-1.65-1.6-2.53-.4-.75-.76-1.52-1.07-2.31-.23-.63-.43-1.26-.6-1.91-.14-.59-.24-1.18-.31-1.78-.05-.51-.06-1.03-.06-1.54.02-.52.08-1.05.16-1.57.09-.49.21-.97.35-1.44.16-.48.34-.95.54-1.41.24-.5.5-.99.79-1.46.35-.54.72-1.06,1.12-1.56.48-.57,1-1.12,1.54-1.64.69-.64,1.42-1.24,2.18-1.8,1.09-.78,2.23-1.49,3.4-2.13,1.62-.87,3.31-1.62,5.03-2.29,1.59-.61,3.43-1.21,5.3-1.72.2-.05.37-.15.53-.27,14.54-2.86,28.9-6.72,42.83-11.78,14.12-5.13,27.84-11.37,40.8-18.99,13.65-8.02,26.48-17.51,37.71-28.67,10.14-10.07,19.06-21.61,25.69-34.44,7.11-13.76,11.54-28.99,12.18-44.5.34-8.3-.31-16.62-1.99-24.75-1.68-8.14-4.34-16.06-7.8-23.61-5.77-12.58-13.79-24.06-23.14-34.24-6.39-6.96-13.42-13.33-20.88-19.13l-.11-.09c-.08-.06-.17-.13-.25-.19,15.58-.03,31.17-.07,46.75-.13.88-.03,2.33.02,3.54-.15,1.06.23,2.33-.22,2.54-1.43.14-2.27.08-4.54-.05-6.81.02-.06.04-.12.05-.18.19-3.04.02-6.1-.21-9.15-.19-.96-.15-3.1-.57-4.76.38-.38.4-.95-.2-1.8-1.42-.86-3.33-.41-4.99-.61-3.74-.09-7.48-.12-11.23-.13-138.19-.07-276.38,0-414.58-.03-1.72,0-3.44-.02-5.16,0-.49,0-.94.17-1.29.42-.77.1-1.48.54-1.69,1.27-.27,2.64-.16,5.3-.07,7.96-.23,3.42.07,6.88.07,10.31.1,1.31-.18,2.72.52,3.93.21.31.53.54.9.67.38.39.94.65,1.57.66,16.3,0,32.6,0,48.91,0-.27.2-.54.39-.81.59-.99.74-1.96,1.49-2.93,2.26-1.76,1.39-3.5,2.82-5.2,4.29-3.29,2.85-6.47,5.83-9.52,8.94-5.54,5.65-10.65,11.75-15.18,18.24-4.7,6.73-8.81,13.92-12.04,21.47-2.69,6.29-4.88,12.81-6.35,19.49-1.73,7.85-2.57,15.88-2.41,23.92.17,8.73,1.48,17.44,3.86,25.84,2.09,7.38,4.96,14.53,8.49,21.33,1.88,3.61,3.93,7.13,6.15,10.53.96,1.47,1.94,2.92,2.95,4.35.54.76,1.09,1.52,1.65,2.27.28.37.56.75.84,1.12.2.27.4.58.63.84.16.23.35.45.52.66,2.69,3.45,5.52,6.81,8.51,10,11.97,12.81,25.94,23.69,41.02,32.6,7.87,4.66,15.98,8.88,24.34,12.59,8.36,3.71,16.9,7.02,25.6,9.86,11.6,3.78,23.43,6.83,35.4,9.18.14.09.29.18.46.22,1.87.51,3.71,1.11,5.3,1.72,1.72.67,3.4,1.42,5.03,2.29,1.18.65,2.31,1.35,3.4,2.13.76.56,1.49,1.16,2.18,1.8.54.52,1.05,1.06,1.54,1.64.4.5.78,1.02,1.12,1.56.29.47.55.96.79,1.46.2.46.39.93.54,1.41.14.47.26.95.35,1.44.08.52.13,1.04.16,1.57,0,.52-.01,1.03-.06,1.54-.07.6-.17,1.19-.31,1.78-.16.65-.37,1.28-.6,1.91-.31.79-.67,1.56-1.07,2.31-.49.87-1.02,1.71-1.6,2.53-.85,1.16-1.77,2.26-2.68,3.24-.02.02-.05.05-.07.07-1.35,1.42-2.79,2.74-4.3,3.99-2.21,1.79-4.53,3.44-6.75,4.83l-.13.08c-3.61,2.25-7.38,4.23-11.24,6.02-2.13.98-4.29,1.9-6.46,2.79-.45.18-.9.37-1.35.55-9.39,2.34-18.68,5.12-27.77,8.43-14.12,5.13-27.84,11.37-40.8,18.99-13.65,8.02-26.48,17.51-37.71,28.67-10.14,10.07-19.06,21.61-25.69,34.44-7.11,13.76-11.54,28.99-12.18,44.5-.34,8.3.31,16.62,1.99,24.75,1.68,8.14,4.34,16.06,7.8,23.61,5.77,12.58,13.79,24.06,23.14,34.24,5.05,5.49,10.5,10.6,16.23,15.36-12.85,0-25.69,0-38.54,0-1.72,0-3.44-.02-5.16,0-.49,0-.94.17-1.29.42-.77.1-1.48.54-1.69,1.27-.27,2.64-.16,5.3-.07,7.96-.23,3.42.07,6.88.07,10.31.1,1.31-.18,2.72.52,3.93.21.31.53.54.9.67.38.39.94.65,1.57.66,21.2,0,42.39,0,63.59,0,122.42-.14,244.85.27,367.27-.16.88-.03,2.33.02,3.54-.15,1.06.23,2.33-.22,2.54-1.43.14-2.27.08-4.54-.05-6.81.02-.06.04-.12.05-.18.19-3.04.02-6.1-.21-9.15ZM141.81,721.76c0-.43,0-.86-.03-1.29,0-.02,0-.04,0-.07,20.8,0,41.6,0,62.4,0,122.42-.14,244.85.27,367.27-.16.41-.01.94-.01,1.51-.02.06.7.17,1.39.16,1.9.07.85.13,1.74.18,2.64-.59,0-1.18.01-1.74-.05-3.74-.09-7.48-.12-11.23-.13-138.19-.07-276.38,0-414.58-.03-1.32,0-2.65,0-3.97,0,.07-.87.06-1.85.04-2.78ZM141.81,174.28c0-.43,0-.86-.03-1.29,0-.02,0-.04,0-.07,20.8,0,41.6,0,62.4,0,122.42-.14,244.85.27,367.27-.16.35-.01.79-.01,1.26-.02,0,.07.01.14.02.21.02.35.05.7.07,1.05.08,1.09.14,2.18.23,3.27-.5,0-1,0-1.47-.05-3.74-.09-7.48-.12-11.23-.13-138.19-.07-276.38,0-414.58-.03-1.32,0-2.65,0-3.97,0,.07-.87.06-1.85.04-2.78ZM141.77,165.92c20.8,0,41.6,0,62.4,0,122.42-.14,244.85.27,367.27-.16.35-.01.79-.01,1.26-.02,0,.07.01.14.02.21.02.35.05.7.07,1.05.06.86.12,1.72.18,2.58-.48,0-.96,0-1.42-.06-3.74-.09-7.48-.12-11.23-.13-138.19-.07-276.38,0-414.58-.03-1.32,0-2.65,0-3.98,0,.02-1.15.08-2.31,0-3.45ZM145.74,184.06c-1.32,0-2.65,0-3.97,0,.08-1.09.06-2.33.02-3.45,20.79,0,41.59,0,62.38,0,122.42-.14,244.85.27,367.27-.16.49-.02,1.16-.01,1.87-.03.04.4.08.79.13,1.19.01.09.03.18.05.28,0,.17.01.34.01.5.02.63.01,1.25,0,1.88-.66,0-1.32.02-1.95-.05-3.74-.09-7.48-.12-11.23-.13-138.19-.07-276.38,0-414.58-.03ZM174.75,696.4c-4.28-4.32-8.39-8.98-12.19-13.9-3.26-4.25-6.36-8.82-9.16-13.57h0c-.03-.05-.05-.1-.08-.14-2.46-4.25-4.72-8.73-6.68-13.34-1.8-4.31-3.33-8.72-4.58-13.22v-.02s-.03-.09-.04-.14c-1.11-4.14-1.99-8.44-2.59-12.79v-.02s-.01-.08-.02-.11c-.56-4.26-.85-8.64-.86-13.02.02-4.26.31-8.51.86-12.74.61-4.44,1.51-8.83,2.68-13.16,1.28-4.61,2.87-9.13,4.73-13.55l.02-.04s.03-.07.05-.11c1.9-4.43,4.12-8.8,6.6-13.04,2.86-4.83,6.02-9.47,9.45-13.91,3.86-4.95,8.04-9.65,12.49-14.08.18-.18.21-.21.23-.23.03-.03.06-.06.09-.08,4.99-4.92,10.33-9.53,15.9-13.86,6.95-5.33,14.25-10.17,21.81-14.58,8.62-4.98,17.7-9.45,27.03-13.38,10.71-4.48,21.93-8.3,33.34-11.45h.03c.06-.02.11-.04.16-.05,1.46-.4,2.93-.78,4.4-1.16.22-.08.44-.18.66-.27.4-.13.8-.24,1.2-.38,2.12-.74,4.2-1.57,6.26-2.47.86-.37,1.72-.76,2.54-1.14,4.47-2.06,8.82-4.42,12.93-7.15,2.87-1.91,5.62-4.01,8.13-6.37.71-.66,1.39-1.35,1.89-1.89,2.47-2.62,4.67-5.59,6.03-8.95,1.04-2.57,1.55-5.34,1.27-8.11-.23-2.3-1.05-4.5-2.26-6.47-.92-1.47-2.03-2.78-3.22-3.9-2.76-2.61-6.09-4.57-9.56-6.08-2.23-.97-4.53-1.78-6.86-2.47-.28-.08-.56-.16-.85-.24-.02,0-.04-.01-.06-.02-.18-.05-.37-.07-.55-.07-.06,0-.12.02-.17.02-.31-.14-.63-.28-.94-.42-.45-.09-.9-.18-1.35-.27-6.51-1.32-12.97-2.87-19.39-4.61-5.91-1.63-11.78-3.44-17.58-5.44-5.71-1.97-11.35-4.16-16.92-6.5-9.17-3.92-18.31-8.46-27.12-13.62-3.76-2.23-7.47-4.54-11.08-6.99-3.49-2.37-6.9-4.84-10.23-7.42-5.66-4.42-11.05-9.15-16.14-14.22-3.81-3.84-7.43-7.86-10.82-12.08-.4-.5-.8-1.01-1.2-1.52-.15-.19-.3-.41-.47-.6-.05-.06-.09-.13-.14-.19,0-.01-.02-.02-.03-.04-.02-.03-.05-.06-.07-.09h-.01s-.05-.08-.08-.11c-3.15-4.15-6.12-8.55-8.81-13.13-2.55-4.38-4.83-8.91-6.8-13.59-1.77-4.25-3.3-8.65-4.54-13.14-1.13-4.2-2-8.45-2.61-12.75-.59-4.42-.89-8.86-.9-13.31.02-4.33.32-8.64.88-12.93.62-4.45,1.53-8.85,2.71-13.19,1.27-4.53,2.83-8.97,4.66-13.31l.02-.04s.03-.07.04-.11c1.94-4.52,4.21-8.98,6.74-13.3,2.91-4.9,6.13-9.6,9.63-14.11,3.89-4.97,8.25-9.84,12.88-14.46,2.51-2.49,5.12-4.92,7.8-7.27,1.54-1.36,3.1-2.7,4.68-4.01.8-.66,1.6-1.32,2.4-1.98.24-.2.48-.39.72-.6.18-.16.36-.34.46-.57,0,0,0,0,0,0,.14-.27.19-.59.13-.89-.03-.15-.09-.28-.16-.4h12.02c104.88-.12,209.77.16,314.65-.02,1.32.98,2.64,1.96,3.93,2.96.13.1.25.19.37.29,5.54,4.32,10.99,9.11,16.1,14.25,4.28,4.32,8.39,8.98,12.19,13.9,3.26,4.25,6.35,8.82,9.15,13.58h0c.03.05.05.09.08.14,2.46,4.25,4.72,8.73,6.68,13.34,1.8,4.31,3.33,8.72,4.58,13.22v.02s.03.09.04.14c1.11,4.14,1.99,8.44,2.59,12.79v.02s.01.08.02.11c.56,4.26.85,8.64.86,13.02-.02,4.26-.31,8.51-.86,12.74-.61,4.44-1.51,8.83-2.68,13.16-1.28,4.6-2.87,9.13-4.73,13.55l-.02.04s-.03.07-.05.11c-1.9,4.43-4.12,8.8-6.6,13.04-2.86,4.83-6.01,9.47-9.45,13.91-3.86,4.95-8.04,9.65-12.49,14.08-.18.18-.21.21-.23.23-.03.03-.06.06-.09.08-4.99,4.92-10.33,9.53-15.9,13.86-6.95,5.33-14.25,10.17-21.81,14.58-8.62,4.98-17.7,9.45-27.02,13.38-10.71,4.48-21.93,8.3-33.34,11.45h-.03c-.05.02-.11.04-.16.05-6.53,1.77-13.13,3.32-19.78,4.65-.41.17-.82.31-1.23.46-.08.03-.16.06-.24.08-.03,0-.05,0-.08,0-.18,0-.37.03-.55.07-.02,0-.04.01-.06.02-.28.08-.57.16-.85.24-2.33.68-4.63,1.49-6.86,2.47-3.47,1.51-6.8,3.47-9.56,6.08-1.19,1.13-2.3,2.44-3.22,3.9-1.21,1.97-2.03,4.16-2.26,6.47-.28,2.77.23,5.54,1.27,8.11,1.36,3.36,3.56,6.33,6.03,8.95.51.54,1.19,1.23,1.89,1.89,2.51,2.36,5.26,4.46,8.13,6.37,4.11,2.73,8.45,5.08,12.93,7.15.83.38,1.68.77,2.54,1.14.76.33,1.52.64,2.28.95.91.39,1.8.79,2.7,1.2.03.01.06.03.08.04.46.2.92.4,1.38.6.26.12.51.24.76.36,1.54.39,3.07.8,4.6,1.22,5.91,1.64,11.78,3.44,17.58,5.44,5.71,1.97,11.35,4.16,16.92,6.5,9.17,3.92,18.31,8.46,27.12,13.62,3.76,2.23,7.47,4.54,11.08,6.99,3.49,2.37,6.9,4.84,10.23,7.42,5.66,4.42,11.05,9.15,16.14,14.21,3.81,3.84,7.43,7.86,10.82,12.08.4.5.8,1.01,1.2,1.52.15.19.3.41.47.6.05.06.1.13.15.19,0,.01.02.03.03.04.02.03.05.06.07.09h.01s.05.08.08.12c3.15,4.15,6.12,8.55,8.81,13.13,2.55,4.39,4.83,8.92,6.8,13.59,1.77,4.25,3.3,8.65,4.54,13.14,1.13,4.2,2,8.45,2.61,12.75.59,4.41.89,8.85.9,13.31-.03,4.33-.32,8.64-.89,12.92-.62,4.45-1.53,8.86-2.71,13.19-1.27,4.53-2.83,8.97-4.66,13.31l-.02.04s-.03.07-.04.11c-1.94,4.52-4.21,8.98-6.74,13.3-2.91,4.9-6.13,9.61-9.63,14.11-3.89,4.97-8.25,9.84-12.88,14.46-2.51,2.49-5.12,4.92-7.8,7.27-1.54,1.36-3.1,2.7-4.68,4.01-.18.15-.36.3-.54.44-111.65-.04-223.31-.02-334.96-.02-5.2-4.12-10.31-8.63-15.12-13.47ZM141.77,713.4c20.8,0,41.6,0,62.4,0,122.42-.14,244.85.27,367.27-.16.35-.01.79-.01,1.26-.02,0,.07.01.14.02.21.02.35.05.7.07,1.05.06.86.12,1.72.18,2.58-.48,0-.96,0-1.42-.06-3.74-.09-7.48-.12-11.23-.13-138.19-.07-276.38,0-414.58-.03-1.32,0-2.65,0-3.98,0,.02-1.15.08-2.31,0-3.45ZM571.55,731.69c-3.74-.09-7.48-.12-11.23-.13-138.19-.07-276.38,0-414.58-.03-1.32,0-2.65,0-3.97,0,.08-1.09.06-2.33.02-3.45,20.79,0,41.59,0,62.38,0,122.42-.14,244.85.27,367.27-.16.52-.02,1.25,0,2-.03.02.67.04,1.33.05,1.98.02.63.01,1.25,0,1.88-.66,0-1.32.02-1.95-.05Z"/>
    <path d="M548.08,690.82s.04.06.05.09c-.02-.03-.04-.06-.05-.09Z"/>
    <path d="M561.23,731.97l.04-.05s.05.09.07.13c-.04-.03-.08-.06-.11-.09Z"/>
  </g>
  <g>
    <path class="cls-5" d="M917.16,683.53c-2.07-1.75,6.52-3.43,7.57-3.59,1.28-.3-6.73-2.12-8.24-2.43-15.02-1.61-41.47,2.79-41.3-19.12.57-27.7-7.61-63.32-39.81-68.09-2.17-16.31-6.55-32.33-12.97-47.49,16.63-19.25,4.14-48.78-16.73-59.2-10.78-4.35-23.14-8.57-34.86-7.2-.5-.4-1.01-.8-1.51-1.2-.06-14.49-16.41-27.29-30.38-28.03-28.48-37.92-25.4-88.29-27.07-133.34,8.93,6.32,23.87,26.08,20.26,1.05-3.01-17.75-13-32.41-26.2-44.38-3.59-9.16-5.95-21.26-12.6-28.23-3.54-9.02-33.19-38.14-71.25-27.27-53.86,22.4-92.51,70.83-116.99,120.75-35.11,73.72-38.17,179.17-15.19,256.99-39.84,15.36-76.5,40-95.69,81.34-7,15.06-10,32.56-4.1,48.52,13.64,31.2,47.33,47.14,80.45,46.81,42.14-.43,82.29-23.28,108.4-55.15,34.29,15.41,51.42,20.56,79.07,25.41-3.44,10.31-14.39,16.49,3.92,18.96,18.28.9,79.75-1.99,92.21-1.74,10.41-.3-2.29-6.98-5.39-8.75,6.03-2.58,25.98,3.03,10.76-7.63,1.08-1.14,11.34-1.38,3.81-4.8s-24.94,1.19-35.63-4.87c31.98-11.94,63.73-28.84,85.86-55.45,3.89,5.57-1.38,10.73-4.05,15.6-11.57,21.07,58.63,3.92,101.25,8.36,1.78.18,4.73,1.08,4.72-1.78-2.19-3.24-7.38-3.92-10.12-7.04,4.74-2.53,24.48,2.24,11.83-7Z"/>
    <g>
      <path d="M753.64,371.92c-5,1.35-10.03,3.03-15.24,3.23,3.84-4.71,8.5-8.9,11.46-14.27,1.12-1.97.73-4.74-1.84-5.15-2.95-.38-5.74,1.11-8.47,2.03-1.58.74-5.64,1.75-6.12,3.47-.17.73.33,1.52,1.06,1.66,1.05.14,2-.51,2.98-.79,3.07-1,6.07-2.38,9.27-2.91-2.53,4.58-6.34,8.12-9.75,12.15-1.17,1.43-2.93,2.98-2.61,5.02.27,1.51,1.86,2.21,3.25,2.31,5.83.11,11.49-1.87,17.07-3.36,2.2-.77,1.18-3.99-1.07-3.38Z"/>
      <path d="M778.81,350.41c-2.35.83-4.72,1.66-7.14,2.28-2.22.53-4.66.9-6.86.09-2.67-1.28.06-5.57.93-7.39,1.62-3.13,3.23-6.27,4.65-9.5,2.69-5.96,7.74-18.8-3.99-16.55-2.46.52-4.89,1.17-7.34,1.76-1.4.35-2.82.7-4.22,1.09-1.13.42-3.35.61-3.7,1.96-.19,1.45,1.57,1.57,2.6,1.35,3.61-.55,7.16-1.39,10.73-2.18,1.78-.3,3.74-1.18,5.52-.52.6.61.31,1.69.27,2.47-1.35,6.78-4.87,12.88-7.92,19.01-2.92,4.86-3.75,11.4,3.41,12.37,2.49.36,5.01-.05,7.43-.7,2.27-.6,4.51-1.36,6.71-2.17.44-.16.81-.44,1.03-.86.76-1.32-.66-3.04-2.1-2.52Z"/>
      <path d="M795.75,316.99c-2.72.57-5.47,1.39-8.3.83,6.59-10.96,5.5-15.96-8.27-13.21-2.29,2.13.91,3.57,2.93,3.03,15.78-2.84-7.63,12.58,6.42,13.9,2.37-.28,9.43.19,9.28-3.12-.16-.91-1.12-1.66-2.06-1.43Z"/>
    </g>
    <g>
      <path class="cls-2" d="M606.49,321.5c-.61-.2-1.25,0-1.83.23-1.09.42-2.12.96-3.16,1.5-1.99,1.22-12.49,6.06-10.91,8.69.43.78,1.43.61,2.04.15.5.22,1.04.16,1.53-.05,1.21-.47,2.4-1.03,3.57-1.58,1.82-.84,3.63-1.69,5.41-2.61,1.51-.81,3.16-1.58,4.22-2.97.96-1.1.63-2.98-.88-3.36Z"/>
      <path class="cls-2" d="M678.92,307.94c0,5.02,19.39,8.7,20.99,4.06,1.6-4.64-20.99-9.08-20.99-4.06Z"/>
      <path class="cls-2" d="M642.43,437.37c-1.58,3.44-.51,15.69,3.63,16.96,6.2,1.35,7.86-10.57,5.38-14.48-.61-1.4-6.5-4.64-9.01-2.47Z"/>
      <path class="cls-2" d="M677.07,431.51c-3.89,1.66-7.63,13.63-3.23,16.23,7.35,2.26,14.1-16.25,3.23-16.23Z"/>
    </g>
    <g>
      <path class="cls-2" d="M819.42,518.96c-4.89-9.14-14.31-10.51-14.49-8.95-.06,1.8,1.33,13.71,3.7,13.85,2.8.08,12.54-2.77,10.79-4.9Z"/>
      <path class="cls-2" d="M763.09,501.25c-2.32-.51,3.09,10.86,6.46,13.32,2.27,1.56,9.89-3.97,11.14-5.8,3.71-5.52-.73-10.21-17.61-7.51Z"/>
      <path class="cls-2" d="M736.57,514c-4.13-1.36-27.7,7.14-23.8,12.02,3.9,4.87,15.02,10.66,18.79,9.23,3.77-1.42,9.14-19.89,5.01-21.25Z"/>
      <path class="cls-2" d="M678.21,548.2c-3.76,3.49-14.72,12.11-14.04,17.95.68,5.84,19.63,12.52,26.85,11.77,9.13.64-3.39-37.96-12.81-29.72Z"/>
      <path class="cls-2" d="M634.6,593.8c-.7-.35-13.67,14.64-15.98,17.68-7.84,10.23,19.88,12.75,35.33,5.73,1.14-1.57,2.4-14.91-19.36-23.41Z"/>
      <path class="cls-2" d="M594.06,644.1c-13.17,8.33-14.54,31.75-9.23,32.14,9.31.15,38.77-17.93,42.54-21.32,3.56-3.97-34.17-12.02-33.31-10.82Z"/>
      <path class="cls-2" d="M569.27,697.02c-2.1.19-29.67,22.01-25.87,25.23,2.4,3.18,23.72,21.2,31.86,24.24,7.05,1.84.7-49.28-5.99-49.47Z"/>
      <path class="cls-2" d="M513.03,745.15c-8.52-4.27-40.47,1.11-40.46,3.6-3.82,3.54,12.56,32.84,17.37,32.4,13.52,1.04,29.08-34.96,23.08-36.01Z"/>
      <path class="cls-2" d="M412.12,722.5c-2.17,6.02-18.11,30.53-11.38,39.11,5.72,5.87,35.79-8.7,37.61-10.7,2.86-4.93-25.38-30.37-26.23-28.4Z"/>
      <path class="cls-2" d="M413.5,686.03c2.37.08,12.94-22,13.55-25.32.61-3.32-15.68-19.76-18.73-16.36-7.11,9.9,3.62,41.54,5.18,41.68Z"/>
      <path class="cls-2" d="M476.19,601.1c-2.47-.3-20.07-6.26-25.23-7.02-9.68,3.1-11.69,32.41-11.24,33.91,1.95,3.44,37.38-26.76,36.46-26.89Z"/>
      <path class="cls-2" d="M460.16,558.11c.92,4.6,29.22,34.37,29.57,32.87.31-1.71-8.23-43.49-8.66-43.81-.33-2.04-21.24,8.91-20.91,10.94Z"/>
      <path class="cls-2" d="M479.43,540.09c1.51.95-1.23-40.45-4.41-39.99-4,2.3-18.06,12.85-17.6,13.61-2.84,2.57,16.99,22.48,22.02,26.38Z"/>
      <path class="cls-2" d="M477.08,495.9c-.17-2.12,1.13-36.3,1.63-43.85.1-2.18-14.49,2.46-19.42,5.68-5.92,4.72,17.58,39.62,17.79,38.17Z"/>
      <path class="cls-2" d="M479.83,441.57c.6-1.51,5.57-38.87,4.75-40.2-1.16-1.61-19.24,9.15-19.69,10.85-.1.72,14.25,30.79,14.93,29.35Z"/>
      <path class="cls-2" d="M512.98,297.65c-1.8.07-11.53-.11-10.65,6.22,0,2.67,1.48,33.2,2.87,33.57,1.68.44,2.54-1.38,3.09-2.64.76-1.6,19.28-35.18,19.02-36.15-.79-2.45-11.79-1.1-14.33-1Z"/>
      <path class="cls-2" d="M554.85,259.16c-2-.59-19.88-2.48-23.08-.15-2.64,5.16-3.37,33.52-2.44,33.89,2.37.97,18.48-21.69,25.63-29.56,1.33-1.2,1.87-3.31-.11-4.17Z"/>
      <path class="cls-2" d="M573.63,230.19c-13.6-9.7-12.98,20.95-12.22,21.95,2.2,2.25,15.05-11.38,19.59-15.5,3.83-4.01-4.82-5.54-7.37-6.45Z"/>
      <path class="cls-2" d="M608.71,219.86c2.1.01,20.09-6.41,22.69-7.05,3.46-.87-11.28-18.95-11.92-17.61-.7,1.25-10.69,18.79-11.73,20.89-.94,1.38-1.05,3.42.96,3.78Z"/>
      <path class="cls-2" d="M667.43,224.25c-2.74-10.01-10.9-32.11-12.08-31.41-.86.44-18.92,27.77-17.51,38.92.97,6.64,8.2,10.53,14.43,10.68,6,.31,18.89-7.79,15.16-18.19Z"/>
      <path class="cls-2" d="M499.98,348.18c-5.65,2.21-22.5,6.39-22.59,8.31.81,7.72,7.07,32.26,7.62,32.72,2.71,1.77,15.96-41.21,14.97-41.03Z"/>
    </g>
    <g>
      <path d="M681.47,430.14c-.13-.23-.31-.44-.55-.58-.42-.25-.86-.48-1.33-.62-.85-.25-1.71-.3-2.58-.16-1.22.19-2.34.81-3.29,1.57-.59.47-1.1,1.03-1.57,1.61-.33.42-.62.85-.86,1.23-.02.03-.04.07-.06.1l-.02.03c-.3.51-.57,1.03-.78,1.5-.02.04-.04.08-.05.12l-.02.04c-1.04,2.44-1.48,5.14-1.17,7.77.13,1.02.37,2.01.75,2.96.64,1.51,1.66,2.9,3.15,3.67.79.41,1.66.61,2.53.61.62,0,1.24-.1,1.83-.29,1.66-.54,3.01-1.72,4.07-3.07,1.28-1.65,2.12-3.64,2.57-5.67.22-.99.33-2,.36-3.01.03-1.92-.29-3.85-1.18-5.56-.44-.85-1.06-1.64-1.82-2.26ZM680.86,439.2c-.09.56-.21,1.11-.36,1.66-.15.51-.33,1-.53,1.49-.19.42-.4.84-.64,1.25-.2.32-.41.63-.64.93-.19.24-.4.47-.61.69-.18.17-.36.33-.55.48-.16.12-.33.23-.5.34-.15.08-.3.15-.45.22-.12.05-.25.09-.38.13-.11.03-.22.05-.33.06-.09,0-.19.01-.28.01-.08,0-.17,0-.25-.02-.08-.01-.16-.03-.24-.05-.09-.03-.17-.06-.26-.09-.08-.04-.16-.08-.24-.12-.08-.05-.15-.1-.23-.16-.1-.08-.2-.17-.29-.26-.1-.1-.19-.21-.28-.32-.1-.15-.21-.3-.3-.45-.11-.21-.21-.42-.31-.63-.11-.29-.21-.58-.29-.88-.1-.4-.17-.8-.22-1.2-.05-.42-.06-.84-.07-1.26.01-.53.05-1.07.12-1.6.08-.55.21-1.09.35-1.63.14-.48.31-.96.51-1.43.2-.44.42-.87.66-1.29.19-.3.39-.6.61-.88.2-.25.41-.48.63-.71.19-.18.38-.35.58-.5.15-.11.31-.22.47-.31.15-.08.29-.15.44-.22.12-.05.25-.09.37-.13.1-.02.21-.05.31-.06.09,0,.19-.01.28-.02.09,0,.19.01.28.02.08.02.17.03.25.05.08.03.16.05.23.08l.18.08c.17.1.35.19.54.24,0,0,.01,0,.02.01.1.11.2.23.3.34.12.16.23.33.33.5.11.21.22.43.31.65.11.29.21.58.29.88.09.37.16.75.21,1.13.06.48.08.96.08,1.44-.01.51-.06,1.02-.12,1.53Z"/>
      <path d="M641.88,452.22c1.06,1.35,2.41,2.53,4.07,3.07.6.19,1.21.29,1.83.29.87,0,1.74-.2,2.53-.61,1.49-.77,2.51-2.16,3.15-3.67.38-.96.62-1.94.75-2.96.31-2.64-.13-5.33-1.17-7.77l-.02-.04s-.04-.08-.05-.12c-.21-.47-.48-.99-.78-1.5l-.02-.03s-.04-.06-.06-.1c-.23-.38-.53-.81-.86-1.23-.47-.59-.98-1.14-1.57-1.62-.95-.76-2.07-1.38-3.29-1.57-.88-.14-1.73-.08-2.58.16-.47.14-.91.37-1.33.62-.24.14-.42.35-.55.58-.76.61-1.38,1.41-1.82,2.26-.89,1.72-1.2,3.64-1.18,5.56.02,1.01.13,2.02.36,3.01.45,2.03,1.29,4.02,2.57,5.67ZM642.51,441.81c.05-.38.12-.75.21-1.13.08-.3.18-.59.29-.88.1-.22.2-.44.31-.65.1-.17.21-.34.33-.5.1-.12.19-.23.3-.34,0,0,.01,0,.02-.01.18-.05.36-.14.54-.24l.18-.08c.08-.03.15-.06.23-.08.08-.02.17-.04.25-.05.09-.01.19-.02.28-.02.09,0,.19,0,.28.02.11.02.21.04.32.06.13.04.25.08.37.13.15.07.3.14.44.22.16.1.31.2.47.31.2.16.4.33.58.5.22.23.43.46.63.71.22.28.42.58.61.88.25.42.47.85.66,1.29.2.47.36.94.51,1.43.15.53.27,1.08.35,1.62.07.53.11,1.06.12,1.6,0,.42-.02.84-.06,1.26-.05.4-.13.81-.22,1.2-.08.3-.18.59-.29.87-.09.21-.19.43-.31.63-.09.16-.19.31-.3.45-.09.11-.18.22-.28.32-.09.09-.19.18-.29.26-.08.06-.15.11-.23.16-.08.04-.16.08-.24.12-.08.03-.17.06-.26.09-.08.02-.16.04-.24.05-.08,0-.17.02-.26.02-.09,0-.19,0-.28-.01-.11-.02-.22-.04-.33-.06-.13-.04-.25-.08-.38-.13-.15-.07-.3-.14-.45-.22-.17-.11-.34-.22-.5-.34-.19-.15-.37-.31-.55-.48-.22-.22-.42-.45-.61-.69-.23-.3-.44-.61-.64-.93-.23-.4-.45-.82-.64-1.25-.2-.49-.38-.99-.53-1.49-.15-.55-.27-1.1-.36-1.66-.07-.51-.11-1.02-.12-1.53,0-.48.03-.96.08-1.44Z"/>
      <path d="M691.94,315.86c4.18,1.37,11.89-1.03,9.24-6.54.48-2.74-3.47-2.32-5.19-2.97-3.87-.85-7.75-1.7-11.63-2.51-3.97-1.18-8.75.14-7.84,5.14,2.15,5.32,10.52,5.63,15.42,6.88ZM680.21,307.12c5.95-.03,11.77,2.35,17.67,3.22.87,1.72-.92,2.15-2.31,2.32-2.21-.01-17.36-2.2-15.35-5.54Z"/>
      <path d="M591.75,334.57c5.63-.12,11.22-2.69,15.56-6.2,5.74-4.49,2.55-10.53-4.46-7.77-2.51,1.13-16.41,5.94-15.09,8.93-1.73,2.43,1.61,5.11,3.99,5.04ZM600.06,325.53c2.13-.85,4.31-2.13,6.67-2.03-2.73,4.5-9.14,6.76-14.2,7.54-.67,0-1.61.03-1.9-.71,2.89-2.04,6.25-3.32,9.44-4.81Z"/>
      <path d="M528.81,335.28c13.62-.73,35.85-22.59,43.06-33.89.53-.81.16-1.95-.64-2.42-1.37-.82-2.46.48-3.05,1.6-7.32,10.29-16.51,18.92-27.14,25.98-3.5,1.96-9.09,6.21-13.16,4.87,1.01-5.83,4.99-10.78,7.95-15.8,6.29-9.51,14.22-17.82,22.89-25.19,1.5-.92.87-3.41-.96-3.17-1.37.38-2.32,1.59-3.43,2.42-5.45,4.67-10.78,10.04-15.34,15.69-4.82,5.99-9.07,12.44-12.56,19.3-2.04,3.83-4.14,10.2,2.4,10.61Z"/>
      <path d="M688.86,345.45c2.61-1.19,16.08-8.6,14.8-11.55-.56-1.4-2.29-1.23-3.16-.24-6.72,5.65-14.55,10.29-23.3,11.79-1.96.34-3.94.54-5.93.64-1.18-.1-2.86.25-2.84,1.78-.42,4.69,18.17-.96,20.43-2.42Z"/>
      <path d="M589.03,351c-.36.87.04,1.97.94,2.32,1.73.67,3.51,1.2,5.3,1.67,3.9,1.03,7.89,1.7,11.92,1.95,3.75.26,7.54.21,11.29-.14,3.13-.4,6.43-.65,9.33-1.95,1.4-.7,1.36-2.8-.3-3.05-1.58.03-3.1.63-4.67.84-2.48.44-4.98.71-7.49.84-8.07.4-16.29-.6-24-3.41-.88-.37-1.96.05-2.32.94Z"/>
      <path d="M927.06,678.02c-1.1-1.04-2.71-1.19-4.11-1.6-2.69-.63-5.42-.99-8.17-1.21-8.13-.8-16.4-.13-24.43-1.79-4.48-.91-9.08-2.37-10.36-7.29-.93-2.82-1.3-5.78-1.61-8.72-.53-4.94-.88-9.9-1.52-14.84-1.12-8.44-2.88-16.82-5.85-24.82-6.66-18.03-19.81-27.9-35.94-29.66-.49-3.39-1.07-6.77-1.77-10.12-.49-2.36-1-4.72-1.57-7.06-.58-2.32-1.16-4.65-1.83-6.95-1.4-4.77-2.93-9.51-4.69-14.16-.79-2.09-1.63-4.17-2.49-6.24.75.45,1.77.29,2.31-.42.58-.76,1.14-1.54,1.67-2.34,1.54-2.32,2.8-4.82,3.68-7.47.8-2.4,1.24-4.91,1.44-7.43.24-3.12.21-6.29-.22-9.4-.41-3-1.1-5.97-2.05-8.85-1.24-3.74-2.91-7.38-5.14-10.64-1.02-1.49-2.24-2.85-3.51-4.13-1.42-1.44-2.93-2.8-4.5-4.08-8.2-6.68-18.1-11.23-28.49-13.16-3.66-.68-7.37-1.09-11.08-1.34-1.89-.12-3.78-.2-5.68-.25.08-2.58-.99-6.1-1.63-7.33-1.66-3.77-4.29-7.01-7.12-9.97-5.13-5.52-11.91-9.43-19.27-11.06-1.85-.31-3.83-.73-5.72-.57-.6-.83-1.21-1.66-1.79-2.51l-.19-.28c-.04-.06-.08-.12-.13-.19-1.13-1.69-2.29-3.55-3.38-5.45-1.09-1.91-2.12-3.85-3.11-5.81-1.09-2.19-2.13-4.4-3.07-6.66-.96-2.29-1.83-4.61-2.64-6.95-2.06-5.96-3.72-12.28-5.06-18.68-2.39-11.79-3.8-23.75-4.63-35.75-.5-7.63-.73-15.27-.9-22.92-.06-3-.14-6-.2-9,.04-.34.08-.69.11-1.03.03-.34-.03-.67-.16-.96-.1-4.4-.22-8.8-.35-13.2,2.18,2.19,4.4,4.35,6.55,6.56,3.07,2.72,5.98,5.69,9.82,7.49,13.37,3.13,2.32-27.43-.49-32.73-4.54-9.51-10.36-18.81-18.08-26.05-1.15-.97-2.4-1.79-3.64-2.64-.35-.25-.69-.52-1.06-.71-.3-.91-.61-1.82-.93-2.73-.57-1.66-1.24-3.54-1.92-5.4-.7-1.91-1.42-3.81-2.23-5.67-.64-1.47-1.33-2.92-2.03-4.36-.55-1.13-1.09-2.26-1.62-3.39-.46-.98-.89-1.98-1.4-2.94-.3-.57-.92-.87-1.54-.87.02-.19.02-.38,0-.57-.07-.59-.39-1.17-.7-1.67-.39-.64-.83-1.25-1.3-1.83-1.46-1.82-3.06-3.52-4.72-5.15-1.72-1.7-3.51-3.33-5.33-4.93-2.7-2.38-5.51-4.72-8.39-6.96-2.16-1.68-4.34-3.33-6.59-4.88,0,0,0,0-.01,0-.34-1-.67-2.01-.99-3.01-2.11-6.36-4.13-12.74-6.15-19.13-.44-1.41-.86-2.82-1.35-4.22-.2-.65-.52-1.64-1.29-1.91-1.49-.67-2.96,1.06-2.22,2.46-3.81,6.2-7.19,12.73-10.68,19.16-1.08,0-2.16.02-3.23.08-1.99.11-3.98.28-5.95.54-.57-.98-1.36-1.95-1.7-2.77-2.26-3.72-4.51-7.48-7.27-10.85-1.92-2.64-6.13-5.53-8.57-1.9-2.57,3.48-4.49,7.4-6.44,11.25-.84,2.04-5.49,10.44-6.02,14.26-.25.13-.51.25-.76.38-2.48,1.27-4.92,2.63-7.31,4.07-2.42,1.46-4.83,2.95-7.17,4.55-2.24,1.52-4.44,3.1-6.6,4.73,0-.52-.19-1.04-.67-1.39-4.56-3.19-10-6.96-15.86-5.81-4.2,1.55-3.63,7.14-4.51,10.77-.43,2.95-.84,5.91-1.14,8.88-.07,2.41-.79,5.11.03,7.42-1.62,1.68-3.22,3.38-4.79,5.1-6.65-2.21-18.76-4.91-24.54-.48-3.2,2.97-2.48,10.93-3.15,15.22-.26,3.64-.46,7.28-.57,10.96.23,2.02-.87,7.39.46,8.59.31.25.63.34.95.32-.61.92-1.21,1.84-1.8,2.76-3.25-.66-6.56-1.02-9.87-1.26-4.83-.19-12.33-1.05-15.95,2.77-.99,1.13-1.22,2.66-1.17,4.11.06,2.85.28,5.69.46,8.53.38,6.01.86,12.2,1.65,18.22.3,2.19.6,4.39,1.1,6.54.19.67.25,1.5.86,1.94.09.07.2.1.3.15-1.49,3.21-2.92,6.45-4.3,9.7-5.74-.2-11.39,1.29-16.83,3.01-5.67,1.75-9.26,4.98-7.25,11.25,2.43,10.89,5.43,21.84,8.78,32.52-.47,2.17-.92,4.34-1.34,6.52-6.66,1.94-19.42,4.23-20.45,12.34-.23,3.48,1.92,6.42,3.35,9.44,2.09,4.08,4.29,8.17,6.54,12.17,1.22,2.15,2.44,4.29,3.73,6.4.34.5.65,1.12,1.12,1.51-.22,2.43-.43,4.86-.62,7.29-2.25.42-4.48.97-6.67,1.64-4.92,1.7-15.4,4.4-15.29,10.87,1.28,4.55,3.82,8.29,6.04,12.56,4.12,7.38,8.56,14.6,13.25,21.63.23.43.61.63,1.01.69.01.71,0,1.42.02,2.12-6.91,3.11-16.59,7.52-20.03,14.22-1.84,4.27,2.5,7.52,4.95,10.42,5.84,6.27,11.62,12.77,18.17,18.29.12.06.24.1.36.13.12.88.25,1.75.37,2.62-1.5.19-2.95,1.26-4.37,1.72-9.98,4.88-24.18,9.43-11.8,21.56,7.05,8.48,14.44,16.75,23.26,23.44-1.87.64-3.69,1.48-5.49,2.18-3,1.3-5.95,2.71-8.87,4.16-4.37-1.49-8.75-2.93-13.15-4.31-3.43-1.08-7.39-2.89-10.69-.51-5.87,3.95-8.15,11.17-9.28,17.84-.44,2.67-.81,5.36-1.03,8.06-7.01,5.26-13.71,10.93-19.98,17.05-2.15,2.07-4.27,4.28-6.35,6.61-3.49-.7-6.27,2.19-6.82,6.31-.12.81-.22,1.62-.3,2.43-19.88,26.74-31.1,63.8-5.93,89.98.59.63,1.18,1.24,1.78,1.85-1.43,3.57-2.81,7.19-3.52,10.96-1.11,5.82,2.94,11.26,9.05,11.12,6.31-.05,12.23-2.46,18.07-4.84,13.88,7.25,29.49,11.41,44.84,12,.35,0,.69,0,1.04,0,3.4,0,6.79-.15,10.18-.44.04.07.08.13.11.2,2.46,4.17,5.09,9.35,10.46,9.97,7.17,1.36,12.11-5.32,15.41-10.71,1.12-1.79,2.14-3.63,3.1-5.5,7.26-2.43,14.31-5.5,21-9.17,9.55-5.63,18.57-12.08,27.03-19.21,5.46,4.19,11,8.47,17.39,10.91,9.48,1.51,3.93-25.3,3.12-30.78.8-.9,1.61-1.8,2.41-2.71,4.69,2.66,9.51,5.1,14.42,7.32,8.41,3.79,17.04,7.1,25.85,9.81,5.98,1.84,12.04,3.46,18.17,4.72,5.92,1.22,11.91,2.09,17.91,2.79.14.02.27.03.41.05-.23,2.17-1.97,4.01-3.3,5.66-1.11,1.37-2.1,2.8-2.89,4.38-4.62,7.96,4.79,11.1,11.13,11.46,7.42.26,14.82-.53,22.23-.8,15.28-.77,30.57-1.69,45.87-1.48,6.1.09,12.2.25,18.31.27,2.98,0,5.97.08,8.94-.14,1.43-.12,2.92-.3,4.13-1.15,1.33-.9,1.57-2.9.54-4.13-.58-.73-1.43-1.15-2.24-1.56-1.63-.84-3.3-1.6-4.94-2.43,1.79.07,3.58.12,5.38.14,2.54,0,5.43.29,7.55-1.4,1.4-.96,1.53-3.11.09-4.1-1.57-1.21-3.64-1.56-5.23-2.77,2.56-.6,11.93-.87,8.76-5.39-1.1-1.04-2.71-1.19-4.11-1.6-2.69-.63-5.42-.99-8.17-1.21-8.13-.8-16.4-.13-24.43-1.79-1.63-.33-3.27-.74-4.77-1.35,6.4-2.38,12.74-5,18.99-7.86,4.23-1.94,8.42-3.98,12.53-6.17,3.9-2.08,7.73-4.26,11.51-6.55,7.94-4.8,15.64-10.03,22.73-16.02,3.89-3.29,7.69-6.68,11.27-10.31,1.82-1.84,3.56-3.76,5.23-5.75.39.9.69,1.81.86,2.73.48,2.72-1.69,4.95-3.26,6.91-1.11,1.37-2.1,2.8-2.89,4.38-4.62,7.96,4.79,11.1,11.13,11.46,1.02.04,2.05.05,3.07.05,6.39,0,12.78-.62,19.16-.86,15.28-.77,30.57-1.69,45.87-1.48,6.1.09,12.21.25,18.31.27.64,0,1.29,0,1.94,0,2.34.01,4.67.02,7-.14,1.43-.12,2.92-.3,4.13-1.15,1.33-.9,1.57-2.9.54-4.13-.58-.73-1.43-1.15-2.24-1.56-1.63-.85-3.3-1.6-4.94-2.43,1.79.08,3.58.12,5.38.14.34,0,.69,0,1.03,0,2.27.03,4.68.05,6.52-1.41,1.4-.96,1.53-3.11.09-4.1-1.57-1.21-3.64-1.56-5.22-2.77,2.56-.6,11.93-.87,8.76-5.39ZM736.01,448.35c.25-.06.52-.1.8-.14.85.09,1.71.11,2.53.29,1.29.2,2.79.49,4.26.9,3.36.95,6.57,2.34,9.52,4.21,6.07,3.98,13.44,11.59,14.44,19.03.05.46.06.92.01,1.38-.93,0-1.85.01-2.78.05-1.35.06-2.7.17-4.05.3-3.05.29-6.1.72-9.13,1.22-2.31.38-4.61.83-6.89,1.34,1.27-3.2-1.05-6.28-4.63-5.81-4.78,1.23-9.33,3.24-14.22,4.11,2.34-2.01,4.97-3.74,7.04-6.04,1.2-1.29.76-3.5-1.16-3.68-1.59-.07-3.06.72-4.54,1.18-3.79,1.33-7.59,2.64-11.52,3.53,3.69-3.04,7.62-5.77,11.35-8.76,1.23-1.08,2.8-2,3.46-3.55.64-1.68-.77-3.23-2.47-3.17-4.41.31-8.68,1.57-13.12,1.78,6.47-3.9,13.64-6.82,21.09-8.15ZM715.91,283.71c4.7,6.51,8.5,13.64,11.28,21.18,1.88,5.47,5.56,16.18,3.23,21.58-2.67.52-11.11-8.36-13.29-10.49-1.6-1.62-3.23-3.2-4.98-4.65-.13-.1-.26-.21-.39-.31-.01-.31-.02-.63-.03-.95-.24-6.89-.58-13.78-1.49-20.62-.74-5.52-1.98-10.94-3.53-16.28,3.69,2.88,6.46,6.78,9.2,10.54ZM644.86,214.4c3.65-6.51,7.09-13.14,10.81-19.61,2.78,8.98,5.72,17.91,8.67,26.83.7,2.14,1.38,4.28,1.85,6.48.23,1.22.47,2.41.22,3.68-.54,2.09-2.2,3.71-3.72,5.15-2.31,2.13-5.34,3.18-8.45,3.34-3.54.17-7.39.14-10.41-1.95-4.03-2.65-6.22-8.2-4.65-12.83,1.52-3.87,3.7-7.39,5.68-11.09ZM609.56,215.83c3.19-6.59,5.97-13.29,10.4-19.29,0,0,0,0,0,0,0,0,0,0,0,0,4.47,2.94,6.57,8.09,9.56,12.51.39.46.72,1.15,1.06,1.86-1.67.31-3.33.66-4.98,1.08-2.37.61-4.71,1.33-7.02,2.12-3.43,1.18-6.78,2.6-10.07,4.14.36-1.01.69-1.94,1.03-2.42ZM563.43,250.36c.26-3,.66-5.98,1.08-8.96.39-2.77.77-5.54,1.32-8.29.46-3.21,1.26-3.41,4.33-2.77-.03,0-.06-.01-.1-.02,2.87.6,5.41,2.18,7.82,3.78-.02-.01-.03-.02-.05-.03-.05-.03-.1-.07-.15-.1.89.48,1.69,1.42,2.69,1.69-1.1.87-2.2,1.74-3.27,2.64-2.17,1.81-4.3,3.67-6.4,5.56-2.15,1.93-4.23,3.94-6.3,5.96-.36.35-.72.72-1.07,1.08.02-.19.04-.37.08-.54ZM530.85,283.19c.24-4.96.55-9.86,1.05-14.81.53-2.41-.14-5.73,1.83-7.5,5.16-2.51,13.59-.72,19.33.95-.2.22-.4.44-.59.66-3.79,4.28-7.43,8.7-10.94,13.22-3.88,5-7.56,10.16-11.1,15.41.25-2.64.3-5.29.42-7.93ZM504.15,313.6c-.18-2.71-.35-5.42-.51-8.13,0-1.72-.49-3.61.12-5.25,2.78-2.57,9.65-1.74,13.28-1.62,2.61.18,5.26.48,7.89.93-.32.5-.65,1-.97,1.51-2.6,4.14-5.12,8.35-7.51,12.62-2.38,4.26-4.71,8.56-6.9,12.92-1.18,2.34-2.38,4.78-3.56,7.26-.27-2.87-.61-5.74-.91-8.61-.39-3.89-.66-7.72-.93-11.63ZM481.6,369.81c-.37-2.88-4.2-12.57-1.74-14.13,4.79-3.26,11.18-4.27,16.86-5.06.62-.04,1.23-.06,1.85-.07-1.92,4.68-3.72,9.41-5.41,14.18-1.75,4.96-3.35,9.98-4.82,15.03-.72,2.47-1.39,4.95-2.02,7.44-1.63-5.78-3.25-11.57-4.72-17.4ZM475.42,485.25c-.03,2.13-.04,4.27-.04,6.4-1.4-2.45-3.15-4.79-4.44-7.26-3.46-5.6-6.77-11.3-9.8-17.14-.57-1.68-2.78-4.4-2.36-6.21,3.99-4.84,11.97-6.25,17.8-7.87.08-.02.16-.04.25-.06-.08,1.06-.16,2.12-.23,3.18-.31,4.71-.56,9.42-.75,14.14-.2,4.94-.36,9.87-.42,14.81ZM469.69,528.63c-1.8-2.27-11.97-11.7-11.18-13.61,2.31-5.21,11.05-9.48,17.07-12.19.18,5.15.44,10.29.83,15.43.41,5.34.93,10.67,1.54,16,.12,1.09.27,2.18.4,3.27-2.85-2.97-5.84-5.9-8.66-8.89ZM478.22,437.01c-1.09-1.97-2.18-3.94-3.25-5.91-1.79-3.3-3.52-6.56-5.24-9.9.03.07.07.13.11.2-1.15-2.97-4.41-6.37-2.99-9.74,3.07-4.35,10.37-5.97,15.86-7.45-1.19,6.58-2.18,13.2-3.03,19.83-.55,4.31-1.03,8.64-1.46,12.96ZM479,499.23c-.11-5.08-.11-10.16-.02-15.24.17-9.12.55-18.23,1.13-27.33v-.12s0-.04,0-.06c.02-.33.05-.67.07-1.01.07-1.07.16-2.14.24-3.2.47-.32.75-.81.69-1.61-.05-.42-.24-.74-.5-.98.61-7.74,1.37-15.49,2.33-23.21,1.16-9.37,2.57-18.71,4.42-27.97.09-.45.19-.89.29-1.34,0,0,.01,0,.02,0,1.3-.57.96-1.87.62-2.96.83-3.69,1.73-7.35,2.75-10.99,1.54-5.52,3.26-10.98,5.13-16.4,4.46-12.65,9.79-25.22,15.9-37.42.18-.35.42-.84.67-1.33,1.6-3.13,3.25-6.28,4.96-9.4,1.58-2.89,3.22-5.74,4.89-8.58,2.02-3.42,4.11-6.8,6.26-10.14.41-.17.74-.51.92-1.11.04-.13.05-.27.06-.41,1.22-1.88,2.45-3.75,3.7-5.62,3.13-4.6,6.35-9.13,9.73-13.55,3.72-4.86,7.61-9.58,11.64-14.19l.07-.08s.02-.02.03-.03c3.28-3.7,6.65-7.33,10.15-10.86,3.34-3.37,6.8-6.62,10.36-9.77,2.7-2.35,5.45-4.63,8.28-6.82,2.43-1.88,4.93-3.66,7.46-5.39,2.45-1.63,4.94-3.21,7.48-4.7,2.53-1.49,5.11-2.89,7.72-4.24,2.14-1.07,4.3-2.1,6.5-3.05,2.15-.93,4.32-1.78,6.52-2.57,1.76-.6,3.53-1.17,5.32-1.67,1.73-.49,3.48-.9,5.24-1.28,1.75-.35,3.51-.65,5.28-.88,1.43-.19,2.87-.31,4.31-.42.67-.04,1.35-.07,2.02-.09-.34.62-.68,1.23-1.03,1.85-2,4.01-4.85,7.84-5.4,12.39-.63,7.37,4.7,14.67,12.06,15.94,4.02.65,8.28.59,12.19-.62,4.08-1.47,7.54-4.61,9.64-8.38,1.16-2.27.99-4.91.46-7.33-.38-1.7-.86-3.38-1.37-5.04.75.56,1.49,1.13,2.24,1.71,3.19,2.48,6.31,5.07,9.35,7.74,2.9,2.56,5.74,5.21,8.33,8.11.69.79,1.37,1.6,1.97,2.46.13.2.26.41.38.62.1.22.21.44.39.62.22.22.5.35.79.39-.1.44-.01.88.2,1.28.03.06.07.12.09.18.24.48.48,1,.72,1.52,1.12,2.43,2.33,4.81,3.44,7.25,1.82,4,3.27,8.16,4.72,12.31,1.94,5.61,3.64,11.32,4.85,17.14,1.09,5.44,1.7,10.96,2.08,16.49,0,.02,0,.09,0,.15,0,.01,0,.03,0,.04.35,5.4.51,10.83.67,16.26.14,4.84.26,9.69.37,14.54-2.53,18.15-6.08,36.22-6.66,54.58-1.06,30.54-2.44,72.02-32.81,88.48-20.8,10.92-39.08-2.71-52.65-18.16-19.12-22.22-30.45-50.44-39-78.28-.75-2.79-1.51-5.61-2-8.46,0-.72-.49-1.37-1.19-1.56-4.6-.85.09,10.7.47,13.2,10.18,34.11,36.84,96.7,77.12,100.75,22.58.75,39.37-18.35,45.79-38.43,7.29-20.31,7.08-42.32,8.13-63.63.64-9.43,1.91-18.81,3.33-28.16.17,4.53.39,9.06.72,13.59.63,8.77,1.59,17.53,3.03,26.21.73,4.39,1.56,8.77,2.58,13.1,1.17,4.94,2.56,9.82,4.22,14.61.81,2.34,1.68,4.67,2.64,6.95.92,2.17,1.9,4.32,2.95,6.42,1.09,2.18,2.22,4.34,3.44,6.45,1.16,2.01,2.39,3.97,3.69,5.9l.02.02s.06.09.09.14c.24.35.49.71.73,1.06-7.08,1.17-13.75,4.16-19.98,7.73-1.21.77-2.5,1.53-3.27,2.77-1,1.5-.09,3.42,1.64,3.74,4.39.64,8.84-.61,13.18-1.25-4.5,3.69-9.47,6.83-13.69,10.85-1.15,1.18-1.53,3.25.12,4.17,2.88,1.51,10.9-1.72,14.14-2.67-1.75,1.59-4.05,2.85-5.11,5.03-.61,1.55.77,3.07,2.33,3.1.02,0,.03,0,.05,0,4.01,0,7.89-1.39,11.7-2.52,1.93-.58,3.82-1.31,5.76-1.87.42-.13.91-.12,1.26.18.08.39-.11.77-.24,1.13-.24.67-.08,1.26.28,1.68-2.4.61-4.78,1.28-7.15,2-1.6.49-3.19,1.01-4.77,1.56-.08.03-.17.06-.25.09-.06.02-.13.04-.19.06-.02,0-.04.01-.06.02-.03,0-.06.02-.09.03-1.63.57-3.25,1.16-4.86,1.78-2.99,1.16-5.94,2.42-8.85,3.75-6.15,2.82-12.18,5.92-18.08,9.23-6.04,3.38-11.98,6.91-17.81,10.64-1.34.86-2.67,1.72-3.99,2.59-.74.49-1.49.98-2.22,1.48-.36.24-.72.48-1.07.72-.11.07-.22.15-.33.22-.14.09-.28.19-.42.28-.08.06-.17.11-.25.17-.05.03-.09.06-.14.09-4.69,3.16-9.28,6.47-13.81,9.86-11.27,8.43-22.33,17.15-33.23,26.06-11.08,9.05-22.05,18.25-32.77,27.71-.24.21-.66.58-1.07.94-5.37,4.73-10.86,9.67-16.28,14.69-10.48,9.69-20.67,19.72-31.38,29.17,0,0-.04.04-.08.07l-.07.06c-.31.28-.66.58-1.01.89l-.05.05s-.02.02-.04.03c-7.76,6.75-15.77,13.24-24.28,19.07-.57.38-1.16.76-1.73,1.14-1.96-3.49-3.87-7.01-5.68-10.58-.15-.3-.3-.59-.45-.89l-.02-.04s-.04-.07-.06-.11c-2.55-5.15-5.02-10.43-7.29-15.78-2.16-5.1-4.15-10.28-5.98-15.5-4-11.58-7.18-23.44-9.63-35.44-1.61-7.99-2.91-16.1-3.95-24.25-1.04-8.16-1.86-16.33-2.44-24.53v-.12s0,0,0-.02c-.34-5.2-.59-10.42-.71-15.64ZM479.72,581.12c-4.26-4.19-8.22-8.68-12.08-13.23-1.43-2.19-7.18-6.93-5.62-9.39,2.75-4.48,12.53-7.89,17.77-10.28.04.28.08.55.12.83,1.5,9.81,3.4,19.56,5.87,29.17.94,3.66,1.95,7.3,3.02,10.92-.3-.24-.59-.47-.85-.71-2.82-2.34-5.61-4.74-8.24-7.31ZM441.8,615.43c1.04-7.19,2.26-16.44,9.44-20.12,2.36-.4,4.63.95,6.87,1.52,4.78,1.5,9.53,3.1,14.29,4.63.44.07.9.25,1.36.44-9.95,8.27-19.67,16.9-30.52,24.01-.64.45-1.26.84-1.93,1.28-.06-.88-.1-1.77-.12-2.66-.02-3.05.25-6.08.61-9.11ZM410.36,645.71c3.73.19,11.64,11.04,15.03,13.89.09.11.2.21.31.29-1.23,2.3-2.08,4.82-3.14,7.19-1.03,2.47-2.03,4.96-3.04,7.44-1.34,3.12-2.23,6.3-4.24,9.19-.27.31-.56.73-1.02.69-.19,0-.37.06-.54.13-.01-.05-.02-.1-.04-.15-1.72-4.82-3.09-9.74-4.18-14.74-1.11-4.6-4.1-21.61.84-23.93ZM406.65,761.6c-9.21.27-6.47-8.94-4.16-14.47,2.9-7.87,6.3-15.67,10.22-23.21,5.52,6.26,12.17,11.37,18.08,17.24,8.63,8.73,6.93,10.05-3.69,14.07-6.66,2.46-13.28,5.87-20.45,6.37ZM508.6,758.3c-2.47,5.64-9.17,20.35-16.07,20.34-5.37.15-7.11-4.73-9.58-8.57-2.28-3.93-4.41-8.07-6.44-12.16-1.24-2.39-2.23-4.94-3.88-7.1.58-.27.69-.91.98-1.41,2.19-2,5.49-2.01,8.27-2.55,6.08-.78,12.19-1.53,18.32-1.71,3.65.02,7.41.02,10.9,1.21.69.3,1.78.71,1.38,1.66-1.07,3.51-2.53,6.89-3.88,10.29ZM575.21,744.89c-4.01-1.43-7.3-4.08-10.89-6.48-7.8-5.14-14.8-11.37-21.18-18.16.12-.13.22-.26.32-.4.73-.8,1.48-1.58,2.21-2.4.8-.67,1.51-1.73,2.22-2.29,6.64-5.99,13.42-13.83,22.52-15.92,1.35,5.33,2.2,10.77,3.18,16.17,1.3,9.6,4.47,19.84,1.62,29.46ZM576.79,713.17c-.6-3.44-1.22-6.87-1.91-10.29-.66-3.17-1.01-8.1-5.52-7.07-6.79,1.52-12.24,6.22-17.34,10.69-2.32,2.04-4.59,4.13-6.77,6.31-.64.73-1.8,1.62-2.35,2.58-.43.45-.84.91-1.25,1.37-.57.69-1.46,1.56-1.73,2.48-.18.23-.3.52-.32.84.11,1.6,1.73,2.7,2.61,3.93,3.33,3.76,6.8,7.08,10.8,10.36.36.27.72.53,1.08.8-9.39,7.99-19.4,15.24-30.47,20.82-4.04,1.96-8.2,3.71-12.45,5.27,1.03-2.33,1.99-4.71,2.89-7.1.77-2.13,1.79-4.24,2.05-6.51-.04-6.54-12.22-6.01-16.84-6.03-6.2.25-12.37.99-18.52,1.82-3.67.64-9.24,1.1-10.71,5.29-.17.57-.09,1.18.28,1.65-.72.55-.54,1.59-.06,2.26,2.59,5.26,4.97,10.64,7.76,15.8-12.69.83-25.45-.62-37.53-5.03-4.24-1.54-8.23-3.2-11.98-4.98.27-.1.55-.21.82-.31,13.84-4.71,13.18-10.52,3.46-19.97-4.71-4.62-9.82-8.79-14.49-13.46-.76-.75-1.65-1.7-2.52-2.66-.92-.88-1.55-2.38-2.88-2.67-1.13-.6-2.37.3-2.52,1.49-3.09,6.07-6.13,12.17-8.64,18.51-.03.08-.07.17-.1.25-19.09-20.64-19.35-48.69,2.14-81.35.15-.22.31-.43.46-.65.32,9.5,3.16,18.89,6.14,27.93.1.28.24.5.41.67.6,1.17,1.52,2.22,2.93,2.15.68.08,1.66-.31,2.55-.93,2.37-1.2,3.57-4.6,4.64-6.89,1.87-4.58,3.68-9.19,5.53-13.78.58-1.45,1.14-2.91,1.7-4.37.39-1.26,1.46-2.89.35-4.06-.17-.16-.36-.25-.56-.3-1.03-1.51-2.32-2.83-3.54-4.19-3.14-3.19-5.9-6.85-9.43-9.61,6.75-7.48,14.44-14.53,22.69-20.96,0,.62,0,1.25,0,1.87.2,1.64-.29,3.73.85,5.07.21.2.46.31.72.37.22.22.5.38.81.42,1.59.02,2.99-1.04,4.33-1.78,8.2-5.04,15.6-11.24,23-17.36,3.47-2.97,7.08-5.8,10.41-8.93.62-.76.4-1.68-.18-2.25-.12-.46-.49-.85-.99-1.17,4.57-2.1,9.14-3.99,13.66-5.61,1.14,3.59,2.34,7.16,3.65,10.7,3.49,9.44,7.52,18.67,12.04,27.67,1.51,3.01,3.08,6.04,4.72,9.02.51.92,1.03,1.82,1.55,2.74-.49.3-.97.61-1.46.91-1.93,1.17-3.91,2.25-5.91,3.28-1.71.83-3.44,1.6-5.23,2.24-.88.28-1.76.53-2.66.73-.47.08-.93.14-1.4.19-.26,0-.51,0-.77,0-.27-.02-.54-.06-.8-.1-.15-.04-.29-.08-.43-.12-.11-.04-.21-.09-.32-.13-.07-.04-.14-.08-.21-.12-.04-.03-.09-.07-.13-.1l-.04-.04s-.05-.07-.08-.1c-.02-.03-.04-.06-.06-.1-.03-.06-.06-.13-.08-.19-.04-.13-.08-.27-.11-.4-.02-.13-.04-.27-.06-.4,0-.13,0-.25,0-.38.03-.4.07-.79-.09-1.18-.28-.65-.91-.96-1.59-.91-.87.07-1.41.94-1.57,1.71-.14.66-.13,1.33,0,2,.14.72.39,1.47.86,2.04.75.92,1.76,1.49,2.91,1.78.73.19,1.48.27,2.22.27,2.14,0,4.28-.67,6.27-1.37,2.89-1.02,5.62-2.46,8.3-3.93,3.06-1.68,5.99-3.57,8.89-5.51,2.95-1.97,5.81-4.07,8.65-6.2,2.84-2.14,5.63-4.36,8.37-6.62,2.76-2.28,5.49-4.59,8.17-6.95,5.53-4.87,11.01-9.94,16.43-15.06,5.2-4.92,10.39-9.84,15.64-14.7,5.45-5.04,10.96-10.01,16.53-14.92.33-.29.66-.58.99-.87.05-.05.2-.18.35-.31,4.37-3.84,8.86-7.72,13.38-11.56,10.84-9.2,21.83-18.23,32.98-27.05,5.47-4.32,10.97-8.6,16.54-12.79,5.34-4.02,10.73-7.95,16.25-11.71l.03-.02c.16-.09.32-.21.47-.31.14-.09.27-.18.41-.28l.03-.02.13-.09c.13-.09.35-.23.57-.38,11.23-7.53,22.87-14.46,34.94-20.57,4.77-2.38,9.6-4.62,14.54-6.61,1.4-.56,2.8-1.1,4.21-1.62.65-.23,1.29-.47,1.94-.69.09-.03.18-.06.28-.09.05-.02.1-.03.15-.05,0,0,0,0,.01,0,5.36-1.84,10.84-3.45,16.39-4.6,5.45-1.09,10.97-1.96,16.52-2.35,2.33-.15,4.67-.15,7-.09,2.02.05,4.03.13,6.05.26h.02c.07,0,.13,0,.2.01,3.86.27,7.79.74,11.65,1.52,2.6.55,5.16,1.26,7.67,2.12,2.35.83,4.76,1.86,7.12,3.03,2.44,1.24,4.79,2.64,7.05,4.17,1.92,1.32,3.75,2.75,5.5,4.28h.01s.03.04.05.05c1.38,1.23,2.74,2.57,4.01,3.99.61.7,1.19,1.43,1.72,2.2.84,1.26,1.58,2.58,2.26,3.93.79,1.6,1.48,3.25,2.08,4.94.64,1.83,1.19,3.87,1.63,5.93.36,1.76.62,3.54.75,5.34.12,1.9.12,3.81,0,5.71-.11,1.45-.28,2.89-.56,4.32-.23,1.07-.52,2.12-.86,3.15-.38,1.07-.82,2.12-1.32,3.14-.6,1.17-1.27,2.31-2,3.41-.44.64-.89,1.27-1.36,1.89-.16.21-.26.44-.31.68-1.04-2.4-2.14-4.78-3.3-7.14-1.13-2.31-2.34-4.59-3.58-6.84-.49-.9-1.02-1.78-1.53-2.66.25-.07.51-.14.76-.2,2.7-.76,5.87-1.24,6.45-4.52.06-.38.07-.76.06-1.14,1.39-1.29-.18-3.87-2.58-6.26-1.41-1.84-3.3-3.25-5.42-4.19-.78-.45-1.51-.79-2.11-.97-7.68-2.64-16.66-2.87-25.95-1.6.42-1.76-.01-3.56-1.94-5.16-3.81-2.84-9.47-2.97-14.02-2.3-.09.01-.16.04-.24.06-.97.07-1.94.13-3.07.2-1.39.1-2.99.23-4.16,1.27-.66.53-.92,1.47-.59,2.2,0,.16.02.31.07.47.76,2.88,2.33,5.46,3.84,8.02-9.05,2.94-17.72,6.72-25.12,10.53.19-.76.37-1.48.55-2.13,3.15-8.62-5.57-8.84-11.53-7.14-5.79,1.65-11.93,3.62-16.43,7.79-.58.52-1.25,1.32-1.62,2.16-.2.15-.36.33-.48.56-.78,1.97.9,3.98,2.49,5.09,1.64,1.85,4.47,3.78,7.06,5.37-10.15,6.62-19.29,13.67-27.67,21.17-1.29-2.75-2.89-5.36-5.02-7.46-1.83-1.78-5.88-3.37-8.13-1.8-.2.12-.4.24-.59.39-.61.39-2.21,1.76-3.44,3.22-1.69,1.7-3.3,3.47-4.85,5.3-2.49,3.46-6.41,6.46-7.29,10.79,0,4.43,3.73,8.16,8.4,10.81-7.2,8.24-13.92,16.91-20.38,26.06-1.1-.96-2.26-1.87-3.43-2.68-2.87-2.2-6.13-4.46-9.73-5.87-.07-.03-.14-.04-.21-.05-1.14-.48-2.47-.75-3.21-.83-.68-.09-1.26.16-1.65.55-.42.24-.81.59-1.07.95-3.14,3.07-6.03,6.39-8.69,9.88-1.93,2.66-4.12,5.23-5.34,8.32-2.6,7.72,6.49,11.61,12.77,11.85,1.95.14,3.92.12,5.87,0-4.41,6.98-8.8,14.18-13.26,21.64-.54.86-1.08,1.74-1.62,2.6-.52-.15-1.03-.29-1.54-.44-5.36-1.47-10.78-2.65-16.22-3.77-2.29-.47-4.59-.9-6.91-1.18-1.16-.12-3.04-.57-3.29,1.02-.65-.42-1.51-.35-2.13.16-5.86,4.89-8.49,12.42-10.74,19.51-1.49,4.79-2.69,12.6,3.58,14.29,3.4.57,6.75-1.06,9.99-1.92,4.54-1.48,9.02-3.16,13.39-5.08-9.21,14.88-18.82,29.52-30.31,42.64ZM808.71,522.28c-.92-3.98-1.49-8.04-2.06-12.09,0-.04-.02-.09-.02-.13,1.1.31,2.16.7,3.19,1.18.2.12.42.23.66.33,1.95,1,3.73,2.31,5.25,3.93.33.48.63.98.89,1.5.47,1.1,1.34,3.19-.4,3.53-2.45.7-4.94,1.68-7.51,1.75ZM803.64,509.97c-.06-.08-.12-.17-.18-.25-.06-.08-.12-.16-.17-.23.12.01.23.02.35.03,0,0,0,0,0,.01,0,.15,0,.29,0,.44ZM781.32,505.15c-.2.95-.8,1.72-1.43,2.42-1.49,1.54-3.08,2.99-4.7,4.4-1.18.88-2.38,2.18-3.94,2.22-.96-.37-1.45-1.39-2.01-2.19-1.8-2.87-3.9-6.15-5.49-9.27.08-.03.16-.06.25-.07,1.55-.27,3.19-.26,4.79-.48.12.01.25.01.38,0,1.64-.19,3.3-.4,4.95-.3,2.1.3,6.9.64,7.19,3.27ZM737.15,515.65c-.92,3.97-3.36,17.96-8.05,18.25-.95.06-1.8-.45-2.63-.85-4.54-2.42-9.44-5.23-12.93-9.17,1.69-4.31,20.1-11.38,23.61-8.23ZM691.94,575.55c-1.18.68-2.71.51-4.03.69-6.61.92-19.65-3.88-21.82-10.61-.15-2.45,3.48-5.44,4.82-7.51,1.53-1.88,3.1-3.73,4.74-5.53.73-.98,1.9-1.83,2.76-2.84.04-.04.08-.08.12-.11.52-.56,1.24-1,1.88-1.49,6.1-1,9.44,10.8,11.2,15.28,1.04,3.77,2.81,8.62.33,12.12ZM650.09,616.68c-5.25,2.22-10.9,3.44-16.6,3.6-4.46-.09-13.95-.57-13.03-6.95,2.42-5.42,6.65-9.92,10.39-14.48.68-1.04,2.06-2.09,2.95-3.25.61.18,1.24.33,1.87.46.16.14.36.26.61.34,5.22,2.22,25.96,15.45,13.82,20.28ZM626.21,653.75c-2.39,7.3-33.39,19.67-41.24,20.4-6.58-.87,1.68-18.95,3.65-22.26.88-1.53,1.91-2.97,3.17-4.21.71-.83,2.05-1.38,2.03-2.61,7.4,1.8,14.95,3.18,22.33,5.18,1.51.39,3.06.82,4.6,1.29,1.81.67,3.95.98,5.46,2.21ZM807.76,676.8c-1.72,1.94-3.5,3.82-5.36,5.62-1.94,1.88-3.94,3.71-5.96,5.5-2.62,2.29-5.46,4.67-8.4,6.93-2.62,2.02-5.31,3.94-8.05,5.8-7.88,5.28-16.07,10.09-24.53,14.38h-.02s-.08.05-.13.08c-9.51,4.76-19.35,8.99-29.41,12.61-.87-.92-1.54-2.07-1.92-3.53-.94-2.82-1.3-5.78-1.61-8.72-.53-4.94-.88-9.9-1.52-14.84-1.13-8.44-2.88-16.82-5.85-24.82-9.48-25.67-32.1-34.85-57.78-27.52-9.97,3.26-19.15,8.93-27.13,15.71-1.72,1.5-3.38,3.08-4.91,4.77-.72.86-1.78,1.88-2.01,3.08-.22,1.37,1.45,2.14,2.3,1.09,8.78-9.02,19.42-16.36,31.34-20.81,12.68-4.05,27.55-4.12,38.94,3.52,13.51,9.05,18.4,25.72,20.93,40.98.98,5.87,1.44,11.8,2.01,17.72.53,4.83.93,9.93,3.4,14.23,4.4,7.21,18.25,7.41,25.87,7.68,5.49.2,11.01.32,16.43,1.29-1.53.28-3.13.36-4.58.97-2.18.9-2.19,3.39-.66,4.92,1.22,1.22,2.82,1.99,4.37,2.7-2.96.18-5.93,0-8.89-.06-1.36-.02-2.81-.19-4.1.32-1.04.4-1.72,1.56-1.48,2.67.59,3.09,6.32,4.6,8.84,6.14-14.03.83-28.13-.46-42.18.07-16.65.42-33.26,1.62-49.9,2.26-3.12.07-6.32,0-9.28-1.11-1.38-.46-2.78-1.01-3.59-2.31-.26-.49-.02-1.08.13-1.57.47-1.25,1.13-2.42,1.88-3.53,1.95-2.7,4.61-5.11,5.21-8.53.67-4.91-2.37-9.48-5.44-13.03-6.43-7.23-14.45-13-22.39-18.51-1.29-.85-3.06.55-2.61,1.99.4,1.15,1.5,1.39,2.42,2.15,2.43,1.68,4.79,3.45,7.15,5.23,5.37,4.25,13.88,10.66,16.66,17.53-5.58-.67-11.15-1.48-16.67-2.6-3.43-.71-7.07-1.59-10.68-2.57-4.88-1.32-9.72-2.8-14.5-4.45-4.43-1.54-9.01-3.33-13.54-5.25-3.91-1.65-7.76-3.42-11.56-5.31-2.26-1.14-4.49-2.34-6.7-3.58,4.4-5.22,8.58-10.63,12.48-16.25,6.37-9.17,12.37-18.6,18.25-28.12,2.11-1.06,4.19-2.19,6.23-3.38,3.94-2.36,14.62-8.62,8.76-13.74-1.12-.67-2.32-1.18-3.56-1.61,5.25-8.67,10.52-17.32,15.95-25.85,3.06-.52,6.08-1.33,8.98-2.41,11.03-3.63,9.07-10.78,3.7-16.66,5.91-8.46,12.12-16.7,18.83-24.59.7-.81,1.42-1.6,2.13-2.4,3.91,1.71,8.04,2.69,11.02,2.76,3.26-.24,7.38.43,9.78-2.25,3.17-4.42,1.59-10.41.12-15.2-.51-1.48-1.06-3.03-1.65-4.58,8.19-7.31,16.87-14.07,25.96-20.21,1.23-.81,2.5-1.61,3.76-2.42.61.34,1.13.63,1.52.85,7.86,4.57,11.48-2.78,13.61-9.85,9.01-4.91,18.45-9.21,28.19-12.27,1.2,1.93,2.68,3.83,5.12,3.8,3.86-.28,6.76-3.89,9.52-6.27.47-.4.91-.84,1.33-1.29,5.36-.82,10.78-1.18,16.24-.98,1.94,2.53,3.81,5.11,5.61,7.73.07.46.13.92.2,1.4.67,2.97.28,7.62,4.48,7.53.32,0,.63-.03.95-.06,1.74,2.95,3.38,5.96,4.94,9.01,1.66,3.33,3.21,6.71,4.66,10.14,1.44,3.41,2.74,6.87,3.97,10.36,1.32,3.84,2.6,7.86,3.7,11.94,1.03,3.82,1.93,7.68,2.73,11.56.66,3.34,1.28,6.68,1.75,10.05.25,1.78.48,3.57.68,5.36.21,1.85.35,3.7.49,5.55.16,2.62.27,5.24.26,7.86,0,2.57-.08,5.13-.23,7.7-.02.37-.05.73-.07,1.09-.18,2.28-.41,4.58-.72,6.88-.3,2.23-.69,4.44-1.11,6.65-.49,2.38-1.02,4.76-1.68,7.1-.32,1.14-.64,2.28-1,3.4-.34,1.06-.69,2.12-1.06,3.18-.74,2.04-1.51,4.08-2.39,6.07-.85,1.94-1.75,3.86-2.69,5.76-.94,1.85-1.93,3.67-2.97,5.47-1.19,2.07-2.48,4.09-3.81,6.08-2.34,3.41-4.84,6.7-7.55,9.83ZM915.81,680.46c-2.18.9-2.19,3.39-.66,4.92,1.22,1.22,2.82,1.99,4.37,2.7-2.96.18-5.93,0-8.89-.06-1.36-.02-2.81-.19-4.1.32-1.04.4-1.72,1.56-1.48,2.67.59,3.09,6.32,4.6,8.84,6.14-7.54.44-15.11.28-22.67.11-6.51-.14-13.01-.29-19.51-.04-16.65.42-33.26,1.62-49.9,2.26-3.12.07-6.32,0-9.28-1.11-1.39-.46-2.79-1.01-3.59-2.3-.26-.49-.02-1.07.13-1.57.47-1.25,1.13-2.42,1.88-3.53,1.95-2.7,4.61-5.11,5.21-8.53.39-2.84-.47-5.56-1.85-8.04.73-.95,1.46-1.92,2.15-2.9,1.59-2.24,3.13-4.51,4.55-6.87,1.25-2.08,2.44-4.2,3.57-6.35,1.05-1.99,2.02-4.03,2.94-6.08.93-2.06,1.79-4.16,2.56-6.29,1.66-4.6,3.04-9.3,4.03-14.1,1.05-5.07,1.8-10.18,2.15-15.35.17-2.52.29-5.14.3-7.77.02-5.47-.27-10.96-.94-16.4-.02-.19-.05-.38-.07-.56,5.74.73,11.29,2.58,16.2,5.87,13.51,9.05,18.4,25.72,20.93,40.98.98,5.87,1.44,11.8,2.01,17.72.53,4.83.93,9.93,3.4,14.23,4.4,7.21,18.25,7.41,25.87,7.68,5.49.2,11.01.32,16.43,1.29-1.53.28-3.13.36-4.58.97Z"/>
      <path d="M539.06,524.16c-.37.54-.3,1.3.19,1.74.6.52,1.45.44,2.19.38,2.92-.28,5.81-.8,8.69-1.35,8.68-1.73,17.12-4.51,25.34-7.76,8.7-3.41,17.23-8.39,25.07-13.63,4.61-3.03,9.02-6.39,13.83-9.11,5.82-3.2,12.34-5.23,18.84-6.61-3.86,2.06-7.77,4.03-11.5,6.32-1.3.82-3.03,1.95-2.69,3.75.14.75.71,1.34,1.41,1.61,2.58.65,5.28-.37,7.86-.65,9.03-1.47,17.95-3.25,27.06-4.27-4.94,2.51-10.11,4.52-15.19,6.74-1.73.77-3.57,1.37-5.11,2.49-.99.72-1.51,2.14-.77,3.22,1,1.44,2.99,1.56,4.59,1.61,5.96.08,11.68-1.82,17.44-3.09-3.9,2.29-8.28,4.12-12.52,5.98-1.98.88-4.12,1.58-5.83,2.96-1.08.85-1.65,2.4-.84,3.63,2.09,3.02,9.49,1.59,12.87,1.85-4.77,5.89-17.1,5.46-24.3,7.43-14.42,3.31-28.24,8.73-42.02,14.03-4.84,1.88-9.65,3.9-14.45,5.94-2.5,1.07-5.03,2.1-7.55,3.11-.89.36-1.23,1.51-.84,2.34.31.62.78.91,1.31.98.55.07,1.16-.11,1.71-.39,1.98-.78,4.06-1.65,6.14-2.52,9.37-4.02,18.79-7.77,28.42-11.25,8.31-3.1,16.71-5.98,25.31-8.13,2.77-.69,5.55-1.25,8.37-1.72,5.42-.94,11.15-1.31,16.09-3.94,2.84-1.42,7.9-5.44,4.44-8.63-1.05-.8-2.44-.76-3.71-.74-2.5.06-5.02.16-7.52-.02,3.02-1.48,6.18-2.65,9.22-4.1,3.85-1.91,8.22-3.46,11.16-6.72,1.74-2.42-.51-4.34-3.03-3.96-6.35.86-12.45,3.36-18.91,3.54,5.88-2.59,11.94-4.84,17.63-7.83,1.38-.77,3.29-1.86,3.46-3.64.12-1.35-1.05-2.47-2.34-2.63-3.42-.22-6.84.59-10.23.98-7.57,1.14-15.11,2.51-22.67,3.76,3.92-2.26,7.99-4.24,11.93-6.45,1.28-.79,2.93-1.47,3.55-2.93.72-2.54-2.04-3.02-3.91-2.71-2.77.29-5.5.83-8.19,1.51-5.72,1.43-11.33,3.41-16.49,6.28-8.75,5.18-16.98,11.76-26.01,16.58-14.08,7.72-29.85,12.52-45.73,15.19-.6.13-1.41.29-1.76.87Z"/>
    </g>
    <path class="cls-2" d="M774.18,162.03c1.57.25-9.82,29.02-10.64,31.4-3.7,12.95-20.55,24.31-40.01,27.04-4.03,3.03-8.25,9.19-13.22,27.06-4.01,10.83-11.73,26.55-25.66,23.65-6.44-1.99-14.69-19.47-2.85-22.46,8.32-7.14,12.42-17.72,15.17-28.04,2.37-9.59,5.53-18.19,14.55-23.36,8.94-5.8,23.19-5.27,29.57-8.59,2.39-1.33,31.44-26.83,33.1-26.7Z"/>
    <path d="M776.09,161.48c-2.75-1.21-6.22.85-8.68,2.14-6.92,3.86-12.1,9.97-17.57,15.57-5.78,6.19-12.12,9.56-20.62,10.65-7.16.76-14.63,1.7-20.58,6.13-7.69,5.46-9.99,11.5-12.32,20.25-3.32,11.81-6.22,20.65-15.15,29.69-5.24.55-7.48,7.2-7.51,11.77-.09,7.72,6.35,14.67,13.69,16.34,8.69.76,17.24-10.78,20.56-17.9,3.57-7.06,4.88-14.96,7.94-22.22,1.28-2.97,2.7-5.98,5-8.3,4.14-4.21,10.37-4.63,15.74-6.31,5.25-1.53,10.45-3.57,14.99-6.65,10.33-7.2,13.05-20.04,17.95-31.03,1.37-3.22,2.84-6.45,4.36-9.61.98-2.61,5.61-8.48,2.2-10.53ZM697.22,225.51c2.29,3.8,7.64,7.91,10.2,8.77.86.32,2.48.89,4.04,1.15-1.56,4.36-2.74,8.91-4.29,13.28-.06.01-.13.02-.19.03-1.36.17-2.76.11-4.1-.23-3.64-1.13-6.34-4.07-9.05-6.6-.39-.39-.93-.95-1.46-1.51-.39-.41-.83-.95-1.37-1.2,1.5-2.36,2.83-4.84,3.94-7.4.85-2.03,1.59-4.14,2.27-6.28ZM678.07,262.16c-1.57-3.85-1.06-8.78,1.78-11.93.28.19.63.29.98.3.75,7.46,6.89,15.18,13.9,17.18-1.98,1.52-4.11,2.57-6.33,2.86-4.53-.71-8.39-4.36-10.33-8.41ZM697.87,264.82c-.31-.13-.68-.23-1.13-.26-6.88-1.36-11.61-8.38-12.66-15.01-.09-.47-.1-.96-.11-1.44,1.14-1.21,2.26-2.44,3.31-3.72.74-.91,1.45-1.85,2.13-2.81.98,1.65,2.36,3.04,3.71,4.4,3.1,3.12,7.27,6.44,11.99,6.38.22,0,.44,0,.66,0-1.65,3.83-4.43,8.71-7.9,12.46ZM716.82,224.84c-1.63,2.2-2.9,4.57-3.97,7.04-1.84-.16-4.57-.4-8.04-3.23-2.05-1.63-3.87-3.59-5.23-5.84-.37-.54-.55-1.29-1.01-1.77,1.21-4.14,2.36-8.31,3.86-12.26.81-1.94,1.93-3.73,3.26-5.34.54,2.26,1.79,4.66,2.48,6.12,2.64,5.05,6.61,9.52,11.69,12.16-1.12.87-2.15,1.89-3.05,3.11ZM731.34,217.03c-2.68.62-5.34,1.36-7.77,2.49-1.73-.61-3.34-1.54-4.8-2.66-4.74-3.53-8.07-8.8-9.8-14.41-.24-.65-.24-1.33-.3-2,2.1-1.79,4.49-3.25,7.01-4.33,3.06-1.28,6.32-1.8,9.6-2.22,0,1.63.53,3.44.72,4.79,1.61,6.57,5.56,12.45,10.69,16.87-1.75.54-3.52,1.02-5.33,1.46ZM747.59,210.99c-2.28,1.29-4.61,2.34-6.99,3.24-.91-.61-1.75-1.33-2.53-2.1-4.84-4.83-8.73-10.9-9.41-17.85-.05-.26-.07-.52-.09-.79.36-.05.71-.09,1.07-.14,4.01-.55,7.99-1.58,11.65-3.32.1.4.25.79.39,1.16.44,1.17,1,2.29,1.63,3.36,2.63,4.15,6.65,8.48,11.53,10.1-1.96,2.54-4.31,4.74-7.25,6.32ZM756.86,201.71c-.51-.3-1.15-.49-1.74-.69-3.19-1.41-5.66-4.03-7.83-6.68-1.15-1.47-2.03-3.03-2.88-4.71-.17-.31-.33-.66-.52-.98,4.5-2.68,8.12-6.51,11.71-10.34.05.08.1.16.15.24,1.79,3.02,4.24,5.56,7.54,6.92.23.1.47.2.72.27-1.05,2.56-2.08,5.14-3.11,7.73-1.15,2.8-2.45,5.62-4.05,8.22ZM765.37,182.47c-.68-.3-1.44-.48-2.06-.91-2.03-1.17-3.51-3.02-4.92-4.84-.2-.23-.38-.49-.56-.75.73-.75,1.46-1.5,2.2-2.22,3.77-3.6,8.35-7.35,13.46-8.95-2.96,5.81-5.61,11.7-8.12,17.67Z"/>
    <path class="cls-2" d="M615.24,260.91c.2,6.56-7.27,15.22-14.16,14.12-4.05-.62-15.32-5.09-17.31-27.54-.03-.34-.07-.68-.13-1.01-1.55-8.6-2.56-17.76-7.81-25.03-1.6-2.17-23.98-12.24-31.32-24.16-.37-.6-.66-1.23-.9-1.89-3.6-9.71-10.66-39.67-9.97-40.48.42-.47,13.23,8.86,16.2,12.55,4.87,5.66,8.57,11.91,14.44,16.54,2.84,2.23,18.79,8.17,27.14,13.11,3.08,1.82,5.14,6.74,5.72,10.28,7.79,47.53,18.11,48.38,18.09,53.52Z"/>
    <path d="M611.58,250.65c-7.29-10.41-8.68-19.6-9.98-31.8-.84-9.02-2.1-15.36-8.77-22.03-5.12-5.36-12.33-7.54-19.26-9.48-8.2-2.49-13.88-6.87-18.55-13.94-4.46-6.44-8.55-13.33-14.73-18.29-2.21-1.68-5.29-4.29-8.2-3.56-3.7,1.46-.12,8.01.41,10.75.98,3.37,1.88,6.79,2.7,10.2,3,11.65,3.54,24.76,12.52,33.59,3.96,3.79,8.75,6.67,13.67,9.05,5.01,2.55,11.08,4.01,14.46,8.85,1.88,2.68,2.78,5.88,3.54,9.02,1.8,7.67,1.78,15.67,4.12,23.23,2.08,7.57,8.58,20.37,17.28,21.08,7.52-.42,15.03-6.2,16.23-13.83.74-4.51-.37-11.44-5.44-12.86ZM608.96,253.11c-.38,1.11-.93,2.04-1.68,3.02-3.41,4.13-7.89,8.12-13.41,8.8-.94.15-1.89.09-2.84.04-2.41-4.16-4.06-8.95-4.9-12.61,3.84-.01,7.61-1.87,10.78-3.91,1.2-.69,4.43-3.35,6.18-5.86.81,1.9,1.71,3.75,2.72,5.54.97,1.71,2.02,3.37,3.14,4.99ZM583.15,233.58c.08,0,.16.02.23.02,3.4.21,6.72-.97,9.64-2.62,2.34-1.29,4.36-3.06,5.86-5.21.37,2.94.82,5.85,1.48,8.66.33,1.34.72,2.67,1.16,3.99-.51.42-.87,1.1-1.14,1.71-.98,1.7-2.38,3.12-3.93,4.32-2.41,1.84-5.1,3.37-8.08,4.16-.91.35-1.92.36-2.89.47-.89-5.13-1.29-10.41-2.33-15.5ZM534.11,155.26c4.05,2.06,7.46,5.59,10.31,9.17-.04.05-.09.1-.13.16-.46.86-.98,1.7-1.68,2.4-1.27,1.24-2.85,2.12-4.45,2.88-1.21-4.9-2.53-9.76-4.05-14.61ZM541.72,185.64c-.91-4.27-1.83-8.51-2.83-12.72,2.71-.51,5.58-2.61,7.2-4.6.2-.25.41-.53.61-.84,2.08,2.96,4.02,6.07,6.15,9.02-.73.62-.97,1.93-1.53,2.81-1.87,2.99-4.98,5.06-8.11,6.56-.42.23-.89.32-1.36.42-.05-.21-.1-.43-.15-.65ZM550.01,185.77c2.21-1.63,4.1-3.73,5.15-6.29,0,0,0,0,0,0,1.63,1.96,3.43,3.78,5.5,5.33.95.73,1.95,1.39,2.98,2-.02.1-.04.21-.06.31-.56,2.03-1.64,3.86-2.93,5.51-2.35,3.06-5.45,6.18-8.89,8.16-.93.54-1.89.99-2.89,1.37-3.12-3.66-4.96-8.23-6.25-12.9,2.72-.19,5.22-1.96,7.39-3.49ZM551.36,204.64c5.83-1.97,10.69-7.64,13.88-12.57.35-.77,1.14-2.18,1.6-3.57,1.86.88,3.79,1.61,5.75,2.23,1.43.45,2.89.87,4.33,1.31-.21.22-.36.5-.44.85-.16,1.12-.31,2.26-.63,3.35-1.8,6.48-6.56,11.72-12.23,15.19-.25.17-.54.31-.84.45-3.85-1.88-7.47-4.02-10.84-6.76-.2-.15-.38-.31-.57-.47ZM566.95,213.79c-.16-.07-.32-.14-.48-.21,1.02-.63,1.98-1.38,2.9-2.03,5.69-4.45,10.04-11.09,10.58-18.41,0-.04-.01-.08-.02-.12,2.07.73,4.09,1.59,5.96,2.77,2.59,1.67,4.95,3.79,6.84,6.25-.18.49-.28,1.04-.37,1.55-.35,1.25-.9,2.43-1.54,3.55-2.64,4.55-6.42,8.43-10.97,11.09-.96.57-1.95,1.08-3,1.47-2.73-2.67-6.28-4.39-9.9-5.91ZM579.03,222.34c6.32-1.99,13.22-9.78,15.65-14.97.14-.36.33-.82.54-1.31.69,1.41,1.23,2.89,1.59,4.43.58,2.92.97,5.92,1.32,8.93-.18.18-.34.41-.45.7-.18.54-.37,1.08-.59,1.6-2.37,5.44-8.67,8.48-14.37,8.8-.1,0-.19,0-.28.01-.61-2.27-1.41-4.5-2.49-6.63-.28-.55-.59-1.07-.92-1.57ZM611.93,267.18c-2.58,3.67-7,6.62-11.58,6.57-2.69-.83-5.03-2.82-7.01-5.36,7.55-.34,13.98-5.88,18-11.96.23-.4.44-.82.63-1.24.07-.02.14-.03.2-.05,2.27,3.57,1.95,8.52-.23,12.06Z"/>
  </g>
</svg>