<svg width="56" height="56" viewBox="0 0 56 56" fill="none" xmlns="http://www.w3.org/2000/svg">
    <path fill-rule="evenodd" clip-rule="evenodd" d="M13.3 50.4001C12.914 50.4001 12.6 50.0861 12.6 49.7001C12.6 49.3141 12.914 49.0001 13.3 49.0001C13.686 49.0001 14 49.3141 14 49.7001C14 50.0861 13.686 50.4001 13.3 50.4001Z" fill="#E0F0FE"/>
    <path fill-rule="evenodd" clip-rule="evenodd" d="M21.7 7.0001C21.314 7.0001 21 6.68608 21 6.3001C21 5.91408 21.314 5.6001 21.7 5.6001C22.086 5.6001 22.4 5.91408 22.4 6.3001C22.4 6.68608 22.086 7.0001 21.7 7.0001Z" fill="#E0F0FE"/>
    <path fill-rule="evenodd" clip-rule="evenodd" d="M46.9 46.2001C46.514 46.2001 46.2 45.8861 46.2 45.5001C46.2 45.1141 46.514 44.8001 46.9 44.8001C47.286 44.8001 47.6 45.1141 47.6 45.5001C47.6 45.8861 47.286 46.2001 46.9 46.2001Z" fill="#E0F0FE"/>
    <path fill-rule="evenodd" clip-rule="evenodd" d="M46.9 11.2001C46.514 11.2001 46.2 10.8861 46.2 10.5001C46.2 10.1141 46.514 9.8001 46.9 9.8001C47.286 9.8001 47.6 10.1141 47.6 10.5001C47.6 10.8861 47.286 11.2001 46.9 11.2001Z" fill="#E0F0FE"/>
    <path fill-rule="evenodd" clip-rule="evenodd" d="M6.29998 22.4001C5.914 22.4001 5.59998 22.0861 5.59998 21.7001C5.59998 21.3141 5.914 21.0001 6.29998 21.0001C6.68596 21.0001 6.99998 21.3141 6.99998 21.7001C6.99998 22.0861 6.68596 22.4001 6.29998 22.4001Z" fill="#E0F0FE"/>
    <path d="M25.8062 21.7253C25.9995 21.3905 25.8848 20.9623 25.55 20.769C23.8781 19.8038 21.7342 20.3782 20.7689 22.0501C19.8036 23.722 20.3781 25.866 22.05 26.8312C23.7219 27.7965 25.8658 27.222 26.8311 25.5501C27.0244 25.2153 26.9097 24.7872 26.5749 24.5939C26.24 24.4006 25.8119 24.5153 25.6186 24.8501L25.554 24.955C24.9484 25.8759 23.7165 26.1768 22.75 25.6188C21.7477 25.0401 21.4027 23.7524 21.9813 22.7501C22.56 21.7478 23.8477 21.4028 24.85 21.9815C25.1848 22.1748 25.6129 22.0601 25.8062 21.7253Z" fill="#0079D0"/>
    <path d="M33.6544 37.4578C33.5286 37.8234 33.7229 38.2217 34.0884 38.3476C35.5488 38.8504 37.1446 38.0722 37.6474 36.6117C38.1503 35.1513 37.372 33.5555 35.9116 33.0527C34.4512 32.5498 32.8554 33.3281 32.3525 34.7885C32.2267 35.1541 32.421 35.5524 32.7865 35.6783C33.152 35.8042 33.5504 35.6099 33.6763 35.2443L33.7138 35.147C33.9999 34.4809 34.7596 34.1367 35.4558 34.3764C36.1851 34.6275 36.5748 35.4266 36.3237 36.1559C36.0726 36.8853 35.2735 37.275 34.5442 37.0239C34.1786 36.898 33.7803 37.0923 33.6544 37.4578Z" fill="#0079D0"/>
    <path d="M21.8706 36.4001C21.5116 36.4001 21.2157 36.1299 21.1753 35.7818L21.1706 35.7001L21.1709 34.9874L21.1676 34.8639C21.1325 34.3032 20.7878 33.8074 20.2529 33.5658L20.1354 33.5179L19.7823 33.3694L19.6012 33.2886C19.0671 33.0414 18.4356 33.1329 17.9869 33.5152L17.8937 33.6016L17.3271 34.165L17.217 34.2527C16.8002 34.5396 16.2433 34.5124 15.854 34.1916L15.7733 34.1184L13.8548 32.1899L13.7673 32.0797C13.4817 31.6635 13.5078 31.1077 13.8265 30.7177L13.8993 30.6368L14.4018 30.1327L14.4907 30.0385C14.8834 29.5893 14.9762 28.9409 14.7193 28.3865C14.6644 28.2652 14.6106 28.1395 14.5606 28.0159L14.4443 27.7212C14.2228 27.2204 13.7315 26.8778 13.1779 26.8352L13.0584 26.8307L12.2736 26.8284L12.1473 26.8159C11.6372 26.7324 11.2509 26.3129 11.2046 25.8025L11.2 25.6993L11.2022 22.9763L11.2147 22.8501C11.2976 22.3398 11.7162 21.9521 12.2268 21.9057L12.3301 21.901L13.0405 21.9013L13.1634 21.898C13.7208 21.8629 14.2145 21.5176 14.4554 20.9807L14.5031 20.8628L14.6512 20.5087L14.7326 20.3253C14.9817 19.7877 14.8874 19.1464 14.4978 18.6937L14.416 18.6058L13.8576 18.0407L13.7703 17.9305C13.4853 17.514 13.5122 16.9582 13.8312 16.569L13.904 16.4883L15.8271 14.5636L15.937 14.4758C16.3536 14.1887 16.9104 14.2152 17.3005 14.5357L17.3814 14.6089L17.8827 15.1116L17.977 15.2008C18.4253 15.5938 19.0673 15.6866 19.6163 15.432C19.7389 15.3761 19.8649 15.3219 19.9885 15.2716L20.2826 15.1548C20.7815 14.9328 21.1236 14.4393 21.1661 13.8823L21.1706 13.7621L21.1728 12.9754L21.1853 12.8492C21.2683 12.3389 21.6869 11.9513 22.1974 11.9048L22.3007 11.9001L25.016 11.9024L25.1423 11.915C25.6524 11.9984 26.0387 12.418 26.085 12.9283L26.0896 13.0316L26.0893 13.7431L26.0928 13.8674C26.1292 14.4317 26.4766 14.9281 27.0178 15.1692L27.1367 15.2169L27.4816 15.3625L27.6623 15.4431C28.1964 15.6903 28.828 15.5988 29.2766 15.2165L29.3699 15.1301L29.9365 14.5667L30.0465 14.479C30.4633 14.1921 31.0203 14.2193 31.4095 14.5401L31.4902 14.6133L33.4096 16.5429L33.4968 16.653C33.7807 17.0691 33.7533 17.6243 33.4349 18.013L33.3622 18.0936L32.8585 18.599L32.7696 18.6932C32.3769 19.1424 32.284 19.7908 32.5409 20.3452C32.5959 20.4665 32.6497 20.5922 32.6996 20.7158L32.8159 21.0105C33.0374 21.5113 33.5287 21.8539 34.0823 21.8965L34.2018 21.901L34.9866 21.9033L35.0564 21.9089C35.4418 21.9401 35.7289 22.2778 35.6977 22.6631C35.6687 23.0209 35.3755 23.294 35.0252 23.3063L34.9435 23.3044L34.9302 23.301L34.2031 23.301C33.0982 23.303 32.0891 22.6793 31.5912 21.6921L31.5265 21.5552L31.4677 21.4091C31.4258 21.2987 31.3813 21.1886 31.3362 21.0829L31.2682 20.9284C30.8033 19.9254 30.944 18.7498 31.6302 17.8763L31.7319 17.7537L31.8519 17.6263L32.1846 17.2929L30.688 15.7921L30.3617 16.1181C29.5333 16.9515 28.2905 17.2051 27.2217 16.7774L27.0833 16.7177L26.9247 16.6468L26.6298 16.5213C25.5781 16.1465 24.8373 15.2058 24.7084 14.0879L24.6946 13.9344L24.6896 13.765L24.6897 13.3001H22.5708L22.5706 13.7608C22.5726 14.8673 21.9513 15.8785 20.9666 16.3782L20.8301 16.4431L20.6844 16.502C20.5741 16.5442 20.4643 16.5888 20.3579 16.6346L20.2013 16.704C19.2009 17.1679 18.0306 17.0262 17.1586 16.3391L17.0362 16.2373L16.9079 16.1162L16.5802 15.7879L15.0822 17.2901L15.4055 17.6154C16.241 18.4459 16.4955 19.696 16.0674 20.7648L16.0077 20.9031L15.9372 21.0619L15.8076 21.3698C15.43 22.4183 14.4923 23.1561 13.3808 23.2829L13.2282 23.2964L13.0612 23.301L12.6 23.301V25.4311L13.0571 25.4307C14.162 25.4287 15.1711 26.0524 15.6691 27.0396L15.7338 27.1765L15.7925 27.3226C15.8344 27.433 15.879 27.5431 15.9241 27.6488L15.992 27.8033C16.4569 28.8063 16.3162 29.9819 15.63 30.8554L15.5283 30.978L15.4084 31.1054L15.078 31.4385L16.576 32.9407L16.9018 32.6136C17.7302 31.7802 18.9731 31.5266 20.0418 31.9543L20.3384 32.0846L20.6451 32.2145C21.6911 32.5935 22.4263 33.5335 22.5525 34.6466L22.566 34.7995L22.5708 35.0001H25.2018L25.2022 34.6125L25.2135 34.502C25.2892 34.0376 25.6692 33.685 26.133 33.64L26.2336 33.6352L26.7802 33.6355L26.8704 33.6332C27.2382 33.6101 27.565 33.3864 27.7331 33.0295L27.8911 32.6519L27.9554 32.5076C28.1183 32.1572 28.0614 31.7394 27.8136 31.4372L27.7414 31.3578L27.2984 30.9099L27.2219 30.8132C26.9619 30.4342 26.985 29.9292 27.2731 29.5739L27.3443 29.4946L28.8469 27.9962L28.893 27.958C29.1904 27.7111 29.6317 27.7521 29.8787 28.0496C30.1066 28.3241 30.0892 28.7213 29.8512 28.975L29.7871 29.0353L29.789 29.0298L28.5917 30.2282L28.7294 30.3659C29.4187 31.0491 29.6318 32.0757 29.2859 32.956L29.1765 33.2066L29.0789 33.4373C28.7675 34.2992 27.9981 34.907 27.081 35.0181L26.935 35.0315L26.8009 35.0352L26.6002 35.0358V36.3658L26.7974 36.3652C27.7073 36.3635 28.5391 36.8722 28.957 37.6835L29.0195 37.8141L29.0662 37.93C29.0979 38.0133 29.1316 38.0965 29.1656 38.1758L29.2166 38.2914C29.5998 39.1157 29.4875 40.0808 28.9262 40.8051L28.8285 40.9235L28.7322 41.0255L28.5882 41.1699L29.7844 42.3659C30.0367 42.6183 30.0561 43.0153 29.8426 43.2899L29.7844 43.3559C29.5321 43.6082 29.135 43.6276 28.8604 43.4141L28.7944 43.3559L27.2963 41.8535L27.2197 41.7569C26.9591 41.3782 26.9815 40.8732 27.2694 40.5171L27.3406 40.4377L27.7271 40.0511L27.7923 39.9824C28.0554 39.6823 28.1177 39.2487 27.9445 38.8761C27.901 38.7802 27.8584 38.6809 27.8191 38.5842L27.7306 38.3602C27.5852 38.0323 27.2638 37.8049 26.8991 37.7699L26.7987 37.7652L26.1773 37.7629L26.0668 37.7517C25.6024 37.6759 25.2498 37.2959 25.2048 36.8321L25.2 36.7315L25.2003 36.4001H21.8706Z" fill="#2F3A43"/>
    <path d="M36.9835 41.7431C36.1722 42.161 35.6635 42.9928 35.6652 43.9027L35.6657 44.1001H34.3357L34.3352 43.8992L34.3315 43.7651L34.3181 43.6191C34.207 42.702 33.5992 41.9326 32.7373 41.6212L32.5066 41.5236L32.3869 41.4703L32.3104 41.4414C31.9758 41.337 31.6087 41.4977 31.463 41.8258C31.3061 42.1791 31.4652 42.5928 31.8185 42.7497L31.9519 42.809L32.3295 42.967C32.6864 43.1352 32.9101 43.4619 32.9332 43.8297L32.9355 43.9199L32.9352 44.4665L32.94 44.5671C32.985 45.0309 33.3376 45.4109 33.802 45.4866L33.9125 45.4979L36.0315 45.5001L36.1321 45.4953C36.5959 45.4503 36.9759 45.0977 37.0517 44.6333L37.0629 44.5228L37.0652 43.9014L37.0699 43.801C37.1049 43.4363 37.3323 43.115 37.6602 42.9695L37.8845 42.8808C37.9816 42.8415 38.0813 42.7986 38.1784 42.7545C38.5494 42.583 38.9817 42.6454 39.2831 42.9087L39.3521 42.974L39.7387 43.3606L39.8177 43.4315C40.1719 43.7186 40.6758 43.7431 41.0538 43.4852L41.1506 43.409L42.6566 41.9028L42.7277 41.8238C43.0152 41.469 43.0383 40.964 42.7782 40.585L42.7018 40.4883L42.2588 40.0405L42.1865 39.9611C41.9387 39.6588 41.8818 39.2411 42.0448 38.8906C42.092 38.7867 42.1354 38.6862 42.1756 38.5878L42.2295 38.452L42.2704 38.355C42.4354 38.0103 42.7633 37.7873 43.1266 37.7666L43.2156 37.765L43.7665 37.7651L43.8671 37.7603C44.3309 37.7153 44.7109 37.3627 44.7867 36.8983L44.7979 36.7878L44.8002 34.6688L44.7953 34.5682C44.7504 34.1044 44.3977 33.7244 43.9333 33.6486L43.8228 33.6374L43.2015 33.6351L43.101 33.6304C42.7363 33.5954 42.415 33.368 42.2695 33.0401L42.181 32.8161C42.1418 32.7194 42.0991 32.6201 42.0556 32.5243C41.8824 32.1516 41.9447 31.718 42.2078 31.4179L42.2731 31.3492L42.6606 30.9616L42.7316 30.8825C43.0192 30.5277 43.0427 30.0232 42.7836 29.6446L42.7073 29.5478L41.2083 28.0445L41.129 27.9733C40.7737 27.6851 40.2687 27.662 39.8897 27.9221L39.793 27.9986L39.3426 28.4441L39.2635 28.5157C38.9624 28.761 38.5459 28.8173 38.1935 28.6547L38.0513 28.5914L37.6787 28.4357C37.3167 28.2675 37.0913 27.9404 37.0673 27.57L37.0648 27.4791L37.0652 26.9338L37.0603 26.8332C37.0154 26.3694 36.6627 25.9894 36.1983 25.9136L36.0878 25.9024L33.9688 25.9001L33.8682 25.905C33.4044 25.95 33.0244 26.3026 32.9487 26.767L32.9374 26.8775L32.9352 27.4988L32.9304 27.5993C32.8954 27.964 32.668 28.2853 32.3401 28.4308L32.1158 28.5195C32.0188 28.5588 31.919 28.6017 31.8219 28.6458C31.47 28.8058 31.3144 29.2208 31.4744 29.5727C31.6344 29.9247 32.0494 30.0803 32.4014 29.9203C32.5205 29.8661 32.6451 29.8141 32.7703 29.7664L32.8862 29.7197L33.0168 29.6572C33.8281 29.2393 34.3368 28.4075 34.3352 27.4976L34.3357 27.3001H35.6657L35.6652 27.501L35.6691 27.6371L35.682 27.7768C35.7931 28.7007 36.4065 29.4738 37.2752 29.7825L37.4958 29.8764L37.6159 29.93L37.747 29.9858C38.6284 30.3298 39.6502 30.1185 40.333 29.4336L40.4754 29.2916L41.4134 30.2296L41.2679 30.3749L41.1716 30.4768L41.0739 30.5952C40.5126 31.3195 40.4004 32.2846 40.7836 33.109L40.8851 33.3459L40.9806 33.5862L41.0431 33.7168C41.461 34.5281 42.2928 35.0368 43.2027 35.0351L43.4007 35.0351V36.3651H43.1993L43.0705 36.368L42.9318 36.3797C42.0139 36.4833 41.2375 37.0902 40.9215 37.9532L40.8768 38.0651L40.8273 38.1828L40.7728 38.3057L40.7164 38.4374C40.3683 39.3225 40.5814 40.3491 41.2707 41.0323L41.4092 41.1713L40.4712 42.1128L40.3254 41.9679L40.2223 41.8708L40.1039 41.7734C39.3798 41.2138 38.418 41.1013 37.5949 41.4819L37.4163 41.5596L37.1141 41.6806L36.9835 41.7431Z" fill="#2F3A43"/>
    <path d="M41.3 23.1001C40.9134 23.1001 40.6 22.7867 40.6 22.4001C40.6 22.0412 40.8702 21.7453 41.2184 21.7049L41.3 21.7001H44.1C44.4866 21.7001 44.8 22.0135 44.8 22.4001C44.8 22.7591 44.5298 23.055 44.1816 23.0954L44.1 23.1001H41.3Z" fill="#2F3A43"/>
    <path d="M39.2 22.4001C39.2 22.0142 38.886 21.7001 38.5 21.7001C38.114 21.7001 37.8 22.0142 37.8 22.4001C37.8 22.7862 38.114 23.1001 38.5 23.1001C38.886 23.1001 39.2 22.7862 39.2 22.4001Z" fill="#2F3A43"/>
</svg>
