<svg width="56" height="56" viewBox="0 0 56 56" fill="none" xmlns="http://www.w3.org/2000/svg">
    <path fill-rule="evenodd" clip-rule="evenodd" d="M52.5 15.4001C52.114 15.4001 51.8 15.0861 51.8 14.7001C51.8 14.3141 52.114 14.0001 52.5 14.0001C52.886 14.0001 53.2 14.3141 53.2 14.7001C53.2 15.0861 52.886 15.4001 52.5 15.4001Z" fill="#E0F0FE"/>
    <path fill-rule="evenodd" clip-rule="evenodd" d="M3.49999 42.0001C3.11401 42.0001 2.79999 41.6861 2.79999 41.3001C2.79999 40.9141 3.11401 40.6001 3.49999 40.6001C3.88597 40.6001 4.19999 40.9141 4.19999 41.3001C4.19999 41.6861 3.88597 42.0001 3.49999 42.0001Z" fill="#E0F0FE"/>
    <path fill-rule="evenodd" clip-rule="evenodd" d="M51.1 44.8001C50.714 44.8001 50.4 44.4861 50.4 44.1001C50.4 43.7141 50.714 43.4001 51.1 43.4001C51.486 43.4001 51.8 43.7141 51.8 44.1001C51.8 44.4861 51.486 44.8001 51.1 44.8001Z" fill="#E0F0FE"/>
    <path d="M23.1 26.6001H20.3C19.9134 26.6001 19.6 26.9135 19.6 27.3001V28.7001C19.6 29.0867 19.9134 29.4001 20.3 29.4001H23.1C23.4866 29.4001 23.8 29.0867 23.8 28.7001V27.3001C23.8 26.9135 23.4866 26.6001 23.1 26.6001Z" fill="#0079D0"/>
    <path d="M25.9 26.6001C26.259 26.6001 26.5548 26.8703 26.5953 27.2185L26.6 27.3001V28.0001H28.7C29.059 28.0001 29.3548 28.2703 29.3953 28.6185L29.4 28.7001C29.4 29.0591 29.1297 29.355 28.7816 29.3954L28.7 29.4001H25.9C25.541 29.4001 25.2451 29.1299 25.2047 28.7817L25.2 28.7001V27.3001C25.2 26.9135 25.5134 26.6001 25.9 26.6001Z" fill="#0079D0"/>
    <path d="M28.7 19.6001C29.0866 19.6001 29.4 19.9135 29.4 20.3001C29.4 20.6591 29.1297 20.955 28.7816 20.9954L28.7 21.0001H26.6V23.8001H28.7C29.059 23.8001 29.3548 24.0703 29.3953 24.4185L29.4 24.5001C29.4 24.8591 29.1297 25.155 28.7816 25.1954L28.7 25.2001H25.9C25.541 25.2001 25.2451 24.9299 25.2047 24.5817L25.2 24.5001V20.3001C25.2 19.9411 25.4702 19.6452 25.8183 19.6048L25.9 19.6001H28.7Z" fill="#0079D0"/>
    <path d="M28.7 30.8001C29.0866 30.8001 29.4 31.1135 29.4 31.5001C29.4 31.8591 29.1297 32.155 28.7816 32.1954L28.7 32.2001H26.6V35.0001H27.3V33.6001C27.3 33.2411 27.5702 32.9452 27.9183 32.9048L28 32.9001H28.7C29.0866 32.9001 29.4 33.2135 29.4 33.6001C29.4 33.9591 29.1297 34.255 28.7816 34.2954L28.7 34.3001V35.7001C28.7 36.0591 28.4297 36.355 28.0816 36.3954L28 36.4001H25.9C25.541 36.4001 25.2451 36.1299 25.2047 35.7817L25.2 35.7001V31.5001C25.2 31.1411 25.4702 30.8452 25.8183 30.8048L25.9 30.8001H28.7Z" fill="#0079D0"/>
    <path fill-rule="evenodd" clip-rule="evenodd" d="M41.0885 19.6001H41.5162C43.7164 19.6001 45.5 21.3837 45.5 23.5839V24.98C45.5 25.984 45.9249 26.9412 46.6695 27.6147L46.7216 27.6618C47.295 28.1804 47.3394 29.0658 46.8208 29.6392C46.5554 29.9327 46.1782 30.1001 45.7825 30.1001H36.8225C36.0493 30.1001 35.4225 29.4733 35.4225 28.7001C35.4225 28.3035 35.5907 27.9255 35.8853 27.66L36.0593 27.4974C36.7238 26.8358 37.1 25.935 37.1 24.9926V23.5886C37.1 21.3858 38.8857 19.6001 41.0885 19.6001ZM41.5162 21.0001H41.0885C39.6589 21.0001 38.5 22.159 38.5 23.5886V24.9926C38.5 26.3905 37.9071 27.7228 36.8686 28.6586L36.8225 28.7001H45.7825L45.5852 28.5162C44.6372 27.5869 44.1 26.313 44.1 24.98V23.5839C44.1 22.1569 42.9432 21.0001 41.5162 21.0001Z" fill="#0079D0"/>
    <path d="M41.3 32.2001C42.6199 32.2001 43.4 31.42 43.4 30.1001C43.4 29.7135 43.0866 29.4001 42.7 29.4001C42.3134 29.4001 42 29.7135 42 30.1001C42 30.6468 41.8467 30.8001 41.3 30.8001C40.7532 30.8001 40.6 30.6468 40.6 30.1001C40.6 29.7135 40.2866 29.4001 39.9 29.4001C39.5134 29.4001 39.2 29.7135 39.2 30.1001C39.2 31.42 39.98 32.2001 41.3 32.2001Z" fill="#0079D0"/>
    <path fill-rule="evenodd" clip-rule="evenodd" d="M14.7 30.8001H23.1C23.4866 30.8001 23.8 31.1135 23.8 31.5001V35.7001C23.8 36.0867 23.4866 36.4001 23.1 36.4001H14.7C14.3134 36.4001 14 36.0867 14 35.7001V31.5001C14 31.1135 14.3134 30.8001 14.7 30.8001ZM22.4 35.0001V32.2001H15.4V35.0001H22.4Z" fill="#2F3A43"/>
    <path fill-rule="evenodd" clip-rule="evenodd" d="M14.7 23.8001H17.5C17.8866 23.8001 18.2 24.1135 18.2 24.5001V28.7001C18.2 29.0867 17.8866 29.4001 17.5 29.4001H14.7C14.3134 29.4001 14 29.0867 14 28.7001V24.5001C14 24.1135 14.3134 23.8001 14.7 23.8001ZM16.8 28.0001V25.2001H15.4V28.0001H16.8Z" fill="#2F3A43"/>
    <path d="M16.1 19.6001H14.7C14.3134 19.6001 14 19.9135 14 20.3001V21.7001C14 22.0867 14.3134 22.4001 14.7 22.4001H16.1C16.4866 22.4001 16.8 22.0867 16.8 21.7001V20.3001C16.8 19.9135 16.4866 19.6001 16.1 19.6001Z" fill="#2F3A43"/>
    <path fill-rule="evenodd" clip-rule="evenodd" d="M23.1 19.6001H18.9C18.5134 19.6001 18.2 19.9135 18.2 20.3001V22.4001C18.2 22.7867 18.5134 23.1001 18.9 23.1001H20.3V24.5001C20.3 24.8591 20.5702 25.1549 20.9184 25.1954L21 25.2001H23.1C23.4866 25.2001 23.8 24.8867 23.8 24.5001V20.3001C23.8 19.9135 23.4866 19.6001 23.1 19.6001ZM19.6 21.7001V21.0001H22.4V23.8001H21.7V22.4001C21.7 22.0411 21.4298 21.7452 21.0816 21.7048L21 21.7001H19.6Z" fill="#2F3A43"/>
    <path d="M24.5 7.00007C24.8866 7.00007 25.2 7.31347 25.2 7.70007C25.2 8.08667 24.8866 8.40007 24.5 8.40007H18.9C18.5134 8.40007 18.2 8.08667 18.2 7.70007C18.2 7.31347 18.5134 7.00007 18.9 7.00007H24.5Z" fill="#2F3A43"/>
    <path d="M41.3 15.4001C43.1836 15.4001 44.9963 15.8974 46.5883 16.8272C46.9221 17.0221 47.0347 17.4508 46.8397 17.7846C46.6447 18.1185 46.216 18.2311 45.8822 18.0361C44.503 17.2306 42.9338 16.8001 41.3 16.8001C36.2742 16.8001 32.2 20.8743 32.2 25.9001C32.2 27.9784 32.8979 29.9483 34.1608 31.5435C34.4663 31.9294 34.4036 32.295 34.1574 32.7862L34.0645 32.9625L33.985 33.1015L33.8417 33.3331L33.7205 33.5188L33.2682 34.1909L33.5622 34.1013L34.5019 33.8L34.9251 33.6691L35.1645 33.5998L35.374 33.5447C35.8958 33.4161 36.137 33.4353 36.4085 33.5802L36.5123 33.6404C37.9387 34.5247 39.5835 35.0001 41.3 35.0001C46.3258 35.0001 50.4 30.9259 50.4 25.9001C50.4 23.8212 49.7017 21.8508 48.4382 20.2554C48.1982 19.9523 48.2494 19.512 48.5524 19.272C48.8555 19.032 49.2958 19.0831 49.5358 19.3862C50.9934 21.2268 51.8 23.5028 51.8 25.9001C51.8 31.6991 47.099 36.4001 41.3 36.4001C39.4251 36.4001 37.6212 35.9073 36.0366 34.9875L35.8799 34.8937L35.8515 34.8968C35.8153 34.9012 35.7728 34.9081 35.7247 34.9174L35.5027 34.9676L35.2434 35.0381L34.6868 35.2107L34.0366 35.4201L33.5703 35.5659L33.304 35.6444L33.0693 35.7079L32.863 35.7565C32.2831 35.8797 32.0407 35.8006 31.7297 35.5186C31.3107 35.1385 31.3666 34.7346 31.633 34.1991L31.7197 34.0333L31.7917 33.9057L31.9194 33.6968L32.0885 33.4373L32.5967 32.6797L32.7351 32.4626L32.8371 32.2889L32.8902 32.1889L32.726 31.9626C31.5364 30.2836 30.8604 28.2871 30.8039 26.1871L30.8 25.9001C30.8 20.1011 35.501 15.4001 41.3 15.4001Z" fill="#2F3A43"/>
    <path d="M31.5 4.20007C34.1498 4.20007 36.3084 6.30342 36.3972 8.93162L36.4 9.10007V13.3001C36.4 13.6867 36.0866 14.0001 35.7 14.0001C35.341 14.0001 35.0451 13.7298 35.0047 13.3817L35 13.3001V9.10007C35 7.21794 33.5144 5.6828 31.6518 5.60331L31.5 5.60007H11.9C10.0179 5.60007 8.48273 7.08569 8.40323 8.94825L8.4 9.10007V46.9001C8.4 48.7822 9.88561 50.3173 11.7482 50.3968L11.9 50.4001H31.5C33.3821 50.4001 34.9173 48.9145 34.9968 47.0519L35 46.9001V38.5001C35 38.1135 35.3134 37.8001 35.7 37.8001C36.059 37.8001 36.3549 38.0703 36.3953 38.4184L36.4 38.5001V46.9001C36.4 49.5499 34.2967 51.7084 31.6685 51.7972L31.5 51.8001H11.9C9.25018 51.8001 7.09163 49.6967 7.00284 47.0685L7 46.9001V9.10007C7 6.45026 9.10335 4.2917 11.7315 4.20291L11.9 4.20007H31.5Z" fill="#2F3A43"/>
    <path d="M28.7 46.2001C29.0866 46.2001 29.4 46.5135 29.4 46.9001C29.4 47.2591 29.1298 47.5549 28.7816 47.5954L28.7 47.6001H14.7C14.3134 47.6001 14 47.2867 14 46.9001C14 46.5411 14.2702 46.2452 14.6184 46.2048L14.7 46.2001H28.7Z" fill="#2F3A43"/>
</svg>
