<svg width="56" height="56" viewBox="0 0 56 56" fill="none" xmlns="http://www.w3.org/2000/svg">
    <path fill-rule="evenodd" clip-rule="evenodd" d="M51.1 23.1C50.714 23.1 50.4 22.786 50.4 22.4C50.4 22.014 50.714 21.7 51.1 21.7C51.486 21.7 51.8 22.014 51.8 22.4C51.8 22.786 51.486 23.1 51.1 23.1Z" fill="#E0F0FE"/>
    <path fill-rule="evenodd" clip-rule="evenodd" d="M8.40002 30.1C8.01404 30.1 7.70002 29.786 7.70002 29.4C7.70002 29.014 8.01404 28.7 8.40002 28.7C8.786 28.7 9.10002 29.014 9.10002 29.4C9.10002 29.786 8.786 30.1 8.40002 30.1Z" fill="#E0F0FE"/>
    <path fill-rule="evenodd" clip-rule="evenodd" d="M5.60002 4.20005C5.21404 4.20005 4.90002 3.88603 4.90002 3.50005C4.90002 3.11404 5.21404 2.80005 5.60002 2.80005C5.986 2.80005 6.30002 3.11404 6.30002 3.50005C6.30002 3.88603 5.986 4.20005 5.60002 4.20005Z" fill="#E0F0FE"/>
    <path fill-rule="evenodd" clip-rule="evenodd" d="M16.1 51.8C15.714 51.8 15.4 51.486 15.4 51.1C15.4 50.714 15.714 50.4 16.1 50.4C16.486 50.4 16.8 50.714 16.8 51.1C16.8 51.486 16.486 51.8 16.1 51.8Z" fill="#E0F0FE"/>
    <path fill-rule="evenodd" clip-rule="evenodd" d="M30.8 5.60005C30.414 5.60005 30.1 5.28603 30.1 4.90005C30.1 4.51404 30.414 4.20005 30.8 4.20005C31.186 4.20005 31.5 4.51404 31.5 4.90005C31.5 5.28603 31.186 5.60005 30.8 5.60005Z" fill="#E0F0FE"/>
    <path fill-rule="evenodd" clip-rule="evenodd" d="M49.7 50.4C49.314 50.4 49 50.086 49 49.7C49 49.314 49.314 49 49.7 49C50.086 49 50.4 49.314 50.4 49.7C50.4 50.086 50.086 50.4 49.7 50.4Z" fill="#E0F0FE"/>
    <path fill-rule="evenodd" clip-rule="evenodd" d="M46.2 9.79995C46.2 10.2274 46.0723 10.625 45.853 10.9567C46.6851 11.4376 47.25 12.2679 47.25 13.3C47.25 13.6866 46.9366 14 46.55 14C46.1634 14 45.85 13.6866 45.85 13.3C45.85 12.5989 45.2142 11.9 44.1 11.9C43.0008 11.9 42.35 12.6515 42.35 13.3C42.35 13.6866 42.0366 14 41.65 14C41.2634 14 40.95 13.6866 40.95 13.3C40.95 12.311 41.5158 11.4647 42.3552 10.969C42.1309 10.6348 42 10.2327 42 9.79995C42 8.64015 42.9402 7.69995 44.1 7.69995C45.2598 7.69995 46.2 8.64015 46.2 9.79995ZM43.4 9.79995C43.4 9.41335 43.7134 9.09995 44.1 9.09995C44.4866 9.09995 44.8 9.41335 44.8 9.79995C44.8 10.1866 44.4866 10.5 44.1 10.5C43.7134 10.5 43.4 10.1866 43.4 9.79995Z" fill="#0079D0"/>
    <path fill-rule="evenodd" clip-rule="evenodd" d="M18.9 13.3C18.9 13.7274 18.7723 14.125 18.553 14.4567C19.3851 14.9376 19.95 15.7679 19.95 16.8C19.95 17.1866 19.6366 17.5 19.25 17.5C18.8634 17.5 18.55 17.1866 18.55 16.8C18.55 16.0989 17.9142 15.4 16.8 15.4C15.7008 15.4 15.05 16.1515 15.05 16.8C15.05 17.1866 14.7366 17.5 14.35 17.5C13.9634 17.5 13.65 17.1866 13.65 16.8C13.65 15.811 14.2158 14.9647 15.0552 14.469C14.8309 14.1348 14.7 13.7327 14.7 13.3C14.7 12.1402 15.6402 11.2 16.8 11.2C17.9598 11.2 18.9 12.1402 18.9 13.3ZM16.1 13.3C16.1 12.9134 16.4134 12.6 16.8 12.6C17.1866 12.6 17.5 12.9134 17.5 13.3C17.5 13.6866 17.1866 14 16.8 14C16.4134 14 16.1 13.6866 16.1 13.3Z" fill="#0079D0"/>
    <path fill-rule="evenodd" clip-rule="evenodd" d="M26.25 25.2C26.25 25.9173 26.5198 26.5717 26.9634 27.0671C25.5029 27.7642 24.5 29.1705 24.5 30.8C24.5 31.1866 24.8134 31.5 25.2 31.5C25.5866 31.5 25.9 31.1866 25.9 30.8C25.9 29.3476 27.2135 28 29.05 28C30.896 28 32.2 29.2863 32.2 30.8C32.2 31.1866 32.5134 31.5 32.9 31.5C33.2866 31.5 33.6 31.1866 33.6 30.8C33.6 29.1202 32.5982 27.7389 31.1448 27.058C31.5835 26.5637 31.85 25.9129 31.85 25.2C31.85 23.6536 30.5964 22.4 29.05 22.4C27.5036 22.4 26.25 23.6536 26.25 25.2ZM29.05 23.8C28.2768 23.8 27.65 24.4268 27.65 25.2C27.65 25.9732 28.2768 26.6 29.05 26.6L29.0525 26.6C29.8245 26.5986 30.45 25.9723 30.45 25.2C30.45 24.4268 29.8232 23.8 29.05 23.8Z" fill="#0079D0"/>
    <path fill-rule="evenodd" clip-rule="evenodd" d="M32.9 44.0999C32.9 44.5274 32.7723 44.925 32.553 45.2567C33.3851 45.7376 33.95 46.5679 33.95 47.5999C33.95 47.9865 33.6366 48.2999 33.25 48.2999C32.8634 48.2999 32.55 47.9865 32.55 47.5999C32.55 46.8994 31.9151 46.201 30.8025 46.2L30.8 46.2L30.7976 46.2C29.6999 46.2011 29.05 46.9519 29.05 47.5999C29.05 47.9865 28.7366 48.2999 28.35 48.2999C27.9634 48.2999 27.65 47.9865 27.65 47.5999C27.65 46.611 28.2158 45.7647 29.0552 45.269C28.8309 44.9348 28.7 44.5327 28.7 44.0999C28.7 42.9402 29.6402 42 30.8 42C31.9598 42 32.9 42.9402 32.9 44.0999ZM30.1 44.0999C30.1 43.7134 30.4134 43.4 30.8 43.4C31.1866 43.4 31.5 43.7134 31.5 44.0999C31.5 44.4866 31.1866 44.8 30.8 44.8L30.7982 44.7999C30.4125 44.799 30.1 44.486 30.1 44.0999Z" fill="#0079D0"/>
    <path fill-rule="evenodd" clip-rule="evenodd" d="M46.9 28.7C45.7402 28.7 44.8 29.6402 44.8 30.8C44.8 31.2327 44.9309 31.6348 45.1552 31.969C44.3158 32.4647 43.75 33.311 43.75 34.3C43.75 34.6866 44.0634 35 44.45 35C44.8366 35 45.15 34.6866 45.15 34.3C45.15 33.6515 45.8008 32.9 46.9 32.9C48.0142 32.9 48.65 33.5989 48.65 34.3C48.65 34.6866 48.9634 35 49.35 35C49.7366 35 50.05 34.6866 50.05 34.3C50.05 33.2679 49.4851 32.4376 48.653 31.9567C48.8723 31.625 49 31.2274 49 30.8C49 29.6402 48.0598 28.7 46.9 28.7ZM46.2 30.8C46.2 30.4134 46.5134 30.1 46.9 30.1C47.2866 30.1 47.6 30.4134 47.6 30.8C47.6 31.1866 47.2866 31.5 46.9 31.5C46.5134 31.5 46.2 31.1866 46.2 30.8Z" fill="#0079D0"/>
    <path fill-rule="evenodd" clip-rule="evenodd" d="M11.9 40.5999C11.9 41.0274 11.7723 41.425 11.553 41.7567C12.3851 42.2376 12.95 43.0679 12.95 44.0999C12.95 44.4865 12.6366 44.7999 12.25 44.7999C11.8634 44.7999 11.55 44.4865 11.55 44.0999C11.55 43.3989 10.9142 42.7 9.80002 42.7C8.70085 42.7 8.05002 43.4515 8.05002 44.0999C8.05002 44.4865 7.73662 44.7999 7.35002 44.7999C6.96343 44.7999 6.65002 44.4865 6.65002 44.0999C6.65002 43.111 7.2158 42.2647 8.05523 41.769C7.8309 41.4348 7.70002 41.0327 7.70002 40.5999C7.70002 39.4402 8.64023 38.5 9.80002 38.5C10.9598 38.5 11.9 39.4402 11.9 40.5999ZM9.10002 40.5999C9.10002 40.2134 9.41342 39.9 9.80002 39.9C10.1866 39.9 10.5 40.2134 10.5 40.5999C10.5 40.9865 10.1866 41.2999 9.80002 41.2999C9.41342 41.2999 9.10002 40.9865 9.10002 40.5999Z" fill="#0079D0"/>
    <path d="M8.40002 18.2C8.78662 18.2 9.10002 17.8866 9.10002 17.5C9.10002 17.1134 8.78662 16.8 8.40002 16.8C8.01343 16.8 7.70002 17.1134 7.70002 17.5C7.70002 17.8866 8.01343 18.2 8.40002 18.2Z" fill="#0079D0"/>
    <path fill-rule="evenodd" clip-rule="evenodd" d="M46.9 27.2999C44.1938 27.2999 42 29.4937 42 32.1999C42 34.9061 44.1938 37.0999 46.9 37.0999C49.6062 37.0999 51.8 34.9061 51.8 32.1999C51.8 29.4937 49.6062 27.2999 46.9 27.2999ZM40.6 32.1999C40.6 28.7205 43.4206 25.8999 46.9 25.8999C50.3794 25.8999 53.2 28.7205 53.2 32.1999C53.2 35.6793 50.3794 38.4999 46.9 38.4999C43.4206 38.4999 40.6 35.6793 40.6 32.1999Z" fill="#2F3A43"/>
    <path fill-rule="evenodd" clip-rule="evenodd" d="M9.40343 19.0231C9.722 18.8041 10.1578 18.8848 10.3768 19.2033C11.0599 20.1969 12.0725 20.9685 13.2631 21.5638C13.6088 21.7367 13.749 22.1572 13.5761 22.503C13.4032 22.8487 12.9827 22.9889 12.6369 22.816C11.3075 22.1513 10.0801 21.2429 9.22317 19.9965C9.00415 19.6779 9.08486 19.2421 9.40343 19.0231Z" fill="#2F3A43"/>
    <path fill-rule="evenodd" clip-rule="evenodd" d="M16.8 9.7999C14.0938 9.7999 11.9 11.9937 11.9 14.6999C11.9 17.4061 14.0938 19.5999 16.8 19.5999C19.5062 19.5999 21.7 17.4061 21.7 14.6999C21.7 11.9937 19.5062 9.7999 16.8 9.7999ZM10.5 14.6999C10.5 11.2205 13.3206 8.3999 16.8 8.3999C20.2794 8.3999 23.1 11.2205 23.1 14.6999C23.1 18.1793 20.2794 20.9999 16.8 20.9999C13.3206 20.9999 10.5 18.1793 10.5 14.6999Z" fill="#2F3A43"/>
    <path fill-rule="evenodd" clip-rule="evenodd" d="M9.8 37.0999C7.0938 37.0999 4.9 39.2937 4.9 41.9999C4.9 44.7061 7.0938 46.8999 9.8 46.8999C12.5062 46.8999 14.7 44.7061 14.7 41.9999C14.7 39.2937 12.5062 37.0999 9.8 37.0999ZM3.5 41.9999C3.5 38.5205 6.32061 35.6999 9.8 35.6999C13.2794 35.6999 16.1 38.5205 16.1 41.9999C16.1 45.4793 13.2794 48.2999 9.8 48.2999C6.32061 48.2999 3.5 45.4793 3.5 41.9999Z" fill="#2F3A43"/>
    <path fill-rule="evenodd" clip-rule="evenodd" d="M37.8 11.1999C37.8 7.7333 40.6334 4.8999 44.1 4.8999C45.0514 4.8999 45.9984 5.13645 46.793 5.5338C47.1388 5.7067 47.279 6.12717 47.1061 6.47295C46.9332 6.81874 46.5127 6.95889 46.167 6.786C45.5616 6.48335 44.8286 6.2999 44.1 6.2999C41.4066 6.2999 39.2 8.5065 39.2 11.1999C39.2 13.8933 41.4066 16.0999 44.1 16.0999C46.7934 16.0999 49 13.8933 49 11.1999C49 10.8133 49.3134 10.4999 49.7 10.4999C50.0866 10.4999 50.4 10.8133 50.4 11.1999C50.4 14.6665 47.5666 17.4999 44.1 17.4999C40.6334 17.4999 37.8 14.6665 37.8 11.1999Z" fill="#2F3A43"/>
    <path fill-rule="evenodd" clip-rule="evenodd" d="M47.74 7.1399C47.972 6.83062 48.4107 6.76793 48.72 6.99989C48.7907 7.05292 48.8487 7.10925 48.89 7.15189C48.93 7.19306 48.9678 7.23569 48.9948 7.26604C48.996 7.26733 48.9971 7.2686 48.9982 7.26984C49.0294 7.30494 49.0483 7.32606 49.065 7.3433C49.071 7.34948 49.0749 7.35327 49.077 7.35519C49.3802 7.58848 49.4402 8.02295 49.21 8.32989C48.978 8.63917 48.5393 8.70185 48.23 8.4699C48.1593 8.41687 48.1013 8.36054 48.06 8.3179C48.02 8.27673 47.9822 8.23409 47.9552 8.20375C47.954 8.20246 47.9529 8.20119 47.9518 8.19995C47.9206 8.16484 47.9017 8.14373 47.885 8.12649C47.879 8.12031 47.8751 8.11651 47.873 8.1146C47.5698 7.88131 47.5098 7.44684 47.74 7.1399Z" fill="#2F3A43"/>
    <path fill-rule="evenodd" clip-rule="evenodd" d="M24.5 45.4999C24.5 42.0333 27.3334 39.1999 30.8 39.1999C34.2666 39.1999 37.1 42.0333 37.1 45.4999C37.1 48.9665 34.2666 51.7999 30.8 51.7999C29.8486 51.7999 28.9016 51.5634 28.107 51.166C27.7612 50.9931 27.621 50.5726 27.7939 50.2269C27.9668 49.8811 28.3873 49.7409 28.733 49.9138C29.3383 50.2165 30.0714 50.3999 30.8 50.3999C33.4934 50.3999 35.7 48.1933 35.7 45.4999C35.7 42.8065 33.4934 40.5999 30.8 40.5999C28.1066 40.5999 25.9 42.8065 25.9 45.4999C25.9 45.8865 25.5866 46.1999 25.2 46.1999C24.8134 46.1999 24.5 45.8865 24.5 45.4999Z" fill="#2F3A43"/>
    <path fill-rule="evenodd" clip-rule="evenodd" d="M26.04 48.5799C26.272 48.2706 26.7107 48.2079 27.02 48.4399C27.0907 48.4929 27.1487 48.5493 27.19 48.5919C27.23 48.6331 27.2678 48.6757 27.2948 48.706C27.296 48.7073 27.2971 48.7086 27.2982 48.7098C27.3294 48.7449 27.3483 48.7661 27.365 48.7833C27.371 48.7895 27.375 48.7933 27.377 48.7952C27.6802 49.0285 27.7402 49.463 27.51 49.7699C27.278 50.0792 26.8393 50.1419 26.53 49.9099C26.4593 49.8569 26.4013 49.8005 26.36 49.7579C26.32 49.7167 26.2822 49.6741 26.2552 49.6438C26.254 49.6425 26.2529 49.6412 26.2518 49.64C26.2206 49.6049 26.2017 49.5837 26.185 49.5665C26.179 49.5603 26.1751 49.5565 26.173 49.5546C25.8698 49.3213 25.8098 48.8868 26.04 48.5799Z" fill="#2F3A43"/>
    <path fill-rule="evenodd" clip-rule="evenodd" d="M29.05 20.9999C25.3773 20.9999 22.4 23.9772 22.4 27.6499C22.4 31.3226 25.3773 34.2999 29.05 34.2999C32.7227 34.2999 35.7 31.3226 35.7 27.6499C35.7 23.9772 32.7227 20.9999 29.05 20.9999ZM21 27.6499C21 23.204 24.6041 19.5999 29.05 19.5999C33.4959 19.5999 37.1 23.204 37.1 27.6499C37.1 32.0958 33.4959 35.6999 29.05 35.6999C24.6041 35.6999 21 32.0958 21 27.6499Z" fill="#2F3A43"/>
    <path fill-rule="evenodd" clip-rule="evenodd" d="M40.395 14.9049C40.6683 15.1783 40.6683 15.6215 40.395 15.8949L34.095 22.1949C33.8216 22.4683 33.3784 22.4683 33.105 22.1949C32.8317 21.9215 32.8317 21.4783 33.105 21.2049L39.405 14.9049C39.6784 14.6316 40.1216 14.6316 40.395 14.9049Z" fill="#2F3A43"/>
    <path fill-rule="evenodd" clip-rule="evenodd" d="M35.7179 29.9425C35.8049 29.5658 36.1807 29.3309 36.5574 29.4178L41.1074 30.4678C41.4841 30.5548 41.719 30.9306 41.6321 31.3073C41.5452 31.684 41.1693 31.9189 40.7926 31.832L36.2426 30.782C35.8659 30.695 35.631 30.3192 35.7179 29.9425Z" fill="#2F3A43"/>
    <path fill-rule="evenodd" clip-rule="evenodd" d="M30.0419 34.6523C30.4271 34.6202 30.7655 34.9065 30.7976 35.2918L31.1476 39.4918C31.1797 39.877 30.8934 40.2154 30.5081 40.2475C30.1229 40.2796 29.7845 39.9933 29.7524 39.608L29.4024 35.408C29.3703 35.0228 29.6566 34.6844 30.0419 34.6523Z" fill="#2F3A43"/>
    <path fill-rule="evenodd" clip-rule="evenodd" d="M20.155 18.7549C20.4284 18.4816 20.8716 18.4816 21.145 18.7549L24.295 21.9049C24.5683 22.1783 24.5683 22.6215 24.295 22.8949C24.0216 23.1682 23.5784 23.1682 23.305 22.8949L20.155 19.7449C19.8817 19.4715 19.8817 19.0283 20.155 18.7549Z" fill="#2F3A43"/>
    <path fill-rule="evenodd" clip-rule="evenodd" d="M23.3129 32.1338C23.5427 32.4447 23.477 32.883 23.1661 33.1128L15.1161 39.0628C14.8052 39.2926 14.3669 39.2269 14.1371 38.916C13.9073 38.6051 13.973 38.1668 14.2839 37.937L22.3339 31.987C22.6448 31.7572 23.0831 31.8229 23.3129 32.1338Z" fill="#2F3A43"/>
</svg>
