<svg width="56" height="56" viewBox="0 0 56 56" fill="none" xmlns="http://www.w3.org/2000/svg">
    <path fill-rule="evenodd" clip-rule="evenodd" d="M47.6 9.1001C47.214 9.1001 46.9 8.78608 46.9 8.4001C46.9 8.01408 47.214 7.7001 47.6 7.7001C47.986 7.7001 48.3 8.01408 48.3 8.4001C48.3 8.78608 47.986 9.1001 47.6 9.1001Z" fill="#E0F0FE"/>
    <path fill-rule="evenodd" clip-rule="evenodd" d="M21 56.0001C20.614 56.0001 20.3 55.6861 20.3 55.3001C20.3 54.9141 20.614 54.6001 21 54.6001C21.386 54.6001 21.7 54.9141 21.7 55.3001C21.7 55.6861 21.386 56.0001 21 56.0001Z" fill="#E0F0FE"/>
    <path fill-rule="evenodd" clip-rule="evenodd" d="M10.5 7.0001C10.114 7.0001 9.79999 6.68608 9.79999 6.3001C9.79999 5.91408 10.114 5.6001 10.5 5.6001C10.886 5.6001 11.2 5.91408 11.2 6.3001C11.2 6.68608 10.886 7.0001 10.5 7.0001Z" fill="#E0F0FE"/>
    <path fill-rule="evenodd" clip-rule="evenodd" d="M37.8 24.5001C31.2279 24.5001 25.9 29.8279 25.9 36.4001C25.9 36.4447 25.9003 36.4892 25.9008 36.5337C25.8742 38.8529 26.5541 41.1903 27.9688 43.2192C30.1196 46.3038 33.5686 48.1016 37.1877 48.2846C37.3452 48.2926 37.5036 48.2976 37.6628 48.2993C39.2282 48.3172 40.816 48.0324 42.3359 47.4187C42.3804 47.4007 42.4225 47.3784 42.4616 47.3524C44.1737 46.6228 45.6799 45.5033 46.8687 44.1056C46.9532 44.0631 47.0326 44.0006 47.102 43.9156C48.8289 41.7984 49.7287 39.1833 49.6994 36.5291C49.6998 36.4862 49.7 36.4432 49.7 36.4001C49.7 29.8279 44.3722 24.5001 37.8 24.5001ZM41.1755 26.4545C40.1161 26.095 38.9809 25.9001 37.8 25.9001C34.9592 25.9001 32.3818 27.0283 30.4916 28.8611C30.6151 29.0182 30.7186 29.1891 30.7987 29.3691C30.8705 29.5263 30.9297 29.688 30.9775 29.8548C31.0722 30.1855 31.1162 30.4655 31.135 30.8425L31.1448 31.1456C31.1467 31.2543 31.1475 31.3713 31.1475 31.4989L31.1479 31.6389L31.152 31.8754L31.161 32.0585L31.1757 32.1972C31.1875 32.277 31.2037 32.3331 31.2251 32.3777C31.2285 32.3849 31.2452 32.3956 31.2752 32.4093L31.3529 32.4407L31.4664 32.4794L31.6158 32.5246L31.9078 32.6027L32.2821 32.6908L33.1347 32.8733L33.4335 32.9479C33.959 33.0899 34.3475 33.3277 34.7979 33.7574L34.8922 33.8493L34.8848 33.8336C34.4674 32.865 34.4104 31.5968 34.6735 30.7503L34.7232 30.6054C35.0853 29.6443 35.8985 29.2714 37.0131 29.2456C37.0473 29.2448 37.0809 29.2443 37.1143 29.2441L37.3178 29.246C37.3529 29.2469 37.3888 29.248 37.4262 29.2494L38.184 29.2914L38.4025 29.298L38.5078 29.2961L38.5921 29.2892C38.7103 29.2748 38.853 29.1336 39.0128 28.8206L39.2502 28.2884L39.3384 28.1023C39.3805 28.0171 39.4185 27.9474 39.4459 27.9106C39.6775 27.6008 40.0443 27.2727 40.5827 26.8745L40.8937 26.65L41.1755 26.4545ZM38.144 46.8946C38.0298 46.8983 37.9151 46.9001 37.8 46.9001C32.046 46.9001 27.373 42.2718 27.3009 36.5349C27.3295 34.3127 28.0977 32.1101 29.5733 30.2981L29.6282 30.231L29.6316 30.2402C29.6833 30.4207 29.7131 30.5887 29.7295 30.8079L29.7417 31.0464L29.7469 31.3331L29.7496 31.8153C29.759 32.3732 29.8031 32.6506 29.9634 32.9846C30.214 33.5045 30.5828 33.7223 31.4745 33.9437L31.774 34.0141L32.1111 34.0869L32.7108 34.2129L32.903 34.2571L33.0679 34.2993C33.4419 34.4004 33.7597 34.6596 34.3003 35.2633L34.6718 35.678C34.8831 35.906 35.0259 36.0412 35.1856 36.1323C35.4192 36.2653 35.7083 36.2529 35.9296 36.1003C36.1964 35.9164 36.4801 35.5046 36.614 35.0353C36.7463 34.5715 36.719 34.1093 36.4747 33.7633L36.4027 33.6719C35.9204 33.1156 35.7945 31.7302 36.0329 31.1C36.149 30.792 36.4383 30.6593 37.0455 30.6452L37.2078 30.6443L37.487 30.6536L38.055 30.6869L38.2766 30.6964C38.3096 30.6974 38.3409 30.698 38.3708 30.6984L38.5367 30.6967L38.6866 30.687C38.7112 30.6847 38.7359 30.682 38.7609 30.679C39.407 30.6 39.8478 30.2012 40.1882 29.5913L40.288 29.4002L40.3509 29.2655L40.5044 28.9112L40.5672 28.7528C40.5685 28.7485 40.5686 28.747 40.5675 28.7486C40.6652 28.6178 40.8418 28.4515 41.0919 28.2509L41.3242 28.0707L41.5917 27.8737C41.6392 27.8395 41.6882 27.8046 41.7385 27.7691L42.0577 27.5475L42.2821 27.3953L42.4245 27.4615C45.1904 28.7845 47.2292 31.2316 47.9836 34.1606L48.0464 34.4188C48.207 35.1183 48.2905 35.8258 48.2992 36.5304C48.2809 38.0415 47.9433 39.4758 47.3508 40.7689C47.2459 39.8677 46.9318 39.4092 46.1256 38.9587C45.8492 38.8065 45.6303 38.697 45.37 38.5777L45.1655 38.4856C44.5876 38.2303 44.4516 38.1328 44.1422 37.6905L43.9823 37.4589C43.1944 36.2876 42.5856 35.912 41.1412 36.1353C38.5795 36.5324 37.8361 37.0244 37.6379 38.3328L37.5698 38.8008C37.5626 38.8543 37.5559 38.9063 37.5497 38.9569L37.5193 39.2435C37.4443 40.1006 37.5794 40.4982 38.0834 41.0154L38.4518 41.3964L38.7976 41.7611L39.1205 42.1092L39.4204 42.4403L39.6971 42.7542L39.9506 43.0506L40.1805 43.3292L40.3869 43.5898L40.5695 43.8319C40.5979 43.8708 40.6254 43.9088 40.6518 43.946L40.7984 44.1601C40.933 44.3646 41.0313 44.5406 41.0927 44.6865L41.1572 44.8499C41.3015 45.2381 41.4007 45.6732 41.4146 46.1073L41.4148 46.2613C40.3899 46.6371 39.2902 46.8577 38.144 46.8946ZM42.7849 45.6437C43.9934 44.9906 45.0593 44.1075 45.9239 43.0529C45.9716 42.7423 45.9967 42.4113 45.9967 42.0596L45.9966 41.7628L45.9948 41.4848L45.9891 41.2475L45.978 41.0466C45.9373 40.5248 45.8128 40.3876 45.4465 40.1829L45.2737 40.0896C45.0522 39.9726 44.858 39.8809 44.5985 39.7657L44.4463 39.6971C43.7629 39.3825 43.441 39.1305 42.9926 38.4894L42.7537 38.1415L42.6231 37.9568C42.3151 37.5386 42.1267 37.438 41.6669 37.4788L41.4676 37.5022L41.1706 37.5478L40.6768 37.6299L40.2672 37.707L40.0368 37.757L39.8377 37.807C39.2849 37.9575 39.1218 38.1181 39.0514 38.392L39.031 38.4877L38.9821 38.8102L38.9315 39.1664L38.9099 39.3525L38.8983 39.5041L38.8969 39.6268C38.9015 39.7553 38.9276 39.8364 38.9772 39.9104L39.0255 39.9731C39.0436 39.994 39.0636 40.0153 39.0857 40.0379L39.2938 40.2522L39.6904 40.6669L40.0611 41.0631L40.4057 41.4412L40.7243 41.8011L41.0169 42.1429L41.2835 42.4669L41.5241 42.7731C41.9415 43.3183 42.2279 43.7744 42.3837 44.145C42.5759 44.6043 42.7225 45.112 42.7849 45.6437Z" fill="#0079D0"/>
    <path d="M46.8953 12.5185C46.8549 12.1704 46.559 11.9001 46.2 11.9001H8.40001L8.31838 11.9049C7.97024 11.9453 7.70001 12.2412 7.70001 12.6001V44.8001L7.70472 44.8818C7.74516 45.2299 8.04103 45.5001 8.40001 45.5001H25.2L25.2816 45.4954C25.6298 45.455 25.9 45.1591 25.9 44.8001L25.8953 44.7185C25.8549 44.3704 25.559 44.1001 25.2 44.1001H9.10001V18.9001H35L35.0816 18.8954C35.4298 18.855 35.7 18.5591 35.7 18.2001C35.7 17.8135 35.3866 17.5001 35 17.5001H9.10001V13.3001H45.5V17.5001H39.2L39.1184 17.5049C38.7702 17.5453 38.5 17.8412 38.5 18.2001C38.5 18.5867 38.8134 18.9001 39.2 18.9001H45.5V23.8001L45.5047 23.8818C45.5452 24.2299 45.841 24.5001 46.2 24.5001C46.5866 24.5001 46.9 24.1867 46.9 23.8001V12.6001L46.8953 12.5185Z" fill="#2F3A43"/>
    <path d="M11.2 16.1001C10.814 16.1001 10.5 15.7861 10.5 15.4001C10.5 15.0141 10.814 14.7001 11.2 14.7001C11.586 14.7001 11.9 15.0141 11.9 15.4001C11.9 15.7861 11.586 16.1001 11.2 16.1001Z" fill="#2F3A43"/>
    <path d="M13.3 15.4001C13.3 15.7861 13.614 16.1001 14 16.1001C14.386 16.1001 14.7 15.7861 14.7 15.4001C14.7 15.0141 14.386 14.7001 14 14.7001C13.614 14.7001 13.3 15.0141 13.3 15.4001Z" fill="#2F3A43"/>
    <path d="M16.8 16.1001C16.414 16.1001 16.1 15.7861 16.1 15.4001C16.1 15.0141 16.414 14.7001 16.8 14.7001C17.186 14.7001 17.5 15.0141 17.5 15.4001C17.5 15.7861 17.186 16.1001 16.8 16.1001Z" fill="#2F3A43"/>
    <path d="M43.4 14.7001C43.7866 14.7001 44.1 15.0135 44.1 15.4001C44.1 15.7591 43.8298 16.055 43.4816 16.0954L43.4 16.1001H22.4C22.0134 16.1001 21.7 15.7867 21.7 15.4001C21.7 15.0412 21.9702 14.7453 22.3184 14.7049L22.4 14.7001H43.4Z" fill="#2F3A43"/>
    <path d="M27.3 23.8001C27.3 23.4135 26.9866 23.1001 26.6 23.1001H14L13.9184 23.1049C13.5702 23.1453 13.3 23.4412 13.3 23.8001C13.3 24.1867 13.6134 24.5001 14 24.5001H26.6L26.6816 24.4954C27.0298 24.455 27.3 24.1591 27.3 23.8001Z" fill="#2F3A43"/>
    <path d="M23.8 27.3001C24.1866 27.3001 24.5 27.6135 24.5 28.0001C24.5 28.3591 24.2298 28.655 23.8816 28.6954L23.8 28.7001H14C13.6134 28.7001 13.3 28.3867 13.3 28.0001C13.3 27.6412 13.5702 27.3453 13.9184 27.3049L14 27.3001H23.8Z" fill="#2F3A43"/>
    <path d="M23.1 32.2001C23.1 31.8135 22.7866 31.5001 22.4 31.5001H14L13.9184 31.5049C13.5702 31.5453 13.3 31.8412 13.3 32.2001C13.3 32.5867 13.6134 32.9001 14 32.9001H22.4L22.4816 32.8954C22.8298 32.855 23.1 32.5591 23.1 32.2001Z" fill="#2F3A43"/>
</svg>
