<svg width="242" height="105" viewBox="0 0 242 105" fill="none" xmlns="http://www.w3.org/2000/svg">
<path d="M31.7539 44.101C34.4816 44.101 36.6033 42.8022 37.9026 40.7237V36.9563L32.0135 37.9523C29.2854 38.4288 28.1598 39.5976 28.1598 41.2433C28.1598 42.9322 29.5023 44.101 31.7539 44.101ZM23.6564 41.4166C23.6564 38.1256 26.2113 35.7439 30.8442 34.9646L37.9026 33.7954V32.6698C37.9026 29.9853 35.9105 28.3396 33.096 28.3396C30.7143 28.3396 28.8526 29.422 27.597 31.1978L24.2629 28.6428C26.2113 26.0447 29.3291 24.3994 33.226 24.3994C39.1146 24.3994 42.3624 27.8636 42.3624 32.6698V47.0887H37.9026V44.6206C36.3437 46.5259 33.6156 47.7379 30.9311 47.7379C26.6009 47.7379 23.6564 45.2698 23.6564 41.4166Z" fill="#2B3E88"/>
<path d="M44.7874 25.2655H49.247V27.3872C50.8923 25.655 53.0576 24.3994 56.1754 24.3994C60.9816 24.3994 64.6621 27.6468 64.6621 33.9685V47.0887H60.1587V34.1418C60.1587 30.678 58.2534 28.5996 55.1361 28.5996C52.1485 28.5996 50.3731 30.4612 49.247 32.3664V47.0887H44.7874V25.2655Z" fill="#2B3E88"/>
<path d="M41.7078 68.5975L45.3006 71.3475C43.2605 74.097 39.9782 75.8713 35.8538 75.8713C28.3583 75.8713 23.6564 70.3271 23.6564 63.8073C23.6564 57.2875 28.3583 51.7434 35.8538 51.7434C39.934 51.7434 43.2605 53.5178 45.3006 56.2678L41.7078 59.0173C40.4663 57.2875 38.4262 56.046 35.8538 56.046C31.5512 56.046 28.4466 59.4166 28.4466 63.8073C28.4466 68.2428 31.5512 71.5693 35.8978 71.5693C38.4262 71.5693 40.4663 70.3272 41.7078 68.5975Z" fill="#2B3E88"/>
<path d="M52.3496 57.2086H47.5048V53.1822H52.3496V47.7258H56.8531V53.1822H64.662V57.2086H56.8531V67.4279C56.8531 70.3719 58.412 71.3249 60.8364 71.3249C62.3089 71.3249 63.8828 71.1517 64.662 70.8485V74.789C63.6228 75.2218 61.8324 75.4382 60.144 75.4382C55.0342 75.4382 52.3496 72.7537 52.3496 67.4279V57.2086Z" fill="#2B3E88"/>
<path d="M67.6911 21.4023V24.3997H72.0301V20.1946C72.0301 18.677 70.6808 17.1298 69.1666 17.0317H64.6621V21.2165L67.6911 21.4023Z" fill="#2B3E88"/>
<path d="M71.6732 82.8561V64.7336H76.0121V84.0637C76.0121 85.5814 74.6629 87.1285 73.1486 87.2266H53.5193V83.0419L71.6732 82.8561Z" fill="#62AA9C"/>
<path d="M20.6273 78.9784V75.981H16.2885V80.1859C16.2885 81.7036 17.6377 83.2508 19.152 83.3488H23.6563V79.1642L20.6273 78.9784Z" fill="#5C6ABC"/>
<path d="M20.6273 21.4023V24.3997H16.2885V20.1946C16.2885 18.677 17.6377 17.1298 19.152 17.0317H23.6563V21.2165L20.6273 21.4023Z" fill="#298472"/>
<path d="M87.2139 39.259C88.3238 39.259 89.2872 38.2747 89.2872 37.1438C89.2872 36.0129 88.3238 35.0496 87.2139 35.0496C86.0621 35.0496 85.0987 36.0129 85.0987 37.1438C85.0987 38.2747 86.0621 39.259 87.2139 39.259ZM85.5176 50.9657H88.8474V40.4108H85.5176V50.9657ZM91.3619 50.9657H94.6917V44.3898C94.9011 44.0338 95.4247 43.1123 96.5974 43.1123C97.6655 43.1123 98.2309 43.8453 98.2309 44.9134V50.9657H101.582V44.7668C101.582 41.5626 99.7388 39.9919 97.4979 39.9919C96.2623 39.9919 95.3828 40.4108 94.6917 40.9972V40.4108H91.3619V50.9657ZM109.252 48.2642C107.828 48.2642 106.823 47.2589 106.823 45.6883C106.823 44.1385 107.828 43.1123 109.19 43.1123C110.111 43.1123 110.76 43.5312 111.137 44.0757L113.734 42.1071C112.75 40.8087 111.179 39.9919 109.231 39.9919C105.504 39.9919 103.368 42.6097 103.368 45.6883C103.368 48.7668 105.504 51.3846 109.231 51.3846C111.179 51.3846 112.75 50.5678 113.734 49.2694L111.137 47.3008C110.76 47.8453 110.09 48.2642 109.252 48.2642ZM121.838 46.3793C121.838 47.4893 121.272 48.2642 120.079 48.2642C118.843 48.2642 118.298 47.4893 118.298 46.3793V40.4108H114.948V46.1909C114.948 49.3532 116.77 51.3846 120.058 51.3846C123.304 51.3846 125.188 49.3532 125.188 46.1909V40.4108H121.838V46.3793ZM139.066 45.6883C139.066 42.6097 137.119 39.9919 133.747 39.9919C132.448 39.9919 131.527 40.348 130.815 40.9972V35.259H127.485V50.9657H130.815V50.3793C131.527 51.0285 132.448 51.3846 133.747 51.3846C137.119 51.3846 139.066 48.7668 139.066 45.6883ZM133.265 43.1123C134.731 43.1123 135.632 44.1385 135.632 45.6883C135.632 47.238 134.731 48.2642 133.265 48.2642C132.239 48.2642 131.443 47.8244 130.815 47.0286V44.3479C131.38 43.5731 132.197 43.1123 133.265 43.1123ZM143.995 51.2798C145.105 51.2798 146.298 50.8191 146.885 50.1699V50.9657H150.194V44.3061C150.194 42.0024 148.644 39.9919 145.293 39.9919C143.324 39.9919 141.712 40.7878 140.749 42.1281L143.178 43.971C143.66 43.2799 144.309 42.861 145.188 42.861C146.173 42.861 146.864 43.4684 146.885 44.2642L143.911 44.7668C141.607 45.1438 140.372 46.3793 140.372 47.9919C140.372 50.0443 141.859 51.2798 143.995 51.2798ZM143.66 47.8244C143.66 47.3427 143.953 47.0286 144.811 46.882L146.885 46.5259V47.5731C146.466 48.2013 145.796 48.7039 144.728 48.7039C144.078 48.7039 143.66 48.3689 143.66 47.8244ZM153.343 46.861C153.343 49.4579 154.537 51.1751 157.406 51.1751C158.39 51.1751 159.039 51.0495 159.605 50.7982V47.9291C159.291 48.0547 158.788 48.1594 158.013 48.1594C157.134 48.1594 156.694 47.6987 156.694 46.861V43.3846H159.584V40.4108H156.694V37.7721H153.343V40.4108H151.374V43.3846H153.343V46.861ZM171.266 49.2694L168.921 47.4055C168.439 48.0128 167.559 48.4108 166.554 48.4108C165.298 48.4108 164.376 48.0338 164.062 46.6097H170.889C170.994 46.2328 171.099 45.5626 171.099 44.8506C171.099 41.9815 169.13 39.9919 166.135 39.9919C162.554 39.9919 160.648 42.6307 160.648 45.6883C160.648 48.7668 162.701 51.3846 166.575 51.3846C168.606 51.3846 170.261 50.5888 171.266 49.2694ZM166.052 42.6726C167.287 42.6726 167.832 43.5521 167.874 44.2642H164.083C164.334 43.1961 164.983 42.6726 166.052 42.6726ZM179.733 46.3793C179.733 47.4893 179.167 48.2642 177.974 48.2642C176.738 48.2642 176.193 47.4893 176.193 46.3793V40.4108H172.843V46.1909C172.843 49.3532 174.665 51.3846 177.953 51.3846C181.199 51.3846 183.083 49.3532 183.083 46.1909V40.4108H179.733V46.3793ZM185.379 50.9657H188.709V44.5574C188.918 44.2013 189.714 43.4893 190.929 43.4893C191.473 43.4893 191.871 43.5521 192.227 43.6359V40.348C191.976 40.2642 191.641 40.2014 191.264 40.2014C190.175 40.2014 189.358 40.6621 188.709 41.2694V40.4108H185.379V50.9657ZM84.8893 65.4671C84.8893 68.5456 86.8579 71.1634 90.2086 71.1634C91.507 71.1634 92.4076 70.8074 93.1196 70.1791V70.7446H96.4704V55.0378H93.1196V60.7551C92.4076 60.1268 91.507 59.7708 90.2086 59.7708C86.8579 59.7708 84.8893 62.3886 84.8893 65.4671ZM88.3448 65.4671C88.3448 63.9174 89.2243 62.8912 90.6903 62.8912C91.7165 62.8912 92.5123 63.31 93.1196 64.1058V66.8283C92.5123 67.6242 91.7165 68.043 90.6903 68.043C89.2243 68.043 88.3448 67.0168 88.3448 65.4671ZM108.98 69.0482L106.634 67.1844C106.152 67.7917 105.273 68.1896 104.268 68.1896C103.011 68.1896 102.09 67.8126 101.776 66.3886H108.603C108.707 66.0116 108.812 65.3414 108.812 64.6294C108.812 61.7603 106.844 59.7708 103.849 59.7708C100.268 59.7708 98.3619 62.4095 98.3619 65.4671C98.3619 68.5456 100.414 71.1634 104.289 71.1634C106.32 71.1634 107.974 70.3676 108.98 69.0482ZM103.765 62.4514C105.001 62.4514 105.545 63.331 105.587 64.043H101.796C102.048 62.975 102.697 62.4514 103.765 62.4514ZM109.888 69.1529C110.956 70.3676 112.297 71.1634 114.328 71.1634C116.359 71.1634 118.307 69.9487 118.348 67.5613C118.348 63.8755 113.469 64.42 113.469 63.0587C113.469 62.7027 113.742 62.4095 114.328 62.4095C115.082 62.4095 115.71 62.975 116.213 63.5613L118.39 61.6137C117.595 60.5875 116.003 59.7708 114.328 59.7708C112.003 59.7708 110.307 61.2158 110.307 63.2263C110.307 66.9331 115.187 66.3467 115.187 67.7917C115.187 68.2105 114.893 68.5247 114.286 68.5247C113.344 68.5247 112.632 67.8964 112.066 67.1634L109.888 69.1529ZM126.397 66.6399C126.397 69.2367 127.591 70.954 130.46 70.954C131.444 70.954 132.094 70.8283 132.659 70.577V67.7079C132.345 67.8336 131.842 67.9383 131.067 67.9383C130.188 67.9383 129.748 67.4776 129.748 66.6399V63.1634H132.638V60.1896H129.748V57.5509H126.397V60.1896H124.429V63.1634H126.397V66.6399ZM144.32 69.0482L141.975 67.1844C141.493 67.7917 140.614 68.1896 139.608 68.1896C138.352 68.1896 137.43 67.8126 137.116 66.3886H143.943C144.048 66.0116 144.153 65.3414 144.153 64.6294C144.153 61.7603 142.184 59.7708 139.19 59.7708C135.608 59.7708 133.703 62.4095 133.703 65.4671C133.703 68.5456 135.755 71.1634 139.629 71.1634C141.661 71.1634 143.315 70.3676 144.32 69.0482ZM139.106 62.4514C140.341 62.4514 140.886 63.331 140.928 64.043H137.137C137.389 62.975 138.038 62.4514 139.106 62.4514ZM146.209 70.7446H149.539V64.3362C149.748 63.9802 150.544 63.2682 151.758 63.2682C152.303 63.2682 152.701 63.331 153.057 63.4148V60.1268C152.806 60.043 152.47 59.9802 152.093 59.9802C151.005 59.9802 150.188 60.4409 149.539 61.0483V60.1896H146.209V70.7446ZM154.63 70.7446H157.96V64.3362C158.169 63.9802 158.965 63.2682 160.18 63.2682C160.724 63.2682 161.122 63.331 161.478 63.4148V60.1268C161.227 60.043 160.892 59.9802 160.515 59.9802C159.426 59.9802 158.609 60.4409 157.96 61.0483V60.1896H154.63V70.7446ZM164.747 59.0378C165.857 59.0378 166.821 58.0535 166.821 56.9226C166.821 55.7917 165.857 54.8284 164.747 54.8284C163.595 54.8284 162.632 55.7917 162.632 56.9226C162.632 58.0535 163.595 59.0378 164.747 59.0378ZM163.051 70.7446H166.381V60.1896H163.051V70.7446ZM169.628 66.6399C169.628 69.2367 170.822 70.954 173.691 70.954C174.675 70.954 175.324 70.8283 175.89 70.577V67.7079C175.576 67.8336 175.073 67.9383 174.298 67.9383C173.419 67.9383 172.979 67.4776 172.979 66.6399V63.1634H175.869V60.1896H172.979V57.5509H169.628V60.1896H167.659V63.1634H169.628V66.6399ZM182.776 59.7708C179.3 59.7708 176.933 62.242 176.933 65.4671C176.933 68.6922 179.3 71.1634 182.776 71.1634C186.232 71.1634 188.598 68.6922 188.598 65.4671C188.598 62.242 186.232 59.7708 182.776 59.7708ZM182.797 68.043C181.415 68.043 180.389 67.0378 180.389 65.4671C180.389 63.8964 181.415 62.8912 182.797 62.8912C184.138 62.8912 185.164 63.8755 185.164 65.4671C185.164 67.0168 184.138 68.043 182.797 68.043ZM192.178 59.0378C193.288 59.0378 194.252 58.0535 194.252 56.9226C194.252 55.7917 193.288 54.8284 192.178 54.8284C191.026 54.8284 190.063 55.7917 190.063 56.9226C190.063 58.0535 191.026 59.0378 192.178 59.0378ZM190.482 70.7446H193.812V60.1896H190.482V70.7446ZM196.326 70.7446H199.656V64.3362C199.865 63.9802 200.661 63.2682 201.876 63.2682C202.42 63.2682 202.818 63.331 203.174 63.4148V60.1268C202.923 60.043 202.588 59.9802 202.211 59.9802C201.122 59.9802 200.305 60.4409 199.656 61.0483V60.1896H196.326V70.7446ZM214.429 69.0482L212.084 67.1844C211.602 67.7917 210.723 68.1896 209.717 68.1896C208.461 68.1896 207.539 67.8126 207.225 66.3886H214.052C214.157 66.0116 214.262 65.3414 214.262 64.6294C214.262 61.7603 212.293 59.7708 209.299 59.7708C205.717 59.7708 203.812 62.4095 203.812 65.4671C203.812 68.5456 205.864 71.1634 209.738 71.1634C211.77 71.1634 213.424 70.3676 214.429 69.0482ZM209.215 62.4514C210.45 62.4514 210.995 63.331 211.037 64.043H207.246C207.498 62.975 208.147 62.4514 209.215 62.4514ZM215.338 69.1529C216.406 70.3676 217.746 71.1634 219.778 71.1634C221.809 71.1634 223.757 69.9487 223.799 67.5613C223.799 63.8755 218.919 64.42 218.919 63.0587C218.919 62.7027 219.191 62.4095 219.778 62.4095C220.532 62.4095 221.16 62.975 221.663 63.5613L223.841 61.6137C223.045 60.5875 221.453 59.7708 219.778 59.7708C217.453 59.7708 215.757 61.2158 215.757 63.2263C215.757 66.9331 220.636 66.3467 220.636 67.7917C220.636 68.2105 220.343 68.5247 219.736 68.5247C218.794 68.5247 218.082 67.8964 217.516 67.1634L215.338 69.1529Z" fill="#62AA9C"/>
</svg>
