<svg width="64" height="64" viewBox="0 0 64 64" fill="none" xmlns="http://www.w3.org/2000/svg">
<path d="M33.5999 27.2C33.5999 26.3163 32.8836 25.6 31.9999 25.6C31.1162 25.6 30.3999 26.3163 30.3999 27.2V40C30.3999 40.8837 31.1162 41.6 31.9999 41.6C32.8836 41.6 33.5999 40.8837 33.5999 40V27.2Z" fill="#0079D0"/>
<path d="M33.5999 46.4C33.5999 45.5163 32.8836 44.8 31.9999 44.8C31.1162 44.8 30.3999 45.5163 30.3999 46.4C30.3999 47.2837 31.1162 48 31.9999 48C32.8836 48 33.5999 47.2837 33.5999 46.4Z" fill="#0079D0"/>
<path d="M31.2844 10.0422C31.5637 9.48363 32.3336 9.45423 32.6645 9.95403L32.7154 10.0422L54.3154 53.2422C54.5674 53.7462 54.2335 54.3344 53.692 54.3949L53.5999 54.4H47.1999C46.7581 54.4 46.3999 54.0418 46.3999 53.6C46.3999 53.1897 46.7087 52.8516 47.1066 52.8054L47.1999 52.8H52.3047L31.9999 12.1888L11.6943 52.8H42.3999C42.8102 52.8 43.1483 53.1088 43.1945 53.5067L43.1999 53.6C43.1999 54.0103 42.8911 54.3484 42.4932 54.3946L42.3999 54.4H10.3999C9.8365 54.4 9.4597 53.8383 9.64773 53.3269L9.68437 53.2422L31.2844 10.0422Z" fill="#282828"/>
<path d="M47.9999 36.8C47.5588 36.8 47.1999 36.4411 47.1999 36C47.1999 35.5588 47.5588 35.2 47.9999 35.2C48.441 35.2 48.7999 35.5588 48.7999 36C48.7999 36.4411 48.441 36.8 47.9999 36.8Z" fill="#282828"/>
<path d="M50.2689 38.7612C50.0496 38.426 49.6091 38.301 49.2421 38.4845C48.847 38.6821 48.6868 39.1626 48.8844 39.5578L54.4844 50.7578L54.5309 50.8388C54.7502 51.174 55.1907 51.299 55.5577 51.1156C55.9529 50.918 56.113 50.4374 55.9154 50.0422L50.3154 38.8422L50.2689 38.7612Z" fill="#282828"/>
</svg>
