<svg width="64" height="64" viewBox="0 0 64 64" fill="none" xmlns="http://www.w3.org/2000/svg">
    <path d="M42.9599 20.8H21.8403C21.7076 20.8 21.6001 20.9128 21.6001 21.052V36.548C21.6001 36.6872 21.7076 36.8 21.8403 36.8H42.9599C43.0926 36.8 43.2001 36.6872 43.2001 36.548V21.052C43.2001 20.9128 43.0926 20.8 42.9599 20.8Z" fill="#EAF5FF"/>
    <path d="M19.8753 15.9455C19.8753 15.5355 19.5453 15.2 19.142 15.2H14.8666H14.7053C12.7546 15.282 11.2 16.922 11.2 18.9273V44.4367C11.288 46.4196 12.894 48 14.8666 48H19.3546C19.7213 47.9553 20 47.6347 20 47.2545C20 46.8445 19.67 46.5091 19.2666 46.5091H14.7346C13.5833 46.4345 12.6666 45.4655 12.6666 44.2727V18.7856C12.74 17.6153 13.6933 16.6835 14.8666 16.6835H19.142H19.23C19.5966 16.6387 19.8753 16.3256 19.8753 15.9455Z" fill="#282828"/>
    <path fill-rule="evenodd" clip-rule="evenodd" d="M52.8 18.7298C52.719 16.7655 51.0979 15.2 49.1158 15.2H46.08C45.7116 15.2443 45.4316 15.5618 45.4316 15.9385C45.4316 16.3446 45.7632 16.6769 46.1685 16.6769H49.2485C50.4053 16.7508 51.3264 17.7108 51.3264 18.8923V44.1329C51.2527 45.2923 50.2948 46.2154 49.1158 46.2154H25.4485C25.08 46.2597 24.8 46.5772 24.8 46.9538C24.8 47.36 25.1316 47.6923 25.5369 47.6923H29.2064C29.1032 50.7569 28.3222 52.1231 27.0106 52.1231H25.4485C25.08 52.1674 24.8 52.4849 24.8 52.8615C24.8 53.2677 25.1316 53.6 25.5369 53.6H38.8885C39.2569 53.5557 39.5369 53.2381 39.5369 52.8615C39.5369 52.4554 39.2053 52.1231 38.8 52.1231H37.3264C36.0074 52.1231 35.2337 50.7569 35.1306 47.6923H49.2779C51.2379 47.6037 52.8 45.9865 52.8 44V18.7298ZM30.68 47.6849H33.6495C33.7158 49.6271 34.0548 51.1188 34.6737 52.1157H29.6485C30.2748 51.1188 30.6064 49.6271 30.6727 47.6849H30.68Z" fill="#282828"/>
    <path d="M47.2727 40C47.6727 40 48 40.3618 48 40.804C48 41.2141 47.7164 41.5598 47.36 41.6H47.2727H16.7273C16.3273 41.6 16 41.2382 16 40.796C16 40.3859 16.2836 40.0402 16.64 40H16.7273H47.2727Z" fill="#282828"/>
    <path d="M33.5999 44C33.5999 43.56 33.2399 43.2 32.7999 43.2H31.1039C30.7039 43.248 30.3999 43.592 30.3999 44C30.3999 44.44 30.7599 44.8 31.1999 44.8H32.8959C33.2959 44.752 33.5999 44.408 33.5999 44Z" fill="#282828"/>
    <path d="M32.8001 33.6C33.7549 33.6 34.5306 32.8026 34.5306 31.8211V30.0575C35.4407 29.4518 36.0001 28.4089 36.0001 27.2895C36.0001 25.4799 34.5679 24 32.8001 24C31.0323 24 29.6001 25.4722 29.6001 27.2895C29.6001 28.4089 30.1595 29.4518 31.0696 30.0575V31.8211C31.0696 32.8026 31.8453 33.6 32.8001 33.6ZM33.0239 31.8211C33.0239 31.9514 32.9194 32.0511 32.7703 32.0511C32.6584 32.0358 32.5689 31.9361 32.5689 31.8211V30.5789H33.0239V31.8211ZM32.8001 25.5489C33.7325 25.5489 34.4933 26.331 34.4933 27.2895C34.4933 28.2479 33.7325 29.03 32.8001 29.03C31.8677 29.03 31.1069 28.2479 31.1069 27.2895C31.1069 26.331 31.8677 25.5489 32.8001 25.5489Z" fill="#0079D0"/>
    <path d="M42.5014 33.0303C42.5461 33.4093 42.8667 33.6916 43.247 33.6916C43.657 33.6916 44 33.3573 44 32.9412V22.8285C43.9478 21.6025 43.0979 20.6291 42.0242 20.5102C42.0317 20.4285 42.0391 20.3542 42.0391 20.2724V19.2991C42.0391 18.348 41.2637 17.5752 40.3094 17.5752H38.52V16.7876C38.52 13.6892 35.9478 11.5195 32.2572 11.5195C28.8052 11.5195 26.7474 13.1245 26.7474 15.8142C26.7474 16.2081 27.068 16.5276 27.4632 16.5276C27.8583 16.5276 28.1789 16.2081 28.1789 15.8142C28.1789 13.704 30.2815 12.9536 32.2498 12.9536C35.0829 12.9536 37.0214 14.4545 37.0736 16.691V17.7684C36.5144 18.0508 36.1267 18.6303 36.1267 19.2991V20.2724C36.1267 20.3468 36.1267 20.4285 36.1417 20.5028H28.8052C28.8127 20.4285 28.8201 20.3542 28.8201 20.2724V19.2991C28.8201 18.348 28.0447 17.5752 27.0904 17.5752H25.3979V17.5381V15.8365C25.48 12.5226 28.3206 10.2935 32.4734 10.2935C36.6263 10.2935 39.5489 12.6266 39.5489 15.9777C39.5489 16.3864 39.8844 16.7282 40.302 16.7282C40.7195 16.7282 41.055 16.3938 41.055 15.9777C41.055 11.7498 37.5284 8.8 32.4809 8.8C27.4334 8.8 23.9068 11.7498 23.9068 15.9777V17.7461C23.3178 18.0285 22.9301 18.6303 22.9301 19.2991V20.2724C22.9301 20.3468 22.9301 20.4285 22.945 20.5028H22.0801C20.9096 20.5697 20 21.6471 20 22.9548V35.2669C20.0596 36.5746 21.0214 37.6 22.1994 37.6H43.0084C43.4185 37.6 43.7614 37.2656 43.7614 36.8495C43.7614 36.4334 43.4259 36.0991 43.0084 36.0991H25.9049V32.9486C25.9049 32.0347 25.1892 31.2842 24.2721 31.2322H21.5061V28.8248H24.6822H24.7568C25.137 28.7802 25.4203 28.4607 25.4203 28.0817C25.4203 27.6731 25.0848 27.3313 24.6673 27.3313H21.5061V22.8805C21.5359 22.3975 21.849 22.0037 22.1994 22.0037H41.7931H41.8453C42.1584 22.0334 42.5014 22.405 42.5014 22.9548V33.0378V33.0303ZM24.1678 32.7108C24.287 32.7108 24.384 32.8 24.3989 32.9412V36.0916H22.1473C21.8341 36.0619 21.4911 35.6904 21.4911 35.1406V32.7183H24.1678V32.7108ZM27.3364 20.265C27.3364 20.3913 27.2321 20.4954 27.1053 20.4954H24.6598C24.5331 20.4954 24.4287 20.3913 24.4287 20.265V19.2916C24.4287 19.1653 24.5331 19.0613 24.6598 19.0613H27.1053C27.2321 19.0613 27.3364 19.1653 27.3364 19.2916V20.265ZM40.5405 20.265C40.5405 20.3913 40.4362 20.4954 40.3094 20.4954H37.8639C37.7372 20.4954 37.6328 20.3913 37.6328 20.265V19.2916C37.6328 19.1653 37.7372 19.0613 37.8639 19.0613H40.3094C40.4362 19.0613 40.5405 19.1653 40.5405 19.2916V20.265Z" fill="#0079D0"/>
</svg>
