<svg width="99" height="100" viewBox="0 0 99 100" fill="none" xmlns="http://www.w3.org/2000/svg">
<g id="Illustration" clip-path="url(#clip0_478_1989)">
<path id="Vector" d="M74.075 37.4601C74.005 36.7401 63.985 34.8201 61.985 35.1401C32.875 46.1501 61.525 50.2901 73.235 38.2701C73.465 38.0301 74.115 37.8601 74.075 37.4601Z" fill="#0079D0"/>
<path id="Vector_2" d="M98.445 21.4101C98.425 23.7801 98.145 26.7201 97.935 29.0701C96.115 29.9301 91.095 31.4201 88.345 32.3801C87.315 32.8001 86.275 33.2001 85.235 33.5901C85.865 57.6701 85.265 90.1501 85.565 94.3301C85.235 94.9701 85.125 95.5001 84.315 95.5001C83.285 95.5001 83.255 93.9601 83.255 93.9601C83.255 93.9601 83.165 34.3301 83.205 34.2801C80.165 35.1001 75.645 37.6801 74.365 36.9201C73.965 30.2201 76.505 17.6001 68.635 14.0801C67.685 13.9101 80.545 12.1901 86.905 11.3701C96.775 8.5401 99.4349 13.3301 98.465 21.4101H98.445Z" fill="#C2E3FA"/>
<path id="Vector_3" d="M74.515 36.9701C74.225 31.6101 74.075 25.5601 73.485 20.1701C71.675 13.8501 66.695 12.6401 63.875 15.2101C60.805 18.0001 60.055 25.2301 62.115 34.4201C62.525 36.2101 74.515 36.9701 74.515 36.9701Z" fill="#0C5C98"/>
<path id="Vector_4" d="M94.585 25.8602C94.415 27.2602 90.525 27.5602 90.135 27.5002C89.745 27.4402 90.255 24.9602 89.595 23.9902C87.415 24.5702 77.305 27.0202 77.305 27.0202C77.305 27.0202 76.955 25.3402 77.335 25.1402C82.615 24.1302 93.525 20.8902 94.115 21.1802C94.705 21.4702 94.525 24.4802 94.585 25.8702V25.8602Z" fill="#FF6584"/>
<path id="Vector_5" d="M74.395 37.2501C74.035 37.1801 74.155 36.7501 74.135 36.4801C74.135 36.0201 74.135 35.5601 74.125 35.0901C74.065 31.9301 73.805 28.7801 73.745 25.6201C73.665 22.7001 73.655 19.6001 71.925 17.1201C70.695 15.1001 68.315 14.3101 66.055 14.3901C64.775 14.4901 63.765 15.5101 63.055 16.5001C60.725 20.0101 61.505 24.4501 61.565 28.4201C61.695 30.2601 61.985 32.6501 62.265 34.4701C62.315 34.7101 62.385 35.0601 62.055 35.1101C61.535 35.1701 61.575 34.0101 61.465 33.1701C61.125 30.7401 60.915 28.2801 60.875 25.8201C60.795 22.5601 60.605 19.0001 62.545 16.1901C64.165 13.8201 65.905 13.3701 68.615 14.0601C70.965 14.5401 72.615 16.5501 73.425 18.7101C74.015 20.1001 74.165 21.6101 74.245 23.1101C74.355 25.1701 74.385 27.2301 74.485 29.2901C74.585 31.3901 74.725 33.4801 74.735 35.5801C74.665 35.9801 74.965 37.2801 74.395 37.2201V37.2501Z" fill="black"/>
<path id="Vector_6" d="M66.135 13.8101C67.195 13.6301 69.335 13.5501 70.395 13.3801C71.385 13.2201 72.375 13.0701 73.365 12.9101C74.385 12.7501 75.395 12.5901 76.415 12.4301C77.435 12.2701 78.465 12.1101 79.485 11.9501C80.425 11.8001 81.365 11.6601 82.305 11.5101L85.065 11.0801C85.995 10.9401 86.915 10.7901 87.845 10.6501C88.575 10.5401 89.305 10.4201 90.045 10.3101C90.205 10.2801 90.365 10.3901 90.385 10.5501C90.415 10.7101 90.305 10.8701 90.145 10.8901C89.385 11.0101 88.625 11.1301 87.865 11.2501C86.935 11.3901 86.005 11.5401 85.075 11.6901C84.155 11.8301 83.245 11.9801 82.325 12.1201C81.385 12.2701 80.435 12.4101 79.495 12.5601C78.465 12.7201 77.445 12.8801 76.415 13.0401C75.405 13.2001 74.395 13.3601 73.395 13.5101C72.395 13.6601 71.395 13.8201 70.385 13.9701C69.325 14.1301 68.195 14.1301 67.135 14.2801C66.945 13.8901 65.675 13.8801 66.135 13.8001V13.8101Z" fill="black"/>
<path id="Vector_7" d="M97.775 29.1102C97.715 28.4902 97.705 27.8602 97.705 27.2702C97.705 26.7802 97.705 26.2902 97.725 25.8002C97.745 25.3002 97.785 24.8102 97.825 24.3202C97.915 23.4202 98.025 22.5202 98.105 21.6102C98.145 21.1602 98.175 20.7002 98.205 20.2502C98.235 19.7202 98.265 19.2002 98.265 18.6702V18.5602C98.265 17.7802 98.215 17.0102 98.125 16.2702C98.055 15.7502 97.955 15.2402 97.825 14.7302C97.755 14.4602 97.665 14.1902 97.565 13.9302C97.485 13.7402 97.395 13.5602 97.295 13.3902C97.165 13.1702 97.025 12.9502 96.865 12.7402C96.705 12.5402 96.535 12.3402 96.355 12.1602C96.175 11.9802 95.985 11.8102 95.775 11.6502C95.665 11.5602 95.545 11.4902 95.415 11.4102C95.215 11.3002 94.995 11.2002 94.785 11.1102C94.475 10.9902 94.155 10.8802 93.845 10.8002C93.845 10.8002 93.845 10.8002 93.835 10.8002C93.595 10.7402 93.345 10.6902 93.095 10.6602C92.905 10.6402 92.715 10.6302 92.545 10.6302C92.095 10.6302 91.645 10.6802 91.205 10.7302C90.975 10.7602 90.745 10.8002 90.515 10.8402C90.405 10.8602 90.295 10.8902 90.185 10.9202C90.075 10.9502 89.955 10.9702 89.845 10.9102C89.765 10.8602 89.715 10.7502 89.735 10.6502C89.765 10.5002 89.905 10.4302 90.035 10.3802C90.155 10.3302 90.295 10.3002 90.425 10.2702C90.685 10.2102 90.945 10.1702 91.185 10.1402C91.185 10.1402 91.185 10.1402 91.195 10.1402C91.615 10.0802 92.045 10.0402 92.475 10.0402C92.905 10.0402 93.325 10.0902 93.745 10.1802C94.125 10.2602 94.495 10.3802 94.855 10.5202C95.225 10.6602 95.595 10.8202 95.925 11.0402C96.145 11.1802 96.345 11.3502 96.535 11.5302C96.725 11.7102 96.915 11.9002 97.085 12.0902C97.405 12.4602 97.685 12.8702 97.915 13.3002C98.145 13.7302 98.285 14.1902 98.415 14.6602C98.545 15.1502 98.635 15.6502 98.705 16.1502C98.775 16.6902 98.825 17.2302 98.845 17.7702C98.865 18.3002 98.875 18.8302 98.845 19.3702C98.815 20.3402 98.735 21.3202 98.635 22.2802C98.545 23.1802 98.425 24.0802 98.355 24.9902C98.295 25.7502 98.285 26.5102 98.285 27.2302V27.2602C98.285 27.8702 98.295 28.4802 98.355 29.0802C98.365 29.2402 98.235 29.3902 98.075 29.4002H98.055C97.895 29.4002 97.775 29.2802 97.755 29.1202L97.775 29.1102Z" fill="black"/>
<path id="Vector_8" d="M95.045 26.2201C95.045 26.2201 95.055 26.1701 95.055 26.1301C94.935 24.6101 94.795 22.9101 94.665 21.3901C94.605 21.1401 94.635 20.6001 94.145 20.6801C94.125 20.6801 94.125 20.6801 94.105 20.6901H94.055C93.565 20.8201 93.085 20.9301 92.595 21.0501C91.985 21.1901 91.385 21.3401 90.785 21.4801C90.125 21.6401 89.465 21.7901 88.795 21.9501L86.735 22.4401C86.045 22.6001 85.355 22.7701 84.665 22.9301C83.965 23.1001 83.265 23.2601 82.575 23.4301C81.895 23.5901 81.205 23.7601 80.525 23.9201C80.175 24.0001 79.835 24.0901 79.485 24.1701C79.465 24.1701 79.435 24.1801 79.415 24.1901C79.365 24.1901 79.325 24.2101 79.285 24.2201C79.245 24.2301 79.205 24.2401 79.155 24.2501C79.075 24.2701 78.985 24.2901 78.905 24.3101C78.565 24.4001 78.225 24.4801 77.885 24.5701C77.715 24.6201 77.545 24.6601 77.365 24.7101C77.295 24.7301 77.045 24.7801 76.945 24.8201C76.945 24.8201 76.925 24.8201 76.915 24.8201H76.905C76.905 24.8201 76.905 24.8201 76.905 24.8301C76.795 24.9001 76.735 25.0501 76.755 25.2001C76.785 25.8601 76.775 26.5501 76.915 27.1901C76.935 27.2301 76.975 27.2501 77.005 27.2801C77.015 27.2901 77.025 27.3101 77.045 27.3201C77.065 27.3201 77.075 27.3301 77.095 27.3401C77.135 27.3601 77.165 27.3801 77.215 27.3801C77.235 27.3801 77.265 27.3801 77.285 27.3801C77.605 27.3001 77.925 27.2201 78.235 27.1401C79.235 26.8901 80.235 26.6401 81.235 26.4001C82.215 26.1601 83.205 25.9101 84.185 25.6701C85.195 25.4201 86.195 25.1701 87.205 24.9201C87.665 24.8101 88.115 24.6901 88.575 24.5801C88.815 24.5201 89.045 24.4601 89.285 24.4001C89.315 24.4001 89.335 24.3901 89.365 24.3801C89.415 24.6201 89.485 24.8601 89.485 25.0001C89.625 25.6001 89.735 27.5501 90.245 27.7801C90.515 27.9201 90.805 27.7301 91.065 27.6801C91.485 27.5601 91.905 27.4501 92.325 27.3301C92.865 27.1801 93.395 27.0301 93.925 26.8701C94.165 26.8001 94.875 26.5701 95.025 26.2801C95.025 26.2801 95.025 26.2801 95.035 26.2601C95.045 26.2401 95.045 26.2101 95.045 26.1801V26.2201ZM90.495 27.2601C90.185 26.2501 90.115 25.1701 89.935 24.1301C89.915 23.9701 89.855 23.7001 89.535 23.7801C89.535 23.7801 89.465 23.7901 89.425 23.8001C89.325 23.8201 89.225 23.8501 89.125 23.8701C88.895 23.9201 88.665 23.9801 88.425 24.0401C87.455 24.2801 86.485 24.5201 85.505 24.7601C84.525 25.0001 83.545 25.2501 82.555 25.4901C81.565 25.7401 80.575 25.9801 79.585 26.2301C78.865 26.4101 78.135 26.5901 77.415 26.7701C77.385 26.4401 77.345 26.1201 77.335 25.7901C77.305 25.6501 77.325 25.4301 77.305 25.2401C77.355 25.2401 77.405 25.2301 77.455 25.2201C77.595 25.1901 77.735 25.1701 77.875 25.1401C78.145 25.0801 78.415 25.0201 78.695 24.9601C79.395 24.8101 80.085 24.6501 80.785 24.4801C81.475 24.3201 82.165 24.1601 82.855 24.0001C83.555 23.8401 84.245 23.6701 84.945 23.5101C85.635 23.3501 86.325 23.1801 87.025 23.0201C87.715 22.8601 88.395 22.6901 89.085 22.5301C89.745 22.3801 90.395 22.2201 91.055 22.0601C91.655 21.9201 92.255 21.7701 92.855 21.6301C93.235 21.5401 93.615 21.4501 93.995 21.3601C94.125 22.9201 94.325 24.4201 94.435 26.0101C94.435 26.0401 94.445 26.0701 94.455 26.0901C94.375 26.1401 94.295 26.1801 94.225 26.2001C93.005 26.6101 91.745 26.9001 90.515 27.2701L90.495 27.2601Z" fill="black"/>
<path id="Vector_9" d="M98.2051 29.0702C98.1751 29.0102 98.1251 28.9702 98.0751 28.9502C98.0151 28.9202 97.9351 28.9402 97.8751 28.9502C97.8151 28.9702 97.7451 28.9802 97.6851 29.0002C97.5451 29.0402 97.4051 29.0902 97.2651 29.1402C96.9751 29.2402 96.6851 29.3402 96.3851 29.4302C95.4551 29.7502 94.5151 30.0702 93.5851 30.4002C92.6451 30.7302 91.7151 31.0502 90.7851 31.3802C89.8351 31.7102 88.8851 32.0402 87.9351 32.3802C86.9851 32.7102 86.0451 33.0402 85.0951 33.3702C84.1251 33.7102 83.1651 34.0502 82.1951 34.3802C81.2451 34.7102 80.2951 35.0502 79.3451 35.3802C78.4151 35.7002 77.4851 36.0302 76.5651 36.3502C75.9251 36.5802 75.2751 36.8002 74.6351 37.0202C74.5951 37.0002 74.5751 36.9602 74.5251 36.9502C73.9151 36.8402 73.3051 36.7302 72.6951 36.6202C71.7651 36.4502 70.8251 36.2802 69.8951 36.1102C68.9651 35.9402 68.0351 35.7702 67.0951 35.6002C66.2451 35.4502 65.3951 35.2902 64.5451 35.1402C64.1251 35.0602 63.6951 34.9902 63.2751 34.9202C63.0451 34.8802 62.8151 34.8502 62.5751 34.8202C62.5551 34.8202 62.5251 34.8202 62.5051 34.8202C62.5151 34.8202 62.5251 34.8202 62.5351 34.8202C62.6651 34.7802 62.8051 34.7302 62.9351 34.6902C63.8151 34.4102 64.6851 34.1202 65.5551 33.8202C66.3951 33.5402 67.2251 33.2602 68.0551 32.9802C68.8351 32.7202 69.6251 32.4502 70.4051 32.1902C71.1451 31.9402 71.8851 31.6902 72.6251 31.4402C73.1451 31.2702 73.6651 31.0902 74.1751 30.9202C74.3251 30.8702 74.4051 30.6902 74.3551 30.5402C74.2951 30.3802 74.1251 30.3102 73.9751 30.3602C73.7551 30.4302 73.5351 30.5102 73.3251 30.5802C72.8651 30.7302 72.4151 30.8902 71.9551 31.0402C71.1251 31.3202 70.2851 31.6002 69.4551 31.8802C68.6551 32.1502 67.8451 32.4202 67.0451 32.6902C66.2051 32.9802 65.3651 33.2602 64.5251 33.5502C64.0851 33.7002 63.6451 33.8502 63.2051 34.0102C62.9951 34.0802 62.7851 34.1602 62.5751 34.2302C62.4651 34.2702 62.3651 34.3002 62.2551 34.3402C62.2051 34.3602 62.1551 34.3802 62.1151 34.4002C62.0451 34.4402 61.9951 34.4902 61.9651 34.5702C61.9451 34.6302 61.9651 34.7002 61.9951 34.7502C61.9251 34.7502 61.8651 34.7502 61.8151 34.7602C61.7151 34.7702 61.6351 34.8302 61.5451 34.8702C61.2251 35.0302 60.8951 35.1702 60.5651 35.3202C58.6451 36.1702 56.7251 37.0502 54.8451 37.9902C53.5451 38.6502 52.2651 39.3802 51.0751 40.2302C50.3351 40.7802 49.6151 41.3902 49.0651 42.1402C48.6251 42.7302 48.5351 43.3702 48.9551 43.9902C50.1351 45.6802 52.4451 45.8702 54.3351 45.9602C55.9551 45.9602 57.5751 45.9602 59.1751 45.7202C62.8251 45.0202 66.2651 43.4402 69.4651 41.5802C71.3551 40.4202 73.0251 38.9602 74.7851 37.6402C74.8051 37.6202 74.8051 37.5902 74.8151 37.5702C75.1351 37.4602 75.4451 37.3502 75.7651 37.2402C76.6851 36.9202 77.6051 36.6002 78.5251 36.2702C79.4551 35.9402 80.3951 35.6202 81.3251 35.2902C81.8551 35.1102 82.3751 34.9202 82.9051 34.7402C82.8651 35.0502 82.8751 35.4202 82.8751 35.6502C82.8151 55.1702 82.8451 94.3302 82.8451 94.3902C82.8451 94.5102 82.8451 94.6202 82.8751 94.7402C82.9251 95.0102 83.0651 95.2402 83.2551 95.4302C83.3351 95.5102 83.4251 95.5902 83.5251 95.6502C83.6451 95.7102 83.7651 95.7602 83.8951 95.7802C83.9451 95.7802 84.0051 95.7902 84.0651 95.7902C84.1951 95.7902 84.3151 95.7702 84.4351 95.7302C84.6251 95.6702 84.8151 95.6002 84.9851 95.5002C85.0951 95.4402 85.2051 95.3602 85.2951 95.2602C85.3651 95.1802 85.4351 95.0902 85.4851 94.9902C85.6151 94.7402 85.6651 94.4702 85.6851 94.1902C85.6851 94.1902 85.6851 86.1502 85.6851 82.6402C85.6651 66.7502 85.7151 50.8502 85.6651 34.9602C85.6651 34.6402 85.6651 34.1302 85.6651 33.7802C86.1551 33.6102 86.6551 33.4302 87.1451 33.2602C88.0851 32.9302 89.0251 32.6002 89.9551 32.2702C90.8951 31.9402 91.8251 31.6102 92.7651 31.2902C93.6951 30.9602 94.6351 30.6302 95.5651 30.3002C96.0251 30.1402 96.4851 29.9702 96.9551 29.8002C97.1751 29.7202 97.3951 29.6402 97.6251 29.5602C97.7351 29.5202 97.8351 29.4802 97.9451 29.4302C97.9851 29.4102 98.0151 29.4002 98.0551 29.3802C98.1151 29.3502 98.1551 29.3102 98.1951 29.2502C98.2251 29.1902 98.2251 29.1102 98.1951 29.0502L98.2051 29.0702ZM73.1751 38.1602C72.0551 39.0202 70.9651 39.9202 69.7851 40.7002C67.9951 41.8502 66.0751 42.7902 64.1151 43.6102C62.3851 44.3002 60.6151 44.9302 58.7751 45.2002C57.5651 45.3502 56.3551 45.3702 55.1351 45.3902C53.4851 45.3902 51.4251 45.3202 50.0551 44.3102C49.5851 43.9402 49.0351 43.3202 49.4351 42.7102C50.7651 40.6502 54.3051 38.9302 56.5051 37.8602C57.9451 37.1702 59.3951 36.5002 60.8551 35.8502C61.0851 35.7502 61.3151 35.6502 61.5351 35.5402C61.6451 35.4702 61.8551 35.3602 62.0351 35.2302L62.0551 35.2402C62.1451 35.2702 62.2351 35.2902 62.3351 35.3202C62.5651 35.3802 62.8051 35.4302 63.0351 35.4702C63.4551 35.5602 63.8751 35.6402 64.2951 35.7102C65.1351 35.8702 65.9751 36.0202 66.8251 36.1702C67.7551 36.3402 68.6851 36.5102 69.6051 36.6702C70.5351 36.8402 71.4651 37.0102 72.4051 37.1802C72.9551 37.2802 73.5051 37.3802 74.0551 37.4802C73.7651 37.7002 73.4651 37.9302 73.1751 38.1602ZM85.1451 34.8802C85.0851 54.4302 85.1451 73.9902 85.1251 93.5402V94.1702C85.1251 94.2702 85.1051 94.3702 85.0851 94.4802C85.0851 94.5202 85.0651 94.5602 85.0551 94.6002C85.0451 94.6302 85.0351 94.6602 85.0251 94.6802C85.0051 94.7202 84.9851 94.7602 84.9651 94.7902C84.9451 94.8102 84.9351 94.8302 84.9151 94.8502C84.9051 94.8602 84.8851 94.8802 84.8751 94.8902C84.8551 94.9102 84.8251 94.9302 84.8051 94.9502C84.7651 94.9802 84.7151 95.0102 84.6651 95.0302C84.5851 95.0702 84.4951 95.1102 84.4051 95.1402C84.3451 95.1602 84.2851 95.1802 84.2251 95.1902C84.1951 95.1902 84.1751 95.1902 84.1451 95.2002H84.1051C84.1051 95.2002 84.0551 95.2002 84.0351 95.2002C84.0051 95.2002 83.9751 95.1902 83.9551 95.1802C83.9351 95.1802 83.9151 95.1702 83.9051 95.1602C83.8951 95.1602 83.8751 95.1502 83.8651 95.1402C83.8451 95.1202 83.8151 95.1102 83.7951 95.0902C83.7551 95.0602 83.7251 95.0202 83.6851 94.9802C83.6651 94.9502 83.6451 94.9302 83.6251 94.9002C83.6051 94.8702 83.5851 94.8402 83.5751 94.8102C83.5651 94.7802 83.5451 94.7502 83.5351 94.7202C83.5351 94.7002 83.5251 94.6802 83.5151 94.6502C83.5151 94.6102 83.5051 94.5802 83.5051 94.5402C83.5051 94.5102 83.5051 87.0702 83.5051 83.4402C83.4851 67.5502 83.5351 51.6502 83.4851 35.7602C83.4851 35.4702 83.5051 34.9502 83.4851 34.5802C83.7451 34.4902 83.9951 34.4002 84.2551 34.3102C84.5751 34.2002 84.8951 34.0902 85.2151 33.9802C85.1851 34.2002 85.1751 34.5002 85.1751 34.8902L85.1451 34.8802Z" fill="black"/>
<path id="Vector_10" d="M10.505 95.0901C9.51498 94.6901 10.715 91.8301 9.85497 91.0601C9.77497 91.1001 8.48498 93.3601 3.80498 91.2201C3.39498 81.1301 0.374975 56.7801 0.394975 52.4301C0.324975 52.4301 0.744975 44.5601 0.974975 44.4001C4.90498 44.8601 17.455 50.8001 19.905 55.3201C20.195 55.8501 19.995 56.2101 19.985 56.6901C18.485 67.7401 17.965 78.8801 18.565 90.0001C18.655 90.4801 18.715 91.4801 18.635 91.8901C17.945 95.7601 10.495 95.0801 10.495 95.0801L10.505 95.0901Z" fill="#3F3D56"/>
<path id="Vector_11" d="M39.965 35.6001C40.205 35.6801 40.295 36.0001 40.065 36.1501C39.845 36.2701 39.575 36.2501 39.335 36.3101C38.245 36.5101 37.125 36.5501 36.025 36.6401C36.765 36.9001 37.565 36.9401 38.295 37.2501C38.685 37.3901 39.115 37.5901 38.625 37.7801C37.855 37.9401 36.865 38.1301 36.085 38.1701C36.255 38.3601 36.435 38.5501 36.535 38.7901C36.685 39.1501 36.375 39.3701 36.035 39.3601C35.535 39.3601 35.055 39.1901 34.565 39.0901C34.175 39.0101 33.785 38.9301 33.395 38.8701C33.075 38.8301 32.755 38.8001 32.435 38.7901C31.965 38.7501 30.835 38.9101 31.145 38.1101C31.025 38.0901 30.935 37.9701 30.945 37.8401C30.945 37.6601 30.965 37.4201 30.965 37.2501C30.965 36.7601 30.935 36.2701 30.875 35.7901C30.845 35.4501 30.765 35.1101 30.805 34.7701C30.825 34.4001 31.095 34.2201 31.415 34.1001C31.885 33.9001 32.405 33.6401 32.795 33.3201C33.085 33.1001 33.355 32.8601 33.635 32.6201C34.115 32.2501 34.705 31.5401 35.335 31.5201C35.455 31.4001 35.565 31.2401 35.755 31.2801C35.975 31.3301 36.005 31.5901 35.915 31.7601C35.815 32.0001 35.665 32.2101 35.535 32.4301C35.485 32.6101 35.285 32.7601 35.115 32.6401C34.905 32.9701 34.675 33.2601 34.625 33.6501C34.845 33.7601 35.095 33.7701 35.325 33.8101C35.805 33.8801 36.295 33.9101 36.785 33.9101C37.555 33.9201 38.325 33.8101 39.095 33.8301C39.335 33.8301 39.535 34.0701 39.365 34.2801C39.235 34.4101 39.015 34.4101 38.865 34.4601C38.315 34.6101 37.755 34.7601 37.205 34.9001C38.125 35.2001 39.085 35.3001 39.995 35.6001H39.965Z" fill="#D98C4A"/>
<path id="Vector_12" d="M30.355 39.7802C30.225 39.7702 30.105 39.7502 29.975 39.7402C29.925 39.7402 29.865 39.7302 29.815 39.7202C29.865 39.6002 29.895 39.4702 29.925 39.3402C30.315 37.7302 30.545 35.8002 29.485 34.3902C29.385 34.3002 29.295 34.1902 29.205 34.0902C29.215 34.0402 29.225 33.9802 29.235 33.9302C29.245 33.8502 29.255 33.7602 29.255 33.6802C29.255 33.6202 29.265 33.5602 29.275 33.5002C29.275 33.4802 29.275 33.4602 29.285 33.4502C29.285 33.4502 29.305 33.4502 29.315 33.4402C29.325 33.4402 29.335 33.4402 29.345 33.4302C29.355 33.4302 29.365 33.4302 29.375 33.4302H29.395C29.745 33.7002 30.035 34.0302 30.265 34.4002C30.265 34.4002 30.265 34.4002 30.265 34.4102C30.295 34.4602 30.325 34.5102 30.355 34.5702C30.495 34.8202 30.605 35.0802 30.695 35.3502C30.695 35.3902 30.715 35.4302 30.725 35.4702C30.725 35.4802 30.725 35.5002 30.735 35.5102C30.735 35.5202 30.735 35.5402 30.735 35.5502C30.735 35.5702 30.735 35.5802 30.735 35.6002C30.735 35.6302 30.735 35.6602 30.745 35.6902C30.745 35.7402 30.765 35.8002 30.775 35.8502V35.8702C30.785 35.9302 30.795 36.0002 30.805 36.0602C30.805 36.1302 30.825 36.1902 30.835 36.2502C30.835 36.2502 30.835 36.2502 30.835 36.2402C30.835 36.2502 30.835 36.2602 30.835 36.2702C30.835 36.3202 30.835 36.3602 30.835 36.4102C30.835 36.5002 30.835 36.5902 30.835 36.6802C30.835 36.7402 30.835 36.8102 30.835 36.8702C30.835 36.9402 30.835 37.0102 30.835 37.0802C30.835 37.2602 30.835 37.4302 30.835 37.6002C30.835 37.6302 30.835 37.6502 30.835 37.6802C30.755 38.4002 30.655 39.1402 30.355 39.8002C30.335 39.8002 30.315 39.8002 30.295 39.8002L30.355 39.7802Z" fill="black"/>
<path id="Vector_13" d="M29.295 33.4402C29.295 33.4402 29.315 33.4202 29.325 33.4102C29.315 33.4102 29.305 33.4302 29.295 33.4402Z" fill="black"/>
<path id="Vector_14" d="M30.755 35.4901C30.755 35.4901 30.755 35.5101 30.755 35.5201C30.755 35.5401 30.755 35.5501 30.755 35.5701C30.755 35.6001 30.755 35.6301 30.765 35.6601C30.765 35.6801 30.765 35.7101 30.775 35.7301C30.725 35.6601 30.705 35.5701 30.745 35.4801L30.755 35.4901Z" fill="black"/>
<path id="Vector_15" d="M35.1851 33.8301C35.1951 33.8301 35.205 33.8401 35.215 33.8501C35.205 33.8501 35.195 33.8401 35.175 33.8301H35.1851Z" fill="black"/>
<path id="Vector_16" d="M33.585 39.2202C33.585 39.2202 33.585 39.2202 33.585 39.2302C33.565 39.2102 33.535 39.2002 33.515 39.1902C33.455 39.1702 33.405 39.1502 33.345 39.1402C33.205 39.1102 33.075 39.0802 32.935 39.0502C32.935 39.0502 32.925 39.0502 32.915 39.0502H32.895C32.895 39.0502 32.855 39.0502 32.835 39.0402C32.835 39.0402 32.825 39.0402 32.815 39.0402C32.815 39.0402 32.825 39.0402 32.835 39.0402C32.835 39.0402 32.835 39.0402 32.845 39.0402C32.655 39.0002 32.475 38.9802 32.285 38.9502C32.205 38.9402 32.135 38.9202 32.065 38.9002C31.985 38.8902 31.915 38.8902 31.835 38.8802C31.765 38.8802 31.685 38.8602 31.615 38.8602C31.575 38.8602 31.535 38.8602 31.495 38.8602C31.475 38.8602 31.455 38.8602 31.435 38.8602C31.435 38.8502 31.455 38.8402 31.455 38.8302C31.355 38.8002 31.255 38.7702 31.155 38.7402C31.115 38.7002 31.075 38.6802 31.015 38.6702C30.955 38.6702 30.895 38.6702 30.845 38.7002C30.815 38.7202 30.795 38.7402 30.765 38.7602C30.765 38.7602 30.755 38.7702 30.745 38.7802H30.755L30.775 38.7302L30.795 38.7002L30.815 38.6702L30.835 38.6402L30.855 38.6102L30.875 38.5802L30.895 38.5502L30.915 38.5202L30.935 38.4902L30.955 38.4602L30.975 38.4302L30.995 38.4002C31.065 38.3602 31.135 38.3902 31.175 38.4502C31.875 38.5902 32.585 38.7202 33.305 38.7802C33.325 38.8202 33.345 38.8602 33.365 38.9002C33.455 39.0402 33.575 39.1402 33.705 39.2202C33.655 39.2202 33.605 39.2202 33.555 39.2102L33.585 39.2202Z" fill="black"/>
<path id="Vector_17" d="M35.1949 34.1201C35.1149 34.1201 35.0349 34.1201 34.9549 34.1101C34.9549 34.1101 34.8949 34.1101 34.8549 34.1001C34.8249 34.1001 34.7849 34.1001 34.7549 34.1001C34.7149 34.1001 34.6749 34.1001 34.6349 34.1001C34.5949 34.1001 34.5549 34.1001 34.5149 34.1001C34.4749 34.1001 34.4349 34.0901 34.3949 34.0801C34.3549 34.0801 34.3149 34.0601 34.2749 34.0501C34.2649 34.0501 34.2449 34.0401 34.2349 34.0301C34.2149 34.0201 34.1949 34.0101 34.1749 34.0001C34.1549 33.9901 34.1349 33.9801 34.1149 33.9701C34.1149 33.9701 34.0949 33.9601 34.0849 33.9501C34.0849 33.9501 34.0849 33.9501 34.0749 33.9401C34.0749 33.9401 34.0749 33.9401 34.0649 33.9301C34.0649 33.9301 34.0649 33.9301 34.0649 33.9201C34.0649 33.9201 34.0649 33.9101 34.0649 33.9001C34.0649 33.8801 34.0649 33.8601 34.0649 33.8501C34.0649 33.8501 34.0649 33.8501 34.0649 33.8601C34.0649 33.8401 34.0649 33.8201 34.0649 33.7901C34.0649 33.7801 34.0649 33.7701 34.0649 33.7601C34.0649 33.7401 34.0749 33.7201 34.0849 33.7001C34.1049 33.6501 34.1249 33.6101 34.1449 33.5601C34.1449 33.5601 34.1449 33.5601 34.1449 33.5501C34.1449 33.5501 34.1449 33.5401 34.1449 33.5301C34.1449 33.5201 34.1549 33.5001 34.1649 33.4901C34.1649 33.4901 34.1849 33.4701 34.1949 33.4601C34.2149 33.4401 34.2249 33.4201 34.2249 33.3901L34.2349 33.3701C34.2849 33.3201 34.3249 33.2701 34.3749 33.2101C34.4349 33.1501 34.4849 33.0801 34.5349 33.0101C34.5849 32.9401 34.6349 32.8801 34.6949 32.8101C34.7449 32.7401 34.7949 32.6801 34.8549 32.6101C34.8849 32.5701 34.9149 32.5401 34.9449 32.5001C34.9649 32.4701 34.9949 32.4401 35.0149 32.4001C35.0149 32.4201 35.0149 32.4301 35.0149 32.4501V32.4701C34.9649 32.7401 34.8449 33.0201 34.7449 33.2001C34.6949 33.2701 34.5549 33.5301 34.4049 33.7401C34.4249 33.7401 34.4349 33.7501 34.4549 33.7601C34.5749 33.8001 34.6949 33.8401 34.8149 33.8901C34.8349 33.9001 34.8649 33.9101 34.8849 33.9201C34.8849 33.9201 34.8949 33.9201 34.9049 33.9201C34.9249 33.9201 34.9349 33.9301 34.9549 33.9401C34.9749 33.9401 34.9949 33.9601 35.0249 33.9701C35.0449 33.9801 35.0749 33.9901 35.0949 34.0001C35.0949 34.0001 35.1149 34.0001 35.1249 34.0101C35.1249 34.0101 35.1449 34.0101 35.1549 34.0201C35.1549 34.0201 35.1649 34.0201 35.1749 34.0201C35.1749 34.0201 35.1949 34.0201 35.2049 34.0301C35.2149 34.0301 35.2249 34.0401 35.2349 34.0501C35.2349 34.0501 35.2349 34.0501 35.2449 34.0501C35.2449 34.0501 35.2449 34.0501 35.2549 34.0501C35.2749 34.0501 35.2949 34.0701 35.3149 34.0801C35.3249 34.0801 35.3449 34.0901 35.3549 34.1001C35.3649 34.1001 35.3849 34.1201 35.4049 34.1201C35.4049 34.1201 35.4249 34.1201 35.4349 34.1301C35.3649 34.1301 35.2849 34.1201 35.2149 34.1201H35.1949Z" fill="black"/>
<path id="Vector_18" d="M30.875 34.8402C30.875 34.8402 30.875 34.8202 30.865 34.8202C30.835 34.7402 30.795 34.6602 30.755 34.5802C30.735 34.5402 30.715 34.5001 30.685 34.4601C30.675 34.4401 30.665 34.4302 30.655 34.4102C31.055 34.2502 31.395 33.9602 31.755 33.7302C32.295 33.3302 32.885 33.0002 33.335 32.4802C33.575 32.0902 33.855 31.6002 34.365 31.5302C34.465 31.5302 34.555 31.5602 34.625 31.6002C34.655 31.6002 34.675 31.6002 34.695 31.6102C34.685 31.6102 34.665 31.6302 34.655 31.6402C34.605 31.6802 34.545 31.7202 34.495 31.7702C34.465 31.8002 34.425 31.8302 34.385 31.8702C34.335 31.9102 34.295 31.9602 34.245 32.0002C34.135 32.1002 34.025 32.2102 33.925 32.3102C33.885 32.3502 33.845 32.3801 33.815 32.4201C33.785 32.4501 33.755 32.4801 33.725 32.5101C33.695 32.5401 33.675 32.5702 33.645 32.5902C33.615 32.6202 33.575 32.6601 33.545 32.6901C33.505 32.7301 33.455 32.7802 33.415 32.8202C33.395 32.8402 33.365 32.8702 33.345 32.8902C33.325 32.9102 33.305 32.9401 33.285 32.9601C33.265 32.9801 33.235 33.0101 33.215 33.0301C33.195 33.0501 33.175 33.0801 33.155 33.1001C33.115 33.1401 33.065 33.1902 33.025 33.2302C32.935 33.3202 32.845 33.4002 32.755 33.4902C32.745 33.5002 32.735 33.5102 32.725 33.5202C32.675 33.5702 32.625 33.6201 32.565 33.6701C32.555 33.6801 32.545 33.6902 32.535 33.7002C32.495 33.7402 32.455 33.7802 32.405 33.8202C32.355 33.8602 32.315 33.9002 32.265 33.9502C32.205 34.0002 32.155 34.0602 32.095 34.1102C31.725 34.3702 31.335 34.6602 30.905 34.8302C30.905 34.8302 30.895 34.8302 30.885 34.8302L30.875 34.8402Z" fill="black"/>
<path id="Vector_19" d="M30.485 34.7201H30.465L30.445 34.7101H30.425L30.405 34.7001H30.385L30.365 34.6901H30.345L30.325 34.6801H30.305L30.295 34.6601H30.285L30.275 34.6401H30.265L30.255 34.6201H30.245L30.235 34.6001H30.225L30.215 34.5801H30.205L30.195 34.5601H30.185L30.175 34.5401H30.165L30.155 34.5201H30.145V34.5001C30.195 34.5001 30.255 34.5001 30.305 34.5001C30.325 34.5001 30.335 34.5001 30.355 34.5001C30.375 34.5301 30.385 34.5501 30.405 34.5801C30.435 34.6301 30.465 34.6801 30.495 34.7301L30.485 34.7201Z" fill="black"/>
<path id="Vector_20" d="M30.485 34.7201H30.465L30.445 34.7101H30.425L30.405 34.7001H30.385L30.365 34.6901H30.345L30.325 34.6801H30.315L30.305 34.6601H30.295L30.285 34.6401H30.275L30.265 34.6201H30.255L30.245 34.6001H30.235L30.225 34.5801H30.215V34.5701C30.265 34.5501 30.315 34.5201 30.365 34.5001C30.375 34.5201 30.395 34.5501 30.415 34.5701C30.445 34.6201 30.475 34.6701 30.505 34.7201H30.485Z" fill="black"/>
<path id="Vector_21" d="M40.595 35.4301C40.415 35.0201 39.465 34.9501 38.785 34.9101C38.825 34.8901 38.875 34.8801 38.915 34.8601C39.335 34.7001 39.795 34.4501 39.785 34.0601C39.775 33.9101 39.655 33.7801 39.525 33.7301C38.705 33.4801 37.825 33.5501 36.985 33.5701C36.565 33.5801 36.135 33.5901 35.715 33.5601C35.455 33.5301 35.165 33.5401 34.925 33.4201C34.945 33.3101 35.045 33.2301 35.105 33.1501C35.385 32.8201 35.655 32.4701 35.805 32.0501C36.085 31.4101 35.835 30.6501 35.035 30.8701C34.635 30.9601 34.305 31.2001 33.995 31.4601C33.525 31.8601 33.105 32.2901 32.635 32.7001C32.035 33.2301 31.455 33.7701 30.805 34.2301C30.745 34.2701 30.685 34.3101 30.625 34.3501C30.655 34.3901 30.675 34.4201 30.695 34.4501C30.715 34.4901 30.745 34.5301 30.765 34.5701C30.805 34.6501 30.845 34.7301 30.875 34.8101C30.875 34.8101 30.875 34.8301 30.885 34.8401C31.775 34.3201 32.925 33.1701 33.365 32.8101C33.645 32.5801 34.035 32.1501 34.435 31.8301C34.455 31.8101 34.485 31.7901 34.505 31.7601C34.555 31.7201 34.605 31.6801 34.655 31.6401C34.715 31.6001 34.765 31.5601 34.825 31.5201C34.895 31.4801 34.965 31.4401 35.035 31.4101C35.105 31.3801 35.185 31.3501 35.265 31.3701C35.265 31.3701 35.285 31.3701 35.295 31.3801C35.315 31.3801 35.335 31.4001 35.355 31.4101C35.375 31.4301 35.395 31.4601 35.405 31.4901C35.415 31.5301 35.405 31.5901 35.405 31.6301C35.395 31.6901 35.375 31.7401 35.345 31.8001C35.305 31.8901 35.255 31.9901 35.205 32.0801C35.185 32.1301 35.155 32.1701 35.125 32.2101C35.095 32.2501 35.065 32.2901 35.035 32.3301C35.035 32.3301 34.985 32.4001 34.965 32.4401C34.935 32.4801 34.905 32.5101 34.875 32.5501C34.825 32.6201 34.775 32.6801 34.715 32.7501C34.665 32.8201 34.605 32.8801 34.555 32.9501C34.515 33.0001 34.475 33.0501 34.435 33.0901C34.415 33.1301 34.395 33.1701 34.385 33.2201C34.165 34.2501 35.725 34.0801 36.375 34.1301C37.255 34.1301 38.135 34.0301 39.015 34.1701C38.355 34.5001 37.625 34.6501 36.885 34.7601C36.885 34.7601 36.875 34.7601 36.865 34.7601C36.855 34.7601 36.845 34.7601 36.835 34.7601C36.815 34.7601 36.785 34.7601 36.765 34.7601C36.745 34.7601 36.735 34.7601 36.725 34.7601C36.685 34.7601 36.645 34.7701 36.615 34.7801C36.545 34.7901 36.465 34.8001 36.395 34.8101C36.365 34.8101 36.325 34.8101 36.295 34.8101H36.285C36.145 34.8301 36.005 34.8501 35.865 34.8701C35.605 34.9001 35.345 34.9401 35.085 34.9901C34.835 35.0201 34.465 35.1201 34.585 35.4501C34.635 35.5701 34.795 35.6601 34.925 35.6101C35.095 35.5601 35.265 35.5301 35.445 35.5001C36.065 35.4001 36.685 35.3401 37.305 35.2301C37.325 35.2301 37.335 35.2501 37.355 35.2501C38.245 35.4101 39.155 35.3301 40.035 35.5901C39.565 35.9001 38.975 35.9301 38.435 36.0001C37.435 36.1201 36.415 36.1001 35.415 36.2601C35.255 36.3001 35.145 36.4401 35.155 36.6001C35.215 36.9401 35.665 36.9101 35.925 36.9501C36.275 36.9901 36.625 37.0201 36.975 37.0601C37.505 37.1301 38.035 37.1901 38.535 37.3501C37.735 37.6401 36.865 37.5601 36.025 37.6101C35.785 37.6001 35.525 37.7901 35.595 38.0501C35.635 38.2201 35.805 38.3101 35.935 38.4001C36.085 38.5001 36.225 38.5901 36.375 38.6901C35.225 38.7301 34.095 38.4101 32.955 38.2601C32.415 38.1801 31.875 38.0701 31.325 38.0101L31.305 38.0401L31.285 38.0701L31.265 38.1001L31.245 38.1301L31.225 38.1601L31.205 38.1901L31.185 38.2201L31.165 38.2501L31.145 38.2801L31.125 38.3101L31.105 38.3401L31.085 38.3701L31.065 38.4001V38.4201C31.085 38.4701 31.125 38.5101 31.195 38.5401C31.835 38.6901 32.505 38.7501 33.155 38.8701C34.065 39.0201 34.975 39.2101 35.905 39.2701C36.165 39.2801 36.475 39.3101 36.735 39.2101C36.825 39.1701 36.905 39.1201 36.985 39.0501C37.275 38.7101 36.965 38.3401 36.645 38.1701C37.415 38.1201 38.245 38.1701 38.945 37.8001C39.155 37.6801 39.295 37.4401 39.235 37.2001C39.065 36.7501 38.335 36.7101 37.925 36.6201C38.625 36.5501 40.955 36.4501 40.655 35.3601L40.595 35.4301Z" fill="black"/>
<path id="Vector_22" d="M14.8951 39.4201C14.6651 39.2701 14.8051 38.9101 15.0851 39.0001C15.3551 39.0801 15.2951 39.3801 15.1151 39.4501C15.0551 39.4701 14.9751 39.4701 14.8951 39.4201Z" fill="black"/>
<path id="Vector_23" d="M30.115 40.0202C27.795 40.3602 25.475 40.2902 23.135 40.2802C21.425 40.2802 19.715 40.0802 18.015 39.8802C17.115 39.7702 16.195 39.7302 15.315 39.5302C15.195 39.5102 15.095 39.3502 15.205 39.2502C15.265 39.1902 15.365 39.1802 15.445 39.1802C15.695 39.1802 15.935 39.2102 16.185 39.2202C17.885 39.3302 19.575 39.5602 21.265 39.6802C22.395 39.7602 23.535 39.7602 24.665 39.7602C26.175 39.7602 27.705 39.7602 29.205 39.6002C29.475 39.5702 29.745 39.5402 30.015 39.5002C30.325 39.4502 30.425 39.8802 30.155 39.9902C30.135 39.9902 30.125 40.0002 30.105 40.0002L30.115 40.0202Z" fill="black"/>
<path id="Vector_24" d="M47.1851 42.5401C47.1551 42.4401 47.0951 42.3901 47.0151 42.3701C47.0151 42.2901 46.9651 42.2001 46.8751 42.1601C46.7051 42.0001 46.4351 41.9601 46.2151 41.8701C45.9951 41.7701 45.7751 41.6701 45.5551 41.5701C42.7251 40.2101 39.7951 39.1101 36.8651 37.9901C36.6451 37.4801 36.4251 36.9701 36.2551 36.4401C35.5951 34.1201 35.5951 33.1901 36.1851 30.8301C36.4951 29.5601 37.0151 26.7301 37.0851 25.4001C37.4151 21.1301 35.5251 20.4801 35.0651 20.0401C34.6051 19.6101 34.0851 19.2001 33.7851 18.6401C33.0251 17.2101 32.4551 15.4801 30.7451 14.9701C30.6251 14.9301 30.4551 14.8701 30.3051 14.8501C30.2651 14.8301 30.2151 14.8301 30.1651 14.8301C30.0651 14.8601 29.9751 14.9301 29.8851 14.9701C29.4551 15.2101 29.0151 15.4201 28.5651 15.6101C28.5151 15.5301 28.4151 15.4701 28.2951 15.5101C28.2151 15.5401 28.1351 15.5701 28.0451 15.6001C27.1951 15.8901 26.3051 16.0101 25.4451 16.2201C24.6051 16.4201 23.7651 16.6401 22.9251 16.8601C22.5451 16.9701 22.1651 17.1001 21.7951 17.2301C20.2951 17.6701 18.8651 18.3001 17.6451 19.3201C16.5651 20.3001 15.9151 21.6201 15.2251 22.8901C12.7551 26.4001 10.9451 31.3701 7.89506 34.9801C6.89506 36.4301 -0.844941 42.4201 0.895059 44.1001C1.28506 44.5601 1.96506 44.6101 2.52506 44.7201C3.50506 44.8701 4.45506 45.1601 5.36506 45.5401C7.69506 46.5901 9.91506 47.8501 12.0651 49.2401C14.7351 50.8701 17.4351 52.4501 19.8351 54.4801C19.8451 54.4901 19.8551 54.5001 19.8751 54.5101C19.8151 54.6401 19.8551 54.8201 20.0151 54.8801C20.2251 54.9801 20.4151 54.8201 20.5051 54.6401C20.6051 54.5101 20.7051 54.3701 20.7951 54.2301C20.9951 54.1501 21.2151 53.6901 21.4251 53.0801C22.1751 51.4801 22.6051 49.7501 22.9851 48.0301C23.2351 46.8901 23.4151 45.7401 23.7551 44.6301C24.4351 43.0901 25.7751 41.5501 27.6151 39.7701C28.9451 39.6801 29.7451 39.8001 30.5651 39.4601C30.7751 39.9801 30.9751 40.5001 31.2351 41.0001C31.5151 41.6101 31.9951 42.0801 32.5951 42.3901C34.6451 43.4901 36.7851 44.4101 38.9051 45.3601C39.9951 45.8201 41.1251 46.2001 42.2351 46.6201C43.3051 47.0301 44.3851 47.3901 45.4851 47.7201C45.4951 47.7201 45.5051 47.7201 45.5251 47.7201C45.4951 47.8201 45.5051 47.9001 45.5551 47.9701C45.6751 48.1301 45.9551 48.0801 45.9951 47.8801C46.1051 47.7001 46.2251 47.5201 46.3251 47.3301C47.0651 45.9301 47.5851 44.1001 47.1851 42.5301V42.5401Z" fill="#C2E3FA"/>
<path id="Vector_25" d="M43.0251 11.8901C41.2251 10.7301 39.2551 12.0501 38.7751 13.7801C37.5451 13.2601 35.715 12.3301 35.085 14.0401C34.415 15.8501 33.385 15.0801 32.425 15.3301C32.735 16.5301 38.565 28.6801 41.795 18.8301C42.505 19.1701 43.0751 19.1001 43.0751 19.1001C43.0751 19.1001 43.335 13.8301 43.015 11.8901H43.0251Z" fill="#D98C4A"/>
<path id="Vector_26" d="M56.375 45.8001C56.455 45.9001 56.445 46.0501 56.355 46.1401C56.225 46.2601 56.045 46.2101 55.885 46.2101C55.725 46.2101 55.565 46.1901 55.405 46.1801C54.825 46.1401 54.245 46.1101 53.675 46.0101C54.145 46.3401 54.605 46.6301 55.085 46.9101C55.465 47.1601 55.925 47.3301 56.195 47.7101C56.305 47.8801 56.195 48.1301 55.985 48.1501C55.815 48.1501 55.655 48.1201 55.485 48.0901C55.085 48.0201 54.685 47.9301 54.285 47.8301C53.405 47.6001 52.535 47.3301 51.645 47.1201C52.415 47.6801 53.355 48.0201 54.035 48.7001C54.235 48.9601 54.005 49.2801 53.695 49.1801C52.965 49.0301 52.255 48.8201 51.545 48.6101C51.625 48.7901 51.715 48.9701 51.785 49.1601C51.825 49.2801 51.885 49.4401 51.825 49.5601C51.755 49.7201 51.575 49.7701 51.425 49.7001C50.345 49.1801 49.295 48.5801 48.255 48.0001C47.865 47.7701 47.405 47.5601 47.025 47.3701C46.935 47.3201 46.845 47.2801 46.775 47.2001C46.665 47.0701 46.725 46.8501 46.885 46.8001C46.865 46.7301 46.875 46.6601 46.905 46.5901C46.965 46.4101 47.005 46.2201 47.045 46.0301C47.125 45.6401 47.205 45.2401 47.295 44.8501C47.395 44.4501 47.495 44.0501 47.595 43.6501C47.625 43.5201 47.675 43.3901 47.775 43.2901C47.875 43.1901 48.005 43.1901 48.135 43.1901C48.275 43.1901 48.405 43.1901 48.535 43.1801C49.345 43.1301 50.135 42.9501 50.895 42.6701C51.535 42.4501 52.165 42.2001 52.825 42.0101C53.075 41.9501 53.355 41.8401 53.615 41.9301C53.775 41.9901 53.845 42.2001 53.745 42.3401C53.645 42.4801 53.485 42.5401 53.345 42.6401C52.795 43.0401 52.285 43.4901 51.715 43.8601C52.695 44.4501 53.765 44.8501 54.835 45.2401C55.245 45.3801 55.675 45.5001 56.085 45.6301C56.195 45.6601 56.315 45.6901 56.385 45.7901L56.375 45.8001Z" fill="#D98C4A"/>
<path id="Vector_27" d="M45.995 5.78018C46.515 7.98018 44.705 12.8202 41.835 11.6002C38.705 11.1602 39.875 12.5202 38.675 13.5402C38.605 13.6002 38.485 13.6002 38.405 13.5602C35.905 12.1002 35.685 13.2902 34.305 15.2002C31.375 15.1102 29.135 14.9602 28.345 13.3802C27.915 12.5202 28.065 11.1002 28.425 9.33018C28.205 7.69018 26.115 4.59018 28.895 4.12018C31.565 3.77018 31.745 0.630178 34.915 1.36018C35.985 1.27018 37.275 2.58018 38.035 1.53018C39.245 -0.0598222 41.515 0.390178 42.535 1.94018C43.435 3.52018 45.675 3.91018 45.995 5.79018V5.78018Z" fill="#3F3D56"/>
<path id="Vector_28" d="M31.255 3.10014C30.855 2.85014 31.325 2.32014 31.545 2.11014C31.855 1.81014 32.255 1.60014 32.665 1.45014C33.765 1.05014 34.965 1.12014 36.095 1.29014C36.705 1.37014 37.285 1.68014 37.905 1.66014C38.125 1.66014 38.245 1.95014 38.085 2.09014C37.825 2.27014 37.465 2.14014 37.185 2.08014C35.535 1.60014 33.065 1.26014 31.755 2.62014C31.565 2.78014 31.585 3.20013 31.255 3.09014V3.10014Z" fill="#3F3D56"/>
<path id="Vector_29" d="M45.5049 5.51006C45.0049 4.29006 44.5449 4.47006 43.7449 3.63006C42.5549 2.29006 41.8849 1.19006 39.9949 0.770063C39.5549 0.790063 39.6349 0.150063 40.0449 0.290063C41.8449 0.610063 42.7849 1.67006 43.8749 3.02006C44.1149 3.29006 44.3849 3.55006 44.6849 3.77006C44.9749 3.97006 45.2849 4.15006 45.4949 4.44006C45.6949 4.74006 45.8949 5.05006 46.0049 5.39006C46.0749 5.71006 45.5949 5.83006 45.5049 5.51006Z" fill="#3F3D56"/>
<path id="Vector_30" d="M10.025 92.8501C11.425 96.5401 7.625 95.3501 5.605 95.4801C3.795 95.4401 3.755 92.7301 3.975 91.5101C6.075 91.3001 6.075 93.2401 9.825 91.2201C9.945 91.5401 10.025 92.8601 10.025 92.8601V92.8501Z" fill="#0079D0"/>
<path id="Vector_31" d="M23.705 96.2502C16.025 96.5902 18.775 93.4002 15.555 94.6902C13.995 95.5702 10.685 94.2902 10.765 96.8202C10.845 99.3502 14.925 98.5002 16.435 98.8302C17.365 99.1102 23.915 98.2402 24.485 97.3802C24.835 96.9802 24.425 96.4902 23.705 96.2502Z" fill="#0079D0"/>
<path id="Vector_32" d="M36.6851 39.6601C36.6851 39.6601 36.685 39.6601 36.695 39.6601L36.675 39.6801V39.7001C36.675 39.7001 36.675 39.6701 36.675 39.6501L36.6851 39.6601Z" fill="black"/>
<path id="Vector_33" d="M36.915 37.6802C36.915 37.6802 36.885 37.6902 36.865 37.7002C36.885 37.7002 36.895 37.6902 36.915 37.6802Z" fill="black"/>
<path id="Vector_34" d="M35.825 17.4301C34.935 17.3101 34.905 15.7801 35.145 15.0801C35.145 15.0801 35.145 15.0901 35.145 15.1001C35.395 14.0701 37.055 12.8101 37.705 14.1401C37.715 14.1701 37.895 14.5101 37.905 14.6701C37.865 14.7001 37.835 14.7401 37.795 14.7701C36.405 12.4601 34.175 16.2901 36.105 17.3201C36.065 17.4301 35.925 17.4601 35.825 17.4201V17.4301Z" fill="black"/>
<path id="Vector_35" d="M36.405 13.4401C36.405 13.4401 36.405 13.4401 36.395 13.4501C36.395 13.4501 36.395 13.4501 36.405 13.4501V13.4401Z" fill="black"/>
<path id="Vector_36" d="M37.9551 2.67016C37.9551 2.67016 37.9551 2.67016 37.9551 2.66016H38.0551V2.68016C38.0151 2.68016 37.9751 2.68016 37.9351 2.68016L37.9551 2.67016Z" fill="black"/>
<path id="Vector_37" d="M30.855 6.41014C30.855 6.41014 30.915 6.32014 30.945 6.27014C30.915 6.35014 30.885 6.43014 30.855 6.51014C30.855 6.48014 30.855 6.44014 30.855 6.41014Z" fill="black"/>
<path id="Vector_38" d="M43.4549 43.4001C43.4549 43.4001 43.4949 43.4101 43.5149 43.4201C43.4949 43.4201 43.4649 43.4001 43.4449 43.3901L43.4549 43.4001Z" fill="black"/>
<path id="Vector_39" d="M47.545 46.0001C47.545 46.0001 47.545 46.0201 47.535 46.0301C47.535 46.0301 47.535 46.0101 47.545 46.0001Z" fill="black"/>
<path id="Vector_40" d="M47.925 44.2701C47.925 44.2701 47.925 44.2901 47.915 44.3001C47.915 44.3201 47.915 44.3301 47.905 44.3501C47.905 44.3801 47.885 44.4101 47.885 44.4401C47.885 44.4601 47.875 44.4901 47.865 44.5101C47.845 44.4301 47.865 44.3301 47.925 44.2701Z" fill="black"/>
<path id="Vector_41" d="M52.655 44.3002C52.655 44.3102 52.665 44.3202 52.675 44.3302C52.675 44.3302 52.655 44.3102 52.645 44.3002H52.655Z" fill="black"/>
<path id="Vector_42" d="M31.735 42.2601C31.575 42.0301 31.835 41.7501 32.065 41.9301C32.365 42.1601 31.965 42.5501 31.735 42.2601Z" fill="black"/>
<path id="Vector_43" d="M54.885 46.5401C55.015 46.5601 55.145 46.5801 55.275 46.5901C55.405 46.5901 55.585 46.6001 55.765 46.6001C56.215 46.6001 56.735 46.5401 56.865 46.1601C56.905 46.0201 56.845 45.8601 56.735 45.7601C56.055 45.2301 55.215 44.9801 54.415 44.7001C54.015 44.5601 53.615 44.4101 53.235 44.2401C53.005 44.1201 52.725 44.0301 52.555 43.8301C52.615 43.7301 52.735 43.7001 52.825 43.6401C53.205 43.4301 53.585 43.2001 53.865 42.8701C54.355 42.3801 54.395 41.5801 53.565 41.4901C53.155 41.4301 52.765 41.5401 52.375 41.6701C51.795 41.8801 51.255 42.1201 50.665 42.3401C49.925 42.6201 49.185 42.9101 48.405 43.1101C48.345 43.1301 48.025 43.1601 47.885 43.1801C47.805 42.7301 47.635 42.2401 47.515 42.0601C47.515 42.0601 47.515 42.0501 47.505 42.0401C47.505 42.0401 47.485 42.0101 47.485 42.0001C47.465 42.0001 47.465 42.0001 47.445 42.0001C47.415 41.9701 47.395 41.9401 47.345 41.9301C46.645 41.7501 45.965 41.5001 45.295 41.2301C43.255 40.3901 41.285 39.3401 39.225 38.5301C37.985 38.0501 36.735 37.4801 35.395 37.3501C34.985 37.2801 34.935 37.8501 35.355 37.8501C36.625 38.0001 37.845 38.5401 39.035 39.0101C41.705 40.0501 44.205 41.5501 46.955 42.3601C47.005 42.5001 47.075 42.7001 47.125 42.8001C47.615 44.5001 46.705 46.2101 45.765 47.5701C45.725 47.6301 45.685 47.6801 45.645 47.7301C45.425 47.6801 45.215 47.6301 45.005 47.5701C43.545 47.1901 42.115 46.6401 40.705 46.0901C39.645 45.6801 38.585 45.2801 37.555 44.8001C36.015 44.0801 34.525 43.2601 32.975 42.5501C32.755 42.4501 32.525 42.3401 32.305 42.2401C32.225 42.2101 32.135 42.1801 32.055 42.2201C31.925 42.2801 31.955 42.4601 32.055 42.5201C32.795 43.0101 33.645 43.3801 34.445 43.8101C35.965 44.6001 37.485 45.3901 39.085 46.0101C41.255 46.8501 43.405 47.7501 45.685 48.2601C45.825 48.2801 45.915 48.2001 45.955 48.1001C45.965 48.1001 45.985 48.1101 45.995 48.1201C45.995 48.1201 46.035 48.1401 46.045 48.1501C46.305 47.8901 46.515 47.6001 46.715 47.2901C47.035 47.5001 48.085 48.1701 48.555 48.4601C49.355 48.9301 50.135 49.4301 50.975 49.8201C51.215 49.9201 51.495 50.0601 51.765 50.0601C51.865 50.0601 51.955 50.0401 52.055 50.0001C52.455 49.7801 52.295 49.3301 52.055 49.0601C52.785 49.2901 53.545 49.6301 54.335 49.5401C54.565 49.5101 54.795 49.3301 54.815 49.0801C54.815 48.6001 54.145 48.3001 53.795 48.0701C54.475 48.2601 56.685 48.9901 56.795 47.8701C56.765 47.3001 55.355 46.7801 54.845 46.5401H54.885ZM54.555 47.6801C53.575 47.4301 52.635 47.0501 51.645 46.8401C51.485 46.8201 51.325 46.9101 51.285 47.0701C51.225 47.4101 51.645 47.5401 51.885 47.6701C52.195 47.8301 52.515 47.9901 52.825 48.1501C53.285 48.4001 53.765 48.6501 54.175 48.9801C53.325 48.9701 52.545 48.5801 51.745 48.3301C51.525 48.2301 51.215 48.3201 51.185 48.5901C51.165 48.7601 51.285 48.9101 51.375 49.0401C51.475 49.1901 51.585 49.3301 51.685 49.4701C50.595 49.1001 49.655 48.4001 48.655 47.8401C48.195 47.5801 47.485 47.1201 47.005 46.8601C47.105 46.6901 47.195 46.5201 47.285 46.3501C47.295 46.3301 47.305 46.3001 47.315 46.2801C47.385 46.1201 47.445 45.9501 47.495 45.7901C47.515 45.7201 47.535 45.6501 47.565 45.5901C47.585 45.5301 47.615 45.4701 47.635 45.4201C47.665 45.3401 47.695 45.2501 47.725 45.1601C47.735 45.1201 47.755 45.0701 47.775 45.0301C47.775 45.0201 47.775 45.0101 47.775 45.0001C47.775 45.0001 47.775 45.0001 47.775 45.0101C47.785 44.9501 47.795 44.8801 47.815 44.8201C47.825 44.7601 47.845 44.6901 47.855 44.6301C47.855 44.6301 47.855 44.6301 47.855 44.6201C47.855 44.5601 47.875 44.5101 47.885 44.4501C47.885 44.4201 47.895 44.3901 47.905 44.3601C47.905 44.3401 47.905 44.3301 47.915 44.3201C47.915 44.3101 47.915 44.3001 47.925 44.2801C47.925 44.2701 47.925 44.2501 47.925 44.2401C47.925 44.2001 47.925 44.1601 47.935 44.1201C47.935 44.0001 47.925 43.8701 47.925 43.7501C48.095 43.7301 48.265 43.7201 48.265 43.7301C49.275 43.5601 50.765 42.9001 51.305 42.7201C51.645 42.6101 52.165 42.3401 52.655 42.1901C52.685 42.1801 52.715 42.1701 52.745 42.1501C52.805 42.1301 52.865 42.1101 52.925 42.0901C52.995 42.0701 53.055 42.0601 53.125 42.0401C53.205 42.0201 53.285 42.0101 53.365 42.0101C53.445 42.0101 53.525 42.0101 53.595 42.0601C53.595 42.0601 53.615 42.0701 53.615 42.0801C53.635 42.0901 53.645 42.1101 53.655 42.1301C53.665 42.1601 53.675 42.2001 53.675 42.2301C53.675 42.2801 53.645 42.3201 53.625 42.3601C53.595 42.4101 53.555 42.4501 53.515 42.5001C53.445 42.5701 53.365 42.6401 53.285 42.7101C53.245 42.7401 53.205 42.7701 53.155 42.8001C53.115 42.8301 53.075 42.8601 53.035 42.8901C53.035 42.8901 53.035 42.8901 53.025 42.8901C52.995 42.9101 52.965 42.9401 52.925 42.9601C52.885 42.9801 52.845 43.0001 52.805 43.0301C52.735 43.0701 52.665 43.1201 52.585 43.1601C52.535 43.1901 52.495 43.2201 52.445 43.2401C52.415 43.2601 52.395 43.2701 52.365 43.2901C52.365 43.2901 52.355 43.2901 52.345 43.2901C52.275 43.3301 52.205 43.3701 52.135 43.4101C52.075 43.4401 52.005 43.4701 51.945 43.5101L51.925 43.5301C51.925 43.5301 51.895 43.5801 51.875 43.5901C51.865 43.5901 51.855 43.6001 51.845 43.6101C51.845 43.6101 51.825 43.6301 51.815 43.6401C51.815 43.6401 51.815 43.6401 51.805 43.6501C51.765 43.6801 51.735 43.7201 51.705 43.7501C51.695 43.7701 51.675 43.7801 51.665 43.8001C51.665 43.8001 51.665 43.8201 51.655 43.8301C51.655 43.8501 51.645 43.8701 51.635 43.8801C51.635 43.9001 51.625 43.9101 51.625 43.9301C51.625 43.9301 51.625 43.9401 51.625 43.9501V43.9701C51.625 43.9701 51.625 43.9801 51.625 43.9901C51.625 43.9901 51.625 44.0001 51.625 44.0101C51.625 44.0101 51.635 44.0301 51.645 44.0401C51.655 44.0601 51.675 44.0801 51.685 44.0901C51.705 44.1101 51.715 44.1301 51.735 44.1501C51.745 44.1601 51.755 44.1701 51.765 44.1801C51.795 44.2001 51.825 44.2301 51.865 44.2501C51.895 44.2701 51.935 44.2901 51.965 44.3101C52.005 44.3301 52.035 44.3401 52.075 44.3501C52.115 44.3701 52.145 44.3801 52.185 44.4001C52.215 44.4101 52.245 44.4301 52.285 44.4401C52.315 44.4501 52.345 44.4701 52.375 44.4801C52.445 44.5101 52.525 44.5501 52.595 44.5801C52.665 44.6101 52.735 44.6401 52.795 44.6701C52.795 44.6701 52.785 44.6601 52.775 44.6501C53.105 44.8101 53.455 44.9401 53.685 45.0401C54.505 45.3601 55.365 45.5801 56.135 46.0201C55.395 46.0901 54.665 45.9701 53.935 45.8101H53.915C53.905 45.8101 53.895 45.8101 53.885 45.8101C53.865 45.8101 53.835 45.8001 53.815 45.7901C53.805 45.7901 53.785 45.7901 53.775 45.7801C53.735 45.7801 53.695 45.7601 53.655 45.7601C53.585 45.7401 53.515 45.7301 53.445 45.7101C53.415 45.7101 53.375 45.6901 53.345 45.6801C53.205 45.6501 53.065 45.6101 52.925 45.5801C52.675 45.5201 52.415 45.4601 52.155 45.4101C51.905 45.3501 51.535 45.3101 51.525 45.6601C51.525 45.7901 51.645 45.9301 51.785 45.9301C51.965 45.9401 52.125 45.9801 52.305 46.0201C52.795 46.1201 53.275 46.2501 53.765 46.3601C53.745 46.4501 53.795 46.5601 53.875 46.6101C54.645 47.0801 55.525 47.3301 56.255 47.8801C55.705 48.0001 55.145 47.8201 54.615 47.6901L54.555 47.6801ZM52.015 43.9501C52.005 43.9401 51.985 43.9301 51.975 43.9101C51.985 43.9101 51.995 43.8901 52.015 43.8901C52.015 43.9101 52.015 43.9301 52.015 43.9501Z" fill="black"/>
<path id="Vector_44" d="M40.745 20.5601C40.745 20.5601 40.765 20.5201 40.775 20.5101H40.785C40.885 20.5101 40.965 20.4201 40.975 20.3201C40.975 20.3201 40.995 20.2401 41.015 20.2001C41.095 20.3701 40.955 20.5601 40.775 20.5601C40.775 20.5601 40.755 20.5601 40.745 20.5601Z" fill="black"/>
<path id="Vector_45" d="M40.005 15.6102C39.435 15.0002 41.135 15.0002 41.445 15.0402C41.755 15.0702 41.725 15.5502 41.415 15.5502C41.025 15.5202 40.685 15.5302 40.315 15.6002C40.205 15.6202 40.105 15.6702 39.995 15.6102H40.005Z" fill="black"/>
<path id="Vector_46" d="M39.855 14.1701C39.715 13.5001 41.465 13.4301 41.905 13.5001C42.045 13.5201 42.145 13.6501 42.125 13.7801C42.085 14.1601 41.435 13.9201 41.155 13.9901C40.865 14.0101 40.615 14.0601 40.355 14.1701C40.175 14.2801 39.975 14.4101 39.845 14.1701H39.855Z" fill="black"/>
<path id="Vector_47" d="M45.555 3.91014C45.325 3.69014 44.995 3.70014 44.745 3.52014C44.125 3.01014 43.725 2.28014 43.175 1.69014C42.345 0.74014 41.155 -0.11986 39.835 0.0101402C39.025 0.0701402 38.435 0.66014 37.995 1.30014C37.555 1.67014 36.385 1.00014 35.815 0.95014C34.785 0.70014 33.685 0.66014 32.655 0.98014C31.735 1.25014 30.705 1.99014 30.745 3.05014C29.585 3.62014 27.915 3.62014 27.255 4.93014C26.515 6.85014 28.065 7.62014 28.165 9.12014C28.295 10.3201 27.385 12.8401 28.065 13.7301C28.455 14.1501 28.875 14.4601 29.325 14.7001C28.895 14.9701 28.445 15.2101 27.995 15.4501C23.855 15.9901 19.345 17.1001 16.635 19.9701C14.115 22.6401 12.595 27.0601 10.645 30.7601C10.485 30.9801 10.355 31.3001 10.235 31.4401C9.97498 31.8501 9.68498 32.2401 9.38498 32.6301C7.92498 34.5301 6.24498 36.2201 4.56498 37.9301C3.50498 38.9701 2.45498 40.0001 1.47498 41.1101C1.45498 41.1401 1.42498 41.1601 1.39498 41.1901C1.32498 41.2701 1.26498 41.3501 1.19498 41.4401C1.15498 41.4901 1.10498 41.5401 1.06498 41.5901C0.58498 42.1601 0.11498 42.7601 0.10498 43.5701C0.18498 44.0501 0.51498 44.2901 0.58498 44.3901C0.39498 45.0501 0.15498 52.3801 0.20498 52.9401C0.35498 54.7901 0.50498 56.6301 0.65498 58.4801C0.80498 60.3301 0.96498 62.1701 1.12498 64.0201C1.21498 65.1001 1.30498 66.1701 1.40498 67.2501C1.40498 67.2701 1.40498 67.2901 1.40498 67.3101C1.47498 68.2201 1.54498 69.1301 1.62498 70.0501C1.79498 72.1801 1.96498 74.3101 2.14498 76.4401C2.31498 78.5501 2.47498 80.6601 2.63498 82.7701C2.79498 84.8801 2.95498 86.9901 3.09498 89.1101C3.12498 89.6101 3.16498 90.1201 3.19498 90.5801C3.19498 90.6201 3.19498 90.6501 3.19498 90.6901C3.19498 90.7301 3.19498 90.7701 3.19498 90.8001C3.20498 90.8901 3.24498 90.9601 3.30498 91.0101C3.33498 91.0701 3.37498 91.1301 3.42498 91.1801C3.36498 91.7401 3.54498 92.3001 3.58498 92.8501C3.65498 93.0701 3.63498 93.7601 3.73498 94.2401C3.73498 94.2701 3.73498 94.3001 3.73498 94.3301C3.76498 94.9801 4.00498 95.4101 4.60498 95.5701C5.23498 95.7601 5.88498 95.8201 6.53498 95.8201H6.71498C6.95498 95.8201 7.19498 95.8201 7.42498 95.8001C8.15498 95.7501 8.88498 95.6901 9.62498 95.6401C9.88498 95.6001 10.235 95.6201 10.535 95.5601C10.385 96.7601 10.005 98.1601 11.095 98.8701C11.545 99.0701 12.045 99.0901 12.535 99.1301C13.185 99.1901 13.835 99.2501 14.495 99.2501H16.885C18.855 99.1501 20.865 98.9801 22.755 98.4201C23.655 98.2301 25.295 97.8501 24.855 96.4901C24.755 95.8901 23.325 95.7201 23.155 95.6801C22.885 95.6401 22.605 95.6301 22.335 95.6401C22.035 95.6401 20.965 95.6901 20.725 95.6901C20.725 95.6901 20.055 95.6601 19.725 95.5801C18.545 95.3801 18.265 94.9301 17.815 93.8701C18.155 93.5501 19.135 92.4601 19.135 92.4501C19.165 92.4101 19.185 92.3601 19.205 92.3001C19.315 92.0101 19.195 91.6901 19.175 91.3901C19.085 90.7301 19.045 90.0701 19.005 89.4001C18.855 86.8501 18.935 84.2901 18.935 81.7401C18.895 79.6101 18.925 77.4701 18.975 75.3401H18.965C18.965 75.0801 18.955 74.8301 18.965 74.5701C18.985 74.3501 18.985 74.1401 18.985 73.9301C18.995 73.5001 19.015 73.0801 19.025 72.6501C19.245 68.5801 19.615 64.6001 19.945 60.5501C20.075 58.8001 20.355 57.0501 20.405 55.3001C20.425 55.2801 20.435 55.2601 20.445 55.2301C20.445 55.2001 20.465 55.1701 20.475 55.1401C20.495 55.1401 20.505 55.1401 20.525 55.1401C20.765 55.0201 20.945 54.8101 21.065 54.5801C21.305 54.1401 21.505 53.7101 21.685 53.2401C22.285 51.6401 22.635 49.9501 23.005 48.2801C23.355 46.8101 23.625 45.2501 24.375 43.9301C25.265 42.8101 26.375 41.8901 27.295 40.7901C28.095 39.9001 28.825 38.9501 29.595 38.0301C29.815 38.8501 30.095 39.6401 30.485 40.4001C30.755 40.9801 31.015 41.6101 31.495 42.0601C32.225 42.6501 33.085 43.0601 33.945 43.4701L33.995 43.3901L34.065 43.2701L34.135 43.1501L34.155 43.1201C33.515 42.8201 32.885 42.5301 32.295 42.1501C32.155 42.0701 32.035 41.8901 31.855 41.8901C31.365 41.4401 31.165 40.7601 30.895 40.1701C30.355 39.0301 30.045 37.8101 29.765 36.5901C29.365 34.7201 28.985 32.8501 28.815 30.9401C28.745 29.9401 28.665 28.9201 28.525 27.9401C28.455 27.5501 27.935 27.6601 27.945 27.9901C27.945 28.1901 27.975 28.3201 27.975 28.4801C28.085 29.5401 28.235 30.6001 28.315 31.6601C28.475 32.9201 28.745 34.1801 28.985 35.4201C29.115 36.0101 29.235 36.6101 29.385 37.2001C29.385 37.2001 29.465 37.5501 29.475 37.5601C29.435 37.6201 28.755 38.3401 28.645 38.4601C28.485 38.6401 28.325 38.8301 28.155 39.0001C28.115 39.0401 28.075 39.0801 28.035 39.1201C28.025 39.1301 28.015 39.1401 27.995 39.1601C27.855 39.3001 27.715 39.4401 27.575 39.5801C27.535 39.6101 27.505 39.6501 27.475 39.6801C26.965 40.2501 26.475 40.8401 25.965 41.4101C25.325 42.1601 24.595 42.8501 23.995 43.6301C22.785 45.6101 22.555 48.0001 21.965 50.2001C21.655 51.4701 21.295 52.7801 20.685 53.9401C20.685 53.9401 20.685 53.9601 20.675 53.9601C20.675 53.9601 20.675 53.9701 20.675 53.9801C20.665 54.0101 20.655 54.0301 20.645 54.0601C20.625 54.1101 20.605 54.1701 20.575 54.2201C20.555 54.2501 20.545 54.2801 20.525 54.3101C20.505 54.3401 20.485 54.3601 20.475 54.3901C20.475 54.4101 20.455 54.4201 20.455 54.4401C20.455 54.4601 20.435 54.4701 20.435 54.4901C20.415 54.5301 20.395 54.5601 20.365 54.6001C20.365 54.6001 20.355 54.6101 20.345 54.6201C20.325 54.6401 20.315 54.6601 20.295 54.6801H20.285C20.285 54.6801 20.275 54.7101 20.265 54.7101C20.265 54.7201 20.245 54.7301 20.235 54.7401C20.225 54.7501 20.215 54.7701 20.205 54.7801C20.205 54.7801 20.185 54.7901 20.185 54.8001C20.165 54.7901 20.155 54.7701 20.145 54.7501C20.145 54.7501 20.145 54.7501 20.135 54.7501C20.115 54.7301 20.095 54.7101 20.085 54.6901C20.085 54.6901 20.075 54.6801 20.065 54.6701C20.005 54.6001 19.945 54.5301 19.885 54.4601C19.885 54.4601 19.885 54.4501 19.865 54.4401C19.865 54.4401 19.785 54.3601 19.745 54.3101C19.675 54.2201 19.595 54.1301 19.525 54.0401C19.475 53.9901 19.435 53.9401 19.385 53.8901C19.375 53.8801 19.355 53.8601 19.345 53.8501C19.315 53.8201 19.285 53.7901 19.255 53.7501C19.245 53.7401 19.235 53.7301 19.225 53.7201C19.115 53.6101 18.985 53.5001 18.865 53.4001C18.785 53.3301 18.705 53.2601 18.615 53.2001C18.435 53.0501 18.265 52.9001 18.075 52.7601C18.065 52.7501 18.045 52.7401 18.035 52.7301C18.025 52.7301 18.005 52.7101 17.995 52.7001C17.995 52.7001 17.995 52.7001 17.985 52.6901C17.855 52.5901 17.725 52.4901 17.585 52.3901C17.455 52.2901 17.325 52.2001 17.195 52.1101C17.065 52.0301 16.945 51.9401 16.815 51.8501C16.695 51.7701 16.575 51.6901 16.465 51.6101C16.325 51.5201 16.195 51.4201 16.055 51.3301C15.915 51.2301 15.775 51.1301 15.625 51.0401C15.625 51.0401 15.615 51.0401 15.605 51.0301C15.585 51.0201 15.575 51.0101 15.555 51.0001C15.555 51.0001 15.545 51.0001 15.535 50.9901C15.525 50.9901 15.505 50.9701 15.495 50.9601C15.495 50.9601 15.485 50.9601 15.475 50.9501C15.415 50.9101 15.365 50.8801 15.305 50.8401C15.285 50.8201 15.255 50.8101 15.235 50.8001C15.235 50.8001 15.245 50.8001 15.255 50.8101C15.165 50.7501 15.075 50.7001 14.985 50.6401C14.805 50.5301 14.625 50.4401 14.445 50.3301C14.275 50.2301 14.105 50.1301 13.925 50.0201C13.575 49.8101 13.215 49.6301 12.875 49.4301C12.645 49.3001 12.415 49.1501 12.185 49.0201C11.945 48.8801 11.705 48.7401 11.475 48.6001C11.385 48.5401 11.285 48.4901 11.195 48.4301C11.105 48.3701 11.015 48.3101 10.925 48.2601C10.745 48.1501 10.575 48.0401 10.395 47.9401C10.215 47.8301 10.025 47.7201 9.84498 47.6001C9.66498 47.4901 9.49498 47.3801 9.31498 47.2701C9.31498 47.2701 9.31498 47.2701 9.30498 47.2701C9.29498 47.2701 9.28498 47.2601 9.27498 47.2501C9.17498 47.1901 9.06498 47.1301 8.96498 47.0801C8.85498 47.0201 8.75498 46.9601 8.64498 46.9001C8.64498 46.9001 8.62498 46.8901 8.61498 46.8801H8.60498C8.38498 46.7601 8.17498 46.6201 7.96498 46.5001C7.76498 46.3801 7.55498 46.2701 7.34498 46.1601C7.34498 46.1601 7.32498 46.1501 7.30498 46.1401C7.25498 46.1201 7.20498 46.0901 7.15498 46.0701C7.07498 46.0301 6.98498 45.9901 6.90498 45.9501C6.88498 45.9501 6.87498 45.9301 6.85498 45.9201C6.85498 45.9201 6.85498 45.9201 6.84498 45.9201C6.79498 45.9001 6.75498 45.8801 6.70498 45.8501C6.70498 45.8501 6.70498 45.8501 6.69498 45.8501C6.61498 45.8101 6.53498 45.7701 6.45498 45.7401C6.44498 45.7401 6.43498 45.7401 6.42498 45.7301C6.42498 45.7301 6.41498 45.7301 6.40498 45.7301C6.40498 45.7301 6.37498 45.7101 6.35498 45.7101H6.33498V45.7001C6.33498 45.7001 6.30498 45.6801 6.28498 45.6801C6.10498 45.5901 5.92498 45.5001 5.73498 45.4301C5.58498 45.3701 5.43498 45.3101 5.28498 45.2501C5.13498 45.1901 4.98498 45.1301 4.83498 45.0701C4.83498 45.0701 4.82498 45.0701 4.81498 45.0701C4.79498 45.0701 4.78498 45.0601 4.76498 45.0501C4.76498 45.0501 4.70498 45.0301 4.67498 45.0201C4.57498 44.9901 4.47498 44.9501 4.38498 44.9101C4.30498 44.8801 4.23498 44.8501 4.15498 44.8201C3.98498 44.7601 3.81498 44.7101 3.64498 44.6601C3.54498 44.6301 1.92498 44.2301 1.29498 44.0601C1.13498 44.0201 0.73498 43.8301 0.90498 43.2401C1.07498 42.6501 1.95498 41.7101 2.59498 40.9901C3.24498 40.3301 3.90498 39.6901 4.53498 39.0101C5.23498 38.2601 5.98498 37.5501 6.70498 36.8101C7.75498 35.7501 8.72498 34.6201 9.66498 33.4701C9.84498 33.2401 10.685 32.1601 11.105 31.4201C13.435 27.7501 13.055 25.6801 17.505 20.0401C20.525 17.6001 23.635 16.2101 29.035 15.9001C30.755 15.8001 35.685 20.9601 35.685 20.9601C35.685 20.9601 34.995 21.0201 34.955 21.0201C31.875 21.2101 29.095 24.0701 29.145 25.9101C29.165 26.1201 29.265 26.1101 29.315 25.9601C30.135 23.6901 32.935 21.2001 35.845 21.3201C35.925 21.3301 36.065 21.4301 36.065 21.4301C36.145 21.4801 36.295 21.6101 36.295 21.6101C38.815 23.7401 34.155 32.6701 36.525 37.9101C36.525 37.9101 36.555 37.9701 36.575 37.9901C36.715 37.8201 36.975 37.8401 37.105 37.6901C35.145 32.7201 37.835 27.7701 37.555 22.7301C39.845 23.1701 41.535 21.5501 42.045 19.4201C44.095 20.2901 43.685 18.0001 43.785 15.8401C43.835 14.6201 43.835 13.4701 43.665 12.2701C43.665 12.2701 43.675 12.2701 43.685 12.2701C46.005 11.2001 47.495 5.89014 45.645 4.00014L45.555 3.91014ZM9.90498 94.7801V94.8001C9.90498 94.8001 9.90498 94.8201 9.90498 94.8301C9.90498 94.8501 9.90498 94.8601 9.89498 94.8801C9.89498 94.9001 9.88498 94.9201 9.86498 94.9301C9.86498 94.9301 9.86498 94.9501 9.85498 94.9501C9.83498 94.9601 9.81498 94.9701 9.79498 94.9801C9.76498 94.9901 9.74498 95.0101 9.71498 95.0201C9.63498 95.0501 9.54498 95.0701 9.45498 95.0901C9.34498 95.1201 9.23498 95.1401 9.12498 95.1701C9.06498 95.1801 9.01498 95.1901 8.95498 95.2001C8.89498 95.2101 8.82498 95.2201 8.75498 95.2301C8.62498 95.2501 8.49498 95.2601 8.36498 95.2801C8.26498 95.2901 8.16498 95.3101 8.07498 95.3101C7.90498 95.3301 7.73498 95.3501 7.56498 95.3601C7.47498 95.3601 7.37498 95.3701 7.28498 95.3801C7.24498 95.3801 7.21498 95.3801 7.17498 95.3801C7.17498 95.3801 7.11498 95.3801 7.08498 95.3801H6.67498C6.48498 95.3801 6.29498 95.3601 6.11498 95.3401H6.09498C6.09498 95.3401 6.05498 95.3401 6.03498 95.3401C5.90498 95.3201 5.77498 95.3201 5.64498 95.3001C5.50498 95.2801 5.35498 95.2501 5.21498 95.2201C5.11498 95.2001 5.01498 95.1701 4.93498 95.1101C4.92498 95.1101 4.91498 95.0901 4.90498 95.0901C4.90498 95.0901 4.88498 95.0901 4.88498 95.0801C4.73498 95.0101 4.62498 94.8901 4.55498 94.7501C4.53498 94.7101 4.52498 94.6601 4.51498 94.6201C4.50498 94.6001 4.49498 94.5701 4.48498 94.5501C4.43498 94.2501 4.38498 93.9401 4.34498 93.6401C4.26498 93.1001 4.21498 92.5301 4.11498 91.9901C4.09498 91.8801 4.09498 91.7601 4.09498 91.6401C4.19498 91.6901 4.28498 91.7301 4.37498 91.7701C5.23498 92.2301 6.19498 92.3301 7.13498 92.3301H7.31498C7.40498 92.3301 7.49498 92.3301 7.58498 92.3301C8.28498 92.3501 8.92498 92.0601 9.54498 91.7601C9.54498 91.7601 9.56498 91.7601 9.57498 91.7501C9.60498 92.2201 9.64498 92.6901 9.69498 93.1601C9.74498 93.6401 9.78498 94.1301 9.86498 94.6101C9.86498 94.6101 9.86498 94.6201 9.86498 94.6301C9.86498 94.6501 9.86498 94.6801 9.86498 94.7001C9.86498 94.7001 9.86498 94.7001 9.86498 94.7101C9.86498 94.7201 9.86498 94.7301 9.87498 94.7401C9.87498 94.7401 9.87498 94.7701 9.87498 94.7801V94.7901L9.90498 94.7801ZM20.035 96.3601H20.215C20.295 96.3601 20.365 96.3601 20.445 96.3601C20.515 96.3601 20.575 96.3601 20.645 96.3601C20.995 96.3601 21.335 96.3501 21.685 96.3301C21.965 96.3201 22.255 96.3001 22.535 96.3001C22.675 96.3001 22.815 96.3001 22.955 96.3201C23.385 96.3901 23.815 96.4601 24.225 96.6001C24.695 97.6201 22.985 97.7401 22.425 97.9201C20.495 98.4701 18.515 98.6601 16.525 98.6601C16.155 98.6601 15.785 98.6601 15.415 98.6401C14.355 98.6101 13.295 98.6101 12.245 98.4301C11.575 98.3501 11.225 98.1301 11.285 97.3301C11.315 96.8501 11.485 96.3901 11.485 95.9001C11.485 95.7501 11.505 95.6101 11.515 95.4601C11.865 95.4601 12.225 95.3901 12.565 95.3801C14.065 95.2001 15.675 95.1301 17.055 94.4201C17.125 94.5701 17.215 94.7101 17.265 94.8501C17.735 96.0201 18.925 96.3501 20.015 96.3501L20.035 96.3601ZM0.83498 46.4001C0.86498 46.1501 0.90498 45.9001 0.97498 45.6601C1.03498 45.4301 1.10498 45.2101 1.17498 44.9901C1.20498 44.8901 1.24498 44.7901 1.30498 44.7201C1.32498 44.7001 1.33498 44.6901 1.35498 44.6701C1.37498 44.6701 5.36498 45.0501 11.145 48.9601C12.395 49.7001 13.665 50.4201 14.895 51.2001C16.025 51.9501 17.095 52.7901 18.165 53.6201C18.765 54.1701 19.405 54.6801 19.905 55.3301C19.855 55.8001 19.815 56.2601 19.715 56.7301C19.245 60.3701 18.325 72.8501 18.305 73.2001C18.295 73.3701 18.235 78.2601 18.245 78.7301C18.265 79.2901 18.285 81.1901 18.285 81.1901V81.2101C18.285 81.3001 18.295 82.1301 18.295 82.1401C18.295 82.1401 18.295 82.4001 18.295 82.4201C18.295 82.4201 18.295 83.0101 18.295 83.0201C18.295 83.0201 18.315 83.9201 18.315 84.3401C18.315 84.8001 18.325 85.2501 18.315 85.7101C18.315 85.6901 18.315 85.6701 18.315 85.6601C18.315 85.9401 18.315 86.2301 18.315 86.5101V86.4601C18.315 86.8301 18.315 87.1901 18.315 87.5601C18.315 87.9101 18.325 88.2601 18.335 88.6101C18.355 89.1901 18.385 89.7701 18.395 90.3501C18.395 90.6601 18.375 90.9701 18.365 91.2901C18.365 91.4301 18.375 92.1201 18.365 92.1401C18.365 92.1401 18.345 92.1701 18.335 92.1801C18.335 92.1901 18.325 92.2001 18.315 92.2101C18.315 92.2301 18.295 92.2501 18.275 92.2701C18.235 92.3301 18.205 92.3901 18.165 92.4401C18.125 92.4901 18.085 92.5501 18.045 92.6101C17.985 92.6801 17.935 92.7401 17.885 92.8101C17.885 92.8101 17.885 92.8201 17.875 92.8301C17.815 92.9201 17.745 93.0001 17.665 93.0701V93.0801C17.615 93.1401 17.555 93.1901 17.505 93.2501C17.455 93.3001 17.405 93.3501 17.345 93.4001C17.285 93.4501 17.225 93.5001 17.165 93.5501C17.045 93.6401 16.935 93.7301 16.815 93.8201C16.755 93.8701 16.695 93.9101 16.635 93.9501C16.555 94.0101 16.475 94.0601 16.385 94.1001C16.225 94.1901 16.055 94.2601 15.875 94.3301C15.875 94.3301 15.795 94.3601 15.745 94.3801C15.495 94.4801 15.245 94.5601 14.995 94.6301C14.805 94.6801 14.615 94.7201 14.425 94.7701C14.215 94.8201 14.015 94.8501 13.805 94.8801C13.595 94.9101 13.375 94.9301 13.165 94.9501C13.075 94.9501 12.985 94.9601 12.895 94.9601C12.685 94.9601 12.475 94.9401 12.255 94.9301C12.185 94.9301 12.115 94.9301 12.045 94.9301C11.995 94.9301 11.955 94.9301 11.905 94.9201C11.795 94.9201 11.685 94.9201 11.575 94.9101H11.555C11.555 94.9101 11.465 94.9101 11.415 94.9101C11.415 94.9101 11.365 94.9101 11.345 94.9101C11.295 94.9101 11.245 94.9101 11.185 94.9101C11.145 94.9101 11.105 94.9101 11.065 94.9101C11.045 94.9101 11.035 94.9101 11.015 94.9101C11.015 94.9101 11.005 94.9101 10.995 94.9101C10.995 94.9101 10.985 94.9101 10.975 94.9101C10.965 94.9101 10.955 94.9101 10.945 94.9001C10.945 94.9001 10.935 94.9001 10.925 94.9001C10.915 94.9001 10.895 94.8901 10.885 94.8801C10.885 94.8801 10.885 94.8801 10.875 94.8801C10.875 94.8801 10.865 94.8801 10.855 94.8701C10.855 94.8701 10.855 94.8701 10.845 94.8601C10.845 94.8601 10.845 94.8601 10.835 94.8501C10.825 94.8401 10.805 94.8201 10.795 94.8001C10.795 94.7901 10.775 94.7701 10.775 94.7601C10.775 94.7601 10.775 94.7601 10.765 94.7601C10.765 94.7601 10.765 94.7601 10.765 94.7501C10.765 94.7501 10.765 94.7401 10.765 94.7301C10.765 94.7101 10.755 94.6901 10.755 94.6701C10.735 94.5901 10.725 94.5001 10.715 94.4201C10.685 94.2501 10.665 94.0701 10.635 93.9001C10.605 93.6501 10.575 93.4001 10.545 93.1501C10.535 93.0301 10.525 92.9201 10.515 92.8001C10.475 92.4101 10.445 92.0301 10.405 91.6401C10.375 91.2601 9.35498 75.5301 9.25498 73.9501C9.17498 72.7201 8.77498 66.1801 8.67498 64.6701C8.57498 63.1301 8.47498 61.6001 8.37498 60.0601C8.32498 59.2801 7.75498 52.7101 7.75498 52.6601C7.75498 52.4401 7.42498 52.3901 7.43498 52.6901C7.42498 52.7801 7.48498 54.3201 7.50498 54.7201C7.53498 55.4901 7.58498 56.2601 7.62498 57.0301C7.69498 58.2601 7.78498 59.4901 7.87498 60.6901C7.98498 62.2801 8.08498 63.8701 8.18498 65.4601C8.26498 66.7201 8.45498 70.4201 8.46498 70.6601C8.54498 72.2201 9.57498 90.8601 9.56498 90.9601C9.56498 91.0001 9.56498 91.0401 9.56498 91.0801H9.54498C9.54498 91.0801 9.49498 91.1501 9.48498 91.1501C9.48498 91.1501 6.90498 93.0101 4.11498 91.0501C3.96498 90.9401 3.87498 90.7701 3.86498 90.5801C3.84498 89.9901 1.06498 55.8201 1.00498 55.4001C0.95498 55.0001 0.91498 54.6001 0.86498 54.2001C0.82498 53.7901 0.68498 52.1501 0.67498 51.9401C0.65498 51.5501 0.80498 46.7001 0.82498 46.5301L0.83498 46.4001ZM29.065 15.4501C29.365 15.3201 29.665 15.1601 29.945 14.9801C30.525 15.2001 31.145 15.3401 31.795 15.4401C32.565 16.3701 33.255 17.3601 33.715 18.4901C32.325 17.3101 30.995 15.6201 29.075 15.4501H29.065ZM42.775 18.8501C42.555 18.8101 42.315 18.8101 42.115 18.6901C41.955 18.5801 41.855 18.4001 41.735 18.2601C41.555 18.0101 41.225 17.9701 40.935 18.0301C40.855 18.1401 40.845 18.2901 40.935 18.4101C41.105 18.4701 41.235 18.6101 41.295 18.7801C41.325 18.8001 41.345 18.8201 41.375 18.8401C39.735 24.0801 37.195 22.3401 34.475 19.1201C34.195 17.8301 33.425 16.5601 32.515 15.5501C32.735 15.5801 32.955 15.6001 33.185 15.6301C33.585 15.6501 34.805 15.8001 34.715 15.1701C35.315 14.1801 36.055 12.8901 37.475 13.4601C37.965 13.5701 38.555 14.3601 39.025 13.9901C39.985 10.5101 41.045 12.0701 42.985 12.0101C43.095 14.2901 43.205 18.9001 42.775 18.8501ZM38.685 13.4701C37.095 12.0601 34.665 12.9301 34.305 14.9801C32.425 15.2301 29.785 14.5201 28.415 13.1601C28.365 12.3601 28.445 11.5601 28.545 10.7701C29.175 7.48014 27.605 7.93014 27.595 5.68014C27.785 4.06014 29.815 4.10014 30.975 3.53014C31.675 3.06014 30.665 2.23014 32.835 1.46014C35.205 0.65014 37.375 2.45014 38.275 1.74014C38.765 1.17014 39.235 0.46014 40.085 0.50014C41.285 0.51014 42.275 1.37014 42.995 2.25014C43.475 2.80014 43.855 3.46014 44.435 3.92014C44.765 4.18014 45.265 4.16014 45.475 4.58014C46.375 6.50014 45.785 8.87014 44.675 10.5801C44.495 10.8201 44.285 11.0801 44.035 11.2801C41.905 11.7901 38.935 9.88014 38.705 13.4601L38.685 13.4701Z" fill="black"/>
<path id="Vector_48" d="M39.485 20.5701C38.905 20.5701 38.655 19.8801 38.825 19.3901C38.875 19.1701 38.935 18.9401 39.145 18.8201C39.505 18.6101 40.005 18.7901 40.185 19.1501C40.515 19.6901 40.185 20.6001 39.485 20.5701ZM39.525 20.0801C39.845 20.0201 39.885 19.5101 39.665 19.3101C39.595 19.2501 39.435 19.2001 39.375 19.2901C39.295 19.4301 39.245 19.5401 39.265 19.7401C39.275 19.9001 39.335 20.1001 39.525 20.0801Z" fill="black"/>
<path id="Vector_49" d="M36.055 16.5001C35.545 15.8001 35.915 14.6501 36.785 14.5101C36.835 14.5101 36.955 14.5101 37.085 14.5901C37.275 14.7101 37.305 14.9101 37.315 14.9401C37.425 15.2801 37.135 15.6001 36.935 15.8501C36.855 15.8501 36.815 15.7501 36.885 15.6601C37.085 15.3901 37.165 15.1301 37.085 14.9301C37.045 14.8301 36.935 14.7901 36.935 14.7901C36.705 14.7201 36.415 15.0401 36.285 15.2601C36.095 15.5801 36.115 15.9201 36.145 16.0701C36.165 16.2601 36.465 16.4701 36.295 16.6301C36.195 16.6901 36.115 16.5801 36.065 16.5001H36.055Z" fill="black"/>
</g>
<defs>
<clipPath id="clip0_478_1989">
<rect width="98.75" height="99.27" fill="white" transform="translate(0.125 0.00012207)"/>
</clipPath>
</defs>
</svg>
