<svg width="24" height="24" viewBox="0 0 24 24" fill="none" xmlns="http://www.w3.org/2000/svg">
<path d="M12 22.0001C6.47715 22.0001 2 17.5229 2 12.0001C2 6.47727 6.47715 2.00012 12 2.00012C17.5228 2.00012 22 6.47727 22 12.0001C22 17.5229 17.5228 22.0001 12 22.0001ZM12 20.0001C16.4183 20.0001 20 16.4184 20 12.0001C20 7.58184 16.4183 4.00012 12 4.00012C7.58172 4.00012 4 7.58184 4 12.0001C4 16.4184 7.58172 20.0001 12 20.0001ZM11 7.00012H13V9.00012H11V7.00012ZM11 11.0001H13V17.0001H11V11.0001Z" fill="#0079D0"/>
</svg>
