<svg width="79" height="24" viewBox="0 0 79 24" fill="none" xmlns="http://www.w3.org/2000/svg">
<g clip-path="url(#clip0_427_34322)">
<path d="M78.257 19.5073H74.1055V23.6589H78.257V19.5073Z" fill="white"/>
<path d="M16.7774 19.2226L17.2321 23.033C15.1846 23.6588 12.7394 24 9.78189 24C6.1991 24 3.63982 23.09 2.21811 21.3272C0.73937 19.5073 0 16.4362 0 12C0 7.56378 0.73937 4.49275 2.21811 2.67284C3.69685 0.852926 6.1991 0 9.78189 0C12.3982 0 14.7299 0.284142 16.7769 0.796398L16.3222 4.6068C14.5023 4.49325 12.3412 4.43622 9.78189 4.43622C8.07554 4.43622 6.93847 4.94797 6.31266 6.02851C5.68684 7.10905 5.4027 9.09955 5.4027 12C5.4027 14.9005 5.68684 16.8909 6.31266 17.9715C6.93847 19.052 8.07554 19.5638 9.78189 19.5638C12.91 19.5638 15.2416 19.4502 16.7769 19.2226H16.7774Z" fill="white"/>
<path d="M40.1516 0.398093V21.7253C40.1516 22.9764 39.5258 23.6022 38.3317 23.6022H35.1471C34.6353 23.6022 34.2371 23.4886 33.953 23.261C33.6688 23.0334 33.3842 22.6352 33.1 22.1235L26.958 9.72526C26.2186 8.07593 25.7068 6.88184 25.5363 6.14247H25.1381C25.3086 7.28003 25.3657 8.47413 25.3657 9.83931V23.6022H20.4747V2.218C20.4747 0.966877 21.1005 0.341064 22.3517 0.341064H25.4797C25.9915 0.341064 26.3897 0.454621 26.6738 0.682235C26.958 0.909849 27.2426 1.30805 27.5268 1.8198L33.4412 13.8198C34.01 14.9574 34.5788 16.2085 35.1476 17.5732H35.4887C35.3752 15.8103 35.2611 14.5021 35.2611 13.6492V0.398093H40.1521H40.1516Z" fill="white"/>
<path d="M49.9897 23.6018H44.8711V0.398193H49.9897V23.6018Z" fill="white"/>
<path d="M69.4981 23.6588H59.9438C58.1239 23.6588 56.8158 23.2041 55.9058 22.2941C55.0529 21.3842 54.5977 20.1901 54.5977 18.7114V0.398193H59.7162V17.6873C59.7162 18.3132 59.8298 18.7108 60.1144 18.9955C60.3991 19.2801 60.8538 19.3937 61.5361 19.3937H69.4981V23.6593V23.6588Z" fill="white"/>
</g>
<defs>
<clipPath id="clip0_427_34322">
<rect width="78.2556" height="24" fill="white"/>
</clipPath>
</defs>
</svg>
