<svg width="32" height="33" viewBox="0 0 32 33" fill="none" xmlns="http://www.w3.org/2000/svg">
<path d="M13.3333 4.59595H18.6666C21.4956 4.59595 24.2087 5.71975 26.2091 7.72014C28.2095 9.72053 29.3333 12.4336 29.3333 15.2626C29.3333 18.0916 28.2095 20.8047 26.2091 22.8051C24.2087 24.8055 21.4956 25.9293 18.6666 25.9293V30.5959C12 27.9293 2.66663 23.9293 2.66663 15.2626C2.66663 12.4336 3.79043 9.72053 5.79082 7.72014C7.79121 5.71975 10.5043 4.59595 13.3333 4.59595ZM16 23.2626H18.6666C19.7172 23.2626 20.7575 23.0557 21.7281 22.6537C22.6987 22.2516 23.5806 21.6623 24.3235 20.9195C25.0664 20.1766 25.6556 19.2947 26.0577 18.3241C26.4597 17.3535 26.6666 16.3132 26.6666 15.2626C26.6666 14.212 26.4597 13.1718 26.0577 12.2011C25.6556 11.2305 25.0664 10.3486 24.3235 9.60576C23.5806 8.86289 22.6987 8.27362 21.7281 7.87158C20.7575 7.46954 19.7172 7.26261 18.6666 7.26261H13.3333C11.2116 7.26261 9.17673 8.10547 7.67644 9.60576C6.17615 11.1061 5.33329 13.1409 5.33329 15.2626C5.33329 20.0759 8.61596 23.2173 16 26.5693V23.2626Z" fill="#0079D0"/>
<path d="M15.6 19.9293L12.7363 15.2626L15.6 10.5959H12.5091L9.59996 15.2626L12.5091 19.9293H15.6ZM21.6 19.9293L18.7363 15.2626L21.6 10.5959H18.5091L15.6 15.2626L18.5091 19.9293H21.6Z" fill="#0079D0"/>
</svg>
