<svg width="288" height="216" viewBox="0 0 288 216" fill="none" xmlns="http://www.w3.org/2000/svg">
<path d="M126.696 124.877C125.302 125.358 129.574 135.211 129.891 136.308C131.921 143.293 138.498 158.557 139.492 155.657C142.512 150.577 168.941 145.206 168.941 145.206C168.941 145.206 153.204 126.116 146.862 117.568C140.391 120.131 131.635 119.682 126.695 124.877H126.696Z" fill="#3F3D56"/>
<path d="M79.1505 27.6554C79.6821 27.2859 79.9731 27.5055 80.0167 27.854C83.2303 27.9656 87.0749 28.6365 91.6827 30.022C103.669 32.6989 113.932 49.4032 101.792 58.0839C97.0364 62.6081 91.6722 61.7018 85.6301 60.8618C85.2746 59.8005 87.1428 68.0002 85.5308 69.2288C83.3924 70.8583 77.3747 65.8775 73.8909 66.0535C72.1325 68.279 78.2896 71.0709 74.7274 73.6136C72.5089 75.1995 68.2461 74.9067 67.6274 76.212C67.2963 79.4292 66.8763 82.6184 66.8763 82.6184C66.8763 82.6184 62.2615 81.4142 55.8063 80.9436C51.3501 75.3319 48.5739 66.9632 48.2532 59.4624H48.255C47.4376 40.2938 63.701 27.8994 79.1505 27.6554Z" fill="#3F3D56"/>
<path d="M108.054 149.127C106.597 148.906 107.088 150.436 108.308 150.239C112.299 153.292 114.83 157.4 114.83 162.778C114.872 167.729 134.051 147.491 138.007 145.598C143.029 139.558 153.109 147.606 148.047 140.969C146.233 140.074 145.739 137.512 144.817 135.567C143.251 134.668 141.837 131.888 139.295 132.358C128.298 136.809 118.962 144.45 108.054 149.127Z" fill="#9E616A"/>
<path d="M67.5977 81.273C67.7929 84.4256 72.3345 86.6633 73.9866 89.4849C75.3808 91.008 76.3115 93.6623 78.4882 93.298C80.7712 89.6853 84.6227 86.6633 86.9981 83.3033C89.5111 84.3437 90.1263 85.1315 95.3005 85.9227C97.6689 86.449 90.5062 88.5246 92.2786 93.5681C94.7341 104.936 94.0004 117.683 98.3695 128.577C99.8352 134.098 109.328 138.709 110.647 130.262C112.406 121.543 109.846 110.621 109.276 100.921C109.072 97.4423 112.813 94.985 113.836 92.5887C114.509 85.4556 108.847 85.4417 107.207 80.196C106.817 78.8366 103.235 79.8161 105.109 78.1082C106.98 75.9907 104.623 71.6983 107.794 71.5746C108.235 71.3288 108.525 70.4993 108.34 70.0497C107.348 67.683 106.071 65.4697 104.619 63.3766C103.46 61.8064 105.653 57.3537 103.661 57.0992C99.5215 62.0678 91.8307 61.4718 86.0238 60.4889C85.5306 60.4994 84.6122 62.7946 85.6404 65.4889C87.5976 70.6213 83.1501 70.1072 82.7701 65.9629C82.5575 63.6468 78.8298 61.3899 76.0065 62.5907C75.0462 63.0002 74.5722 65.0166 73.8368 65.461C72.3868 66.3376 76.3829 72.7649 75.2101 73.1483C67.819 75.5603 67.5977 73.5108 67.5994 81.2765V81.273H67.5977Z" fill="#9E616A"/>
<path d="M163.064 151.361C162.93 151.396 162.794 151.429 162.658 151.461C163.298 151.36 163.941 151.269 164.572 151.123C165.29 150.988 166.02 150.934 166.742 150.818C167.022 150.778 167.313 150.713 167.536 150.532C167.697 150.415 167.794 150.22 167.798 150.021C167.805 149.925 167.813 149.831 167.822 149.737C167.582 150.185 167.134 150.476 166.276 150.49C165.185 150.689 164.138 151.084 163.063 151.361H163.064Z" fill="#6F479F"/>
<path d="M156.728 152.787L156.783 152.777C157.562 152.576 158.524 152.742 159.16 152.202C158.491 152.341 157.824 152.493 157.165 152.67C157.019 152.707 156.874 152.747 156.729 152.789H156.728V152.787Z" fill="#6F479F"/>
<path d="M148.352 141.069C148.402 141.172 148.451 141.274 148.497 141.377C148.561 141.539 148.706 141.679 148.878 141.717C149.04 142.208 149.877 143.618 149.563 144.22C149.605 144.216 149.647 144.213 149.69 144.207C149.816 143.753 149.633 143.286 149.504 142.852C149.279 142.156 148.85 141.583 148.354 141.069H148.352Z" fill="#6F479F"/>
<path d="M146.235 137.264C146.562 137.855 146.874 138.456 147.181 139.059C147.357 139.436 147.54 139.81 147.691 140.197C147.711 140.25 147.74 140.297 147.775 140.337C147.568 139.868 147.505 139.331 147.24 138.882C146.942 138.32 146.592 137.791 146.236 137.263H146.235V137.264Z" fill="#6F479F"/>
<path d="M140.401 144.138L140.276 144.206C141.67 143.859 143.155 143.716 144.579 143.679C145.746 143.526 146.87 143.901 148.007 144.106C147.583 143.922 147.163 143.726 146.706 143.648C145.901 143.481 145.079 143.408 144.256 143.374C143.627 143.287 142.986 143.251 142.358 143.362C142.259 143.378 142.16 143.397 142.062 143.421H142.055C142.001 143.435 141.947 143.449 141.893 143.465C141.368 143.62 140.879 143.883 140.401 144.14V144.138Z" fill="#6F479F"/>
<path d="M139.227 145.809C139.159 145.86 139.093 145.914 139.028 145.971C139.178 146.125 139.325 146.28 139.466 146.438C139.387 146.248 139.316 146.055 139.251 145.858C139.243 145.842 139.234 145.825 139.227 145.807V145.809Z" fill="#6F479F"/>
<path d="M139.096 132.261C138.929 132.299 138.762 132.338 138.594 132.376C138.826 132.364 139.06 132.366 139.293 132.359H139.295C139.523 132.352 139.751 132.336 139.976 132.289C140.051 132.273 140.124 132.254 140.198 132.23C140.478 132.226 140.835 132.198 141.038 131.996C140.86 131.937 140.677 131.893 140.49 131.865C140.002 131.883 139.567 132.149 139.098 132.261H139.096Z" fill="#6F479F"/>
<path d="M134.361 133.709C134.276 133.861 134.194 133.992 134.114 134.103C134.525 133.925 134.947 133.768 135.381 133.643C135.877 133.491 136.362 133.305 136.784 132.995C136.979 132.852 137.188 132.733 137.407 132.641C136.355 132.887 135.314 133.181 134.361 133.709Z" fill="#6F479F"/>
<path d="M147.466 155.368C147.665 155.394 147.897 155.338 148.083 155.307C148.685 155.192 149.279 155.027 149.877 154.891C151.039 154.617 152.2 154.34 153.367 154.091C153.507 154.059 153.615 153.955 153.671 153.828C152.932 154.087 152.188 154.331 151.424 154.507C150.115 154.814 148.786 155.054 147.468 155.366H147.466V155.368Z" fill="#6F479F"/>
<path d="M230.746 138.639C233.099 138.651 237.037 138.639 237.037 138.639L275.301 34.4033L270.409 31.3727C270.409 31.3727 243.813 103.472 230.746 138.639Z" fill="#686889"/>
<path d="M167.759 98.5856C179.507 106.383 219.603 132.174 220.125 132.951C219.373 140.576 215.528 141.588 206.567 142.723C207.907 147.548 216.779 145.37 220.941 143.573C223.984 142.259 224.552 137.587 224.329 135.309C227.396 137.311 230.153 138.613 230.153 138.613L232.975 131.126L169.143 94.4065C169.143 94.4065 167.965 98.1499 167.759 98.5856Z" fill="#686889"/>
<path d="M169.655 130.891C177.245 140.054 190.096 149.882 198.822 159.152C204.552 157.97 215.807 155.032 217.707 155.091C215.807 152.787 207.156 143.737 206.565 142.723C209.308 141.29 219.62 143.808 220.267 132.838C214.437 128.113 212.243 127.111 211.333 127.404C209.598 127.965 213.114 134.073 197.297 135.023C191.02 130.241 189.725 127.489 187.121 127.658C181.417 128.395 175.581 129.847 169.654 130.891H169.655Z" fill="#3F3D56"/>
<path d="M139.959 154.769C139.971 157.358 139.723 157.648 139.723 157.648L167.536 150.535C167.536 150.535 168.641 147.381 168.352 145.386C161.841 147.632 144.319 151.308 139.959 154.769Z" fill="#686889"/>
<path d="M169.409 94.2845C184.179 103.335 233.299 131.017 233.299 131.017L270.235 31.7212L189.927 31.4285L189.76 32.0175C189.76 32.0175 175.936 74.8022 169.411 94.2845H169.409Z" fill="#ADDDFF"/>
<path d="M146.099 119.915C151.123 125.349 161.039 139.075 165.088 143.575C165.945 145.684 162.09 145.806 160.87 145.809C155.448 140.63 144.603 125.211 142.447 122.12C142.23 121.808 142.306 121.383 142.616 121.165C143.399 120.617 144.877 119.739 146.099 119.915Z" fill="#686889"/>
<path d="M130.3 124.793C133.464 125.084 139.34 119.76 140.684 124.323C146.44 130.59 150.886 137.872 155.766 144.81C158.643 147.172 153.692 147.869 152.193 148.303C149.251 149.938 145.421 150.574 142.731 152.132C141.337 152.519 137.589 146.114 138.005 145.598C143.275 139.119 154.359 149.044 147.237 138.883C145.581 136.33 143.957 133.254 141.038 131.996C138.298 131.785 135.124 133.514 133.084 134.593C132.367 133.096 127.237 124.704 130.299 124.793H130.3Z" fill="#686889"/>
<path d="M12.6802 144.962C10.4181 172.702 21.7965 183.411 50.9302 181.781C57.767 183.813 64.6439 188.508 72.5125 187.933C80.8951 186.814 88.7567 183.078 95.7573 178.486C102.66 180 109.025 170.786 113.896 166.759C115.776 162.841 113.53 157.327 111.212 153.648C105.292 145.518 94.2289 149.795 86.9843 150.312C83.2339 148.385 92.5541 148.341 92.5838 145.95C94.5845 146.583 96.993 148.364 99.5722 148.008C117.991 147.623 119.088 129.225 111.548 117.052C109.604 118.599 112.026 125.452 111.118 128.732C110.991 137.275 101.855 136.844 99.0041 130.168C91.4179 119.467 98.2739 104.271 88.863 94.7132C86.7821 90.5916 84.8198 86.4752 84.8198 86.4752C84.8198 86.4752 81.6427 89.058 77.5682 94.0458C73.992 89.4885 70.7749 85.4104 67.6205 82.3676C65.8255 82.6185 60.3602 81.7245 55.8116 80.9437C54.5046 82.1201 53.1522 83.293 52.293 86.4613C31.9411 98.8854 14.7401 119.884 12.6836 144.962H12.6802Z" fill="#ADDDFF"/>
<path d="M94.8439 61.5155C93.5769 66.8256 99.2165 75.9786 102.979 67.8521C108.206 57.5821 97.0834 44.0095 94.8439 61.5155Z" fill="#EAF5FF"/>
<path d="M103.976 56.8483C104.595 59.3126 104.248 67.6325 108.208 67.7371C110.919 63.7462 109.706 52.8313 106.84 52.9934C106.01 53.0404 105.024 54.6594 103.974 56.8483H103.976Z" fill="#EAF5FF"/>
<path d="M230.727 139.289C230.67 139.288 230.614 139.286 230.559 139.289H230.727Z" fill="black"/>
<path d="M225.134 135.621C225.141 135.642 225.152 135.662 225.16 135.683C225.153 135.662 225.144 135.64 225.134 135.621Z" fill="black"/>
<path d="M168.526 150.307C168.526 150.056 168.317 149.847 168.066 149.847C167.815 149.847 167.606 150.056 167.606 150.307C167.606 150.558 167.815 150.767 168.066 150.767C168.317 150.767 168.526 150.558 168.526 150.307Z" fill="black"/>
<path d="M136.21 146.832L136.17 146.86C136.184 146.851 136.196 146.841 136.21 146.832Z" fill="black"/>
<path d="M126.201 124.553C126.736 122.885 127.913 122.61 129.397 122.054C131.034 121.449 132.677 120.853 134.361 120.382C135.992 119.924 137.632 119.497 139.251 118.992C140.757 118.535 142.222 117.962 143.746 117.554C144.528 117.346 145.3 116.991 146.126 117.109C146.466 117.136 146.804 117.263 147.043 117.51C147.062 117.521 147.079 117.533 147.099 117.547C147.336 117.596 147.484 117.812 147.651 117.972C147.987 118.307 148.315 118.648 148.643 118.99C149.394 119.792 150.128 120.654 150.826 121.538C152.362 123.333 153.763 125.232 155.263 127.057C158.261 130.658 161.194 134.314 164.024 138.049C164.838 139.098 165.584 140.196 166.405 141.241C166.949 141.945 167.473 142.627 167.954 143.381C168.256 143.859 168.622 144.303 168.822 144.837C169.19 145.739 169.045 146.738 168.932 147.676C168.864 148.265 168.796 148.855 168.7 149.441C168.653 149.654 168.63 149.885 168.569 150.098C168.58 150.121 168.59 150.143 168.597 150.17C168.672 150.445 168.503 150.736 168.228 150.811C168.188 150.821 168.148 150.832 168.109 150.842C166.412 151.285 164.714 151.724 163.015 152.167C161.123 152.658 159.228 153.151 157.336 153.643C155.356 154.157 153.374 154.673 151.395 155.187C149.328 155.724 147.259 156.262 145.192 156.799C143.524 157.233 141.853 157.658 140.185 158.101C140.142 158.113 140.098 158.118 140.054 158.118C139.953 158.118 139.856 158.087 139.77 158.035C139.729 158.062 139.685 158.083 139.638 158.097C139.6 158.13 139.558 158.162 139.512 158.183C139.444 158.214 139.37 158.23 139.296 158.23C139.232 158.23 139.167 158.218 139.106 158.195C138.976 158.144 138.885 158.047 138.821 157.925C138.787 157.859 138.753 157.794 138.718 157.73C138.238 156.815 137.756 155.903 137.276 154.988C136.733 153.95 136.186 152.911 135.668 151.858C135.408 151.328 135.154 150.797 134.905 150.262C134.781 149.995 134.661 149.725 134.549 149.453C134.486 149.303 134.429 149.152 134.373 148.998C134.347 148.929 134.317 148.857 134.298 148.784C134.281 148.711 134.26 148.632 134.282 148.557C134.326 148.422 134.474 148.343 134.607 148.415C134.61 148.416 134.615 148.42 134.619 148.422C134.737 148.488 134.816 148.618 134.894 148.728C134.978 148.847 135.061 148.965 135.14 149.086C135.295 149.323 135.447 149.561 135.591 149.805C136.196 150.827 136.778 151.862 137.341 152.907C137.341 152.907 137.346 152.916 137.35 152.923L137.358 152.939C137.358 152.939 137.36 152.942 137.362 152.946C137.362 152.946 137.365 152.951 137.367 152.954C137.371 152.961 137.378 152.975 137.386 152.989C137.39 152.995 137.397 153.008 137.404 153.021C137.407 153.028 137.411 153.033 137.412 153.04C137.418 153.049 137.426 153.064 137.435 153.08C137.439 153.085 137.44 153.09 137.444 153.096L137.451 153.108V153.111C137.456 153.123 137.463 153.134 137.468 153.144C137.468 153.144 137.475 153.157 137.482 153.169C137.489 153.179 137.494 153.19 137.5 153.202C137.82 153.798 138.137 154.399 138.456 155C138.625 155.319 138.794 155.638 138.962 155.957C139.002 155.528 139.077 155.105 139.232 154.699C139.291 154.535 139.385 154.403 139.498 154.288C139.284 153.922 139.103 153.538 138.922 153.155C138.188 151.682 137.5 150.192 136.829 148.69C136.602 148.174 136.381 147.658 136.159 147.141C136.4 146.987 136.639 146.83 136.874 146.672C136.933 146.632 136.989 146.59 137.045 146.548C137.132 146.752 137.219 146.956 137.304 147.162C138.076 148.962 138.894 150.739 139.762 152.496C139.964 152.911 140.154 153.333 140.387 153.733C140.476 153.69 140.563 153.646 140.647 153.599C143.8 151.956 147.259 150.886 150.65 149.833C153.707 148.916 156.74 147.923 159.821 147.087C161.862 146.62 163.838 145.907 165.866 145.387C166.33 145.253 166.809 145.206 167.287 145.152C167.381 145.152 167.496 145.131 167.614 145.11C167.674 145.1 167.733 145.089 167.792 145.082C167.778 145.049 167.764 145.016 167.749 144.985C167.471 144.5 167.187 144.131 166.867 143.625C164.371 140.218 161.82 136.843 159.2 133.528C157.489 131.424 155.786 129.317 154.059 127.226C152.784 125.656 151.581 124.028 150.281 122.479C149.559 121.569 148.829 120.668 148.094 119.771C147.944 119.561 147.1 118.659 146.858 118.066C146.705 118.049 146.553 117.993 146.379 117.988C145.755 117.944 145.18 118.167 144.598 118.347C142.914 118.852 132.806 121.864 130.086 122.915C129.293 123.228 128.441 123.458 127.735 123.95C127.604 124.077 127.508 124.227 127.426 124.387C128.592 128.057 130.335 131.517 131.79 135.076C131.902 135.342 132.017 135.609 132.132 135.874C132.017 135.926 131.904 135.992 131.799 136.06C131.649 136.158 131.498 136.257 131.358 136.372L131.287 136.431C130.882 135.485 130.487 134.535 130.105 133.58C128.981 130.984 127.895 128.373 127.186 125.625C127.155 125.482 127.116 125.333 127.081 125.184C126.857 125.738 126.621 126.313 126.654 126.921C126.797 128.312 127.332 129.615 127.873 130.893C128.625 132.667 129.357 134.452 130.102 136.229C130.217 136.498 129.432 137.411 129.354 137.128C129.079 136.506 128.814 135.881 128.559 135.248C127.831 133.432 127.019 131.651 126.316 129.825C125.956 128.875 125.677 127.873 125.605 126.858C125.584 126.046 125.907 125.29 126.21 124.554H126.201V124.553ZM167.951 145.689C167.693 145.786 167.428 145.874 167.161 145.945C166.539 146.074 165.945 146.302 165.342 146.499C161.609 147.766 157.766 148.657 154.021 149.884C149.545 151.302 144.962 152.487 140.786 154.685C140.614 154.776 140.441 154.866 140.281 154.976C139.91 155.541 140.013 156.318 139.952 156.971C139.946 157.006 139.946 157.041 139.945 157.076C139.95 157.076 139.955 157.073 139.96 157.073C141.741 156.609 143.524 156.145 145.307 155.684C147.367 155.149 149.427 154.614 151.487 154.079L157.388 152.545C159.296 152.048 161.206 151.552 163.115 151.057C164.061 150.811 165.007 150.565 165.954 150.319C166.476 150.183 167.003 150.051 167.526 149.912C167.545 149.837 167.571 149.762 167.588 149.69C167.675 149.248 167.742 148.8 167.796 148.352C167.864 147.482 168.113 146.553 167.966 145.685C167.961 145.685 167.956 145.689 167.952 145.691L167.951 145.689Z" fill="black"/>
<path d="M51.657 88.1524C51.657 88.1224 51.6341 88.0907 51.6006 88.0907C51.5671 88.0907 51.5407 88.1136 51.5389 88.1471C51.5389 88.177 51.5619 88.2087 51.5953 88.2087C51.6288 88.2087 51.6552 88.1858 51.657 88.1524Z" fill="black"/>
<path d="M50.8221 89.3218C50.8221 89.2901 50.7975 89.2601 50.7658 89.2601C50.7341 89.2601 50.7059 89.283 50.7041 89.3165C50.7041 89.3482 50.7288 89.3782 50.7605 89.3782C50.7922 89.3782 50.8204 89.3553 50.8221 89.3218Z" fill="black"/>
<path d="M95.1228 179.224C95.1228 179.192 95.0981 179.162 95.0664 179.162C95.0347 179.162 95.0065 179.185 95.0048 179.218C95.0048 179.25 95.0294 179.28 95.0611 179.28C95.0928 179.28 95.121 179.257 95.1228 179.224Z" fill="black"/>
<path d="M230.277 76.6182C230.277 76.6182 230.275 76.6374 230.274 76.6461C230.274 76.6374 230.275 76.6269 230.277 76.6182Z" fill="black"/>
<path d="M229.923 75.6774C229.907 75.6703 229.89 75.6633 229.874 75.658C229.89 75.665 229.907 75.6703 229.923 75.6774Z" fill="black"/>
<path d="M229.661 75.637C229.661 75.637 229.679 75.6405 229.688 75.6405C229.679 75.6405 229.67 75.6387 229.661 75.637Z" fill="black"/>
<path d="M190.84 65.2872L190.844 65.2711C190.844 65.2711 190.839 65.2872 190.837 65.2961C190.837 65.2925 190.839 65.2908 190.84 65.289V65.2872Z" fill="black"/>
<path d="M191.546 64.0128C191.546 64.0128 191.534 64.0289 191.528 64.036C191.528 64.036 191.526 64.0378 191.525 64.0396L191.546 64.0128Z" fill="black"/>
<path d="M199.694 69.055C199.694 69.055 199.687 69.0374 199.685 69.0267C199.681 69.0444 199.676 69.0621 199.671 69.0781C199.678 69.0692 199.687 69.0604 199.694 69.0533V69.055Z" fill="black"/>
<path d="M140.042 148.373C140.197 148.373 140.307 148.265 140.413 148.169C140.694 147.893 140.302 147.451 139.99 147.689C139.932 147.744 139.878 147.799 139.814 147.845C139.615 148.022 139.763 148.374 140.023 148.374H140.042V148.373Z" fill="black"/>
<path d="M156.764 146.809C156.803 146.729 156.825 146.644 156.837 146.555C156.837 146.511 156.843 146.466 156.85 146.423V146.403C156.855 146.379 156.862 146.355 156.869 146.332C156.888 146.248 156.907 146.166 156.925 146.083C156.931 146.034 156.94 145.987 156.945 145.938C156.942 145.926 156.938 145.915 156.935 145.903C156.926 145.882 156.918 145.86 156.909 145.837C156.86 145.833 156.808 145.863 156.806 145.924C156.797 145.968 156.769 146.027 156.754 146.058C156.679 146.196 156.585 146.321 156.511 146.459C156.426 146.539 156.369 146.673 156.414 146.787C156.444 146.863 156.518 146.904 156.592 146.904C156.66 146.904 156.728 146.872 156.762 146.806V146.809H156.764Z" fill="black"/>
<path d="M142.359 151.602C142.437 151.476 142.437 151.323 142.411 151.182C142.395 151.06 142.386 150.938 142.28 150.854C141.991 150.659 141.735 151.067 141.642 151.3C141.564 151.585 141.797 151.794 142.033 151.794C142.156 151.794 142.28 151.736 142.359 151.602Z" fill="black"/>
<path d="M152.322 148.303C152.43 148.286 152.451 148.16 152.458 148.069C152.493 147.967 152.574 147.764 152.468 147.688C152.47 147.63 152.421 147.541 152.358 147.595C152.296 147.71 152.297 147.855 152.249 147.979C152.196 148.085 152.132 148.303 152.311 148.303H152.322Z" fill="black"/>
<path d="M152.536 147.869C152.547 147.775 152.597 147.327 152.409 147.47C152.4 147.62 152.172 147.895 152.379 147.972C152.39 147.975 152.4 147.977 152.411 147.977C152.47 147.977 152.531 147.933 152.534 147.869H152.536Z" fill="black"/>
<path d="M156.489 147.4C156.524 147.386 156.559 147.374 156.595 147.364C156.569 147.304 156.569 147.236 156.595 147.175C156.607 147.149 156.623 147.128 156.64 147.107C156.67 147.062 156.698 147.013 156.728 146.968C156.736 146.956 156.745 146.942 156.752 146.93C156.651 146.942 156.55 146.961 156.447 146.992C156.348 146.902 156.172 146.94 156.121 147.067C156.055 147.249 156.217 147.419 156.391 147.419C156.424 147.419 156.457 147.414 156.489 147.4Z" fill="black"/>
<path d="M128.753 125.196C128.776 125.018 128.95 124.903 129.115 124.924C129.168 124.854 129.243 124.802 129.333 124.788C129.595 124.689 129.865 124.612 130.13 124.527C130.45 124.422 130.771 124.316 131.092 124.206C131.672 124.007 132.251 123.8 132.833 123.606C133.376 123.427 133.92 123.254 134.464 123.077C134.464 123.075 134.464 123.071 134.462 123.07C134.497 123.063 134.532 123.056 134.567 123.049C134.589 123.043 134.612 123.04 134.635 123.035C134.72 123.016 134.805 122.993 134.891 122.972C134.941 122.96 134.99 122.948 135.039 122.935C135.088 122.923 135.135 122.911 135.182 122.894C135.276 122.859 135.368 122.822 135.459 122.78C135.459 122.78 135.466 122.779 135.468 122.777C135.541 122.745 135.614 122.714 135.686 122.681C135.687 122.681 135.689 122.679 135.693 122.677C136.398 122.447 137.104 122.219 137.812 121.998C137.868 121.987 137.922 121.975 137.976 121.963C138.035 121.951 138.094 121.933 138.153 121.916C138.22 121.897 138.284 121.883 138.35 121.864C138.404 121.848 138.457 121.827 138.509 121.808C138.505 121.808 138.502 121.811 138.497 121.811C138.547 121.796 138.598 121.783 138.648 121.768C138.685 121.756 138.721 121.743 138.756 121.728H138.758C138.8 121.712 138.84 121.696 138.882 121.681C138.906 121.672 138.929 121.661 138.951 121.651C138.972 121.642 138.993 121.632 139.014 121.623C139.04 121.613 139.067 121.604 139.093 121.593C139.133 121.585 139.175 121.576 139.215 121.569C139.218 121.569 139.223 121.567 139.227 121.566C139.267 121.557 139.307 121.552 139.344 121.538C139.354 121.552 139.365 121.566 139.375 121.58C139.427 121.648 139.481 121.715 139.534 121.782C139.549 121.803 139.567 121.822 139.582 121.841C139.605 121.9 139.633 121.958 139.661 122.015C139.68 122.057 139.701 122.097 139.724 122.137C139.744 122.176 139.767 122.212 139.79 122.249C139.821 122.298 139.851 122.348 139.886 122.397C139.992 122.547 140.119 122.679 140.238 122.819C140.346 122.946 140.45 123.073 140.56 123.199C140.673 123.328 140.79 123.451 140.91 123.573C141.038 123.702 141.154 123.84 141.271 123.978C141.421 124.154 141.576 124.326 141.729 124.497C141.771 124.544 141.813 124.591 141.855 124.636C141.883 124.666 141.909 124.697 141.937 124.727C142.055 124.861 142.17 125.001 142.289 125.135C142.873 125.863 143.46 126.586 144.046 127.313C144.051 127.313 144.056 127.31 144.06 127.31C144.101 127.364 144.145 127.418 144.188 127.47C144.3 127.604 144.419 127.735 144.532 127.869C144.582 127.928 144.633 127.989 144.682 128.05C144.669 128.054 144.656 128.059 144.642 128.063C144.919 128.411 145.192 128.76 145.464 129.112C145.651 129.384 145.828 129.662 146.02 129.931C146.207 130.194 146.414 130.44 146.62 130.687C146.649 130.724 146.679 130.759 146.709 130.795C146.879 131.004 147.05 131.212 147.224 131.417C147.203 131.423 147.184 131.43 147.163 131.437C147.831 132.352 148.505 133.261 149.176 134.176C149.19 134.171 149.204 134.166 149.218 134.161C149.237 134.19 149.258 134.22 149.277 134.249C149.37 134.391 149.471 134.528 149.574 134.662C149.65 134.763 149.727 134.865 149.805 134.967C149.791 134.973 149.777 134.976 149.764 134.981C149.919 135.196 150.076 135.41 150.231 135.626C150.255 135.732 150.304 135.823 150.37 135.912C150.407 135.963 150.447 136.011 150.485 136.062C150.572 136.173 150.659 136.283 150.746 136.395C150.834 136.51 150.917 136.628 151.004 136.743C151.051 136.806 151.1 136.869 151.149 136.933C151.261 137.094 151.37 137.254 151.478 137.416C151.501 137.449 151.525 137.48 151.548 137.514C151.562 137.51 151.574 137.507 151.588 137.503C151.764 137.733 151.944 137.958 152.118 138.188C152.16 138.244 152.203 138.301 152.245 138.357C152.217 138.364 152.191 138.371 152.163 138.378C152.866 139.363 153.575 140.351 154.263 141.353C154.269 141.353 154.272 141.349 154.277 141.349C154.352 141.466 154.427 141.581 154.502 141.696C154.605 141.853 154.713 142.01 154.823 142.163C154.819 142.163 154.816 142.165 154.812 142.167C155.084 142.575 155.354 142.986 155.614 143.401C155.818 143.873 156.532 144.795 156.752 145.523C156.773 145.518 156.796 145.511 156.816 145.506C156.822 145.546 156.827 145.584 156.834 145.624C156.853 145.724 156.893 145.814 156.928 145.908C156.932 145.921 156.935 145.931 156.938 145.943C156.932 145.99 156.925 146.039 156.918 146.088C156.898 146.177 156.879 146.266 156.858 146.355C156.815 146.365 156.771 146.377 156.728 146.388C156.735 146.398 156.742 146.409 156.745 146.423C156.776 146.513 156.733 146.616 156.701 146.703C156.604 147.012 156.452 147.325 156.137 147.456C155.128 147.975 153.985 148.101 152.911 148.43C152.843 148.444 152.752 148.46 152.667 148.46C152.528 148.46 152.397 148.418 152.388 148.254C152.388 148.211 152.404 148.171 152.428 148.137C152.409 148.15 152.39 148.162 152.367 148.169C152.345 148.174 152.324 148.177 152.303 148.177C152.148 148.177 152.064 148.014 152.036 147.834C151.149 148.155 150.262 148.484 149.364 148.756C148.582 149.049 147.812 149.373 147.04 149.692C147.034 149.73 147.026 149.77 147.012 149.809C146.966 149.955 146.959 150.112 146.928 150.246C146.952 150.243 146.977 150.237 147 150.232C147.27 150.171 147.529 150.074 147.78 149.957C149.056 149.216 150.44 148.69 151.862 148.273C151.977 148.265 152.317 148.151 152.291 148.357C152.289 148.401 152.235 148.416 152.205 148.39C151.177 148.993 150.063 149.457 148.972 149.939C148.249 150.257 147.583 150.725 146.771 150.783C146.759 150.785 146.749 150.786 146.736 150.786C146.616 150.786 146.506 150.692 146.491 150.572V150.553C146.463 150.544 146.437 150.532 146.412 150.516C146.365 150.534 146.318 150.553 146.273 150.576C145.069 151.274 143.803 151.945 142.449 152.32L142.495 152.311C142.427 152.336 142.345 152.348 142.259 152.348C142.027 152.348 141.768 152.256 141.679 152.08C141.67 152.085 141.661 152.09 141.646 152.093C141.485 152.031 141.409 151.829 141.301 151.698C140.905 151.116 140.408 150.607 140.02 150.02C139.263 148.845 138.53 147.672 137.766 146.499C137.561 146.264 137.465 145.954 137.796 145.783C137.996 145.698 138.223 145.814 138.284 146.018C138.437 146.45 138.697 146.815 138.955 147.189C138.835 146.987 138.716 146.785 138.598 146.583C138.481 146.313 138.335 146.041 138.272 145.755C138.227 145.441 138.542 145.154 138.849 145.251C139.133 145.328 139.23 145.623 139.349 145.86C139.67 146.417 139.985 146.973 140.295 147.531C140.395 147.482 140.492 147.43 140.591 147.381C140.827 147.264 141.065 147.156 141.301 147.039L141.323 147.027H141.327C141.336 147.02 141.346 147.017 141.357 147.01C141.365 147.006 141.381 146.998 141.4 146.989L141.451 146.965C141.466 146.956 141.482 146.949 141.498 146.94C141.538 146.921 141.62 146.879 141.702 146.837H141.705C141.717 146.83 141.729 146.825 141.743 146.818C141.824 146.778 141.912 146.733 142.001 146.689C142.008 146.686 142.017 146.682 142.022 146.679H142.026C142.026 146.679 142.033 146.675 142.038 146.672C142.041 146.672 142.047 146.668 142.054 146.665C142.057 146.665 142.061 146.661 142.064 146.66C142.127 146.628 142.195 146.593 142.266 146.558C142.503 146.438 142.78 146.295 143.057 146.147C143.338 145.994 143.62 145.844 143.908 145.701C143.908 145.701 143.911 145.701 143.913 145.699C143.925 145.692 143.938 145.687 143.95 145.68C143.997 145.656 144.054 145.628 144.112 145.6H144.114C144.124 145.595 144.133 145.589 144.143 145.584C143.951 145.178 143.767 144.77 143.585 144.359C143.371 143.918 143.033 143.408 142.857 142.928C142.829 142.82 143.256 142.834 143.343 142.92C143.983 143.573 144.507 144.349 144.927 145.164C144.934 145.176 144.941 145.189 144.948 145.201C145.06 145.147 145.171 145.093 145.285 145.041C145.673 144.856 146.067 144.682 146.452 144.49C146.471 144.481 146.532 144.45 146.595 144.418L146.62 144.406C146.858 144.286 147.132 144.129 147.409 143.979C147.676 143.836 147.941 143.69 148.212 143.554C148.214 143.554 148.26 143.53 148.307 143.507C148.319 143.5 148.329 143.495 148.341 143.489C148.486 143.415 148.66 143.319 148.84 143.235C149.014 143.155 149.185 143.071 149.359 142.995C149.363 142.995 149.366 142.991 149.371 142.989C149.37 142.984 149.366 142.979 149.364 142.975C149.302 142.839 149.364 142.669 149.492 142.595C149.694 142.479 149.84 142.613 149.96 142.764C150.11 142.705 150.26 142.648 150.41 142.59C150.926 142.397 151.444 142.205 151.97 142.045C152.101 142.005 152.231 141.97 152.36 141.926C152.489 141.883 152.618 141.837 152.747 141.797C152.907 141.747 153.07 141.701 153.233 141.656C152.718 140.933 152.198 140.211 151.693 139.481C151.496 139.209 151.301 138.934 151.105 138.662C150.691 138.774 150.276 138.889 149.861 139.007C148.969 139.194 148.084 139.397 147.193 139.6C147.069 139.64 146.919 139.673 146.778 139.673C146.548 139.673 146.337 139.587 146.295 139.314C146.243 138.953 146.616 138.815 146.902 138.76C148.101 138.46 149.29 138.113 150.485 137.796C149.906 136.986 149.331 136.173 148.756 135.36C147.815 135.734 146.885 136.149 145.884 136.327C145.762 136.339 145.628 136.362 145.497 136.362C145.351 136.362 145.21 136.334 145.098 136.227C144.861 136.006 144.976 135.57 145.292 135.495C145.464 135.452 145.642 135.427 145.818 135.394C146.637 135.204 147.411 134.873 148.19 134.56C147.524 133.617 146.857 132.674 146.187 131.735C144.739 132.179 143.315 132.836 141.834 133.061H141.813C141.639 133.061 141.477 132.918 141.433 132.754C141.388 132.493 141.515 132.339 141.707 132.235C141.208 131.56 140.691 130.896 140.224 130.199C140.081 130.004 139.934 129.811 139.79 129.619C139.495 129.713 139.201 129.807 138.906 129.901C138.192 130.175 137.472 130.44 136.754 130.706C136.867 130.884 136.982 131.06 137.092 131.24C137.251 131.651 137.922 132.362 137.465 132.74C137.369 132.799 137.282 132.824 137.198 132.824C136.731 132.824 136.458 131.998 136.201 131.67C136.072 131.464 135.942 131.262 135.813 131.057C134.875 131.409 133.939 131.768 133.016 132.153C133.359 132.839 133.681 133.538 133.889 134.274C133.936 134.37 133.898 134.493 133.793 134.537C133.77 134.546 133.746 134.551 133.721 134.551C133.638 134.551 133.552 134.499 133.53 134.413C133.202 133.974 132.925 133.503 132.632 133.042C132.486 132.806 132.341 132.571 132.197 132.334C132.507 132.982 132.8 133.638 133.052 134.309C133.197 134.532 133.061 134.852 132.794 134.885C132.773 134.889 132.753 134.891 132.733 134.891C132.521 134.891 132.388 134.685 132.338 134.492C132.247 134.255 132.179 134.023 132.073 133.784C131.348 132.212 130.583 130.663 130.056 129.011C129.87 128.53 129.687 128.045 129.516 127.555C129.349 127.233 129.197 126.905 129.088 126.557C128.948 126.118 128.704 125.67 128.751 125.199V125.196H128.753ZM152.679 147.778C152.62 147.873 152.576 147.988 152.503 148.071C152.524 148.061 152.545 148.052 152.569 148.049C152.876 148.012 153.143 147.838 153.425 147.726C153.964 147.545 154.502 147.466 155.037 147.249C155.537 147.015 156.24 146.998 156.534 146.466C156.534 146.454 156.536 146.443 156.539 146.433C155.595 146.665 154.657 146.931 153.735 147.25C153.394 147.357 153.052 147.473 152.712 147.592C152.712 147.656 152.704 147.721 152.681 147.78H152.679V147.778ZM141.62 151.757C141.625 151.785 141.644 151.823 141.665 151.865C141.672 151.836 141.681 151.804 141.696 151.773C141.766 151.654 141.923 151.579 142.059 151.625C142.177 151.67 142.303 151.647 142.423 151.625C143.526 151.391 144.549 150.898 145.588 150.476C145.804 150.4 146.038 150.279 146.271 150.236C146.262 150.157 146.268 150.079 146.28 150.002C145.862 150.171 145.443 150.337 145.02 150.492C144.093 150.783 143.192 151.118 142.244 151.431C142.197 151.445 142.149 151.452 142.108 151.452C141.855 151.452 141.693 151.233 141.709 151.02C141.208 150.882 140.614 149.817 140.285 149.298C140.485 149.645 140.68 149.993 140.874 150.333C141.154 150.792 141.442 151.248 141.621 151.759H141.62V151.757ZM144.239 146.353C143.91 146.518 143.545 146.721 143.178 146.912C142.921 147.046 142.662 147.177 142.404 147.308C142.142 147.44 141.883 147.574 141.62 147.702C141.372 147.822 141.121 147.935 140.872 148.054C140.797 148.089 140.724 148.123 140.649 148.157C140.916 148.652 141.177 149.15 141.426 149.661C141.578 149.973 141.79 150.271 141.959 150.579C141.979 150.607 141.996 150.637 142.01 150.668C143.403 150.22 144.737 149.774 146.126 149.239C146.011 149.065 145.881 148.892 145.806 148.704C145.598 148.305 145.407 147.93 145.196 147.529C144.938 147.107 144.701 146.675 144.478 146.236C144.399 146.274 144.321 146.311 144.243 146.349L144.239 146.353ZM149.396 143.819C149.27 143.875 149.145 143.929 149.019 143.986C148.814 144.089 148.608 144.194 148.402 144.295C148.035 144.483 147.672 144.68 147.306 144.871C146.799 145.14 146.276 145.375 145.755 145.619C145.612 145.687 145.471 145.757 145.328 145.825C145.771 146.574 146.2 147.329 146.51 148.146C146.616 148.415 146.731 148.681 146.858 148.941C148.502 148.27 150.159 147.629 151.834 147.043C151.149 145.912 150.361 144.838 149.73 143.676C149.617 143.72 149.506 143.767 149.394 143.815V143.819H149.396ZM153.373 142.541C153.239 142.578 153.103 142.613 152.968 142.653C152.838 142.693 152.707 142.735 152.576 142.777C152.446 142.817 152.315 142.85 152.184 142.886C152.055 142.923 151.928 142.965 151.799 143.005C151.543 143.085 151.288 143.169 151.032 143.249C150.853 143.306 150.673 143.362 150.496 143.422C151.283 144.432 151.958 145.539 152.435 146.729C152.446 146.762 152.458 146.794 152.47 146.827C153.61 146.44 154.758 146.081 155.917 145.755C155.276 144.608 154.546 143.51 153.788 142.43C153.648 142.468 153.51 142.505 153.371 142.543H153.373V142.541ZM131.003 124.994C130.722 125.076 130.442 125.159 130.163 125.246C129.955 125.309 129.748 125.38 129.537 125.433C129.534 125.435 129.528 125.436 129.523 125.438C129.83 126.187 130.227 126.902 130.602 127.625C130.612 127.62 130.621 127.616 130.632 127.611C131.435 127.298 132.2 126.897 132.988 126.553C132.93 126.463 132.873 126.372 132.812 126.283C132.543 125.867 132.228 125.429 131.944 124.973C131.906 124.903 131.862 124.832 131.822 124.758C131.548 124.835 131.275 124.913 131.001 124.994H131.003ZM132.657 124.523C132.533 124.558 132.411 124.593 132.287 124.628C132.346 124.692 132.406 124.757 132.468 124.818C132.927 125.26 133.326 125.753 133.695 126.268C133.769 126.24 133.842 126.212 133.917 126.186C134.744 125.886 135.6 125.666 136.451 125.44C136.001 124.879 135.551 124.324 135.041 123.805C134.875 123.854 134.71 123.904 134.544 123.953C133.915 124.143 133.289 124.342 132.658 124.521H132.657V124.523ZM139.617 123.423C139.413 123.134 139.15 122.881 138.917 122.611C138.101 122.874 137.285 123.134 136.466 123.382C136.308 123.429 136.149 123.476 135.991 123.524C136.294 123.904 136.62 124.265 136.942 124.629C137.104 124.802 137.263 124.978 137.42 125.156C138.38 124.842 139.34 124.523 140.314 124.248C140.088 123.969 139.858 123.694 139.617 123.425V123.423ZM141.668 125.983C141.388 125.621 141.111 125.255 140.83 124.894C139.872 125.152 138.925 125.459 137.988 125.814C138.239 126.112 138.486 126.414 138.73 126.714C139.173 127.308 139.572 127.932 139.973 128.556C140.975 128.239 141.987 127.944 142.993 127.639C142.543 127.094 142.097 126.545 141.668 125.983ZM141.867 131.738C141.918 131.855 141.987 131.973 142.052 132.094C142.244 132.038 142.442 131.993 142.583 131.928C143.589 131.581 144.6 131.238 145.619 130.926C144.981 130.055 144.3 129.218 143.612 128.387C142.578 128.714 141.545 129.047 140.51 129.378C140.989 130.149 141.431 130.94 141.867 131.736V131.738ZM137.939 129.251C138.35 129.096 138.767 128.951 139.185 128.812C138.531 127.97 137.861 127.144 137.165 126.332C137.115 126.271 137.066 126.21 137.017 126.149C136.086 126.44 135.131 126.695 134.211 127.024C134.385 127.291 134.555 127.559 134.724 127.827C135.246 128.507 135.755 129.202 136.24 129.913C136.808 129.694 137.378 129.479 137.939 129.251ZM135.351 130.262C135.325 130.213 135.295 130.166 135.271 130.116C134.997 129.579 134.659 129.084 134.291 128.608C133.988 128.193 133.721 127.756 133.457 127.315C132.655 127.655 131.886 128.07 131.076 128.39C131.048 128.395 131.02 128.406 130.994 128.415C131.024 128.477 131.053 128.538 131.081 128.603C131.601 129.514 132.165 130.396 132.615 131.348C132.646 131.409 132.678 131.47 132.709 131.532C133.549 131.031 134.441 130.63 135.351 130.264V130.262Z" fill="black"/>
<path d="M142.029 122.067L142.413 120.612L142.472 120.628C142.472 120.628 142.468 120.616 142.467 120.611C143.746 120.335 145.013 119.662 146.32 119.657C146.982 119.431 148.061 121.602 148.596 122.071C150.494 124.544 152.409 127.005 154.34 129.452C158.024 134.326 162.12 138.929 165.398 144.094C165.581 145.755 162.595 146.105 161.351 146.152C159.908 146.097 158.969 144.624 158.179 143.568C152.702 136.522 146.992 129.459 142.033 122.067H142.029ZM147.684 127.894C147.674 127.88 147.665 127.864 147.655 127.85L147.531 128.483C148.204 129.359 148.873 130.241 149.546 131.118L149.68 130.448C149.014 129.598 148.348 128.747 147.684 127.895V127.894ZM150.199 131.112L150.061 131.794C150.738 132.679 151.419 133.559 152.094 134.445L152.24 133.73C151.564 132.853 150.881 131.984 150.197 131.112H150.199ZM152.611 135.122C153.399 136.156 154.183 137.189 154.974 138.219L155.122 137.498C154.342 136.461 153.55 135.431 152.759 134.401L152.611 135.122ZM155.49 138.896C156.255 139.898 157.034 140.889 157.794 141.895L157.93 141.22C157.156 140.215 156.403 139.194 155.637 138.181L155.49 138.896ZM158.805 142.299C158.686 142.158 158.57 142.015 158.453 141.874L158.31 142.575C159.049 143.563 159.803 144.364 160.537 145.356C160.614 145.199 160.717 145.051 160.826 144.908C160.373 143.831 159.474 143.216 158.805 142.299ZM147.013 127.806L147.148 127.139C146.482 126.381 145.886 125.563 145.265 124.767L145.161 125.325C145.61 125.931 146.844 127.585 147.013 127.806ZM142.873 121.522L142.765 122.106C143.448 122.899 144.011 123.798 144.65 124.629L144.748 124.096C144.251 123.451 143.017 121.724 142.873 121.52V121.522ZM147.114 121.496C146.792 121.043 146.382 120.63 146.109 120.156C145.3 120.53 144.427 120.748 143.591 121.053C144.152 121.825 144.786 122.585 145.363 123.354C146.358 123.296 147.341 123.077 148.333 123.042C147.927 122.526 147.521 122.01 147.116 121.494H147.114V121.496ZM150.023 125.191C149.608 124.662 149.194 124.136 148.779 123.608C147.796 123.653 146.848 123.946 145.863 124.004C146.498 124.826 147.132 125.649 147.761 126.475C148.716 126.308 149.673 125.985 150.656 125.999C150.445 125.729 150.236 125.459 150.025 125.189H150.023V125.191ZM151.959 127.674C151.625 127.24 151.287 126.81 150.949 126.377C150.025 126.545 149.167 126.871 148.259 127.13C148.95 128.033 149.64 128.936 150.323 129.842C151.267 129.617 152.212 129.387 153.174 129.248C152.768 128.723 152.364 128.199 151.958 127.674H151.959ZM153.847 130.117C153.732 129.969 153.618 129.821 153.503 129.673C152.604 129.913 151.717 130.227 150.825 130.504C151.513 131.412 152.2 132.32 152.893 133.223C153.85 133.017 154.783 132.636 155.769 132.608C155.129 131.776 154.488 130.945 153.845 130.117H153.847ZM157.649 135.018C157.148 134.378 156.647 133.737 156.149 133.096C155.232 133.326 154.352 133.671 153.448 133.941C154.202 134.919 154.96 135.893 155.722 136.865C156.754 136.628 157.801 136.379 158.841 136.555C158.444 136.043 158.049 135.529 157.649 135.018ZM159.566 137.491C159.458 137.353 159.352 137.214 159.244 137.076C158.157 137.224 157.346 137.329 156.33 137.639C157.076 138.584 157.822 139.528 158.564 140.474C159.614 140.243 160.687 140.363 161.75 140.271C161.018 139.347 160.288 138.422 159.566 137.491ZM164.326 143.333C163.594 142.531 162.886 141.708 162.214 140.856C161.21 141.097 160.197 141.133 159.18 141.295C159.878 142.324 160.699 143.291 161.233 144.42C162.33 144.209 163.667 143.85 164.756 143.793C164.612 143.639 164.467 143.488 164.326 143.333ZM161.912 145.422C162.874 145.389 163.878 145.283 164.735 144.851C164.88 144.64 165.028 144.427 165.171 144.213H165.169C164.23 144.492 162.242 144.842 161.274 145.014C161.257 145.178 161.226 145.293 161.224 145.483C161.456 145.492 161.684 145.441 161.912 145.422Z" fill="black"/>
<path d="M189.852 31.3623C189.887 31.2803 189.817 31.427 189.852 31.3623V31.3623Z" fill="black"/>
<path d="M167.142 98.6623C167.17 98.5769 167.198 98.4915 167.228 98.4078C167.388 97.9286 167.548 97.4528 167.707 96.9753C168.503 94.6016 169.298 92.2263 170.094 89.8526C170.948 87.303 171.802 84.7551 172.658 82.2054C173.515 79.6488 174.373 77.0922 175.229 74.5338C176.056 72.0608 176.888 69.5879 177.715 67.1149C178.528 64.6907 179.34 62.2683 180.152 59.8441C181.02 57.2561 181.886 54.6681 182.756 52.0801C183.552 49.7082 184.347 47.3381 185.143 44.9679C185.969 42.5107 186.793 40.0534 187.621 37.5961C188.02 36.4162 188.421 35.2364 188.834 34.06C189.061 33.417 189.289 32.7739 189.535 32.1378C189.634 31.8799 189.737 31.6219 189.847 31.3692C189.847 31.3692 189.848 31.3669 189.85 31.3623C189.85 31.3623 189.854 31.3553 189.857 31.3501C189.901 31.2699 189.948 31.1967 190.021 31.1427C190.032 31.134 190.042 31.127 190.054 31.1218L190.068 31.113C190.106 31.0956 190.147 31.0852 190.188 31.0834C190.215 31.0712 190.241 31.0608 190.27 31.052C190.328 31.0364 190.387 31.0259 190.446 31.0172C190.636 30.991 190.831 30.9858 191.023 30.9771C191.581 30.9492 192.14 30.9248 192.703 30.9178C195.657 30.8708 198.613 30.8865 201.567 30.8935C204.716 30.9022 207.865 30.9144 211.014 30.9248C214.237 30.937 217.461 30.9492 220.683 30.9614C223.726 30.9736 226.769 30.9858 229.812 30.998C232.963 31.0102 236.115 31.0224 239.266 31.0346L248.546 31.0712C251.608 31.0834 254.67 31.0956 257.731 31.1078C260.503 31.1183 263.274 31.1305 266.047 31.1409C267.45 31.1462 268.855 31.1514 270.259 31.1566C270.339 31.1566 270.416 31.1793 270.484 31.2141C270.634 31.1949 270.817 31.2455 270.946 31.2838C272.237 31.7369 273.365 32.5316 274.506 33.2688C274.876 33.5424 275.552 33.7638 275.556 34.311C275.552 34.3528 275.542 34.3946 275.528 34.433C275.531 34.4452 275.533 34.4574 275.535 34.4696C275.559 34.6212 275.514 34.7763 275.475 34.9227C275.414 35.1493 275.341 35.3741 275.266 35.5989C275.066 36.2123 274.857 36.8223 274.646 37.4323C274.205 38.7149 273.727 40.0499 273.246 41.3831C272.063 44.6717 270.864 47.955 269.663 51.2366C268.299 54.9696 266.932 58.7026 265.566 62.4356C264.2 66.1686 262.833 69.9016 261.467 73.6363C260.029 77.561 258.593 81.4857 257.157 85.4103C255.704 89.3803 254.25 93.3486 252.797 97.3203C251.404 101.123 250.012 104.927 248.62 108.732C247.238 112.505 245.857 116.278 244.477 120.051C243.119 123.758 241.762 127.467 240.406 131.173C239.47 133.728 238.536 136.281 237.602 138.836C237.602 138.88 237.593 138.927 237.57 138.979C237.443 139.225 237.124 139.242 236.882 139.289C236.201 139.373 235.517 139.424 234.833 139.445C234.596 139.45 234.357 139.451 234.12 139.451C233.257 139.451 232.396 139.417 231.537 139.356C231.305 139.338 230.976 139.35 230.704 139.289H230.335C230.315 139.286 230.296 139.281 230.277 139.277C230.232 139.267 230.186 139.256 230.139 139.248C230.124 139.244 230.108 139.241 230.091 139.237C230.064 139.232 230.038 139.227 230.012 139.221C229.991 139.218 229.97 139.213 229.949 139.209C229.949 139.209 229.932 139.206 229.923 139.202C229.92 139.199 229.915 139.195 229.911 139.192C229.897 139.185 229.881 139.185 229.867 139.192C229.845 139.18 229.82 139.167 229.798 139.153C229.404 138.936 229.014 138.709 228.628 138.477C227.625 137.878 226.636 137.256 225.646 136.633C225.458 136.515 225.27 136.393 225.082 136.274C224.932 136.736 224.812 137.209 224.688 137.677C224.386 138.984 224.125 140.3 223.773 141.595C223.757 141.656 223.728 141.708 223.689 141.755C223.7 141.848 223.689 141.951 223.642 142.06C223.625 142.107 223.602 142.148 223.58 142.184C223.571 142.252 223.55 142.322 223.513 142.393C223.487 142.456 223.456 142.508 223.419 142.554C223.405 142.683 223.343 142.812 223.205 142.921C223.16 142.961 223.113 142.991 223.065 143.014C222.977 143.13 222.842 143.219 222.694 143.265C221.961 143.62 221.248 144.03 220.45 144.232C217.105 145.363 213.552 145.818 210.04 146.083C211.44 147.416 212.797 148.793 214.183 150.142C214.995 150.928 215.765 151.729 216.556 152.548C217.083 153.09 217.656 153.589 218.118 154.192C218.393 154.455 218.506 154.904 218.139 155.143C218.046 155.202 217.957 155.227 217.876 155.227C217.729 155.302 217.541 155.352 217.433 155.379C216.311 155.647 215.169 155.774 214.036 155.982C212.429 156.421 210.812 156.813 209.184 157.165C207.792 157.405 206.393 157.614 205.011 157.911C202.954 158.407 200.931 159.042 198.874 159.532C198.836 159.54 198.798 159.545 198.761 159.545C198.568 159.545 198.395 159.427 198.304 159.263C198.205 159.169 198.107 159.075 198.008 158.981C197.104 158.116 196.201 157.252 195.296 156.389C194.362 155.499 193.43 154.605 192.498 153.712C191.549 152.806 190.6 151.9 189.653 150.992C188.683 150.065 187.712 149.136 186.741 148.207C185.786 147.294 184.831 146.381 183.876 145.466C182.916 144.546 181.954 143.627 180.994 142.705C180.018 141.771 179.042 140.835 178.068 139.899C177.111 138.981 176.156 138.062 175.202 137.142C174.261 136.233 173.322 135.321 172.39 134.404C171.45 133.483 170.509 132.559 169.615 131.595C169.512 131.485 169.401 131.362 169.291 131.236C169.181 131.107 169.026 130.947 169.07 130.764C169.08 130.72 169.103 130.684 169.134 130.654C169.124 130.391 169.314 130.164 169.573 130.116C170.211 129.999 170.849 129.884 171.487 129.767C172.606 129.563 173.725 129.359 174.845 129.157C175.985 128.951 177.123 128.742 178.263 128.537C179.389 128.334 180.514 128.127 181.64 127.923C182.794 127.714 183.949 127.505 185.105 127.297C185.701 127.191 186.297 127.083 186.893 126.98C187.161 126.933 187.428 126.886 187.696 126.843C187.829 126.822 187.961 126.799 188.094 126.78C188.163 126.771 188.236 126.757 188.308 126.759C188.376 126.762 188.442 126.768 188.507 126.794C188.606 126.832 188.679 126.9 188.74 126.987C188.815 127.094 188.829 127.226 188.798 127.348C188.784 127.403 188.784 127.403 188.798 127.348C188.792 127.369 188.784 127.388 188.777 127.407C188.806 127.425 188.836 127.442 188.864 127.467C189.953 128.179 190.87 129.11 191.867 129.94C192.665 130.569 193.456 131.301 194.291 131.987C195.094 132.672 195.889 133.374 196.616 134.143C196.696 134.241 196.788 134.331 196.879 134.425C196.895 134.422 196.907 134.417 196.922 134.415C197.234 134.387 197.548 134.387 197.86 134.373C199.568 134.199 201.257 133.885 202.966 133.74C203.949 133.674 204.876 133.326 205.83 133.117C206.656 132.895 207.45 132.479 208.12 131.947C208.806 131.409 209.306 130.682 209.74 129.934C209.986 129.337 210.22 128.73 210.437 128.12C210.572 127.81 210.589 127.432 210.79 127.155C210.816 127.128 210.844 127.109 210.871 127.095C210.706 126.989 210.539 126.883 210.373 126.776C208.273 125.426 206.166 124.087 204.064 122.738C201.9 121.349 199.739 119.955 197.574 118.565C195.424 117.183 193.275 115.802 191.126 114.419C188.998 113.049 186.87 111.681 184.742 110.309C182.654 108.964 180.565 107.618 178.475 106.273C176.388 104.927 174.3 103.582 172.21 102.237C171.297 101.648 170.384 101.06 169.469 100.471C169.136 100.257 168.803 100.043 168.47 99.8264C168.331 99.7375 168.191 99.6469 168.052 99.558C167.944 99.4883 167.832 99.4204 167.726 99.3472C167.721 99.3437 167.717 99.3385 167.712 99.335C167.688 99.3385 167.663 99.3402 167.639 99.3402C167.585 99.3402 167.531 99.3315 167.477 99.3141C167.207 99.2234 167.057 98.9219 167.147 98.6518L167.142 98.6623ZM269.133 32.2005L263.1 32.1761C260.13 32.1639 257.159 32.1535 254.189 32.1413C251.096 32.1291 248.001 32.1169 244.907 32.1047C241.809 32.0925 238.71 32.0803 235.612 32.0681C232.489 32.0559 229.366 32.0437 226.243 32.0315L217.03 31.9949C213.799 31.9827 210.568 31.9687 207.337 31.9548C204.27 31.9408 201.203 31.9304 198.134 31.9077C196.657 31.8973 195.181 31.8868 193.705 31.8572C193.029 31.8433 192.351 31.8328 191.677 31.7979C191.36 31.7805 191.041 31.7666 190.723 31.7422C190.662 31.7369 190.6 31.7335 190.539 31.7265C190.493 31.9008 190.448 32.075 190.401 32.2493C190.242 32.8175 190.066 33.3804 189.89 33.9415C189.138 36.3448 188.327 38.7271 187.525 41.113C186.698 43.5772 185.88 46.0432 185.056 48.5075C184.237 50.9561 183.416 53.4064 182.595 55.8549C181.743 58.3976 180.893 60.9403 180.039 63.483C179.233 65.8862 178.428 68.2878 177.623 70.691L175.103 78.2093L172.452 86.1196C171.619 88.6013 170.788 91.083 169.957 93.563C169.894 93.7494 169.831 93.9359 169.77 94.1224C169.833 94.1259 169.896 94.1381 169.951 94.1625C169.958 94.166 169.964 94.1677 169.971 94.1712H169.972C169.992 94.1799 170.011 94.1921 170.028 94.2026C170.047 94.2148 170.067 94.2287 170.084 94.2426C170.182 94.3019 170.284 94.3524 170.384 94.4082L170.849 94.6731C171.217 94.8822 171.583 95.0931 171.949 95.304C174.307 96.6598 176.663 98.0174 179.019 99.3785C181.365 100.733 183.712 102.083 186.06 103.436C188.411 104.79 190.762 106.146 193.113 107.5C195.495 108.873 197.877 110.246 200.26 111.62C202.602 112.969 204.943 114.319 207.283 115.668C209.584 116.994 211.882 118.322 214.183 119.649C216.467 120.964 218.75 122.282 221.033 123.603C223.259 124.889 225.484 126.177 227.706 127.472C228.808 128.113 229.909 128.754 231.005 129.404C231.539 129.72 232.069 130.041 232.595 130.368C232.764 130.475 232.933 130.583 233.099 130.696C234.16 127.827 235.221 124.959 236.281 122.09C237.595 118.533 238.911 114.978 240.226 111.423C241.607 107.688 242.987 103.955 244.369 100.222C245.706 96.6076 247.042 92.9931 248.379 89.3803C249.859 85.379 251.338 81.3794 252.818 77.378C254.27 73.4533 255.721 69.5286 257.175 65.6039C257.922 63.5858 258.67 61.5677 259.419 59.5478C260.191 57.4635 260.958 55.3774 261.73 53.2931C263.196 49.344 264.649 45.3914 266.136 41.4493C266.783 39.7345 267.431 38.0161 268.105 36.3117C268.463 35.4072 268.82 34.5027 269.186 33.6034C269.376 33.1364 269.566 32.6693 269.77 32.2075C269.557 32.2057 269.346 32.2057 269.133 32.204V32.2005ZM232.307 138.361C233.119 138.411 233.935 138.413 234.749 138.422C234.853 138.43 235.082 138.422 235.364 138.415C235.744 138.404 236.223 138.392 236.642 138.423C237.194 136.914 237.746 135.405 238.299 133.894C239.602 130.33 240.908 126.768 242.213 123.204C243.566 119.509 244.918 115.816 246.269 112.123C247.671 108.288 249.076 104.452 250.481 100.616C251.957 96.5849 253.431 92.5522 254.909 88.5212C256.326 84.6488 257.745 80.7764 259.161 76.904C260.547 73.1187 261.932 69.3334 263.318 65.5482C264.7 61.7716 266.084 57.9951 267.466 54.2185C268.71 50.8219 269.953 47.4252 271.206 44.0321C271.803 42.4131 272.403 40.794 273.011 39.1785C273.356 38.2601 273.706 37.3434 274.064 36.4302C274.245 35.9649 274.426 35.4996 274.62 35.0395C274.675 34.9088 274.731 34.7798 274.792 34.6526C274.588 34.5445 274.411 34.3598 274.21 34.2552C273.517 33.8091 272.804 33.3873 272.108 32.9447C271.845 32.7408 271.129 32.3678 270.664 32.0001C270.592 32.0907 270.493 32.1569 270.38 32.1866C270.352 32.2789 270.326 32.3696 270.298 32.4602C270.158 32.9203 270.007 33.3769 269.853 33.8335C269.555 34.7258 269.25 35.6146 268.942 36.5034C268.405 38.0614 267.828 39.6647 267.25 41.2663C266.617 43.0161 265.974 44.7623 265.333 46.5103C264.606 48.4866 263.876 50.4629 263.147 52.4391C262.373 54.5339 261.596 56.6287 260.822 58.7218C259.324 62.7807 257.826 66.8395 256.328 70.8984C254.874 74.8318 253.419 78.767 251.964 82.7004C250.559 86.4978 249.156 90.2935 247.752 94.091C246.382 97.7944 245.012 101.498 243.642 105.201C242.299 108.836 240.953 112.472 239.609 116.107C238.262 119.751 236.915 123.395 235.566 127.04C234.644 129.535 233.721 132.029 232.799 134.525C232.332 135.786 231.866 137.046 231.399 138.306C231.703 138.32 232.006 138.34 232.309 138.361H232.307ZM209.188 145.035C212.45 144.99 215.723 144.446 218.886 143.638C219.622 143.378 220.293 143.23 221.033 142.921C221.391 142.82 221.947 142.379 222.415 142.245C222.44 142.21 222.466 142.177 222.501 142.146C222.51 142.137 222.518 142.13 222.529 142.121C222.541 142.06 222.562 141.998 222.597 141.933C222.604 141.917 222.611 141.907 222.618 141.891C222.618 141.815 222.633 141.733 222.672 141.647C222.698 141.579 222.733 141.524 222.769 141.477C222.759 141.257 222.839 141.004 222.9 140.8C223.052 140.215 223.186 139.624 223.315 139.033C223.557 137.913 223.825 136.797 224.188 135.708C223.759 135.436 223.329 135.164 222.9 134.891C222.157 134.413 221.419 133.93 220.68 133.446C220.605 133.981 220.537 134.518 220.437 135.049C220.19 136.302 219.685 137.493 219.083 138.613C218.426 139.849 217.513 141.1 216.096 141.477C214.796 141.919 213.423 142.055 212.083 142.329C211.088 142.519 210.082 142.637 209.082 142.789C208.364 142.935 207.639 143.045 206.91 143.12C207.452 143.658 207.984 144.207 208.557 144.713L208.913 145.037C208.996 145.018 209.089 145.013 209.184 145.032L209.188 145.035ZM211.267 128.179C211.094 128.943 210.887 129.708 210.598 130.436C209.967 131.654 209.047 132.735 207.834 133.402C207.21 133.72 206.581 134.068 205.878 134.174C205.145 134.37 204.418 134.601 203.665 134.713C201.433 134.908 199.228 135.382 196.987 135.461H196.985C196.649 135.461 196.476 135.197 196.476 134.936C195.99 134.551 195.514 134.152 195.025 133.772C193.47 132.552 191.924 131.327 190.41 130.055C189.693 129.415 189.043 128.85 188.219 128.305C188.111 128.233 188.017 128.113 187.989 127.953C187.98 127.906 187.98 127.86 187.984 127.817C187.829 127.848 187.675 127.88 187.52 127.909C187.105 127.989 186.692 128.066 186.278 128.143C185.108 128.359 183.941 128.571 182.771 128.786C181.631 128.993 180.492 129.201 179.352 129.408C178.226 129.614 177.1 129.818 175.974 130.021C174.842 130.227 173.709 130.433 172.574 130.638C171.736 130.792 170.898 130.943 170.06 131.095C170.248 131.254 170.434 131.414 170.617 131.576C171.591 132.44 172.55 133.322 173.503 134.213C174.462 135.109 175.417 136.006 176.37 136.909C177.353 137.839 178.332 138.772 179.312 139.704C180.258 140.603 181.204 141.506 182.149 142.405C183.116 143.327 184.085 144.251 185.052 145.175C186.021 146.098 186.99 147.025 187.961 147.951C188.923 148.869 189.883 149.786 190.845 150.703C191.795 151.611 192.745 152.517 193.697 153.425C194.627 154.314 195.558 155.202 196.488 156.091C197.313 156.879 198.135 157.665 198.96 158.451C198.993 158.444 199.026 158.439 199.057 158.43C199.596 158.301 200.126 158.141 200.657 157.989C203.085 157.308 205.525 156.682 208.02 156.314C209.993 156.034 211.917 155.488 213.858 155.053C214.868 154.878 215.892 154.85 216.908 154.746C217.008 154.746 217.109 154.742 217.21 154.741C217.201 154.728 217.192 154.716 217.184 154.706C216.805 154.235 216.349 153.84 215.929 153.409C214.258 151.649 212.492 149.95 210.767 148.238C209.517 146.874 208.083 145.691 206.867 144.295C206.654 143.979 205.289 142.709 206.02 142.484C206.075 142.48 206.126 142.491 206.175 142.507C206.213 142.318 206.352 142.149 206.607 142.106C207.191 142.043 207.776 141.975 208.355 141.869C209.683 141.612 211.035 141.496 212.361 141.215C213.545 140.994 214.749 140.851 215.892 140.452C217.623 139.939 218.723 137.202 219.334 135.607C219.491 135.14 219.613 134.659 219.714 134.176C219.786 133.925 219.864 133.368 220.038 133.022C219.965 132.974 219.89 132.925 219.817 132.876C218.759 132.177 217.694 131.489 216.629 130.8C215.603 130.136 214.575 129.472 213.547 128.812C212.809 128.34 212.072 127.871 211.335 127.399C211.337 127.413 211.34 127.426 211.34 127.44C211.359 127.686 211.314 127.935 211.269 128.178H211.267V128.179ZM168.862 98.8487C169.064 98.9794 169.268 99.1102 169.472 99.2409L175.143 102.894C177.231 104.239 179.321 105.586 181.41 106.93C183.521 108.289 185.631 109.65 187.743 111.011C189.859 112.374 191.973 113.739 194.087 115.102C196.262 116.505 198.435 117.913 200.614 119.312C202.79 120.713 204.963 122.118 207.133 123.53C209.207 124.877 211.284 126.22 213.36 127.569C214.387 128.237 215.415 128.897 216.445 129.56C217.497 130.236 218.55 130.914 219.606 131.583C220.664 132.254 221.727 132.918 222.783 133.594C223.721 134.195 224.655 134.804 225.585 135.414C226.556 136.051 227.525 136.687 228.484 137.339C228.912 137.632 229.338 137.928 229.759 138.23C229.906 138.334 230.052 138.441 230.195 138.549C230.315 138.225 230.434 137.9 230.554 137.576C231.314 135.523 232.072 133.472 232.83 131.421C232.766 131.393 232.703 131.363 232.64 131.332C232.328 131.18 232.023 131.011 231.718 130.847C230.598 130.244 229.494 129.612 228.39 128.983C227.278 128.35 226.166 127.716 225.054 127.08C222.788 125.783 220.525 124.483 218.261 123.183C215.986 121.876 213.712 120.563 211.438 119.255C209.096 117.908 206.755 116.559 204.415 115.21C202.097 113.875 199.777 112.538 197.459 111.203C195.082 109.833 192.703 108.464 190.326 107.094C187.952 105.726 185.577 104.358 183.202 102.99C180.844 101.63 178.488 100.271 176.128 98.9132C174.976 98.251 173.826 97.587 172.674 96.923C172.097 96.5901 171.52 96.259 170.943 95.9244C170.664 95.7623 170.385 95.602 170.108 95.4399C169.934 95.3388 169.763 95.236 169.591 95.1367C169.558 95.1245 169.525 95.1088 169.495 95.0896C169.483 95.0826 169.472 95.0739 169.46 95.067C169.457 95.0652 169.455 95.0635 169.453 95.06C169.07 96.2015 168.686 97.3447 168.305 98.4862C168.495 98.5995 168.678 98.725 168.862 98.8453V98.8487Z" fill="black"/>
<path d="M103.087 62.3781C102.889 62.3624 102.669 62.3537 102.446 62.3519C102.458 62.4025 102.465 62.453 102.463 62.4983C102.502 62.9584 102.066 63.2686 101.691 63.4359C101.585 63.4795 101.472 63.4987 101.358 63.4987C100.926 63.4987 100.489 63.2076 100.372 62.7841C100.362 62.7406 100.356 62.7005 100.355 62.6604C99.5076 62.9166 98.7042 63.307 97.9531 63.7705C97.8886 63.7949 97.8259 63.8071 97.7649 63.8071C97.31 63.8071 97.0364 63.1571 97.4703 62.8556C98.7164 62.0522 100.151 61.4875 101.642 61.3777H101.855C102.428 61.3742 103.038 61.3708 103.497 61.7611C103.871 62.1463 103.542 62.4739 103.087 62.3798V62.3781Z" fill="black"/>
<path d="M267.487 80.9489C267.487 80.9489 267.482 80.9471 267.48 80.9471C267.482 80.9471 267.483 80.9471 267.485 80.9489H267.487Z" fill="black"/>
<path d="M12.9186 138.998H12.9256C13.1957 137.611 13.3839 136.206 13.6836 134.824C14.2727 132.184 15.0046 129.581 15.8586 127.015C16.96 124.066 18.3263 121.221 19.8077 118.446C20.8795 116.372 22.2127 114.45 23.5023 112.512C25.1388 110.17 26.655 107.798 28.4674 105.564C29.3597 104.568 30.2538 103.577 31.1251 102.564C32.3573 101.21 33.7184 99.9798 35.0585 98.7372C37.948 96.3845 40.7225 93.8854 43.7131 91.6581C45.2153 90.48 46.8779 89.5337 48.4603 88.4724C49.0442 88.0803 49.5931 87.7439 50.2101 87.3797C50.6806 87.0677 51.2226 86.8429 51.789 86.8499C51.7297 86.3061 52.0521 85.7938 52.5157 84.7969C52.9305 83.9691 53.3941 83.1709 53.8925 82.3919C54.1487 81.9214 54.5164 81.6512 54.9225 81.2957C54.9922 81.2243 55.0619 81.1546 55.1333 81.0848C54.8249 80.9071 54.621 80.6126 54.4432 80.3111C53.8855 79.3787 53.3697 78.4202 52.8782 77.4512C51.8099 75.3843 50.7869 73.2912 49.9086 71.1372C49.2794 69.5495 48.9169 67.8713 48.5544 66.2069C48.1623 64.5252 47.9759 62.8086 47.873 61.0867C47.6918 59.0895 47.6726 57.0784 47.8974 55.0864C48.7479 49.046 51.2017 42.8627 55.1421 38.173C57.1427 35.9004 59.5565 34.027 62.0713 32.3557C65.9053 29.7537 70.2796 27.9918 74.8509 27.2389C76.2346 26.8939 77.6515 26.8939 79.0666 26.9583C85.297 27.2442 87.8152 27.8942 92.8257 29.6666C94.0787 30.111 95.2969 30.6478 96.4593 31.2891C97.627 31.9322 98.7423 32.6659 99.7897 33.4884C100.823 34.3006 101.79 35.1929 102.676 36.1618C103.598 37.1709 104.431 38.2688 105.138 39.4382C105.827 40.5745 106.414 41.777 106.843 43.0353C107.285 44.3336 107.582 45.6773 107.681 47.0471C107.779 48.3786 107.695 49.7274 107.402 51.0328C107.292 51.526 107.151 52.0105 106.986 52.4862C107.165 52.413 107.395 52.4374 107.576 52.481C108.341 52.6675 108.866 53.3384 109.244 53.9867C109.617 54.6281 109.868 55.3461 110.055 56.0606C110.434 57.5123 110.569 59.0285 110.543 60.5256C110.53 61.261 110.476 61.9964 110.377 62.7267C110.276 63.4743 110.128 64.2202 109.915 64.9452C109.701 65.6754 109.422 66.3899 109.03 67.0435C108.753 67.5018 108.404 67.9288 107.962 68.2355C108.002 68.3104 108.042 68.3836 108.08 68.4603C108.416 69.14 108.917 69.8232 108.866 70.6161C108.669 71.7594 107.77 72.2926 106.719 72.5697C106.728 72.6151 106.738 72.6586 106.747 72.7022C106.945 73.5161 106.797 74.3491 106.667 75.1595C106.487 76.4247 105.935 77.5732 105.21 78.6206C105.189 78.6432 105.168 78.6589 105.147 78.6764C105.217 78.7565 105.286 78.8349 105.354 78.9116C105.886 78.6851 106.478 78.7252 106.926 79.2654C107.773 80.0287 108.444 80.9541 108.871 82.0137C108.944 82.2264 109.058 82.4756 109.032 82.7056C109.391 83.0873 109.734 83.4951 110.03 83.9029C110.114 84.051 110.286 84.3525 110.347 84.6122C110.407 84.5948 110.466 84.5756 110.527 84.5616C111.2 84.5669 111.867 85.4313 112.308 85.8966C113.235 87.1514 113.74 88.6728 114.178 90.1576C114.793 91.6181 114.474 92.4546 113.723 93.7564C112.742 95.2935 111.396 96.5222 110.246 97.9321C109.628 98.7477 109.587 99.8805 109.624 100.867C109.842 103.959 110.306 107.024 110.633 110.103C110.846 112.01 110.968 113.92 111.085 115.832C112.141 117.075 113.022 118.481 113.81 119.908C114.539 121.478 115.082 123.153 115.419 124.863C116.278 129.051 117.008 133.472 115.856 137.676C115.499 139.004 114.971 140.298 114.267 141.48C113.69 142.35 112.944 143.111 112.156 143.793C110.337 145.274 108.402 146.715 106.196 147.562C105.14 147.899 104.068 148.251 102.975 148.458C103.558 148.552 104.133 148.676 104.701 148.855C105.154 149.016 105.626 149.103 106.097 149.195C107.144 148.678 108.216 148.207 109.253 147.667C111.926 146.402 114.601 145.149 117.189 143.714C120.462 141.844 123.796 140.074 126.994 138.08C130.272 136.173 133.343 133.803 136.987 132.604C137.796 132.322 140.757 131.642 140.95 131.661C141.107 131.677 141.252 131.705 141.398 131.769C141.454 131.794 141.506 131.823 141.558 131.853C141.691 131.928 141.816 132.012 141.938 132.102C142.262 132.345 142.578 132.602 142.881 132.873C143.468 133.397 144.033 133.951 144.563 134.532C145.126 135.149 145.65 135.8 146.11 136.498C146.213 136.654 146.309 136.816 146.4 136.98C146.499 137.158 146.602 137.336 146.693 137.519C146.783 137.704 146.858 137.892 146.936 138.082C147.008 138.254 147.093 138.418 147.177 138.585C147.215 138.664 147.208 138.753 147.17 138.828C147.729 139.476 148.407 140.283 148.639 141.006C148.974 141.344 149.265 141.726 149.472 142.168C149.624 142.48 149.734 142.815 149.838 143.146C149.969 143.456 149.993 143.828 149.739 144.084C149.221 144.614 148.357 144.424 147.731 144.206C147.248 144.061 146.755 143.976 146.255 143.929C143.237 143.366 141.232 144.08 138.73 145.738C136.691 146.961 135.079 148.8 133.317 150.379C131.201 152.271 129.15 154.239 127.003 156.098C124.382 158.28 121.693 160.406 118.847 162.296C117.473 163.139 116.611 163.813 115.295 164.741C115.14 165.678 114.828 166.583 114.314 167.411C113.08 168.996 111.388 170.14 110.056 171.64C108.345 173.491 106.456 175.197 104.272 176.473C103.063 177.278 101.825 178.083 100.459 178.592C99.4098 178.921 98.3711 179.354 97.2784 179.495C97.132 179.503 96.9943 179.509 96.8636 179.509C96.0777 179.509 95.5984 179.333 95.3405 179.009C94.8298 179.286 94.4063 179.697 93.941 180.044C93.3537 180.52 92.7002 180.896 92.0606 181.297C90.2952 182.386 88.3659 183.174 86.5273 184.124C84.0997 185.495 81.5535 186.664 78.8941 187.504C76.5536 188.294 74.1224 188.752 71.6529 188.813C69.5442 188.808 67.4442 188.364 65.372 187.977C63.0315 187.407 60.7781 186.555 58.5422 185.668C57.676 185.286 56.7837 184.979 55.8915 184.667C54.9225 184.286 54.0267 183.747 53.1327 183.223C52.6029 182.944 52.1009 182.62 51.606 182.285C51.4979 182.353 51.3568 182.389 51.233 182.358C50.6858 182.285 50.1281 182.417 49.5757 182.431C48.8158 182.478 48.0543 182.471 47.2909 182.484C46.139 182.506 44.994 182.628 43.842 182.635C41.0188 182.618 38.1903 182.339 35.4123 181.832C33.4413 181.447 31.4963 180.908 29.5619 180.373C27.8122 179.77 26.0433 179.178 24.3911 178.338C21.0398 176.532 18.1904 173.752 16.2455 170.483C14.6282 167.75 13.9189 164.62 13.1242 161.578C12.7861 160.182 12.462 158.775 12.2842 157.35C12.0995 155.513 12.0089 153.669 11.9078 151.827C11.6725 147.526 12.211 143.233 12.9186 138.998ZM55.027 82.5976H55.0305C54.4206 83.448 53.9186 84.3699 53.4394 85.2988C53.2268 85.7833 52.8887 86.2835 52.8381 86.8081C53.1309 87.2943 53.53 87.7108 53.8716 88.1657C55.0305 89.5442 56.2783 90.9506 57.4843 92.3012C59.9939 95.1768 62.5191 98.0366 65.0583 100.886C67.3518 103.469 69.6854 106.032 71.7035 108.843C72.3605 109.807 73.0628 110.738 73.7198 111.7C74.1311 112.324 74.5163 112.967 74.9903 113.545C75.656 114.27 76.0882 115.206 76.876 115.813C77.4546 116.339 77.7944 115.438 78.1133 115.06C78.7703 114.204 79.2444 113.233 79.8073 112.317C80.7728 110.806 81.7051 109.267 82.4528 107.634C82.6776 107.102 82.9773 106.592 83.2178 106.062C83.1551 105.837 83.2632 105.583 83.4584 105.459C83.5211 105.266 83.5734 105.069 83.6047 104.867C83.8661 102.925 83.0628 101.794 82.0101 100.294C80.1942 97.8624 78.2981 95.4905 76.4246 93.1046C74.7167 91.0064 72.8589 89.0318 70.9645 87.1026C69.7498 85.7223 68.5665 84.3055 67.547 82.7736C67.4842 83.0698 67.3675 83.3539 67.0695 83.4637C66.9963 83.4899 66.9231 83.5003 66.8482 83.5003C66.6878 83.5003 66.5257 83.4498 66.3724 83.3975C66.0203 83.2563 65.6544 83.157 65.2779 83.0995C64.0162 82.8781 62.6934 82.7718 61.4177 82.5958C60.1577 82.4093 59.0214 82.0991 57.7806 81.7471C57.3048 81.6112 56.8116 81.5397 56.3254 81.4439C55.8671 81.8081 55.4784 82.2054 55.027 82.5976ZM84.4465 105.82C85.1401 106.412 85.6856 107.183 86.3025 107.85C86.9561 108.728 87.7386 109.49 88.3956 110.361C88.7354 109.086 88.9899 107.787 89.0282 106.461C89.131 105.124 89.1816 103.788 89.1467 102.446C88.9567 97.1304 87.6445 91.761 84.7968 87.2281C84.7271 87.235 84.6696 87.1845 84.6609 87.1183C84.6591 87.0869 84.6521 87.0573 84.6434 87.0276C83.7494 87.9774 82.831 88.9081 81.9108 89.8213C81.2834 90.494 80.6403 91.151 80.0234 91.8324C79.443 92.4807 78.9063 93.1743 78.2876 93.7861C79.0439 94.7411 79.7916 95.7066 80.5532 96.6738C81.4489 97.892 82.4563 99.0283 83.2754 100.3C83.9202 101.224 84.5214 102.204 84.6365 103.35C84.7515 104.178 84.6992 105.029 84.4465 105.82ZM92.2819 89.4274V89.4239C92.3725 89.1468 93.6918 87.4546 94.8281 86.3584C94.246 86.2905 93.6779 86.1441 93.0888 86.0395C91.604 85.7276 90.1105 85.3215 88.7825 84.5634C88.3328 84.3804 87.9006 84.1608 87.4859 83.9168C87.2053 84.2253 86.9038 84.5146 86.6267 84.8265C86.1579 85.3755 85.6734 85.9175 85.1819 86.4525C85.6577 86.9527 85.9644 87.6202 86.3566 88.1831C86.9561 89.1625 87.4998 90.2936 87.9425 91.3706C88.0767 91.7104 88.2039 92.0538 88.3259 92.3971C88.5681 92.7212 88.7947 93.0576 89.0299 93.3765C89.734 94.3542 90.4799 95.297 91.0847 96.3409C91.4907 96.9753 91.9037 97.594 92.2976 98.2266C92.0013 96.5518 91.7208 94.87 91.5709 93.1778C91.4663 91.8917 91.5099 90.5184 92.2819 89.4274ZM91.6249 99.0805C90.8006 97.7334 90.0216 96.3775 89.1641 95.0496C89.1519 95.0321 89.1397 95.0147 89.1275 94.9973C90.0094 98.3782 90.344 101.906 90.1488 105.389C90.0669 106.557 90.0268 107.73 89.8281 108.887C89.7375 109.323 89.5981 109.744 89.5301 110.189C89.3872 110.666 89.2983 111.196 89.0195 111.616C89.131 112.998 89.2565 114.392 89.206 115.781C89.1293 116.987 88.9027 118.186 88.6117 119.361C89.5859 118.239 90.7971 117.317 92.0728 116.562C92.8518 116.146 93.7249 115.923 94.4795 115.468C94.314 113.777 94.1885 112.082 94.0561 110.388C93.8312 107.392 93.3729 104.424 92.8692 101.465C92.8518 101.426 92.8344 101.386 92.8257 101.344C92.4527 100.576 92.078 99.8055 91.6266 99.0805H91.6249ZM108.26 66.3011C108.404 66.0327 108.53 65.7573 108.643 65.4732C108.808 65.0376 108.944 64.5949 109.058 64.1453C109.22 63.4795 109.333 62.8051 109.41 62.1254C109.493 61.3656 109.528 60.5308 109.509 59.6978C109.492 58.9884 109.429 58.2112 109.309 57.4409C109.309 57.4357 109.309 57.4304 109.307 57.4252C109.218 56.8727 109.098 56.3255 108.939 55.7887C108.932 55.7678 108.927 55.7487 108.922 55.7295C108.826 55.4228 108.702 55.0794 108.554 54.7431C108.458 54.5357 108.352 54.3353 108.235 54.1401C108.157 54.0181 108.073 53.8996 107.984 53.7863C107.911 53.6992 107.834 53.6155 107.754 53.5354C107.686 53.4726 107.616 53.4134 107.545 53.3593C107.494 53.3245 107.442 53.2914 107.39 53.26C107.334 53.2304 107.278 53.206 107.221 53.1816C107.09 53.1345 106.944 53.0944 106.844 52.9969C106.834 52.9916 106.823 52.9829 106.815 52.9759C106.607 53.4988 106.369 54.0077 106.095 54.4991C105.609 55.367 105.021 56.1722 104.352 56.9059C104.408 57.0714 104.462 57.2387 104.509 57.4078C104.673 57.9777 104.79 58.5615 104.87 59.1488C104.947 59.7117 104.997 60.2781 105.013 60.8445C105.016 60.9351 105.016 61.0275 105.018 61.1181C105.018 61.153 105.02 61.1861 105.021 61.2209C105.021 61.2436 105.021 61.2662 105.02 61.2889C105.02 61.4318 105.016 61.573 105.013 61.7159C105.527 61.6514 106.041 61.7525 106.55 61.6444C107.228 61.7403 107.113 62.5838 106.484 62.6709C106.159 62.8051 105.372 62.6761 104.983 62.399C104.969 62.6221 104.95 62.8469 104.927 63.07C105.204 63.5336 105.713 64.5618 105.874 64.8371C106.365 65.6876 106.935 66.4893 107.449 67.3258C107.463 67.3153 107.479 67.3031 107.493 67.2927C107.562 67.2334 107.629 67.1707 107.691 67.1062C107.782 67.0086 107.866 66.9058 107.946 66.7977C108.059 66.6374 108.164 66.4718 108.26 66.3011ZM105.706 74.7865L105.71 74.783C105.846 74.1295 105.978 73.4307 105.95 72.7301C105.3 72.8329 104.643 72.8765 104.098 72.9305C103.361 72.9218 102.446 72.7597 102.015 72.0713C101.836 71.8761 101.695 71.5485 101.862 71.2784C102.012 70.9891 102.432 70.9682 102.646 71.1947C102.777 71.3289 102.869 71.4823 102.988 71.6287C103.437 71.8901 103.978 71.9162 104.485 71.8535C105.478 71.7541 106.548 71.6862 107.428 71.1442C107.681 70.9194 107.948 70.6335 107.836 70.2693C107.662 69.743 107.327 69.2881 107.088 68.7897C106.342 67.2247 105.088 65.8131 104.798 64.0703C104.689 64.7395 104.539 65.4088 104.342 66.0675C104.173 66.6391 103.941 67.2631 103.66 67.866C103.188 68.8751 102.562 69.8476 101.722 70.5917C101.295 70.9699 100.813 71.2836 100.279 71.4875C99.8821 71.6409 99.4586 71.721 99.0316 71.721C98.9148 71.721 98.7981 71.7141 98.6831 71.7019C98.101 71.6391 97.5451 71.4178 97.0606 71.0936C96.5587 70.759 96.1421 70.3216 95.7796 69.8423C95.3439 69.255 95.0076 68.605 94.7375 67.927C94.5039 67.3363 94.321 66.728 94.1833 66.1076C93.9271 64.9556 93.8121 63.7688 93.826 62.5907C93.8295 62.3136 93.84 62.0348 93.8556 61.7594C93.2108 61.8187 92.5625 61.8466 91.916 61.8466H91.7974C90.5636 61.8396 89.3297 61.7246 88.1132 61.5154C87.4876 61.4074 86.8654 61.2732 86.2485 61.1164C86.1213 61.0832 86.008 60.9769 85.947 60.8637C85.8808 60.7399 85.8686 60.5918 85.9121 60.4576C85.954 60.3286 86.0463 60.2188 86.1649 60.1561C86.2886 60.0899 86.4193 60.0864 86.5535 60.116C86.557 60.116 86.5605 60.1178 86.564 60.1195H86.5709C86.5709 60.1195 86.5709 60.1212 86.5727 60.1212C86.6737 60.1474 86.7748 60.1718 86.8759 60.1962C87.7298 60.3983 88.596 60.5517 89.4674 60.6563C90.4172 60.7661 91.3705 60.8149 92.3255 60.7992C92.8675 60.787 93.4078 60.7521 93.9463 60.6981C94.0125 60.1265 94.1083 59.5583 94.2355 58.9954C94.4952 57.8522 94.8769 56.7246 95.4294 55.6877C95.9905 54.635 96.7347 53.6382 97.742 52.9759C98.2108 52.6675 98.7528 52.4322 99.3139 52.3573C99.6695 52.3085 100.023 52.3102 100.377 52.3695C100.698 52.4235 101.008 52.5281 101.301 52.6675C101.604 52.8121 101.883 53.0003 102.142 53.2112C102.369 53.3942 102.582 53.6033 102.77 53.8264C102.963 54.0565 103.132 54.3039 103.291 54.5601C103.436 54.7919 103.573 55.0289 103.699 55.2729C103.786 55.4419 103.866 55.6162 103.943 55.7905C104.098 55.6058 104.248 55.4175 104.391 55.2241C104.682 54.8267 104.95 54.412 105.192 53.9815C105.435 53.5423 105.651 53.0875 105.839 52.6222L105.844 52.6082C105.844 52.6082 105.851 52.5891 105.855 52.5803C106.036 52.1168 106.193 51.6253 106.32 51.1269C106.435 50.6703 106.534 50.1387 106.599 49.6037C106.665 49.0251 106.693 48.443 106.684 47.861C106.67 47.2423 106.616 46.6253 106.522 46.0136C106.416 45.3496 106.268 44.6944 106.078 44.0478C105.87 43.3594 105.619 42.685 105.328 42.0262C104.999 41.2977 104.624 40.5902 104.208 39.907L104.194 39.8861C104.194 39.8861 104.19 39.8791 104.187 39.8739C103.744 39.1646 103.253 38.4745 102.725 37.8157C102.146 37.1047 101.524 36.4302 100.863 35.7959C100.143 35.1127 99.3837 34.4731 98.5855 33.8823C97.742 33.2654 96.8619 32.7007 95.9504 32.1918C94.9971 31.662 93.9776 31.1828 92.932 30.7628L92.9163 30.7558C92.9041 30.7506 92.8919 30.7471 92.8797 30.7419C92.6741 30.6617 92.451 30.5763 92.2262 30.4944C91.6249 30.2731 91.0132 30.0848 90.4067 29.8775C87.5434 28.8945 83.1499 27.943 78.5473 27.95H78.5455C77.7317 27.9395 76.916 27.9291 76.1126 28.0511C73.8819 28.4414 71.6651 28.9242 69.532 29.6945C66.6669 30.721 64.0057 32.2528 61.5188 33.9921C59.6767 35.3096 57.9095 36.7335 56.3533 38.3839C55.0026 39.8547 53.8942 41.533 52.9078 43.2653C51.6478 45.6773 50.5342 48.1659 49.865 50.8167C49.3091 52.7825 48.8786 54.7989 48.8193 56.8483C48.6991 59.2847 48.9413 61.7281 49.2271 64.147C49.6506 66.3986 50.0846 68.6782 50.9159 70.82C51.7646 72.8974 52.7702 74.9538 53.8106 76.9632C54.3909 78.035 54.8998 79.1783 55.6265 80.156C56.4474 80.501 57.3728 80.5202 58.2232 80.7851C59.1399 81.0361 60.0497 81.3166 60.9907 81.4613C62.8363 81.822 64.7691 81.7732 66.5658 82.3571C66.6896 81.416 66.7924 80.4749 66.9632 79.539C67.0242 79.1434 67.9443 80.0723 67.8154 80.7938C67.7683 81.1005 67.7352 81.409 67.7003 81.7175C67.838 81.89 67.9757 82.0625 68.1117 82.2333C69.2235 83.6728 70.4504 85.0723 71.6791 86.4247C73.2441 87.9635 74.7428 89.5703 76.1946 91.219C76.6808 91.7958 77.1548 92.3797 77.6254 92.9652C78.6832 91.8516 79.64 90.6474 80.7327 89.5599C81.9631 88.2755 83.2405 87.0398 84.4552 85.7398C85.1296 84.9956 85.7832 84.2236 86.5221 83.5439C86.5709 83.5021 86.6232 83.4533 86.679 83.401C85.7135 82.7213 84.8369 81.9092 84.0195 81.0605C83.7895 80.7903 83.5559 80.5324 83.3189 80.2658C83.0784 80.0723 83.0418 79.6244 83.3207 79.4257C83.7755 79.0981 84.091 79.553 84.3646 79.8701C84.7027 80.2448 85.0251 80.6352 85.4033 80.9733C86.3409 81.8482 87.3116 82.683 88.4583 83.2772C88.9724 83.4933 89.4674 83.7443 89.9553 84.0092C90.9818 84.4623 92.0501 84.7568 93.1585 85.0008C94.2129 85.2274 95.33 85.4853 96.4227 85.3703C96.9333 85.3267 97.4353 85.2204 97.9407 85.1402C98.2195 85.0967 98.4844 84.9555 98.7685 84.9538C99.056 83.8541 99.5963 82.8084 100.117 81.7035C100.729 80.3982 101.581 77.8085 103.12 77.4164C103.629 77.3885 104.047 77.6115 104.418 77.9235C104.434 77.9026 104.45 77.8817 104.469 77.8607C105.091 76.9458 105.551 75.8949 105.706 74.7865ZM101.039 59.5461L101.034 59.5531C99.9169 60.2049 98.7127 60.7051 97.4719 61.071C96.9246 61.2331 96.3042 61.3847 95.6768 61.5032C95.4224 61.552 95.1644 61.5921 94.9082 61.6305C94.8908 61.8884 94.8769 62.1481 94.8699 62.4077C94.8612 63.0979 94.8908 63.7845 94.9658 64.4694C95.0372 65.0672 95.1418 65.658 95.2882 66.2418C95.4032 66.6897 95.5444 67.1341 95.7151 67.5628C95.8493 67.8939 96.001 68.2181 96.1735 68.5318C96.3059 68.7636 96.4489 68.9884 96.6057 69.2045L96.6109 69.2115C96.7416 69.3857 96.8845 69.553 97.0362 69.7134C97.1477 69.8266 97.2645 69.9347 97.3865 70.0358C97.4997 70.1247 97.6148 70.2083 97.7367 70.285C97.8448 70.3495 97.9581 70.4087 98.0731 70.4628C98.1689 70.5028 98.2683 70.5412 98.3676 70.5725C98.4687 70.6004 98.5715 70.6248 98.6761 70.644C98.7772 70.6579 98.8783 70.6684 98.9793 70.6719C99.0891 70.6719 99.1972 70.6684 99.307 70.6562C99.4115 70.6405 99.5161 70.6213 99.6189 70.5987C99.7409 70.5656 99.8594 70.5255 99.9779 70.4802C100.1 70.4279 100.218 70.3704 100.335 70.3059C100.473 70.2257 100.607 70.1386 100.736 70.0445C100.884 69.9312 101.025 69.811 101.163 69.682C101.355 69.4955 101.534 69.2951 101.703 69.086C101.869 68.8786 102.057 68.6067 102.231 68.3226C102.449 67.9619 102.643 67.5872 102.813 67.2021C103.024 66.7193 103.206 66.2226 103.357 65.7155C103.54 65.0951 103.68 64.4624 103.784 63.8229C103.897 63.0979 103.962 62.3572 103.979 61.6165C103.981 61.5085 103.983 61.3987 103.983 61.2906V61.2139C103.979 60.6354 103.946 60.0568 103.883 59.4799C103.819 58.9205 103.709 58.3035 103.561 57.6918C102.792 58.4011 101.944 59.0198 101.039 59.5461ZM103.206 56.5834H103.202C103.197 56.5695 103.192 56.5538 103.185 56.5399L103.164 56.4876C103.029 56.16 102.874 55.8131 102.688 55.4785C102.589 55.306 102.482 55.1387 102.366 54.9784C102.196 54.757 102.017 54.5427 101.825 54.3405C101.705 54.2185 101.58 54.1018 101.449 53.992C101.337 53.9048 101.222 53.8229 101.104 53.748C100.992 53.6818 100.877 53.6208 100.759 53.5667C100.665 53.5267 100.567 53.4918 100.469 53.4604C100.368 53.4325 100.267 53.4081 100.164 53.3907C100.058 53.375 99.9535 53.3663 99.8472 53.3628C99.7462 53.3628 99.6451 53.3681 99.5457 53.3768C99.4394 53.3925 99.3331 53.4116 99.2285 53.436C99.1066 53.4691 98.988 53.5075 98.8713 53.5545C98.7528 53.6051 98.6378 53.6608 98.5262 53.7218C98.3833 53.8038 98.2439 53.8944 98.1097 53.992C97.9476 54.1157 97.7925 54.2499 97.6461 54.3911C97.4806 54.5566 97.322 54.7326 97.1738 54.9139C96.9821 55.1561 96.8061 55.4106 96.6423 55.672C96.4245 56.0292 96.231 56.4005 96.0585 56.7821C95.8354 57.2858 95.6489 57.8016 95.4903 58.3262C95.3126 58.9397 95.1697 59.574 95.0668 60.2154C95.0494 60.3286 95.0355 60.4437 95.0198 60.5587C95.7012 60.4471 96.4297 60.2885 97.1512 60.0812H97.1564C97.1686 60.0759 97.1791 60.0724 97.1895 60.069L97.2104 60.062C97.8518 59.8685 98.5018 59.6315 99.1362 59.3527C99.727 59.086 100.3 58.7863 100.851 58.4465C101.323 58.1519 101.778 57.8313 102.214 57.4827C102.561 57.2004 102.89 56.8989 103.206 56.5834ZM100.011 88.9708C100.147 88.8279 100.292 88.6937 100.424 88.5491C100.499 88.4428 100.602 88.2999 100.719 88.1883C100.724 88.0106 100.731 87.8328 100.738 87.6568C100.781 87.127 100.78 86.592 100.83 86.0639C100.943 85.2762 101.44 84.6296 101.799 83.9412C102.611 82.5261 103.469 81.1302 104.366 79.7691C104.476 79.5983 104.614 79.4397 104.765 79.3003C104.701 79.2584 104.638 79.2166 104.574 79.1696C104.317 78.9674 104.087 78.7234 103.786 78.5857C103.613 78.5143 103.395 78.354 103.212 78.4481C102.519 78.9465 102.181 79.7743 101.782 80.4993C101.275 81.6164 100.814 82.6986 100.279 83.8088C99.9466 84.5442 99.5405 85.2779 99.4987 86.1005C99.4691 87.0834 99.6207 88.0472 100.009 88.9708H100.011ZM106.7 80.081H106.698C105.675 78.7461 105.145 80.3546 104.615 81.1598C103.906 82.3989 103.169 83.6223 102.446 84.8544C102.231 85.2204 102.003 85.5881 101.862 85.9907C101.75 86.4072 101.804 86.8499 101.768 87.2751C101.763 88.4149 101.59 89.5721 101.782 90.7014C102.13 90.4696 102.486 90.2587 102.881 90.1176C102.899 90.1123 102.916 90.1106 102.934 90.1088C103.01 89.3525 103.108 88.5979 103.251 87.852C103.371 87.0172 103.845 86.1998 104.3 85.4905C104.772 84.6122 105.412 83.8506 106.022 83.0681C106.47 82.3867 107.144 81.5868 107.897 81.7872C107.531 81.1946 107.184 80.5864 106.7 80.081ZM109.413 84.3717C108.822 83.7931 108.331 83.089 107.639 82.6254C107.128 83.0071 106.86 83.6345 106.454 84.119C105.933 84.7272 105.515 85.3999 105.13 86.1005C104.852 86.5937 104.528 87.0642 104.342 87.6028C104.133 88.272 104.07 88.9639 103.969 89.6662C103.838 90.7153 103.629 91.7767 103.781 92.8432C104.316 92.4581 104.732 91.8777 105.29 91.5065C105.302 91.4978 105.316 91.4926 105.33 91.4874C105.333 91.402 105.339 91.327 105.34 91.2678C105.407 90.5898 105.638 89.9485 105.919 89.3333C106.112 88.7965 106.229 88.2162 106.541 87.7317C107.128 86.9597 107.923 86.3654 108.666 85.7467C109.012 85.4278 109.38 85.0984 109.793 84.8597C109.661 84.7046 109.558 84.5111 109.413 84.3734V84.3717ZM110.799 126.336C110.793 126.105 110.787 125.874 110.781 125.642C110.776 125.452 110.231 118.702 110.082 116.4C109.945 114.459 109.856 112.482 109.631 110.537C109.424 108.27 109.052 106.022 108.845 103.755C108.653 101.395 107.981 98.5333 109.938 96.7121C110.943 95.4539 112.268 94.3158 113.054 92.8816C113.685 91.8655 113.793 91.3445 113.289 90.2291C112.968 89.281 112.608 88.3399 112.118 87.4651C111.75 86.6564 111.247 85.8391 110.502 85.3319C109.971 85.5393 109.528 85.921 109.098 86.2835C108.432 86.8098 107.738 87.3361 107.235 88.028C106.921 88.5107 106.83 89.0946 106.64 89.6296C106.302 90.4748 106.083 91.3863 106.037 92.296C107.088 91.022 108.375 89.9502 109.635 88.9063C110.168 88.5613 110.813 88.9011 110.769 89.5512C110.745 89.7411 110.555 89.8945 110.363 89.8596C110.142 89.8317 110.063 89.6278 109.997 89.4605C109.582 89.6923 109.417 90.1942 109.113 90.5428C108.54 91.2312 107.806 91.7662 107.205 92.4354C106.876 92.7578 106.583 93.1238 106.201 93.3835C105.67 93.617 105.452 93.1883 105.367 92.6428C105.042 93.0698 104.694 93.4758 104.199 93.7146C104.063 93.7948 103.922 93.8314 103.782 93.8314C103.303 93.8314 102.86 93.3974 102.789 92.9025C102.726 92.3587 102.798 91.8063 102.824 91.2625C102.827 91.219 102.831 91.1771 102.834 91.1336C102.82 91.1423 102.805 91.1493 102.791 91.158C102.487 91.3218 102.205 91.5588 101.844 91.571C101.811 91.5745 101.78 91.5762 101.749 91.5762C101.158 91.5762 100.893 91.0325 100.825 90.4957C100.76 90.1297 100.727 89.7603 100.712 89.3891C100.536 89.5773 100.365 89.7324 100.262 89.8126C100.152 89.8683 100.049 89.8927 99.9535 89.8927C99.178 89.8927 98.8173 88.2894 98.6918 87.6864C98.521 86.9196 98.5297 86.2068 98.6465 85.5219C97.9006 86.0465 96.9821 86.3009 96.0724 86.3724C95.621 86.9632 95.0912 87.4825 94.5876 88.0628C93.9602 88.7721 93.3659 89.5512 92.9198 90.3947C92.4893 91.2521 92.5608 92.2489 92.6131 93.1796C92.9703 96.6023 93.7197 100.05 94.253 103.458C94.8804 107.036 95.1017 110.663 95.4102 114.276C95.5287 115.696 95.7012 117.109 95.8581 118.526C95.9016 118.878 95.9313 119.23 95.9696 119.584C96.0323 119.669 96.0637 119.769 96.0759 119.877C96.0794 119.901 96.0811 119.924 96.0829 119.948V119.966C96.1108 120.211 96.1439 120.471 96.1822 120.731C96.2903 121.471 96.4349 122.209 96.6144 122.937C96.8671 123.948 97.1913 124.971 97.5834 125.968L97.5991 126.008C97.9319 126.843 98.3397 127.719 98.8068 128.566C99.2024 129.279 99.6381 129.967 100.121 130.626C100.508 131.149 100.923 131.651 101.369 132.121C101.719 132.484 102.087 132.827 102.477 133.146C102.773 133.383 103.082 133.605 103.404 133.807C103.673 133.971 103.95 134.122 104.237 134.251C104.455 134.347 104.685 134.434 104.924 134.509C105.121 134.567 105.321 134.614 105.525 134.65C105.708 134.678 105.889 134.697 106.074 134.704C106.24 134.708 106.405 134.701 106.571 134.687C106.726 134.668 106.881 134.641 107.033 134.607C107.177 134.57 107.318 134.525 107.456 134.472C107.599 134.413 107.738 134.349 107.873 134.275C108.01 134.197 108.144 134.11 108.273 134.018C108.409 133.915 108.538 133.805 108.664 133.688C108.807 133.551 108.939 133.404 109.065 133.251C109.208 133.071 109.34 132.883 109.462 132.691C109.472 132.676 109.483 132.658 109.493 132.641C109.638 132.399 109.767 132.148 109.886 131.891C110.037 131.55 110.166 131.198 110.276 130.842V130.835C110.421 130.353 110.53 129.859 110.612 129.361C110.717 128.693 110.773 128.019 110.795 127.345C110.804 127.01 110.802 126.675 110.795 126.339L110.799 126.336ZM104.091 147.123H104.094C104.805 146.9 105.53 146.721 106.222 146.443C107.097 146.09 107.885 145.562 108.688 145.077C112.681 142.407 114.209 140.797 115.182 135.968C115.8 132.144 115.049 128.223 114.302 124.467C113.93 122.977 113.498 121.485 112.836 120.096C112.331 119.122 111.749 118.193 111.177 117.257C111.212 117.81 111.247 118.362 111.287 118.917C111.376 120.435 111.776 125.703 111.804 126.132C111.841 126.719 111.839 127.308 111.811 127.895C111.783 128.498 111.715 129.098 111.616 129.694C111.405 130.94 111.01 132.17 110.344 133.251C110.339 133.259 110.333 133.266 110.328 133.275C109.668 134.328 108.683 135.227 107.465 135.569C107.043 135.687 106.607 135.746 106.172 135.746C105.938 135.746 105.705 135.729 105.475 135.696C104.884 135.609 104.317 135.429 103.774 135.183C103.683 135.143 103.589 135.098 103.497 135.051C102.329 134.462 101.313 133.599 100.431 132.641C99.6398 131.782 98.9532 130.835 98.345 129.84C97.6601 128.72 97.0832 127.531 96.6022 126.309C96.4035 125.804 96.2206 125.293 96.055 124.776C95.7396 123.786 95.4834 122.775 95.2952 121.754C95.2254 121.37 95.1679 120.985 95.1174 120.598C94.9954 120.386 94.9675 120.074 94.9501 119.825C94.8455 118.824 94.7253 117.824 94.6155 116.825C94.5928 116.63 94.5754 116.433 94.5545 116.238C93.8522 116.705 93.0522 116.991 92.3325 117.463C91.0742 118.354 89.8212 119.317 88.9306 120.591C88.1098 121.949 87.6113 123.47 87.336 125.027V125.023C86.6964 128.089 86.381 131.247 86.1596 134.37C86.1178 134.891 86.0289 135.438 86.1666 135.959C86.4193 137.099 86.7713 138.212 87.153 139.317C87.3883 140.046 87.763 140.711 88.1847 141.348C88.5699 141.909 89.0439 142.409 89.5406 142.873C89.9379 142.904 90.1244 143.34 90.4311 143.549C91.1108 144.134 91.773 144.744 92.4998 145.272C93.0609 145.771 93.7424 146.09 94.4273 146.379C95.7012 146.912 97.0466 147.257 98.4112 147.452C100.302 147.791 102.247 147.651 104.091 147.123ZM90.6141 148.306C89.5127 149.082 88.1638 149.256 86.9282 149.715C87.1112 149.854 87.3046 149.983 87.512 150.096C87.634 150.178 87.763 150.241 87.8954 150.295C87.9529 150.021 88.1133 149.77 88.3677 149.619C89.1537 149.267 90.0599 149.31 90.8999 149.159C92.3133 148.906 93.7162 148.601 95.1331 148.373C95.5583 148.284 95.987 148.2 96.4192 148.136C95.3021 147.848 94.2146 147.452 93.1794 146.959C93.101 146.917 93.0278 146.872 92.9511 146.829C92.796 146.937 92.627 147.031 92.505 147.123C91.9038 147.567 91.2729 147.958 90.6141 148.308V148.306ZM115.42 163.371C116.285 162.733 117.006 162.205 118.047 161.576C120.21 160.157 122.27 158.587 124.3 156.985C125.361 156.065 126.436 155.27 127.477 154.303C128.876 153.031 130.251 151.736 131.666 150.481C133.224 149.129 134.629 147.608 136.21 146.283C137.923 144.915 139.831 143.648 141.945 143.015C143.611 142.468 145.403 142.751 147.1 142.988C147.688 143.05 148.233 143.357 148.819 143.374C148.543 142.273 147.75 141.445 146.79 140.888C146.084 140.37 145.255 140.035 144.396 139.884C143.791 139.779 143.306 139.957 142.749 140.154C142.024 140.304 141.36 140.64 140.661 140.868C139.918 141.079 139.23 141.471 138.467 141.599C138.191 141.635 137.883 141.745 137.611 141.668C137.566 141.684 137.527 141.628 137.557 141.59C137.672 141.407 137.768 141.198 137.928 141.046C138.17 140.821 138.477 140.724 138.777 140.59C139.606 140.115 140.49 139.873 141.375 139.493C141.767 139.326 142.182 139.23 142.59 139.115C143.043 138.95 143.505 138.77 143.996 138.819C144.826 138.836 145.647 139.07 146.394 139.439C145.788 138.779 145.18 138.12 144.603 137.432C144.359 137.155 144.115 136.877 143.861 136.609C143.552 136.323 143.184 135.708 142.653 135.834C142.29 135.858 141.977 136.051 141.651 136.193C140.649 136.599 139.723 137.155 138.772 137.662C138.061 138.031 137.355 138.409 136.63 138.753C136.283 138.967 135.807 139.129 135.581 138.667C135.466 138.416 135.577 138.082 135.84 137.975C135.936 137.935 136.029 137.885 136.123 137.838C136.464 137.667 136.813 137.501 137.156 137.334C138.829 136.501 140.417 135.431 142.219 134.896C143.277 134.622 144.056 135.461 144.742 136.135C144.554 135.921 144.362 135.708 144.166 135.501C143.718 135.037 143.228 134.558 142.721 134.094C142.33 133.737 141.314 132.85 140.992 132.578C140.91 132.51 140.802 132.484 140.699 132.512C139.838 132.735 135.988 133.983 134.16 134.971C131.461 136.433 128.887 138.232 126.196 139.798C122.726 141.837 119.211 143.812 115.666 145.717C114.375 146.429 113.028 147.029 111.694 147.658C110.316 148.331 108.934 148.997 107.55 149.659C109.727 150.267 111.337 152.226 112.521 154.078C113.106 155 113.528 156.036 113.943 157.048C114.258 157.792 114.58 158.536 114.79 159.319C115.189 160.605 115.443 161.999 115.42 163.371ZM97.0205 178.463H97.0257C97.9058 178.406 98.7388 178.041 99.5788 177.79C100.959 177.374 102.193 176.597 103.392 175.814C104.856 174.88 106.339 173.93 107.55 172.674C108.725 171.607 109.751 170.389 110.917 169.314C111.809 168.54 112.711 167.761 113.448 166.834C115.109 164.026 114.282 160.483 113.064 157.655C112.064 155.037 110.598 152.402 108.122 150.922C107.522 150.589 106.869 150.427 106.205 150.29C106.161 150.3 106.121 150.305 106.079 150.305C105.97 150.305 105.87 150.267 105.79 150.206C105.276 150.103 104.762 149.999 104.269 149.821C103.517 149.617 102.761 149.443 101.986 149.363C101.404 149.326 100.818 149.309 100.239 149.225C99.476 149.202 98.6604 149.052 97.8605 149.052C97.6357 149.052 97.4109 149.065 97.1895 149.094C95.459 149.31 93.7458 149.687 92.0327 150.013C91.0062 150.251 89.9397 150.271 88.9149 150.508C88.9149 150.509 88.9149 150.511 88.9132 150.513C89.5911 151.344 90.5444 151.926 91.2049 152.773C92.2174 154.092 93.0156 155.567 93.7999 157.029C94.9083 158.99 95.8825 161.053 96.3774 163.264C96.8235 165.429 97.2854 167.604 97.3167 169.824C97.3499 171.551 97.3255 173.296 96.9333 174.985C96.7416 175.838 96.4924 176.677 96.2502 177.518C96.0132 178.494 96.0689 178.442 97.0205 178.463ZM13.2183 155.945H13.2148C13.3647 158.399 13.9991 160.788 14.6195 163.155C15.0761 164.87 15.5536 166.586 16.2594 168.217C17.9621 171.977 20.9405 175.14 24.4992 177.207C25.4263 177.729 26.4162 178.123 27.4131 178.489C28.586 178.946 29.7675 179.38 30.9892 179.685C32.7407 180.131 34.4799 180.635 36.2663 180.922C38.3489 181.285 40.4576 181.464 42.5663 181.572C43.8263 181.628 45.0846 181.556 46.3411 181.475C47.636 181.421 48.9309 181.45 50.2223 181.337C50.116 181.267 50.0079 181.196 49.8999 181.128C48.0334 179.967 46.1982 178.735 44.5531 177.266C42.0766 175.213 39.4015 173.425 36.8902 171.421C35.0063 170.035 33.3907 168.322 32.054 166.41C31.0119 165.068 29.9348 163.745 29.0286 162.306C28.5145 161.393 28.0823 160.429 27.6466 159.476C26.709 156.919 25.7575 154.329 25.5013 151.6C25.4229 151.107 25.3357 150.616 25.2294 150.128C25.1667 149.851 25.3444 149.565 25.6233 149.502C25.9021 149.439 26.1844 149.619 26.2489 149.898C26.3552 150.363 26.4406 150.837 26.5138 151.309C26.6445 152.276 26.7421 153.251 27.0244 154.188C27.2981 155.333 27.6536 156.456 28.0771 157.552C28.5546 159.059 29.2238 160.5 29.9941 161.881C30.8655 163.235 31.8815 164.486 32.8679 165.755C33.26 166.238 33.6068 166.794 34.0094 167.276C34.5653 167.932 35.1771 168.538 35.7783 169.152C37.7406 170.87 39.8581 172.393 41.9773 173.913C42.9166 174.667 43.8943 175.373 44.818 176.145C45.6562 176.79 46.4178 177.529 47.2909 178.128C48.293 178.895 49.3875 179.558 50.4506 180.239C51.9894 181.285 53.5265 182.316 55.1769 183.182C56.0518 183.691 57.0434 183.921 57.9723 184.303C59.4745 184.937 61.05 185.518 62.5871 186.079C64.3525 186.684 66.1702 187.112 68.0123 187.403C69.41 187.611 70.8582 187.862 72.2838 187.735C74.1817 187.647 76.0604 187.32 77.8693 186.731C79.3821 186.26 80.9244 185.77 82.3465 185.059C84.0213 184.383 85.5566 183.419 87.1948 182.672C89.5667 181.537 91.9787 180.474 94.1571 178.984C94.2826 178.888 94.7375 178.651 95.1418 178.535C95.0425 178.029 95.1906 177.348 95.4625 176.527C95.7779 175.446 96.0532 174.354 96.1787 173.233C96.4558 170.415 96.2484 167.56 95.6298 164.8C95.3649 163.136 94.849 161.53 94.1676 159.993C94.1641 159.986 94.1606 159.978 94.1571 159.971C94.1606 159.978 94.1641 159.985 94.1659 159.992C93.1673 157.921 92.0501 155.887 90.7988 153.958C90.1662 152.977 89.1903 152.318 88.3904 151.487C83.7912 150.715 82.4057 143.174 81.0394 139.441C79.6086 134.5 78.5211 129.42 76.9317 124.521C75.7031 121.557 74.1834 118.636 72.2507 116.065C70.4208 113.772 68.1221 111.851 65.8408 110.018C65.271 109.633 64.6837 109.187 63.9918 109.068C63.6851 109.098 63.3574 108.931 63.3278 108.589C63.3801 107.648 64.6157 108.098 65.1507 108.375C68.0419 110.133 70.6143 112.594 72.8398 115.137C74.9764 117.838 76.5588 120.931 77.8937 124.112C80.2378 131.358 81.5483 138.93 84.3977 146.025C84.8857 147.019 85.3928 148.069 86.1126 148.922C87.0258 148.495 88.0348 148.352 88.9777 148C90.0756 147.538 91.1021 146.914 92.1355 146.311C91.3548 145.762 90.6385 145.117 89.9275 144.478C89.7079 144.387 89.5022 144.171 89.321 144.019C89.0526 143.815 88.7807 143.617 88.5489 143.369C87.214 142.104 86.3374 140.445 85.8442 138.678C85.4782 137.4 84.9188 136.088 85.0878 134.739C85.0965 134.614 85.107 134.486 85.1175 134.361C84.9467 134.098 84.8194 133.7 84.7218 133.547C84.1851 132.404 83.6483 131.257 83.0662 130.135C82.756 129.511 82.4197 128.896 82.1478 128.242C81.8306 127.639 82.7264 127.195 83.0157 127.806C83.6988 129.591 84.6225 131.287 85.2168 133.104C85.4329 130.471 85.7135 127.838 86.238 125.248C86.3949 124.399 86.5883 123.538 86.855 122.702C86.8358 122.674 86.8201 122.646 86.8079 122.615C86.6877 122.306 86.9038 122.005 86.9508 121.7C87.2123 120.518 87.6096 119.373 87.8623 118.19C88.0035 117.468 88.1865 116.763 88.2823 116.004C88.4444 114.737 88.4322 113.443 88.4984 112.167C88.5071 112.071 88.5106 111.973 88.5228 111.876C88.3625 111.865 88.2056 111.794 88.1045 111.661C87.9128 111.388 87.6898 111.14 87.4789 110.881C87.1216 110.403 86.7225 109.962 86.3147 109.528C85.9156 109.058 85.5619 108.552 85.1419 108.099C84.7602 107.688 84.4134 107.228 84.0126 106.831C83.5594 107.753 83.1412 108.694 82.6602 109.602C82.2315 110.426 81.7034 111.194 81.2572 112.012C80.4225 113.129 78.7825 116.728 77.5748 117.003C77.4824 117.017 77.3936 117.024 77.3064 117.024C75.9959 117.024 75.2622 115.532 74.5198 114.614C73.922 113.918 73.4096 113.159 72.9234 112.383C71.6128 110.52 70.3232 108.638 68.8854 106.869C67.7439 105.524 66.6024 104.178 65.4278 102.862C62.8607 99.992 60.3111 97.1077 57.7736 94.2113C56.0849 92.2699 54.3264 90.3859 52.7126 88.38C52.4791 88.1151 52.2961 87.8886 52.1585 87.6847C51.9877 87.7056 51.8082 87.7073 51.6426 87.7422C51.498 87.7735 51.4579 87.7805 51.2941 87.8502C50.1177 88.5142 49.0285 89.3194 47.8922 90.0496C44.5879 92.0956 41.6009 94.5912 38.6556 97.1199C37.779 97.8955 36.8292 98.5821 35.9508 99.3559C34.7344 100.447 33.5528 101.578 32.3956 102.733C31.3465 103.894 30.3304 105.086 29.2743 106.242C27.8418 108 26.5713 109.91 25.2834 111.783C24.0705 113.547 22.868 115.32 21.7439 117.144C19.9942 120.131 18.5163 123.268 17.1848 126.461C16.0276 129.69 15.0866 133.01 14.4557 136.382C13.7865 140.178 13.1015 143.99 12.9569 147.848C12.8053 150.549 13.0475 153.251 13.2183 155.945Z" fill="black"/>
<path d="M186.606 58.3026C183.016 69.3376 178.76 82.3631 175.928 90.8364C182.569 94.8712 195.859 102.51 207.677 109.246C213.791 112.731 219.506 115.971 223.692 118.34C225.786 119.525 227.497 120.492 228.684 121.162C228.999 121.34 229.277 121.497 229.516 121.632L260.588 38.0994L193.238 37.8547L193.161 38.0903L192.772 39.295C192.434 40.341 191.944 41.8541 191.339 43.7224C190.128 47.4592 188.455 52.6173 186.606 58.3026Z" fill="white" stroke="#2F3A43" stroke-width="2"/>
<path d="M236.77 53.5437C234.54 53.3788 232.88 51.2585 233.061 48.8079C233.242 46.3574 235.197 44.5045 237.427 44.6694C239.656 44.8343 241.317 46.9546 241.136 49.4052C240.955 51.8557 239 53.7086 236.77 53.5437Z" fill="#0179D0"/>
<path opacity="0.6" d="M220.588 51.9795C218.544 51.8282 217.021 49.8833 217.187 47.6352C217.354 45.3872 219.146 43.6874 221.19 43.8386C223.235 43.9898 224.757 45.9348 224.591 48.1828C224.425 50.4309 222.633 52.1307 220.588 51.9795Z" fill="#0179D0"/>
<path opacity="0.6" d="M204.426 50.1684C202.688 50.0399 201.394 48.3872 201.536 46.4771C201.677 44.5669 203.2 43.1226 204.937 43.2511C206.675 43.3796 207.968 45.0322 207.827 46.9424C207.686 48.8526 206.163 50.2969 204.426 50.1684Z" fill="#0179D0"/>
<path d="M233.062 48.8125L224.928 48.213" stroke="#0179D0" stroke-width="0.74" stroke-miterlimit="10"/>
<path d="M216.854 47.6153L208.721 47.014" stroke="#0179D0" stroke-width="0.74" stroke-miterlimit="10"/>
<path d="M197.803 62.4722C199.117 58.5894 200.089 55.7225 200.089 55.7225L235.286 59.7152L232.358 67.5872L197.803 62.4705V62.4722Z" fill="#EAF5FF"/>
<path d="M194.547 72.5157C195.861 68.6328 196.743 66.1494 196.743 66.1494L231.528 71.2417L228.078 80.3337L194.547 72.5157Z" fill="#EAF5FF"/>
<path d="M191.525 81.8291C192.839 77.9462 193.463 76.1233 193.463 76.1233L227.076 83.9866L223.979 92.9653L191.525 81.8291Z" fill="#EAF5FF"/>
<path d="M187.993 90.7136C189.307 86.8307 189.931 85.0078 189.931 85.0078L222.198 96.564L219.275 105.891L187.994 90.7119L187.993 90.7136Z" fill="#0179D0"/>
<path d="M67.3068 81.2678C67.5595 81.2678 67.7808 81.0848 67.8226 80.8287C67.9098 80.2901 67.9307 79.7011 67.9516 79.1295C67.983 78.2476 68.0161 77.3344 68.2984 76.7733C68.762 75.8513 69.6386 75.1595 70.6441 74.9225C71.106 74.8127 71.5922 74.7952 72.1063 74.7743C72.3085 74.7656 72.5124 74.7586 72.7145 74.7447C73.3559 74.7029 74.2952 74.5826 75.0394 74.0354C76.9669 72.6168 75.8184 70.7276 75.0585 69.4763C74.9034 69.2219 74.7588 68.9814 74.642 68.7601C73.9467 67.4391 74.337 65.3007 75.5291 63.8891C76.0502 63.2721 77.1481 62.3101 78.6399 62.7999C80.4959 63.4081 81.9877 64.9574 82.5332 66.8396C82.5768 66.9877 82.6134 67.1393 82.6517 67.2892C82.7563 67.704 82.8643 68.1327 83.0735 68.544C83.4499 69.2899 84.1121 69.7744 84.8005 69.8092C85.8009 69.8615 86.5834 68.9936 86.7611 68.1257C86.9441 67.2334 86.6252 66.3708 86.369 65.7991C86.2871 65.6161 86.2 65.4349 86.1111 65.2536C85.9002 64.818 85.6998 64.4067 85.5917 63.978C85.2868 62.7702 85.651 61.7925 86.6757 61.071C86.911 60.9055 86.9685 60.5778 86.803 60.3426C86.6374 60.1073 86.3098 60.0498 86.0745 60.2153C84.6995 61.1826 84.1679 62.6099 84.5775 64.2324C84.7117 64.7657 84.9452 65.2449 85.17 65.7085C85.2537 65.8793 85.3356 66.0518 85.414 66.2244C85.7259 66.9232 85.8288 67.4617 85.7364 67.9148C85.6493 68.3418 85.2711 68.7845 84.8528 68.7636C84.4764 68.7444 84.1609 68.3784 84.0058 68.0717C83.849 67.7632 83.7601 67.4077 83.666 67.033C83.6242 66.8709 83.5841 66.7088 83.537 66.5485C82.8974 64.337 81.146 62.521 78.964 61.8047C77.4496 61.3081 75.9055 61.8204 74.7292 63.2129C73.2583 64.9539 72.8208 67.5489 73.7149 69.2463C73.8473 69.4973 74.0007 69.75 74.1645 70.0183C75.0429 71.4631 75.4995 72.3972 74.4189 73.1919C74.0146 73.4882 73.4674 73.645 72.6448 73.699C72.4531 73.7112 72.2597 73.72 72.0662 73.7269C71.5242 73.7478 70.9631 73.7705 70.4036 73.9029C69.1035 74.2114 67.9673 75.1072 67.366 76.301C66.9809 77.066 66.9443 78.096 66.9077 79.0894C66.8885 79.6279 66.8693 80.1856 66.7926 80.6596C66.7473 80.9454 66.9408 81.2138 67.2248 81.2591C67.2527 81.2643 67.2806 81.2661 67.3085 81.2661L67.3068 81.2678Z" fill="black"/>
<path d="M79.8544 72.0731C79.9328 72.0731 80.013 72.0714 80.0931 72.0679C80.3807 72.0539 80.6055 71.8099 80.5916 71.5224C80.5776 71.2348 80.3406 71.0083 80.0461 71.024C79.1364 71.0658 78.3939 70.8079 77.8363 70.2589C76.8795 69.3178 76.6634 67.7702 76.6826 67.0836C76.7087 66.1739 77.3919 65.13 78.3295 65.0847C78.8471 65.0603 79.3838 65.3321 79.7411 65.7957C79.9816 66.1077 80.1437 66.505 80.2151 66.9477C80.128 66.9564 80.0408 66.9721 79.952 66.9982C79.5023 67.1272 79.1695 67.4966 79.1259 67.9149C79.0544 68.6015 80.5445 69.7657 80.7135 69.8947C80.9418 70.0707 81.2712 70.0271 81.4472 69.7988C81.6233 69.5705 81.5797 69.2411 81.3514 69.0651C81.0865 68.8629 80.4853 68.3053 80.243 68.002C80.3667 67.9672 80.5462 67.9881 80.7205 68.009L81.3026 68.077V67.4914C81.3061 66.6043 81.0447 65.7748 80.5689 65.1579C80.006 64.4276 79.1294 64.0007 78.2789 64.039C77.0468 64.0983 75.6874 65.2676 75.6369 67.0522C75.6108 67.9602 75.8913 69.8128 77.1026 71.0031C77.8258 71.7141 78.7495 72.0731 79.8544 72.0731Z" fill="black"/>
</svg>
