<?xml version="1.0" encoding="UTF-8"?><svg id="uuid-d965f082-638c-4d06-8251-97ee9ae6fab5" xmlns="http://www.w3.org/2000/svg" viewBox="0 0 486 364"><defs><style>.uuid-91c639d5-2e95-443f-a16a-c1d7dbc1858e{fill:#0179d0;}.uuid-1d3b00af-5812-4127-b1d3-bad7342dc82d{fill:#eaf5ff;}.uuid-f52820a0-af25-4e32-8ebc-d5dbd364ec70{fill:#fff;}.uuid-03ca21c1-5b74-40a3-bbed-08623982e270{fill:#686889;}.uuid-ccbff35c-76f0-4a4c-9eda-ccc42fcaf58a{fill:#9e616a;}.uuid-5cc57c9a-6b2c-4a35-ab0c-d1e8b9a4f45a{fill:#adddff;}.uuid-c2ca106f-8958-4f5c-a890-a85a8b5d25d0{fill:#3f3d56;}.uuid-d29f448c-5426-47cb-ab33-da4ef2edc884{fill:#6f479f;}.uuid-10c12489-3b0f-4ad9-a4d7-92446f06dc80{opacity:.6;}</style></defs><path class="uuid-c2ca106f-8958-4f5c-a890-a85a8b5d25d0" d="m214.97,210.26c-2.35.82,4.85,17.44,5.38,19.29,3.44,11.79,14.53,37.56,16.21,32.65,5.09-8.59,49.71-17.65,49.71-17.65,0,0-26.56-32.21-37.27-46.62-10.91,4.32-25.71,3.56-34.03,12.32Z"/><path class="uuid-c2ca106f-8958-4f5c-a890-a85a8b5d25d0" d="m134.74,46.21c.88-.62,1.38-.26,1.47.32,5.41.18,11.91,1.32,19.68,3.65,20.24,4.53,37.56,32.71,17.06,47.35-8.03,7.65-17.09,6.12-27.26,4.68-.59-1.79,2.56,12.06-.18,14.12-3.62,2.76-13.76-5.65-19.65-5.35-2.97,3.76,7.41,8.47,1.41,12.76-3.74,2.68-10.94,2.18-11.97,4.38-.56,5.44-1.26,10.82-1.26,10.82,0,0-7.79-2.03-18.68-2.82-7.53-9.47-12.21-23.59-12.74-36.27-1.41-32.32,26.03-53.24,52.12-53.65Z"/><path class="uuid-ccbff35c-76f0-4a4c-9eda-ccc42fcaf58a" d="m183.5,251.21c-2.47-.38-1.62,2.21.44,1.88,6.74,5.15,11,12.09,11,21.18.06,8.35,32.44-25.79,39.12-29,8.47-10.21,25.5,3.38,16.94-7.82-3.06-1.5-3.88-5.82-5.44-9.12-2.65-1.53-5.03-6.21-9.32-5.41-18.56,7.5-34.32,20.38-52.74,28.29Z"/><path class="uuid-ccbff35c-76f0-4a4c-9eda-ccc42fcaf58a" d="m115.24,136.68c.32,5.32,8,9.09,10.79,13.85,2.35,2.56,3.91,7.06,7.59,6.44,3.85-6.09,10.35-11.21,14.35-16.88,4.24,1.76,5.26,3.09,14,4.41,4,.88-8.09,4.38-5.09,12.91,4.15,19.18,2.91,40.71,10.26,59.09,2.47,9.32,18.5,17.09,20.71,2.85,2.97-14.71-1.35-33.15-2.32-49.53-.35-5.88,5.97-10.03,7.71-14.06,1.15-12.03-8.41-12.06-11.18-20.91-.65-2.29-6.71-.65-3.53-3.53,3.15-3.56-.82-10.82,4.53-11.03.74-.41,1.24-1.82.91-2.59-1.68-4-3.82-7.74-6.26-11.26-1.97-2.65,1.74-10.18-1.62-10.59-7,8.38-19.97,7.38-29.76,5.71-.82.03-2.38,3.88-.65,8.44,3.29,8.68-4.21,7.79-4.85.79-.35-3.91-6.65-7.71-11.41-5.68-1.62.68-2.41,4.09-3.65,4.85-2.44,1.47,4.29,12.32,2.32,12.97-12.47,4.09-12.85.65-12.85,13.73Z"/><path class="uuid-d29f448c-5426-47cb-ab33-da4ef2edc884" d="m276.35,254.97c-.23.06-.44.12-.68.18,1.09-.18,2.18-.32,3.24-.56,1.21-.24,2.44-.32,3.68-.53.47-.06.97-.18,1.35-.47.26-.21.44-.53.44-.85,0-.15.03-.32.03-.47-.41.76-1.18,1.24-2.62,1.26-1.88.29-3.65.97-5.44,1.44Z"/><path class="uuid-d29f448c-5426-47cb-ab33-da4ef2edc884" d="m265.65,257.38l.09-.03c1.32-.35,2.94-.06,4-.97-1.12.24-2.26.5-3.38.79-.21.06-.44.12-.71.21Z"/><path class="uuid-d29f448c-5426-47cb-ab33-da4ef2edc884" d="m247.94,231.18c.56,1,1.09,2,1.59,3.03.29.65.62,1.26.85,1.91.03.09.09.18.15.24-.35-.79-.47-1.71-.91-2.44-.47-.94-1.06-1.85-1.68-2.74Z"/><path class="uuid-d29f448c-5426-47cb-ab33-da4ef2edc884" d="m250.03,261.73c.32.06.74-.06,1.03-.09,1-.21,2.03-.47,3.03-.71,1.97-.47,3.91-.94,5.88-1.35.23-.06.41-.24.5-.44-1.24.44-2.5.85-3.8,1.15-2.18.5-4.44.91-6.65,1.44Z"/><path class="uuid-03ca21c1-5b74-40a3-bbed-08623982e270" d="m390.56,233.5c3.97.03,10.62,0,10.62,0l64.59-175.91-8.27-5.12s-44.88,121.68-66.94,181.03Z"/><path class="uuid-03ca21c1-5b74-40a3-bbed-08623982e270" d="m284.27,165.91c19.82,13.15,87.5,56.68,88.38,58-1.27,12.88-7.77,14.59-22.88,16.5,2.26,8.15,17.23,4.47,24.26,1.44,5.15-2.21,6.09-10.09,5.71-13.94,5.18,3.38,9.82,5.59,9.82,5.59l4.77-12.65-107.74-62s-1.97,6.32-2.32,7.06Z"/><path class="uuid-c2ca106f-8958-4f5c-a890-a85a8b5d25d0" d="m287.47,220.41c12.79,15.47,34.5,32.06,49.23,47.71,9.68-2,28.68-6.94,31.88-6.85-3.21-3.88-17.79-19.18-18.79-20.88,4.62-2.41,22.03,1.82,23.12-16.68-9.85-7.97-13.53-9.68-15.09-9.18-2.94.94,3,11.26-23.68,12.85-10.59-8.06-12.79-12.71-17.18-12.44-9.65,1.26-19.5,3.71-29.5,5.47Z"/><path class="uuid-03ca21c1-5b74-40a3-bbed-08623982e270" d="m237.35,260.71c.03,4.38-.38,4.85-.38,4.85l46.94-12s1.85-5.32,1.38-8.68c-11.03,3.79-40.59,10-47.94,15.82Z"/><path class="uuid-5cc57c9a-6b2c-4a35-ab0c-d1e8b9a4f45a" d="m287.06,158.65c24.94,15.26,107.82,62,107.82,62l62.32-167.59-135.53-.5-.3,1s-23.32,72.21-34.32,105.09Z"/><path class="uuid-03ca21c1-5b74-40a3-bbed-08623982e270" d="m247.71,201.91c8.47,9.18,25.21,32.32,32.06,39.94,1.44,3.56-5.06,3.76-7.12,3.76-9.15-8.74-27.44-34.76-31.09-39.97-.35-.53-.24-1.24.29-1.62,1.29-.94,3.79-2.44,5.85-2.12Z"/><path class="uuid-03ca21c1-5b74-40a3-bbed-08623982e270" d="m221.06,210.12c5.35.5,15.26-8.5,17.53-.79,9.71,10.59,17.21,22.88,25.44,34.59,1.68,1.35,2.06,2.71,1.38,3.5-1.29,1.53-5.76,1.88-7.41,2.38-4.97,2.76-11.44,3.82-15.97,6.47-2.35.65-8.68-10.15-7.97-11.03,8.88-10.94,27.59,5.82,15.59-11.32-2.79-4.32-5.53-9.5-10.47-11.62-4.62-.35-9.97,2.56-13.41,4.38-1.24-2.53-9.88-16.71-4.71-16.56Z"/><path class="uuid-5cc57c9a-6b2c-4a35-ab0c-d1e8b9a4f45a" d="m22.56,244.18c-3.82,46.82,15.38,64.88,64.56,62.15,11.53,3.44,23.15,11.35,36.41,10.38,14.15-1.88,27.41-8.21,39.24-15.94,11.65,2.56,22.38-13,30.62-19.79,3.18-6.62-.62-15.91-4.53-22.12-10-13.74-28.65-6.5-40.88-5.62-6.32-3.26,9.41-3.32,9.44-7.35,3.38,1.06,7.44,4.06,11.79,3.47,31.09-.65,32.94-31.71,20.21-52.24-3.29,2.62.79,14.18-.74,19.71-.21,14.41-15.65,13.68-20.44,2.41-12.79-18.06-1.24-43.71-17.12-59.82-3.5-6.94-6.82-13.91-6.82-13.91,0,0-5.35,4.35-12.24,12.76-6.03-7.68-11.47-14.56-16.79-19.71-3.03.41-12.26-1.09-19.94-2.41-2.21,2-4.5,3.97-5.94,9.32-34.32,20.94-63.35,56.38-66.82,98.71Z"/><path class="uuid-1d3b00af-5812-4127-b1d3-bad7342dc82d" d="m161.21,103.35c-2.15,8.97,7.38,24.41,13.74,10.71,8.82-17.35-9.94-40.26-13.74-10.71Z"/><path class="uuid-1d3b00af-5812-4127-b1d3-bad7342dc82d" d="m176.62,95.47c1.06,4.15.47,18.21,7.15,18.38,4.59-6.74,2.53-25.15-2.29-24.88-1.41.06-3.09,2.79-4.85,6.5Z"/><path d="m381.09,228.41s.03.06.06.09c-.03-.03-.03-.06-.06-.09Z"/><path d="m285.56,253.18c0-.41-.35-.76-.76-.76s-.77.35-.77.76.35.76.77.76.76-.32.76-.76Z"/><path d="m231.03,247.32l-.06.06s.03-.03.06-.06Z"/><path d="m214.15,209.74c.91-2.82,2.88-3.29,5.38-4.21,2.76-1.03,5.53-2.03,8.38-2.82,2.76-.76,5.53-1.5,8.26-2.35,2.53-.76,5.03-1.74,7.59-2.41,1.32-.35,2.62-.94,4.03-.74.56.06,1.15.26,1.56.68.03.03.06.03.09.06.41.09.65.44.94.71.56.56,1.12,1.15,1.68,1.71,1.26,1.35,2.5,2.79,3.68,4.29,2.59,3.03,4.94,6.24,7.5,9.32,5.06,6.09,10,12.24,14.79,18.56,1.38,1.76,2.65,3.62,4.03,5.38.91,1.18,1.79,2.35,2.62,3.62.5.79,1.12,1.56,1.47,2.44.62,1.53.38,3.21.18,4.79-.12,1-.24,2-.38,2.97-.09.35-.12.74-.24,1.12.03.03.03.09.06.12.12.47-.15.94-.62,1.09-.06.03-.15.03-.21.06-2.85.74-5.74,1.5-8.59,2.24-3.21.82-6.38,1.68-9.59,2.5-3.35.88-6.68,1.74-10.03,2.62-3.5.91-6.97,1.82-10.47,2.7-2.82.74-5.65,1.44-8.44,2.21-.06.03-.15.03-.24.03-.18,0-.32-.06-.47-.15-.06.06-.15.09-.24.12-.06.06-.15.12-.21.15-.12.06-.24.09-.35.09s-.21-.03-.32-.06c-.24-.09-.38-.23-.47-.44-.06-.12-.12-.24-.18-.32-.82-1.53-1.62-3.09-2.44-4.62-.91-1.76-1.85-3.5-2.71-5.29-.44-.88-.85-1.79-1.29-2.71-.21-.44-.41-.91-.59-1.35-.12-.26-.21-.5-.29-.76-.06-.12-.09-.24-.12-.35-.03-.12-.06-.26-.03-.38.06-.24.32-.35.56-.24h.03c.21.12.32.32.47.53.15.21.29.41.41.59.26.41.53.79.76,1.21,1.03,1.74,2,3.47,2.94,5.24l.03.03.03.03s.03.03.03.06c0,0,.03.03.03.06,0,0,0,.03.03.03,0,0,.03.03.03.06,0,0,0,.03.03.03v.03s.03.03.03.06c0,0,0,.03.03.03,0,.03.03.03.03.06.53,1,1.09,2.03,1.62,3.03.29.53.56,1.09.85,1.62.06-.74.21-1.44.47-2.12.09-.27.26-.5.44-.71-.35-.62-.68-1.27-.97-1.91-1.24-2.5-2.41-5-3.53-7.53-.38-.88-.76-1.74-1.12-2.62.41-.26.82-.53,1.21-.79.09-.06.21-.15.29-.21.15.35.29.68.44,1.03,1.29,3.03,2.68,6.03,4.15,9,.35.71.65,1.41,1.06,2.09.15-.06.29-.15.44-.23,5.32-2.77,11.15-4.59,16.88-6.35,5.15-1.56,10.26-3.24,15.47-4.65,3.44-.79,6.77-2,10.21-2.88.79-.24,1.59-.29,2.41-.38.15,0,.35-.03.56-.06.09-.03.21-.03.29-.06-.03-.06-.06-.12-.06-.18-.47-.82-.94-1.44-1.5-2.29-4.21-5.74-8.53-11.44-12.94-17.03-2.88-3.56-5.76-7.12-8.68-10.65-2.15-2.65-4.18-5.38-6.38-8-1.21-1.53-2.44-3.06-3.71-4.56-.26-.35-1.68-1.88-2.09-2.88-.26-.03-.53-.12-.82-.15-1.06-.06-2.03.29-3,.62-2.85.85-19.91,5.94-24.5,7.71-1.35.53-2.76.91-3.97,1.74-.24.21-.38.47-.53.74,1.97,6.21,4.91,12.03,7.35,18.03.18.44.38.91.59,1.35-.21.09-.38.21-.56.32-.26.18-.5.32-.74.53l-.12.09c-.68-1.59-1.35-3.21-2-4.82-1.88-4.38-3.74-8.79-4.94-13.44-.06-.24-.12-.5-.18-.74-.38.94-.76,1.91-.71,2.94.24,2.35,1.15,4.56,2.06,6.71,1.26,3,2.5,6,3.76,9,.21.44-1.12,2-1.26,1.53-.47-1.06-.91-2.12-1.35-3.18-1.24-3.06-2.59-6.06-3.79-9.15-.62-1.62-1.09-3.29-1.21-5-.18-1.38.38-2.65.88-3.88Zm70.44,35.65c-.44.18-.88.32-1.32.44-1.06.21-2.06.59-3.06.94-6.29,2.15-12.79,3.65-19.12,5.71-7.56,2.38-15.29,4.38-22.32,8.09-.29.15-.59.29-.85.5-.62.94-.44,2.27-.56,3.38v.18h.03c3-.79,6-1.56,9.03-2.35,3.47-.91,6.94-1.79,10.44-2.71l9.97-2.59c3.23-.82,6.44-1.68,9.68-2.5,1.59-.41,3.21-.82,4.79-1.24.88-.24,1.76-.44,2.65-.68.03-.12.09-.26.12-.38.15-.74.27-1.5.35-2.26.03-1.5.44-3.06.18-4.53Z"/><path d="m88.32,148.29c0-.06-.03-.12-.09-.12s-.09.03-.09.09.03.12.09.12.09-.03.09-.09Z"/><path d="m86.91,150.26c0-.06-.03-.12-.09-.12s-.09.03-.09.09.03.12.09.12.09-.03.09-.09Z"/><path d="m161.68,302c0-.06-.03-.09-.09-.09s-.09.03-.09.09.03.09.09.09.09-.03.09-.09Z"/><path d="m392.62,130.88s-.03.03-.06.06c.03-.03.06-.06.06-.06Z"/><path d="m218.44,210.82c.03-.29.82-.68.97-.71.44-.18,16.68-5.38,16.68-5.38.06,0,.15-.03.21-.06.03.03.03.06.06.06.09.12,4.71,5.76,4.91,5.97.97,1.24,1.97,2.44,2.97,3.68,0,0,.62.71.82.94.09.09.18.21.26.29-.03,0-.06,0-.06.03.47.59,8.15,10.88,8.32,11.12.12.18.26.35.38.53-.03,0,11.32,16.62,11.68,17.85,1.32,3-.47,3-1,3.24-1.77.79-23.24,8.21-23.35,8.24-1.85.65-3.12-2.94-3.76-3.91-1.26-1.97-2.71-4.59-3.97-6.56-.35-.38,1.47-1.71,1.97-1.53.47.12.65.62.85,1.03.53.94,1.09,1.88,1.59,2.82.18-.09.32-.18.5-.26.38-.21,5.85-2.94,5.94-3,.03,0,.03-.03.06-.03-.32-.68-.65-1.38-.94-2.06-.35-.74-.94-1.62-1.24-2.41-.06-.18.68-.15.82,0,1.09,1.12,1.97,2.41,2.68,3.79,0,.03.03.03.03.06.18-.09,13.68-5.91,13.97-6-.88-1.24-1.74-2.44-2.59-3.68-.32-.47-.65-.91-1-1.38-.71.18-1.41.38-2.09.59-1.5.32-3,.65-4.5,1-.21.06-.47.12-.71.12-.38,0-.74-.15-.82-.62-.09-.62.53-.85,1.03-.94,2.03-.5,4.03-1.09,6.06-1.62-.97-1.38-1.94-2.74-2.91-4.12-1.59.65-3.15,1.32-4.85,1.62-.21.03-.44.06-.65.06-.24,0-.5-.06-.68-.24-.41-.38-.21-1.12.32-1.24.29-.06.59-.12.88-.18,1.38-.32,2.68-.88,4-1.41-1.12-1.59-2.26-3.18-3.38-4.76-2.21.68-5.53,1.82-7.76,2.29-.79-.85-2.82-5.59-3.03-5.88-.5.15-3.91,1.38-5.12,1.82.21.29,1.97,2.79,1.18,3.44-.18.09-.32.15-.44.15-.79,0-1.24-1.38-1.68-1.94-.21-.35-.44-.68-.65-1.03-1.59.59-3.18,1.21-4.74,1.85.59,1.15,1.12,2.35,1.47,3.59.09.15-.59.38-.62.24-.56-.74-1.03-1.53-1.53-2.32-.24-.38-.5-.79-.74-1.21.53,1.09,1.03,2.21,1.44,3.32.24.38.03.91-.44.97-.03,0-.68-.35-.76-.68-.15-.41-6.15-14.76-6.06-15.56Zm46.41,36.5s-.09-.82-.09-.85c-1.59.38-5.32,1.97-5.91,2.18.03.06.09.68.09.68,0,0,5.09-1.68,5.91-2Zm-15.5,5.56c.47-.09,6.21-2.47,8.56-3.18,0,0-.18-.56-.18-.71-1.5.53-3,1.09-4.5,1.56-1.32.5-2.62,1.03-3.91,1.59,0,.06,0,.76.03.74Zm-7.85,2.68c1.85-.38,6.76-2.26,6.76-2.26l-.09-.74s-5.06,1.94-6.5,2.44c-.12.15-.24.56-.18.56Zm-3.76-5.47l-.38,1.15s2.29,3.62,2.65,4c.09-.24.15-.59.26-.85-1.47-2.21-2.53-4.29-2.53-4.29Zm7.29-3.74c-.18.03-.32.09-.44.18-.56.29-5.91,3-6.06,3.06.44.82,2.29,4.18,2.32,4.24,2.35-.76,4.62-1.5,6.94-2.41-.21-.29-2.38-4.32-2.76-5.06Zm9.15-4.09c-.18.03-6.18,2.62-7.06,3.03-.24.12-.47.24-.71.35.74,1.26,2.38,4.82,2.59,5.26,2.76-1.12,5.56-2.21,8.38-3.21-1.15-1.91-2.15-3.5-3.2-5.44Zm1.15-.5c1.32,1.71,3.15,5.5,3.18,5.56,1.91-.65,3.85-1.26,5.82-1.82-1.09-1.94-2.32-3.79-3.59-5.62-.29.09-5.12,1.79-5.41,1.88Zm-26.29-33.32c-.26.09-.56.18-.82.24-1.06.35-2.12.68-3.18,1-.21.06-.41.12-.62.18.09.12.21.21.29.32.76.74,1.44,1.59,2.06,2.44.12-.06.24-.09.38-.15,1.41-.5,2.85-.88,4.26-1.26-.76-.94-1.53-1.88-2.38-2.76Zm7.74-.62c-.35-.5-.79-.91-1.18-1.38-1.38.44-2.76.88-4.15,1.29-.26.09-.53.15-.79.24.5.65,1.06,1.24,1.62,1.85.26.29.53.59.79.88,1.62-.53,3.24-1.06,4.88-1.53-.38-.44-.76-.91-1.18-1.35Zm3.79,14.03c.09.21.21.38.32.59.32-.09.65-.18.91-.29,1.71-.59,3.41-1.18,5.12-1.71-1.09-1.47-2.24-2.88-3.38-4.29-1.74.56-3.5,1.12-5.24,1.68.79,1.35,1.53,2.68,2.26,4.03Zm-3.18-5.32c1.71-.53,3.41-1.03,5.09-1.56-.76-.97-1.5-1.88-2.24-2.82-.47-.62-.94-1.24-1.41-1.82-1.62.44-3.21.94-4.79,1.56.41.5.85,1,1.26,1.53.74,1,1.41,2.06,2.09,3.12Zm-6.29,2.26c.94-.38,1.91-.76,2.85-1.15.71-.26,1.41-.5,2.12-.74-1.12-1.41-2.24-2.82-3.41-4.18-.09-.09-.18-.21-.24-.29-1.56.5-3.18.91-4.74,1.47.29.44.59.91.85,1.35.88,1.15,1.74,2.32,2.56,3.53Zm-8.76-2.24c.88,1.53,1.82,3.03,2.59,4.65.06.09.12.21.15.32,1.47-.88,2.97-1.56,4.5-2.18-.06-.09-.09-.15-.15-.24-.47-.91-1.03-1.74-1.65-2.56-.5-.71-.97-1.44-1.41-2.18-1.35.59-2.65,1.26-4.03,1.82-.06,0-.09.03-.15.03.06.12.09.21.15.32Zm-.76-1.65s.03,0,.06-.03c1.35-.53,2.65-1.21,3.97-1.79-.09-.15-.21-.29-.29-.44-.44-.71-.97-1.44-1.47-2.21-.06-.12-.15-.24-.21-.35-.47.12-.91.24-1.38.38-.47.15-.94.29-1.41.44-.35.12-.71.24-1.06.32h-.03c.53,1.26,1.18,2.47,1.82,3.68Z"/><path d="m240.85,205.53l.65-2.44.09.03v-.03c2.15-.47,4.29-1.59,6.5-1.62,1.12-.38,2.94,3.29,3.85,4.06,3.21,4.18,6.44,8.32,9.71,12.44,6.21,8.24,13.12,16,18.68,24.71.29,2.79-4.74,3.38-6.82,3.47-2.44-.09-4.03-2.59-5.35-4.35-9.29-11.88-18.94-23.79-27.29-36.26Zm9.53,9.82s-.03-.06-.06-.06l-.21,1.06c1.15,1.47,2.26,2.97,3.41,4.44l.24-1.12c-1.12-1.44-2.26-2.88-3.38-4.32Zm4.24,5.44l-.24,1.15c1.15,1.5,2.29,2.97,3.44,4.47l.23-1.21c-1.12-1.47-2.26-2.94-3.44-4.41Zm4.09,6.76c1.32,1.74,2.65,3.5,4,5.24l.24-1.21c-1.32-1.76-2.65-3.5-4-5.24l-.24,1.21Zm4.85,6.38c1.29,1.71,2.62,3.35,3.88,5.06l.24-1.15c-1.3-1.71-2.59-3.41-3.88-5.12l-.24,1.21Zm5.59,5.74c-.21-.24-.38-.47-.59-.71l-.23,1.18c1.23,1.68,2.53,3.03,3.76,4.71.12-.26.29-.53.5-.76-.79-1.82-2.29-2.85-3.44-4.41Zm-19.88-24.47l.24-1.12c-1.12-1.26-2.12-2.65-3.18-4l-.18.94c.74,1.03,2.82,3.82,3.12,4.18Zm-7-10.59l-.18.97c1.15,1.32,2.12,2.85,3.18,4.26l.18-.91c-.85-1.09-2.94-4-3.18-4.32Zm7.18-.06c-.53-.76-1.24-1.47-1.71-2.26-1.35.65-2.85,1-4.24,1.53.94,1.29,2.03,2.59,3,3.88,1.68-.09,3.32-.47,5-.53-.71-.88-1.38-1.74-2.06-2.62Zm4.88,6.24c-.71-.88-1.41-1.76-2.09-2.68-1.65.09-3.26.56-4.91.68,1.06,1.38,2.15,2.76,3.21,4.18,1.62-.29,3.24-.82,4.88-.79-.35-.47-.71-.91-1.09-1.38Zm3.26,4.21c-.56-.74-1.15-1.47-1.71-2.18-1.56.29-3,.82-4.53,1.26,1.18,1.53,2.32,3.06,3.47,4.59,1.59-.38,3.18-.76,4.82-1-.68-.91-1.35-1.79-2.06-2.68Zm3.21,4.12c-.21-.24-.38-.5-.59-.74-1.53.41-3,.94-4.53,1.41,1.18,1.53,2.32,3.06,3.5,4.59,1.62-.35,3.18-1,4.85-1.03-1.09-1.44-2.15-2.85-3.23-4.24Zm6.41,8.26c-.85-1.09-1.71-2.15-2.53-3.24-1.56.38-3.03.97-4.56,1.41,1.26,1.65,2.56,3.29,3.82,4.94,1.74-.41,3.5-.82,5.26-.53-.65-.85-1.32-1.74-2-2.59Zm3.24,4.18c-.18-.24-.35-.47-.53-.71-1.82.24-3.21.44-4.91.94,1.27,1.59,2.53,3.18,3.77,4.79,1.76-.38,3.59-.18,5.38-.35-1.27-1.53-2.5-3.12-3.71-4.68Zm8.03,9.85c-1.24-1.35-2.44-2.74-3.56-4.18-1.71.41-3.41.47-5.12.74,1.18,1.74,2.56,3.38,3.47,5.26,1.85-.35,4.12-.97,5.94-1.06-.26-.24-.5-.5-.73-.76Zm-4.06,3.53c1.62-.06,3.32-.24,4.77-.97.23-.35.5-.71.73-1.09-1.59.47-4.94,1.06-6.56,1.35-.03.26-.09.47-.09.79.35.03.76-.06,1.15-.09Z"/><path d="m283.23,166.03c.06-.15.09-.29.15-.44.27-.79.53-1.62.82-2.41,1.35-4,2.68-8,4.03-12.03,1.44-4.29,2.88-8.59,4.32-12.91,1.44-4.32,2.88-8.62,4.35-12.94,1.41-4.18,2.79-8.35,4.21-12.53,1.38-4.09,2.73-8.18,4.12-12.26,1.47-4.38,2.94-8.74,4.38-13.12,1.35-4,2.68-8,4.03-12,1.38-4.15,2.79-8.29,4.18-12.44.68-2,1.35-3.97,2.06-5.97.38-1.09.77-2.18,1.18-3.24.18-.44.35-.88.53-1.29v-.03c.06-.15.15-.26.26-.35h.03l.03-.03c.06-.03.15-.06.21-.06.06-.03.09-.03.15-.06.09-.03.21-.06.29-.06.32-.06.65-.06.97-.06.94-.06,1.88-.09,2.82-.09,5-.09,9.97-.06,14.97-.03,5.32.03,10.62.03,15.94.06,5.44.03,10.88.03,16.32.06,5.15.03,10.26.03,15.41.06,5.32.03,10.65.03,15.94.06,5.24.03,10.44.03,15.65.06,5.18.03,10.32.03,15.5.06,4.68.03,9.35.03,14.03.06,2.35,0,4.73.03,7.12.03.15,0,.27.03.38.09.26-.03.56.06.76.12,2.18.76,4.09,2.12,6,3.35.62.47,1.77.82,1.77,1.76,0,.06-.03.15-.06.21v.06c.03.26-.03.53-.09.76-.12.38-.23.76-.35,1.15-.32,1.03-.71,2.06-1.06,3.09-.74,2.18-1.56,4.41-2.35,6.68-2,5.56-4.03,11.09-6.06,16.62-2.3,6.29-4.62,12.59-6.91,18.91-2.29,6.32-4.62,12.59-6.91,18.91-2.41,6.62-4.85,13.24-7.26,19.88-2.44,6.71-4.91,13.38-7.35,20.09-2.35,6.41-4.71,12.85-7.06,19.26-2.32,6.38-4.68,12.74-7,19.12-2.3,6.26-4.59,12.5-6.88,18.76-1.59,4.32-3.15,8.62-4.74,12.94,0,.06,0,.15-.06.24-.21.41-.77.44-1.18.53-1.15.15-2.3.24-3.47.26h-1.21c-1.47,0-2.91-.06-4.35-.15-.38-.03-.94,0-1.41-.12h-.62s-.06,0-.09-.03c-.09-.03-.15-.03-.24-.06-.03,0-.06,0-.09-.03-.06,0-.09-.03-.15-.03-.03,0-.06,0-.12-.03h-.06l-.03-.03h-.06s-.09-.03-.12-.06c-.68-.35-1.32-.74-1.97-1.15-1.71-1-3.35-2.06-5.03-3.12-.32-.21-.65-.41-.94-.62-.26.79-.44,1.59-.68,2.35-.5,2.21-.94,4.41-1.53,6.62-.03.09-.09.21-.15.26.03.15,0,.32-.09.53-.03.09-.06.15-.12.21,0,.12-.06.24-.12.35-.06.12-.09.21-.15.26-.03.21-.12.44-.35.62-.09.06-.15.12-.23.15-.15.21-.38.35-.62.41-1.23.59-2.44,1.29-3.79,1.62-5.65,1.91-11.65,2.68-17.56,3.12,2.35,2.26,4.65,4.56,7,6.85,1.38,1.32,2.68,2.68,4,4.06.88.91,1.85,1.76,2.65,2.76.47.44.65,1.21.03,1.62-.15.09-.3.15-.44.15-.23.12-.56.21-.73.26-1.88.44-3.82.68-5.73,1.03-2.71.74-5.44,1.41-8.18,2-2.35.41-4.71.77-7.06,1.27-3.47.82-6.88,1.91-10.35,2.73-.06,0-.12.03-.21.03-.32,0-.62-.21-.77-.47-.18-.15-.32-.32-.5-.47-1.53-1.47-3.06-2.91-4.59-4.38-1.59-1.5-3.15-3-4.74-4.53-1.59-1.53-3.2-3.06-4.79-4.59-1.65-1.56-3.26-3.15-4.91-4.71-1.62-1.53-3.24-3.09-4.82-4.62-1.62-1.56-3.23-3.09-4.85-4.65-1.65-1.59-3.29-3.15-4.94-4.74-1.62-1.56-3.23-3.09-4.82-4.65-1.59-1.53-3.18-3.09-4.73-4.62-1.59-1.56-3.18-3.12-4.68-4.74-.18-.18-.35-.38-.56-.62-.18-.21-.44-.5-.38-.79.03-.06.06-.15.12-.18-.03-.44.29-.82.73-.91,1.09-.21,2.15-.38,3.24-.59,1.88-.35,3.76-.68,5.68-1.03,1.91-.35,3.85-.71,5.76-1.06,1.91-.35,3.79-.68,5.71-1.03,1.94-.35,3.88-.71,5.85-1.06,1-.18,2-.35,3.03-.53.44-.09.91-.15,1.35-.24.24-.03.44-.06.68-.12.12,0,.24-.03.35-.03s.24,0,.32.06c.18.06.29.18.38.32.12.18.15.41.09.62q-.03.15,0,0s-.03.06-.03.09c.06.03.09.06.15.09,1.82,1.21,3.38,2.76,5.06,4.18,1.35,1.06,2.68,2.29,4.09,3.47,1.35,1.15,2.71,2.35,3.91,3.65.15.18.29.32.44.47.03,0,.06,0,.06-.03.53-.06,1.06-.06,1.59-.06,2.88-.29,5.74-.82,8.62-1.06,1.65-.12,3.24-.71,4.82-1.06,1.38-.38,2.74-1.09,3.85-1.97,1.15-.91,2-2.15,2.74-3.38.41-1,.82-2.03,1.18-3.06.23-.53.26-1.18.59-1.62.06-.06.09-.09.15-.09-.29-.18-.56-.35-.85-.53-3.53-2.29-7.09-4.53-10.65-6.82-3.65-2.35-7.29-4.71-10.94-7.06-3.62-2.32-7.26-4.65-10.88-7-3.59-2.32-7.18-4.62-10.76-6.94-3.53-2.26-7.06-4.53-10.59-6.82-3.53-2.26-7.06-4.53-10.59-6.82-1.53-1-3.09-2-4.62-2.97-.56-.35-1.12-.74-1.68-1.09-.24-.15-.47-.29-.71-.44-.18-.12-.38-.24-.56-.35l-.03-.03h-.12c-.09,0-.18,0-.26-.03-.32-.18-.56-.68-.41-1.12Zm172.12-112.18l-10.18-.03c-5-.03-10.03-.03-15.03-.06-5.24-.03-10.44-.03-15.68-.06-5.24-.03-10.47-.03-15.68-.06-5.27-.03-10.53-.03-15.82-.06-5.18-.03-10.35-.03-15.56-.06-5.44-.03-10.91-.06-16.35-.06-5.18-.03-10.35-.03-15.53-.09-2.5-.03-4.97-.03-7.47-.09-1.15-.03-2.29-.03-3.41-.09-.53-.03-1.09-.06-1.62-.09-.09,0-.2-.03-.32-.03-.09.29-.15.59-.23.88-.27.97-.56,1.91-.85,2.85-1.27,4.06-2.65,8.09-4,12.12-1.41,4.15-2.77,8.32-4.18,12.47-1.38,4.15-2.76,8.26-4.15,12.41-1.44,4.29-2.88,8.59-4.32,12.88-1.35,4.06-2.71,8.12-4.09,12.18-1.41,4.24-2.82,8.47-4.26,12.68l-4.47,13.35c-1.41,4.18-2.79,8.38-4.21,12.56-.12.32-.21.62-.32.94.12,0,.21.03.29.06h.03s.06.03.09.06c.03.03.06.03.09.06.18.09.35.18.5.29l.79.44c.62.35,1.24.71,1.85,1.06,3.97,2.29,7.94,4.59,11.94,6.88,3.97,2.29,7.91,4.56,11.88,6.85,3.97,2.29,7.94,4.56,11.91,6.85,4.03,2.32,8.03,4.65,12.06,6.94,3.94,2.26,7.91,4.56,11.85,6.82,3.88,2.24,7.77,4.47,11.65,6.71,3.85,2.21,7.71,4.44,11.56,6.68,3.76,2.18,7.5,4.35,11.26,6.53,1.85,1.09,3.71,2.18,5.56,3.26.91.53,1.79,1.09,2.68,1.62.29.18.56.35.85.56,1.79-4.85,3.59-9.68,5.38-14.53,2.21-6,4.44-12,6.65-18,2.32-6.29,4.65-12.59,7-18.91,2.27-6.09,4.5-12.21,6.77-18.29,2.5-6.76,5-13.5,7.5-20.26,2.44-6.62,4.91-13.24,7.35-19.88,1.26-3.41,2.53-6.82,3.79-10.24,1.29-3.53,2.59-7.03,3.91-10.56,2.47-6.68,4.94-13.32,7.44-20,1.09-2.88,2.18-5.79,3.32-8.68.59-1.53,1.21-3.06,1.82-4.56.32-.79.65-1.59,1-2.35-.35.06-.71.06-1.06.03Zm-62.15,179.18c1.38.09,2.74.09,4.12.09h1.03c.65-.03,1.44-.03,2.15,0,.94-2.56,1.85-5.09,2.79-7.65,2.21-6.03,4.41-12.03,6.62-18.03,2.29-6.24,4.56-12.47,6.85-18.71,2.35-6.47,4.73-12.94,7.12-19.41,2.5-6.79,4.97-13.62,7.47-20.41,2.38-6.53,4.79-13.06,7.18-19.62,2.35-6.38,4.68-12.77,7.03-19.18,2.32-6.38,4.68-12.74,7-19.12,2.09-5.74,4.21-11.47,6.32-17.18,1-2.74,2.03-5.47,3.06-8.21.59-1.56,1.18-3.09,1.76-4.65.29-.79.62-1.56.94-2.35.09-.24.18-.44.29-.65-.35-.18-.65-.5-.97-.68-1.18-.76-2.38-1.47-3.56-2.21-.44-.35-1.65-.97-2.44-1.59-.12.15-.29.26-.47.32-.06.15-.09.32-.15.47-.23.76-.5,1.56-.73,2.32-.5,1.5-1.03,3-1.53,4.5-.91,2.62-1.88,5.32-2.85,8.03-1.06,2.94-2.15,5.91-3.23,8.85-1.23,3.32-2.47,6.68-3.68,10-1.3,3.53-2.62,7.06-3.91,10.62-2.53,6.85-5.06,13.71-7.59,20.56-2.44,6.65-4.91,13.26-7.35,19.91-2.38,6.41-4.74,12.82-7.12,19.24-2.32,6.24-4.62,12.5-6.94,18.76-2.26,6.15-4.53,12.26-6.79,18.41-2.27,6.15-4.56,12.29-6.82,18.44-1.56,4.21-3.12,8.41-4.68,12.65-.79,2.12-1.56,4.26-2.35,6.38.41,0,.94.03,1.44.06Zm-39.03,11.26c5.5-.09,11.03-1,16.38-2.35,1.24-.44,2.38-.68,3.62-1.21.59-.18,1.53-.91,2.32-1.15.03-.06.09-.12.15-.18,0,0,.03-.03.06-.03.03-.09.06-.21.12-.32,0-.03.03-.06.03-.06,0-.12.03-.26.09-.41.06-.12.09-.21.18-.29-.03-.38.12-.79.23-1.15.27-1,.47-2,.71-2.97.41-1.88.85-3.76,1.47-5.62-.73-.47-1.44-.91-2.18-1.38-1.26-.79-2.5-1.62-3.73-2.44-.12.91-.24,1.82-.41,2.71-.41,2.12-1.26,4.12-2.29,6.03-1.12,2.09-2.65,4.21-5.03,4.82-2.2.74-4.5.97-6.76,1.44-1.68.32-3.38.53-5.06.76-1.21.24-2.44.44-3.68.56.91.91,1.82,1.82,2.8,2.68.2.18.41.35.59.56.09-.03.26-.03.41,0Zm3.53-28.44c-.29,1.29-.65,2.59-1.12,3.82-1.06,2.06-2.62,3.88-4.68,5-1.06.53-2.12,1.12-3.29,1.29-1.24.32-2.47.74-3.74.91-3.76.32-7.5,1.12-11.26,1.26-.56,0-.85-.44-.85-.88-.82-.65-1.62-1.32-2.44-1.97-2.62-2.06-5.24-4.12-7.8-6.26-1.2-1.09-2.29-2.03-3.7-2.94-.18-.12-.35-.32-.38-.59v-.24c-.26.06-.53.12-.79.15-.71.15-1.41.26-2.09.38-1.97.35-3.94.74-5.91,1.09-1.91.35-3.85.71-5.77,1.06-1.91.35-3.79.68-5.7,1.03-1.91.35-3.82.71-5.74,1.03-1.41.26-2.82.53-4.24.76.32.26.65.53.94.82,1.65,1.47,3.26,2.94,4.88,4.44,1.62,1.5,3.24,3.03,4.85,4.56,1.65,1.56,3.32,3.15,4.97,4.71,1.59,1.53,3.21,3.03,4.79,4.56,1.62,1.56,3.26,3.12,4.91,4.68,1.65,1.56,3.27,3.12,4.91,4.68,1.62,1.56,3.23,3.09,4.85,4.65,1.62,1.53,3.2,3.06,4.82,4.59,1.56,1.5,3.15,3,4.71,4.5,1.38,1.32,2.79,2.65,4.18,3.97.06,0,.12-.03.18-.03.91-.21,1.79-.5,2.71-.73,4.09-1.15,8.21-2.21,12.41-2.82,3.32-.47,6.59-1.38,9.85-2.12,1.7-.29,3.44-.35,5.15-.53h.5s-.03-.03-.06-.06c-.65-.79-1.41-1.47-2.12-2.18-2.82-2.97-5.79-5.82-8.71-8.74-2.12-2.29-4.53-4.29-6.59-6.65-.35-.53-2.65-2.68-1.44-3.06.09,0,.18,0,.27.03.06-.32.29-.59.73-.68.97-.12,1.97-.24,2.94-.41,2.24-.44,4.53-.62,6.77-1.12,2-.38,4.03-.62,5.97-1.29,2.91-.85,4.76-5.5,5.82-8.18.27-.79.47-1.59.65-2.41.12-.41.27-1.35.56-1.94-.12-.09-.24-.18-.38-.24-1.79-1.18-3.59-2.35-5.38-3.5-1.73-1.12-3.47-2.24-5.21-3.35-1.24-.79-2.5-1.59-3.74-2.38v.06c-.06.41-.15.85-.21,1.26Zm-71.59-49.5c.35.24.68.44,1.03.65l9.56,6.18c3.53,2.26,7.06,4.53,10.59,6.82,3.56,2.29,7.12,4.59,10.68,6.88,3.56,2.29,7.15,4.62,10.71,6.91,3.68,2.35,7.35,4.74,11.03,7.12,3.68,2.35,7.35,4.74,11,7.12,3.5,2.26,7,4.53,10.5,6.82,1.74,1.12,3.47,2.24,5.21,3.35,1.77,1.15,3.56,2.29,5.32,3.41,1.79,1.12,3.59,2.26,5.35,3.38,1.59,1.03,3.15,2.03,4.74,3.06,1.65,1.09,3.26,2.15,4.88,3.24.74.5,1.44,1,2.15,1.5.24.18.5.35.74.53.21-.56.41-1.09.62-1.65,1.29-3.47,2.56-6.91,3.85-10.38-.12-.06-.21-.09-.32-.15-.53-.26-1.03-.53-1.56-.82-1.88-1.03-3.77-2.09-5.62-3.15-1.88-1.06-3.76-2.15-5.62-3.21-3.82-2.18-7.65-4.38-11.47-6.59-3.82-2.21-7.68-4.41-11.53-6.62-3.94-2.26-7.91-4.56-11.85-6.82-3.91-2.26-7.82-4.5-11.74-6.76-4-2.32-8.03-4.62-12.03-6.94-4-2.29-8-4.62-12.03-6.91-3.97-2.29-7.94-4.59-11.94-6.88-1.94-1.12-3.88-2.24-5.82-3.35-.97-.56-1.94-1.12-2.91-1.68-.47-.26-.94-.56-1.41-.82-.29-.18-.59-.35-.88-.5-.06-.03-.12-.06-.15-.09-.03,0-.03-.03-.06-.03-.65,1.91-1.29,3.85-1.94,5.79.32.15.65.38.94.59Z"/><path d="m175.12,104.79c-.32-.03-.71-.03-1.09-.03.03.09.03.18.03.24.06.76-.68,1.29-1.29,1.59-.18.06-.38.12-.56.12-.74,0-1.47-.5-1.68-1.21-.03-.06-.03-.15-.03-.21-1.44.44-2.79,1.09-4.06,1.88-.12.03-.21.06-.32.06-.76,0-1.24-1.09-.5-1.62,2.12-1.35,4.53-2.32,7.03-2.5h.35c.97,0,2,0,2.76.65.68.65.12,1.18-.65,1.03Z"/><path d="m452.59,136.15s-.03-.03,0,0t0,0Z"/><path d="m22.94,234.12c.47-2.35.79-4.71,1.29-7.06,1-4.47,2.24-8.85,3.68-13.18,1.85-4.97,4.18-9.76,6.68-14.47,1.82-3.5,4.06-6.74,6.24-10,2.76-3.94,5.32-7.94,8.38-11.74,1.5-1.68,3-3.35,4.47-5.06,2.09-2.29,4.38-4.35,6.65-6.47,4.88-3.97,9.56-8.18,14.62-11.94,2.53-2,5.35-3.59,8-5.38.97-.65,1.91-1.24,2.94-1.85.79-.53,1.71-.91,2.68-.88-.09-.91.44-1.79,1.24-3.47.71-1.41,1.47-2.74,2.32-4.06.44-.79,1.06-1.24,1.74-1.85.12-.12.24-.24.35-.35-.53-.29-.85-.79-1.18-1.29-.94-1.59-1.82-3.21-2.65-4.82-1.79-3.5-3.53-7.03-5-10.65-1.06-2.68-1.68-5.5-2.29-8.32-.65-2.82-.97-5.74-1.15-8.65-.29-3.38-.35-6.77.03-10.12,1.44-10.21,5.59-20.62,12.24-28.53,3.38-3.82,7.44-7,11.71-9.82,6.47-4.38,13.85-7.35,21.56-8.65,2.32-.59,4.73-.59,7.12-.47,10.53.47,14.76,1.59,23.21,4.56,2.12.74,4.18,1.65,6.12,2.74,1.97,1.09,3.85,2.32,5.62,3.71,1.74,1.38,3.38,2.88,4.88,4.5,1.56,1.71,2.97,3.56,4.15,5.53,1.15,1.91,2.15,3.94,2.88,6.06.74,2.21,1.24,4.47,1.41,6.76.18,2.24.03,4.53-.47,6.74-.18.82-.41,1.65-.71,2.44.29-.12.68-.09,1,0,1.29.32,2.18,1.44,2.82,2.53.62,1.09,1.06,2.29,1.38,3.5.65,2.44.85,5,.82,7.53-.03,1.24-.12,2.47-.26,3.71-.18,1.26-.41,2.53-.79,3.74-.35,1.24-.82,2.44-1.5,3.53-.47.76-1.06,1.5-1.79,2,.06.12.15.26.21.38.56,1.15,1.41,2.29,1.32,3.65-.32,1.94-1.85,2.82-3.62,3.29.03.09.03.15.06.24.32,1.38.09,2.79-.15,4.15-.29,2.15-1.24,4.06-2.47,5.85-.03.03-.06.06-.12.09.12.15.24.26.35.38.91-.38,1.88-.32,2.65.59,1.44,1.29,2.56,2.85,3.29,4.65.12.35.32.79.26,1.18.62.65,1.18,1.32,1.68,2.03.15.24.44.76.53,1.21.09-.03.21-.06.29-.09,1.15,0,2.26,1.47,3,2.26,1.56,2.12,2.41,4.68,3.15,7.21,1.03,2.47.5,3.88-.76,6.06-1.65,2.59-3.91,4.68-5.85,7.06-1.06,1.38-1.12,3.29-1.06,4.94.35,5.21,1.15,10.38,1.71,15.59.35,3.21.56,6.44.76,9.68,1.79,2.09,3.26,4.47,4.59,6.88,1.24,2.65,2.15,5.47,2.71,8.35,1.44,7.06,2.68,14.53.74,21.62-.62,2.24-1.5,4.41-2.68,6.41-.97,1.47-2.24,2.76-3.56,3.91-3.06,2.5-6.32,4.94-10.06,6.35-1.79.56-3.59,1.18-5.44,1.5.97.15,1.94.35,2.91.68.76.26,1.56.41,2.35.59,1.76-.88,3.59-1.68,5.32-2.59,4.5-2.15,9.03-4.26,13.38-6.68,5.53-3.15,11.15-6.15,16.56-9.5,5.53-3.21,10.71-7.21,16.85-9.24,1.35-.47,6.35-1.62,6.68-1.59.26.03.5.06.76.18.09.03.18.09.26.15.24.12.44.26.65.41.56.41,1.09.85,1.59,1.29,1,.88,1.94,1.82,2.85,2.79.94,1.03,1.82,2.15,2.62,3.32.18.26.32.53.5.82.18.29.35.59.5.91.15.32.26.62.41.94.12.29.26.56.41.85.06.15.06.29,0,.41.94,1.09,2.09,2.44,2.47,3.68.56.56,1.06,1.21,1.41,1.97.26.53.44,1.09.62,1.65.24.53.26,1.15-.18,1.59-.88.88-2.32.59-3.38.21-.82-.24-1.65-.38-2.5-.47-5.09-.94-8.47.26-12.71,3.06-3.44,2.06-6.15,5.18-9.15,7.82-3.56,3.21-7.03,6.53-10.65,9.65-4.41,3.68-8.97,7.26-13.76,10.47-2.32,1.41-3.76,2.56-6,4.12-.26,1.59-.79,3.12-1.65,4.5-2.09,2.68-4.94,4.62-7.18,7.15-2.88,3.12-6.09,6-9.76,8.15-2.03,1.35-4.12,2.71-6.44,3.59-1.76.56-3.53,1.29-5.35,1.53-.24,0-.47.03-.71.03-1.32,0-2.15-.29-2.56-.85-.85.47-1.59,1.18-2.35,1.74-1,.79-2.09,1.44-3.18,2.12-2.97,1.82-6.24,3.18-9.35,4.76-4.09,2.32-8.38,4.29-12.88,5.71-3.94,1.32-8.06,2.12-12.24,2.21-3.56,0-7.12-.77-10.59-1.41-3.94-.97-7.76-2.41-11.53-3.88-1.47-.65-2.97-1.18-4.47-1.68-1.65-.65-3.15-1.56-4.65-2.44-.88-.47-1.74-1.03-2.59-1.59-.18.12-.41.18-.62.12-.91-.12-1.85.09-2.79.12-1.29.09-2.56.06-3.85.09-1.94.03-3.88.23-5.82.26-4.76-.03-9.53-.5-14.24-1.35-3.32-.65-6.62-1.56-9.88-2.47-2.94-1.03-5.94-2.03-8.74-3.44-5.65-3.06-10.47-7.74-13.74-13.27-2.74-4.62-3.91-9.88-5.26-15.03-.56-2.35-1.12-4.74-1.41-7.15-.32-3.09-.47-6.21-.65-9.32-.35-7.18.56-14.41,1.74-21.56Zm71.06-95.21c-1.03,1.44-1.88,3-2.68,4.56-.35.82-.94,1.65-1,2.56.5.82,1.18,1.53,1.74,2.29,1.97,2.32,4.06,4.71,6.09,6.97,4.24,4.85,8.5,9.68,12.79,14.5,3.88,4.35,7.82,8.68,11.21,13.44,1.12,1.62,2.29,3.21,3.41,4.82.71,1.06,1.35,2.15,2.15,3.12,1.12,1.24,1.85,2.79,3.18,3.82.97.88,1.56-.65,2.09-1.26,1.12-1.44,1.91-3.09,2.85-4.62,1.62-2.56,3.21-5.15,4.47-7.91.38-.88.88-1.76,1.29-2.65-.12-.38.09-.82.41-1.03.12-.32.21-.65.24-1,.44-3.26-.91-5.18-2.71-7.71-3.06-4.12-6.26-8.12-9.44-12.12-2.88-3.53-6.03-6.88-9.21-10.12-2.06-2.32-4.06-4.71-5.76-7.29-.12.5-.29.97-.79,1.18-.12.03-.24.06-.38.06-.26,0-.53-.09-.79-.18-.59-.24-1.21-.41-1.85-.5-2.12-.38-4.35-.56-6.53-.85-2.12-.32-4.06-.82-6.15-1.44-.79-.24-1.65-.35-2.44-.5-.74.53-1.41,1.21-2.18,1.85Zm49.68,39.21c1.18,1,2.09,2.29,3.12,3.44,1.12,1.47,2.41,2.76,3.53,4.24.56-2.15,1-4.35,1.06-6.59.18-2.26.26-4.5.21-6.76-.32-8.97-2.53-18.03-7.35-25.68-.12,0-.21-.06-.24-.18,0-.06-.03-.09-.03-.15-1.5,1.62-3.06,3.18-4.62,4.71-1.06,1.15-2.15,2.24-3.18,3.38-.97,1.09-1.88,2.26-2.94,3.29,1.26,1.62,2.53,3.24,3.82,4.88,1.5,2.06,3.21,3.97,4.59,6.12,1.09,1.56,2.12,3.21,2.29,5.15.24,1.38.15,2.79-.26,4.15Zm13.21-27.68c.15-.47,2.38-3.32,4.29-5.18-.97-.12-1.94-.35-2.94-.53-2.5-.53-5.03-1.21-7.26-2.5-.76-.29-1.5-.68-2.18-1.09-.47.53-.97,1-1.44,1.53-.79.94-1.62,1.85-2.44,2.74.79.85,1.32,1.97,1.97,2.91,1,1.65,1.94,3.56,2.68,5.38.24.59.44,1.15.65,1.74.41.56.79,1.12,1.18,1.65,1.18,1.65,2.44,3.24,3.47,5,.68,1.06,1.38,2.12,2.06,3.18-.5-2.82-.97-5.68-1.24-8.53-.18-2.12-.09-4.44,1.21-6.29Zm-1.12,16.29c-1.38-2.26-2.71-4.56-4.15-6.79-.03-.03-.03-.06-.06-.09,1.5,5.71,2.06,11.65,1.74,17.53-.15,1.97-.21,3.94-.53,5.91-.15.74-.38,1.44-.5,2.21-.24.79-.38,1.71-.85,2.41.18,2.32.41,4.68.32,7.03-.12,2.03-.5,4.06-1,6.03,1.65-1.88,3.68-3.44,5.85-4.74,1.32-.71,2.79-1.09,4.06-1.85-.26-2.85-.5-5.71-.71-8.59-.38-5.06-1.15-10.06-2-15.06-.03-.06-.06-.15-.06-.21-.71-1.26-1.35-2.56-2.12-3.79Zm28.09-55.32c.24-.44.44-.91.65-1.41.26-.74.5-1.47.71-2.24.26-1.12.47-2.26.59-3.41.15-1.29.21-2.68.18-4.09-.03-1.21-.15-2.5-.35-3.79v-.03c-.15-.94-.35-1.85-.62-2.76,0-.03-.03-.06-.03-.09-.18-.53-.38-1.09-.62-1.68-.18-.35-.35-.68-.53-1.03-.12-.21-.26-.41-.41-.59-.12-.15-.26-.29-.38-.41-.12-.12-.24-.21-.35-.29-.09-.06-.18-.12-.26-.18-.09-.06-.18-.09-.29-.12-.24-.09-.47-.15-.65-.32-.03,0-.03-.03-.06-.03-.35.88-.76,1.74-1.21,2.56-.82,1.47-1.82,2.82-2.94,4.06.09.29.18.56.26.85.26.97.47,1.94.62,2.94.12.94.21,1.91.24,2.85v1.5c.85-.12,1.74.06,2.59-.12,1.15.15.94,1.59-.12,1.74-.56.24-1.88,0-2.53-.47-.03.38-.06.76-.09,1.15.47.79,1.32,2.53,1.59,2.97.82,1.44,1.79,2.79,2.65,4.21.03-.03.06-.03.06-.06.12-.09.24-.21.32-.32.15-.18.29-.32.44-.53.24-.29.41-.56.56-.85Zm-4.32,14.32c.24-1.12.47-2.29.41-3.47-1.09.18-2.21.24-3.12.35-1.24,0-2.79-.29-3.5-1.44-.29-.32-.53-.88-.26-1.32.26-.5.97-.53,1.32-.15.24.24.38.5.59.74.76.44,1.68.5,2.53.38,1.68-.18,3.47-.29,4.97-1.21.41-.38.88-.85.68-1.47-.29-.88-.85-1.65-1.26-2.5-1.26-2.65-3.38-5.03-3.85-7.97-.18,1.12-.44,2.26-.76,3.38-.29.97-.68,2.03-1.15,3.03-.79,1.71-1.85,3.35-3.26,4.59-.71.65-1.53,1.18-2.44,1.5-.68.26-1.38.38-2.12.38-.21,0-.38,0-.59-.03-.97-.12-1.91-.47-2.74-1.03-.85-.56-1.56-1.29-2.15-2.12-.74-1-1.29-2.09-1.76-3.24-.38-1-.71-2.03-.94-3.06-.44-1.94-.62-3.94-.62-5.94,0-.47.03-.94.06-1.41-1.09.09-2.18.15-3.26.15h-.21c-2.09,0-4.18-.21-6.21-.56-1.06-.18-2.12-.41-3.15-.68-.21-.06-.41-.24-.5-.44-.12-.21-.12-.47-.06-.68.06-.21.24-.41.41-.5.21-.12.44-.12.65-.06h.03c.18.06.35.09.5.12,1.44.35,2.91.59,4.38.76,1.59.18,3.21.26,4.82.24.91-.03,1.82-.09,2.74-.18.12-.97.26-1.91.5-2.88.44-1.94,1.09-3.82,2-5.59.94-1.76,2.21-3.47,3.91-4.59.79-.53,1.71-.91,2.65-1.03.59-.09,1.21-.09,1.79.03.53.09,1.06.26,1.56.5.5.24.97.56,1.41.91.38.29.74.65,1.06,1.03.32.38.62.79.88,1.24.24.38.47.79.68,1.21.15.29.29.59.41.88.26-.32.53-.62.76-.94.5-.68.94-1.38,1.35-2.09.41-.74.76-1.5,1.09-2.29v-.03s0-.03.03-.06c.29-.79.56-1.62.79-2.44.21-.76.35-1.68.47-2.56.12-.97.15-1.97.15-2.94-.03-1.06-.12-2.09-.26-3.12-.18-1.12-.44-2.24-.76-3.32-.35-1.18-.76-2.29-1.26-3.41-.56-1.24-1.18-2.41-1.88-3.59l-.03-.03v-.03c-.74-1.21-1.59-2.35-2.47-3.47-.97-1.21-2.03-2.35-3.15-3.41-1.21-1.15-2.5-2.24-3.85-3.24-1.41-1.03-2.91-2-4.44-2.85-1.62-.88-3.32-1.71-5.09-2.41h-.03s-.03,0-.06-.03c-.35-.15-.74-.26-1.12-.41-1-.38-2.06-.68-3.06-1.03-4.82-1.65-12.24-3.26-20-3.26-1.38,0-2.74-.03-4.12.18-3.76.65-7.5,1.47-11.12,2.76-4.82,1.74-9.32,4.32-13.53,7.26-3.12,2.24-6.09,4.62-8.71,7.41-2.29,2.47-4.15,5.32-5.82,8.24-2.12,4.06-4,8.26-5.15,12.74-.94,3.32-1.68,6.74-1.76,10.18-.21,4.12.21,8.24.68,12.32.71,3.79,1.44,7.65,2.85,11.26,1.44,3.5,3.12,6.97,4.88,10.35.97,1.79,1.82,3.74,3.06,5.38,1.38.59,2.94.62,4.38,1.06,1.56.41,3.09.88,4.68,1.15,3.12.62,6.38.53,9.41,1.5.21-1.59.38-3.18.68-4.76.12-.68,1.65.91,1.44,2.12-.09.53-.15,1.03-.21,1.56.24.29.47.59.71.88,1.88,2.44,3.94,4.79,6.03,7.06,2.65,2.59,5.18,5.29,7.62,8.09.82.97,1.62,1.97,2.41,2.94,1.79-1.88,3.41-3.91,5.24-5.74,2.09-2.18,4.24-4.26,6.29-6.44,1.15-1.26,2.24-2.56,3.5-3.71.09-.06.18-.15.26-.24-1.62-1.15-3.12-2.53-4.5-3.94-.38-.44-.79-.88-1.18-1.35-.41-.32-.47-1.09,0-1.41.76-.56,1.29.21,1.76.74.56.65,1.12,1.29,1.76,1.85,1.59,1.47,3.21,2.88,5.15,3.88.85.35,1.71.79,2.53,1.24,1.74.76,3.53,1.26,5.41,1.68,1.79.38,3.68.82,5.5.62.85-.06,1.71-.26,2.56-.38.47-.06.91-.32,1.41-.32.5-1.85,1.41-3.62,2.26-5.47,1.03-2.21,2.47-6.59,5.06-7.24.85-.06,1.56.32,2.18.85.03-.03.06-.06.09-.12,1.06-1.44,1.85-3.21,2.09-5.09Zm-7.85-25.74c-1.88,1.12-3.94,1.94-6.03,2.56-.91.26-1.97.53-3.03.74-.44.09-.85.15-1.29.21-.03.44-.06.88-.06,1.32-.03,1.18.03,2.32.18,3.47.12,1,.29,2,.53,3,.21.76.44,1.5.71,2.24.24.56.47,1.12.76,1.65.24.38.47.76.74,1.15.24.29.47.59.71.85.18.18.38.38.59.53.21.15.38.29.59.41.18.12.38.21.56.29.18.06.32.15.5.18.18.06.35.09.53.12.18.03.35.03.5.06.18,0,.35,0,.56-.03.18-.03.35-.06.53-.09.21-.06.41-.12.62-.21.21-.09.41-.18.62-.29.24-.15.47-.29.68-.44.24-.21.5-.38.71-.62.32-.32.62-.65.91-1,.26-.35.59-.82.88-1.29.35-.62.71-1.24.97-1.88.35-.82.65-1.65.91-2.5.32-1.06.53-2.12.71-3.21.21-1.24.29-2.47.32-3.74v-.71c0-.97-.06-1.94-.18-2.94-.12-.94-.29-2-.53-3.03-1.24,1.29-2.65,2.32-4.18,3.21Zm3.65-5s-.03-.06-.03-.06l-.03-.09c-.24-.56-.5-1.15-.79-1.71-.18-.29-.35-.59-.53-.85-.29-.38-.59-.74-.91-1.09-.21-.21-.41-.41-.65-.59-.18-.15-.38-.29-.59-.41-.18-.12-.38-.21-.59-.29-.15-.06-.32-.12-.5-.18-.18-.06-.35-.09-.53-.12-.18-.03-.35-.03-.53-.06-.18,0-.35,0-.5.03-.18.03-.35.06-.53.09-.21.06-.41.12-.62.21-.21.09-.38.18-.59.29-.24.15-.47.29-.71.44-.26.21-.53.44-.79.68-.26.29-.56.59-.79.88-.32.41-.62.85-.91,1.29-.35.59-.71,1.24-.97,1.88-.38.85-.68,1.71-.97,2.62-.29,1.03-.53,2.12-.71,3.18-.03.21-.06.38-.09.59,1.15-.18,2.38-.44,3.59-.79t.06-.03h.03c1.09-.32,2.18-.74,3.26-1.21,1-.44,1.97-.94,2.88-1.53.79-.5,1.56-1.03,2.29-1.62.65-.5,1.21-1,1.74-1.56Zm-5.38,54.68c.24-.24.47-.47.71-.71.12-.18.29-.41.5-.62,0-.29.03-.59.03-.88.06-.88.06-1.79.15-2.68.21-1.32,1.03-2.41,1.65-3.59,1.38-2.38,2.82-4.74,4.32-7.03.18-.29.41-.56.68-.79-.12-.06-.21-.15-.32-.24-.44-.35-.82-.76-1.32-.97-.29-.12-.65-.38-.97-.24-1.18.85-1.74,2.24-2.41,3.47-.85,1.88-1.65,3.71-2.53,5.59-.56,1.24-1.24,2.47-1.32,3.85-.06,1.65.18,3.26.85,4.82Zm11.29-15c-1.74-2.26-2.62.47-3.53,1.82-1.21,2.09-2.44,4.15-3.65,6.24-.35.62-.74,1.24-.97,1.91-.18.71-.09,1.44-.15,2.18,0,1.91-.29,3.88.03,5.79.59-.38,1.18-.74,1.85-1h.09c.12-1.26.29-2.56.53-3.82.21-1.41,1-2.79,1.76-3.97.79-1.47,1.88-2.76,2.91-4.09.76-1.15,1.88-2.5,3.18-2.18-.68-1-1.26-2.03-2.06-2.88Zm4.56,7.24c-1-.97-1.82-2.18-3-2.94-.85.65-1.32,1.71-2,2.53-.88,1.03-1.59,2.18-2.24,3.35-.47.82-1,1.62-1.32,2.53-.35,1.12-.47,2.29-.62,3.47-.24,1.76-.56,3.56-.32,5.35.91-.65,1.62-1.62,2.56-2.26.03,0,.06-.03.06-.03,0-.15.03-.26.03-.38.12-1.15.5-2.24.97-3.26.32-.91.53-1.88,1.06-2.71,1-1.29,2.32-2.29,3.59-3.35.59-.53,1.21-1.09,1.91-1.5-.26-.24-.44-.56-.68-.79Zm2.35,70.82c0-.38-.03-.79-.03-1.18,0-.32-.94-11.71-1.18-15.59-.24-3.26-.38-6.62-.76-9.88-.35-3.82-.97-7.62-1.32-11.44-.32-3.97-1.47-8.82,1.85-11.88,1.71-2.12,3.94-4.06,5.26-6.47,1.06-1.71,1.24-2.59.38-4.47-.53-1.59-1.15-3.18-1.97-4.68-.62-1.35-1.47-2.74-2.74-3.59-.91.35-1.65,1-2.38,1.62-1.12.88-2.29,1.76-3.15,2.94-.53.82-.68,1.79-1,2.71-.56,1.41-.94,2.97-1.03,4.5,1.76-2.15,3.94-3.97,6.06-5.74.91-.59,2,0,1.91,1.09-.03.32-.35.59-.68.53-.38-.06-.5-.38-.62-.68-.71.38-.97,1.24-1.5,1.82-.97,1.18-2.21,2.06-3.21,3.21-.56.56-1.06,1.18-1.71,1.59-.91.38-1.26-.32-1.41-1.24-.56.74-1.15,1.41-1.97,1.82-.24.15-.47.21-.71.21-.82,0-1.56-.74-1.68-1.56-.12-.91.03-1.85.06-2.76,0-.06,0-.15.03-.21-.03,0-.06.03-.06.03-.5.26-1,.68-1.59.71h-.18c-1,0-1.44-.91-1.56-1.82-.12-.62-.18-1.24-.21-1.88-.29.32-.59.59-.76.71-.18.09-.35.15-.53.15-1.29,0-1.91-2.71-2.12-3.74-.29-1.29-.26-2.5-.09-3.65-1.26.88-2.82,1.32-4.35,1.44-.76,1-1.65,1.88-2.5,2.85-1.06,1.21-2.06,2.5-2.82,3.94-.74,1.44-.62,3.12-.53,4.71.62,5.76,1.85,11.59,2.76,17.35,1.06,6.03,1.44,12.15,1.94,18.26.21,2.41.5,4.79.76,7.18.06.59.12,1.18.18,1.79.12.15.15.32.18.5v.15c.06.41.09.85.18,1.29.18,1.24.41,2.5.74,3.74.41,1.71.97,3.44,1.65,5.12l.03.06c.56,1.41,1.24,2.88,2.03,4.32.68,1.21,1.41,2.35,2.21,3.47.65.88,1.35,1.74,2.12,2.53.59.62,1.21,1.18,1.88,1.74.5.41,1.03.76,1.56,1.12.44.26.91.53,1.41.74.35.15.76.29,1.15.44.32.09.68.18,1,.24.32.06.62.09.94.09.26,0,.56,0,.82-.03.26-.03.53-.09.79-.15.24-.06.47-.15.71-.24.24-.09.47-.21.71-.32.24-.15.47-.29.68-.44.24-.18.44-.35.65-.56.24-.24.47-.47.68-.74.24-.29.47-.62.68-.94.03-.03.03-.06.06-.09.24-.41.47-.82.65-1.26.26-.59.47-1.18.65-1.76.24-.82.44-1.65.56-2.5.18-1.12.26-2.26.32-3.41.12-.65.12-1.24.12-1.79Zm-11.32,35.09c1.21-.38,2.44-.68,3.59-1.15,1.47-.59,2.79-1.5,4.18-2.29,6.74-4.5,9.32-7.24,10.97-15.38,1.06-6.44-.24-13.06-1.5-19.41-.62-2.5-1.35-5.03-2.47-7.38-.85-1.65-1.82-3.21-2.79-4.79.06.94.12,1.85.18,2.79.15,2.56.82,11.44.88,12.18.06,1,.06,2,0,2.97-.06,1.03-.18,2.03-.32,3.03-.35,2.12-1.03,4.18-2.15,6l-.03.03c-1.12,1.76-2.76,3.29-4.82,3.88-.71.21-1.44.29-2.18.29-.38,0-.79-.03-1.18-.09-1-.15-1.94-.44-2.88-.85-.15-.06-.32-.15-.47-.24-1.97-1-3.68-2.44-5.18-4.06-1.32-1.44-2.5-3.06-3.53-4.74-1.15-1.88-2.12-3.88-2.94-5.97-.32-.85-.65-1.71-.91-2.59-.53-1.68-.97-3.38-1.29-5.09-.12-.65-.21-1.29-.29-1.94-.21-.35-.26-.88-.29-1.29-.18-1.68-.38-3.38-.56-5.06-.03-.32-.06-.65-.09-1-1.18.79-2.53,1.26-3.76,2.06-2.12,1.5-4.24,3.12-5.74,5.29-1.38,2.29-2.24,4.85-2.71,7.5-1.09,5.18-1.62,10.5-2,15.76-.06.88-.24,1.79,0,2.68.41,1.91,1.03,3.79,1.68,5.68.38,1.24,1.03,2.35,1.74,3.44.65.94,1.44,1.79,2.29,2.59.68.06.97.79,1.5,1.15,1.15,1,2.26,2.03,3.5,2.91.94.85,2.09,1.38,3.26,1.85,2.15.91,4.41,1.47,6.74,1.82,3.18.53,6.47.29,9.59-.59Zm-22.76,2c-1.85,1.32-4.15,1.62-6.24,2.38.32.24.65.44.97.65.21.15.41.24.65.32.09-.47.35-.88.79-1.15,1.32-.59,2.85-.53,4.26-.76,2.38-.44,4.76-.94,7.15-1.32.71-.15,1.44-.29,2.18-.41-1.88-.5-3.74-1.15-5.47-2-.12-.06-.26-.15-.38-.24-.26.18-.56.35-.76.5-.97.76-2.03,1.44-3.15,2.03Zm41.88,25.41c1.47-1.09,2.68-1.97,4.44-3.03,3.65-2.38,7.12-5.06,10.56-7.73,1.79-1.56,3.62-2.88,5.35-4.53,2.35-2.15,4.68-4.32,7.06-6.44,2.62-2.29,5-4.85,7.68-7.09,2.88-2.29,6.12-4.44,9.68-5.53,2.82-.91,5.82-.44,8.71-.06,1,.12,1.91.62,2.91.65-.47-1.85-1.79-3.26-3.41-4.21-1.21-.88-2.59-1.44-4.03-1.71-1.03-.18-1.82.12-2.76.44-1.24.26-2.35.82-3.53,1.21-1.26.35-2.5.74-3.71,1.24-1.26.53-2.03-.21-.91-.94.47-.32.94-.53,1.44-.76,1.41-.79,2.88-1.21,4.38-1.85.65-.29,1.35-.44,2.06-.65.76-.29,1.53-.59,2.38-.5,1.41.03,2.79.41,4.06,1.06-1.03-1.12-2.06-2.24-3.03-3.38-.41-.47-.82-.94-1.26-1.38-.53-.47-1.15-1.53-2.03-1.32-.62.03-1.15.35-1.71.62-1.71.68-3.26,1.62-4.85,2.47-1.21.62-2.38,1.26-3.62,1.85-.59.35-1.38.65-1.76-.15-.21-.41,0-1,.44-1.18.18-.06.32-.15.47-.24.59-.29,1.18-.56,1.74-.85,2.82-1.41,5.5-3.21,8.56-4.12,1.79-.47,3.09.94,4.26,2.09-.32-.35-.65-.74-.97-1.06-.76-.79-1.59-1.59-2.44-2.38-.65-.59-2.38-2.09-2.91-2.56-.15-.12-.32-.15-.5-.12-1.44.38-7.94,2.47-11.03,4.15-4.56,2.47-8.91,5.5-13.44,8.15-5.85,3.44-11.79,6.76-17.76,10-2.18,1.21-4.44,2.21-6.71,3.26-2.32,1.15-4.65,2.26-7,3.38,3.68,1.03,6.38,4.32,8.38,7.47,1,1.56,1.71,3.29,2.41,5,.53,1.27,1.09,2.5,1.44,3.82.59,2.23,1,4.59.97,6.91Zm-31.06,25.47c1.5-.09,2.91-.71,4.32-1.15,2.32-.71,4.41-2,6.44-3.32,2.47-1.59,4.97-3.18,7.03-5.29,1.97-1.79,3.71-3.85,5.68-5.68,1.5-1.29,3.03-2.62,4.26-4.18,2.79-4.74,1.41-10.71-.65-15.5-1.68-4.41-4.18-8.85-8.35-11.35-1-.56-2.12-.82-3.24-1.06-.06.03-.15.03-.21.03-.18,0-.35-.06-.5-.18-.85-.18-1.74-.35-2.56-.65-1.26-.35-2.56-.65-3.85-.76-.97-.06-1.97-.09-2.94-.24-1.29-.03-2.68-.29-4.03-.29-.38,0-.76.03-1.12.06-2.91.35-5.82,1-8.71,1.56-1.74.41-3.53.44-5.26.82,1.15,1.41,2.76,2.38,3.88,3.82,1.71,2.24,3.06,4.71,4.38,7.18,1.88,3.3,3.5,6.8,4.35,10.53.76,3.65,1.53,7.32,1.59,11.06.06,2.91.03,5.85-.65,8.71-.32,1.44-.74,2.85-1.15,4.26-.44,1.68-.32,1.59,1.26,1.62Zm-141.44-38c.24,4.15,1.32,8.18,2.35,12.18.76,2.88,1.59,5.79,2.76,8.53,2.88,6.35,7.91,11.68,13.91,15.18,1.56.88,3.24,1.56,4.91,2.18,1.97.76,3.97,1.5,6.03,2.03,2.97.76,5.88,1.62,8.91,2.09,3.5.62,7.09.91,10.65,1.09,2.12.09,4.24-.03,6.38-.18,2.18-.09,4.38-.03,6.56-.24-.18-.12-.35-.23-.53-.35-3.15-1.97-6.24-4.03-9.03-6.53-4.18-3.47-8.71-6.47-12.94-9.85-3.18-2.35-5.91-5.24-8.18-8.47-1.76-2.26-3.59-4.5-5.12-6.91-.85-1.53-1.59-3.18-2.32-4.77-1.59-4.32-3.18-8.68-3.62-13.29-.12-.82-.26-1.68-.47-2.5-.12-.47.21-.94.68-1.06.47-.12.94.21,1.06.68.18.79.32,1.59.44,2.38.24,1.62.38,3.26.85,4.85.47,1.94,1.06,3.82,1.76,5.68.79,2.56,1.94,4.97,3.24,7.29,1.47,2.29,3.18,4.41,4.85,6.53.65.82,1.24,1.77,1.94,2.56.94,1.12,1.97,2.12,3,3.18,3.32,2.91,6.88,5.47,10.47,8.03,1.59,1.27,3.24,2.47,4.79,3.77,1.41,1.09,2.71,2.32,4.18,3.35,1.71,1.29,3.53,2.41,5.32,3.56,2.59,1.77,5.21,3.5,7.97,4.97,1.47.85,3.15,1.23,4.71,1.88,2.53,1.06,5.21,2.06,7.79,3,2.97,1.03,6.06,1.74,9.15,2.24,2.35.35,4.79.76,7.21.56,3.21-.15,6.38-.71,9.44-1.71,2.56-.79,5.15-1.62,7.56-2.82,2.82-1.15,5.41-2.77,8.18-4.03,4-1.91,8.06-3.71,11.74-6.24.21-.15.97-.56,1.68-.76-.18-.85.09-2,.53-3.38.53-1.82,1-3.68,1.21-5.56.47-4.77.12-9.56-.94-14.24-.44-2.79-1.32-5.53-2.47-8.12,0,0,0-.03-.03-.03,0,0,0,.03.03.03-1.68-3.5-3.56-6.91-5.68-10.18-1.06-1.65-2.71-2.77-4.06-4.18-7.76-1.29-10.09-14.03-12.41-20.32-2.41-8.32-4.24-16.91-6.94-25.18-2.09-5-4.65-9.94-7.91-14.26-3.09-3.88-6.97-7.12-10.82-10.21-.97-.65-1.94-1.41-3.12-1.62-.53.06-1.06-.24-1.12-.82.09-1.59,2.18-.82,3.09-.35,4.88,2.97,9.21,7.12,12.97,11.41,3.62,4.56,6.27,9.76,8.53,15.15,3.94,12.24,6.18,25,10.97,36.97.82,1.68,1.68,3.44,2.88,4.88,1.53-.74,3.24-.97,4.82-1.56,1.85-.79,3.59-1.82,5.32-2.85-1.32-.94-2.53-2-3.74-3.09-.38-.15-.71-.53-1.03-.76-.44-.35-.91-.68-1.29-1.09-2.26-2.15-3.74-4.94-4.56-7.91-.62-2.15-1.56-4.38-1.26-6.65.03-.21.03-.44.06-.65-.29-.44-.5-1.12-.68-1.38-.91-1.94-1.82-3.85-2.79-5.76-.53-1.06-1.09-2.09-1.56-3.21-.53-1.03.97-1.76,1.47-.74,1.15,3,2.71,5.88,3.71,8.94.35-4.44.82-8.88,1.74-13.26.26-1.44.59-2.88,1.03-4.29-.03-.06-.06-.09-.09-.15-.21-.53.18-1.03.24-1.53.44-2,1.12-3.91,1.53-5.91.24-1.21.56-2.41.71-3.68.26-2.15.26-4.32.35-6.47.03-.15.03-.32.03-.5-.26-.03-.53-.15-.71-.35-.32-.47-.71-.88-1.06-1.32-.62-.79-1.26-1.56-1.97-2.29-.68-.79-1.26-1.65-1.97-2.41-.65-.71-1.24-1.47-1.91-2.15-.76,1.56-1.47,3.15-2.29,4.68-.74,1.38-1.62,2.68-2.38,4.06-1.41,1.88-4.18,7.97-6.21,8.41-.15.03-.29.03-.44.03-2.21,0-3.44-2.53-4.71-4.06-1-1.18-1.88-2.44-2.71-3.76-2.21-3.15-4.38-6.32-6.82-9.29-1.94-2.26-3.85-4.53-5.82-6.76-4.32-4.85-8.65-9.71-12.91-14.59-2.85-3.26-5.82-6.47-8.53-9.85-.38-.44-.71-.82-.94-1.18-.29.03-.59.03-.88.09-.24.06-.32.06-.59.18-2,1.12-3.82,2.47-5.74,3.71-5.59,3.44-10.62,7.68-15.59,11.94-1.47,1.32-3.09,2.47-4.56,3.76-2.06,1.85-4.06,3.76-6,5.71-1.76,1.97-3.47,3.97-5.26,5.91-2.41,2.97-4.56,6.18-6.74,9.35-2.06,2.97-4.09,5.97-5.97,9.06-2.94,5.03-5.44,10.32-7.71,15.74-1.94,5.44-3.53,11.06-4.62,16.74-1.12,6.41-2.29,12.85-2.53,19.35-.09,4.65.32,9.21.59,13.76Z"/><path class="uuid-f52820a0-af25-4e32-8ebc-d5dbd364ec70" d="m296.03,153.56c21.59,13.24,93.35,53.68,93.35,53.68l53.97-145.09-117.35-.44-.23.85s-20.21,62.53-29.74,91Z"/><path d="m389.38,208.12c.09,0,.21-.03.3-.06.23-.09.44-.26.53-.53l53.97-145.09c.09-.26.06-.56-.09-.82-.15-.26-.44-.38-.74-.38l-117.35-.44c-.38,0-.73.26-.85.65l-.24.85c-.26.85-20.29,62.82-29.73,90.97-.12.38.03.82.38,1.03,21.35,13.12,92.68,53.29,93.38,53.71.15.09.29.12.44.12Zm52.71-145.09l-53.18,142.94c-8.29-4.68-71.15-40.18-91.82-52.79,4.97-14.85,12.62-38.32,18.24-55.5,9.44-28.97,11.03-33.94,11.29-34.88h.03l.06-.21,115.38.44Z"/><path class="uuid-91c639d5-2e95-443f-a16a-c1d7dbc1858e" d="m400.74,89.89c-3.76-.28-6.56-3.85-6.25-7.98.31-4.13,3.6-7.25,7.36-6.98,3.76.28,6.56,3.85,6.25,7.98-.31,4.13-3.6,7.25-7.36,6.98Z"/><g class="uuid-10c12489-3b0f-4ad9-a4d7-92446f06dc80"><path class="uuid-91c639d5-2e95-443f-a16a-c1d7dbc1858e" d="m373.43,87.25c-3.45-.25-6.02-3.53-5.74-7.33.28-3.79,3.3-6.66,6.76-6.4,3.45.25,6.02,3.53,5.74,7.33-.28,3.79-3.3,6.66-6.76,6.4Z"/></g><g class="uuid-10c12489-3b0f-4ad9-a4d7-92446f06dc80"><path class="uuid-91c639d5-2e95-443f-a16a-c1d7dbc1858e" d="m346.15,84.19c-2.93-.22-5.12-3.01-4.88-6.23.24-3.22,2.81-5.66,5.74-5.44,2.93.22,5.12,3.01,4.88,6.23-.24,3.22-2.81,5.66-5.74,5.44Z"/></g><path class="uuid-91c639d5-2e95-443f-a16a-c1d7dbc1858e" d="m380.73,80.76l12.55.94v.21s-12.57-.94-12.57-.94v-.21Z"/><path class="uuid-91c639d5-2e95-443f-a16a-c1d7dbc1858e" d="m353.41,78.75l13.73,1.03-.02.21-13.73-1.03.02-.21Z"/><path class="uuid-1d3b00af-5812-4127-b1d3-bad7342dc82d" d="m334.97,104.94c2.21-6.56,3.85-11.38,3.85-11.38l59.41,6.74-4.94,13.29-58.32-8.65Z"/><path class="uuid-1d3b00af-5812-4127-b1d3-bad7342dc82d" d="m329.47,121.91c2.2-6.56,3.7-10.74,3.7-10.74l58.71,8.59-5.82,15.35-56.59-13.21Z"/><path class="uuid-1d3b00af-5812-4127-b1d3-bad7342dc82d" d="m324.38,137.62c2.21-6.56,3.27-9.62,3.27-9.62l56.73,13.26-5.23,15.15-54.77-18.79Z"/><path class="uuid-91c639d5-2e95-443f-a16a-c1d7dbc1858e" d="m318.41,152.62c2.21-6.56,3.26-9.62,3.26-9.62l54.44,19.5-4.94,15.74-52.76-25.62Z"/><path d="m114.74,136.68c.41,0,.79-.29.88-.74.15-.91.18-1.91.21-2.85.06-1.5.12-3.03.59-3.97.79-1.56,2.26-2.74,3.97-3.12.76-.18,1.59-.21,2.47-.24.35,0,.68-.03,1.03-.06,1.09-.06,2.68-.26,3.91-1.21,3.27-2.38,1.32-5.59.03-7.71-.26-.44-.5-.82-.71-1.21-1.18-2.24-.53-5.85,1.5-8.24.88-1.03,2.74-2.68,5.24-1.82,3.15,1.03,5.65,3.65,6.56,6.82.06.26.15.5.21.76.18.71.35,1.41.71,2.12.65,1.26,1.76,2.09,2.91,2.15,1.68.09,3-1.38,3.29-2.85.29-1.5-.24-2.97-.65-3.94-.15-.32-.29-.62-.44-.91-.35-.74-.71-1.44-.88-2.15-.5-2.03.09-3.68,1.82-4.91.41-.29.5-.82.21-1.24-.29-.41-.82-.5-1.24-.21-2.32,1.65-3.21,4.03-2.53,6.79.24.91.62,1.71,1,2.5.15.29.29.59.41.88.53,1.18.71,2.09.53,2.85-.15.74-.79,1.47-1.5,1.44-.65-.03-1.18-.65-1.44-1.18-.26-.53-.41-1.12-.59-1.76-.06-.26-.15-.56-.21-.82-1.09-3.74-4.03-6.79-7.71-8-2.56-.85-5.18.03-7.15,2.38-2.47,2.94-3.21,7.32-1.71,10.18.24.41.47.85.76,1.29,1.47,2.44,2.26,4.03.44,5.35-.68.5-1.62.76-3,.85-.32.03-.65.03-.97.06-.91.03-1.85.06-2.79.29-2.21.53-4.12,2.03-5.12,4.06-.65,1.29-.71,3.03-.76,4.71-.03.91-.06,1.85-.21,2.65-.09.47.24.94.74,1,.09-.03.12-.03.18-.03Z"/><path d="m135.91,121.15h.41c.5-.03.85-.44.85-.91s-.41-.85-.91-.85c-1.53.06-2.79-.35-3.74-1.29-1.62-1.59-1.97-4.21-1.94-5.35.03-1.53,1.21-3.29,2.79-3.38.88-.03,1.79.41,2.38,1.21.41.53.68,1.21.79,1.94-.15.03-.29.03-.44.09-.76.21-1.32.85-1.38,1.56-.12,1.15,2.38,3.12,2.68,3.35.38.29.94.24,1.24-.18.29-.38.24-.94-.18-1.24-.44-.35-1.47-1.29-1.88-1.79.21-.06.5-.03.79,0l.97.12v-1c0-1.5-.44-2.88-1.24-3.94-.94-1.24-2.44-1.94-3.85-1.88-2.09.09-4.38,2.06-4.47,5.09-.03,1.53.44,4.65,2.47,6.68,1.24,1.21,2.79,1.79,4.65,1.79Z"/></svg>