<?xml version="1.0" encoding="UTF-8"?><svg id="uuid-cc2e38f7-561e-4d70-bf16-684f04b81885" xmlns="http://www.w3.org/2000/svg" viewBox="0 0 1044.29 946.22"><defs><style>.uuid-1e50570c-cad3-4a0c-9f0d-790ac60e8b79{fill:#686889;}.uuid-1e50570c-cad3-4a0c-9f0d-790ac60e8b79,.uuid-c36549c6-62f4-47bf-bd30-ba26373bd3cd,.uuid-406fd2cc-773e-4dea-aca3-430fee972770,.uuid-20bd8a5a-d332-4165-88ed-7168c579af8e,.uuid-e3cb4977-10fc-418d-8416-ddfc3110a17a,.uuid-f27bfdd4-a1fb-4001-80d4-820a724c9ea2,.uuid-55d72d91-c3d0-4aa4-b450-45cb95b61821,.uuid-d2bdf1ec-e66e-44a6-a76e-a569597d24a9,.uuid-8ba12d0b-76c0-41bc-a768-d642f0d56176{stroke-width:0px;}.uuid-c36549c6-62f4-47bf-bd30-ba26373bd3cd{fill:#eaf5ff;}.uuid-406fd2cc-773e-4dea-aca3-430fee972770{fill:#adddff;}.uuid-20bd8a5a-d332-4165-88ed-7168c579af8e{fill:#3f3d56;}.uuid-e3cb4977-10fc-418d-8416-ddfc3110a17a{fill:#000;}.uuid-27e79f98-06cb-42dd-9071-aac0f05b0557{opacity:.6;}.uuid-f27bfdd4-a1fb-4001-80d4-820a724c9ea2{fill:#6f479f;}.uuid-55d72d91-c3d0-4aa4-b450-45cb95b61821{fill:#0179d0;}.uuid-d2bdf1ec-e66e-44a6-a76e-a569597d24a9{fill:#fff;}.uuid-8ba12d0b-76c0-41bc-a768-d642f0d56176{fill:#9e616a;}</style></defs><path class="uuid-20bd8a5a-d332-4165-88ed-7168c579af8e" d="M464.18,531.13c-4.75,1.66,9.81,35.27,10.88,39.01,6.96,23.84,29.39,75.96,32.78,66.03,10.29-17.37,100.53-35.7,100.53-35.7,0,0-53.71-65.14-75.37-94.28-22.06,8.74-52,7.2-68.82,24.92v.02Z"/><path class="uuid-20bd8a5a-d332-4165-88ed-7168c579af8e" d="M301.92,199.35c1.78-1.25,2.79-.53,2.97.65,10.94.36,24.09,2.67,39.8,7.38,40.93,9.16,75.96,66.15,34.5,95.76-16.24,15.47-34.56,12.38-55.13,9.46-1.19-3.62,5.18,24.39-.36,28.56-7.32,5.58-27.83-11.43-39.74-10.82-6.01,7.6,14.99,17.13,2.85,25.81-7.56,5.42-22.13,4.41-24.21,8.86-1.13,11-2.55,21.88-2.55,21.88,0,0-15.75-4.11-37.78-5.7-15.23-19.15-24.69-47.71-25.77-73.35-2.85-65.36,52.64-107.67,105.41-108.5v.02Z"/><path class="uuid-8ba12d0b-76c0-41bc-a768-d642f0d56176" d="M400.53,613.94c-5-.77-3.28,4.47.89,3.8,13.63,10.42,22.25,24.45,22.25,42.83.12,16.89,65.61-52.16,79.12-58.65,17.13-20.65,51.57,6.84,34.26-15.82-6.19-3.03-7.85-11.77-11-18.44-5.36-3.09-10.17-12.56-18.85-10.94-37.54,15.17-69.41,41.22-106.66,57.21h0Z"/><path class="uuid-8ba12d0b-76c0-41bc-a768-d642f0d56176" d="M262.48,382.32c.65,10.76,16.18,18.38,21.82,28.01,4.75,5.18,7.91,14.28,15.35,13.02,7.79-12.32,20.93-22.67,29.02-34.14,8.57,3.56,10.64,6.25,28.31,8.92,8.09,1.78-16.36,8.86-10.29,26.11,8.39,38.79,5.89,82.33,20.75,119.5,5,18.85,37.41,34.56,41.88,5.76,6.01-29.75-2.73-67.04-4.69-100.17-.71-11.89,12.07-20.28,15.59-28.43,2.33-24.33-17.01-24.39-22.61-42.29-1.31-4.63-13.57-1.31-7.14-7.14,6.37-7.2-1.66-21.88,9.16-22.31,1.5-.83,2.51-3.68,1.84-5.24-3.4-8.09-7.73-15.65-12.66-22.77-3.98-5.36,3.52-20.59-3.28-21.42-14.16,16.95-40.39,14.93-60.19,11.55-1.66.06-4.81,7.85-1.31,17.07,6.65,17.55-8.51,15.75-9.81,1.6-.71-7.91-13.45-15.59-23.08-11.49-3.28,1.38-4.87,8.27-7.38,9.81-4.93,2.97,8.68,24.92,4.69,26.23-25.22,8.27-25.99,1.31-25.99,27.77v.04Z"/><path class="uuid-f27bfdd4-a1fb-4001-80d4-820a724c9ea2" d="M588.31,621.55c-.47.12-.89.24-1.38.36,2.2-.36,4.41-.65,6.55-1.13,2.45-.49,4.93-.65,7.44-1.07.95-.12,1.96-.36,2.73-.95.53-.42.89-1.07.89-1.72,0-.3.06-.65.06-.95-.83,1.54-2.39,2.51-5.3,2.55-3.8.59-7.38,1.96-11,2.91h0Z"/><path class="uuid-f27bfdd4-a1fb-4001-80d4-820a724c9ea2" d="M566.67,626.42l.18-.06c2.67-.71,5.95-.12,8.09-1.96-2.27.49-4.57,1.01-6.84,1.6-.42.12-.89.24-1.44.42Z"/><path class="uuid-f27bfdd4-a1fb-4001-80d4-820a724c9ea2" d="M530.86,573.43c1.13,2.02,2.2,4.04,3.22,6.13.59,1.31,1.25,2.55,1.72,3.86.06.18.18.36.3.49-.71-1.6-.95-3.46-1.84-4.93-.95-1.9-2.14-3.74-3.4-5.54Z"/><path class="uuid-f27bfdd4-a1fb-4001-80d4-820a724c9ea2" d="M535.08,635.22c.65.12,1.5-.12,2.08-.18,2.02-.42,4.11-.95,6.13-1.44,3.98-.95,7.91-1.9,11.89-2.73.47-.12.83-.49,1.01-.89-2.51.89-5.06,1.72-7.69,2.33-4.41,1.01-8.98,1.84-13.45,2.91h.02Z"/><path class="uuid-1e50570c-cad3-4a0c-9f0d-790ac60e8b79" d="M819.29,578.13c8.03.06,21.48,0,21.48,0l130.63-355.76-16.73-10.35s-90.77,246.09-135.38,366.12Z"/><path class="uuid-1e50570c-cad3-4a0c-9f0d-790ac60e8b79" d="M604.33,441.43c40.08,26.59,176.96,114.63,178.74,117.3-2.57,26.05-15.71,29.51-46.27,33.37,4.57,16.48,34.85,9.04,49.06,2.91,10.42-4.47,12.32-20.41,11.55-28.19,10.48,6.84,19.86,11.31,19.86,11.31l9.65-25.58-217.89-125.39s-3.98,12.78-4.69,14.28Z"/><path class="uuid-20bd8a5a-d332-4165-88ed-7168c579af8e" d="M610.8,551.65c25.87,31.29,69.77,64.84,99.56,96.49,19.58-4.04,58-14.04,64.47-13.85-6.49-7.85-35.98-38.79-38-42.23,9.34-4.87,44.55,3.68,46.76-33.73-19.92-16.12-27.36-19.58-30.52-18.57-5.95,1.9,6.07,22.77-47.89,25.99-21.42-16.3-25.87-25.7-34.74-25.16-19.52,2.55-39.44,7.5-59.66,11.06h.02Z"/><path class="uuid-1e50570c-cad3-4a0c-9f0d-790ac60e8b79" d="M509.44,633.16c.06,8.86-.77,9.81-.77,9.81l94.93-24.27s3.74-10.76,2.79-17.55c-22.31,7.66-82.09,20.22-96.95,31.99v.02Z"/><path class="uuid-406fd2cc-773e-4dea-aca3-430fee972770" d="M609.97,426.75c50.44,30.86,218.06,125.39,218.06,125.39l126.04-338.93-274.1-1.01-.61,2.02s-47.16,146.04-69.41,212.53h.02Z"/><path class="uuid-1e50570c-cad3-4a0c-9f0d-790ac60e8b79" d="M530.39,514.24c17.13,18.57,50.98,65.36,64.84,80.77,2.91,7.2-10.23,7.6-14.4,7.6-18.5-17.68-55.49-70.3-62.88-80.84-.71-1.07-.49-2.51.59-3.28,2.61-1.9,7.66-4.93,11.83-4.29l.02.02Z"/><path class="uuid-1e50570c-cad3-4a0c-9f0d-790ac60e8b79" d="M476.49,530.84c10.82,1.01,30.86-17.19,35.45-1.6,19.64,21.42,34.81,46.27,51.45,69.95,3.4,2.73,4.17,5.48,2.79,7.08-2.61,3.09-11.65,3.8-14.99,4.81-10.05,5.58-23.14,7.73-32.3,13.08-4.75,1.31-17.55-20.53-16.12-22.31,17.96-22.13,55.8,11.77,31.53-22.89-5.64-8.74-11.18-19.21-21.17-23.5-9.34-.71-20.16,5.18-27.12,8.86-2.51-5.12-19.98-33.79-9.53-33.49h0Z"/><path class="uuid-406fd2cc-773e-4dea-aca3-430fee972770" d="M75.05,599.73c-7.73,94.69,31.1,131.21,130.57,125.69,23.32,6.96,46.82,22.95,73.64,20.99,28.62-3.8,55.43-16.6,79.36-32.24,23.56,5.18,45.26-26.29,61.93-40.02,6.43-13.39-1.25-32.18-9.16-44.74-20.22-27.79-57.94-13.15-82.68-11.37-12.78-6.59,19.03-6.71,19.09-14.86,6.84,2.14,15.05,8.21,23.84,7.02,62.88-1.31,66.62-64.13,40.87-105.65-6.65,5.3,1.6,28.68-1.5,39.86-.42,29.14-31.65,27.67-41.34,4.87-25.87-36.52-2.51-88.4-34.62-120.98-7.08-14.04-13.79-28.13-13.79-28.13,0,0-10.82,8.8-24.75,25.81-12.2-15.53-23.2-29.45-33.96-39.86-6.13.83-24.79-2.2-40.33-4.87-4.47,4.04-9.1,8.03-12.01,18.85-69.41,42.35-128.12,114.02-135.14,199.63h-.02Z"/><path class="uuid-c36549c6-62f4-47bf-bd30-ba26373bd3cd" d="M355.45,314.91c-4.35,18.14,14.93,49.37,27.79,21.66,17.84-35.09-20.1-81.42-27.79-21.66Z"/><path class="uuid-c36549c6-62f4-47bf-bd30-ba26373bd3cd" d="M386.62,298.98c2.14,8.39.95,36.83,14.46,37.17,9.28-13.63,5.12-50.86-4.63-50.32-2.85.12-6.25,5.64-9.81,13.15h-.02Z"/><path class="uuid-e3cb4977-10fc-418d-8416-ddfc3110a17a" d="M800.14,567.83s.06.12.12.18c-.06-.06-.06-.12-.12-.18Z"/><path class="uuid-e3cb4977-10fc-418d-8416-ddfc3110a17a" d="M606.94,617.93c0-.83-.71-1.54-1.54-1.54s-1.56.71-1.56,1.54.71,1.54,1.56,1.54,1.54-.65,1.54-1.54Z"/><path class="uuid-e3cb4977-10fc-418d-8416-ddfc3110a17a" d="M496.66,606.08l-.12.12.12-.12Z"/><path class="uuid-e3cb4977-10fc-418d-8416-ddfc3110a17a" d="M462.52,530.07c1.84-5.7,5.82-6.65,10.88-8.51,5.58-2.08,11.18-4.11,16.95-5.7,5.58-1.54,11.18-3.03,16.71-4.75,5.12-1.54,10.17-3.52,15.35-4.87,2.67-.71,5.3-1.9,8.15-1.5,1.13.12,2.33.53,3.15,1.38.06.06.12.06.18.12.83.18,1.31.89,1.9,1.44,1.13,1.13,2.27,2.33,3.4,3.46,2.55,2.73,5.06,5.64,7.44,8.68,5.24,6.13,9.99,12.62,15.17,18.85,10.23,12.32,20.22,24.75,29.91,37.54,2.79,3.56,5.36,7.32,8.15,10.88,1.84,2.39,3.62,4.75,5.3,7.32,1.01,1.6,2.27,3.15,2.97,4.93,1.25,3.09.77,6.49.36,9.69-.24,2.02-.49,4.04-.77,6.01-.18.71-.24,1.5-.49,2.27.06.06.06.18.12.24.24.95-.3,1.9-1.25,2.2-.12.06-.3.06-.42.12-5.76,1.5-11.61,3.03-17.37,4.53-6.49,1.66-12.9,3.4-19.39,5.06-6.78,1.78-13.51,3.52-20.28,5.3-7.08,1.84-14.1,3.68-21.17,5.46-5.7,1.5-11.43,2.91-17.07,4.47-.12.06-.3.06-.49.06-.36,0-.65-.12-.95-.3-.12.12-.3.18-.49.24-.12.12-.3.24-.42.3-.24.12-.49.18-.71.18s-.42-.06-.65-.12c-.49-.18-.77-.47-.95-.89-.12-.24-.24-.49-.36-.65-1.66-3.09-3.28-6.25-4.93-9.34-1.84-3.56-3.74-7.08-5.48-10.7-.89-1.78-1.72-3.62-2.61-5.48-.42-.89-.83-1.84-1.19-2.73-.24-.53-.42-1.01-.59-1.54-.12-.24-.18-.49-.24-.71-.06-.24-.12-.53-.06-.77.12-.49.65-.71,1.13-.49h.06c.42.24.65.65.95,1.07.3.42.59.83.83,1.19.53.83,1.07,1.6,1.54,2.45,2.08,3.52,4.04,7.02,5.95,10.6l.06.06.06.06s.06.06.06.12c0,0,.06.06.06.12,0,0,0,.06.06.06,0,0,.06.06.06.12,0,0,0,.06.06.06v.06s.06.06.06.12c0,0,0,.06.06.06,0,.06.06.06.06.12,1.07,2.02,2.2,4.11,3.28,6.13.59,1.07,1.13,2.2,1.72,3.28.12-1.5.42-2.91.95-4.29.18-.55.53-1.01.89-1.44-.71-1.25-1.38-2.57-1.96-3.86-2.51-5.06-4.87-10.11-7.14-15.23-.77-1.78-1.54-3.52-2.27-5.3.83-.53,1.66-1.07,2.45-1.6.18-.12.42-.3.59-.42.3.71.59,1.38.89,2.08,2.61,6.13,5.42,12.2,8.39,18.2.71,1.44,1.31,2.85,2.14,4.23.3-.12.59-.3.89-.47,10.76-5.6,22.55-9.28,34.14-12.84,10.42-3.15,20.75-6.55,31.29-9.4,6.96-1.6,13.69-4.04,20.65-5.82,1.6-.49,3.22-.59,4.87-.77.3,0,.71-.06,1.13-.12.18-.06.42-.06.59-.12-.06-.12-.12-.24-.12-.36-.95-1.66-1.9-2.91-3.03-4.63-8.51-11.61-17.25-23.14-26.17-34.44-5.82-7.2-11.65-14.4-17.55-21.54-4.35-5.36-8.45-10.88-12.9-16.18-2.45-3.09-4.93-6.19-7.5-9.22-.53-.71-3.4-3.8-4.23-5.82-.53-.06-1.07-.24-1.66-.3-2.14-.12-4.11.59-6.07,1.25-5.76,1.72-40.27,12.01-49.55,15.59-2.73,1.07-5.58,1.84-8.03,3.52-.49.42-.77.95-1.07,1.5,3.98,12.56,9.93,24.33,14.86,36.46.36.89.77,1.84,1.19,2.73-.42.18-.77.42-1.13.65-.53.36-1.01.65-1.5,1.07l-.24.18c-1.38-3.22-2.73-6.49-4.04-9.75-3.8-8.86-7.56-17.78-9.99-27.18-.12-.49-.24-1.01-.36-1.5-.77,1.9-1.54,3.86-1.44,5.95.49,4.75,2.33,9.22,4.17,13.57,2.55,6.07,5.06,12.13,7.6,18.2.42.89-2.27,4.04-2.55,3.09-.95-2.14-1.84-4.29-2.73-6.43-2.51-6.19-5.24-12.26-7.66-18.5-1.25-3.28-2.2-6.65-2.45-10.11-.36-2.79.77-5.36,1.78-7.85l.08-.12ZM604.98,602.17c-.89.36-1.78.65-2.67.89-2.14.42-4.17,1.19-6.19,1.9-12.72,4.35-25.87,7.38-38.67,11.55-15.29,4.81-30.92,8.86-45.14,16.36-.59.3-1.19.59-1.72,1.01-1.25,1.9-.89,4.59-1.13,6.84v.36h.06c6.07-1.6,12.13-3.15,18.26-4.75,7.02-1.84,14.04-3.62,21.11-5.48l20.16-5.24c6.53-1.66,13.02-3.4,19.58-5.06,3.22-.83,6.49-1.66,9.69-2.51,1.78-.49,3.56-.89,5.36-1.38.06-.24.18-.53.24-.77.3-1.5.55-3.03.71-4.57.06-3.03.89-6.19.36-9.16h-.02Z"/><path class="uuid-e3cb4977-10fc-418d-8416-ddfc3110a17a" d="M208.04,405.8c0-.12-.06-.24-.18-.24s-.18.06-.18.18.06.24.18.24.18-.06.18-.18Z"/><path class="uuid-e3cb4977-10fc-418d-8416-ddfc3110a17a" d="M205.19,409.78c0-.12-.06-.24-.18-.24s-.18.06-.18.18.06.24.18.24.18-.06.18-.18Z"/><path class="uuid-e3cb4977-10fc-418d-8416-ddfc3110a17a" d="M356.4,716.66c0-.12-.06-.18-.18-.18s-.18.06-.18.18.06.18.18.18.18-.06.18-.18Z"/><path class="uuid-e3cb4977-10fc-418d-8416-ddfc3110a17a" d="M823.46,370.59l-.12.12.12-.12Z"/><path class="uuid-e3cb4977-10fc-418d-8416-ddfc3110a17a" d="M471.19,532.26c.06-.59,1.66-1.38,1.96-1.44.89-.36,33.73-10.88,33.73-10.88.12,0,.3-.06.42-.12.06.06.06.12.12.12.18.24,9.53,11.65,9.93,12.07,1.96,2.51,3.98,4.93,6.01,7.44,0,0,1.25,1.44,1.66,1.9.18.18.36.42.53.59-.06,0-.12,0-.12.06.95,1.19,16.48,22,16.83,22.49.24.36.53.71.77,1.07-.06,0,22.89,33.61,23.62,36.1,2.67,6.07-.95,6.07-2.02,6.55-3.58,1.6-47,16.6-47.22,16.66-3.74,1.31-6.31-5.95-7.6-7.91-2.55-3.98-5.48-9.28-8.03-13.27-.71-.77,2.97-3.46,3.98-3.09.95.24,1.31,1.25,1.72,2.08,1.07,1.9,2.2,3.8,3.22,5.7.36-.18.65-.36,1.01-.53.77-.42,11.83-5.95,12.01-6.07.06,0,.06-.06.12-.06-.65-1.38-1.31-2.79-1.9-4.17-.71-1.5-1.9-3.28-2.51-4.87-.12-.36,1.38-.3,1.66,0,2.2,2.27,3.98,4.87,5.42,7.66,0,.06.06.06.06.12.36-.18,27.67-11.95,28.25-12.13-1.78-2.51-3.52-4.93-5.24-7.44-.65-.95-1.31-1.84-2.02-2.79-1.44.36-2.85.77-4.23,1.19-3.03.65-6.07,1.31-9.1,2.02-.42.12-.95.24-1.44.24-.77,0-1.5-.3-1.66-1.25-.18-1.25,1.07-1.72,2.08-1.9,4.11-1.01,8.15-2.2,12.26-3.28-1.96-2.79-3.92-5.54-5.89-8.33-3.22,1.31-6.37,2.67-9.81,3.28-.42.06-.89.12-1.31.12-.49,0-1.01-.12-1.38-.49-.83-.77-.42-2.27.65-2.51.59-.12,1.19-.24,1.78-.36,2.79-.65,5.42-1.78,8.09-2.85-2.27-3.22-4.57-6.43-6.84-9.63-4.47,1.38-11.18,3.68-15.69,4.63-1.6-1.72-5.7-11.31-6.13-11.89-1.01.3-7.91,2.79-10.35,3.68.42.59,3.98,5.64,2.39,6.96-.36.18-.65.3-.89.3-1.6,0-2.51-2.79-3.4-3.92-.42-.71-.89-1.38-1.31-2.08-3.22,1.19-6.43,2.45-9.59,3.74,1.19,2.33,2.27,4.75,2.97,7.26.18.3-1.19.77-1.25.49-1.13-1.5-2.08-3.09-3.09-4.69-.49-.77-1.01-1.6-1.5-2.45,1.07,2.2,2.08,4.47,2.91,6.71.49.77.06,1.84-.89,1.96-.06,0-1.38-.71-1.54-1.38-.3-.83-12.44-29.85-12.26-31.47l.04.02ZM565.05,606.08s-.18-1.66-.18-1.72c-3.22.77-10.76,3.98-11.95,4.41.06.12.18,1.38.18,1.38,0,0,10.29-3.4,11.95-4.04v-.02ZM533.71,617.32c.95-.18,12.56-5,17.31-6.43,0,0-.36-1.13-.36-1.44-3.03,1.07-6.07,2.2-9.1,3.15-2.67,1.01-5.3,2.08-7.91,3.22,0,.12,0,1.54.06,1.5ZM517.83,622.74c3.74-.77,13.67-4.57,13.67-4.57l-.18-1.5s-10.23,3.92-13.15,4.93c-.24.3-.49,1.13-.36,1.13h.02ZM510.23,611.68l-.77,2.33s4.63,7.32,5.36,8.09c.18-.49.3-1.19.53-1.72-2.97-4.47-5.12-8.68-5.12-8.68v-.02ZM524.97,604.11c-.36.06-.65.18-.89.36-1.13.59-11.95,6.07-12.26,6.19.89,1.66,4.63,8.45,4.69,8.57,4.75-1.54,9.34-3.03,14.04-4.87-.42-.59-4.81-8.74-5.58-10.23v-.02ZM543.47,595.84c-.36.06-12.5,5.3-14.28,6.13-.49.24-.95.49-1.44.71,1.5,2.55,4.81,9.75,5.24,10.64,5.58-2.27,11.24-4.47,16.95-6.49-2.33-3.86-4.35-7.08-6.47-11v.02ZM545.8,594.83c2.67,3.46,6.37,11.12,6.43,11.24,3.86-1.31,7.79-2.55,11.77-3.68-2.2-3.92-4.69-7.66-7.26-11.37-.59.18-10.35,3.62-10.94,3.8ZM492.63,527.45c-.53.18-1.13.36-1.66.49-2.14.71-4.29,1.38-6.43,2.02-.42.12-.83.24-1.25.36.18.24.42.42.59.65,1.54,1.5,2.91,3.22,4.17,4.93.24-.12.49-.18.77-.3,2.85-1.01,5.76-1.78,8.62-2.55-1.54-1.9-3.09-3.8-4.81-5.58l.02-.02ZM508.29,526.19c-.71-1.01-1.6-1.84-2.39-2.79-2.79.89-5.58,1.78-8.39,2.61-.53.18-1.07.3-1.6.49,1.01,1.31,2.14,2.51,3.28,3.74.53.59,1.07,1.19,1.6,1.78,3.28-1.07,6.55-2.14,9.87-3.09-.77-.89-1.54-1.84-2.39-2.73h.02ZM515.95,554.57c.18.42.42.77.65,1.19.65-.18,1.31-.36,1.84-.59,3.46-1.19,6.9-2.39,10.35-3.46-2.2-2.97-4.53-5.82-6.84-8.68-3.52,1.13-7.08,2.27-10.6,3.4,1.6,2.73,3.09,5.42,4.57,8.15l.02-.02ZM509.52,543.81c3.46-1.07,6.9-2.08,10.29-3.15-1.54-1.96-3.03-3.8-4.53-5.7-.95-1.25-1.9-2.51-2.85-3.68-3.28.89-6.49,1.9-9.69,3.15.83,1.01,1.72,2.02,2.55,3.09,1.5,2.02,2.85,4.17,4.23,6.31v-.02ZM496.8,548.38c1.9-.77,3.86-1.54,5.76-2.33,1.44-.53,2.85-1.01,4.29-1.5-2.27-2.85-4.53-5.7-6.9-8.45-.18-.18-.36-.42-.49-.59-3.15,1.01-6.43,1.84-9.59,2.97.59.89,1.19,1.84,1.72,2.73,1.78,2.33,3.52,4.69,5.18,7.14l.02.02ZM479.08,543.85c1.78,3.09,3.68,6.13,5.24,9.4.12.18.24.42.3.65,2.97-1.78,6.01-3.15,9.1-4.41-.12-.18-.18-.3-.3-.49-.95-1.84-2.08-3.52-3.34-5.18-1.01-1.44-1.96-2.91-2.85-4.41-2.73,1.19-5.36,2.55-8.15,3.68-.12,0-.18.06-.3.06.12.24.18.42.3.65v.04ZM477.54,540.51s.06,0,.12-.06c2.73-1.07,5.36-2.45,8.03-3.62-.18-.3-.42-.59-.59-.89-.89-1.44-1.96-2.91-2.97-4.47-.12-.24-.3-.49-.42-.71-.95.24-1.84.49-2.79.77-.95.3-1.9.59-2.85.89-.71.24-1.44.49-2.14.65h-.06c1.07,2.55,2.39,5,3.68,7.44Z"/><path class="uuid-e3cb4977-10fc-418d-8416-ddfc3110a17a" d="M516.52,521.56l1.31-4.93.18.06v-.06c4.35-.95,8.68-3.22,13.15-3.28,2.27-.77,5.95,6.65,7.79,8.21,6.49,8.45,13.02,16.83,19.64,25.16,12.56,16.66,26.53,32.36,37.78,49.97.59,5.64-9.59,6.84-13.79,7.02-4.93-.18-8.15-5.24-10.82-8.8-18.79-24.03-38.3-48.11-55.19-73.33l-.04-.02ZM535.79,541.42s-.06-.12-.12-.12l-.42,2.14c2.33,2.97,4.57,6.01,6.9,8.98l.49-2.27c-2.27-2.91-4.57-5.82-6.84-8.74ZM544.36,552.42l-.49,2.33c2.33,3.03,4.63,6.01,6.96,9.04l.47-2.45c-2.27-2.97-4.57-5.95-6.96-8.92h.02ZM552.64,566.09c2.67,3.52,5.36,7.08,8.09,10.6l.49-2.45c-2.67-3.56-5.36-7.08-8.09-10.6l-.49,2.45ZM562.45,579c2.61,3.46,5.3,6.78,7.85,10.23l.49-2.33c-2.63-3.46-5.24-6.9-7.85-10.35l-.49,2.45h0ZM573.75,590.61c-.42-.49-.77-.95-1.19-1.44l-.47,2.39c2.49,3.4,5.12,6.13,7.6,9.53.24-.53.59-1.07,1.01-1.54-1.6-3.68-4.63-5.76-6.96-8.92v-.02ZM533.55,541.12l.49-2.27c-2.27-2.55-4.29-5.36-6.43-8.09l-.36,1.9c1.5,2.08,5.7,7.73,6.31,8.45h0ZM519.39,519.7l-.36,1.96c2.33,2.67,4.29,5.76,6.43,8.62l.36-1.84c-1.72-2.2-5.95-8.09-6.43-8.74h0ZM533.91,519.58c-1.07-1.54-2.51-2.97-3.46-4.57-2.73,1.31-5.76,2.02-8.57,3.09,1.9,2.61,4.11,5.24,6.07,7.85,3.4-.18,6.71-.95,10.11-1.07-1.44-1.78-2.79-3.52-4.17-5.3h.02ZM543.78,532.2c-1.44-1.78-2.85-3.56-4.23-5.42-3.34.18-6.59,1.13-9.93,1.38,2.14,2.79,4.35,5.58,6.49,8.45,3.28-.59,6.55-1.66,9.87-1.6-.71-.95-1.44-1.84-2.2-2.79v-.02ZM550.37,540.71c-1.13-1.5-2.33-2.97-3.46-4.41-3.15.59-6.07,1.66-9.16,2.55,2.39,3.09,4.69,6.19,7.02,9.28,3.22-.77,6.43-1.54,9.75-2.02-1.38-1.84-2.73-3.62-4.17-5.42l.02.02ZM556.86,549.04c-.42-.49-.77-1.01-1.19-1.5-3.09.83-6.07,1.9-9.16,2.85,2.39,3.09,4.69,6.19,7.08,9.28,3.28-.71,6.43-2.02,9.81-2.08-2.2-2.91-4.35-5.76-6.53-8.57v.02ZM569.83,565.75c-1.72-2.2-3.46-4.35-5.12-6.55-3.15.77-6.13,1.96-9.22,2.85,2.55,3.34,5.18,6.65,7.73,9.99,3.52-.83,7.08-1.66,10.64-1.07-1.31-1.72-2.67-3.52-4.04-5.24l.02.02ZM576.38,574.2c-.36-.49-.71-.95-1.07-1.44-3.68.49-6.49.89-9.93,1.9,2.57,3.22,5.12,6.43,7.62,9.69,3.56-.77,7.26-.36,10.88-.71-2.57-3.09-5.06-6.31-7.5-9.46v.02ZM592.62,594.12c-2.51-2.73-4.93-5.54-7.2-8.45-3.46.83-6.9.95-10.35,1.5,2.39,3.52,5.18,6.84,7.02,10.64,3.74-.71,8.33-1.96,12.01-2.14-.53-.49-1.01-1.01-1.48-1.54h0ZM584.41,601.26c3.28-.12,6.71-.49,9.65-1.96.47-.71,1.01-1.44,1.48-2.2-3.22.95-9.99,2.14-13.27,2.73-.06.53-.18.95-.18,1.6.71.06,1.54-.12,2.33-.18v.02Z"/><path class="uuid-e3cb4977-10fc-418d-8416-ddfc3110a17a" d="M602.23,441.68c.12-.3.18-.59.3-.89.55-1.6,1.07-3.28,1.66-4.87,2.73-8.09,5.42-16.18,8.15-24.33,2.91-8.68,5.82-17.37,8.74-26.11,2.91-8.74,5.82-17.43,8.8-26.17,2.85-8.45,5.64-16.89,8.51-25.34,2.79-8.27,5.52-16.54,8.33-24.79,2.97-8.86,5.95-17.68,8.86-26.53,2.73-8.09,5.42-16.18,8.15-24.27,2.79-8.39,5.64-16.77,8.45-25.16,1.38-4.04,2.73-8.03,4.17-12.07.77-2.2,1.56-4.41,2.39-6.55.36-.89.71-1.78,1.07-2.61v-.06c.12-.3.3-.53.53-.71h.06l.06-.06c.12-.06.3-.12.42-.12.12-.06.18-.06.3-.12.18-.06.42-.12.59-.12.65-.12,1.31-.12,1.96-.12,1.9-.12,3.8-.18,5.7-.18,10.11-.18,20.16-.12,30.28-.06,10.76.06,21.48.06,32.24.12,11,.06,22,.06,33.01.12,10.42.06,20.75.06,31.17.12,10.76.06,21.54.06,32.24.12,10.6.06,21.11.06,31.65.12,10.48.06,20.87.06,31.35.12,9.46.06,18.91.06,28.37.12,4.75,0,9.57.06,14.4.06.3,0,.55.06.77.18.53-.06,1.13.12,1.54.24,4.41,1.54,8.27,4.29,12.13,6.78,1.25.95,3.58,1.66,3.58,3.56,0,.12-.06.3-.12.42v.12c.06.53-.06,1.07-.18,1.54-.24.77-.47,1.54-.71,2.33-.65,2.08-1.44,4.17-2.14,6.25-1.5,4.41-3.15,8.92-4.75,13.51-4.04,11.24-8.15,22.43-12.26,33.61-4.65,12.72-9.34,25.46-13.97,38.24-4.63,12.78-9.34,25.46-13.97,38.24-4.87,13.39-9.81,26.78-14.68,40.21-4.93,13.57-9.93,27.06-14.86,40.63-4.75,12.96-9.53,25.99-14.28,38.95-4.69,12.9-9.46,25.77-14.16,38.67-4.65,12.66-9.28,25.28-13.91,37.94-3.22,8.74-6.37,17.43-9.59,26.17,0,.12,0,.3-.12.49-.42.83-1.56.89-2.39,1.07-2.33.3-4.65.49-7.02.53h-2.45c-2.97,0-5.89-.12-8.8-.3-.77-.06-1.9,0-2.85-.24h-1.25s-.12,0-.18-.06c-.18-.06-.3-.06-.49-.12-.06,0-.12,0-.18-.06-.12,0-.18-.06-.3-.06-.06,0-.12,0-.24-.06h-.12l-.06-.06h-.12s-.18-.06-.24-.12c-1.38-.71-2.67-1.5-3.98-2.33-3.46-2.02-6.78-4.17-10.17-6.31-.65-.42-1.31-.83-1.9-1.25-.53,1.6-.89,3.22-1.38,4.75-1.01,4.47-1.9,8.92-3.09,13.39-.06.18-.18.42-.3.53.06.3,0,.65-.18,1.07-.06.18-.12.3-.24.42,0,.24-.12.49-.24.71-.12.24-.18.42-.3.53-.06.42-.24.89-.71,1.25-.18.12-.3.24-.47.3-.3.42-.77.71-1.25.83-2.49,1.19-4.93,2.61-7.66,3.28-11.43,3.86-23.56,5.42-35.51,6.31,4.75,4.57,9.4,9.22,14.16,13.85,2.79,2.67,5.42,5.42,8.09,8.21,1.78,1.84,3.74,3.56,5.36,5.58.95.89,1.31,2.45.06,3.28-.3.18-.61.3-.89.3-.47.24-1.13.42-1.48.53-3.8.89-7.73,1.38-11.59,2.08-5.48,1.5-11,2.85-16.54,4.04-4.75.83-9.53,1.56-14.28,2.57-7.02,1.66-13.91,3.86-20.93,5.52-.12,0-.24.06-.42.06-.65,0-1.25-.42-1.56-.95-.36-.3-.65-.65-1.01-.95-3.09-2.97-6.19-5.89-9.28-8.86-3.22-3.03-6.37-6.07-9.59-9.16s-6.47-6.19-9.69-9.28c-3.34-3.15-6.59-6.37-9.93-9.53-3.28-3.09-6.55-6.25-9.75-9.34-3.28-3.15-6.53-6.25-9.81-9.4-3.34-3.22-6.65-6.37-9.99-9.59-3.28-3.15-6.53-6.25-9.75-9.4-3.22-3.09-6.43-6.25-9.57-9.34-3.22-3.15-6.43-6.31-9.46-9.59-.36-.36-.71-.77-1.13-1.25-.36-.42-.89-1.01-.77-1.6.06-.12.12-.3.24-.36-.06-.89.59-1.66,1.48-1.84,2.2-.42,4.35-.77,6.55-1.19,3.8-.71,7.6-1.38,11.49-2.08,3.86-.71,7.79-1.44,11.65-2.14,3.86-.71,7.66-1.38,11.55-2.08,3.92-.71,7.85-1.44,11.83-2.14,2.02-.36,4.04-.71,6.13-1.07.89-.18,1.84-.3,2.73-.49.49-.06.89-.12,1.38-.24.24,0,.49-.06.71-.06s.49,0,.65.12c.36.12.59.36.77.65.24.36.3.83.18,1.25q-.04.2,0,0c.06-.3-.06.12-.06.18.12.06.18.12.3.18,3.68,2.45,6.84,5.58,10.23,8.45,2.73,2.14,5.42,4.63,8.27,7.02,2.73,2.33,5.48,4.75,7.91,7.38.3.36.59.65.89.95.06,0,.12,0,.12-.06,1.07-.12,2.14-.12,3.22-.12,5.82-.59,11.61-1.66,17.43-2.14,3.34-.24,6.55-1.44,9.75-2.14,2.79-.77,5.54-2.2,7.79-3.98,2.33-1.84,4.04-4.35,5.54-6.84.83-2.02,1.66-4.11,2.39-6.19.47-1.07.53-2.39,1.19-3.28.12-.12.18-.18.3-.18-.59-.36-1.13-.71-1.72-1.07-7.14-4.63-14.34-9.16-21.54-13.79-7.38-4.75-14.74-9.53-22.13-14.28-7.32-4.69-14.68-9.4-22-14.16-7.26-4.69-14.52-9.34-21.76-14.04-7.14-4.57-14.28-9.16-21.42-13.79-7.14-4.57-14.28-9.16-21.42-13.79-3.09-2.02-6.25-4.04-9.34-6.01-1.13-.71-2.27-1.5-3.4-2.2-.49-.3-.95-.59-1.44-.89-.36-.24-.77-.49-1.13-.71l-.06-.06h-.24c-.18,0-.36,0-.53-.06-.65-.36-1.13-1.38-.83-2.27v.08ZM950.32,214.8l-20.59-.06c-10.11-.06-20.28-.06-30.4-.12-10.6-.06-21.11-.06-31.71-.12-10.6-.06-21.17-.06-31.71-.12-10.66-.06-21.3-.06-31.99-.12-10.48-.06-20.93-.06-31.47-.12-11-.06-22.06-.12-33.07-.12-10.48-.06-20.93-.06-31.41-.18-5.06-.06-10.05-.06-15.11-.18-2.33-.06-4.63-.06-6.9-.18-1.07-.06-2.2-.12-3.28-.18-.18,0-.4-.06-.65-.06-.18.59-.3,1.19-.47,1.78-.55,1.96-1.13,3.86-1.72,5.76-2.57,8.21-5.36,16.36-8.09,24.51-2.85,8.39-5.6,16.83-8.45,25.22-2.79,8.39-5.58,16.71-8.39,25.1-2.91,8.68-5.82,17.37-8.74,26.05-2.73,8.21-5.48,16.42-8.27,24.63-2.85,8.57-5.7,17.13-8.62,25.64l-9.04,27c-2.85,8.45-5.64,16.95-8.51,25.4-.24.65-.42,1.25-.65,1.9.24,0,.42.06.59.12h.06s.12.06.18.12.12.06.18.12c.36.18.71.36,1.01.59l1.6.89c1.25.71,2.51,1.44,3.74,2.14,8.03,4.63,16.06,9.28,24.15,13.91,8.03,4.63,16,9.22,24.03,13.85,8.03,4.63,16.06,9.22,24.09,13.85,8.15,4.69,16.24,9.4,24.39,14.04,7.97,4.57,16,9.22,23.97,13.79,7.85,4.53,15.71,9.04,23.56,13.57,7.79,4.47,15.59,8.98,23.38,13.51,7.6,4.41,15.17,8.8,22.77,13.21,3.74,2.2,7.5,4.41,11.24,6.59,1.84,1.07,3.62,2.2,5.42,3.28.59.36,1.13.71,1.72,1.13,3.62-9.81,7.26-19.58,10.88-29.39,4.47-12.13,8.98-24.27,13.45-36.4,4.69-12.72,9.4-25.46,14.16-38.24,4.59-12.32,9.1-24.69,13.69-36.99,5.06-13.67,10.11-27.3,15.17-40.97,4.93-13.39,9.93-26.78,14.86-40.21,2.55-6.9,5.12-13.79,7.66-20.71,2.61-7.14,5.24-14.22,7.91-21.36,5-13.51,9.99-26.94,15.05-40.45,2.2-5.82,4.41-11.71,6.71-17.55,1.19-3.09,2.45-6.19,3.68-9.22.65-1.6,1.31-3.22,2.02-4.75-.71.12-1.44.12-2.14.06l.04.04ZM824.63,577.18c2.79.18,5.54.18,8.33.18h2.08c1.31-.06,2.91-.06,4.35,0,1.9-5.18,3.74-10.29,5.64-15.47,4.47-12.2,8.92-24.33,13.39-36.46,4.63-12.62,9.22-25.22,13.85-37.84,4.75-13.08,9.57-26.17,14.4-39.25,5.06-13.73,10.05-27.55,15.11-41.28,4.81-13.21,9.69-26.41,14.52-39.68,4.75-12.9,9.46-25.83,14.22-38.79,4.69-12.9,9.46-25.77,14.16-38.67,4.23-11.61,8.51-23.2,12.78-34.74,2.02-5.54,4.11-11.06,6.19-16.6,1.19-3.15,2.39-6.25,3.56-9.4.59-1.6,1.25-3.15,1.9-4.75.18-.49.36-.89.59-1.31-.71-.36-1.31-1.01-1.96-1.38-2.39-1.54-4.81-2.97-7.2-4.47-.89-.71-3.34-1.96-4.93-3.22-.24.3-.59.53-.95.65-.12.3-.18.65-.3.95-.47,1.54-1.01,3.15-1.48,4.69-1.01,3.03-2.08,6.07-3.09,9.1-1.84,5.3-3.8,10.76-5.76,16.24-2.14,5.95-4.35,11.95-6.53,17.9-2.49,6.71-5,13.51-7.44,20.22-2.63,7.14-5.3,14.28-7.91,21.48-5.12,13.85-10.23,27.73-15.35,41.58-4.93,13.45-9.93,26.82-14.86,40.27-4.81,12.96-9.59,25.93-14.4,38.91-4.69,12.62-9.34,25.28-14.04,37.94-4.57,12.44-9.16,24.79-13.73,37.23-4.59,12.44-9.22,24.86-13.79,37.29-3.15,8.51-6.31,17.01-9.46,25.58-1.6,4.29-3.15,8.62-4.75,12.9.83,0,1.9.06,2.91.12l-.02.08ZM745.69,599.95c11.12-.18,22.31-2.02,33.13-4.75,2.51-.89,4.81-1.38,7.32-2.45,1.19-.36,3.09-1.84,4.69-2.33.06-.12.18-.24.3-.36,0,0,.06-.06.12-.06.06-.18.12-.42.24-.65,0-.06.06-.12.06-.12,0-.24.06-.53.18-.83.12-.24.18-.42.36-.59-.06-.77.24-1.6.47-2.33.55-2.02.95-4.04,1.44-6.01.83-3.8,1.72-7.6,2.97-11.37-1.48-.95-2.91-1.84-4.41-2.79-2.55-1.6-5.06-3.28-7.54-4.93-.24,1.84-.49,3.68-.83,5.48-.83,4.29-2.55,8.33-4.63,12.2-2.27,4.23-5.36,8.51-10.17,9.75-4.45,1.5-9.1,1.96-13.67,2.91-3.4.65-6.84,1.07-10.23,1.54-2.45.49-4.93.89-7.44,1.13,1.84,1.84,3.68,3.68,5.66,5.42.4.36.83.71,1.19,1.13.18-.06.53-.06.83,0h-.04ZM752.83,542.43c-.59,2.61-1.31,5.24-2.27,7.73-2.14,4.17-5.3,7.85-9.46,10.11-2.14,1.07-4.29,2.27-6.65,2.61-2.51.65-5,1.5-7.56,1.84-7.6.65-15.17,2.27-22.77,2.55-1.13,0-1.72-.89-1.72-1.78-1.66-1.31-3.28-2.67-4.93-3.98-5.3-4.17-10.6-8.33-15.77-12.66-2.43-2.2-4.63-4.11-7.48-5.95-.36-.24-.71-.65-.77-1.19v-.49c-.53.12-1.07.24-1.6.3-1.44.3-2.85.53-4.23.77-3.98.71-7.97,1.5-11.95,2.2-3.86.71-7.79,1.44-11.67,2.14-3.86.71-7.66,1.38-11.53,2.08-3.86.71-7.73,1.44-11.61,2.08-2.85.53-5.7,1.07-8.57,1.54.65.53,1.31,1.07,1.9,1.66,3.34,2.97,6.59,5.95,9.87,8.98,3.28,3.03,6.55,6.13,9.81,9.22,3.34,3.15,6.71,6.37,10.05,9.53,3.22,3.09,6.49,6.13,9.69,9.22,3.28,3.15,6.59,6.31,9.93,9.46s6.61,6.31,9.93,9.46c3.28,3.15,6.53,6.25,9.81,9.4,3.28,3.09,6.47,6.19,9.75,9.28,3.15,3.03,6.37,6.07,9.53,9.1,2.79,2.67,5.64,5.36,8.45,8.03.12,0,.24-.06.36-.06,1.84-.42,3.62-1.01,5.48-1.48,8.27-2.33,16.6-4.47,25.1-5.7,6.71-.95,13.33-2.79,19.92-4.29,3.44-.59,6.96-.71,10.42-1.07h1.01l-.12-.12c-1.31-1.6-2.85-2.97-4.29-4.41-5.7-6.01-11.71-11.77-17.62-17.68-4.29-4.63-9.16-8.68-13.33-13.45-.71-1.07-5.36-5.42-2.91-6.19.18,0,.36,0,.55.06.12-.65.59-1.19,1.48-1.38,1.96-.24,3.98-.49,5.95-.83,4.53-.89,9.16-1.25,13.69-2.27,4.04-.77,8.15-1.25,12.07-2.61,5.89-1.72,9.63-11.12,11.77-16.54.55-1.6.95-3.22,1.31-4.87.24-.83.55-2.73,1.13-3.92-.24-.18-.49-.36-.77-.49-3.62-2.39-7.26-4.75-10.88-7.08-3.5-2.27-7.02-4.53-10.54-6.78-2.51-1.6-5.06-3.22-7.56-4.81v.12c-.12.83-.3,1.72-.42,2.55l.04.02ZM608.05,442.32c.71.49,1.38.89,2.08,1.31l19.33,12.5c7.14,4.57,14.28,9.16,21.42,13.79,7.2,4.63,14.4,9.28,21.6,13.91,7.2,4.63,14.46,9.34,21.66,13.97,7.44,4.75,14.86,9.59,22.31,14.4,7.44,4.75,14.86,9.59,22.25,14.4,7.08,4.57,14.16,9.16,21.24,13.79,3.52,2.27,7.02,4.53,10.54,6.78,3.58,2.33,7.2,4.63,10.76,6.9,3.62,2.27,7.26,4.57,10.82,6.84,3.22,2.08,6.37,4.11,9.59,6.19,3.34,2.2,6.59,4.35,9.87,6.55,1.5,1.01,2.91,2.02,4.35,3.03.49.36,1.01.71,1.5,1.07.42-1.13.83-2.2,1.25-3.34,2.61-7.02,5.18-13.97,7.79-20.99-.24-.12-.42-.18-.65-.3-1.07-.53-2.08-1.07-3.15-1.66-3.8-2.08-7.62-4.23-11.37-6.37-3.8-2.14-7.6-4.35-11.37-6.49-7.73-4.41-15.47-8.86-23.2-13.33-7.73-4.47-15.53-8.92-23.32-13.39-7.97-4.57-16-9.22-23.97-13.79-7.91-4.57-15.82-9.1-23.74-13.67-8.09-4.69-16.24-9.34-24.33-14.04-8.09-4.63-16.18-9.34-24.33-13.97-8.03-4.63-16.06-9.28-24.15-13.91-3.92-2.27-7.85-4.53-11.77-6.78-1.96-1.13-3.92-2.27-5.89-3.4-.95-.53-1.9-1.13-2.85-1.66-.59-.36-1.19-.71-1.78-1.01-.12-.06-.24-.12-.3-.18-.06,0-.06-.06-.12-.06-1.31,3.86-2.61,7.79-3.92,11.71.65.3,1.31.77,1.9,1.19h-.04Z"/><path class="uuid-e3cb4977-10fc-418d-8416-ddfc3110a17a" d="M383.58,317.82c-.65-.06-1.44-.06-2.2-.06.06.18.06.36.06.49.12,1.54-1.38,2.61-2.61,3.22-.36.12-.77.24-1.13.24-1.5,0-2.97-1.01-3.4-2.45-.06-.12-.06-.3-.06-.42-2.91.89-5.64,2.2-8.21,3.8-.24.06-.42.12-.65.12-1.54,0-2.51-2.2-1.01-3.28,4.29-2.73,9.16-4.69,14.22-5.06h.71c1.96,0,4.04,0,5.58,1.31,1.38,1.31.24,2.39-1.31,2.08h.02Z"/><path class="uuid-e3cb4977-10fc-418d-8416-ddfc3110a17a" d="M543.13,593.46c-.36-1.13-.73-2.27-1.25-3.34-.71-1.54-1.72-2.85-2.85-3.98-.77-2.51-3.09-5.24-5-7.44.12-.24.12-.53,0-.83-.3-.59-.59-1.13-.83-1.72-.3-.65-.53-1.25-.83-1.9-.3-.65-.65-1.25-1.01-1.84s-.65-1.13-1.01-1.66c-1.62-2.37-3.4-4.63-5.3-6.71-1.84-1.96-3.74-3.86-5.76-5.64-1.01-.89-2.08-1.78-3.22-2.61-.42-.3-.83-.59-1.31-.83-.16-.12-.34-.24-.53-.3-.53-.24-1.01-.3-1.54-.36-.67-.06-10.78,2.27-13.51,3.22-12.42,4.11-22.89,12.19-34.08,18.69-10.94,6.77-22.31,12.84-33.49,19.21-8.8,4.89-17.96,9.16-27.06,13.51-3.5,1.84-7.2,3.46-10.76,5.24-1.6-.36-3.22-.67-4.75-1.19-1.96-.67-3.92-1.07-5.89-1.38,3.74-.65,7.38-1.9,11-3.03,7.56-2.85,14.16-7.79,20.35-12.84,2.67-2.33,5.24-4.94,7.2-7.91,2.39-4.04,4.17-8.43,5.42-12.96,3.92-14.34,1.42-29.45-1.5-43.72-1.13-5.82-2.97-11.53-5.48-16.89-2.69-4.87-5.66-9.69-9.28-13.91-.4-6.55-.83-13.08-1.54-19.58-1.13-10.54-2.75-20.99-3.46-31.53-.12-3.34,0-7.2,2.14-9.99,3.92-4.81,8.49-9.04,11.83-14.28,2.55-4.41,3.62-7.26,1.54-12.26-1.5-5.12-3.22-10.29-6.37-14.58-1.5-1.6-3.74-4.57-6.07-4.57-.16.06-.4.12-.59.18-.18-.91-.77-1.96-1.07-2.45-1.01-1.44-2.14-2.79-3.4-4.11.12-.79-.28-1.68-.53-2.39-1.48-3.64-3.74-6.8-6.65-9.4-1.56-1.84-3.52-1.96-5.36-1.19-.22-.24-.47-.47-.71-.77.12-.06.18-.12.24-.18,2.49-3.62,4.41-7.48,5-11.83.49-2.75.95-5.6.3-8.39-.06-.18-.06-.3-.12-.49,3.58-.95,6.67-2.73,7.32-6.65.18-2.75-1.54-5.06-2.67-7.38-.12-.24-.3-.53-.42-.77,1.48-1.01,2.67-2.51,3.62-4.04,1.38-2.2,2.33-4.63,3.03-7.14.77-2.45,1.23-5.02,1.6-7.56.28-2.51.47-5,.53-7.5.06-5.12-.34-10.29-1.66-15.23-.65-2.45-1.54-4.87-2.79-7.08-1.29-2.2-3.09-4.47-5.7-5.12-.65-.18-1.44-.24-2.02,0,.61-1.6,1.07-3.28,1.44-4.93,1.01-4.47,1.31-9.1.95-13.63-.34-4.63-1.35-9.2-2.85-13.67-1.48-4.29-3.5-8.39-5.82-12.26-2.39-3.98-5.24-7.73-8.39-11.18-3.03-3.28-6.35-6.31-9.87-9.1-3.58-2.81-7.38-5.3-11.37-7.5-3.92-2.2-8.09-4.04-12.38-5.54-17.09-6.01-25.64-8.27-46.94-9.22-4.83-.24-9.71-.24-14.4.95-15.59,2.63-30.52,8.64-43.6,17.49-8.64,5.7-16.85,12.13-23.68,19.86-13.45,16-21.84,37.05-24.75,57.7-.77,6.77-.65,13.63-.06,20.47.36,5.89,1.01,11.79,2.33,17.49,1.23,5.7,2.49,11.41,4.63,16.83,2.97,7.32,6.49,14.46,10.11,21.54,1.68,3.26,3.46,6.53,5.36,9.75.67,1.01,1.31,2.02,2.39,2.61-.22.22-.47.47-.71.71-1.38,1.23-2.63,2.14-3.52,3.74-1.72,2.67-3.26,5.36-4.69,8.21-1.62,3.4-2.69,5.18-2.51,7.02-1.96-.06-3.82.71-5.42,1.78-2.08,1.23-3.98,2.43-5.95,3.74-5.36,3.62-11.06,6.84-16.18,10.88-10.23,7.6-19.7,16.12-29.57,24.15-4.59,4.29-9.22,8.45-13.45,13.08-2.97,3.46-6.01,6.84-9.04,10.23-6.19,7.69-11.37,15.77-16.95,23.74-4.41,6.59-8.94,13.15-12.62,20.22-5.06,9.53-9.77,19.21-13.51,29.26-2.91,8.76-5.42,17.62-7.44,26.66-1.01,4.75-1.66,9.53-2.61,14.28v.1c-2.39,14.46-4.23,29.08-3.52,43.6.36,6.29.67,12.6,1.31,18.85.59,4.87,1.72,9.71,2.85,14.46,2.73,10.42,5.1,21.05,10.64,30.4,6.61,11.18,16.36,20.65,27.79,26.84,5.66,2.85,11.73,4.87,17.68,6.96,6.59,1.84,13.27,3.68,19.98,5,9.53,1.72,19.17,2.67,28.8,2.73,3.92-.06,7.85-.47,11.77-.53,2.61-.06,5.18,0,7.79-.18,1.9-.06,3.8-.49,5.64-.24.42.12.89,0,1.25-.24,1.72,1.13,3.46,2.26,5.24,3.22,3.03,1.78,6.07,3.62,9.4,4.93,3.03,1.01,6.07,2.08,9.04,3.4,7.62,2.97,15.35,5.88,23.32,7.85,7.02,1.29,14.22,2.85,21.42,2.85,8.45-.18,16.79-1.8,24.75-4.47,9.1-2.87,17.78-6.86,26.05-11.55,6.29-3.2,12.9-5.95,18.91-9.63,2.2-1.38,4.41-2.69,6.43-4.29,1.54-1.13,3.03-2.57,4.75-3.52.83,1.13,2.51,1.72,5.18,1.72.49,0,.95-.06,1.44-.06,3.68-.49,7.26-1.96,10.82-3.09,4.69-1.78,8.92-4.53,13.02-7.26,7.42-4.35,13.91-10.17,19.74-16.48,4.53-5.12,10.29-9.04,14.52-14.46,1.74-2.79,2.81-5.89,3.34-9.1,4.53-3.15,7.44-5.48,12.13-8.33,9.69-6.49,18.91-13.73,27.83-21.17,7.32-6.31,14.34-13.02,21.54-19.52,6.07-5.34,11.55-11.65,18.51-15.82,8.57-5.66,15.41-8.09,25.7-6.19,1.72.18,3.4.46,5.06.95,2.14.77,5.06,1.36,6.84-.42.89-.89.85-2.14.36-3.22ZM413.43,535.43c-.12-1.5-1.48-19.46-1.78-24.63-.12-1.9-.24-3.74-.36-5.64,1.96,3.2,3.92,6.35,5.64,9.69,2.27,4.75,3.74,9.87,5,14.93,2.55,12.84,5.18,26.23,3.03,39.25-3.34,16.46-8.55,22-22.19,31.1-2.81,1.6-5.48,3.44-8.45,4.63-2.33.95-4.81,1.56-7.26,2.33l.04-.02c-6.31,1.78-12.96,2.27-19.39,1.19-4.71-.71-9.28-1.84-13.63-3.68-2.37-.95-4.69-2.02-6.59-3.74-2.51-1.78-4.75-3.86-7.08-5.89-1.07-.73-1.66-2.2-3.03-2.33-1.72-1.62-3.32-3.34-4.63-5.24-1.44-2.2-2.75-4.45-3.52-6.96-1.31-3.82-2.57-7.62-3.4-11.49-.49-1.8-.12-3.64,0-5.42.77-10.64,1.84-21.4,4.04-31.87.95-5.36,2.69-10.54,5.48-15.17,3.03-4.39,7.32-7.67,11.61-10.7,2.49-1.62,5.22-2.57,7.6-4.17.06.71.12,1.38.18,2.02.36,3.4.77,6.84,1.13,10.23.06.83.16,1.9.59,2.61.16,1.31.34,2.61.59,3.92.65,3.46,1.54,6.9,2.61,10.29.53,1.78,1.19,3.52,1.84,5.24,1.66,4.23,3.62,8.27,5.95,12.07,2.08,3.4,4.47,6.67,7.14,9.59,3.03,3.28,6.49,6.19,10.48,8.21.3.18.65.36.95.49,1.9.83,3.8,1.42,5.82,1.72.79.12,1.62.18,2.39.18,1.5,0,2.97-.16,4.41-.59,4.17-1.19,7.48-4.29,9.75-7.85l.06-.06c2.27-3.68,3.64-7.85,4.35-12.13.28-2.02.53-4.04.65-6.13.12-1.96.12-3.98,0-6.01ZM341.03,611.13c2.27-1.19,4.41-2.57,6.37-4.11.4-.3,1.01-.65,1.54-1.01.24.18.53.36.77.49,3.5,1.72,7.26,3.03,11.06,4.04-1.5.24-2.97.53-4.41.83-4.83.77-9.65,1.78-14.46,2.67-2.85.46-5.95.34-8.62,1.54-.89.55-1.42,1.38-1.6,2.33-.49-.16-.89-.34-1.31-.65-.65-.42-1.31-.83-1.96-1.31,4.23-1.54,8.88-2.14,12.62-4.81h0ZM320.53,457.73c-.34-3.92-2.43-7.26-4.63-10.42-2.79-4.35-6.25-8.21-9.28-12.38-2.61-3.32-5.18-6.59-7.73-9.87,2.14-2.08,3.98-4.45,5.95-6.65,2.08-2.31,4.29-4.51,6.43-6.84,3.16-3.09,6.31-6.25,9.34-9.53,0,.12.06.18.06.3.06.24.24.36.49.36,9.75,15.47,14.22,33.79,14.86,51.94.1,4.57-.06,9.1-.42,13.67-.12,4.53-1.01,8.98-2.14,13.33-2.26-2.99-4.87-5.6-7.14-8.57-2.08-2.33-3.92-4.93-6.31-6.96.83-2.75,1.01-5.6.53-8.39ZM346.74,410.17c-2.63,3.74-2.81,8.43-2.45,12.72.55,5.76,1.5,11.55,2.51,17.25-1.38-2.14-2.79-4.29-4.17-6.43-2.08-3.56-4.63-6.78-7.02-10.11-.79-1.07-1.56-2.2-2.39-3.34-.42-1.19-.83-2.33-1.31-3.52-1.5-3.68-3.4-7.54-5.42-10.88-1.31-1.9-2.39-4.17-3.98-5.89,1.66-1.8,3.34-3.64,4.93-5.54.95-1.07,1.96-2.02,2.91-3.09,1.38.83,2.87,1.62,4.41,2.2,4.51,2.61,9.63,3.98,14.68,5.06,2.02.36,3.98.83,5.95,1.07-3.86,3.76-8.37,9.53-8.68,10.48l.02.02ZM336.3,500.14c.18-4.75-.28-9.53-.65-14.22.95-1.42,1.23-3.28,1.72-4.87.24-1.56.71-2.97,1.01-4.47.65-3.98.77-7.97,1.07-11.95.65-11.89-.49-23.9-3.52-35.45.06.06.06.12.12.18,2.91,4.51,5.6,9.16,8.39,13.73h-.02c1.56,2.49,2.85,5.12,4.29,7.67,0,.12.06.3.12.42,1.72,10.11,3.28,20.22,4.04,30.46.42,5.82.91,11.61,1.44,17.37-2.57,1.54-5.54,2.31-8.21,3.74-4.39,2.63-8.49,5.78-11.83,9.59,1.01-3.98,1.78-8.09,2.02-12.2ZM408.92,396.21c2.57,1.72,4.29,4.53,5.54,7.26,1.66,3.03,2.91,6.25,3.98,9.46,1.74,3.8,1.38,5.58-.77,9.04-2.67,4.87-7.18,8.8-10.64,13.08-6.71,6.19-4.39,16-3.74,24.03.71,7.73,1.96,15.41,2.67,23.14.77,6.59,1.05,13.39,1.54,19.98.49,7.85,2.39,30.88,2.39,31.53,0,.79.06,1.62.06,2.39v.04c0,1.11,0,2.31-.24,3.62-.12,2.33-.28,4.63-.65,6.9-.24,1.72-.65,3.4-1.13,5.06-.36,1.17-.79,2.37-1.31,3.56-.36.89-.83,1.72-1.31,2.55-.06.06-.06.12-.12.18-.42.65-.89,1.31-1.38,1.9-.42.55-.89,1.01-1.38,1.5-.42.42-.83.77-1.31,1.13-.42.3-.89.59-1.38.89-.49.22-.95.47-1.44.65-.49.18-.95.36-1.44.49-.53.12-1.07.24-1.6.3-.53.06-1.13.06-1.66.06-.65,0-1.25-.06-1.9-.18-.65-.12-1.38-.3-2.02-.49-.79-.3-1.62-.59-2.33-.89-1.01-.42-1.96-.97-2.85-1.5-1.07-.73-2.14-1.44-3.16-2.27-1.35-1.13-2.61-2.27-3.8-3.52-1.56-1.6-2.97-3.34-4.29-5.12-1.62-2.27-3.09-4.57-4.47-7.02-1.6-2.91-2.97-5.89-4.11-8.74l-.06-.12c-1.38-3.4-2.51-6.9-3.34-10.35-.67-2.51-1.13-5.06-1.5-7.56-.18-.89-.24-1.78-.36-2.61v-.3c-.06-.36-.12-.71-.36-1.01-.12-1.23-.24-2.43-.36-3.62-.53-4.83-1.11-9.65-1.54-14.52-1.01-12.36-1.78-24.73-3.92-36.93-1.84-11.65-4.33-23.44-5.58-35.09-.18-3.22-.42-6.61,1.07-9.53,1.54-2.91,3.56-5.52,5.7-7.97,1.72-1.96,3.52-3.74,5.06-5.76,3.09-.24,6.25-1.13,8.8-2.91-.34,2.33-.4,4.77.18,7.38.42,2.08,1.68,7.56,4.29,7.56.36,0,.71-.12,1.07-.3.34-.24.95-.79,1.54-1.44.06,1.29.18,2.55.42,3.8.24,1.84,1.13,3.68,3.16,3.68h.36c1.19-.06,2.2-.91,3.22-1.44,0,0,.06-.06.12-.06-.06.12-.06.3-.06.42-.06,1.84-.36,3.74-.12,5.58.24,1.66,1.74,3.15,3.4,3.15.49,0,.95-.12,1.44-.42,1.66-.83,2.85-2.18,3.98-3.68.3,1.86,1.01,3.28,2.85,2.51,1.31-.83,2.33-2.08,3.46-3.22,2.02-2.33,4.53-4.11,6.49-6.49,1.07-1.17,1.6-2.91,3.03-3.68.24.61.49,1.25,1.25,1.38.67.12,1.31-.42,1.38-1.07.18-2.2-2.02-3.4-3.86-2.2-4.29,3.58-8.7,7.26-12.26,11.61.18-3.09.95-6.25,2.08-9.1.65-1.86.95-3.82,2.02-5.48,1.74-2.39,4.11-4.17,6.37-5.95,1.48-1.25,2.97-2.57,4.81-3.28ZM384.13,372.69c.65-.28,1.38.24,1.96.49,1.01.42,1.78,1.25,2.67,1.96.22.18.4.36.65.49-.55.47-1.01,1.01-1.38,1.6-3.03,4.63-5.95,9.4-8.74,14.22-1.25,2.39-2.91,4.59-3.34,7.26-.18,1.8-.18,3.64-.3,5.42,0,.59-.06,1.19-.06,1.78-.42.42-.77.89-1.01,1.25-.49.49-.95.95-1.44,1.44l.04-.04c-1.35-3.16-1.84-6.41-1.72-9.75.16-2.79,1.54-5.28,2.67-7.79,1.78-3.8,3.4-7.5,5.12-11.31,1.35-2.49,2.49-5.3,4.87-7.02ZM405.2,392.9v.02c.49.47.85,1.11,1.38,1.6-1.42.83-2.67,1.96-3.86,3.03-2.57,2.14-5.24,4.17-7.26,6.77-1.07,1.68-1.5,3.64-2.14,5.48-.95,2.06-1.72,4.27-1.96,6.59,0,.24-.06.47-.06.77,0,0-.06.06-.12.06-1.9,1.29-3.34,3.26-5.18,4.57-.49-3.62.16-7.26.65-10.82.3-2.39.55-4.75,1.25-7.02.65-1.84,1.72-3.46,2.67-5.12,1.31-2.37,2.75-4.69,4.53-6.78,1.38-1.66,2.33-3.8,4.04-5.12,2.39,1.54,4.04,3.98,6.07,5.95ZM395.98,378.25h-.02c1.62,1.72,2.79,3.8,4.17,5.82-2.63-.65-4.89,2.08-6.43,4.41-2.08,2.69-4.29,5.3-5.89,8.27-1.54,2.39-3.13,5.18-3.56,8.03-.49,2.55-.83,5.18-1.07,7.73h-.18c-1.35.53-2.55,1.25-3.74,2.02-.65-3.86-.06-7.85-.06-11.71.12-1.5-.06-2.97.3-4.41.47-1.35,1.25-2.61,1.96-3.86,2.45-4.23,4.93-8.39,7.38-12.62,1.84-2.73,3.62-8.25,7.14-3.68ZM396.49,285.83c.36.34.83.46,1.31.65.22.06.4.12.59.24.16.12.34.24.53.36.22.16.47.34.71.59s.53.53.77.83c.3.36.59.77.83,1.19.36.71.71,1.38,1.07,2.08.49,1.19.89,2.33,1.25,3.4,0,.06.06.12.06.18.55,1.84.95,3.68,1.25,5.58v.06c.4,2.61.65,5.22.71,7.66.06,2.85-.06,5.66-.36,8.27-.24,2.33-.67,4.63-1.19,6.9-.42,1.56-.91,3.03-1.44,4.53-.42,1.01-.83,1.96-1.31,2.85l.04.02c-.3.59-.65,1.13-1.13,1.72-.3.42-.59.71-.89,1.07-.16.22-.4.46-.65.65,0,.06-.06.06-.12.12-1.74-2.87-3.7-5.6-5.36-8.51-.55-.89-2.27-4.41-3.22-6.01.06-.79.12-1.56.18-2.33,1.31.95,3.98,1.44,5.12.95,2.14-.3,2.57-3.22.24-3.52-1.72.36-3.52,0-5.24.24v-3.03c-.06-1.9-.24-3.86-.49-5.76-.3-2.02-.73-3.98-1.25-5.95-.16-.59-.34-1.13-.53-1.72,2.27-2.51,4.29-5.24,5.95-8.21.91-1.66,1.74-3.4,2.45-5.18.06,0,.06.06.12.06ZM215.38,367.47c-3.56-6.84-6.96-13.85-9.87-20.93-2.85-7.3-4.33-15.11-5.76-22.77-.95-8.25-1.8-16.58-1.38-24.92.16-6.96,1.66-13.87,3.56-20.59,2.33-9.06,6.13-17.55,10.42-25.77,3.38-5.91,7.14-11.67,11.77-16.66,5.3-5.64,11.31-10.46,17.62-14.99,8.51-5.95,17.61-11.16,27.36-14.68,7.32-2.61,14.88-4.27,22.49-5.58,2.79-.42,5.54-.36,8.33-.36,15.69,0,30.7,3.26,40.45,6.59,2.02.71,4.17,1.31,6.19,2.08.77.3,1.56.53,2.27.83.06.06.12.06.12.06h.06c3.58,1.42,7.02,3.09,10.29,4.87,3.09,1.72,6.13,3.68,8.98,5.76,2.73,2.02,5.34,4.23,7.79,6.55,2.27,2.14,4.41,4.45,6.37,6.9,1.78,2.27,3.5,4.57,5,7.02v.06l.06.06c1.42,2.39,2.67,4.75,3.8,7.26,1.01,2.27,1.84,4.51,2.55,6.9.65,2.18,1.17,4.45,1.54,6.71.28,2.08.47,4.17.53,6.31,0,1.96-.06,3.98-.3,5.95-.24,1.78-.53,3.64-.95,5.18-.47,1.66-1.01,3.34-1.6,4.93-.06.06-.06.12-.06.12v.06c-.67,1.6-1.38,3.13-2.2,4.63-.83,1.44-1.72,2.85-2.73,4.23-.47.65-1.01,1.25-1.54,1.9-.24-.59-.53-1.19-.83-1.78-.42-.85-.89-1.68-1.38-2.45-.53-.91-1.13-1.74-1.78-2.51-.65-.77-1.38-1.5-2.14-2.08-.89-.71-1.84-1.35-2.85-1.84-1.01-.49-2.08-.83-3.15-1.01-1.17-.24-2.43-.24-3.62-.06-1.9.24-3.76,1.01-5.36,2.08-3.44,2.27-6.01,5.72-7.91,9.28-1.84,3.58-3.16,7.38-4.04,11.31-.49,1.96-.77,3.86-1.01,5.82-1.86.18-3.7.3-5.54.36-3.26.04-6.53-.12-9.75-.49-2.97-.34-5.95-.83-8.86-1.54-.3-.06-.65-.12-1.01-.24h-.06c-.42-.12-.89-.12-1.31.12-.34.18-.71.59-.83,1.01s-.12.95.12,1.38c.18.4.59.77,1.01.89,2.08.55,4.23,1.01,6.37,1.38,4.11.71,8.33,1.13,12.56,1.13h.42c2.18,0,4.39-.12,6.59-.3-.06.95-.12,1.9-.12,2.85,0,4.04.36,8.09,1.25,12.01.47,2.08,1.13,4.17,1.9,6.19.95,2.33,2.06,4.53,3.56,6.55,1.19,1.68,2.63,3.15,4.35,4.29,1.68,1.13,3.58,1.84,5.54,2.08.42.06.77.06,1.19.06,1.5,0,2.91-.24,4.29-.77,1.84-.65,3.5-1.72,4.93-3.03,2.85-2.51,5-5.82,6.59-9.28.95-2.02,1.74-4.17,2.33-6.13.65-2.27,1.17-4.57,1.54-6.84.95,5.95,5.24,10.76,7.79,16.12.83,1.72,1.96,3.28,2.55,5.06.4,1.25-.55,2.2-1.38,2.97-3.03,1.86-6.65,2.08-10.05,2.45-1.72.24-3.58.12-5.12-.77-.42-.49-.71-1.01-1.19-1.5-.71-.77-2.14-.71-2.67.3-.55.89-.06,2.02.53,2.67,1.44,2.33,4.57,2.91,7.08,2.91,1.84-.22,4.11-.34,6.31-.71.12,2.39-.34,4.75-.83,7.02h-.02c-.49,3.8-2.08,7.38-4.23,10.29-.06.12-.12.18-.18.24-1.25-1.07-2.69-1.84-4.41-1.72-2.29.57-4.13,2.59-5.66,5.05-4.55,1.19-14.12,0-20.48-5.39-.63-.54-1.58-.46-2.11.17-.54.63-.46,1.58.17,2.11,5.5,4.67,13,6.51,18.62,6.51.7,0,1.37-.04,2-.09-1.1,2.29-2,4.59-2.78,6.28-1.72,3.74-3.56,7.32-4.57,11.06-1.01,0-1.9.53-2.85.65-1.72.24-3.46.65-5.18.77-3.68.4-7.5-.49-11.12-1.25-3.8-.85-7.42-1.86-10.94-3.4-1.66-.91-3.4-1.8-5.12-2.51-3.92-2.02-7.2-4.87-10.42-7.85-1.29-1.13-2.43-2.43-3.56-3.74-.95-1.07-2.02-2.63-3.56-1.5-.95.65-.83,2.2,0,2.85.79.95,1.62,1.84,2.39,2.73,2.79,2.85,5.82,5.64,9.1,7.97-.16.18-.34.36-.53.49-2.55,2.33-4.75,4.96-7.08,7.5-4.15,4.41-8.49,8.62-12.72,13.02-3.7,3.7-6.98,7.81-10.6,11.61-1.6-1.96-3.22-3.98-4.87-5.95-4.93-5.66-10.05-11.12-15.41-16.36-4.23-4.59-8.39-9.34-12.2-14.28-.49-.59-.95-1.19-1.44-1.78.12-1.07.24-2.08.42-3.15.42-2.45-2.67-5.66-2.91-4.29-.61,3.2-.95,6.41-1.38,9.63-6.13-1.96-12.72-1.78-19.03-3.03-3.22-.55-6.31-1.5-9.46-2.33-2.91-.89-6.07-.95-8.86-2.14-2.51-3.32-4.23-7.26-6.19-10.88ZM363.26,310.02c-2.45.71-4.93,1.23-7.26,1.6.06-.42.12-.77.18-1.19.36-2.14.85-4.35,1.44-6.43.59-1.84,1.19-3.58,1.96-5.3.53-1.29,1.25-2.61,1.96-3.8.59-.89,1.19-1.78,1.84-2.61.47-.59,1.07-1.19,1.6-1.78.53-.49,1.07-.95,1.6-1.38.49-.3.95-.59,1.44-.89.42-.22.77-.4,1.19-.59.42-.18.83-.3,1.25-.42.36-.06.71-.12,1.07-.18.3-.06.65-.06,1.01-.06.36.06.71.06,1.07.12.36.06.71.12,1.07.24.36.12.71.24,1.01.36.42.16.83.34,1.19.59.42.24.83.53,1.19.83.49.36.89.77,1.31,1.19.65.71,1.25,1.44,1.84,2.2.36.53.71,1.13,1.07,1.72.59,1.13,1.11,2.33,1.6,3.46l.06.18.06.12-.02-.02c-1.07,1.13-2.2,2.14-3.52,3.16-1.48,1.19-3.03,2.27-4.63,3.28-1.84,1.19-3.8,2.2-5.82,3.09-2.04.89-4.09,1.68-6.15,2.31,1.01-.28.81-.21-.62.2ZM358.32,314.79c2.14-.42,4.29-.97,6.13-1.5,4.23-1.25,8.39-2.91,12.2-5.18l.04.02c3.09-1.8,5.95-3.88,8.45-6.49.49,2.08.83,4.23,1.07,6.13.24,2.02.36,3.98.36,5.95v1.44c-.06,2.57-.22,5.06-.65,7.56-.36,2.2-.79,4.35-1.44,6.49-.53,1.72-1.13,3.4-1.84,5.06-.53,1.29-1.25,2.55-1.96,3.8-.59.95-1.25,1.9-1.78,2.61-.59.71-1.19,1.38-1.84,2.02-.42.49-.95.83-1.44,1.25-.42.3-.89.59-1.38.89-.42.22-.83.4-1.25.59-.42.18-.83.3-1.25.42-.36.06-.71.12-1.07.18-.42.06-.77.06-1.13.06-.3-.06-.65-.06-1.01-.12s-.71-.12-1.07-.24c-.36-.06-.65-.24-1.01-.36-.36-.16-.77-.34-1.13-.59-.42-.24-.77-.53-1.19-.83s-.83-.71-1.19-1.07c-.49-.53-.95-1.13-1.44-1.72-.55-.79-1.01-1.56-1.5-2.33-.59-1.07-1.05-2.2-1.54-3.34-.55-1.5-1.01-2.99-1.44-4.53-.49-2.02-.83-4.04-1.07-6.07-.3-2.33-.42-4.63-.36-7.02,0-.89.06-1.78.12-2.67.89-.12,1.72-.24,2.61-.42ZM214.11,396.05c1.62-3.15,3.34-6.31,5.42-9.22l.02-.02c1.56-1.29,2.91-2.67,4.41-3.74,1.6.3,3.34.53,4.93,1.01,4.23,1.25,8.15,2.27,12.44,2.91,4.41.59,8.92.95,13.21,1.72,1.29.18,2.55.53,3.74,1.01.53.18,1.07.36,1.6.36.28,0,.53-.06.77-.12,1.01-.42,1.35-1.38,1.6-2.39,3.44,5.22,7.48,10.05,11.65,14.74,6.43,6.55,12.8,13.33,18.63,20.47,6.43,8.09,12.9,16.18,19.09,24.51,3.64,5.12,6.37,9,5.48,15.59-.06.71-.24,1.38-.49,2.02-.65.42-1.07,1.31-.83,2.08-.83,1.8-1.84,3.58-2.61,5.36-2.55,5.58-5.76,10.82-9.04,16-1.9,3.09-3.5,6.43-5.76,9.34-1.07,1.23-2.27,4.33-4.23,2.55-2.69-2.08-4.17-5.22-6.43-7.73-1.62-1.96-2.91-4.17-4.35-6.31-2.27-3.26-4.63-6.47-6.9-9.75-6.86-9.63-14.82-18.38-22.67-27.18-8.68-9.75-17.29-19.52-25.87-29.32-4.11-4.57-8.33-9.4-12.32-14.1-1.13-1.54-2.51-2.97-3.52-4.63.12-1.84,1.31-3.52,2.02-5.18ZM356.48,714.19c-1.44.4-2.97,1.23-3.4,1.54-7.44,5.12-15.65,8.76-23.74,12.62-5.6,2.55-10.84,5.82-16.54,8.15-4.87,2.43-10.11,4.11-15.29,5.7-6.19,2.02-12.6,3.15-19.09,3.46-4.89.4-9.83-.42-14.58-1.13-6.25-1.01-12.5-2.45-18.5-4.53-5.22-1.9-10.64-3.92-15.75-6.07-3.16-1.31-6.55-2.08-9.53-3.8-5.58-2.97-10.88-6.47-16.12-10.05-3.62-2.33-7.3-4.59-10.76-7.2-2.97-2.08-5.6-4.57-8.45-6.77-3.13-2.63-6.47-5.06-9.69-7.62-7.26-5.18-14.46-10.35-21.17-16.24-2.08-2.14-4.17-4.17-6.07-6.43-1.42-1.6-2.61-3.52-3.92-5.18-3.38-4.29-6.84-8.57-9.81-13.21-2.63-4.69-4.95-9.57-6.55-14.74-1.42-3.76-2.61-7.56-3.56-11.49-.95-3.22-1.23-6.53-1.72-9.81-.24-1.6-.53-3.22-.89-4.81-.24-.95-1.19-1.62-2.14-1.38-.95.24-1.62,1.19-1.38,2.14.42,1.66.71,3.4.95,5.06.89,9.32,4.11,18.14,7.32,26.88,1.48,3.22,2.97,6.55,4.69,9.65,3.09,4.87,6.8,9.4,10.35,13.97,4.59,6.53,10.11,12.38,16.54,17.13,8.55,6.84,17.72,12.9,26.17,19.92,5.64,5.06,11.89,9.22,18.26,13.21.36.24.71.46,1.07.71-4.41.42-8.86.3-13.27.49-4.33.3-8.62.55-12.9.36-7.2-.36-14.46-.95-21.54-2.2-6.13-.95-12.01-2.69-18.02-4.23-4.17-1.07-8.21-2.57-12.2-4.11-3.38-1.25-6.78-2.63-9.93-4.41-12.13-7.08-22.31-17.86-28.13-30.7-2.37-5.54-4.04-11.43-5.58-17.25-2.08-8.09-4.27-16.24-4.75-24.63v.08c-.55-9.2-1.38-18.42-1.19-27.83.49-13.15,2.85-26.17,5.12-39.13,2.2-11.49,5.42-22.85,9.34-33.85,4.59-10.96,9.65-21.66,15.59-31.83,3.8-6.25,7.91-12.32,12.07-18.32,4.41-6.41,8.76-12.9,13.63-18.91,3.62-3.92,7.08-7.97,10.64-11.95,3.92-3.94,7.97-7.81,12.13-11.55,2.97-2.61,6.25-4.93,9.22-7.6,10.05-8.62,20.22-17.19,31.53-24.15,3.88-2.51,7.56-5.24,11.61-7.5.55-.24.71-.24,1.19-.36.59-.12,1.19-.12,1.78-.18.47.73,1.13,1.5,1.9,2.39,5.48,6.84,11.49,13.33,17.25,19.92,8.62,9.87,17.37,19.7,26.11,29.51,3.98,4.51,7.85,9.1,11.77,13.67,4.93,6.01,9.32,12.42,13.79,18.79,1.68,2.67,3.46,5.22,5.48,7.6,2.57,3.09,5.06,8.21,9.53,8.21.3,0,.59,0,.89-.06,4.11-.89,9.71-13.21,12.56-17.01,1.54-2.79,3.32-5.42,4.81-8.21,1.66-3.09,3.09-6.31,4.63-9.46,1.35,1.38,2.55,2.91,3.86,4.35,1.44,1.54,2.61,3.28,3.98,4.87,1.44,1.48,2.73,3.03,3.98,4.63.71.89,1.5,1.72,2.14,2.67.36.4.91.65,1.44.71,0,.36,0,.71-.06,1.01-.18,4.35-.18,8.74-.71,13.08-.3,2.57-.95,5-1.44,7.44-.83,4.04-2.2,7.91-3.09,11.95-.12,1.01-.91,2.02-.49,3.09.06.12.12.18.18.3-.89,2.85-1.56,5.76-2.08,8.68-1.86,8.86-2.68,16.18-3.38,25.15-2.02-6.19-5.31-10.35-7.64-16.42-1.01-2.06-4.04-.59-2.97,1.5.95,2.27,10.11,21.82,10.05,22.25-.61,4.59,1.29,9.1,2.55,13.45,1.66,6.01,4.65,11.65,9.22,16,.77.83,1.72,1.5,2.61,2.2.65.47,1.31,1.23,2.08,1.54,2.45,2.2,4.89,4.35,7.56,6.25-3.5,2.08-7.02,4.17-10.76,5.76-3.2,1.19-6.65,1.66-9.75,3.15-2.43-2.91-4.17-6.47-5.82-9.87-9.69-24.21-14.22-50.01-22.19-74.77-4.57-10.9-9.93-21.42-17.25-30.64-7.6-8.68-16.36-17.07-26.23-23.08-1.84-.95-6.07-2.51-6.25.71.12,1.17,1.19,1.78,2.27,1.66,2.39.42,4.35,1.96,6.31,3.28,7.79,6.25,15.63,12.8,21.88,20.65,6.59,8.74,11.77,18.73,16,28.84,5.46,16.73,9.16,34.1,14.04,50.92,4.69,12.72,9.4,38.49,25.1,41.1,2.73,2.85,6.07,5.12,8.21,8.45,4.28,6.6,8.08,13.49,11.47,20.55.01.02.02.04.02.04,2.33,5.24,4.11,10.78,5,16.42,2.14,9.46,2.85,19.15,1.9,28.8-.42,3.8-1.38,7.56-2.45,11.24-.89,2.79-1.44,5.12-1.07,6.84ZM419,674.35c-2.49,3.16-5.58,5.84-8.62,8.45-3.98,3.7-7.5,7.87-11.49,11.49-4.17,4.27-9.22,7.48-14.22,10.7-4.11,2.67-8.33,5.28-13.02,6.71-2.85.89-5.7,2.14-8.74,2.33h-.06c-3.2-.06-3.44.12-2.55-3.28.83-2.85,1.68-5.7,2.33-8.62,1.38-5.78,1.44-11.73,1.31-17.62-.12-7.56-1.68-14.99-3.22-22.37-1.72-7.54-5-14.62-8.8-21.3-2.67-5-5.4-9.99-8.86-14.52-2.27-2.91-5.52-4.87-7.85-7.73,3.5-.77,7.12-.83,10.64-1.66,5.84-1.13,11.73-2.45,17.62-3.15.73-.06,1.5-.12,2.26-.12,2.73,0,5.54.53,8.15.59,1.96.3,3.98.36,5.95.49,2.61.22,5.24.83,7.79,1.54,1.66.61,3.46.95,5.18,1.31.3.24.65.36,1.01.36.12,0,.3,0,.42-.06,2.27.49,4.53,1.01,6.55,2.14,8.43,5.06,13.49,14.04,16.89,22.95,4.17,9.69,6.96,21.76,1.31,31.35ZM533.89,592.93c-5.84-.77-11.91-1.72-17.62.12-7.2,2.2-13.75,6.55-19.58,11.18-5.42,4.53-10.23,9.71-15.53,14.34-4.81,4.29-9.53,8.68-14.28,13.02-3.5,3.34-7.2,6.01-10.82,9.16-6.96,5.4-13.97,10.82-21.36,15.63-3.55,2.14-6,3.92-8.96,6.11.06-4.69-.77-9.46-1.96-13.96-.71-2.67-1.84-5.16-2.91-7.73-1.42-3.46-2.85-6.96-4.87-10.11-4.04-6.37-9.51-13.02-16.95-15.11,4.75-2.27,9.46-4.51,14.16-6.84,4.59-2.12,9.16-4.15,13.57-6.59,12.07-6.55,24.09-13.27,35.92-20.22,9.16-5.36,17.96-11.49,27.18-16.48,6.25-3.4,19.39-7.62,22.31-8.39.36-.06.71,0,1.01.24,1.07.95,4.57,3.98,5.89,5.18,1.72,1.6,3.4,3.22,4.93,4.81.65.65,1.31,1.44,1.96,2.14-2.37-2.33-5-5.18-8.62-4.23-6.19,1.84-11.61,5.48-17.31,8.33-1.13.59-2.33,1.13-3.52,1.72-.3.18-.59.36-.95.49-.89.36-1.31,1.56-.89,2.39.77,1.62,2.37,1.01,3.56.3,2.51-1.19,4.87-2.49,7.32-3.74,3.22-1.72,6.35-3.62,9.81-5,1.13-.55,2.2-1.19,3.46-1.25,1.78-.42,3.03,1.72,4.11,2.67.89.89,1.72,1.84,2.55,2.79,1.96,2.31,4.04,4.57,6.13,6.84-2.57-1.31-5.36-2.08-8.21-2.14-1.72-.18-3.28.42-4.81,1.01-1.44.42-2.85.73-4.17,1.31-3.03,1.29-6.01,2.14-8.86,3.74-1.01.46-1.96.89-2.91,1.54-2.26,1.48-.71,2.97,1.84,1.9,2.45-1.01,4.95-1.8,7.5-2.51,2.39-.79,4.63-1.92,7.14-2.45,1.9-.65,3.5-1.25,5.58-.89,2.91.55,5.7,1.68,8.15,3.46,3.28,1.92,5.95,4.77,6.9,8.51-2.02-.06-3.86-1.07-5.89-1.31Z"/><path class="uuid-e3cb4977-10fc-418d-8416-ddfc3110a17a" d="M363.44,309.96c.15-.04.29-.09.44-.14-.14.04-.31.09-.5.14h.06Z"/><path class="uuid-e3cb4977-10fc-418d-8416-ddfc3110a17a" d="M353.11,650.89s-.01-.02-.02-.04c0-.01-.02-.02-.04-.02,0,0,0,.06.06.06Z"/><path class="uuid-d2bdf1ec-e66e-44a6-a76e-a569597d24a9" d="M628.11,416.46c43.66,26.78,188.79,108.56,188.79,108.56l109.15-293.43-237.33-.89-.47,1.72s-40.87,126.46-60.15,184.04Z"/><path class="uuid-e3cb4977-10fc-418d-8416-ddfc3110a17a" d="M816.9,526.8c.18,0,.42-.06.61-.12.47-.18.89-.53,1.07-1.07l109.15-293.43c.18-.53.12-1.13-.18-1.66s-.89-.77-1.5-.77l-237.33-.89c-.77,0-1.48.53-1.72,1.31l-.49,1.72c-.53,1.72-41.03,127.05-60.13,183.98-.24.77.06,1.66.77,2.08,43.18,26.53,187.44,107.77,188.85,108.62.3.18.59.24.89.24v-.02ZM923.5,233.37l-107.55,289.08c-16.77-9.46-143.89-81.26-185.7-106.76,10.05-30.03,25.52-77.5,36.89-112.24,19.09-58.59,22.31-68.64,22.83-70.54h.06l.12-.42s233.34.89,233.34.89Z"/><path class="uuid-55d72d91-c3d0-4aa4-b450-45cb95b61821" d="M839.88,287.69c-7.6-.57-13.27-7.79-12.64-16.14.63-8.35,7.28-14.66,14.88-14.12,7.6.57,13.27,7.79,12.64,16.14-.63,8.35-7.28,14.66-14.88,14.12Z"/><g class="uuid-27e79f98-06cb-42dd-9071-aac0f05b0557"><path class="uuid-55d72d91-c3d0-4aa4-b450-45cb95b61821" d="M784.65,282.35c-6.98-.51-12.17-7.14-11.61-14.82.57-7.66,6.67-13.47,13.67-12.94,6.98.51,12.17,7.14,11.61,14.82-.57,7.66-6.67,13.47-13.67,12.94Z"/></g><g class="uuid-27e79f98-06cb-42dd-9071-aac0f05b0557"><path class="uuid-55d72d91-c3d0-4aa4-b450-45cb95b61821" d="M729.48,276.16c-5.93-.44-10.35-6.09-9.87-12.6.49-6.51,5.68-11.45,11.61-11,5.93.44,10.35,6.09,9.87,12.6-.49,6.51-5.68,11.45-11.61,11Z"/></g><path class="uuid-55d72d91-c3d0-4aa4-b450-45cb95b61821" d="M799.41,269.23l25.38,1.9v.42l-25.42-1.9v-.42h.04Z"/><path class="uuid-55d72d91-c3d0-4aa4-b450-45cb95b61821" d="M744.16,265.16l27.77,2.08-.04.42-27.77-2.08.04-.42Z"/><path class="uuid-c36549c6-62f4-47bf-bd30-ba26373bd3cd" d="M706.86,318.13c4.47-13.27,7.79-23.01,7.79-23.01l120.15,13.63-9.99,26.88-117.95-17.49Z"/><path class="uuid-c36549c6-62f4-47bf-bd30-ba26373bd3cd" d="M695.74,352.45c4.45-13.27,7.48-21.72,7.48-21.72l118.74,17.37-11.77,31.04-114.45-26.72v.02Z"/><path class="uuid-c36549c6-62f4-47bf-bd30-ba26373bd3cd" d="M685.45,384.22c4.47-13.27,6.61-19.46,6.61-19.46l114.73,26.82-10.58,30.64-110.77-38Z"/><path class="uuid-55d72d91-c3d0-4aa4-b450-45cb95b61821" d="M673.37,414.56c4.47-13.27,6.59-19.46,6.59-19.46l110.1,39.44-9.99,31.83-106.7-51.81h0Z"/><path class="uuid-e3cb4977-10fc-418d-8416-ddfc3110a17a" d="M261.47,382.32c.83,0,1.6-.59,1.78-1.5.3-1.84.36-3.86.42-5.76.12-3.03.24-6.13,1.19-8.03,1.6-3.15,4.57-5.54,8.03-6.31,1.54-.36,3.22-.42,5-.49.71,0,1.38-.06,2.08-.12,2.2-.12,5.42-.53,7.91-2.45,6.61-4.81,2.67-11.31.06-15.59-.53-.89-1.01-1.66-1.44-2.45-2.39-4.53-1.07-11.83,3.03-16.66,1.78-2.08,5.54-5.42,10.6-3.68,6.37,2.08,11.43,7.38,13.27,13.79.12.53.3,1.01.42,1.54.36,1.44.71,2.85,1.44,4.29,1.31,2.55,3.56,4.23,5.89,4.35,3.4.18,6.07-2.79,6.65-5.76.59-3.03-.49-6.01-1.31-7.97-.3-.65-.59-1.25-.89-1.84-.71-1.5-1.44-2.91-1.78-4.35-1.01-4.11.18-7.44,3.68-9.93.83-.59,1.01-1.66.42-2.51-.59-.83-1.66-1.01-2.51-.42-4.69,3.34-6.49,8.15-5.12,13.73.49,1.84,1.25,3.46,2.02,5.06.3.59.59,1.19.83,1.78,1.07,2.39,1.44,4.23,1.07,5.76-.3,1.5-1.6,2.97-3.03,2.91-1.31-.06-2.39-1.31-2.91-2.39-.53-1.07-.83-2.27-1.19-3.56-.12-.53-.3-1.13-.42-1.66-2.2-7.56-8.15-13.73-15.59-16.18-5.18-1.72-10.48.06-14.46,4.81-5,5.95-6.49,14.8-3.46,20.59.49.83.95,1.72,1.54,2.61,2.97,4.93,4.57,8.15.89,10.82-1.38,1.01-3.28,1.54-6.07,1.72-.65.06-1.31.06-1.96.12-1.84.06-3.74.12-5.64.59-4.47,1.07-8.33,4.11-10.35,8.21-1.31,2.61-1.44,6.13-1.54,9.53-.06,1.84-.12,3.74-.42,5.36-.18.95.49,1.9,1.5,2.02.18-.06.24-.06.36-.06l.02.08Z"/><path class="uuid-e3cb4977-10fc-418d-8416-ddfc3110a17a" d="M304.29,350.91h.83c1.01-.06,1.72-.89,1.72-1.84s-.83-1.72-1.84-1.72c-3.09.12-5.64-.71-7.56-2.61-3.28-3.22-3.98-8.51-3.92-10.82.06-3.09,2.45-6.65,5.64-6.84,1.78-.06,3.62.83,4.81,2.45.83,1.07,1.38,2.45,1.6,3.92-.3.06-.59.06-.89.18-1.54.42-2.67,1.72-2.79,3.15-.24,2.33,4.81,6.31,5.42,6.78.77.59,1.9.49,2.51-.36.59-.77.49-1.9-.36-2.51-.89-.71-2.97-2.61-3.8-3.62.42-.12,1.01-.06,1.6,0l1.96.24v-2.02c0-3.03-.89-5.82-2.51-7.97-1.9-2.51-4.93-3.92-7.79-3.8-4.23.18-8.86,4.17-9.04,10.29-.06,3.09.89,9.4,5,13.51,2.51,2.45,5.64,3.62,9.4,3.62l.02-.04Z"/></svg>