<svg width="180" height="180" viewBox="0 0 180 180" fill="none" xmlns="http://www.w3.org/2000/svg">
<path fill-rule="evenodd" clip-rule="evenodd" d="M153 29.25C151.759 29.25 150.75 28.2407 150.75 27C150.75 25.7592 151.759 24.75 153 24.75C154.241 24.75 155.25 25.7592 155.25 27C155.25 28.2407 154.241 29.25 153 29.25Z" fill="#EAF5FF"/>
<path fill-rule="evenodd" clip-rule="evenodd" d="M67.5 180C66.2593 180 65.25 178.991 65.25 177.75C65.25 176.509 66.2593 175.5 67.5 175.5C68.7407 175.5 69.75 176.509 69.75 177.75C69.75 178.991 68.7407 180 67.5 180Z" fill="#EAF5FF"/>
<path fill-rule="evenodd" clip-rule="evenodd" d="M33.75 22.5C32.5093 22.5 31.5 21.4907 31.5 20.25C31.5 19.0092 32.5093 18 33.75 18C34.9907 18 36 19.0092 36 20.25C36 21.4907 34.9907 22.5 33.75 22.5Z" fill="#EAF5FF"/>
<path d="M156 117C156 135.778 140.778 151 122 151C103.222 151 88 135.778 88 117C88 98.2223 103.222 83 122 83C140.778 83 156 98.2223 156 117Z" fill="#EAF5FF"/>
<path fill-rule="evenodd" clip-rule="evenodd" d="M121.5 78.75C100.375 78.75 83.25 95.8751 83.25 117C83.25 117.143 83.2508 117.286 83.2524 117.429C83.167 124.884 85.3524 132.397 89.8998 138.919C96.813 148.833 107.899 154.612 119.532 155.2C120.038 155.226 120.547 155.242 121.059 155.248C126.09 155.305 131.194 154.389 136.08 152.417C136.223 152.359 136.358 152.287 136.484 152.204C141.987 149.858 146.828 146.26 150.649 141.768C150.921 141.631 151.176 141.43 151.399 141.157C156.95 134.352 159.842 125.946 159.748 117.415C159.749 117.277 159.75 117.138 159.75 117C159.75 95.8751 142.625 78.75 121.5 78.75ZM132.35 85.0318C128.945 83.8765 125.296 83.25 121.5 83.25C112.369 83.25 104.084 86.8763 98.0086 92.7674C98.4057 93.2723 98.7383 93.8218 98.9957 94.4002C99.2266 94.9056 99.4169 95.4254 99.5704 95.9616C99.8747 97.0243 100.016 97.9246 100.077 99.1361L100.108 100.111C100.114 100.46 100.117 100.836 100.117 101.246L100.118 101.696L100.131 102.456L100.16 103.045L100.207 103.491C100.246 103.747 100.297 103.927 100.366 104.071C100.377 104.094 100.431 104.128 100.527 104.172L100.777 104.273L101.142 104.398L101.622 104.543L102.561 104.794L103.764 105.077L106.504 105.664L107.465 105.903C109.154 106.36 110.403 107.124 111.85 108.506L112.154 108.801L112.13 108.751C110.788 105.637 110.605 101.561 111.45 98.8398L111.61 98.3742C112.774 95.2848 115.388 94.0862 118.971 94.0034C119.08 94.0008 119.188 93.9992 119.296 93.9984L119.95 94.0045C120.063 94.0073 120.178 94.0111 120.298 94.0157L122.734 94.1505L123.437 94.1717L123.775 94.1655L124.046 94.1435C124.426 94.097 124.885 93.6432 125.398 92.6374L126.161 90.9265L126.445 90.3284C126.58 90.0545 126.702 89.8305 126.79 89.7124C127.535 88.7164 128.714 87.6618 130.444 86.3818L131.444 85.6602L132.35 85.0318ZM122.606 150.732C122.238 150.744 121.87 150.75 121.5 150.75C103.005 150.75 87.9847 135.873 87.7528 117.433C87.8448 110.29 90.3138 103.211 95.0569 97.3865L95.2335 97.1707L95.2443 97.2004C95.4104 97.7806 95.5062 98.3206 95.5589 99.0249L95.5983 99.7915L95.6151 100.713L95.6238 102.263C95.6538 104.056 95.7956 104.948 96.311 106.021C97.1164 107.693 98.3017 108.393 101.168 109.104L102.131 109.331L103.214 109.565L105.142 109.97L105.759 110.112L106.29 110.247C107.492 110.572 108.513 111.406 110.251 113.346L111.445 114.679C112.124 115.412 112.583 115.846 113.097 116.139C113.847 116.567 114.777 116.527 115.488 116.036C116.345 115.445 117.257 114.122 117.688 112.613C118.113 111.122 118.025 109.637 117.24 108.525L117.008 108.231C115.458 106.443 115.054 101.99 115.82 99.9638C116.193 98.9738 117.123 98.5473 119.075 98.5022L119.597 98.4991L120.494 98.529L122.32 98.6359L123.032 98.6666C123.138 98.6697 123.239 98.6719 123.335 98.673L123.868 98.6675L124.35 98.6363C124.429 98.6289 124.508 98.6204 124.588 98.6107C126.665 98.3567 128.082 97.075 129.176 95.1144L129.497 94.5003L129.699 94.0674L130.193 92.9286L130.394 92.4193C130.399 92.4056 130.399 92.4008 130.395 92.4058C130.71 91.9853 131.277 91.4509 132.081 90.8062L132.828 90.2267L133.688 89.5938C133.84 89.4838 133.998 89.3717 134.159 89.2574L135.185 88.5451L135.907 88.056L136.365 88.2686C145.255 92.5213 151.808 100.387 154.233 109.801L154.435 110.631C154.951 112.88 155.219 115.154 155.248 117.419C155.188 122.276 154.103 126.886 152.199 131.043C151.862 128.146 150.852 126.672 148.261 125.224C147.372 124.735 146.669 124.383 145.832 124L145.175 123.703C143.317 122.883 142.88 122.569 141.886 121.148L141.372 120.403C138.839 116.638 136.882 115.431 132.239 116.149C124.005 117.425 121.616 119.007 120.979 123.212L120.76 124.717C120.737 124.889 120.715 125.056 120.695 125.218L120.598 126.139C120.357 128.894 120.791 130.172 122.411 131.835L123.595 133.06L124.706 134.232L125.744 135.351L126.708 136.415L127.598 137.424L128.412 138.377L129.152 139.272L129.815 140.11L130.402 140.888C130.493 141.013 130.581 141.135 130.666 141.255L131.138 141.943C131.57 142.6 131.886 143.166 132.083 143.635L132.291 144.16C132.755 145.408 133.074 146.806 133.118 148.202L133.119 148.697C129.825 149.905 126.29 150.614 122.606 150.732ZM137.523 146.712C141.407 144.612 144.833 141.774 147.612 138.384C147.766 137.386 147.846 136.322 147.846 135.191L147.846 134.237L147.84 133.343L147.822 132.581L147.786 131.935C147.656 130.258 147.255 129.817 146.078 129.159L145.523 128.859C144.81 128.483 144.186 128.188 143.352 127.818L142.863 127.597C140.666 126.586 139.632 125.776 138.19 123.716L137.422 122.597L137.003 122.004C136.013 120.659 135.407 120.336 133.929 120.467L133.289 120.542L132.334 120.689L130.747 120.953L129.43 121.201L128.69 121.361L128.05 121.522C126.273 122.006 125.748 122.522 125.522 123.403L125.457 123.71L125.3 124.747L125.137 125.892L125.067 126.49L125.03 126.977L125.026 127.371C125.04 127.785 125.124 128.045 125.284 128.283L125.439 128.484C125.497 128.552 125.562 128.62 125.632 128.693L126.301 129.382L127.576 130.714L128.768 131.988L129.875 133.203L130.899 134.36L131.84 135.459L132.697 136.5L133.47 137.485C134.812 139.237 135.732 140.703 136.233 141.894C136.851 143.371 137.322 145.003 137.523 146.712Z" fill="#0079D0"/>
<path d="M150.735 40.2376C150.605 39.1186 149.654 38.25 148.5 38.25H27L26.7376 38.2651C25.6186 38.3951 24.75 39.3461 24.75 40.5V144L24.7651 144.262C24.8951 145.381 25.8461 146.25 27 146.25H81L81.2624 146.235C82.3814 146.105 83.25 145.154 83.25 144L83.2349 143.738C83.1049 142.619 82.1539 141.75 81 141.75H29.25V60.75H112.5L112.762 60.7349C113.881 60.6049 114.75 59.6539 114.75 58.5C114.75 57.2574 113.743 56.25 112.5 56.25H29.25V42.75H146.25V56.25H126L125.738 56.2651C124.619 56.3951 123.75 57.3461 123.75 58.5C123.75 59.7426 124.757 60.75 126 60.75H146.25V76.5L146.265 76.7624C146.395 77.8814 147.346 78.75 148.5 78.75C149.743 78.75 150.75 77.7426 150.75 76.5V40.5L150.735 40.2376Z" fill="#2F3A43"/>
<path d="M36 51.75C34.7593 51.75 33.75 50.7407 33.75 49.5C33.75 48.2592 34.7593 47.25 36 47.25C37.2407 47.25 38.25 48.2592 38.25 49.5C38.25 50.7407 37.2407 51.75 36 51.75Z" fill="#2F3A43"/>
<path d="M42.75 49.5C42.75 50.7407 43.7593 51.75 45 51.75C46.2407 51.75 47.25 50.7407 47.25 49.5C47.25 48.2592 46.2407 47.25 45 47.25C43.7593 47.25 42.75 48.2592 42.75 49.5Z" fill="#2F3A43"/>
<path d="M54 51.75C52.7593 51.75 51.75 50.7407 51.75 49.5C51.75 48.2592 52.7593 47.25 54 47.25C55.2407 47.25 56.25 48.2592 56.25 49.5C56.25 50.7407 55.2407 51.75 54 51.75Z" fill="#2F3A43"/>
<path d="M139.5 47.25C140.743 47.25 141.75 48.2574 141.75 49.5C141.75 50.6539 140.881 51.6049 139.762 51.7349L139.5 51.75H72C70.7574 51.75 69.75 50.7426 69.75 49.5C69.75 48.3461 70.6186 47.3951 71.7376 47.2651L72 47.25H139.5Z" fill="#2F3A43"/>
<path d="M87.75 76.5C87.75 75.2574 86.7426 74.25 85.5 74.25H45L44.7376 74.2651C43.6186 74.3951 42.75 75.3461 42.75 76.5C42.75 77.7426 43.7574 78.75 45 78.75H85.5L85.7624 78.7349C86.8814 78.6049 87.75 77.6539 87.75 76.5Z" fill="#2F3A43"/>
<path d="M76.5 87.75C77.7426 87.75 78.75 88.7574 78.75 90C78.75 91.1539 77.8814 92.1049 76.7624 92.2349L76.5 92.25H45C43.7574 92.25 42.75 91.2426 42.75 90C42.75 88.8461 43.6186 87.8951 44.7376 87.7651L45 87.75H76.5Z" fill="#2F3A43"/>
<path d="M74.25 103.5C74.25 102.257 73.2426 101.25 72 101.25H45L44.7376 101.265C43.6186 101.395 42.75 102.346 42.75 103.5C42.75 104.743 43.7574 105.75 45 105.75H72L72.2624 105.735C73.3814 105.605 74.25 104.654 74.25 103.5Z" fill="#2F3A43"/>
</svg>
