<svg width="180" height="180" viewBox="0 0 180 180" fill="none" xmlns="http://www.w3.org/2000/svg">
<path d="M73.5012 151.536V142.536C70.5012 140.702 63.5012 134.936 59.5012 126.536C54.5012 116.036 49.0012 106.036 50.5012 103.036C52.0012 100.036 55.5012 98.0356 59.5012 103.036C62.7012 107.036 66.5012 111.369 68.0012 113.035L69.0012 73.0355C70.0012 71.0355 72.7012 67.3355 75.5012 68.5355C79.0012 70.0355 78.5012 62.0355 80.5012 59.5355C82.5012 57.0355 85.5012 54.5355 88.0012 57.0355C90.3562 59.3905 92.2675 66.1823 92.0634 69.4699C92.4485 67.5321 93.4277 63.8503 95.0012 63.5356C97.5012 63.0356 103.501 67.0358 103.501 70.0356V76.0356C104.835 74.0355 108.101 70.6354 110.501 73.0355C113.501 76.0356 115.001 85.5356 114.501 89.0356C114.101 91.8356 114.335 111.869 114.501 121.536C113.835 124.702 111.801 131.836 109.001 135.036C105.501 139.036 101.001 141.036 100.501 142.536C100.101 143.736 100.335 149.036 100.501 151.536H73.5012Z" fill="#EAF5FF"/>
<path fill-rule="evenodd" clip-rule="evenodd" d="M126 173.25C124.759 173.25 123.75 172.241 123.75 171C123.75 169.759 124.759 168.75 126 168.75C127.241 168.75 128.25 169.759 128.25 171C128.25 172.241 127.241 173.25 126 173.25Z" fill="#F5F1F9"/>
<path fill-rule="evenodd" clip-rule="evenodd" d="M18 146.25C16.7593 146.25 15.75 145.241 15.75 144C15.75 142.759 16.7593 141.75 18 141.75C19.2406 141.75 20.25 142.759 20.25 144C20.25 145.241 19.2406 146.25 18 146.25Z" fill="#EAF5FF"/>
<path fill-rule="evenodd" clip-rule="evenodd" d="M171 130.5C169.759 130.5 168.75 129.491 168.75 128.25C168.75 127.009 169.759 126 171 126C172.241 126 173.25 127.009 173.25 128.25C173.25 129.491 172.241 130.5 171 130.5Z" fill="#EAF5FF"/>
<path fill-rule="evenodd" clip-rule="evenodd" d="M146.25 22.5C145.009 22.5 144 21.4906 144 20.25C144 19.0092 145.009 18 146.25 18C147.491 18 148.5 19.0092 148.5 20.25C148.5 21.4906 147.491 22.5 146.25 22.5Z" fill="#EAF5FF"/>
<path fill-rule="evenodd" clip-rule="evenodd" d="M54 9C52.7594 9 51.75 7.99065 51.75 6.75C51.75 5.50924 52.7594 4.5 54 4.5C55.2407 4.5 56.25 5.50924 56.25 6.75C56.25 7.99065 55.2407 9 54 9Z" fill="#EAF5FF"/>
<path d="M83.466 35.2823C84.4037 37.844 83.5426 40.8521 81.8457 42.276C81.123 42.8825 80.4855 43.2406 79.4008 43.5703L78.6921 43.7665C78.5636 43.7992 78.4296 43.8321 78.2895 43.8653L77.3719 44.0711L73.0443 44.956L72.5006 45.0718L72.8041 45.2306L73.3563 45.5302L74.4101 46.1231C75.4862 46.7445 75.855 48.1205 75.2336 49.1967C74.6123 50.2729 73.2362 50.6416 72.1601 50.0203L71.6796 49.7464L70.676 49.1956L67.225 47.3907L65.6818 46.5681C65.4266 46.4302 65.1713 46.2913 64.9139 46.1502L63.3291 45.269L61.6043 44.2843C60.5282 43.663 60.1594 42.2869 60.7808 41.2107C61.4021 40.1346 62.7782 39.7659 63.8543 40.3872L65.5344 41.3463C65.8003 41.4963 66.0605 41.642 66.3168 41.7845L66.6203 41.9508C66.8481 41.7911 67.1095 41.6712 67.3969 41.6036L68.6272 41.3182L70.976 40.7956L72.7067 40.4297L76.2653 39.706L77.27 39.483L77.769 39.3562L78.1569 39.2399C78.2135 39.2211 78.2664 39.2024 78.316 39.1838L78.5779 39.0721L78.783 38.9557L78.9532 38.8288C79.2226 38.6028 79.5152 37.5805 79.2402 36.8292C78.7772 35.5645 76.9499 34.4793 73.0978 34.0442L65.4855 33.2628L61.2901 32.8474L56.6124 32.4039L51.8306 31.9826L49.6728 31.8111L49.3231 31.8169L49.0616 31.843L48.6168 31.9192L48.2793 31.9969L47.9042 32.0977L47.2622 32.2957L46.2368 32.6547L44.9879 33.133L43.483 33.7423L40.6742 34.928L35.563 37.1474L35.32 37.2319L35.1551 37.272L34.9824 37.2971C34.9527 37.3 34.9224 37.3021 34.8916 37.3035L34.6979 37.3028L34.4843 37.2827L34.2459 37.2413L33.9778 37.177L33.5096 37.0334L33.1463 36.9037L32.5126 36.6538L32.0239 36.4477L30.8657 35.9326L29.0293 35.0776L23.7741 32.558C22.6547 32.0184 22.1848 30.6735 22.7244 29.5541C23.2641 28.4348 24.6089 27.9648 25.7283 28.5045L29.6721 30.3862L31.2727 31.1335L33.0207 31.9285L34.0814 32.3904L34.6664 32.6275L39.2119 30.6536L41.7713 29.5695L43.0662 29.0397L44.5496 28.4619L45.1992 28.2241L46.0737 27.9264L46.8445 27.6943L47.3097 27.5731L47.7423 27.4765L48.1477 27.403L48.5313 27.3507L48.8984 27.3179C48.9585 27.314 49.0182 27.3108 49.0775 27.3083L49.605 27.3037L50.1278 27.3308L52.9352 27.5597L57.8978 28.0037L63.7603 28.5683L71.7348 29.379L72.9736 29.5082C78.7428 30.0385 82.2839 32.0532 83.466 35.2823Z" fill="#0079D0"/>
<path d="M58.0338 81.1085C59.0679 81.5555 60.2956 81.1662 60.8725 80.1669C61.4939 79.0907 61.1251 77.7146 60.049 77.0933L53.4371 73.276L53.2023 73.1579C52.1682 72.7109 50.9405 73.1002 50.3636 74.0995C49.7423 75.1757 50.111 76.5518 51.1871 77.1731L57.799 80.9904L58.0338 81.1085Z" fill="#0079D0"/>
<path d="M46.0907 86.0592C45.5138 87.0585 44.286 87.4478 43.252 87.0008L43.0172 86.8828L32.9464 81.0684C32.6061 80.8719 32.1436 80.4161 31.595 79.753L31.1045 79.135C31.0195 79.024 30.933 78.909 30.845 78.7903L30.3006 78.0338L29.7267 77.194L29.1282 76.2782L28.5102 75.2938C28.4059 75.1244 28.3009 74.9524 28.1955 74.7781L27.5577 73.7043L26.9129 72.58L26.2663 71.4126C26.1587 71.2149 26.0512 71.0156 25.9439 70.8151L25.304 69.5966C25.1981 69.3913 25.0926 69.1849 24.9877 68.9776L24.3657 67.7245L23.7621 66.4575L23.1818 65.1838L22.6298 63.9107C22.4511 63.4873 22.278 63.0651 22.1112 62.6455L21.8328 61.928L19.679 60.2919L15.1464 56.9013L14.3259 56.2669L13.8594 55.8862L13.657 55.7039L13.4591 55.5081L13.3864 55.4136L13.2211 55.1229L13.0235 54.7495C12.6098 53.5778 13.2242 52.2925 14.3959 51.8787C15.2071 51.5922 16.0728 51.7986 16.666 52.3415L16.8051 52.4832L17.4339 52.9846L24.0405 57.9463L24.7571 58.5068L25.1275 58.8177L25.4159 59.0944L25.4877 59.1862L25.5845 59.3465L25.8511 59.8328C27.4681 64.1993 29.6355 68.5076 32.0159 72.3757L32.4011 72.9945L33.1566 74.1673C33.5274 74.7296 33.8861 75.2535 34.2239 75.7278L34.7791 76.4878L35.1741 76.9984L35.3712 77.2413C35.3809 77.2587 35.3709 77.2644 35.2954 77.2258L45.2672 82.9856C46.3433 83.607 46.712 84.983 46.0907 86.0592Z" fill="#0079D0"/>
<path d="M51.7496 90.0002C52.9923 90.0002 53.9996 88.9929 53.9996 87.7502C53.9996 86.5076 52.9923 85.5002 51.7496 85.5002C50.507 85.5002 49.4996 86.5076 49.4996 87.7502C49.4996 88.9929 50.507 90.0002 51.7496 90.0002Z" fill="#0079D0"/>
<path d="M122.441 95.9887C121.82 94.9125 122.189 93.5365 123.265 92.9151L123.742 92.6359L124.721 92.0422L128.754 89.4891C129.001 89.3353 129.247 89.1829 129.494 89.0308L131.003 88.1143L132.627 87.1542C132.912 86.9877 133.206 86.8171 133.51 86.6415C134.586 86.0202 135.962 86.3889 136.584 87.4651C137.205 88.5413 136.836 89.9173 135.76 90.5387L134.089 91.514L133.216 92.0372C133.202 92.1097 133.184 92.1821 133.162 92.2543C132.914 93.0773 132.672 93.8624 132.432 94.6262L131.711 96.8701L130.254 101.246L130.062 101.865L129.922 102.361L129.829 102.755L129.815 102.826C129.809 102.858 129.803 102.89 129.798 102.92L129.764 103.203L129.762 103.439L129.787 103.65C129.848 103.996 130.587 104.761 131.375 104.898C132.702 105.13 134.555 104.09 136.858 100.971L141.979 93.8828L146.008 88.2401L148.421 84.8136L150.072 82.435C150.199 82.2503 150.324 82.0688 150.446 81.8908C150.805 81.3664 151.162 80.5164 151.508 79.3521L151.737 78.5294L151.963 77.6144L152.185 76.6078L152.402 75.5102L152.614 74.3225L152.82 73.0454L153.021 71.6796C153.054 71.4446 153.087 71.206 153.119 70.9637L153.31 69.4663L153.493 67.8821C153.503 67.7949 153.513 67.7121 153.527 67.6315L153.58 67.3949L153.633 67.239L153.747 66.9994L153.853 66.8307L153.987 66.6508L154.248 66.3522L154.469 66.1289L154.879 65.7489L155.595 65.1399L157.093 63.9505L160.047 61.703L163.116 59.3994C164.11 58.6541 165.52 58.8559 166.266 59.8503C167.011 60.8446 166.809 62.2548 165.815 63.0001L161.787 66.0469L159.679 67.6797L158.694 68.4651L157.88 69.1441L157.651 71.0193C157.615 71.3043 157.578 71.5849 157.54 71.8614L157.311 73.4696C156.528 78.6623 155.567 82.1793 154.337 84.1601L154.157 84.4352L152.555 86.752L150.706 89.3892L147.471 93.9445L142.296 101.135L140.849 103.132C137.505 107.863 133.989 109.922 130.602 109.331C127.915 108.862 125.74 106.613 125.355 104.431C125.175 103.409 125.204 102.627 125.541 101.324L125.757 100.557L126.038 99.6592L127.359 95.6981L127.091 95.8677L126.034 96.5088C125.861 96.6111 125.689 96.7119 125.515 96.8123C124.439 97.4336 123.062 97.0648 122.441 95.9887Z" fill="#0079D0"/>
<path d="M144.736 44.6115L139.014 47.1363L137.925 47.5884L137.483 47.748C137.078 47.8779 136.875 47.9299 136.511 47.8915L136.27 47.8575C131.692 47.0831 126.895 46.8105 122.375 46.9392L121.65 46.9636L120.262 47.0316L118.98 47.1226C118.776 47.1395 118.578 47.1572 118.386 47.1756L117.454 47.2762L116.818 47.3627L116.511 47.4116C116.492 47.4112 116.492 47.3996 116.564 47.3535L102.375 55.543C101.298 56.1643 99.9223 55.7956 99.301 54.7194C98.7241 53.7201 99.0008 52.4623 99.9049 51.7902L100.125 51.6459L114.41 43.3979C114.857 43.1401 115.798 42.9233 117.088 42.7594L117.999 42.658C118.159 42.6424 118.323 42.6276 118.491 42.6134L119.539 42.5369L120.668 42.478L121.868 42.4374C122.073 42.4322 122.281 42.4278 122.491 42.4243L123.779 42.4126L125.114 42.4212L126.486 42.4508L127.886 42.5022L129.305 42.5762L130.734 42.6735L132.162 42.7949L133.58 42.9411C134.285 43.0206 134.983 43.1097 135.668 43.2088L136.458 43.3296L136.945 43.1265L143.165 40.3884L143.774 40.1315L144.248 39.9406L144.557 39.8265L144.692 39.7818C145.185 39.6261 145.389 39.5823 145.931 39.6834C147.153 39.9109 147.959 41.0857 147.731 42.3073C147.504 43.529 146.329 44.3348 145.107 44.1073C145.259 44.1356 145.354 44.1628 145.417 44.185L145.543 44.2322C145.586 44.2441 145.619 44.2354 145.73 44.1924L144.736 44.6115Z" fill="#0079D0"/>
<path d="M110.25 63.0002C111.492 63.0002 112.5 61.9929 112.5 60.7502C112.5 59.5076 111.492 58.5002 110.25 58.5002C109.007 58.5002 108 59.5076 108 60.7502C108 61.9929 109.007 63.0002 110.25 63.0002Z" fill="#0079D0"/>
<path d="M94.4879 61.4429C94.2636 57.2946 90.8288 54 86.6245 54C82.2753 54 78.7495 57.5258 78.7495 61.875V66.0078C77.7266 65.5219 76.5823 65.25 75.3745 65.25C71.0253 65.25 67.4995 68.7758 67.4995 73.125V106.616L66.1308 105.009L63.3812 101.727L61.9839 100.086L61.1398 99.1313L60.6561 98.6093L60.2241 98.1684C60.1559 98.1012 60.0894 98.037 60.0245 97.9756L59.6521 97.6397C59.4736 97.4872 59.3055 97.3566 59.1422 97.2431L58.8205 97.037C58.6613 96.9438 58.5033 96.8642 58.3411 96.7931L58.0094 96.6608C55.9278 95.9032 52.8922 96.6616 51.1425 98.7545C48.9371 101.393 48.9629 105.467 51.3882 110.728L54.7402 118.202L57.9967 125.348L59.72 129.056L60.9255 131.602L61.0839 131.915C61.8487 133.352 63.27 135.066 65.3673 137.098L66.3834 138.058C67.0929 138.713 67.8666 139.4 68.7052 140.117L70.0119 141.218C70.4637 141.593 70.9317 141.977 71.4162 142.368L71.998 142.836L71.9985 150.75L72.0161 151.033C72.1549 152.142 73.1015 153 74.2485 153C75.4912 153 76.4985 151.993 76.4985 150.75V140.66L74.9962 139.471L73.172 137.991L72.0532 137.055L71.0127 136.161L70.0507 135.309L69.1677 134.5L68.3639 133.734C68.1092 133.487 67.8678 133.246 67.6397 133.014L66.9954 132.338L66.4314 131.708L65.948 131.124C65.505 130.564 65.1835 130.075 64.9848 129.66L64.1026 127.801L62.4385 124.234L59.7018 118.252L55.2544 108.353C53.7052 104.799 53.7313 102.674 54.5951 101.641C55.1082 101.027 56.1399 100.769 56.4703 100.889C56.5003 100.9 56.5383 100.922 56.5851 100.955L56.7521 101.089L56.9753 101.297L57.605 101.953L58.5046 102.959L59.7041 104.353L62.7057 107.928L63.9087 109.346L65.0001 110.61L66.0303 111.776L67.0499 112.902L68.1092 114.041C68.6644 114.632 69.4633 114.856 70.203 114.704C70.2579 114.693 70.3121 114.68 70.3655 114.665C71.3087 114.397 71.9995 113.529 71.9995 112.5V73.125L72.015 72.8C72.1785 71.0885 73.6202 69.75 75.3745 69.75C77.2385 69.75 78.7495 71.261 78.7495 73.125V101.25L78.7647 101.512C78.8946 102.631 79.8457 103.5 80.9995 103.5C82.2422 103.5 83.2495 102.493 83.2495 101.25V61.875L83.265 61.55C83.4285 59.8385 84.8702 58.5 86.6245 58.5C88.4885 58.5 89.9995 60.011 89.9995 61.875V101.25L90.0147 101.512C90.1446 102.631 91.0957 103.5 92.2495 103.5C93.4922 103.5 94.4995 102.493 94.4995 101.25V68.5588L94.5149 68.2411C94.6779 66.5676 96.1146 65.25 97.8745 65.25C99.7444 65.25 101.25 66.7374 101.25 68.5588V101.25L101.265 101.512C101.395 102.631 102.346 103.5 103.5 103.5C104.742 103.5 105.75 102.493 105.75 101.25V77.5588L105.765 77.2411C105.928 75.5676 107.365 74.25 109.125 74.25C110.994 74.25 112.5 75.7374 112.5 77.5588V119.25L112.492 119.905C112.395 123.991 111.355 126.991 108.372 131.511C108.049 132 107.494 132.65 106.714 133.461L105.99 134.195L105.156 135.009L104.324 135.799L101.246 138.645L100.099 139.727L98.9995 140.818V150.75L99.0147 151.012C99.1446 152.131 100.096 153 101.25 153L101.512 152.985C102.631 152.855 103.5 151.904 103.5 150.75V142.7L103.723 142.489L107.404 139.079L108.311 138.218L109.258 137.293C110.588 135.967 111.522 134.907 112.127 133.989C115.738 128.52 117 124.593 117 119.25V77.5588L116.988 77.1298C116.763 73.0113 113.323 69.75 109.125 69.75C107.917 69.75 106.773 70.0196 105.75 70.5017V68.5588L105.738 68.1298C105.513 64.0113 102.073 60.75 97.8745 60.75C96.6635 60.75 95.5155 61.0214 94.4896 61.5064L94.4879 61.4429Z" fill="#282828"/>
</svg>
