<?xml version="1.0" encoding="UTF-8"?><svg id="uuid-0c06ebb2-2d82-4733-8dd4-70caa6df2ddd" xmlns="http://www.w3.org/2000/svg" viewBox="0 0 486 364"><defs><style>.uuid-78c8bd5a-44da-4c2b-962e-0ed74e3140c2{fill:#0079d0;}.uuid-040312c5-e634-4085-9e73-fb7294b946dd{fill:#eaf5ff;}.uuid-99882dcd-d299-4b06-8fa5-f3a419c41f8e{fill:#fff;}.uuid-2958ca89-7b57-4e28-99cb-aec08108673a{fill:#ffcbae;}.uuid-485983a6-70bc-4944-9af6-8cdc682f056e{fill:#9e616a;}.uuid-f556b731-9ec4-4296-a890-23fc5992fe8f{fill:#adddff;}.uuid-d02aafc7-0923-4088-9326-2a35e7e6499a{fill:#a7a6b5;}.uuid-46a6d7d4-728d-43f8-852f-5174bf892958{fill:#e1cbf1;}.uuid-def0353a-8bea-4d4f-aec0-89cea09ae388{fill:#3f3d56;}.uuid-1da8fe1e-bbf0-4a27-9cbb-25ce73e63e75{fill:#646370;}</style></defs><path d="m363.56,182.59c.18-1.97.26-3.94.58-5.9.11-.55.04-1.2.4-1.6.84-.51.69,2.4.73,2.88-.07,1.6.11,3.17.14,4.74.04.51-.44.95-.95.95-.51.04-.98-.47-.91-1.06Z"/><path class="uuid-485983a6-70bc-4944-9af6-8cdc682f056e" d="m406.07,82.67c-2.8-19.13-10.12-4.63-18.96-27.37-2.77.36-1.53-2.84.33-3.28.76-6.81,1.78-9.69,3.31-13.41,3.75-.4,7.64.47,11.28,1.13,1.57,2.11,10.99,4.04,14.85,10.49.44.73.62,1.6.62,2.44-.14,4.12-.07,12.06,2.58,12.83,2.37-2.37,4.29,7.11,2.8,7.58-6.62,2.04-10.77,7.76-16.82,9.58Z"/><path class="uuid-485983a6-70bc-4944-9af6-8cdc682f056e" d="m388.74,146.01c-7.24-4.96-15.14-6.52-23.58-10.2-.87-.4-1.71-.91-2.4-1.6-2.47-2.33-4.73-7.69-4.73-7.69,0,0,4.08-4.67,7.72-6.31.8-.76,1.82-1.06,1.53.95-8.41,6.92,14.01,11.08,5.35,5.87-2.11-2.33-3.35-3.24-3.97-4.37-1.06-1.93-1.24-4.08.69-3.46,2.62.84,8.55,5.28,14.12,8.6,4.66,5.5,9.94,9.47,11.54,10.13-1.16,3.17-3.79,7.07-6.26,8.09Z"/><path class="uuid-485983a6-70bc-4944-9af6-8cdc682f056e" d="m330.58,87.19c1.35,1.2-.47,1.82-.95,2.73-1.75,1.42-4.29,8.38-6.73,5.87-3.27-2.84-5.42-6.81-8.7-9.62-4-1.35-8.77-2.51-11.97-5.61-2.22-2.15.91-3.43,2.62-2.22-.98-.77-4.69-1.53-2.47-3.9-2-1.02-4.26-3.43-.84-4.01-.62.11.73-.95.84-1.13-2.22-1.31-14.92-4.74-11.57-6.3,1.93-1.13,13.98,4.96,21.04,5.83,3.86,1.02,5.86,5.14,7.93,8.16,3.97,2.99,7.13,6.89,10.81,10.2Z"/><path class="uuid-040312c5-e634-4085-9e73-fb7294b946dd" d="m373.6,128.01c.11,1.38-4.99,1.68-5.86.44-1.13-1.6-3.82-4.52-.47-7.32,1.67-1.42,1.13,2.41,1.86,3.06.84.98,3.6,2.59,4.48,3.83Z"/><path class="uuid-040312c5-e634-4085-9e73-fb7294b946dd" d="m404.65,123.09c.58,3.86-1.13,10.53-1.38,16.87-5.71-.07-15.36-5.32-18.74-11.33-4.22-4.41-10.81-5.98-15.32-9.66-4.22-1.24-.84-6.96,2.55-3.13,10.41,2.73,22.42,4.59,32.9,7.25Z"/><path class="uuid-040312c5-e634-4085-9e73-fb7294b946dd" d="m400.06,156.87c-1.82,6.38-1.64,4.48-1.64,4.48l-32.83-7.22.73-17.85s20.89,4.37,33.74,20.59Z"/><path class="uuid-040312c5-e634-4085-9e73-fb7294b946dd" d="m377.86,259.45c1.6-12.83-7.13-4.12-5.13,3.86,2.07,12.97,4.48,3.97,5.13-3.86Zm1.57,16.4c-1.96-2.66-1.93-2.11-5.1-1.09-.98,4.66,4.51,6.19,5.1,1.09Zm13.68-17.86c1.89,27.55-12.3,16.18-15.87,30.54-.58,1.53-.65,5.79-3.17,3.75-3.46-6.2-6.59-2.3-10.99-.04-1.42.73-3.17,0-3.64-1.53-2.59-8.13-2.22-21.72-3.28-30.43-.11-1.02.18-2.04.84-2.81,6.95-8.09,20.96-10.75,31.55-15.05,6.52-3.64,4.48.51,4.55,15.56Z"/><path class="uuid-46a6d7d4-728d-43f8-852f-5174bf892958" d="m398.1,207.3c.04,1.71.36,3.39.18,5.1-.18,1.68.04,3.35-.04,5.07.07.84.29,1.75-.22,2.55-.55.95-1.6,1.46-2.48,2.04-1.46.91-2.98,1.68-4.55,2.33-.98.36-2.37,1.27-3.28.33-2.18,1.2-4.33,2.44-6.7,3.28-3.68,1.42-7.5,2.44-11.32,3.43-2.4.47-4.84.55-7.21,1.2-1.02.33-2.04.66-3.02,1.06-.76.33-1.53.62-2.33.84-.51.11-1.02.22-1.49-.07-.51-.33-.62-1.02-.29-1.53.04-.04.07-.11.11-.15-.15-1.28-.11-2.59-.29-3.9-.04-1.64-.36-3.24-.51-4.88-.15-2.51-.76-4.96-1.17-7.47-.26-1.24-.65-2.48-.65-3.79.04-1.38.07-2.77-.26-4.15-.22-1.53-.44-3.13-1.35-4.41-.18-.55.14-1.09.29-1.6.36-.76,1.17-.69,1.89-.62,1.17.07,2.08-.29,3.17-.55.95-.26,1.93-.44,2.88-.66,1.02-.4,2.08-.76,3.09-1.09,3.2-1.02,6.48-1.86,9.68-2.92,4.48-1.38,9.06-2.48,13.61-3.72,2.48-.4,4.88-1.2,7.28-1.89.84-.26,1.71-.47,2.44-.95.36-.36.87-.69,1.42-.51.4.15.62.4.69.69.22.18.36.4.44.66.65,3.02-.07,6.16-.29,9.22-.04.44-.04.95-.04,1.46.11,1.02.22,2.04.29,3.06.07.91,0,1.75,0,2.55Z"/><path class="uuid-46a6d7d4-728d-43f8-852f-5174bf892958" d="m356.82,142.04c.11,1.35.07,2.73-.15,4.08-.15,1.35-.15,2.73-.25,4.12-.11,2.84.18,5.72.11,8.56-.11,2.66-.04,5.28-.18,7.94-.07,1.27-.22,2.55-.18,3.83.04.84.18,1.64.36,2.44.36,1.24-.22,2.92-1.78,2.62-.62-.07-1.2-.4-1.75-.69-.51-.18-1.31-.4-1.75-.55-3.13-.84-6.41-.11-9.61-.44-2.07-.07-4.11-.66-6.15-.95-6.84-.8-13.65-1.89-20.45-3.1-3.06-.51-6.04-1.31-9.17-1.46-1.38-.11-2.77-.37-4.15-.66-1.35-.33-2.95-.22-4.08-1.06-.47.51-1.42.55-1.78-.22-.36-1.35-.44-2.81-.65-4.19-.29-3.21-.04-6.45.04-9.69.04-3.21.15-6.41.33-9.58,0-.29.04-.55.04-.84-.18-.18-.29-.4-.29-.66.07-2.4.11-4.77-.22-7.18-.07-1.02-.18-2-.14-3.02.04-.4.14-.8.47-1.09.29-.26.65-.29.98-.29.4-.07.76-.26,1.16-.36,3.02-1.02,6.22-1.2,9.35-1.53,3.46-.18,6.92-.51,10.37-.47,2.77.07,5.53.55,8.26.98,2.73.36,5.42.91,8.08,1.75,3.89,1.35,7.97,2.3,11.76,3.97,2.48,1.06,4.77,2.44,7.13,3.68,1.17.62,2.37,1.24,3.49,1.97.33.22.66.55.73.95.04.4.07.76.07,1.13Z"/><path class="uuid-46a6d7d4-728d-43f8-852f-5174bf892958" d="m357.01,150.02c-.44,0-.8-.4-.76-.88,0-1.02.04-2,.07-2.99-.15-.98-.04-2-.04-2.99-.15,0-.22-.11-.29-.04-.18.44-.11.95.04,1.38.04.18-.25.26-.29.07-.07-.29-.14-.58-.14-.91-.04-.51.04-1.09.58-1.31.33-.58-.15-1.71.65-1.97.29-.07.62.15.69.44.8.26.55,1.28.58,1.9-.04,1.17.29,2.4-.07,3.5-.04,1.02-.04,2-.07,3.02-.11.44-.51.8-.95.77Z"/><path class="uuid-99882dcd-d299-4b06-8fa5-f3a419c41f8e" d="m454.95,97.87c-8.23,8.71-7.02,9.37-17.87,16.11,1.13,23.69-1.24,50.65.07,74.78,8.3-3.64,16.41-13.48,17.76-16.4,1.49-16.03,0-64.35.04-74.48Z"/><path class="uuid-78c8bd5a-44da-4c2b-962e-0ed74e3140c2" d="m405.16,76.33c-3.49,3.61-11.57,3.64-16.85,6.85-3.53,1.53-21.98,18.51-22.02,9.84,0-2.66.44-25.87.44-25.87,0,0,34.65-4.92,38.43,9.18Z"/><path class="uuid-78c8bd5a-44da-4c2b-962e-0ed74e3140c2" d="m454.14,91.6c1.57,8.2-7.72,14.32-12.45,19.02-2.29-8.13-2.4-19.82-9.24-26.86-5.13-5.76-5.21-5.47-5.06-7.25-1.89-9.29,27.4,7.11,26.75,15.09Z"/><path class="uuid-78c8bd5a-44da-4c2b-962e-0ed74e3140c2" d="m435.91,143.71c-.11,3.46,4.33,15.01-4.22,8.78.33.91,1.75-8.64,4.22-8.78Z"/><path class="uuid-78c8bd5a-44da-4c2b-962e-0ed74e3140c2" d="m439.4,37.41c3.31,9.95-6.91,21.43-16.09,23.32,2.91,7.14-5.9,8.02-6.84.22-.18-1.53.47-4.41,1.02-6.56.26-.95-.44-1.97,0-3.06-2.62-4.99-7.21-2.26-10.08,2.62-.51.87-1.96.29-2.11-.73-1.31-9.11.98-16.03-12.56-14.72-6.15.18-.11-8.49,1.75-10.39,10.41-10.42,39.85-7.87,44.91,9.29Z"/><path class="uuid-78c8bd5a-44da-4c2b-962e-0ed74e3140c2" d="m357.84,141.82c-4-8.46-41.53-17.31-62.38-11.52-.22,1.79-.07,2.44-.07,4.74,6.51-1.42,29.84-1.71,44.29,3.02,3.82,1.53,13.94,4.74,17.11,7.32.76.62,1.05-1.71,1.05-3.57Z"/><path class="uuid-f556b731-9ec4-4296-a890-23fc5992fe8f" d="m440.31,108.98c-5.53,7.47-1.31,19.42-3.79,29.26-9.35,37.61-23.48,27.18-47.28,8.53,3.13-4.01,4.62-5.47,5.71-8.82,3.89.69,5.35,2,7.86,2,.69-1.86,1.53-6.16,1.6-17.6-8.33-1.09-17.14-5.21-25.04-5.36-2.51-.73,1.96-5.9-1.35-4.23-2.29.95-4.48,1.93-6.51,2.84-.62.26-2.58-1.06-3.17-.8-.65.29.04,2.15-.62,2.44-12.05,5.07-20.35,6.34-33.01-9.77-1.78-3.75-11.65-7.32-9.35-11.11,7.35-9.8,4-8.89,15.03-2.62,6.95,10.49,20.82,5.39,34.43-1.71,4.44-2.33,8.88-5.5,13.03-7.58,9.46-4.74,15.25-7.69,17.54-7.32-.11.66-.04,3.02.04,6.38,7.24-3.75,14.52-9.62,20.38-12.43,1.96,1.82,1.38,6.67,1.38,6.67,0,0,14.85,13.92,13.1,31.23Z"/><path class="uuid-99882dcd-d299-4b06-8fa5-f3a419c41f8e" d="m398.42,220.35c-2.11,3.43-33.99,13.81-42.98,14.83-1.86-6.27-3.35-28.21-3.97-32.25,1.78-1.35,46.95-13.15,46.95-13.15,0,0,.4,23.72,0,30.57Z"/><path class="uuid-99882dcd-d299-4b06-8fa5-f3a419c41f8e" d="m357.41,145.72c.26,8.64-.55,17.56-1.46,30.28-19.18-2.48-41.13-8.13-60.45-8.75,0-7.65.11-25,.18-32.32,20.42-2.33,43.42,1.13,61.73,10.79Z"/><path class="uuid-040312c5-e634-4085-9e73-fb7294b946dd" d="m393.77,57.78c-3.53-3.24-.98-20.84,3.02-11.37,1.24,2.88,1.53,11.99-3.02,11.37Z"/><path class="uuid-040312c5-e634-4085-9e73-fb7294b946dd" d="m385.36,52.32c-2.33-4.26,2.36-11.62,2.4-5.21.14,1.82-.04,5.32-2.4,5.21Z"/><path class="uuid-040312c5-e634-4085-9e73-fb7294b946dd" d="m387.36,58.62c-2.4-1.24,1.31-4.26,1.31-1.93.07.77-.04,2.51-1.31,1.93Z"/><path class="uuid-f556b731-9ec4-4296-a890-23fc5992fe8f" d="m417.35,186.6c-1.35-.29-3.31,4.81-3.93,4.63-.62-.18-4.73-3.9-4.73-3.9l3.71-4.92s3.02,1.6,4.95,4.19Z"/><path class="uuid-78c8bd5a-44da-4c2b-962e-0ed74e3140c2" d="m397.11,238.24c-2.26-.73-1.71-3.21.11-4.12.73-.91,2.26-1.35,3.13-.44.87-.29,1.93.26,2.11,1.2.07-.04.11-.07.18-.07.11-.04.18.11.07.18-.07.04-.15.07-.22.11.18,1.75-1.64,3.72-3.42,3.1-.62.18-1.31.26-1.97.04Z"/><path class="uuid-78c8bd5a-44da-4c2b-962e-0ed74e3140c2" d="m279.78,94.26c-3.82-1.31-2.15-6.78.36-7.47,5.06-1.31,4.55,8.27-.36,7.47Zm.91-3.79c.04-.07-.04-.11-.11-.11,0,.04.04.07.11.11Z"/><path class="uuid-99882dcd-d299-4b06-8fa5-f3a419c41f8e" d="m303.03,162.77h-.04c-.95-.11-1.24-1.31-.58-1.86.04.18.07.33.07.51,0,.44.14.8.36,1.06.04.07.11.18.18.29Z"/><path class="uuid-99882dcd-d299-4b06-8fa5-f3a419c41f8e" d="m325.05,165.58c.26,0,.47,0,.69-.04-.29.26-.65.37-1.02.26-.22-.07-.4-.18-.51-.33.29.04.58.07.84.11Z"/><path class="uuid-99882dcd-d299-4b06-8fa5-f3a419c41f8e" d="m329.31,148.63c.25-2.26,1.38-4.74.07-6.85-.04-.04-.07-.11-.11-.15h.07c2.04.73.8,5.14-.04,7Z"/><path class="uuid-99882dcd-d299-4b06-8fa5-f3a419c41f8e" d="m302.12,140.21c-.11.15.04.26.15.26,0,.07-.04.18-.04.26-.22-.26-.33-.55-.33-.87.07.11.18.18.33.26-.04.04-.07.07-.11.11Z"/><path class="uuid-99882dcd-d299-4b06-8fa5-f3a419c41f8e" d="m302.27,156.87c0,1.31-.07,2.7.15,4.01-.22-.11-.4-.29-.47-.55-.98-4.04-.18-8.31-.33-12.43.11-1.24-.26-4.92.55-6.05v.07c-.22,1.53-.26,3.1-.29,4.66-.11,3.46.11,6.89.4,10.28Z"/><path class="uuid-99882dcd-d299-4b06-8fa5-f3a419c41f8e" d="m305.11,138.87c-.36.04-.76.11-1.13.18,0-.11-.04-.22-.07-.33.4.07.8.11,1.2.15Z"/><path class="uuid-99882dcd-d299-4b06-8fa5-f3a419c41f8e" d="m311.44,138.83c.65-1.06,1.82-.36,2.84.07-.95-.04-1.89-.07-2.84-.07Z"/><path class="uuid-f556b731-9ec4-4296-a890-23fc5992fe8f" d="m330.47,141.82c.22,6.81-1.82,17.46-3.64,23.72-7.35-1.38-18.27.07-24.71-3.1-1.67-7.62.22-16.73-.22-23.87,7.72.62,20.45-.73,28.57,3.24Z"/><path d="m388.63,146.96c-.22-.18-.44-.37-.65-.55-.36-.29-.76-.58-1.17-.84-.29-.22-.58-.4-.87-.58h1.89c.15.15.33.29.47.4.33.29.65.58.95.91.25.22.47.44.69.69-.4,0-.84-.04-1.31-.04Z"/><path d="m399.48,220.31v-4.52c0-2.3,0-4.63-.04-6.92,0-1.13-.04-2.3-.04-3.43-.04-1.13-.04-2.26-.07-3.35-.07-2.33-.15-4.66-.33-7-.07-.98-.15-2.01-.29-3.06-.07-.51-.11-1.02-.22-1.53-.04-.22-.07-.47-.11-.69-.04-.15-.07-.37-.18-.51-.07-.07-.18-.07-.22,0l-.04.04c-.07-.11-.18-.22-.33-.26-.25-.11-.47-.07-.73,0-.15.04-.33.07-.47.15-1.93.58-3.86,1.13-5.79,1.68-1.93.55-3.89,1.09-5.82,1.64-1.97.55-3.97,1.09-5.93,1.64-1.96.55-3.97,1.13-5.93,1.71-1.96.58-3.93,1.13-5.9,1.71-1.93.58-3.89,1.17-5.86,1.71-1.97.58-3.97,1.17-5.93,1.78-.98.33-3.86,1.46-4.84,1.79-.47.18.95,7.51,1.16,9.99.22,2.4.44,4.81.73,7.21.26,2.33.51,4.66.8,7,.26,2.26.55,4.55.84,6.81.04.26.07.51.11.77.04.22.07.44.15.62.11.33.47.55.84.55.11,0,.22-.04.33-.07.04,0,.07-.04.07-.04,3.68-.37,7.17-1.17,10.85-1.93,3.46-.95,6.81-2.22,10.26-3.21,2.18-.55,4.3-1.24,6.37-2.22,1.86-.91,3.86-1.39,5.71-2.19,3.49-1.75,7.43-2.62,10.63-4.85.33-.29.36-.69.22-1.02Zm-9.79,3.43c-2.29,1.24-4.73,1.82-7.1,2.81-3.53,1.75-7.43,2.44-11.17,3.72-2.26.73-4.48,1.57-6.77,2.04-2.47.4-4.88.98-7.35,1.42-.51.07-.98.22-1.42.36-.07-1.06-.18-2.08-.29-3.13-.26-2.3-.51-4.55-.77-6.85-.29-2.37-.55-4.74-.84-7.11-.33-2.44-.65-4.85-1.02-7.29-.18-1.17-.36-2.37-.58-3.53-.11-.58-.22-1.17-.36-1.75-.07-.29-.11-.55-.18-.8-.04-.15,1.35-.73,2.07-.91.98-.22,1.93-.47,2.91-.73,2-.51,3.97-1.06,5.93-1.6,2-.55,3.97-1.09,5.97-1.64,1.97-.55,3.89-1.09,5.86-1.64,1.96-.55,3.93-1.09,5.9-1.68,1.97-.58,3.97-1.17,5.93-1.71,1.93-.55,3.89-1.13,5.86-1.68.98-.29,1.96-.55,2.95-.84.47-.14.95-.25,1.42-.36.22-.07.44-.11.65-.18.18-.04.33-.11.51-.18-.04.22-.07.44-.07.66-.07.69-.11,1.38-.15,2.11v.11c0,.22-.04.47-.04.69-.07,1.17-.11,2.3-.11,3.46-.04,1.17-.04,2.37-.04,3.53,0,2.22.04,4.45.07,6.67.04,1.2.07,2.4.07,3.61.04,1.09.07,2.22.11,3.32.04,1.17.07,2.33.11,3.46.04.55.04,1.06.07,1.6v.4c-.26.15-.51.29-.76.44-2.37,1.31-4.95,2.11-7.39,3.21Z"/><path d="m413.16,192.94c-2.11-.95-3.2-3.17-5.28-4.37-2.29-1.35,3.89-8.24,4.55-7.8,6.26,4.26,6.48,5.36,6.15,6.05-.36.91-4.26,6.41-5.42,6.12Zm-3.79-5.58c1.67.73,2.66,2.22,3.9,3.46,1.05-1.6,2.22-2.99,3.53-4.34-1.53-1.17-3.31-2.04-4.48-3.61-1.05,1.46-1.89,3.06-2.95,4.48Z"/><path d="m397.4,239.29c-1.71-.04-2.88-1.53-2.84-3.21.18-1.53,1.53-2.88,2.95-3.39.91-.36,1.93-.62,2.88-.18,1.13.58,2.26,1.64,2.36,2.99.04.66-.22,1.31-.65,1.82-.87,1.28-2.33,2.04-3.82,2.04-.29.04-.58,0-.87-.07Zm1.27-5.32c-1.27.18-2.18.66-2.4,2,.15,1.49.95,1.68,2.29,1.68.84-.07,1.53-.62,1.96-1.31.18-.26.4-.58.29-.91-.36-.69-.98-1.53-1.82-1.53-.11,0-.22.04-.33.07Z"/><path d="m394.02,246.07c.15-8.31-6.33-4.85-11.32-3.02-7.39,3.02-14.85,6.05-21.76,10.02-6.59,4.12-6.22,5.17-5.39,12.21.15,7.87,1.46,15.71,2.18,23.58.18,2,.47,4.92,3.09,4.92,2.84.11,8.33-2.4,9.97-4.45,5.71,12.97,6.59-.66,9.39-6.05,4-1.82,7.57-4.52,11.21-6.96,3.17-2.55,2.08-5.21,2.58-8.67.51-7.22.26-14.39.04-21.57Zm-5.2,29.63c-2.84,2.08-6.22,3.9-9.1,5.94-2.73-.4-3.64,8.45-4.95,10.53-1.42-1.42-2.33-3.94-4.11-4.77-.33-.14-.73-.11-.98.11-2.37,2.15-5.57,3.79-8.77,4.04-1.02.04-.84-2.44-1.05-3.21-.55-4.96-4.33-29.26-1.17-31.19,9.5-6.41,20.38-11.37,31.41-14.36,2.66-1.64,2.84,19.17,1.75,27.7-.22,2.11-1.35,4.01-3.02,5.21Z"/><path d="m375.39,272.27c-1.24-.22-2.07-1.75-2.26-2.81-.69-3.86-1.57-7.69-1.02-11.62.95-9.04,7.35-6.56,6.44,1.97-.26,2.44-.58,4.85-.8,7.25-.4,1.53-.11,5.28-2.37,5.21Zm-.87-16.47c-.47,1.86-.65,3.9-.62,5.79.18,2.41.69,4.7,1.27,7,.04,0,.07.04.07.04.44-3.39,1.02-6.74,1.17-10.17.04-1.17.11-2.33-.18-3.46-.11-.44-.33-.62-.51-.62-.44,0-1.02.88-1.2,1.42Z"/><path d="m375.89,279.71c-3.97-.91-2.69-7.11,1.2-6.63,4.62.55,3.31,7.83-1.2,6.63Zm.51-4.48c-1.67.04-1.27,2.51.18,2.51,1.82.07,1.64-2.81-.18-2.51Z"/><path d="m279.71,95.14c-6.8-1.24-3.24-11,2.66-8.82,4.4,2,2.4,10.02-2.66,8.82Zm1.42-7.91c-4.59.04-4.77,7.65-.04,6.6,3.71-.8,2.77-6.49.04-6.6Z"/><path d="m364.43,54.69c-1.17-.4-2.48-.04-3.71-.18-.29-.04-.51-.29-.47-.62.11-1.24.22-4.08-.11-5.54-.15-.58-.98-.55-1.09.04-.36,1.71-.22,3.64-.62,5.43-.07.29-.29.47-.58.44-1.6-.07-3.2.07-4.77.07-.18,0-.36.07-.51.22-1.31,1.6,3.02,1.57,4.77,1.68.33.04.58.33.51.66-.4,2.33-2.18,8.82.62,7.73.14-.07.29-.18.33-.36.73-2.22.55-4.81,1.02-7.22.07-.29.33-.51.62-.47,1.78.18,6.11.73,4.88-1.53-.07-.07-.76-.29-.87-.33Z"/><path d="m361.77,180.55h-.25c-.22,0-.44,0-.62-.07-.44-.29-.04-.8.36-.88,1.09-.29,2.26-.36,3.38-.62,1.02-.22,1.93-.4,2.95-.51.76-.11,1.31.84.8,1.42-.29.36-.77.36-1.24.33-.22,0-.47-.04-.65,0-1.38.15-2.77.36-4.18.36-.22-.04-.4-.04-.55-.04Z"/><path d="m358.79,140.76c-.47-1.06-2.18-1.89-3.02-2.59-1.64-1.2-3.68-2.22-5.53-3.1-5.86-2.59-11.94-4.66-18.27-5.79-10.05-1.75-20.31-1.9-30.46-1.39-1.96.22-4,.58-5.86,1.31-.55.26-1.16.55-1.49,1.02-.11.33.15.47.44.51.04.47.07.95.18,1.42v.04c-.22,2.44-.04,4.88,0,7.36.11,5.94.07,11.88.07,17.82.04,3.32-.18,6.63.11,9.95.04.29.29.55.62.55.15,0,.22-.04.33-.11.07,0,.15.04.22.04,7.5.84,15.03,1.75,22.53,2.81,5.17.66,10.3,1.9,15.5,2.73,5.17.58,10.34,1.17,15.43,2.08,1.75.29,5.53,1.2,6.88,1.35.36.04.65-.18.73-.55.29-1.53.44-6.16.47-7.11.15-2.66.25-5.32.36-7.98.11-2.59.22-5.14.29-7.73.11-2.66.87-12.28.47-12.65Zm-24.27-9.55c4.26.88,9.46,3.02,13.47,4.77,3.31,1.42,6.51,3.21,9.24,5.58v.07c-.11.62-.18,1.24-.25,1.86-.04.4-.07.84-.11,1.24-.69-.4-1.42-.84-2.18-1.24-.98-.55-1.96-1.09-2.99-1.53-1.05-.47-2.15-.91-3.24-1.35-1.13-.4-2.26-.8-3.42-1.17-1.13-.36-2.26-.73-3.39-1.06-2.36-.69-4.73-1.28-7.13-1.79-2.4-.55-4.8-1.02-7.24-1.46-2.51-.44-5.02-.84-7.57-1.13-2.47-.29-4.95-.51-7.42-.66-2.48-.15-4.95-.18-7.43-.15-1.24.04-2.44.07-3.68.22-.62.07-1.24.15-1.89.26-.58.11-1.17.22-1.75.36-.4.11-.84.22-1.27.36-.07.04-.18.07-.29.11-.04-.18-.04-.4-.07-.58-.04-.55-.07-1.06-.11-1.6.07-.22.04-.51-.07-.73t-.04-.07c-.04-.18-.04-.36-.07-.58v-.15c8.7-3.64,30.94-1.31,38.91.4Zm10.45,42.2c-3.86-.55-7.72-.91-11.54-1.38-6.01-1.24-12.05-2.19-18.12-3.06-3.75-.58-7.53-1.09-11.32-1.57-1.31-.25-2.62-.47-3.97-.51-1.27-.11-2.55,0-3.82.07v-.55c.04-2.59.07-5.21.15-7.8.04-6.49-.04-12.97,0-19.46.04-1.28-.15-2.55-.33-3.83.22-.04.47-.04.69-.07h.11c.65-.07,1.31-.15,1.93-.18.73-.07,1.42-.15,2.15-.18,1.2-.11,2.44-.18,3.68-.22,1.24-.04,2.48-.07,3.75-.07,2.33.04,4.73.15,7.13.33,2.48.22,4.91.47,7.35.84,2.15.29,4.37.69,6.59,1.13,2.4.47,4.77,1.02,7.13,1.64.87.22,1.78.51,2.73.76.91.29,1.82.55,2.73.84,2.29.73,4.51,1.57,6.73,2.48,1.57.66,3.17,1.39,4.77,2.11.4.18.8.4,1.16.66.04,0,.04.04.07.04.51.29.98.62,1.46.95.15.15.33.26.47.4-.07.84-.11,1.68-.18,2.55-.14,2.62-.29,5.25-.4,7.84-.15,2.62-.26,5.21-.36,7.83-.07,1.31-.11,2.66-.15,3.97-.04,1.13-.07,4.92-.07,6.01,0,.15-.15.26-.29.22-3.35-.73-6.8-1.27-10.23-1.79Z"/><path d="m297.79,133.07c-.62-.15-.91-1.02-.44-1.46.22-.69,1.27-.69,1.71-.22.69.73-.15,1.71-.98,1.71-.07,0-.18-.04-.29-.04Z"/><path d="m301.29,132.41c-1.35-.18-1.17-1.89.14-1.93.73-.04,1.06.47,1.06.98,0,.47-.33.98-.95.98-.04,0-.15,0-.25-.04Z"/><path d="m304.31,132.2c-1.38-.51-.58-2.4.77-1.97,1.16.44.69,2.04-.33,2.04-.15,0-.29-.04-.44-.07Z"/><path d="m348.05,151.73c-.33,0-.65-.11-.98-.18-4.15-.95-8.48-1.35-12.56-2.55-.33-.22-.33-.69,0-.91.51-.29,1.16-.18,1.71-.18,3.64.26,7.13.95,10.63,1.82.55.18,1.2.26,1.67.62.51.44.22,1.38-.47,1.38Z"/><path d="m347.65,156.07c-.33,0-.66-.11-.98-.18-4.15-.95-8.48-1.35-12.56-2.55-.33-.22-.33-.69,0-.91.51-.29,1.16-.18,1.71-.18,3.64.26,7.13.95,10.63,1.82.55.18,1.2.25,1.67.62.51.44.22,1.35-.47,1.39Z"/><path d="m347.25,160.11c-.33,0-.66-.11-.98-.18-4.15-.95-8.48-1.35-12.56-2.55-.33-.22-.33-.69,0-.91.51-.29,1.16-.18,1.71-.18,3.64.26,7.13.95,10.63,1.82.55.18,1.2.25,1.67.62.51.4.22,1.35-.47,1.38Z"/><path d="m346.05,166.3c-1.09-.22-2.22-.36-3.35-.51-1.57-.36-3.13-.36-4.7-.58-1.71-.4-3.6-.22-5.2-1.02-.8-.66-.55-3.93.73-3.83.44-.22.95-.07,1.42,0,1.46.22,2.91.44,4.33.8,1.96.4,3.97.55,5.93.98.8.15,1.97.51,1.97,1.57.11.51.07,1.06-.07,1.57-.07.58-.33,1.06-.91,1.06-.07,0-.11,0-.15-.04Zm-11.97-3.21c2.88.76,5.86,1.17,8.77,1.64,1.02.11,2.07.14,3.06.4.11-.51.29-.98.22-1.5-1.6-.84-3.49-.62-5.24-.91-2.33-.36-4.77-.47-7.06-1.09.04.47.22.95.25,1.46Z"/><path d="m369.71,206.24c1.31-.58,2.77-.8,4.11-1.31,1.93-.66,3.79-1.42,5.68-2.11,1.64-.58,3.2-1.35,4.84-1.89,1.27-.33,1.89,1.46.69,2-5.1,1.82-10.15,4.37-15.65,4.41-.65-.26-.22-.91.33-1.09Z"/><path d="m370.76,213.97c-.11-.07-.22-.25-.04-.29.98-.18,1.86-.69,2.8-.95,2.4-.73,4.73-1.68,7.06-2.62,1.64-.62,3.24-1.28,4.77-2.11.73-.36,1.64.26,1.53,1.06-.04.73-.8.98-1.35,1.28-.91.44-1.82.87-2.77,1.2-3.57,1.35-7.28,2.37-11.1,2.7h-.07c-.29,0-.62-.07-.84-.26Z"/><path d="m373.71,221.48c-.47-.11-.65-.58-.14-.8.98-.33,1.96-.55,2.95-.91,1.09-.37,2.22-.62,3.31-.98,1.49-.62,2.91-1.35,4.37-2,.8-.44,1.35-.91,2.15-1.24.29-.18.65-.29.98-.18,1.02.25,1.05,1.68.11,2.04-.87.37-1.6.95-2.48,1.31-1.82.69-3.57,1.6-5.49,2-1.75.29-3.53.8-5.31.8-.11-.04-.29-.04-.44-.04Z"/><path d="m331.57,143.02c.33-4.7-27.19-6.08-29.95-5.61-.4.04-.47.69-.47,1.42-.47,3.79-.29,18.26.04,22.88.07.88.69,1.57,1.57,1.71,4.22.69,17.25,2.37,24.09,3.32,1.86-.11,1.67-6.27,2.22-7.94.8-5.36,1.96-10.17,2.51-15.78Zm-23.15,19.6c.04-3.72,1.96-7.21,5.24-9.04,1.27.58,2.69.98,4.04.55,2.66,2.51,3.17,6.34,3.6,9.8-4.26-.58-8.59-.84-12.88-1.31Zm6.66-16.65c4.44-1.17,6.11,6.01,1.27,6.3-3.93.26-5.24-5.25-1.27-6.3Zm14.19.69c-.76,6.01-2.11,11.95-2.95,18-1.31-.11-2.58-.44-3.86-.58,1.46-3.61-.25-7.98-2.8-11.08,3.82-3.17.76-9.07-3.75-9.18-4.51-.11-7.46,6.52-3.38,9.07-3.82,1.28-6.04,5.61-6.26,9.48-.91-.11-1.78-.29-2.69-.4-.47-.07-.87-.47-.91-.98-.4-4.59-.07-9.15-.29-13.74-.07-2.4-.11-4.52-.11-7.18,0-.55.47-.98,1.06-.95,7.93.51,15.14,0,25.55,3.54.62.22.98.76.87,1.42-.25,1.02-.4,2.19-.47,2.59Z"/><path d="m422.99,62.67c0-.4.04-.84.07-1.24.04-.15.07-.29.15-.4.26-.15.65.15.47.47-.29.4-.55.87-.65,1.38-.04-.11-.04-.15-.04-.22Z"/><path d="m374.91,139.67c.04-.11.11-.18.18-.29.22-.22.58-.15.69.15.07.22.07.4.07.58-.33-.15-.62-.29-.95-.44Z"/><path d="m397,99.14c-.33-1.38,1.46-3.53,2.58-1.82.65,1.38-1.75,3.57-2.58,1.82Z"/><path d="m386.67,114.52c-.76-1.46,2.55-4.88,2.95-1.97-.11,1.02-1.89,3.06-2.95,1.97Z"/><path d="m379.06,141.34c-.22-.07-.44-.15-.65-.22.04-.15.07-.29.22-.4.47-.33.84.29.87.73v.07c-.14-.11-.29-.15-.44-.18Z"/><path d="m388.56,56.14s.04-.07.07-.07.07.04.07.07-.04.07-.07.07-.07,0-.07-.07Z"/><path d="m389.07,56.8c0-.07.07-.11.11-.11s.11.04.11.11-.07.11-.11.11-.11-.04-.11-.11Z"/><path d="m396.97,26.99l-.07.04s.04,0,.07-.04Z"/><path d="m400.1,25.17q-.07.04-.11.04l.11-.04Z"/><path d="m402.64,24.15s-.07.04-.07.04c.04,0,.07-.04.07-.04Z"/><path d="m402.9,39.46s.04.04.07.07t-.07-.07Z"/><path d="m394.09,58.4c-1.67-.69-2.26-2.62-2.66-4.26-.55-2.59-.29-5.25.44-7.76.69-2.7,3.06-4.92,4.8-1.53.95,1.68.91,3.68,1.09,5.54.07,1.09.18,2.19.07,3.24-.36,1.93-.91,6.09-3.75,4.77Zm.36-.98c.51.22,1.09.04,1.38-.44.58-.95.8-2.51.8-2.51,0,0,.22-2.33.15-3.53-.11-1.53-.15-3.02-.47-4.52-.18-.87-.66-1.64-1.24-2.3-.62-.55-1.31.26-1.67.73-1.78,4.41-1.93,11.33,1.05,12.57Z"/><path d="m366.43,136.97c-.18,0-.36-.04-.47-.18-.22-.25.11-.58.36-.44.15,0,.33,0,.4.15.15.04.33.11.33.29.04.11-.07.22-.15.11h-.25c-.07.07-.15.11-.22.07Z"/><path d="m316.72,78.85c-.15-.22-.4-.29-.65-.15-.4.15-.8.22-1.24.25-.55.04-1.09,0-1.6.11-.22.04-.33.29-.14.4.51.22,1.13.29,1.67.33.58-.04,2.33,0,1.96-.95Z"/><path d="m332.33,92.69c1.64.15,1.24-2.11-.14-1.82-1.06.26-.84,1.75.14,1.82Z"/><path d="m399.59,50.1c-.44-.51-1.02.15-1.49.26-1.2.33-2.51.04-3.71.26-.62,1.28,3.86,1.28,4.51.55.36-.22,1.05-.55.69-1.06Z"/><path d="m395.18,46.45c1.38-.98,2.58-1.17,3.49-.29,1.02.58,1.71-1.02.62-1.42-1.38-.77-4-.11-4.51,1.42-.04.22.22.4.4.29Z"/><path d="m455.89,151.29c0-12.9,0-25.76-.04-38.66-.04-4.77-.04-9.58-.29-14.36-.07-1.09-.14-2.22-.29-3.32.04-.4.07-.8.07-1.24,0-.55-.04-1.17-.15-1.82-.51-3.57-2.77-6.6-5.39-8.93-1.31-1.17-2.77-2.22-4.29-3.17-1.49-.91-3.02-1.75-4.62-2.51-1.64-.77-3.31-1.49-4.99-2.15-1.64-.66-3.31-1.24-5.02-1.79-1.06-.33-2.15-.66-3.24-.95-.44-1.31-1.24-2.33-2.73-1.64-.15.11-1.2.55-1.27-.04-.22-1.49-.62-2.81-.8-4.26.22.58,1.06.77,1.46.22,1.02-1.42.11-3.28.04-4.85.04-.51.62-.62.98-.84,4.08-2.04,8.12-4.59,10.88-8.27,3.02-4.08,5.42-9.22,4.08-14.39-1.93-9.88-12.05-15.49-21.4-16.47-5.31-.91-10.95-1.46-16.09.51-6.62,1.89-12.37,7.4-13.25,14.43.04.58.26,1.02.58,1.38-1.13,2.22-2,4.59-2.51,7.03-2.95-4.01-3.42,6.16-2.84,7.69-.62,1.31.04,3.46,1.53,3.86-.18,1.2.73,2.7,2.11,2.44.29,2.81,1.53,5.32,3.38,7.32-1.49-.11-2.98-.22-4.48-.29-3.71-.22-7.42-.36-11.14-.36-1.75,0-3.53.04-5.28.07-.91.04-1.78.07-2.69.15-.44.04-.87.07-1.31.15-.18.04-.36.04-.55.11-.04-.04-.07-.04-.11-.04-.29-.11-.51.11-.62.36-.44,2.08-.47,4.26-.55,6.41-.11,7.62-.11,15.2-.11,22.81-2.26.91-4.44,1.93-6.48,3.24-.65.47-1.31-.15-1.96-.29-.47-.15-.95-.22-1.46-.15-.95.07-1.86.33-2.77.69-.84.11-1.67-.25-2.4-.62-3.97-1.93-7.64-4.48-11.43-6.74-2.18-1.49-7.13-4.52-7.17-4.59-.87-.95-1.82-1.79-2.77-2.7-2.11-1.89-4.08-3.97-6.33-5.72-.98-.84-2.08-1.49-2.88-2.51-5.02-9.44-7.75-8.24-9.17-8.02-1.67-.73-6.48-2.26-8.19-2.84-2.26-.58-4.4-1.57-6.66-2.22-1.09-.26-5.2-1.68-5.31.15-.07,1.42,3.24,2.51,4.59,3.1,2.58,1.13,4.77,2,7.1,2.95-.22.18-.36.36-.44.58-.33-.11-.69.04-.98.18-.87.44-1.42,1.53-.87,2.41.55.98,1.64,1.42,2.58,1.93-.4.04-.73.51-.73,1.02-.07.62.51,1.28,1.38,1.89-.33-.04-.62,0-.69.07-1.24.33-1.17,1.68-.44,2.48.84.87,1.71,1.93,3.02,2.11.4.07,1.02-.58,1.2-1.13.07-.33.07-.84-1.06-1.93-.44-.4-.95-.69-1.42-1.02-.07-.04-.22-.04-.26.07-.04.11-.04.22.07.26.84.44,2.22,1.79,2.18,2.37-.07.18-.22.33-.36.47-.18.18-.44.33-.77.18-.58-.22-2.04-1.6-2.33-2.37-.29-.91.91-.91,1.49-1.09,1.93,1.13,4.62,2.04,5.57,2.19.69.15,1.27-.33,1.6-.91.44-.47.62-1.06.07-1.53-.8-.73-1.75-1.2-2.73-1.6-.36-.11-.98-.58-1.16-.04-.04.18.04.36.22.44.65.26,1.35.47,1.96.8.47.29,1.13.58,1.46,1.06-.11.36-.44.8-.73,1.06-.62.36-1.38-.04-2.04-.26-.58-.22-1.17-.4-1.71-.69-.87-.58-4.08-1.79-3.97-2.99.26-1.13,2.62.55,3.6.87,1.02.07,1.64-1.13,1.46-2.04-.04-.18-.18-.29-.33-.44-.91-.77-1.93-1.49-2.98-2.08.44.07.91.15,1.38.26,1.2.29,2.4.77,3.68.84h.62c.47,0,.47-.73,0-.73-1.35,0-2.66-.51-3.97-.8-1.13-.29-2.73-.04-3.49-1.13.51-.8,1.53-.98,2.47-1.06-.07.04-.11.11-.07.18.04.04.07.07.15.07s.11.04.18.04c1.27-.04,2.51-.55,3.79-.4.62.04,1.16.29,1.78.22.73-.04,1.42-.55,2.15-.33,2.55.8,3.49,3.39,4.48,4.37.55.58,1.86,3.02,1.93,3.06,1.24,1.97,2.98,3.5,4.73,4.99,1.56,1.42,3.13,2.84,4.69,4.23.8.87,1.6,1.79,2.48,2.59-1.2,1.17-6.08,7.32-6.4,7.76-.51-.55-.98-1.09-1.49-1.64-1.56-1.75-5.86-6.23-6.33-6.74-.65-.66-1.31-1.38-2.15-1.82-1.05-.47-2.26-.58-3.35-.95-1.75-.55-3.42-1.28-5.06-2.15-.29-.15-.62-.44-.95-.47-.15.07-.04.26.07.33.95.8,2.04,1.42,3.17,1.93,4.95,2.41,4.66.07,9.21,5.14.07.07,2.51,2.99,3.39,4.01,1.57,1.79,3.06,3.64,4.55,5.47,1.6,1.86,3.28,3.64,4.84,5.5,2.62,2.73,5.24,5.47,7.86,8.16,2.26,2.48,5.06,4.3,7.61,6.41,2.88,2.33,4.04,2.08,7.5,2.51.4.04.8.07,1.2.07,1.6,0,3.17-.29,4.73-.69,1.78-.22,3.46-.84,5.06-1.6.29-.07.58-.18.84-.25.11.22.11.18.22.4-1.6,1.35-3.49,2.29-5.17,3.61-1.06.88-1.86,2-2.62,3.1-.04.14,0,.29.04.44.15.4.36.76.58,1.17.8,1.35,1.67,2.66,2.47,4.01.95,1.71,2.04,3.5,3.97,4.23.22.07.4.15.62.18,0,2.73.07,18.33.07,18.88,0,.18.11.33.29.4,1.09.36,4.88.47,5.97.73,1.31.33,2.58.66,3.89.95,2.62.62,5.24,1.24,7.86,1.82,2.58.58,5.17,1.17,7.75,1.75,1.27.29,2.55.58,3.86.88.62.15,1.27.29,1.89.44.51.11.98.22,1.49.33.11.04.18.04.29.04h.04c.14.04.33.04.44,0,.4.15.84-.26.91-.66.55-1.24.87-2.51,1.17-3.86.04-.22.11-.47.14-.73,5.53,3.68,11.76,7.25,18.56,7.33,1.35.04,2.66-.37,3.89-.77,1.75-.84,3.17-2.29,4.33-3.79,1.53-1.79,3.17-3.61,3.89-5.87,1.31.51,2.58,1.02,3.9,1.57v31.96c0,.4-.07.84.11,1.2-.07.4.22.84.58.95.07.04.18.04.26.04.29,0,.55-.14.8-.22,1.71-.55,3.31-1.42,4.77-2.48,3.09-2.08,5.86-4.59,8.34-7.36,1.38-1.64,2.84-3.17,4-4.99.07-.07.11-.15.15-.22.07-.11.15-.22.22-.33.25-.44.47-.95.51-1.46.07-.04.15-.07.22-.15.29-.25.36-.62.36-.98v-2.19c-.04-6.12-.04-12.24,0-18.37Zm-153.7-79.77c.18.07.36.15.55.22-.11.15-.11.36.11.47,1.27.51,2.44,1.28,3.49,2.19.11.11.18.29.15.44-.11.4-.33.8-.69.98-.33-.04-2.33-1.28-3.02-1.71-.69-.4-1.38-.8-2.04-1.24-1.16-.84-.36-1.49.51-2.08.07.29.4.44.95.73Zm2.58-2.44c-.65-.04-1.31-.07-1.96.04-.11.04-.14.04-.29.07-.91-.4-5.02-1.97-8.48-3.39-.95-.44-2.58-.95-3.2-1.64-1.89-2.41,6.41.55,7.13.8,2.33.91,6.77,2.26,9.93,3.32-.91.11-1.78.47-2.69.77-.18.04-.33.04-.44.04Zm123.38,6.12c0-.29-.04-.62-.07-.95,1.38.4,2.73.84,4.08,1.28,1.67.58,3.31,1.17,4.95,1.86,2.11.91,4.22,1.93,6.22,3.1,1.31.77,2.62,1.68,3.89,2.62.87.69,1.71,1.42,2.48,2.22.55.58,1.05,1.17,1.57,1.82.36.51.73,1.06,1.02,1.6.26.47.47.95.69,1.46.15.44.33.87.44,1.35.07.4.18.8.22,1.17.04.4.07.77.07,1.17v.15c0,.29-.04.73-.07,1.13-.07.47-.14.91-.29,1.38-.14.47-.29.95-.47,1.42-.22.55-.51,1.06-.8,1.6-.44.69-.87,1.39-1.38,2.04l-.04.04c-.65.88-1.42,1.64-2.18,2.41-1.35,1.31-2.77,2.48-4.26,3.61-.04.04-.07.04-.11.07-.8.58-1.6,1.13-2.4,1.68-.07-2.15-.26-4.3-.65-6.45-.95-4.3-2.29-8.56-4.04-12.65-1.06-2.48-2.55-4.74-4.11-6.92-1.2-1.97-2.84-3.68-4.59-5.17-.07-.07-.18-.15-.29-.22.18-.77.07-2.3.15-2.81Zm-2.22-3.57c.55.22.58.98.73,1.49.33.95.26,2.77.29,4.04-2.33,1.38-17.36,12.72-18.63,14.18-.47-.69-2.62-4.74-3.75-6.05-.18-.15-.29-.33-.4-.47-.11-.15-.07-.36.11-.47.47-.26,2.11-1.17,2.22-1.24,3.39-1.6,6.59-3.64,9.83-5.54,1.57-.91,3.06-1.97,4.62-2.88,1.27-.8,4-3.06,4.99-3.06Zm-24.02,16.84c-.36.15-1.31.44-1.38.51,0-.11-2.44-3.35-4.15-3.68.76-1.49,2.26-3.68,3.53-4.81.62-.66,3.75-2.48,4.8-3.13.04,0,.07-.04.11-.07.15.69.87,5.61.33,5.9-.69.36-4.04,1.97-4.11,2.66-.04.47.84,2.4.87,2.62Zm-7.02,48.28c-1.78-.84-3.35-2-5.02-3.02-1.53-1.06-2.66-2.51-3.71-4.01-.58-.58-1.09-1.06-1.6-1.71-1.17-1.17-2.48-2.22-3.97-2.95-1.38-.84-3.02-1.09-4.37-2-1.31-.84-2.37-2.08-3.64-2.99-.73-.55-1.46-1.09-2.33-1.35-.58-.18-1.24-.25-1.82-.22-.07,0-.15-.07-.15-.15,0-.69.07-3.28.07-3.28.04-.04.07-.04.11,0l35.67,8.6s.11,0,.15-.04c.07,1.02-.25,2-.36,2.99-.36,2.37-.76,4.74-.95,7.11-.22,1.75-.65,5.72-.65,5.98-2.18-.73-7.21-2.88-7.42-2.95Zm6.22,3.86c-.33.69-.69,1.38-1.02,2.11-1.38,2.48-2.77,4.99-4.15,7.47-.15.26-.29.51-.44.76-.44-.33-.87-.66-1.31-.95-1.24-.95-2.4-2.01-3.71-2.88-.11-.11-.22-.25-.36-.36-.04-.04-.07-.07-.11-.11.4-.33.77-.66,1.13-.98.98-.95,1.93-1.93,2.73-3.06.73-1.06,1.24-2.26,1.82-3.39.07-.18.14-.36.22-.58,1.42.58,2.88,1.13,4.3,1.68.26.07.58.18.91.29Zm-23.04-24.6c-1.06-.22-2.11-.47-3.17-.69.73-.33,2.37-1.02,2.48-1.06.33-.18.69-.33,1.02-.55,0,.04-.04.11-.04.18-.07.4-.33,1.93-.29,2.11Zm4.55.47c-.07.15-.11.33-.11.51-1.06-.22-2.11-.44-3.17-.69.11-.44.22-2.55.33-2.88.22-1.2.55-2.44.91-3.61,1.27-3.53,3.71-6.52,6.11-9.36,2.15-2.41,4.33-4.88,6.19-7.51.62-.84,1.17-1.71,1.71-2.59.15-.26.29-.51.4-.8.25-.15,2.58-2.15,2.58-2.19.58.62,1.42,1.53,2,2.15.04.04.07.04.07.07-1.57,1.13-2.58,2.88-3.28,4.63-1.02,2.22-1.89,4.52-2.95,6.74-.84,1.64-1.82,3.1-2.95,4.59-1.57,1.68-3.31,3.13-4.7,4.96-.98,1.24-1.71,2.62-2.4,4.04-.29.58-.55,1.2-.76,1.93Zm13.36-30.28c.26.18.84.36,1.02.55l-.04.04c-.29.26-.55.51-.84.77-.07.07-.8.66-.91.73-.11-.18.36-1.49.76-2.08Zm5.93-.18c.15-.44.98-.77,1.31-.95.11-.07.25-.04.33.04.65.69,1.13,1.93,1.57,2.77-.4,0-2.07.29-2.51.44-.04-.33-.62-1.79-.73-2.15.04-.04.04-.07.04-.15Zm21.44-14.43c-1.31,1.13-3.68,2.48-5.06,3.5-4.15,2.84-7.64,4.92-12.01,7.4,0-.18-.18-3.17-.22-3.35,0,0-.25-1.89-.58-2.77-.55-1.46-1.35-2.84-2.22-4.15-.26-.33-.51-.66-.84-.91,5.53-.55,11.06-3.61,14.12-8.24,2.07,2.7,2.11,4.01,5.35,3.43.07.58.22,1.17.33,1.82.11.58.29,1.2.47,1.82.22.4.26,1.28.65,1.46Zm-32.32-35.27c.8-3.24,2.29-6.49,4.88-8.71-.04.04-.07.07-.11.11.95-.77,1.93-1.46,2.98-2,8.44-5.25,20.67-3.1,29.52.22,10.74,5.36,14.27,17.67,5.71,26.82-2,2.26-4.66,3.79-7.13,5.47-2.51,1.09-4.77,2.33-3.79,5.54.51.29.44,1.13-.18,1.24-.65.07-1.27-.15-1.93.07-1.31.4-1.64-.98-2.29-1.71-.4-.55-1.86-1.6-1.6-2.84.22-1.24.76-3.02-.15-4.04,2.4-2.15,2.33-7.62-2.88-8.53-4.29-.77-6.84,4.77-7.61,5.87-1.27-1.49-.4-4.15-.51-5.98.15-1.6.11-5.94-3.13-8.38-2.91-2.7-7.24-.91-10.77-1.93,0,0-.51-.04-.87-.26-.15-.11-.22-.73-.15-.95Zm-3.49,9.4c-.4,1.53,0,3.13-.25,4.66-.55.47-1.2.95-1.71,1.49,0-1.06-.07-9.58,1.96-6.16Zm.84,12.72c-.87.15-1.42-.73-1.53-1.53.55,0,1.09-.18,1.64-.33-.11.51-.15,1.2-.11,1.86Zm3.42,5.76c1.89,1.46,4.4.73,6.15-.69.47-.33,1.13-.84.62-1.42-1.89-.66-2.48,2.77-7.42.84-.91-2.15-1.24-4.48-1.86-6.71.73-.4.22-1.6-.62-1.38-.66.11-1.42.51-2.04.29-1.49-2.19,2.26-2.73,2.4-4.63.91-.22,1.27.58,1.86,1.06,2.8.47-.11-3.5-2.11-2.19-.15-3.75,1.06-6.67,2.37-10.35,4.04,1.89,9.54-2.15,12.59,3.94,1.75,3.46-1.24,9.73,2.08,11.99.47.33,1.13.29,1.53-.11,1.38-1.31,2.15-4.59,4.3-5.25,6.7-2.08,6.59,6.81,2.26,6.81-.98,0-.87,1.2.11,1.24,1.06.04,1.97-.29,2.66-.84.04,1.79-1.16,3.5-.62,5.25-1.13,2.15-2.95,3.9-5.17,4.92-6.01,4.56-14.92,3.68-19.07-2.77Zm-24.06,3.28c.69.04,1.42.07,2.15.11,1.42.04,2.84.07,4.29.11,3.64.11,7.28.18,10.92.33,2.98.11,5.93.29,8.92.51,2.07,1.49,4.48,2.51,6.99,2.88.26,0,.47-.04.69-.04.15.22.29.44.55.51,1.02,1.42,1.82,3.1,2.37,4.81-1.35.44-5.2,1.97-5.86,2.19-3.49,1.35-7.1,2.51-10.45,4.19-2.15,1.17-4.08,2.62-6.04,4.04-2.4,1.53-4.95,3.17-7.53,4.45-2.4,1.35-4.95,2.37-7.5,3.39-.11-8.93.29-17.86-.4-26.75-.04-.29-.07-.58-.11-.87.33.07.66.11,1.02.15Zm-40.73,31.74c-.58-.55-1.31-1.46-1.89-2.04.29-.26,5.9-7,6.33-8.13.26.22.55.4.84.62,1.2.73,2.4,1.49,3.57,2.22-2.11,2.55-3.86,5.43-5.86,8.09-.33.36-.65.73-.98,1.09-.62-.62-1.27-1.24-2-1.86Zm37.49,18.8c-1.86.47-3.53,1.46-5.49,1.6-1.67.33-3.39.66-5.1.51-1.57-.22-3.17-.4-4.7-.87-1.75-.88-3.17-2.3-4.73-3.5-4.84-3.61-8.7-8.27-13.17-12.28-.47-.51-.98-1.02-1.49-1.53,1.17-1.06,2.15-2.22,3.17-3.43,1.49-1.79,3.17-3.72,3.71-6.01,1.35.87,2.73,1.75,4.11,2.59,2.84,1.64,5.57,3.46,8.52,4.88.98.51,2.04.91,3.13.77.95-.26,1.89-.66,2.91-.58.69.07,1.31.44,1.93.69,1.27.51,2.48-.55,3.49-1.17,1.38-.91,2.95-1.46,4.4-2.15,2.18-1.02,4.48-1.86,6.7-2.84,1.86-.95,3.67-1.89,5.49-2.88,1.46-.84,2.8-1.79,4.26-2.62,2.58-1.64,4.91-3.64,7.68-5.03,2.22-.95,8.62-3.61,9.35-3.86-.07.07-3.06,3.9-3.93,5.76-.87,1.86-.51,2.59-.44,2.88-.58.95-1.24,1.82-1.86,2.73-3.42,4.81-8.04,8.71-11.21,13.77-1.38,2.08-2.18,4.41-2.69,6.85-.15-.04-4.48,2.15-5.68,2.7-.84-.18-1.71-.4-2.58-.55-.51-.07-2.44-.44-2.62-.29-.26.15-.44,1.49-.51,3.13-.8.22-1.71.51-2.66.73Zm5.21,7.14c.87.98,1.75,1.97,2.77,2.81.07.04.04.18-.07.15-.8,0-3.02-.07-3.82-.18-.15,0-.29-.11-.36-.22-.47-.76-2.26-3.53-2.48-3.97.22-.55.73-.84,1.05-1.35.22-.29.36-.62.55-.95.04.51.11.91.15,1.13.26.29,1.78,2.15,2.22,2.59Zm-8.23,6.52c-.98-1.68-2.15-3.24-3.06-4.99.66-.69,1.13-1.53,1.86-2.15.76-.73,1.71-1.24,2.62-1.75,1.46-.8,2.69-1.89,4.04-2.88.07-.04.15-.07.18-.15.04.15.07.29.15.47v.44c-.22.11-.36.33-.47.55-.4.66-.98,1.17-1.53,1.64-.77.8-.4,1.46.11,2.26.73,1.13,1.42,2.3,2,3.5.25.4.76.44,1.2.47.95.07,1.89.11,2.84.18,1.02.07,2.04.11,3.02.15.44,0,.95,0,1.17-.44.22-.36.07-.84-.29-1.06-.22-.11-.51-.11-.73-.22-2.07-.8-3.49-2.73-5.06-4.23-.69-.66-1.02-1.53-1.13-2.44-.04-.58-.07-1.17-.07-1.75,1.13-.11,2.29.51,3.09,1.28,1.67,1.42,3.13,3.17,5.13,4.12,1.57.62,3.09,1.13,4.55,2.08.8.66,1.64,1.24,2.33,2,.47.66,1.02,1.28,1.64,1.86.84,1.2,1.82,2.3,2.91,3.28,1.42,1.24,3.06,2.11,4.66,3.1.62.33,1.27.62,1.89.91-.26.4-.51.84-.8,1.24-1.31,1.93-2.62,3.86-4,5.76-.15.22-.47.51-.69.8-.87-.66-1.78-1.28-2.66-1.93-1.46-.95-2.91-1.89-4.48-2.62-1.2-.51-2.44-.88-3.6-1.46-1.02-.55-2.15-.95-3.24-1.28-2.98-1.02-5.9-2.37-9.03-2.81-2.29-.15-3.57-2.15-4.55-3.94Zm37.49,25.62c-.11,1.06-.33,2.7-.84,3.93-.76-.15-31.66-7-31.7-7,.07-.98-.07-17.27-.15-17.31.29.07,11.03,3.17,18.93,7.62,1.17.84,2.55,1.71,3.68,2.7.84.76,1.57,1.57,2.4,2.33.44.36.87.77,1.35,1.13,1.96,2,4.18,3.83,6.51,5.43-.11.4-.14.8-.18,1.17Zm33.19-4.59c.15-.29.25-.58.4-.87,1.02-2.11,2-4.26,2.73-6.52.11-.37.22-.73.29-1.13v9.88c-1.09-.47-2.26-.91-3.42-1.35Zm4.88-40.52c-.07.04-.11.04-.14.07-.29-.11-.65.04-.73.4-.47,1.2-.29,2.55-.4,3.83-.15,7.58-.18,15.16-.18,22.74-.22.69-.4,1.35-.58,2.04-1.16,3.28-2.69,6.52-3.97,9.77-1.27,3.17-3.6,7.51-6.62,10.17-.25.18-.51.33-.76.47-7.21,3.43-17.76-3.64-23.69-7.58-1.09-.8-2.22-1.57-3.31-2.37.73-.98,1.42-2,2.04-3.02.84-1.49,2.15-2.99,2.69-4.66.18-.33.66-2.08.62-3.13,1.06.36,2.15.69,3.24.98,1.64.4,3.2,1.28,4.91,1.09.14.04.29.04.44.04.47,0,.95-.15,1.46-.18,1.13-.11,1.46-1.35,1.49-2.3.11-2.99-.73-5.9-.98-8.89-.29-2.19-.55-4.41-.62-6.63-.15-3.17-.44-6.34-.11-9.51.36-2.91,1.31-5.72,1.93-8.56.25-1.06-1.24-1.53-1.64-.55-1.06,3.13-2.08,6.3-2.44,9.58-.29,3.75.15,7.51.36,11.26.26,2.7.69,5.69,1.2,8.42.26,1.53.69,3.1.66,4.66-.04.69-.62,1.24-1.31,1.13-1.78-.25-5.02-1.09-6.26-1.31-.14-.04-.33-.07-.47-.15.04-.07.04-.15.04-.22.11-1.35.22-1.97.25-2.95.4-3.68,1.24-7.32,1.42-11.01.04-1.02.29-2.33-.4-3.24-.11-.15-.25-.22-.44-.29t-.07-.07c-.11-.11-.29-.18-.44-.22-.33-.11-.69-.22-1.05-.29-1.09-.29-2.15-.55-3.24-.84-.98-.25-1.97-.51-2.98-.73-2-.47-4.04-.91-6.04-1.38-1.97-.44-3.93-.88-5.9-1.28-.51-.11-1.02-.22-1.49-.33.07-.22.11-.47.18-.69.11-.55.33-1.09.58-1.6,1.46-3.17,4.04-5.61,6.59-7.94,1.49-1.46,2.58-3.28,3.64-5.06,1.6-3.13,2.62-6.56,4.22-9.73,1.42-3.21,5.46-3.1,6.95-3.46,0,.04.04.04.04.04.62.91,1.82,3.61,2.11,3.79.15.11.36.22.58,0,2.47-2.3,12.12-9.55,14.27-11.11,1.2-.87,3.28-1.97,4.59-2.99.62.69,2.84,2.99,3.82,4.37.65,1.02,1.35,2.04,2.07,3.06,2.04,3.02,3.49,6.45,4.55,9.98.91,2.99,1.89,5.98,2.29,9.07.29,1.75.36,3.5.44,5.28-1.13.76-2.26,1.42-3.39,2.04Zm16.92-12.64c-.26,6.38-.22,12.72-.26,19.09,0,16.33-.07,32.69,0,49.01v.18c0,.29.04.55.04.84v.55c.04.15.04.29.07.44v.04c.04.18.04.36.04.51,0,.18,0,.33.04.51v.95c0,.15-.04.29-.07.44,0,.11-.04.18-.07.29-.04.04-.04.11-.07.15-.04.11-.07.22-.15.33-.07.11-.11.26-.18.36-.04.07-.07.11-.11.18l-.04.04s-.07.07-.15.15c-.26.33-.47.58-.58.69-2.04,2.44-4.11,4.88-6.41,7.11-2.51,2.4-5.35,4.41-8.3,6.19v-30.68h.04v-.04c-.04-.29-.04-.55-.04-.84,0-.22,0-.44.04-.66v-.36h-.04v-14.94c-.07-8.56.15-17.13-.33-25.69.15-.04.25-.07.4-.15,1.17-.66,2.29-1.31,3.42-2.04,2.73-1.71,5.31-3.64,7.61-5.9.44-.44.91-.91,1.38-1.46.4-.47.8-.95,1.16-1.42.04-.07.15-.18.26-.33.87-1.13,1.64-2.37,2.26-3.68.04.07.04.11.04.15Z"/><path d="m394.82,146.04c-.69-.22-1.42.36-1.53,1.02-.22.51-.18,1.13.26,1.46,1.46.95,2.91-1.75,1.27-2.48Z"/><path class="uuid-78c8bd5a-44da-4c2b-962e-0ed74e3140c2" d="m362.65,210.62c-.11-1.75-.65-3.46.11-4.34,1.46-.22,1.71-.98,3.57-.66-.18,2.41.91,3.39.07,4.01-.51.4-1.53,1.09-3.75.98Z"/><path d="m366.11,205.22c-1.53-.04-3.79.47-4.15,1.02-.44.62-.07,4.3.62,4.59,1.16.47,2.66-.18,3.71-.36,1.93-.33.87-5.25-.18-5.25Zm-2.73,4.77c-.18.04-.33-.07-.36-.25-.11-.69-.22-1.93-.29-2.62-.04-.29.15-.51.44-.58.62-.11,1.75-.36,2.4-.51.22-.04.44.11.44.36.04.88.14,2.04.22,2.59.04.15-.07.29-.25.33-.58.15-1.86.51-2.58.69Z"/><path class="uuid-78c8bd5a-44da-4c2b-962e-0ed74e3140c2" d="m364.07,217.61c-.11-1.75-.65-3.46.11-4.34,1.46-.22,1.71-.98,3.57-.66-.18,2.41.91,3.39.07,4.01-.55.4-1.53,1.09-3.75.98Z"/><path d="m367.52,212.22c-1.53-.04-3.78.47-4.15,1.02-.44.62-.07,4.3.62,4.59,1.17.47,2.66-.18,3.71-.36,1.93-.33.87-5.25-.18-5.25Zm-2.73,4.77c-.18.04-.33-.07-.36-.25-.11-.69-.22-1.93-.29-2.62-.04-.29.15-.51.44-.58.62-.11,1.75-.36,2.4-.51.22-.04.44.11.44.37.04.87.15,2.04.22,2.59.04.15-.07.29-.25.33-.58.15-1.89.47-2.58.69Z"/><path class="uuid-78c8bd5a-44da-4c2b-962e-0ed74e3140c2" d="m366.21,224.9c-.11-1.75-.65-3.46.11-4.34,1.46-.22,1.71-.98,3.57-.66-.18,2.4.91,3.39.07,4.01-.51.4-1.53,1.09-3.75.98Z"/><path d="m369.67,219.51c-1.53-.04-3.79.47-4.15,1.02-.44.62-.07,4.3.62,4.59,1.17.47,2.66-.18,3.71-.36,1.93-.33.87-5.25-.18-5.25Zm-2.73,4.77c-.18.04-.33-.07-.36-.26-.11-.69-.22-1.93-.29-2.62-.04-.29.15-.51.44-.58.62-.11,1.75-.37,2.4-.51.22-.04.44.11.44.36.04.87.15,2.04.22,2.59.04.15-.07.29-.26.33-.58.15-1.89.47-2.58.69Z"/><path class="uuid-2958ca89-7b57-4e28-99cb-aec08108673a" d="m268.24,175.98c2.84,2.04-9.1,23.58-23.18,18.58-1.68-.91-5.97-7.94-10.56-13.96-8.48,5.79-22.93,3.13-27.7-6.05-5.1-9.77-5.24-4.26-8.23-5.98-.91-.51-1.49-1.49-1.49-2.55-.14-8.85-.07-14.76-.73-14.9-10.01-14.28-8.88-26.35-5.1-31.34,10.7,3.97,23.62-6.92,34.43.66,6.92,5.28,14.12,8.38,22.64,6.52,16.27,8.31-8.59,29.33,19.91,49.01Z"/><path class="uuid-2958ca89-7b57-4e28-99cb-aec08108673a" d="m177.55,306.61c1.09-1.2,2.26-2.37,3.57-3.35-1.46.84-2.62,2-3.57,3.35Zm39.49,11.59c1.27,6.67-4.73,4.67-8.95,6.09-3.71,2.11-6.55,9.07-11.54,7.25-6.37-6.6-2.55,3.17-10.66-2.4-1.16-3.17,1.38-6.01,2.84-8.6-1.24-.18-5.35,6.63-8.19,8.05-7.21-2.04-.36-9.48,1.24-13.88-5.79.87-8.12,13.12-15.72,14.68-2.95-3.24,3.46-18.4,6.95-20.88-3.93-2.77-9.28-3.02-11.46-.84-1.57,1.57-1.38,6.23-2.36,7.03-5.9,4.85-2.58-12.32-1.49-16.33-7.1-1.82-22.89,13.99-19.62,5.32,2.91-7.69-4.08.26-4.73-3.64,1.89-1.75-1.09-1.82-2-3.1-2-2.26,5.97-2.19,7.75-2.88,3.2-.44,7.13-2.92,11.17-2.59-.84,2.55,5.24-1.31,7.5-1.64,10.56-1.53,26.17-3.94,29.74,8.85,13.39-9.44,30.57,4.85,29.55,19.5Z"/><path class="uuid-d02aafc7-0923-4088-9326-2a35e7e6499a" d="m195.89,331.79c-21.98,3.86-52.88,6.71-77.05,10.64-.62.11-1.27.26-1.82.04-22.53-8.53-53.97-21.24-61.76-27.15-.69-.51-1.53-.91-1.82-1.71-10.74-28.72-18.49-54.15-27.26-77.8,9.39,1.02,42.04,10.68,59.07,15.45,1.6.44,2.91,1.6,3.53,3.13,6.04,14.32,15.5,36.44,19.22,51.53,8.52-1.42,22.82-4.85,31.3-5.72-4.62,11.15,1.6,4.74,7.64,1.82,0,0,7.68.11,9.39,1.2-.04,1.24-2.77,13.45,2.55,11.92,2.04-.98,1.35-7.94,4.33-8.42,2.66-.44,13.87,1.2,7.03,3.17-2.18,2.26-.65,5.1-2.26,7.14-2.18,4.66-5.97,16,1.86,10.24,4.51-3.32,7.06-10.46,12.01-12.64-1.64,4.55-10.66,13.66.47,13.92-1.16-.91,4.15-5.65,3.68-2.48-1.09,6.92,6.62,5.17,7.35,2.37.36-1.53,1.71,2.48,2.55,3.35Z"/><path class="uuid-1da8fe1e-bbf0-4a27-9cbb-25ce73e63e75" d="m153.31,328.41c-10.23,2.33-23.4,3.64-34.58,5.54-4.95-4.74-4.99-14.5-7.97-20.95-.36-2.26,2.95-.33,3.82.15,12.23,6.78,26.71,8.71,38.72,15.27Z"/><path class="uuid-1da8fe1e-bbf0-4a27-9cbb-25ce73e63e75" d="m161.75,320.24c-2.58,1.02-10.63,2.88-10.63,2.88l-31.59-11.77,12.85-2.55s19.87,8.24,29.37,11.44Z"/><path class="uuid-99882dcd-d299-4b06-8fa5-f3a419c41f8e" d="m158.62,228.19c-4.08,1.42-36.79,16.58-38.8,15.74-3.86-11.41-5.42-15.49-7.32-22.59-.15-.55.44-3.64.29-4.19-.29-1.09-1.02-3.65-1.38-4.74-1.78-5.28-4.04-9.4-8.84-16.65,8.01.66,47.1,28.39,56.05,32.43Z"/><path class="uuid-f556b731-9ec4-4296-a890-23fc5992fe8f" d="m154.69,226.74c-10.19.04-42.44-5.98-42.44-5.98l-2.18,3.24s.44-9.88,1.82-11.08c1.16-.91,36.58,13.19,42.8,13.81Z"/><path class="uuid-def0353a-8bea-4d4f-aec0-89cea09ae388" d="m280.22,115.63c1.02,7.98-2.95,18.11-9.1,23.5-5.46,3.39-18.01,19.9-18.27,17.16-1.53-14.65,7.75-21.65-1.78-29.01-19.76,2.92-24.31-10.35-38.76-10.2-6.84.95-14.05,5.17-20.71,2.4-4.19,3.28-3.09,11.95-2.84,16.76-8.92,4.66-18.31-11.88-18.63-20.33-3.64-20.22,9.75-31.74,32.43-27.55,8.95-4.26,13.25-12.17,22.82-14.36,16.67-4.7,25.77.77,32.36,19.42,12.92,1.53,22.89,8.24,22.49,22.19Z"/><path class="uuid-78c8bd5a-44da-4c2b-962e-0ed74e3140c2" d="m108.43,230.63c-1.75-2.7,3.6-8.53,3.6-8.53l2.73,7.69s2.58.4-6.33.84Z"/><path class="uuid-78c8bd5a-44da-4c2b-962e-0ed74e3140c2" d="m338.41,300.24c.07,2.19,1.02,4.26-.18,5.36-.69.62-1.53.98-2.44,1.09-3.39.44-15.43,1.35-20.49-.07-2.44,18.07-28.9,6.56-97.39,16.58-.11-16.43-9.79-32.94-29.95-25.4-6.22-10.57-13.25-8.75-16.74-9.58,4.4-7.33,17.69-3.21,22.96-11.33,10.52-6.92,12.01-18.73,14.27-30.1,1.06-6.2,4.77-12.14,4.4-18.37.4-16.8,2.26-37.42,21.07-43.07,2.11-.95,3.02-2.4,4.44.47,4.95,11.84,13.36,12.54,22.93,5.03,15.87-17.75-5.53-12.32,30.64-14.14,24.86-3.24,32.32,27.99,36.79,47.77,5.28,25.03,10.55,50.07,9.68,75.76Z"/><path d="m250.01,162.02c-.07-.47.26-.69.65-.73,0,.04-.04.04-.04.07s0,.04-.04.07c-.04.07-.07.18-.11.26-.07.18-.15.4-.25.58-.11-.04-.22-.15-.22-.25Z"/><path d="m235.02,181.51c-.29-.15-.58-.62-.15-.8.22-.04.47.04.69.11,0,0-.04.04-.04.07s.04.04.04.04c0,0,0,.04.04.04.04.07.07.11.11.15l.11.11s.04.04.04.07c.15.18.29.36.44.51.22.22.4.44.62.66.11.11.22.26.29.37.07.07.18.18.25.29-.84-.55-1.64-1.06-2.44-1.6Z"/><path d="m229.66,289.3c-.14-.18-.22-.44-.18-.66.29,0,.58-.04.84-.07h.07c.15,0,.29-.04.47-.07.18-.04.36-.04.54-.07h.36c-.44.44-.98,1.17-1.53,1.17-.18,0-.4-.07-.58-.29Z"/><path d="m144.43,294.99s-.04.04-.07.04c.04,0,.07-.04.07-.04Z"/><path d="m99.08,283.26s0,.03.04.07c0-.04,0-.07-.04-.07Z"/><path d="m192.91,328.3c.07-.07.07-.11.11-.15.07-.07.11-.11.14-.18.07-.15.18-.25.29-.36.07-.11.18-.22.29-.33.07-.11.15-.18.25-.29.04-.04.07-.07.11-.11.22-.04.44-.07.65-.07.15,0,.29-.04.44-.07.04-.04.11-.04.15-.04.11-.04.18-.04.29,0-.04.07-.11.15-.15.18-.07.11-.15.22-.22.33l-.04.04s-.04.07-.07.11c0,.04-.04.07-.04.11-.04.07-.07.18-.07.29,0,.04-.04.11-.04.14s-.04.07-.04.11v.11c-.36.04-.69.11-1.06.15-.36.07-.76.11-1.13.14,0,.04.07-.04.11-.11Z"/><path d="m147.2,302.28c.07-.07.18,0,.29,0,.07,0,.11,0,.18.04.07,0,.11,0,.18.04.04,0,.07,0,.07.04,2.26.33,6.3,2.26,8.15.8-.4-1.13-2.62-.26-3.6-.8-.65-.07-6.44-1.68-5.42-.04.04-.07.11-.07.15-.07Z"/><path d="m188.87,332.38c-6.44.91-12.88,1.86-19.36,2.77-13.72,2.04-39.89,5.28-48.95,6.27-2.08.22-4.19.33-6.19-.4-6.73-2.52-23.07-9.33-31.37-12.57-9.97-3.83-20.24-7.58-28.82-14.14-7.46-21.61-14.78-43.33-22.46-64.86-1.57-4.3-3.06-8.6-4.88-12.79-.07-.15-.15-.36-.25-.55,0,0,.04,0,.07-.04,2-.22,3.86.91,5.75,1.49,3.42,1.31,6.99,2.08,10.48,3.17,2.77.69,5.57,1.17,8.3,1.89,1.86.47,3.71,1.02,5.57,1.53,1.82.44,3.68.84,5.46,1.38,1.82.47,3.6,1.13,5.46,1.53,1.6.44,3.24.66,4.91.91,4.08.98,8.15,2.15,12.19,3.28.07,0,.11.04.18.04h.07c.4.44.95.88,1.27,1.13,3.2,2.95,4.08,7.58,5.64,11.51,2.4,6.45,4.84,12.9,7.13,19.39,4.22,11.66,7.97,23.5,12.16,35.2,1.67,3.54,6.22,22.27,11.14,19.61,17.36-1.82,34.5-4.96,51.86-6.96,4.3-.58,8.74-1.2,13.07-1.86-.36-.4-.91-.8-1.02-1.35-21.33,3.21-42.84,5.79-64.13,9.29-5.1-2.37-10.52-24.42-13.5-30.94,6.99-.51,13.65-2.59,20.56-3.64,1.02-.47,6.84-.4,5.79-2.08-.18.04-.36,0-.55,0-.15,0-.29,0-.4-.07-8.52,1.75-17.25,2.66-25.66,5.03-4.3-12.68-8.73-25.29-13.32-37.86-2.84-5.65-3.2-13.88-9.24-17.13-.11-.04-.22-.07-.33-.07-.04-.11-.11-.22-.25-.29-2.04-.8-4.26-1.17-6.37-1.75-1.82-.44-3.64-.95-5.46-1.38-3.09-.51-6.22-1.02-9.21-2.11-2.4-.77-4.8-1.38-7.24-1.97-2.44-.66-4.88-1.46-7.35-2.04-3.13-.76-6.33-1.27-9.39-2.3-2.37-.69-4.8-1.17-7.1-2.04-2.04-.55-4.15-1.6-6.3-1.17-.29.07-.62.22-.76.47t-.07.07v.15c-.04.33.15.62.15.91,0,.07,0,.11-.04.18,0,.11.15.11.15,0,0-.04.04-.11.04-.15,4.19,15.52,10.37,30.57,15.4,45.88,2.66,7.69,5.46,15.31,8.19,22.96.84,2.48,2.18,5.98,2.95,8.45.25.8.73,1.46,1.42,1.93,2.88,2,10.34,5.9,14.7,7.94,3.93,1.93,8.08,3.28,12.12,4.88,11.76,4.41,23,10.53,35.12,13.88.69.18,1.42.26,2.15.18,17.1-1.75,34.21-4.56,51.28-6.81,7.97-1.02,15.98-2.08,23.95-3.13,1.06-.29,3.2.11,3.35-1.28-.84-1.38-6.33.51-8.04.44v-.04Z"/><path d="m196.29,331.9c-.04-.11.04-.26.18-.29h.11c.36-.22.8.29.51.62-.07.11-.22.15-.33.15-.22,0-.47-.18-.47-.47Z"/><path d="m119.06,335.51c-.04-.25.15-.47.4-.51.07,0,.11,0,.18-.04h.07s0,.11.04.15c.07.11.18.22.29.29s.18.15.29.26l.04.04c-.11,0-.22.04-.33.04s-.18.04-.29.07c-.07,0-.15.04-.22.04h-.07c-.18.04-.36-.11-.4-.33Z"/><path d="m204.92,146.38c-.07-.04-.11-.07-.15-.15-1.93-2.33,8.81-9.11,11.21-8.49.87-.07,1.53,1.2.36,1.24-3.79.36-6.88,3.39-9.35,6.05-.62.44-1.17,1.97-2.07,1.35Z"/><path d="m201.24,130.35c2.51-3.1,7.39-3.42,10.92-1.9,1.16.55.22,2.22-.87,1.57-4.91-2.51-9.28,1.57-10.04.33Z"/><path d="m214.27,175.83c-5.35-.58.95-1.27,2.29-2,2.62-1.38,4.62-3.79,5.64-6.52.4-.69.73-2.26,1.78-1.9.4.15.58.62.4,1.02-1.31,4.52-4.99,9.4-10.12,9.4Z"/><path d="m209.43,163.59c-.15-1.71-1.53-2.59-2.62-3.64-1.53-2.84,4.73.8,4.29,3.32.11,1.02-1.38,1.31-1.67.33Z"/><path d="m231.05,289.71c-.33-1.75-.04-3.5.11-5.25.18-4.96.4-9.91.8-14.87.62-6.74.51-13.48.95-20.23.25-4.74.73-9.4.98-14.14.15-1.82.55-3.64.29-5.47-.04-.29.11-.55.4-.62.33-.07.62.22.58.55.15,1.75.07,3.46.04,5.21v-.04c-.04,1.13,0,2.22.04,3.35.07,4.15-.47,8.31-.65,12.46-.4,5.07-.36,10.17-.69,15.23-.25,4.15-.47,8.31-.58,12.5,0,2.66.07,5.32-.22,7.98-.11,1.02-.15,2.08-.11,3.13,0,.26-.07.47-.22.66h-.51c-.07,0-.11,0-.14.04h-.29.04-.11.04c-.11,0-.22.04-.33.04h-.07c-.15-.11-.26-.29-.33-.55Z"/><path d="m155.31,328.11s.04,0,.04.04l-.04-.04Z"/><path d="m155.71,328.66c0-.11-.07-.26-.15-.33-.11-.15-.29-.22-.44-.29h.04c-15.21-5.57-30.1-12.21-45.57-17.02-.69.26.25.69.55.8,4.62,2.11,9.35,3.94,14.09,5.68,9.75,3.64,19.47,7.25,29.19,10.9-21.07,3.17-35.19,5.32-35.19,5.32l1.02.69s18.38-2.62,36.39-5.58l.04-.04s.07-.07.04-.14Z"/><path d="m161.9,319.66c-6.59-2.55-13.28-4.99-19.91-7.58-3.53-1.02-7.1-3.35-10.74-3.39-4.08.73-8.37,1.17-12.34,2.37-.36.18.18.4.36.47,2.95,1.24,5.9,2.48,8.92,3.57,7.57,2.77,15.1,5.76,22.67,8.35.95-.37,14.19-2.19,11.03-3.79Zm-1.71.66c-3.09.73-6.15,1.82-9.21,2.62-8.84-3.42-17.72-6.81-26.6-10.09h-.07c-1.53-.51-3.02-1.02-4.55-1.53,4.4-.36,8.84-1.86,13.17-2.04,9.24,3.86,18.78,7.14,28.06,10.86-.29.04-.55.11-.8.18Z"/><path d="m159.21,228.49c0-.4-5.86-4.01-6.84-4.59-2-1.24-4-2.44-6.01-3.64-2.07-1.24-4.11-2.51-6.19-3.75-2.04-1.24-4.04-2.48-6.08-3.72-2-1.24-4-2.44-6.01-3.64-2.04-1.24-4.08-2.48-6.11-3.75-2-1.24-4-2.48-6.04-3.68-1.97-1.2-3.97-2.37-6.01-3.5-.98-.55-2-1.09-2.98-1.6-1.02-.55-2.07-1.02-3.09-1.53-.04-.04-.11-.04-.18-.07-.07-.04-.22-.11-.33-.15-.04-.04-.11-.04-.18-.07-.15-.07-.33-.15-.51-.26-.15-.07-.29-.18-.47-.18-.11,0-.22.07-.18.18,0,.04,0,.07.04.07.04.07.11.11.18.18.11.07.18.15.29.22.18.15.36.26.55.4.91.65,1.82,1.35,2.77,2,.95.66,1.86,1.28,2.84,1.93,0,0,.04,0,.04.04.15.07.29.18.4.26,1.93,1.27,3.93,2.48,5.9,3.64,2,1.2,4.04,2.4,6.08,3.61,2.07,1.2,4.11,2.44,6.19,3.68,2,1.2,4,2.37,6.01,3.57,2.04,1.2,4.11,2.44,6.15,3.64,2.07,1.24,4.11,2.44,6.15,3.68,2,1.2,4.04,2.4,6.04,3.61.69.4,1.35.8,2.04,1.2-.84-.26-1.67-.55-2.51-.8-1.89-.62-3.79-1.24-5.64-1.86-1.86-.62-3.75-1.24-5.64-1.86-1.89-.62-3.79-1.28-5.68-1.9-1.89-.62-3.78-1.27-5.64-1.93s-3.71-1.28-5.57-1.9c-.95-.33-1.89-.62-2.88-.91-.91-.29-1.82-.58-2.77-.84-.91-.26-4-1.68-4.15-2.01-.62-1.06-1.31-2.11-1.93-3.17-2.47-4.23-5.31-8.2-7.93-12.32.36,0,.51-.55.18-.73-.29-.18-.58-.36-.91-.55-.29-.26-.8-.04-.73.36,1.46,3.5,3.53,6.74,5.39,10.06,1.31,2.19,2.29,4.66,3.93,6.63-.95,2.84-4.29,16.18-4.69,17.64-.07,1.53,1.75,1.71,1.78,1.57.04,0,6.19-.22,6.3-.22.51,1.75,1.02,3.53,1.49,5.28.47,1.71.73,3.54,1.38,5.18.62,1.57,2.26,2.48,3.93,2.19,2.33-.4,5.39-1.31,6.73-1.82,2.07-.8,4.11-1.64,6.15-2.48,2.04-.84,4.11-1.68,6.15-2.51,2.07-.88,4.15-1.71,6.22-2.59,2.04-.84,4.04-1.71,6.08-2.55,1.97-.84,3.97-1.68,5.93-2.48.58-.26.62-.84.58-1.28Zm-48.11-10.46c.22-1.6,1.13-4.63,1.31-4.63.07,0,1.09.37,1.42.47.87.36,1.75.73,2.62,1.06.91.36,1.82.69,2.73.98,1.86.65,3.75,1.27,5.64,1.89,1.89.62,3.79,1.2,5.68,1.82,1.89.62,3.82,1.2,5.71,1.82,1.89.62,3.79,1.24,5.68,1.86,1.89.62,3.75,1.24,5.64,1.86,1.49.47,2.95.98,4.44,1.49-1.35-.22-2.69-.47-4-.69-1.96-.36-3.97-.66-5.93-1.02-2-.33-4.04-.69-6.08-1.02-2-.33-4-.65-6.01-1.02l-6.01-.98c-1.97-.33-3.97-.66-5.93-.95-.98-.15-1.93-.29-2.91-.44-.47-.07-.95-.11-1.42-.15h-.95c-.11-.04-.22-.07-.33,0-.22.07-.36.29-.47.47-.62.95-1.2,1.93-1.71,2.92.29-1.9.55-3.83.87-5.76Zm-2.84,11.22c.65-1.71,2.51-4.74,3.31-5.94.15-.18.44-.15.51.07.44,1.42,1.46,4.45,1.93,5.9.07.29-.11.55-.4.58-1.09.07-3.46.26-4.66.37-.47,0-.87-.51-.69-.98Zm47.42-.26c-2,.84-4,1.71-6.01,2.55-2.04.87-4.08,1.75-6.12,2.62-2.04.88-4.11,1.79-6.15,2.66-2.04.88-4.08,1.79-6.12,2.7-1.38.62-6.51,2.44-9.46,3.17-1.27.29-2.55-.44-2.91-1.68-1.35-4.74-4.29-16.18-5.28-18.37-.25-.47-.29-1.09-.62-1.53v-.04c.07.04.18.07.26.07.36.11.76.22,1.13.29.8.18,1.57.33,2.37.47,1.97.37,3.97.73,5.93,1.06,2,.33,4,.69,6,1.06,2,.36,3.97.69,5.93,1.02,2.04.37,4.08.69,6.11,1.02,1.96.33,3.93.66,5.9,1.02,1.96.33,3.97.66,5.93.98.91.14,1.82.29,2.73.44.29.07.62.11.91.18-.15.11-.36.18-.55.29Z"/><path d="m103.38,220.29c-2.62-.22-4.69-2.15-6.37-4.01-6.7.44-12.7-4.52-15.72-10.17-.4-.98-2.04-2.51-.73-3.39,2.15-1.42,4.29,10.39,14.85,11.48-2.88-3.28.69-10.57,5.13-7.87,2.84,2.51,1.93,8.82-2.08,9.69,1.38,1.68,3.06,3.21,5.17,3.79.73.07.26.62-.25.47Zm-7.35-9.8c-.33,1.31.29,2.59,1.06,3.64,3.06.07,3.93-4.41,2.22-6.38-1.6-.84-2.98,1.31-3.28,2.73Z"/><path d="m340.09,295.97c1.06-22.16-4.11-43.66-8.23-65.23-4.33-18.66-8.26-39.97-24.17-52.51-11.25-6.78-26.79,0-38.14-2.62-6.73-4.12-10.92-11.15-14.96-17.71,3.71-6.3,9.21-11.33,15.21-15.49,9.57-7.51,14.12-20.99,11.03-32.8-1.86-6.38-6.81-11.73-12.85-14.43-6.15-2.22-9.43-.04-12.08-7.65-2.22-4.19-3.49-9.26-7.21-12.43-6.37-4.81-15.21-5.07-22.67-3.1-4.66,1.31-8.74,4.08-12.45,7.07-4.59,3.57-8.48,10.09-15.18,8.09-3.75-.77-7.5-1.38-11.28-.4-7.46,1.24-13.98,6.52-16.49,13.7-4.88,13.48-.11,37.39,17.54,36.84,1.35,5.68,3.97,10.9,7.82,15.05-.26,4.3-.33,8.6-.15,12.9-.11,5.28,3.17,5.28,7.1,4.01,2.04,5.43,5.53,10.46,10.52,13.56,6.62,2.88,15.21,2.77,21.22-1.53.4.73.87,1.38,1.31,2.11-5.24,2.11-9.86,3.75-14.12,7.65-5.75,5.65-9.24,9.4-9.86,37.32-.98,7.43-2.69,12.24-3.86,15.49-3.28,8.6-1.82,19.31-8.95,26.09-3.28,3.21-6.37,6.89-10.26,9.37-5.97,3.02-13.94,2.48-18.74,7.69-2-.11-4.15.15-5.57,1.71-4.37-.66-8.92,1.2-13.07,2.37-4.22-.18-8.33.73-12.12,2.7-.11-.04-.25-.04-.18.11-2.48.29-5.02-.18-7.43.55-3.82.98-.65,3.86,1.71,4.05-3.28,3.79,3.35,2.95,5.31,1.97-1.53,1.75-3.68,5.83-.04,6.45,3.13-.44,5.64-2.7,8.08-4.59,0,0,.04,0,.04-.04,2.88-2.3,6.62-2.88,10.15-3.35-1.31,2.99-1.93,6.27-2,9.55.04,3.32-.36,9.66,4.66,6.45.4-.36.33-.98.44-1.46.11-2.15.91-4.12,2-5.94,3.39-1.27,6.37-.04,9.65.84-2.11,1.6-4.37,4.23-3.24,7.07-2.07,2.55-8.33,18.8.15,13.23,5.13-3.57,7.82-9.62,12.7-13.56-2.55,3.86-9.35,11.04-2,13.7.25,2.11,5.68-2.44,6.15-3.35-3.17,5.65,5.71,9.26,8.48,3.17-.33,1.9,1.82,3.57,3.46,4.08,5.24-.44,8.22-5.83,12.3-8.56,1.97.62,4.19.44,6.12-.22,29.3-4.3,59.21-2.7,88.58-6.27,6.77-1.57,11.14-4.37,11.14-11.92.65-7.47.69-15.01.51-22.52-.07-18.8-1.49-37.61-.04-56.37-.15-.15-.29-.33-.44-.47.04.04.07.07.11.11-.07-.07-.11-.11-.15-.18l.04.04c-.11-.11-.22-.26-.36-.37-.07.11-.15.22-.22.29-2.22,17.49-.87,35.24-.69,52.84.07,9.55.36,19.13-.76,28.64-.58,4.23-1.93,5.43-5.75,6.92-10.01,3.24-20.96,2.33-31.37,3.32-19.58.91-39.23,1.06-58.63,3.93,1.13-9.73-2.62-21.68-15.14-26.16,1.96-1.35,21.73-4.88,29.12-5.65h-.04c.36-.04.69-.07,1.06-.07h.15c10.77-1.64,22.67-2.01,31.59-9,3.17-2.84,4.26-7.25,4.95-11.33,1.27-18.22,2.15-36.51,3.49-54.77-.18-.11-.29-.29-.36-.47h-.04c-1.46,11.26-2.84,22.56-3.6,33.89-.69,8.67.29,17.71-2.48,26.09-4.22,14.39-35.88,12.57-48.4,15.92-5.9,1.57-13.28,1.27-18.38,5.21-.11.07-6.73-1.09-11.25,1.31-1.86-7.22-9.72-8.71-16.05-9.69,5.39-3.75,12.52-3.5,18.2-6.71,16.34-13.66,14.27-14.07,18.49-33.23v.04c.87-2.99,1.64-6.01,2.66-8.96,4.11-11.81,1.31-24.67,5.17-36.8,3.28-10.24,13.61-14.32,19.73-17.24,2.37,3.68,4.73,7.51,7.39,11,11.5,4.04,23.11-6.63,25.29-17.56,11.65,1.53,23.37-3.43,34.65.69,23.22,11.37,28.32,69.68,33.19,93.94,1.27,9.04.47,23.98.65,32.4-5.75,2.15-14.89,2.04-20.74.73-.95-.33-1.86.69-1.05,1.46,5.75,1.97,16.05,1.53,22.2-.33.69-.36,1.46-.77,1.78-1.53,0-.47-.04-6.63-.04-9.11Zm-208.76.11c2.11-1.2,4.66-1.13,7.02-1.49-.07.07-.15.11-.26.15-1.46.98-2.8,2.04-4,3.32,0-.15-.07-.26-.22-.33-.91-.47-2-.8-2.55-1.64Zm5.79,4.19c-.4.04-1.2.22-1.93.26-.07,0-.15.04-.18.04h-.15c-.11,0-.22,0-.33-.04h-.29s-.07-.04-.15-.04h-.07s-.07,0-.11-.04c-.04,0-.04-.04-.07-.07-.04,0-.04-.04-.04-.07-.07-.04-.11-.11-.14-.18.14-.44.62-.69.91-1.06,1.13-1.17,2.51-2.26,3.86-3.24.87-.73,1.86-1.28,2.91-1.71,1.46-.55,2.88-1.31,4.44-1.79,1.2-.29,2.51-.36,3.79-.47-.15.07-.33.11-.47.18-1.64.8-3.2,1.82-4.66,2.95-1.75,1.38-3.35,2.92-4.77,4.63-.07-.07-.18-.07-.29-.04-.8.22-1.53.51-2.26.69Zm10.19.58c-2.04,1.46-3.97,3.21-6.26,4.26-.73.22-1.49.95-2.29.73-.95-.55-.87-.84-.51-1.75.36-.95,1.02-1.9,1.64-2.73,1.97-2.62,4.37-4.99,7.13-6.82.95-.58,1.89-1.2,2.91-1.64,1.49-.58,3.09-.95,4.62-1.46,1.53-.51,2.91-1.31,4.48-1.68,1.75-.4,3.6-.66,5.42-.69-.04.04-.07.07-.11.11-1.78,1.35-3.17,3.17-4.33,5.06-.65.95-1.35,1.86-1.89,2.92-.11.22-.26.44-.36.66-.18-.04-.36-.04-.55-.04-3.49.15-6.95,1.24-9.9,3.06Zm23.88,5.83c-1.06-.33-2.07-.69-3.17-.84-1.68-.22-3.53-.11-5.13.55.11-.18.18-.36.29-.55.58-1.06,1.46-1.89,2.22-2.81,1.89-2.37,4.48-4.96,7.79-4.41,2.15.26,2.11,3.13,1.78,4.59-.44,1.53-1.24,2.88-2.18,4.12-.4-.36-1.09-.4-1.6-.66Zm16.27-7.18s.04-.04.07-.07c.04-.04.11-.07.15-.11.04-.04.07-.04.11-.07.04-.04.07-.04.11-.07.07-.04.15-.07.22-.11.07-.04.11-.07.18-.11h.04c.07-.04.15-.11.22-.15.07-.07.18-.15.26-.18h.04s.11-.07.15-.11c.11-.07.22-.11.29-.18.04-.04.07-.04.11-.04.47-.26.95-.51,1.46-.73,1.24-.58,2.62-.62,4-.66,1.13-.15,2.26-.15,3.38-.15,1.02,0,6.51,1.06,7.75,1.93,1.57,1.06,3.13,2.19,4.26,3.72,3.24,3.86,4.55,7.03,5.71,11.88.33,1.71.58,3.43.51,5.17-.04.55-.11,1.06-.18,1.57-.07.36-.18.84-.15,1.2-.11.04-.22.07-.33.15h-.18c-1.24.36-2.48.51-3.75.66-.87.22-1.75.25-2.62.15-.15-.04-.36,0-.44.14-.15.07-.26.15-.4.22-2.84,1.71-4.62,4.66-7.46,6.34-1.13.47-2.58,1.64-3.79.87-1.06-.73-2.37-1.24-2.22-2.62v-.18c0-.07.04-.14.07-.25.04-.07.04-.18.07-.26,0-.04.04-.07.04-.11v-.04s-.04-.04-.07-.04c.15-.22.33-.4.47-.62.04-.04.07-.11.11-.15.91-1.13,1.93-2.15,3.06-3.02,1.64-1.64,3.75-2.66,5.42-4.26.36-.36.76-.69,1.17-1.02.15-.11.18-.36.07-.55-.11-.18-.33-.22-.51-.15-.44.22-.87.51-1.27.8-1.24.91-2.58,1.64-3.82,2.55-1.46,1.2-2.8,2.59-4.04,4.01-.44.51-.87.98-1.31,1.49-.04.04-.07.07-.11.11-.07.07-.15.15-.18.22-.07.11-.15.18-.26.29-.07.11-.15.18-.25.29-.07.11-.18.22-.29.33v.04c-.07.11-.18.22-.26.36-.04.07-.07.11-.15.18l-.15.22c-.58.76-1.06,1.75-2.04,2.08-.55.15-1.2,0-1.75-.07-.84-.22-1.46-.88-2.11-1.42-.22-.22-.4-.44-.47-.69-.07-.11-.15-.22-.15-.36,0-.04,0-.07.04-.11v-.26c-.04-.87.36-1.82.62-2.62.22-.66.44-1.28.73-1.93.15-.18.33-.4.47-.58,2.37-2.99,5.46-5.25,8.01-8.09.18-.36,2.18-2.11,1.57-2.33-.14-.04-.25.07-.36.18-1.64,1.27-3.42,2.33-5.02,3.72-1.42,1.13-2.55,2.55-3.97,3.72-2,1.9-3.38,4.26-5.24,6.31-.44.44-.98.8-1.53,1.17-.29.18-.95.47-1.46.84-.4-.07-.73-.37-1.09-.62-.58-.47-1.24-.95-1.49-1.68-.47-1.78.69-3.46,1.49-4.99.44-.8.84-1.6,1.27-2.37.73-1.35,1.64-2.62,2.15-4.04v-.11c1.57-1.42,3.13-2.84,4.69-4.3,1.27-1.09,2.26-2.48,3.53-3.61.15-.07.29-.22.33-.4.18-.47-.36-.98-.8-.8-.29.11-.55.29-.8.51-1.38,1.6-3.09,2.92-4.66,4.34-2.73,2.4-5.46,4.85-7.82,7.62-2.91,2.99-4.51,7.11-7.93,9.58-.76.44-2.29,1.79-3.17,1.46-.26-.29,0-.95-.04-1.31.4-2.84,1.24-5.58,2.4-8.16.47-1.13,1.09-2.19,1.82-3.17,1.13-1.6,2.29-3.17,3.68-4.59,3.46-3.39,7.5-6.7,11.21-9.77.8-.69,1.6-1.38,2.44-2,.11.07.15.04.15,0Zm-13.14-10.13c.47.07.98.15,1.46.22,2.29.55,4.59,1.17,6.7,2.26,2.11,1.28,3.93,3.68,4.62,6.12-1.64,1.2-3.13,2.66-4.66,3.93-1.93,1.6-3.89,3.17-5.71,4.92-1.89,1.71-3.86,3.39-5.53,5.36-.47.58-.91,1.17-1.38,1.75,0-.22.04-.4.07-.62.4-1.09,1.13-2.04,2.04-2.77,1.17-.76,2-1.86,2.73-2.99,1.16-1.71,2-4.01,1.68-6.12-.04-1.46-.55-2.99-1.71-3.86-.11-.07-.26-.18-.36-.26-.04,0-.07,0-.11.04v.04c-.62-.25-1.31-.11-1.96-.07-1.64.11-3.09.98-4.4,1.93-1.64,1.28-2.8,2.99-4.19,4.48-1.57,1.86-2.55,4.16-3.57,6.34-.51,1.39-.47,2.84-.76,4.26-.69.26-1.42.58-2.15.62-.69-1.31-.84-2.84-.91-4.3-.07-1.79.04-3.61.4-5.36.47-3.83,2.29-7.25,4.66-10.24,1.13-1.86,2.55-3.61,4.37-4.81.11-.04.22-.11.33-.15,1.89-.88,4.04-.8,6.08-.73.73-.07,1.53-.04,2.29,0Zm13.72-152.98c-.15.04-.29.07-.44.07-2.8.29-5.35-1.28-7.53-2.92-3.31-2.51-5.82-5.94-7.53-9.69-.84-2.04-1.09-4.3-1.27-6.49-.29-3.24-.36-6.52.04-9.77.58-4.7,1.82-9.11,5.17-12.61,3.17-3.97,8.19-5.72,13.1-6.41,2.37-.36,4.7.07,6.92.47,3.82.69,7.53,1.42,11.17-1.68,2.11-1.64,3.93-3.61,5.97-5.39,3.13-2.73,6.51-5.17,10.3-6.89,7.17-2.95,18.02-3.13,24.09,2.26,1.35,1.31,2.18,3.06,2.99,4.77,1.02,2.19,2.11,4.37,3.09,6.6,1.06,2.33,2.15,4.96,4.51,6.23,2.66,1.38,5.82.98,8.55,2.22,7.93,3.53,12.67,11.22,12.63,19.86-.04,4.48-1.57,8.78-3.2,12.94-.87,2-1.67,4.01-2.98,5.76-2.8,3.28-6.26,5.94-9.83,8.35-2.66,2.22-5.17,4.7-7.42,7.32-1.06,1.27-1.89,2.7-2.69,4.12-.18-.4-.36-.8-.55-1.2-.04-.07-.07-.18-.15-.25.07-.4.18-.76.26-1.17.44-2.66.58-5.39.95-8.05.04-.62.55-1.6-.22-1.89,1.24-1.35,1.78-3.28,2.04-5.07.29-1.93-.26-3.83-.91-5.65-1.31-3.9-5.42-7.47-9.72-6.34-.69.15-1.38.36-2.08.66-.11-.07-.22-.14-.33-.18-1.13-.25-2.33-.29-3.49-.36-1.97-.25-3.86-.91-5.68-1.68-1.38-.69-2.62-1.64-3.93-2.44-1.86-1.17-3.71-2.3-5.6-3.43-2.58-1.35-5.5-2.26-8.44-2.26-3.75-.07-7.21,1.39-10.81,2.22-3.46.66-6.92,1.86-10.48,1.24-1.09-.15-2.26-.18-3.09-.98-1.31-1.24-2.47-2.62-3.53-4.08-.26-.55-1.02-.44-.91.22.55,1.35,1.57,2.48,2.4,3.68.33.4.66.84,1.02,1.2-.51.65-1.2,2.29-1.31,2.55-.55,1.24-.98,2.59-1.27,3.94-.58,3.39-.47,6.85.22,10.2Zm44.73,44.6c-3.75,2.11-6.55,2.48-10.81,2.15-2.95-.22-6.08-.66-8.55-2.41-1.6-1.24-3.09-2.62-4.48-4.12-1.31-1.49-2.33-3.21-3.35-4.92-.47-.84-1.02-1.82-1.6-2.7,1.13-.29,2.95-.29,2.98-1.53.65-2.11-6.3.8-7.68.47-3.46-.04-1.27-19.53-2.55-19.82-.4-.07-.36.69-.4.98-.04.29-.04.62-.07.91-.18-.26-.33-.51-.51-.73-.69-.91-1.42-1.86-2-2.84-3.09-5.65-4.95-12.06-4.59-18.55.22-2.62,1.05-5.14,1.78-7.69.33.29.69.55,1.13.69,2.36.69,4.91.91,7.35.58,2.26-.4,4.48-.95,6.73-1.39,3.46-.91,6.91-2.22,10.55-2,3.06.22,5.97,1.42,8.52,3.06,2.47,1.42,4.84,3.06,7.28,4.56,1.86.98,3.9,1.6,5.9,2.04.87.15,1.71.18,2.58.22-.11.15-.25.26-.33.4-.4.58-.58,1.31-.62,2.01-.04.95.04,1.93.51,2.77.04.04.07.07.11.07.15,0,.18-.18.07-.22-.11-1.31.11-2.81,1.06-3.83.87-.73,2.04-.98,3.13-1.31,1.09-.29,2.29-.51,3.42-.18,1.31.47,2.58,1.28,3.53,2.33,1.2,1.39,1.82,3.13,2.29,4.85.18.69.29,1.39.29,2.08-.15,1.89-.58,4.04-2.11,5.28-.84.76-3.79.95-3.17,2.44.18.37.44.47.76.47s.66-.15.98-.29c.62-.22,1.27-.44,1.86-.77.11-.07.22-.15.33-.18-.36,1.17-.26,3.17-.36,3.83-.07,1.57-.22,3.13-.44,4.7-.65,3.46-1.96,6.89-3.53,10.06-1.16,2.15-2.04,4.48-3.42,6.49-2,2.66-4.33,5.1-6.7,7.4-1.89,1.75-3.79,3.39-5.9,4.63Zm34.76-2.33c-.44,1.17-1.09,2.77-1.46,3.5-2.62,5.1-6.7,9.73-12.23,11.59-2.77.98-5.79.84-8.66.22-1.57-2.19-3.13-4.37-4.66-6.56-.91-1.28-1.78-2.62-2.73-3.86-.11-.11-.22-.26-.29-.36-.11-.11-.18-.22-.29-.33-.11-.11-.18-.22-.29-.33-.18-.22-.4-.44-.62-.66-.15-.18-.29-.33-.44-.51-.04,0-.04-.04-.04-.07l-.11-.11s-.07-.11-.11-.15c0,0,0-.04-.04-.04s-.04-.04-.04-.04v-.04c1.75-1.35,3.39-2.88,4.99-4.48,1.86-1.79,3.57-3.72,5.17-5.72,1.49-1.75,2.37-3.86,3.38-5.9.44-.84.87-1.71,1.27-2.59.07-.15.11-.29.18-.44.04-.07.07-.18.11-.25t.04-.07c.04-.11.07-.22.15-.29.07-.18.14-.33.22-.51.04-.22.11-.4.22-.58.4-1.02.73-2.04,1.05-3.06.29.55.51,1.13,1.02,1.46.22.84.62,1.64.95,2.44.8,1.93,1.93,3.72,3.17,5.39,4.08,5.43,7.79,8.82,9.54,10.28.62.4.84,1.28.55,2.08Z"/></svg>