<?xml version="1.0" encoding="UTF-8"?><svg id="uuid-6e32b21e-1d3e-4174-9e46-3e18b3a39cba" xmlns="http://www.w3.org/2000/svg" viewBox="0 0 588 376"><defs><style>.uuid-1b9c9e2a-6dc7-410e-a156-d090c67d7cdd{fill:#0079d0;}.uuid-5b7b99d8-1e38-44b8-a571-88ded64c5b7c{fill:#eaf5ff;}.uuid-af07d117-f26e-4cd8-9634-ce7a0961ca59{fill:#fff;}.uuid-968c8773-0521-4d40-a482-2f78cee90cf7{fill:#ffcbae;}.uuid-b0267731-63d5-45ab-a2f8-588304182d89{fill:#9e9cb0;}.uuid-d15ed596-656c-4077-9526-3ae65ebe29c1{fill:#a8616a;}.uuid-420e0400-d109-430e-ba80-c5b2e86f3271,.uuid-864497a2-2496-434c-ba14-6cbd7e52fd42{fill:#c2e3fa;}.uuid-3e1d2ca1-ec9b-4a71-907b-b5a6d6302261{fill:#bdcbfc;}.uuid-e903dffe-b7a4-4854-96aa-90651127461b{fill:#dde3e6;}.uuid-5876078d-cd0a-4e21-9d73-9ddc5e5d02ab{fill:#e1cbf1;}.uuid-0e3f0ef8-ca60-40dd-9b80-1af808f955f5{fill:#3f3d56;}.uuid-76df60db-9aab-441e-a4bf-ecec71b9d6d0{fill:#0c5c98;}.uuid-864497a2-2496-434c-ba14-6cbd7e52fd42{fill-rule:evenodd;}</style></defs><g id="uuid-63eea00c-0369-45f8-a535-88afd1704ed3"><path class="uuid-5876078d-cd0a-4e21-9d73-9ddc5e5d02ab" d="m587.7,116.2c-.3-.7-.5-1.3-.7-2q0-.1.1-.2t.2.1c.1.2.1.5.2.7.1.4.3.8.5,1.2q0,.1-.1.2c0,.1-.1.1-.2,0h0Z"/><path class="uuid-af07d117-f26e-4cd8-9634-ce7a0961ca59" d="m452.7,75.1c1.9,46.6,1.3,153.1,1.3,153.1l-329.9.7s-.9-107.9.9-149.7c-.5-4,2.3-6.6,6.3-7,58.3-.6,214.9.2,317.3-1.1,2.2,0,4,1.7,4.1,4Z"/><path class="uuid-e903dffe-b7a4-4854-96aa-90651127461b" d="m248.8,279.9c-.3,0-.2.1,0,.3v-.3Zm199.6-5.1c-21.1,0-105.6-1.4-121.2.9,3.1,16.2-2.5,41.9,21.3,37.6,2.8-.3-1.5,3.9,2.7,3.7-34.7,1.1-88.2,1-125.3,1.1-1.2,0,1.3-4.6.2-4.7,6.2-1.7,12.7.7,16.1-2.9,4.2-6.7,6.4-29,6-34.8-13.4-1.5-63.4,0-96.1-.5-24.6-.4-29.1.6-29-10.2.3-10.5.4-36.1.4-36.1l329.8-.7s1.3,29.6.4,41.7c-.3,2.7-2.6,4.9-5.3,4.9Z"/><path d="m286.7,260.2c-11.4-1.8-6.1-18,4.7-13.6,6.6,2.6,4.7,15.2-4.7,13.6Zm1.8-1.6c6.6-.7,5.9-11.5-.8-10.8-7.6.7-6.1,11.5.8,10.8Z"/><path class="uuid-b0267731-63d5-45ab-a2f8-588304182d89" d="m372,225.6h1.2c-.3,0-.7.1-1,.2h-.2v-.2Z"/><path class="uuid-420e0400-d109-430e-ba80-c5b2e86f3271" d="m436.6,87.6v7.5c-.1,4.7.2,9.5-.1,14.3-.4.5-1.3.6-2.4.6h-1.4c-.7,0-1.4-.1-1.9,0H165.9v-23.3h269.3c.8,0,1.5.4,1.4.9h0Z"/><path class="uuid-420e0400-d109-430e-ba80-c5b2e86f3271" d="m436.6,139.9v7.5c-.1,4.7.2,9.5-.1,14.3-.4.5-1.3.6-2.4.6h-1.4c-.7,0-1.4-.1-1.9,0H165.9v-23.3h269.3c.8,0,1.5.4,1.4.9h0Z"/><path class="uuid-420e0400-d109-430e-ba80-c5b2e86f3271" d="m436.6,192.7v7.5c-.1,4.7.2,9.5-.1,14.3-.4.5-1.3.6-2.4.6h-1.4c-.7,0-1.4-.1-1.9,0H165.9v-23.2h269.3c.8-.1,1.5.3,1.4.8h0Z"/><path class="uuid-76df60db-9aab-441e-a4bf-ecec71b9d6d0" d="m165.9,149.9v12.3h-19.1c-2.7,0-4.2.1-5-.5h0s-.1,0-.1-.1h0s0-.1-.1-.1c0,0,0-.1-.1-.1v-.2c-.1-.1-.1-.2-.1-.3v-.7c0-.3.1-17.4.1-20h0v-.1h.3q.1,0,.2-.1h.3c.7-.1,1.7-.1,2.5-.1h20.7v10h.4Z"/><path class="uuid-76df60db-9aab-441e-a4bf-ecec71b9d6d0" d="m165.9,183.8v5h-19.1c-1.7,0-3,0-3.9-.1h-.2c-.3-.1-.5-.1-.7-.3h-.1l-.3-.3v-.1s0-.1-.1-.1v-.1c0-.1-.1-.2-.1-.2v-.7c0-.4,0-.8.1-1.4v-18.9c0-.2.1-.4.3-.6l.1-.1s.1,0,.1-.1c.1-.1.3-.1.5-.2.1,0,.2,0,.3-.1h.1c.5-.1,1-.1,1.6-.1h21.6v18.4h-.2Z"/><path class="uuid-76df60db-9aab-441e-a4bf-ecec71b9d6d0" d="m165.9,214.1v.9h-19.1c-4.7,0-5.9.2-5.5-3.1v-19h0v-.1s0-.1.1-.1v-.1h0l.1-.1.1-.1s.1,0,.1-.1c0,0,.1,0,.1-.1.1,0,.2-.1.2-.1h.8c.7-.1,1.5-.1,2.3,0h20.7l.1,22h0Z"/><path class="uuid-76df60db-9aab-441e-a4bf-ecec71b9d6d0" d="m165.9,133.1v2.9h-21.4c-.6,0-1.1,0-1.6-.1h-.3c-.1,0-.2,0-.3-.1h-.3s-.1,0-.1-.1h0s-.1,0-.1-.1l-.1-.1h-.1l-.1-.1v-.2c0-.1-.1-.1-.1-.2v-.1q0-.1-.1-.2c0-.2-.1-.4-.1-.6,0-.3,0-.8.1-1.2v-19.2c0-.1.1-.2.2-.3h.1l.1-.1s.1,0,.1-.1c.1,0,.1-.1.2-.1h.3c.1,0,.2-.1.4-.1h23.2v20.1h0Z"/><path class="uuid-76df60db-9aab-441e-a4bf-ecec71b9d6d0" d="m165.8,86.7h0c.1,3.6.1,7.2.1,10.8v12.3h-23.2c-.1,0-.3-.1-.4-.1h-.1c-.2-.1-.3-.2-.4-.3l-.1-.1-.1-.1h0l-.1-.1v-.1c0-.1-.1-.2-.1-.2v-.2c0-.2-.1-.3-.1-.6s0-.7.1-1.2v-4.3h0v-14.6c0-.2.1-.4.3-.6.4-.4,1.1-.5,1.9-.5h22.2v-.1Z"/><path class="uuid-5b7b99d8-1e38-44b8-a571-88ded64c5b7c" d="m436.6,113.7v7.5c-.1,4.7.2,9.5-.1,14.3-.4.5-1.3.6-2.4.6h-1.4c-.7,0-1.4-.1-1.9,0H165.9v-23.2h269.3c.8,0,1.5.4,1.4.8h0Z"/><path class="uuid-5b7b99d8-1e38-44b8-a571-88ded64c5b7c" d="m436.6,166.5v7.5c-.1,4.7.2,9.5-.1,14.3-.4.5-1.3.6-2.4.6h-1.4c-.7,0-1.4-.1-1.9,0H165.9v-23.2h269.3c.8,0,1.5.4,1.4.8h0Z"/><path d="m218.3,139.3q0-.1.1-.1c.1,0,.1.1.1.1q0,.1-.1.1t-.1-.1Z"/><path d="m42.3,357c.1,0,.2,0,.3.1l-.3.3v-.4h0Z"/><path d="m14.1,286.8c0-.1.1-.2.2-.2s.2.1.2.2-.1.2-.2.2q-.2-.1-.2-.2Z"/><path d="m104.2,375.5c-.1-.1-.2-.1-.2,0-.1.1-.1.2,0,.2.1.1.2.1.2,0v-.2Z"/><path class="uuid-3e1d2ca1-ec9b-4a71-907b-b5a6d6302261" d="m458.9,90.9h0c-.1,0-.1-.1,0,0q0-.1,0,0h.1c0-.1,0,0-.1,0Z"/><path class="uuid-3e1d2ca1-ec9b-4a71-907b-b5a6d6302261" d="m455.3,90.9s0-.1,0,0c0-.1.1-.1.2-.1v.2c-.1,0-.1-.1-.2-.1h0Z"/><path d="m413.8,197.7c0,.1-.1.3-.1.4v.3c-.2-.3-.1-.6.1-.7Z"/><path d="m454.1,75.1c0-2.4-2-4.3-4.3-4.4-36-.4-291.9-.2-322.9,0-1.7,0-4.3,2.2-4.3,3.9-.5,15.9,0,168.1,0,192.5,0,6.5,5.3,9.1,9.3,9.1h115.1c-.1,3-1.2,23.5-4.9,33.3-.2.6-.7,1-1.4,1.1-3.8.5-10.9,1.1-14,1.4-1,.1-1.7.9-1.7,1.8v4c0,1.1.9,2,2,2h1.8c40.8-.9,122.5-1.2,122.5-1.2h0c1.4.1-.2-3.4-1-5-.2-.5-.7-.8-1.2-.8l-12.8-1.2c-3.9-3.9-7.8-31.8-8.3-35.3h121c5.9,0,5.7-4.8,5.8-8.9.9-19.7,1.3-39.5,1.4-59.2-.2-36.7-1.9-114.1-2.1-133.1Zm-328.5,2.4c0-2.2,1.8-3.9,3.9-3.9,12.5-.1,285,0,318.2,0,1.8,0,3.3,1.5,3.3,3.3.2,18.1,1.2,105.9,1.3,149.9-109.1.5-218.3-.5-327.5.1.1-5.3.7-131.4.8-149.4Zm208.7,235.7h0l14.3,1.2s.4.8.8,2.2c-40.4-.5-80.2.1-120.6.4-.7,0-1.3-.6-1.4-1.3,0-.3-.1-.5-.1-.8,0-.5.9-.8.9-.8,0,0,10.7-.7,14-1.2,1-.1,1.6-.9,2-1.8,2.3-6.3,5-31.9,5.3-34.8h75.9c.4,3.3,3,30.4,8.9,36.9Zm118.1-42.4c-.1,1.7-1.5,3-3.1,3-25.5-.1-220.6-.7-316.5,0-4.3,0-7.8-3.4-7.8-7.8v-36.5s218.3-.2,327.5.5c-.1,8.2.2,32.1-.1,40.8Z"/></g><g id="uuid-185a30dc-5ee4-47f0-bceb-6f11ef2497aa"><path class="uuid-1b9c9e2a-6dc7-410e-a156-d090c67d7cdd" d="m412.02,7.35c2,2.2-18.3,10.79-20.4,10.59-3.7-.8-4.3-6.29-.3-7.69,3.3-1.4,2.8-5,5.5-6.7,2.2-.5,4.6-.3,6.7-1.4,1.8-.5,8.8,3.2,8.5,5.2Z"/><path class="uuid-0e3f0ef8-ca60-40dd-9b80-1af808f955f5" d="m414.83,14.36c-1.3,1.5-3.51,1.2-4.71,1.3-1.2-.5-2-1.8-3.2-1.6.9-1.8-.2-5.3-.2-5.3,0,0,1.58,1.74,4.8-.8-1,2.5,1.41,6.1,3.31,6.4Z"/><path class="uuid-0e3f0ef8-ca60-40dd-9b80-1af808f955f5" d="m398.97,15.79c-.8-1.3.04-8.63,2.54-7.53-1.3,1.5-1.3,4.6-1.1,5.4,1.2,1.4,2.5,1.8,4,1.9-.2,0-3.64,3.23-5.44.23Z"/><path class="uuid-76df60db-9aab-441e-a4bf-ecec71b9d6d0" d="m421.16,83.03c-3.32,0-3.42.4-4.63,1.49-2.44.9-9.42-10.74-12.02-13.94-1.71-.02-4.95,0-7.77,0,1.75-14.22,7.87-38.18,19.17-18.58,5.12,12.1,4.9,19.03,5.25,31.03Z"/><path class="uuid-76df60db-9aab-441e-a4bf-ecec71b9d6d0" d="m466.12,71.15c-.4,6.5-1.72,12.87-2.72,15.17-2-2-4.1.66-4.1.66,0,0-6.34-8.8-9.34-16.2-6.72,0-18.96-.19-28.63-.19-1.17-2.4-1.19-2.38-.65-4.48,3.6-4.23,15.9-9.79,18.53-11.46,17.3-11.4,25.7.8,26.9,16.5Z"/><path class="uuid-af07d117-f26e-4cd8-9634-ce7a0961ca59" d="m443.62,33.25c-4,7.8-16.8,16.9-16.8,16.9,0,0,1.3,5.7,3.3,9.6-4.6,4-9.5,6.8-9.5,6.8,0,0-2.4-15.74-9.3-20.94-11.5-5.6-12.1,18.44-15.1,26.34-.4.7-.6,1.8-1.6.7-5.8-7-2-20.6-10.2-25.4-3.6-2.6-10-9.5-12.4-12.2-.7-.8-.8-1.9-.3-2.8.8-1.7,2.8-4.3,5.4-5.7,1.5-2.5.6-5.5,6.1-6,3.3,4.9,5.4,8.1,7.1,10,4.2-1.4,6.1-.5,8,.2.4-.3.9-.7,1.4-1,5,7,8.7-1.8,11.6,2.5,4.5-.5,11.4,4,14.7.2.3-.7,1.5-1.3,1.8-2,.4-.8-1.7-.4-1.3-1.1,2.7-4.3,6.1-8.3,8.6-8.5,2-.1,4.1,1.9,5.9,5.3.8,1.6,2.1,3.3,2.7,5.7.2.4.2,1-.1,1.4Z"/><path class="uuid-5b7b99d8-1e38-44b8-a571-88ded64c5b7c" d="m407.5,11.65c-.47-5.9-9.42-3.52-7.32,1.38,1.9,4.3,7.52,2.42,7.32-1.38Z"/><path class="uuid-5b7b99d8-1e38-44b8-a571-88ded64c5b7c" d="m417.72,7.15c-6.3-4-9.9,7.2-1.6,7,2.5-.1,3.9-5.4,1.6-7Z"/><path class="uuid-0e3f0ef8-ca60-40dd-9b80-1af808f955f5" d="m403.92,46.55l.75-6.73s-2.78-2.39-2.48-3.79c1.4-2.3,3.53-3.78,3.53-3.78l3.2,3.8s-.3,2.1-.1,2.7c.8,2.3,3.2,6.4,4.3,8.3-5.4-3.3-9.2-.5-9.2-.5Z"/><path class="uuid-0e3f0ef8-ca60-40dd-9b80-1af808f955f5" d="m416.87,84.96c1-2.2,4.15-1.61,4.15-1.61,0,0-.22,2.11,1.46,4.58.49.72,1.33,1.35,2.14,2.12.1,1.3-.4,3.44-3,3.4-3.43.12-3.46-5.6-4.75-8.49Z"/><path class="uuid-0e3f0ef8-ca60-40dd-9b80-1af808f955f5" d="m462.32,92.85c-1.8.2-2.6-5.8-2.6-5.8,0,0,1.4-2.9,3.4-.9,1.1.5,1.1,1.9,2,2.4,1.1.6,3.5-.4,4.2,0,2.1,1.4,1.8,4.6-7,4.3Z"/><path class="uuid-968c8773-0521-4d40-a482-2f78cee90cf7" d="m431.12,19.35c-10.59-4.7-11.6-6.71-12.46-6.83-.72.66-1.5,1.39-8.24,3.63-.68-.85-1.84-2.99-4.17-1.6-.44,1.1-1.17.5-1.63,1-1.21.76-2.23,1.57-3.07,1.58-3.27.04-3.76-5.26-1.53-8.68,4.7-1.1-.5-2.94-2.3-.3-1.8,3.4-3.9,5-4,9-2.7.8-9.5,4.39-9.5,4.39l5.67,9.26s4.61-4.11,7.73-6.55c2.6,2.3,2.1,5.3,2.1,5.3,0,0,3.3,6.2,9.4,1-.6-1-.5-2.1-.1-3.2,1.1-1.3,2.9-5.6,2.5-8.5,5.9,1.4,11.3,8.1,16.4,8.6,1.2-2.6,9.3-6.9,3.2-8.1Z"/><path d="m405.92,24.65c-.9.2-2,.2-2.7-.5-.1-.1-.3-.4-.1-.5.3-.1.6,0,.8.1.4.2.8.2,1.3.2.7.1,1.3-.3,1.9-.7.1-.1.3,0,.4.1.3.5-1.3,1.2-1.6,1.3h0Z"/><path d="m406.72,20.55c-.6-.3-.9-.6-1.6-.1-.2.1-1.5,1.1-1.2.4.2-.3.5-.5.7-.7.4-.3.8-.5,1.3-.5.3,0,.5.1.7.2s.4.2.3.4c.1.2-.1.3-.2.3h0Z"/><path d="m382.62,20.85q0-.1,0,0,.1-.1.1,0h-.1Z"/><path d="m470.62,90.65c.3-1.3-.2-2.2-1.5-2.8-1.4-.6-2.9.4-4.2-.1-.4-.3-.5-.8-.7-1.2.1-.1.1-.3.1-.4,0-.5,0-.8.1-1.3.1-.7.3-1.4.4-2.1.5-2.3,1.2-4.6,1.5-7,.3-1.5.5-3.1.3-4.6-.1-1.3-.5-2.6-.7-3.9-.3-1.5-.5-2.8-.9-4.3-.6-2.7-1.4-5.4-2.9-7.7-.8-1.1-1.5-2.3-2.6-3.2-1-1-2.2-1.6-3.5-2.1-.9-.3-4.61-1.68-10.9,1-1.7.8-3.3,1.6-4.9,2.5-3.4,1.8-6.7,3.6-10,5.6-.1-.3-.2-.5-.2-.7-.3-1.1-.6-2.1-1-3.2-.5-1.7-1.1-3.3-1.6-4.9v-.1c.2-.1.4-.2.5-.3.8-.6,1.5-1.2,2.3-1.8,1.4-1.3,2.9-2.4,4.4-3.7,2.5-2.1,5.1-4.2,7.1-6.7,2.2-2.4,3.9-5.9,2.1-9-.6-1-1.4-1.9-2.3-2.7.1-.3.1-.6,0-.9-.2-.8-5.1-5.3-6.3-5.3-.4,0-.8.2-1.1.4l-.2.2h-.1c-.3-.1-.4-.2-.7-.3-1.1-.5-2.2-1-3.4-1.5h0c-1.8-.8-3.5-1.7-5.1-2.7-1.8-1.1-5.8-3.4-5.9-3.5,1.52-3.57-1.04-7.13-5.1-6.2-.4.1-1.5.7-1.6.8-.1-.5-.61-2.02-2.7-2.7-.4-.2-.7-.6-1-.9-1.4-1.3-3.4-1.7-5.3-1.6-1,.1-1.7.7-2.6,1-.7.1-1.5-.1-2.2.1-1.1.2-2.2.8-3,1.6-.9.8-1.5,1.8-2,2.9-.3.8-.9,1.6-1.5,2.2-.7.7-1.8.9-2.5,1.6-1.1,1.2-1.5,3.1-.7,4.5.5.9,1.2,1.7,2.1,2.3l.1.1c-2.3.9-4.6,1.9-6.7,3.2-.1-.1-.2-.2-.3-.3-1.1-.9-1.44-.48-2.6-.1s-4.75,1.9-3.7,4.5c-2,1.3-3.56,3-5,4.9-1.86,2.45-2,3.35-1.5,4.4,2.6,5.43,11.59,12.47,14.71,14.91,1.16.9,1.98,2.16,2.33,3.58.17.69.3,1.41.56,2.21.4,1.3,2,7.8,2.5,9.7.5,2.2,1.87,6.88,3.67,7.98,0,0,1.2.7,1.6-.4.6-1.5.53-2.18.93-3.68.6-3.1,1.2-6.3,2-9.4.7-2,1.3-4.1,2.1-6,.8-1.8,2.86-8.23,6.63-8.07,11.57.49,13.61,33.5,12.77,37.37-.5-.2-3.07-.44-4.18,1.66-12-12.3-13.12-20.06-13.92-21.26-.2-.3-.3-.5-.5-.7-.2-.1-.4,0-.5.2,0,.2.1.4.2.6.4,1.2.7,2.4,1.1,3.6.6,1.5,1.3,3,2,4.6.8,1.5,1.8,2.8,2.7,4.3.6,1,1.3,1.8,2,2.7,1.6,2.1,3.2,4.3,5.3,5.9.4.3,1.23.78,1.63.98.1.1,1.17,3.42,1.17,3.72.1.5.5,2.4.8,2.9.9,1.3,2.7,2.3,4.3,1.7,1.2-.4,2.6-1.6,2.1-3.1-.2-1.1-1-2-2-2.5-.2-.1-.4-.3-.5-.6-.2-.5-1-3.4-1-3.6.1-.1.3-.7.3-.9v-.9c.3-3.3.3-6.6-.2-10-.2-1.9-.5-3.8-.9-5.6.6-.2,1.4-.7,1.7-.9,1.1-.7,2.1-1.3,3.2-1.9,1.3-.7,2.4-1.5,3.7-2.2,1.6-.9,3.1-1.9,4.6-2.9,2.8-1.8,5.8-3.2,8.7-4.9,10.3-5.9,14.1-1.7,14.7-1.4,5.4,2.3,8.3,18.3,8.4,19.8.1,2.3-2.3,13.4-2.4,13.9-.3-.3-1.2-1.1-1.6-1.2-.8-.1-1.9.9-2.3,1.5-.3-.5-5.6-8.1-9.2-18.6-.1-.4-.6-1.8-.7-2.1.1-.3.2-.5.2-.6.3-.9.7-1.8,1.1-2.7.2-.5.6-.7.5-1-.2-.4-.6-.4-.9.1-.5.7-1.1,2.1-1.4,3.4-.2-.3-.3-.7-.5-1s-.3-.7-.6-.9c-.3-.1-.3.3-.3.5.2,1.5.7,2.8,1.3,4.2.9,2.7,2,5.3,3.2,7.8,1.4,3.1,2.8,6.2,4.8,9,.5.7,1,1.4,1.5,2.1.2.3.5.6.8.8,0,.3.1.7.1.9.2,1.4.7,2.7,1.2,4,.1,2,2.6,1.7,4,1.4,1.6-.3,3.2-.6,4.8-.5h0c.9-.1,1.3-.9,1.3-1.8.1-.5.1-.6.1-.7Zm-35.7-69.9c.2-.2.5-.2.7,0,.9.8,3.6,3.2,4.6,4.3.3.3.3.8,0,1.1-1.4,1.6-6,5.9-6.5,6.1-1,.4-5.3-1.8-6.7-2.7-.1-.1-.2-.2-.1-.3,1.3-1.6,6.7-7.1,8-8.5Zm-37.4,3.6c0,.1,1.2,1.8,1.9,2.5,0,.1.1,1.4.1,2-.1.2-.8,1-1,1.3-1.5-.3-4.29-.93-7.46,0,1.4-1,5.96-5.1,6.46-5.8Zm8.9-8.9c-.1-.1-.1-.2-.2-.2.4-.2.7-.6,1-1,.4,0,.7.1,1,.2.5.2.8.6,1.2,1-.2,0-2-.1-2,1.2.1,1.4,2.2,1.7,3.3,2,.1.1.3.1.4.2v.3c.2,3.3-.4,6.5-3.2,8.6-.7.4-1.82.88-2.62.8-4.77-.49-6.48-3.5-7.38-4.6.4-.5.8-1,1.2-1.5.5-.5,1-.9,1.6-1.2.7-.3,1.5-.4,2.2-.7,1-.4,1.9-1.1,2.5-2,.2-.4.4-.9.5-1.3.1-.3.3-.6.5-.9.2-.3.2-.7,0-.9Zm-1.41-6.9c4.67,2.07,1.3,9.07-3.09,6.28s-.34-7.8,3.09-6.28Zm-1.33,7.4c-.2.1-2.79,2.74-4.71-1.28-.35-.72.46-3.22.56-3.52,0,.1-1.12,4.4,4.15,4.8Zm-3.75-6.5c.1-.2.3-.7.3-1h0c.3,0,.5,0,.8-.1-.1.1-.2.1-.3.2-.2.2-.4.4-.5.6-.2.2-.3.5-.5.7-.1.1-.1.3-.2.4.2-.3.3-.5.4-.8h0Zm-1.52-1.32c-.25.13-.58.32-.88.42,1.17-1.71,3.76-1.82,4.06-1.52,0,0,.47.46-.46.52-.1,0-.75.4-.85.5,0-.1-1.09-.32-1.87.08Zm13.82,7.02c-.3.1-1,.2-1.4.4-.3-.1-.6-.1-.9-.1h0c0-.2-.2-.3-.3-.5-.5-.7-1.3-1.1-2.1-1.1h-.1c.2-.3.3-.6.4-.9.4-.1.7-.1,1.1-.1h.5c.2.3.4.6.6.8h0c.6.7,1.4,1.2,2.2,1.5Zm-12.6,14.8h0c.9,1.5,2.6,2.8,4.3,3.1-.1.1-2.6,3.1-2.8,3.2-.6-.9-2.3-4.3-2.3-5,.2-.5.5-.8.8-1.3Zm.4-.5c0-.7,0-1.3.1-2.1,4.89,3.59,8,1.2,8.4,1,0,.3.2,1.6.3,2.1h0c-.8.3-4.5,4.5-8.8-1Zm6.4,3.1c.4-.1,2.8-1.2,3-1.7.5.6,1.19,1.17,1.89,1.57-.1.2-1.89,2.93-1.99,3.13-.1-.1-2.8-2.9-2.9-3h0Zm4.5-1.1c-.6-.5-1.4-1.1-1.5-1.2,0,0-.4-1.7-.6-2.3.9-.7,1.5-1.7,2-2.7.6-1.2.7-2.4.9-3.7,0-.3.2-1.6.1-2.4,3.84,1.45,12.2,7.5,15.1,8.6-.3.4-.6.8-.9,1.3s0,1,.5,1.3c.2.2.5.3.7.5-.7.4-2.4,2.1-2.8,2.5-.2,0-3.8-.1-5.1-.2-2.3-.4-4.6-1.3-7-1.4-.4,0-1.3-.2-1.4-.3Zm7.6-18.7h0c.3.4,13.5,7.7,14.8,8.2,0,0-4.9,5-5.9,6.2-.1-.1-14.28-8.34-15.6-8.8-.63-.22-3.9-1-3.7-1.7.3-1,2.3-.3,3-.1,1.2.4,2.5.5,3.7,0h0c.7-.2,1.3-.7,1.7-1.3.1-.2.4-.5.1-.7-.1-.1-.3,0-.3.1-.3.4-.7.8-1.1,1.1-.6.2-1.1.4-1.7.4-.5,0-1-.1-1.5-.2.1,0,.3-.1.4-.1,1.1-.4,2.3-.5,3.4-.9h0c.3-.1.6-.3.8-.5.5-.2,1.7-1.4,1.9-1.7Zm-6.3-5.04c4.38-3.76,7.62,2.34,5.85,4.72-2.83,3.81-8.95-.38-5.85-4.72Zm2,6.84c-.3.1-.7.3-1,.4h0c-.2,0-.3-.1-.5-.1-.8-.2-1.5-.7-2-1.3-.7-.8-1.1-1.6-1.4-2.6-.1-.1-.2.1-.2.1,0,.3-.1.6,0,.9v.1c-.4,0-.8,0-1.2.2,0-.2.13-1.28-.89-2.89,1.98,1.44,3.79-.51,4.19-.81-.2.4-.85,2.34.2,4.1.53.88,2,1.7,2.8,1.9Zm-25.02,1.1c-1.08-1.59-.2-4.07,1.5-4.87,2-.7,3.12-2.43,4.02-4.23.8-1.5,2.1-2.7,3.8-3,.8-.2,1.48.06,2.17-.08s1.32-.63,2.02-.83c1.3-.4,2.6.02,3.8.52.9.3,1.41.75,2.09,1.37.81.74,2.46.77,2.66,2.32.04.33-.09.66-.34.88-.34.31-.74.7-1.11.92-1.3.5-2.2.7-3.4-.1-.1,0-1.66-1.47-4.2-.7h0s-.3.1-.4.1c0,0,0-.1.1-.1.2-.1.4-.3.4-.6,0-.2-.1-.3-.3-.4-.2-.2-.5-.3-.8-.3-1.9,0-3.8.8-4.4,2.7-.1.1-.1.3-.2.4-1.14,1.23-2.64,3.92-3.14,6.59-.04.21-.22.46-.41.56l-1.52.78c-.23.09-.5.03-.67-.15-.46-.5-1.12-.97-1.67-1.77Zm4.32,1.6h0c.5-.2.5-.9.6-1.4.3-.8.5-1.7.8-2.5.8-1.8,1.9-3.5,3.5-4.6.4-.3.9-.2,1.4-.2-1.35,2.29-1.5,3.9-1.5,5.2,0,.4,0,.9.1,1.3.2.7.5,1.4,1.1,1.9.1.1.1.2.2.2.4.3.7.3,1.2.4.6.2,1.3.1,1.8-.2h0c.8-.2,1.5-.8,2.1-1.3.4-.1.8-.2,1.2-.4.3.3-.1.7-.3.9-.3.4-.5.9-.7,1.3-1.3,2.6-3.5,2-5.5,3.4-1.7,1.4-2.8,3.3-4.4,4.8-1.1,1.1-5.26,4.32-5.26,4.42-1.5-3.22-5.23-8.52-5.43-8.82.8-.7,8.89-4.3,9.09-4.4Zm-15.28,7.36c-.19-.39-.13-.85.15-1.18.5-.59,2.59-1.82,3.66-2.29.4-.17.86-.06,1.13.29,1.04,1.33,5.3,7.62,6.03,9.33.05.12.04.26-.06.36-.38.41-2.6,2.76-3,2.84-1.8.33-2.51-.18-3.91-2.13-.9-1.15-3.25-5.65-4.02-7.22Zm24.98,22.44c-.41.41-.72.93-1.03,1.45l-.88,1.77c-.6,1.49-1.2,2.89-1.69,4.39-.7,2.4-1.5,4.7-2,7.1-.5,1.7-1.5,8.3-2,10.5-.1.4-.62.61-.99.09-2.25-3.19-5.23-18.83-5.53-20.03-.6-1.7-.31-1.83-5.24-5.48-8.51-7.43-11.11-11.02-11.9-12.49-.25-.47-.23-1.03.07-1.47,1.15-1.67,4.35-6.23,5.76-6.83.57-.24,4.2,11.43,9.12,8.3,1,1.1,5.7,5.2,6.1,5.1.1,0,.3-.1.4-.2.2-.8-5.6-5.4-5.6-5.4,0,0,2.9-2.7,2.9-3,3.89-1.19,7.03.17,7.33.27,0,.3,2.33,6.76,3.14,6.61.24-.04.22-.02.62-.74.37.77,1.9,2.66,2.7,3.16-.7,1.6-1.3,6-1.3,6.9Zm-.9-10.6h0c1-1,2.9-3.5,2.9-3.6,0,0,3.1,3.1,3.3,3.2,0,.1.4,1.8-.6,2.8-.8.8-2.7,1-3.6.3-.6-.2-1.8-2.1-2-2.7Zm7.6,8.3c-1.3-.6-2.78-.46-4,0-.59.22-1.17.89-1.67,1.39.1-.7.67-4.37.96-5.76,2.14.49,2.83-.49,3.23-.99.3.6,2.89,4.85,3.89,6.55.1.2.2.4.3.6-.9-.7-1.8-1.3-2.7-1.8Zm11,39.1c.1,1,.4,2,.7,3,.2.5.3,1.1.7,1.5.5.5,1.1.7,1.6,1.3.7,1.2.12,3.09-1.28,3.49-1.1.3-2.91-.68-3.51-1.56-.5-.74-.5-1.7-.7-2.6-.1-.8-.4-1.5-.7-2.2-.2-.5-.31-1.28-.71-1.68.2-.2,1.57-2.52,3.9-1.25Zm5.2-22.1c-1.4.9-2.8,1.8-4.1,2.8-.4.4-.9.7-1.3,1.1-.1-.4-.2-.9-.3-1.3-.7-2.4-1.3-4.8-2.1-7.1-.4-1.2-.8-2.5-1.4-3.7-.5-1.2-3.2-6.7-4-8.4-1.2-2.2-2.3-4.6-4.1-6.3.6-1.03.64-2.19.61-2.4,0,0,2.12-2.49,2.7-4,0-.1,1.59.5,2.39.6,1.6.3,3.2.9,4.9,1,1.2,0,2.4.1,3.6,0h.9c-.3.3-1.7,1.5-1.8,1.6-.3.3-.2.5.2.6.5.1,5.5-4.9,5.6-5,.5.2,1,.5,1.4.7.7.4,1.5.7,2.2,1.1.8.4,1.7.6,2.5.3h0c.1,0,.2-.1.3-.1,1-.5,6.5-5.6,6.6-5.8.7.6,1.3,1.2,1.8,2,2.2,4.3-2.7,8.8-5.6,11.5-2.1,1.9-4.3,3.6-6.4,5.5-.9.8-1.8,1.5-2.7,2.3-.2.2-.5.4-.8.6-.5-1.6-.9-3.2-1.4-4.7-.4-1.1-.7-2.3-1.2-3.4-.2-.3-.3-1.2-.7-1.3l-.1.1c.1,1.1.3,2.2.6,3.3.8,3.1,1.8,6.2,2.8,9.3.7,2.2,1.5,4.4,2.1,6.6.1.1.1.3.1.5-1.1.5-2.2,1.2-3.3,2Zm35.2,29.9c-.5-1.4-.9-3.1-1.5-4.5h0c.3-.4.6-.7,1-.9.4-.2.8-.5,1.2-.4.5.2.7.9,1.2,1h.5c0,1.1.7,2,1.9,2,.8.1,1.6-.2,2.5-.1.5,0,1,.3,1.3.7-.2-.1-.4-.1-.7-.1-1.7.3-3.5.7-5.1,1.5-.6.3-1.5.5-2.3.8.1,0,0,0,0,0Zm8.1-.1h0c-.5.1-1.1.1-1.7.2-.8.1-1.7.3-2.5.4-.5.1-1,.2-1.6.3-.7.1-1.4.3-2-.1.6-.2,1.2-.4,1.8-.6,1.4-.5,2.8-1.1,4.2-1.4.4,0,.8-.2,1.2-.2.3.1.6.4.6.7v.1c.2.2.2.4,0,.6Z"/><path class="uuid-d15ed596-656c-4077-9526-3ae65ebe29c1" d="m446.82,151.05c-3.6-1.7-6.9-3.1-10.4-.6-4.4-2.1-3.7-6.9.2-7.5,2.4-4.1,4.3-11.3,16.1-7.4,5.7,3.4,7.1,11.3,4.8,14.8-1.8-1.2-6.2,1.1-10.7.7Z"/><path class="uuid-d15ed596-656c-4077-9526-3ae65ebe29c1" d="m451.22,167.05c-3.4,4.3-11.9-4.1-11.9-4.1l1-3.2,10.5,2.3.4,5Z"/><path class="uuid-1b9c9e2a-6dc7-410e-a156-d090c67d7cdd" d="m477.49,204.76c-.2,3.1-5.23,10.84-10.62,8.99,3.6,7.6,1.75,17.74,2.35,25.24-1.8.1-4.94-2.04-6.94-1.64-3.91-6.58-6.77-28.08-6.77-28.08,0,0-4.24-2.63-7.69-3.83-1,11.8,1,28.3-5.3,30.8-13.6-3.2-20.63,5.71-20.73-.79-1.1-6.9-2.87-20.81.03-24.61,2.1-3.1,2.2-6.7,1.3-10.8-1.8-8.4-6.6-18.39-2.1-29.99,4.9-2.8,8.8-4.01,12.3-4.91.6-.2,3-3.3,4.7-3.1,4,4.3,12.2,8.8,14.4,5.3,8.4,6.5,18.18,5.97,18.4,13.3,6.2,11.5,1.6,11.7-6.9,14-2.9,9.4,3.47,7.8,13.57,10.1Z"/><path class="uuid-d15ed596-656c-4077-9526-3ae65ebe29c1" d="m477.32,199.35c-.8-3.3-4.1-4.9-3.6-7.9-3.9,1.5-11.2.9-10.6,7.6.31,3.02,2.42,3.73,7.79,4.2,5.33,1.39,9.12.32,6.41-3.9Z"/><path class="uuid-d15ed596-656c-4077-9526-3ae65ebe29c1" d="m428.42,205.15c-2-1.2-3.3-3.3-4.8-5.1-7,3.2-4.3,9.7.9,12.8,1.3-2,8.3-5.9,3.9-7.7Z"/><path class="uuid-af07d117-f26e-4cd8-9634-ce7a0961ca59" d="m452.52,194.15c-.9-.1-4.14-.02-4.84-1.02-1.6-6.9-.37-18.34-3.77-25.56,1.9,1.5,8.01-.82,7.61,1.98-.7,9,.6,17.6,1,24.6Z"/><path class="uuid-af07d117-f26e-4cd8-9634-ce7a0961ca59" d="m466.72,240.35c3.2,7-46.5,6-42.5-2.2,6.1-2.2,13.2-.6,19.4-1.5,5.8-8.4,4.4-18.7,4.6-28.3-.5-1.3.9-2.1,2-1.3,5.4,1.2,5.5,3.4,6.3,8.3,2,7.1.4,17.4,5.6,22.9,2.1.7,5.1-1.7,4.6,2.1Z"/><path class="uuid-af07d117-f26e-4cd8-9634-ce7a0961ca59" d="m438.82,148.77c4.6-1.4,4.3,3.68,14.7,1.88,10.03-2.59.3,11.98-6.2,11.28-7.6-.7-15.15-9.88-8.5-13.16Z"/><path class="uuid-1b9c9e2a-6dc7-410e-a156-d090c67d7cdd" d="m436.62,334.45c-.3,0-.5-.2-.8-.5-.2-.4-.2-.9-.2-1.3.7.2.8,1.1,1,1.8h0Z"/><path class="uuid-0e3f0ef8-ca60-40dd-9b80-1af808f955f5" d="m435.91,344.96c-1.7-1.3-1.98-3.42-2.08-5.32-.1-1.3.08-4.09-.12-5.39-.2-.7.62-1.6,1.52-1.7,1.3-.1,1.1,1.6,1.5,2.4,2.74-3.77,6.93.65,7.53.25,2.24,1.03,1.85,6.13,1.65,7.93-2.71,3.98-8.68,2.64-9.98,1.84Z"/><path class="uuid-0e3f0ef8-ca60-40dd-9b80-1af808f955f5" d="m461.58,332.02c1.09-.76,9.04,2.21,11.73-.37,1.73.98,7.95,4.83,8.53,5.23,5.43,3.63-3.78,7.8-6.61,6.56-2.52-1.11-5.43-2.51-7.96-2.91-5.19-.83-8.97-1.25-5.7-8.5Z"/><path class="uuid-af07d117-f26e-4cd8-9634-ce7a0961ca59" d="m441.42,324.45s-3.3-2.3-4.7,0c-1.6,1.7-.94,5.6-1.94,8.1,1.3,2.3,2.96,2.34,4.64-.3,5.5,3.9,2-7.8,2-7.8Z"/><path class="uuid-af07d117-f26e-4cd8-9634-ce7a0961ca59" d="m473.02,331.8c-1.5-1.2-3.09-6.05-3.09-6.05l-7.99.22s-.64,4.75.32,5.68c4.31,4.17,9.5,1.65,10.76.14Z"/><path class="uuid-420e0400-d109-430e-ba80-c5b2e86f3271" d="m470.42,292.35c1.9,11.8.1,32.1.1,32.1,0,0-7.64,2.2-9.94.3-2.01-2.01-3.08-9.94-5.38-25.84-8.8-61.9-12.28-12.36-9.58,18.74-.1,8-4.6,7.02-13.8,5.12-3.98-21.99-2.1-49.16-7.83-81.24,14.69,2.82,19.73,6.33,42.83,2.33,1.4,3.4,1.4,18.1,3.6,48.5Z"/><path d="m451.22,165.05c0-.1.1-.1.1-.1.1,0,.1.1.1.1l-.1.1s-.1,0-.1-.1Z"/><path d="m444.76,152.92c0-.3.38-.58.65-.27.89,1,2.16,1.02,3.2.6.33-.14.7-.1.9.2.4,1-.8,1.2-1.7,1.2-1.83,0-2.85-.73-3.05-1.73Z"/><path d="m447.73,149.39c-1.09-.19-1.66-.39-2.68-1.5-.14-.15-.02-.78.49-.45.3.19,1.29,1.13,2.47,1.16,1.07.03,1.87-.28,2.47-.48.3,0,.45.18.35.48-.4.7-2.3.93-3.09.79Z"/><path d="m451.39,143.45c-1.5.1-1.6-1.6-.1-1.8,1.7-.46,6.78,1.86,4.01,2.7-.96.29-2.48-.89-3.91-.9Z"/><path d="m472.72,331.35c0-.2.1-.3.3-.3s.3.1.3.3-.1.3-.3.3-.3-.1-.3-.3Z"/><path d="m482.55,336.6c-1.11-.78-7.68-4.66-9.64-6.64-2.73-3.38-1.8-8.52-1.6-12.9.31-6.95.6-13.9.5-20.9-.3-14.3-1.8-28.5-3.2-42.7-.2-2.5-.5-4.9-.6-7.4,0-.8-.1-1.8-.2-2.6v-.1c.5-1,.3-2.5,0-3.7.3.1.5.3.8.4,1.9,0,1.14-4.41,1.14-5.61-.1-2.3.16-3.99.26-6.29.1-4.5-1.1-8.8-2.1-13.2,0-.1-.1-.2-.1-.4.5.2,1,.3,1.4.3,2.3,0,4.4-1.9,5.7-3.9.8-1.2,1.8-2.3,2.5-3.6.2-.7,1.3-2.6,1.1-3.7.1-.3.2-.6.2-1,.2-.8,0-1.4-.3-2.2-.1-.5,0-1-.2-1.4-.1-.2-.2-.4-.2-.7.1-.4-.42-.75-.52-1.15.4-1.6-.88-3.05-2.28-3.75,1.1-1.2.4-3-1.1-3.2-.1-1-.5-2-.6-3-.7-4-2-7.9-3.9-11.6-1.6-2.9-5.2-3-8-3.7-.3,0-.6-.1-.8-.2-.6-.2-1.2-.5-1.8-.8-1.5-1-3-2.1-4.4-3.3-1.2-.9-1.6-1.6-2.7-2.5-.1-.1-.1-2.1-.2-3.2,5.8-2.6,7.8-12.1,7-17.9-.7-10.9-14.05-13.87-20.25-5.47,0,0-1.59,1.85-2.16,3.66-4.58-.18-4.91,8.02-.41,8.52-.4,3.5,1.01,6.9,3.41,8.9,0,0-.4,2.3-.5,2.5,0,.1-.6-.3-.9-.5-.2-.1-.4-.1-.6,0-7.71,5.22-15.22,5-17.72,9.9-2.5,7.44.92,26.3,2.52,28.4q.1.2.3.3c-.9.3-1.3.9-2.3,1.8-.9.9-2,1.7-1.8,3.1,0,.8.28,2.15.9,2.8.2,1,.7,2,1.3,2.7-.2.7-.3,1.5-.4,1.7-.8,3.5-.7,7.1-.5,10.6,0,3,.4,6,.8,9,.2,2.2,1,4.4,1.6,6.5.1.3.3.4.5.5.1,0,.2.1.3.1h.3c-.1.5-.56,1.42-.6,1.7-.22,1.4.4,3.5.7,5.3.6,2.3,1.3,4.6,1.6,6.9.7,3.1,1.1,6.3,1.6,9.5.8,5.3,1.5,10.6,1.5,16,.2,7.6.7,15.1,1.2,22.7.3,4.7.4,9.5.8,14.2.2,2.4.3,4.9,1.1,7.2.1.3.2.7.5.9.2.3.6.3.9.4.8.4,1.5.6,2.3.7-.1,1.3.2,2.6.1,3.9-.1.7-.5,1.7-.9,2.7-1.1,2.4-.9,5-.8,7.8.12,4.33,1.52,7.77,7.49,7.91,8.09.19,6.01-8.01,5.31-10.61-.7-1.8-2.21-2.7-4.1-11.4.5,0,.9-.1,1.3-.2,3-1.9,2.4-7.4,2.7-10.6.1-3.5.4-6.9.2-10.4-.2-4.2-.2-8.5-.1-12.8.1-7.2.7-14.3,1.9-21.4.9,4.5,2.9,8.7,4,13.2.6,3,1,5.9,1.3,8.9,1.4,9.2,2.3,18.5,4.9,27.5,1,3.2,1,5.7,2.9,6.9,1.52,3.89-1.88,10.22-1.1,12.5,1,2.66,5.91,2.94,6.01,2.94.5,0,.89-.44.99-.54.1,0,2.9.9,4.1,1.6,1.2.6,2.55,2.03,5.5,1.8,11.49-.88,7.13-6.83,6.14-7.66Zm-9.54-4.8c-4.47,2.07-8.28,2.36-10.64-.96.1-1.5.09-3.04-.21-4.54,2.67.53,6.66.06,7.76-.54.04,1.98,2.39,5.35,3.09,6.05Zm-4.2-104.16c-.2,3-.1,10.01,0,10.91-.7-.3-2.2-1.2-3-1.3-1.2-.3-2.6,0-3.6-.7-2.6-3.99-5.2-25.49-5.9-26.69.3.1,1,.49,1.3.59,2.9,1,5.7,2.3,8.5,3.4.9,4,2.9,9.49,2.7,13.79Zm-20.1-20.99c.3.1,4.4,2.1,6.3,2.7-.2.6,3.3,18.3,4.2,22.7.5,1.8.7,3.9,1.9,5.5,1.2,1.1,2.9.7,4.4.9.2,0,.4.1.6.1-.2,1,.4,2.6.2,3.4-1.7.9-3.7,1.3-5.6,1.4-2.5.4-4.9.6-7.4.6-7.2.1-14.4-.3-21.5-1.1-1.6-.3-3.2-.7-4.6-1.6-.9-.4-1.9-1-2.3-2-.1-.3-.2-.5-.2-.8.5,0,1.2-.4,1.9-.5,3.9-1,7.9-1.3,11.9-.9.6,0,1.3.1,1.9.1,1.4.2,2.8.4,4-.6.6-.7,1-1.7,1.4-2.5,1.6-2.9,3.33-11.46,2.9-27.4Zm20.43,6.8c-1-.3-17.83-7.1-18.13-7.2.8-.2,10.41-1.47,13.35-3.47.8.3,12.34,2.3,12.84,2.2-.8,1.2-7.16,8.78-8.06,8.48Zm3.91-19.56c.32.88,1.25,1.16,1.55,1.36.6.5,1.1,1.1,1.4,1.9-.7.4-1.2,1.2-.4,1.9.4.2.7.4.9.8v.1c-.3.5-.8,1.1-.4,1.7.2.3.4.6.5.9-.8,1.7-4.4.74-5.78.47-1.86-.37-6.22-1.57-6.42-1.47.1-.9-.6-4.9-.9-5.6.3-.2,7.05-2.97,10.05-3.87-.1.3-.63,1.47-.5,1.81Zm-14.3-21.55c.8.4,5.78,1.81,6.98,2.11,2.48.74,3.66,3.16,4.46,5.53.45,1.32,2.76,10.08,2.86,10.48-.7.2-7.8,3.17-9.65,3.89-.15-3.39,2.3-6.1,2.8-7,.2-.3.1-.7-.3-.9-1-.5-1.7,1.6-2.2,2.2-.1-.4-.2-.9-.3-1.2,0-.2-.2-.3-.4-.2-.5.2-.4.9-.5,1.3-.3,1.8-1.1,3.7-1.1,5.5v.4c-1.6-.5-3.2-.6-4.8-.7-1.3,0-2.3-.1-3.6-.2-1.28-10.14-1.1-12.3-1.1-15.1v-2.7c.5-1.3.6-3.1,1.2-4.5,0-.1.1-.1.2,0,1.9,2.7,4.24,5.79,5.44,1.09Zm-7.64-3.92c-.04,1.04-.98,9.43-.2,17.33.2,2.1.5,4.1.8,6.2.1.4.37,1.61.37,1.61-1.2-.2-2.76-.45-4.04-.72-1.65-6.72-.17-16.39-2.88-22.77-.2-.6-.4-1.3-.7-1.9.6.3,4.08,1.59,6.65.25Zm-11-5.77c0-.2.1-.5.1-.7.1-.6.3-1.2.3-1.8,2.7,1.8,7.56,2.92,10.2,2.2,0,1,0,1.7,0,2.7,0,.6.2,1.1.4,1.5-.2.1-1.43,1.17-3.4,1-2.3-.2-5.84-2.4-7.6-4.9Zm11.7,5.5c.25-.19.45-.47.6-.58.1.1,5.13,4.11,5.23,4.21-.15.37-.35,1.49-.54,2-.05.14-.23.18-.34.07-.48-.49-1.76-1.78-2.15-2.4-.4-.7-.7-1.5-1.5-1.5-.7,0-1.1,1.8-1.4,2.4,0-.9.2-3.3.1-4.2Zm-17.25-23.99c.34-.39.99-.99,2.32-.88,3.21-8.02,13.33-11.01,18.53-5.22,3.1,3.4,2.4,8.5,2.1,11.3-.04.27-.09.5-.14.76-.21-.1-.46-.19-.76-.26-3.6-1-6.9,2.2-10.5.4-2.1-.8-3.9-2.5-6.2-2.4-1.39-.09-2.85.88-3.5,2-3.21-.64-3.46-3.8-1.84-5.69Zm3.22,12.11c-.52-.78-.75-2.66-.8-3.6-.06-1.08-.08-2.58,1.21-3.25.65-.34,1.59-.69,2.3-.53,3.66.81,6.64,4.16,10.69,2.59,1.4-.5,4.21-1.76,6.12-.43-1.91,16.02-15.91,10.68-19.52,5.21Zm.13,6.18c.1.1,4,3.8,4.2,3.9-.2.1-3.9,3.6-5.9,3.9-1.4,0-3.4-4.3-3.4-4.6,1.5-1.1,3.6-2.2,5.1-3.2Zm-17.8,10.7c1.5-5.2,7.3-5.4,11.7-7.4-.1.5.2,1.1.4,1.7.1.2,2,3.8,3.5,4.1.2,0,.5.1.7.1.9,0,6.4-4,6.5-4.1.9,2.6,1.8,5.3,2.4,8,.8,5.6.5,11.3,1.5,16.9-2.5-.8-4.9-1.8-7.2-3-1.8-1.4-3.79-5.34-3.79-5.34,0,0-2.71-4.66-4.11-6.96,0-.2-.3-.3-.4-.1-.1.2.1.4.1.5.9,2.3,1.9,4.6,2.9,6.9,4.27,8.41,9.43,8.74,12.71,9.38,2.04.4,11.02,1.41,14.11,1.94.75.13,1.33.69,1.51,1.42.43,1.78.65,4.39.67,4.53.2,1.81-15.26,3.69-23.46,4.29-1.65,0-6.46.19-10.01-1.42-3.11-1.4-6.11-5.01-6.67-6.13-.7-1.7-4.69-12.61-3.07-25.33Zm2.5,29.9c-.8.5-1.4,1.3-2.2,1.9-.2.2-.3.4-.4.6-1.12-1.46.8-2.3,1.2-2.7.6-.5,1.1-1.1,1.7-1.6.1-.1.3-.3.5-.4.6.7,1.2,1.3,1.8,2,.9,1,1.7,2,2.8,2.8.79.54.9.9,1.6,1-.4.2-.6,1-.9,1.3-.7.8-1.3,1.8-2.2,2.5-.7.4-1.1,1.2-1.7,1.7-.2-.5-.6-.9-.7-1.4,0-1.2,1.1-2.2,1.6-3.3.1-.2.2-.4.2-.6-.2-.4-.5.1-.7.2-1,.6-1.7,1.5-2.2,2.5-.1.2-.1.4-.1.6-.2-.6-.1-1.3-.3-2,.1-.7.5-1.3.8-1.9.1-.2.4-.6,0-.6-.2.1-.4.3-.5.4-.5.6-1.1,1.1-1.3,1.9,0,.3-.1.6-.1.9v.3c-.2-.4-.8-1.38-.99-2.23-.1-.8,1.59-2.37,2.19-2.87.1-.2.3-.3.4-.5.2-.3-.2-.7-.5-.5Zm-.64,29.04c-.88-4.37-1.45-4.54-.46-20.34,0,0,.1-.2.2-.5.2.5.4.9.8,1.3.1.1.2.1.4.1s.3-.1.5-.2c.2.5.4,1,1,1.1,1.2,0,1.7-1.5,2.4-2.2.9-.5,4.3-3.6,3.5-4.7h.1c2.7.5,5.5.6,8.2.7,2.7,0,5.91-.22,8.61-.62-.1.9,1.09,23.66-4.01,28.52-.7.3-7.7,0-9.9-.1-3.9.1-6.91.45-10.02,2.2-.5-2-.68-2.12-1.32-5.27Zm22.64,103.96c.9,2.1,1.7,4.7.7,7-2.04,2.79-5.18,3.71-9.2.9-2.14-1.49-1.71-4.09-1.71-6.09,0-.9-.09-3.91,0-4.21.2.7,1.9,1.7,2.8,1.7,1.1,0,1.3-1.3,2.2-1.7,1.4.6,2.2,1.9,3.7,2.1h.3c.3,0,.6-.1.8-.2.1.2.3.4.4.5Zm-2-3.2c.1.2,1.37,1.83,1.47,2.03-.1-.1-4.82-4.56-6.77-.83-.5.1-2.44-1.2-2.54-1.5.5-1.5.96-2.19,1.16-3.96.06-.51.16-2.85-.14-3.95.5,0,4.3.1,5.13.12,0,2.8.5,5.6,1.7,8.1Zm17.65-9.58c-.6-1.9-.9-3.63-1.45-5.55-1.88-6.55-1.98-10.48-2.98-17.18-.7-5.1-1.57-12.25-2.57-17.25-1-4.3-4.45-14.6-4.85-15.5.5-3,1.7-7.35,2.4-10.35.4-2.3.8-4.5,1.1-6.8.1-.8-1-.9-1.2-.2-1.6,7-3.2,13.8-4.3,20.9-1.2,5.6-1.8,11.4-1.9,17.1,0,5.1-.1,10.2.1,15.2.1,3.4-.1,6.9-.1,10.3-.2,2,.1,8.38-1.6,9.48-1.8,0-3.7-.1-5.5-.1-1.4,0-4.24-.32-5.44-1.02-.78-2.76-2.06-34.54-3.43-53.17-1.26-17.21-2.29-17.04-3.5-22.82-.25-1.2-.67-3.49-1.07-4.79,3.4,2.5,8.53,3.43,12.63,3.53,5.5.6,11.1.7,16.7.9h1.3c2.5,0,4.9-.3,7.3-.6,1.4-.1,2.8-.6,4.1-1.1.1.8.2,1.7.2,2.5.5,4.9,1,9.9,1.5,14.8.7,6.9,1.3,13.8,1.9,20.7.4,7.1.84,9.04.94,16.14.2,4.7-.06,14.48-.26,19.1-.08,1.89-.16,4.45-.2,6.44,0,.42-.59.73-.99.84-1.31.36-2.7.32-4.05.42-1.02.07-4.49-.41-4.79-1.91Zm21.32,18.14c-1.85,1.01-4.33,1.32-6.52,1.21-1.8-.09-3.51-1.48-5.19-2.32-1.39-.69-3.06-1.62-4.26-.22-.7-.1-5.17-.48-4.65-2.95.3-1.44.79-3.45,1.14-4.93,1.1,1.6,3.22,2.4,5.45,2.62.83.08,5.49-1.62,6.29-2.12.3.3,13.24,5.68,7.74,8.7Z"/><path d="m452.9,146.38c-.39-.22-1-.4-1.61-.39-.4,0-.9.3-1.1-.1-.2-.4.3-.7.7-.7.8-.1,1.6,0,2.3.4.4.2,1.14.66.86,1.08-.3.45-.84-.11-1.15-.29Z"/><path d="m442.08,145.19c-.19-.46.63-.77,1.06-.89.76-.25,1.57-.2,2.33.06.39.08.82.47.55.82-.27.35-.71-.03-1.1-.12-.59-.13-1.23-.08-1.65.06-.34.12-.98.55-1.19.06Z"/><path d="m441.76,142.75c-2.56-1.36,2.88-2.64,4.46-1.87,1.43.49,1,2.14-.45,1.75-1.4-.28-3.12.59-4.01.12Z"/><path class="uuid-864497a2-2496-434c-ba14-6cbd7e52fd42" d="m160.52,188.85c1.4-15.3-3.3-23.4-12.7-26.6-7.9,7-8.2,3.2-12.7,3.9-6.1-1.7-8.8-5.4-8.8-5.4,0,0-13.3-2.4-19.2,10.3-5.1,10.9-4.5,18.8-1.8,25.4,2.2,1.4,1,3.3,5.7,3.7-1,8-1.1,13.9-1.7,23.1,23.2.1,48.8-1.5,48.8-1.5,0,0,0-17.1,2.4-32.9Z"/><path class="uuid-968c8773-0521-4d40-a482-2f78cee90cf7" d="m146.62,142.95c3.6,5-8.5,11.3-4,17.1.4.5,0,1.3-.6,1.6-8,1.6-3.2,5-7.9,4.4-2.1-1.3-.2-5.1-3.3-5.8-1.2-.8,1.2-2,.4-2.8-3.8-4.1-7.6-9.7-6.8-13.9,5.4-21.5,19.7-5,22.2-.6Z"/><path class="uuid-968c8773-0521-4d40-a482-2f78cee90cf7" d="m113.62,180.65c-8.9-5.4-2.3,1.8-5.5-.5-.9,3.6,8.7,3.9,11.4,4.2.1-3.7-10.5-11.3-5.9-3.7Z"/><path class="uuid-968c8773-0521-4d40-a482-2f78cee90cf7" d="m148.12,189.45c-2.9-4.4-17.4-2.6-17.4-2.6,0,0-2.6,4-1.4,7.7,6.4-2,14.8,1.5,18.8-5.1Z"/><path class="uuid-af07d117-f26e-4cd8-9634-ce7a0961ca59" d="m158.02,223.35c1.1,2.9,4.4,8,2.7,9.8-1.5,1.6-4.2,6-6.5,6.2-14.3,1-44.8-2.9-44.8-2.9,0,0-4.3-6.4.6-13,18.1-.2,38.9-1.3,48-.1Z"/><path class="uuid-968c8773-0521-4d40-a482-2f78cee90cf7" d="m143.02,297.45s-2.3,5.3-6.3,5.6c-1.4,1.5,2,5.3,1.9,7.2,1.7,1.9,11.1-2.6,8.1-10.4-1.9-1-3.7-2.4-3.7-2.4Z"/><path class="uuid-968c8773-0521-4d40-a482-2f78cee90cf7" d="m137.72,312.45c-1.7-1.1-4.7-1.2-6.6-1.5-4.5,4.7,8.2,9.4,6.6,1.5Z"/><path class="uuid-1b9c9e2a-6dc7-410e-a156-d090c67d7cdd" d="m153.22,301.05c-1-2.6-4.3-3.2-6.2-1.7-.5,2.4.6,4.7-.4,7.1-4,5.3-8.1,4.4-8.1,4.4,0,0-.9,2.5-1.8,5.9-4,2.4-5.9-4.7-9.3-.9-4.6,4.4-1.7,3.1-7,9.1.9,2.7,6.4,4.9,12.8.3,2.8-4.7,6.1.6,12.6-5.7,2.9-2.9,4.2-11.2,6.5-11.1,2.2-4.1,2.8-6.8.9-7.4Z"/><path class="uuid-af07d117-f26e-4cd8-9634-ce7a0961ca59" d="m146.32,161.25c-2.1-2.3-2.6-.1-4.6.7-1.6.9-4.3,0-5.1,3.3.8,3.1,13-1.1,9.7-4Z"/><path class="uuid-af07d117-f26e-4cd8-9634-ce7a0961ca59" d="m131.52,161.05c-1.3-3.7-5.8-1.3-5.1.2,3,6.2,9.3,4.9,5.1-.2Z"/><path class="uuid-0e3f0ef8-ca60-40dd-9b80-1af808f955f5" d="m147.32,135.95c-4.2-10.2-21.2-7.7-23.9,2.4-2,11.4-2.4,12.2,3.8,12.8,0,0-.4-2.1-.3-4.1-2.1-3.6-.1-4.1.3-5.4,2.6-9.5,12.4-8.2,16.5.7.6,1.3,0,3.4,1.9,1.4,2.8-.9,2.4,3.1,1.4,4.5-1.8,2.2-5,2.3-.6,3.6,6.4-.9,4.4-12.1.9-15.9Z"/><path class="uuid-968c8773-0521-4d40-a482-2f78cee90cf7" d="m143.72,145.55c-.7-.7.6-1,1.2-1,.4,0,.5.4.5.7,0,.5-.6.6-.9.5-.3,0-.6,0-.8-.2h0Z"/><path class="uuid-5b7b99d8-1e38-44b8-a571-88ded64c5b7c" d="m127.62,147.95c-3.2-1.4-2-7.5,2.4-6.1,4.6,1.4,1.5,7.8-2.4,6.1Z"/><path class="uuid-5b7b99d8-1e38-44b8-a571-88ded64c5b7c" d="m137.52,147.45c-4.2-.8-2.9-7.4,1.3-6.2,4,1.1,2.7,6.6-1.3,6.2Z"/><path class="uuid-76df60db-9aab-441e-a4bf-ecec71b9d6d0" d="m131.12,244.45c-.5,2.3-6,24.1-6.5,27.4,2,2.1,4.4,4.2,6.1,6.6,0,0,.5-33.9.4-34Zm25.2-5.8c-1.5,5.1-6.5,13.6-9,25.7-2.4,11.5-.9,20-3,33.1-4.2,1.3-5.8,5.5-8.9,5.3,2.1,2.8,3.4,7,2.2,8.5-.8,1-3,.6-5.8-1.7.2-2.9,0-6.2-.9-8.7-4.5-9.2-14.8-17.8-21.7-28.3-.7-12.5-.6-19.6,1.9-35.5,21.1.4,38.2,4.1,45.2,1.6Z"/><path d="m133.82,144.25c-.5-.2-1.1.1-1.5-.1-.3-.2-.2-.5.1-.6.4-.2.9-.4,1.3-.4,1-.2,1.1,1.2.1,1.1h0Z"/><path d="m150.92,144.05c-2.1-22.8-31-18.9-29.1,3.4-.3,3.5,1.8,4,4.8,4.3h0c.4,0,.5.1.7-.2,1-1.9-3.7-.4-4.1-1.7-2.5-8,1.9-18.4,10.5-20-1.4,2.4,1,2.3,1-.2,4.7-1.2,9.3,1.6,11.9,5.4,3.2,4.4,4,10.7,1.5,15.6-.2.1-.4.4-.4.6-4.4-.9-4.5.6-.2,1.1,0,0,.6,0,.9-.1.5.3,2.7-5.6,2.5-8.2Z"/><path d="m147.92,143.55c-.4-1-1.8-1-2.6-.4-.4.3-.6.8-1,1-.3-1.9-.8-3.9-2-5.5-2.6-3.1-6.5-5.2-10.5-3.8-3.1.7-5.1,3.6-5.1,7,0,.4.8.2.6,0,.6-2.8,2-5.8,5.1-6.2,3.7-.9,7,.8,9.3,3.7,1,1.3,1.4,3,1.6,4.6.3,1.8,1.5,1.1,2.4.1.3-.3,1.2-.7,1.3-.1,0,.4.1,1,0,1.4-.3,1.3-.9,2.4-1.8,3.4-.4-.2-.8-.8-1.3-.7-.6.1-.8.9-.3,1.2.1,0,.1.1.2.1v.8c-1.9,10.9-16.5,8.2-16.4-1.7.1-.3-.2-.8-.4-.4-.8,3.5,1,6.9,3.9,8.7,0,.2-.1.3-.1.5-.2.6-.5,1.4-.3,2,.2.2.4,0,.5-.2.4-.5.8-1.1.9-1.7,1.1.5,2.3.8,3.5.9h0c2.1.1,4.1-.6,5.8-1.8v.4c.2,1.6.5,3.3,1.6,4.6h0c.3.3.8-.1.7-.5-.1-.3-.2-.5-.2-.7-.3-1.4-.9-2.8-1.2-4.2v-.2c1.7-1.5,2.8-3.6,2.9-5.9,2.1.9,3.6-4.9,2.9-6.4Z"/><path d="m133.32,153.25c-.6-.1-1.2-.3-1.6-.7-.1-.1-.3-.3-.1-.4.1-.1.3,0,.4,0,.4.1.8.2,1.3.2.8,0,1.5-.1,2.1-.4.2-.1.3-.2.5-.3.3-.3.9-.2,1.2,0,.8.6-.4,1.2-1.1,1.5-.9.3-1.8.3-2.7.1Z"/><path d="m133.72,150.15c-.5-.1-1.2-.3-1.4-.8-.1-.2-.1-.5.1-.6.5-.2,1,0,1.5,0,.4,0,.8.1.9.5.1.6-.6,1-1.1.9h0Z"/><path d="m152.12,252.15c1.5-3.4,4.9-12.2,5.2-13.1.1-.3,1-2.4.7-2.7-.4-.5-.9.6-1.1,1-.9,1.5-1.9,4.1-2.4,5.8-1,2.5-2.1,5.1-3.1,7.6-1.7,4.5-3.9,8.6-5,13.3-1,4.9-.8,10.4-.9,15.2-.1,4.9-.4,9.8-1.3,14.4-.1,1.3-.5,2.5-.7,3.7,0,0-.1,0-.1-.1-.1-.1-.2-.1-.2-.2.1-.3.2-.6.2-.9.1-.6.3-1.2.2-1.8-.1-.2-.2-.3-.4-.3-.1-.7-1.2-1.7-1.5-2.1-1.4-1.7-2.8-3.4-4.2-5.1-2.4-2.6-4.2-5.7-6.4-8.5.3-.2.3-.7.3-1.1-.1-.8-.1-1.4-.1-2.2-.2-2.8-.1-5.6-.1-8.4,0-3.7.3-7.3.6-11,0-2.1.1-4.2.1-6.4-.1-1.1-.1-2.2-.1-3.3.1-.4.1-.9.1-1.3.1-1.1,0-2.2-.4-3.3-.1-.2-.2-.5-.4-.5-.1,0-.2.1-.3.3-.5.9-.4,2-.5,3.1,0,.3-.1.8-.1,1.2-.6,2.3-1.2,4.6-1.8,6.9-.5,2.9-1.5,5.6-2,8.4-.3,1.5-.5,3.1-.9,4.6-.6,1.7-.9,3.4-1.1,5.2-.5-.4-1.2-.3-1.2.4,0,.4.3.6.6.7.5.4,1,.9,1.4,1.5,1.2,1.7,2.6,3.3,3.9,4.9.8.8,1.7,1.8,2.5,2.8,1.8,2.4,3.5,4.8,5.6,7,1.7,2.3,3.5,4.5,5.4,6.6h0c0,.1.1.1.2.1-.2.8-.3,1.7-.5,2.5-.2.9-.8,1.6-1.5,2.2-.7.7-1.2,1.3-2.1,1.9-.5.6-1.3.7-1.9,1.1-.7.3-1.5.5-2.2.2-.4-.4-.8-.8-1.2-1.3-1.5-1.9-3.1-3.8-4.7-5.6-.9-1.3-1.9-2.5-2.9-3.7-2.9-3.5-5.9-7-8.9-10.3-2.1-2.6-4.7-5-6.2-8.1-2.3-4.3-1.1-9.3-1.4-14,.2-5,.6-10,1.2-14.9.2-1.4.4-2.7.6-4.1.1-1.2.5-2.5.3-3.6h0c-.1-.1-.2-.1-.2-.1-.2.1-.2.3-.2.4-.4,2.4-1,4.9-1.3,7.3-.5,3.3-.5,6.5-.9,9.8-.2,2.7-.4,5.3-.5,8.1-.3,4.2-.5,8.7,1.8,12.4,1.6,2.9,3.9,5.2,5.9,7.7,3,3.3,5.9,6.7,8.7,10.1,2,2.4,3.7,4.9,5.9,7.2.1.1.2.2.3.3-.5,3.1,0,6.3-.3,9.5-.1.4,0,.6.3.9-.1.1-.1.2-.2.3-.6.8-.7,1.7-1.2,2.5l-.2.2c-.9.2-1.6.8-2.2,1.7-.8,1.2-1.6,2.4-2.5,3.6-.2.4-.3.7-.5,1.1-.2.3-.4.5-.6.8-1.1,1.2-2.4,2.3-3.3,3.7-.4.6.2,1.2.5,1.8.5.8,1.5,1.2,2.3,1.5,1.4.5,2.8.4,4.2.6,2.6,0,5.1-1.2,7-3,.7-.7,1.5-1.4,2.2-2.1.2,0,.3-.1.5-.2.3.7,1,1.2,1.9,1.1h0c3.1.1,6.1-1.3,7.8-3.9,1.4-2,2.5-4.3,3.3-6.5.5-1.6.8-3.3,1.8-4.8.9.3,2,.2,2.3-.9.6-1.5,1.4-2.9,1.3-4.6,0-.7-.3-2.6-1-3.4-1-1.4-2.5-1.8-4.3-2.2-.9-.1-1.9-.1-2.7.2h0c-.2,0-.4.4-1.3.3-.4-.1-.8-.2-1.2-.3.6-2.5,2.3-15,2.3-20.2,0-4.8-.1-9.6,1.1-14.3,1-3.6,2.5-7.4,3.9-11.3Zm-22.1,7c-.1,4.1-.1,8.3-.3,12.4-.1,1.4.1,2.7.2,4v1.4c-1.4-1.8-2.6-3.6-4.2-5.2.3-3.5,1.2-6.9,1.8-10.3.4-2,.9-4.1,1.4-6,.5-2,.7-4.1,1.4-6.1,0-.2.2-.7.3-1.3-.1,3.7-.3,7.4-.6,11.1Zm.4,56.1c.6.4,1.2,1,1.8,1.4.8.5,1.8.9,2.8.9-.9,1.4-1.7,3-3.1,4-1.9.2-1.7-2.8-1.7-4-.1-.8.1-1.6.2-2.3Zm-3.5,1.8c.7-.8,1.3-2.1,2.5-2.3h.2c-.2.2-.3.5-.4.7-1,1.3-2,2.7-3.4,3.6-.2.1-.3.2-.5.3.5-.8,1.1-1.6,1.6-2.3Zm-2.1,2.9h.1c1.2.1,2.2-1,2.9-1.8.2-.3,1-1,1.6-1.8-.5,2-.7,4.7.8,6,.5.5,1.2.4,1.8.3.8-.2,1.3-1,1.8-1.6.8-1.1,1.7-2.3,2.2-3.6.2-.1.5-.1.7-.2l.1-.1c0-.1.1-.1.1-.2.1-.1.2-.1.3-.2-.1.4-.1.8-.2,1.2-.3,1.3-.6,2.6-1.2,3.8-.2,0-.4.2-.5.3-1.8,2.2-4.1,4.3-7,4.8-1.1.2-2.2-.1-3.3-.2-1.5-.1-3.5-.5-4.4-1.8.6-.9,1.4-1.3,2.1-2.1.3-.4.6-.9.9-1.3.2-.4.3-.8.5-1.2m11.9-4.7c-.4.3-.8.7-1.3.7-1.4-.3-2.4-1.4-3.5-2.2-.3-.2-.6-.3-.8-.4.3-.6.4-1.3.5-1.6.1-.4.2-.8.2-1.1.2.1.5.2.7.3,1.2.8,2.7,1,4.2,1.2h1.3c0,.7.1,1.5.1,2.2-.5.3-.9.5-1.4.9Zm1.3-4.9v.2c-1,.1-1.9-.2-2.9-.5-.9-.2-1.7-.7-2.6-1,0-1.9.1-3.8-.1-5.7,0-.9-.2-1.8-.4-2.6,1,1.3,2,2.7,3.6,2.9h.7c.6,1.7,1.7,3.2,1.9,5.1,0,.6-.1,1.1-.2,1.6Zm9.9-4.9c.9-2.1.7-4.2,0-6.3,2-1,4.5,0,5.9,1.8.2.6.5,1.2.6,1.7.1.6,0,1.2-.3,1.8-.4.9-.9,1.8-1.3,2.7-.4.1-.8,0-1.2.1-.4.2-.6.5-.8.8-1.1,1.9-1.3,4.2-2.3,6.2-1.3,3.2-3.4,6.3-6.7,7.5-.7.2-1.4.5-2.1.5-.5,0-1,.1-1.4-.2-.3-.3,0-.8,0-1.1v-.4c0-.1.1-.2.1-.3.5-1,.7-2.3.7-3.4.1-.5-.1-.8-.2-1.3v-.2l.1-.1c0-.1.1-.1.1-.2s.1-.2.2-.2h.3c0-.4-.1-.7-.1-1.1.3.5.6,1,1,1.5.5.4,1.1.6,1.8.8h0c3,.6,5-2,5.3-4.8.1-1.3-.4-2.6-.6-3.9v-.1c.3-.5.7-1.1.9-1.8Zm-8.6,5.8v-.2c2.7.4,5.2-.9,7-2.8.5,5.5-2.8,9.7-6.9,3.4.1-.2.1-.3-.1-.4Zm6.9-11.6h0c.4,2.8.6,6.7-1.9,8.6-1.3,1.2-3.2,1.8-4.9,1.5.3-1.5.2-3.3-.8-4.6-.5-.5-.9-1.1-1.4-1.6,2.1-.5,3.8-2.4,5.2-4.1.5-.5.9-1.2,1.2-1.8.5,1.1,1.4,1.8,2.6,2Z"/><path d="m161.32,180.95c-.3-2.4-.6-4.7-1-7.1-.2-2.4-1.1-4.7-2.9-6.4-1.4-1.3-2.9-2.5-4.6-3.4-1.2-.7-2.4-1.5-3.7-1.9-.2-.1-.4-.1-.7-.2-.2-.7-1.4-1-1.9-1.4-.6-.5-1-1.5-1.9-1.4-1,.2-1.6,1-2.3,1.7-.5.3-1,.5-1.6.7-1,.4-2-.1-3,.4-1.2.7-1.5,2.3-1.7,3.5v.2c-.4,0-.8-.1-1.3-.2h0c-.3-.1-.6-.1-.9-.2,0-.3-.3-.6-.4-.8-.2-.6-.1-1.2,0-1.8.1-1.8-1.2-2.1-2.5-2.9-.2-.2-.1-.5-.1-.8,0-.4-.1-.9-.6-1-.8-.2-3.2,1.6-3.7,2h-.1c-.1,0-3.2.4-4.5.5-6.8.1-10.7,2.3-14,8.3-3.3,5.5-5.7,12-5.1,18.5.1,1.6.3,3.2.6,4.8.3,1.5.5,3.1,1.1,4.5.6,1.2,1.6,2.1,2.7,3,.9.6,1.9,1,3,1.3v.2c-.6,4.1-.5,8.3-.6,12.5,0,1.1,0,2.3-.1,3.4,0,1.4-.5,7.2-.5,7.2h0c-2.4,3.8-2.9,9.3.3,12.8,6.4,2.4,15.7,2.1,20.9,2.7,6.9.8,23.6,3.7,27.7-2.5,4.2-6.4,3.3-8.3,1.1-13.7,0-.3.2-5.6.1-7.9-.1-3.9.3-7.8.3-11.7,0-1.7.1-3.4-.3-5,.9-1.6,1.5-3.4,1.7-5.2,1.1-4.2,1-8.4.5-12.7Zm-24-15.9c1.5-4.4,1.8,0,5.8-3.3.5-.4.9-1.1,1.6-1.3.4.3.6.8.9,1.1.3.3.7.5,1.1.7l-.1.1-.6.6h0c-.2.2-.4.4-.7.5-.3.2-.7.4-1,.6-.5.2-.9.5-1.4.7-.7.3-1.5.5-2.2.7s-1.3.2-2,.3c-.6.1-1.2.1-1.8.1.2-.3.4-.6.4-.8Zm-7.7-6c-.4,1,.5,1.9,1.4,2.2.8.3,1.3.7,1.1,1.6h0c-.1.6-.1,1.3.1,1.9-.3-.1-.6-.2-.9-.4-.4-.2-.8-.4-1.2-.7-.3-.2-.8-.5-1.1-.8-.4-.3-.7-.7-1-1-.1-.1-.3-.3-.5-.6-.2-.2-.3-.5-.5-.7-.3-.1,1.8-1,2.6-1.5Zm29.9,70.3c.4,1.9-1.6,8.1-4.9,9-7.1,2-15.4-.1-23-.5-7-.4-16.5-.6-21.1-1.9-1.9-.6-2.4-3.6-2.5-5.5,0-2.1,1.6-4.7,1.7-6.6.3,0,.7-.1.9-.2,3,.7,11.5.2,12.8.7,8-.1,15.9-.3,23.8-.9,2.3-.2,7.8-.2,10.3-.8,0,2.4,1.5,4.4,2,6.7Zm-48.3-28.3c.4.1.8.2,1.2.2h0c2.9,0,5.8-1,8.6-1.8,1-.2,1.9-.4,2.9-.7h0c0,.2.2.3.4.4,1.2.7,2.3,1.5,3.5,2.2,2.4,1.4,4.4,2.8,6.9,4.1,3.9,2,8.1,3.6,12.5,3.7h0c2.2-.1,4-1.6,5.6-3,1.2-1.1,2.6-2.1,3.6-3.3.8-.9,1.5-1.8,2.2-2.8,0,.4-.1.8-.1.9-.6,4.1-.5,8.3-.6,12.5v1.6c-15.5.9-31.5-.1-46.8,1.5v-1c-.1-3.9.3-7.8.3-11.7-.1-1.4,0-1.8-.2-2.8Zm46.6,20.1h-.7c-1.1.1-2.2.1-3.4.2-.1-1.5-.2-4-.2-4.9,1.5,0,2.9,0,4.2-.1v.6c0,.7.1,2.6.1,4.2Zm-5.4.3c-1.4.1-2.8.1-4.1.2-.1-1.4-.2-4-.2-5.1,1.5,0,2.9-.1,4.3-.1-.2,1.3-.1,3.5,0,5Zm-5.4.2c-1.4,0-2.8.1-4.1.1-.1-1.3-.2-3.9-.2-5.1,1.4,0,2.9-.1,4.3-.1-.2,1.4-.1,3.7,0,5.1Zm-5.5.2c-1.4,0-2.8.1-4.2.1-.1-1.2-.2-3.7-.2-5,1.4,0,2.8-.1,4.2-.1,0,1.3.1,3.6.2,5Zm-5.4.1c-1.4,0-2.8,0-4.2.1-.1-1.7-.2-4.1-.2-4.8q0-.1-.1-.1c1.4-.1,2.9-.1,4.3-.2,0,1.4.1,3.7.2,5Zm-5.5.1c-1.4,0-2.8,0-4.1.1-.1-1.6-.2-4.1-.2-4.8,1.4-.1,2.9-.1,4.4-.2,0,.1-.1.1-.1.2-.2,1.1-.1,3.1,0,4.7Zm-5.5,0c-1.4,0-2.8,0-4.1.1-.1-1.5-.2-3.7-.2-4.7,1.3-.1,2.8-.1,4.3-.2-.2,1.2-.1,3.3,0,4.8Zm-5.4.1c-1.4,0-2.8.1-4.1.1-.1-1.4-.2-3.5-.2-4.5,1.2-.1,2.7-.1,4.3-.2-.2,1.2-.1,3.2,0,4.6Zm-8.7-4.2c.6,0,1.7-.1,3.1-.1-.1,1.3,0,3.2.1,4.5-1.1,0-2.2.1-3.3.1,0-1.1.1-2.9.1-4.5Zm49-26c-.2,1.9-.5,3.8-1.4,5.5-1.3,3-3.6,5.5-6.1,7.6-1.1.9-2.2,2.1-3.6,2.6-2.9,1.1-6.1-.5-9-1.2-1.9-.8-3.9-1.5-5.6-2.7-2.3-1.5-4.5-3.3-7-4.4-.3-.1-1.2-.7-2-1,1-.2,2.1-.5,2.9-1.1.5-.5.8-1.2,1-1.9.4-.1.9-.2,1.3-.2,1.5-.2,2.9-1.1,4.5-1.1,1,0,1.9.5,2.9.6,2.3.3,4.5-.6,6.5-1.8.9-.5,1.9-.6,2.7-1.2.7-.6,1.5-1.3,1.5-2.3v-.3c0-.1-.1-.1-.1-.2-.1-.6-.2-1.2-.4-1.7.1-.3.1-.6.2-.9,1.2-4,4.2-7.4,4.5-11.6.1,0,.1-.2,0-.2-.1-.1-.3,0-.3.1-.9,1.3-1.1,3-1.8,4.3-.6,1.2-1,2.4-1.7,3.6-.5.9-1,1.8-1.3,2.7-.3-1.9.2-3.9.2-5.9,0-.2.5-1.5-.1-1.3-1.5,1.5-1.5,3.5-1.3,5.5.1,1.1.2,2.2.3,3.3,0,.4.2.8.3,1.1-.6-.4-1.3-.8-2-1-1.9-.6-3.9-.5-5.8-.6-2.8-.3-5.7-.7-8.5.2,0-.2-.1-.3-.2-.5-.7-.8-1.9-.8-2.9-1-.9-.1-1.8-.3-2.7-.3-1.7,0-3.4-.7-5.2-.8-.3-.8-1.6-2.5-2.5-3.5.1-.1,1.9-6.7,1.4-8.6h0c-.7-.6-1.4,5.2-1.6,6.1-.2-1.3-.9-5.1-1.3-4.1-.1.5.1,1,.1,1.4.2,1.4.4,2.8.6,4.2l-.1-.1c-.9-.8-2-1.8-3.2-1.9-.4-.1-.9-.3-1.2.1-.5.8.3,1.6.8,2.2l.1.1c-.3-.1-1.9-1.1-2.8-1.3-.9-.4-2.4-.4-1.9,1,.1.1.1.2.2.3-.8,0-1.6.9-1.1,1.7.7,1.4,2.2,2.2,3.6,2.5.3.3,1,.2,1.4.3,1.3.1,2.7.2,4,.4,1.8.4,3.6.4,5.4.6.8.2,1.6.3,2.5.4,1.4.1,2.6.1,4,.3.6.1,1.5.1,1.9.6-.5,2-1.5,3.9-1.8,5.9-.3,1.5.3,3.9-1.7,4.3-2.6.6-5.2,1.1-7.7,2-1.9.5-3.9,1.2-5.9,1.4-1.2-.1-2.5-.4-3.6-.9-1.1-.4-1.9-1.2-2.7-2.1-.9-.8-1.2-1.9-1.5-3-1-4.2-1.5-8.6-.9-13h0c.8-6,3.8-11.6,7.7-16,1.9-2,4.5-3,7.1-3.3,2.4-.2,4.8-.3,7.1-.9v.1c.1.3.2.6.3.9.3.7.8,1.3,1.4,1.8.4.3.8.6,1.2.9.4.3.9.5,1.4.8.4.2.9.4,1.4.6.5.2,1,.3,1.5.4,1,.2,2,.4,2.9.5h0c.6,0,1.2.1,1.8.1h1.3c.9-.1,1.9-.2,2.8-.4.5-.1.9-.3,1.4-.4.5-.2.9-.3,1.4-.6.7-.4,1.4-.8,2.1-1.3.4-.3.8-.7,1.1-1.1,0,0,0-.1.1-.1h.1c1.4.3,2.5,1.2,3.6,2,1.3.7,2.4,1.6,3.5,2.4,3.1,2.2,3.5,5.2,3.9,8.7.6,5.2,1.5,10.5.6,15.7Zm-30.7,2.5c.1-1.4,0-2.9.5-4.2.3-1,.6-2,.8-3,0-.1,0-.2.1-.2.4-.1.8-.1,1.2-.1,1.4,0,2.9-.2,4.3-.2,1.3.1,2.7.3,4,.2,3.2,0,5.2.2,7.6,2.4h0c0,.2-.2.4-.3.7-.6,1-1.7,1.5-2.8,1.8-1.4.4-2.5,1.4-4,1.6-1.9.4-3.6-.4-5.4-.6-2.1-.1-4.2.5-6,1.6Zm-18.5-13.5c-.7-.5-1.7-1-2-1.9.9,0,1.8.4,2.6.8.9.3,1.7.8,2.5,1.3.8.8,1.6,1.6,2.5,2.4-.8-.1-1.6-.2-2.5-.3-1-.9-2-1.6-3.1-2.3Zm1.8,2c-.3-.1-.7-.1-1-.1h-.1c-1.2-.3-2.7-.8-3.2-2,.2-.4.8,0,1.3.1.9.8,2,1.3,3,2Zm3.6-.7c-1.2-1.4-2.5-2.7-3.5-4.3,1.9.3,3.3,1.9,4.5,3.3.7.8,1.4,1.6,2.1,2.5-.7-.1-1.3-.2-2-.3-.3-.3-.8-.9-1.1-1.2Z"/><path d="m141.52,143.55c-.1-.2.1-.3.3-.4.2-.1.4-.3.5-.1.1.3-.5.2-.6.4,0,.1-.2.2-.2.1Z"/><path d="m141.52,143.35c-.5-.4.5-.5.8-.5.2,0,.5-.3.7-.1.1-.1.3,0,.2.1-.2.2-.4.2-.6.3-.3.1-.7.2-1.1.2h0Z"/><path d="m143.52,143.65c.1-.1.2-.3.1-.5-.1-.2-.2-.3-.4-.4.1,0,.1-.1.1-.2-.2-.1-.6,0-.8,0s-.5.1-.9.1c-.3-.8-1-1.5-2-2-2.4-1-4.4.4-5.1,2.3-.6-.4-1.3-.2-2,0-.3-.8-.9-1.5-1.9-1.9-5-2.3-8.4,6.2-2.9,7.6,3,.8,5.1-1.9,5.1-4.3.2,0,.4-.1.6-.1s.5,0,.7.1c-.1,1.6.6,3.2,2.6,3.9,2.9.8,5.1-1.6,5.2-4,.5-.2,1-.3,1.5-.4.2.1.3-.1.1-.2.1,0,0,0,0,0Zm-14.1,4.1c-3.9.7-4.5-5.3-1.2-5.8,3.6-.9,5.3,5.2,1.2,5.8Zm8.7-.3c-3.7.2-4.2-5.8-.3-6.1,3.6-.3,4.7,5.9.3,6.1Z"/></g><g id="uuid-f6c4a7ac-1c6b-4b67-a4f4-f541bea4ab90"><path d="m198.92,264.15c0-.6.1-1.1.1-1.6v-.5c.6,0,1.1.1,1.7.1,0,.7.1,1.5.1,2.2-.6-.1-1.2-.2-1.9-.2h0Z"/><path d="m190.82,263.65v-2.2c2.1.1,4.1.3,6.1.4-.1.7-.2,1.5-.3,2.2-2-.2-3.9-.3-5.8-.4h0Z"/><path d="m180.82,262.95h0c0-.8,0-1.5-.1-2.2,2.6.2,5.2.4,7.6.5,0,.7-.1,1.5-.2,2.2-2.4-.1-4.9-.3-7.3-.5h0Z"/><path d="m171.32,262.25c-.1-.8-.2-1.5-.2-2.3,2.5.2,4.9.4,7.3.6,0,.7,0,1.4-.1,2.1v.1c-2.3-.1-4.6-.3-7-.5Z"/><path d="m163.52,261.65c.1-.5.1-1.1.1-1.6v-.7c1.7.1,3.4.3,5.1.4,0,.8,0,1.5.1,2.3-1.8-.1-3.6-.3-5.3-.4h0Z"/><path d="m85.32,252.35c-21.9-3.7-43.9-7.9-64.2-15.3-.1-.3-.1-.6-.2-1-.1-.5-.1-1.1-.2-1.6,33.5,13.1,94.9,20.8,141.3,24.8,0,.2,0,.4-.1.6-.1.5-.2,1.1-.3,1.6-25.6-2.1-51.1-5.1-76.3-9.1Z"/><path d="m19.72,236.55c-.9-.3-1.7-.7-2.6-1-.1-.6-.2-1.2-.2-1.8,0-.3-.1-.6-.1-.9,1,.4,2,.8,3,1.3.1.8.1,1.6.2,2.4v.2c-.1-.2-.2-.2-.3-.2h0Z"/><path d="m13.72,234.05c-.1-.8-.2-1.5-.3-2.3,0-.2,0-.3-.1-.5.8.4,1.7.8,2.5,1.2v.1c0,.6.1,1.2.1,1.7v.8c-.7-.4-1.5-.7-2.2-1h0Z"/><path d="m9.82,232.15c-.1-.7-.3-1.5-.4-2.2-.1-.3-.1-.6-.2-.9.8.5,1.7.9,2.6,1.4v2.6c-.7-.2-1.4-.5-2-.9Z"/><path d="m56.32,185.55c.5-.1,1-.2,1.5-.3v.1c0,.6,0,1.1-.1,1.6-.4.1-.9.2-1.4.3.1-.6.1-1.1,0-1.7h0Z"/><path d="m59.42,186.05c-.1-.4-.1-.8-.2-1.1.6-.1,1.2-.2,1.9-.3v1.7c-.5.1-1,.2-1.6.3-.1-.2-.1-.4-.1-.6Z"/><path d="m62.22,185.85h0c-.1-.4-.1-.8-.2-1.2v-.2c.9-.2,1.8-.3,2.7-.5v1.5c-.8.2-1.6.4-2.5.6v-.2h0Z"/><path d="m65.52,184.55v-.8c3.3-.6,6.4-1,9-1.4,3.1-.5,6.2-.9,9.4-1.4.2,0,.2.2.1.2-6.2,1.1-12.2,2.5-18.3,3.9-.1-.1-.1-.3-.2-.5h0Z"/><path d="m94.36,176.9c-.69.26-1.37.5-2.06.73.1-1.13.29-2.27.09-3.33-.18-.55-1.1-.56-1.33,0-.46,1.27-.66,2.66-.81,4.02,0,0,0,0,0,0-.77.23-1.54.47-2.34.8-.89.31-1.2,1.67-.29,2.19.19.04.29.07.37.19.59.13,1.21.07,1.45-.49.19-.05.39-.11.58-.16-.09.87-.18,1.75-.31,2.58-.11.49-.12,1,.2,1.38.17.14.44.31.64.35.78.18,1.72-.33,1.62-1.27-.03-1.23,0-2.44.05-3.66.99-.29,1.97-.59,2.94-.89,1.54-.47.86-2.88-.78-2.43Z"/><path d="m57.62,254.75c-8.6-1.4-16.7-4.7-25-7.5-2.9-1-5.8-1.9-8.5-3.3-.7-.5-3.9-1.4-2.8-2.6.2-.2.5-.2.7-.2,1.3.5,2.5,1,3.8,1.5,3.9,1.5,8,2.4,11.9,3.8,4,1.3,8,2.6,12.1,3.8,2.7.8,5.5,1.3,8.3,1.9,1.6.3,1.3,2.6-.2,2.6-.1.1-.2.1-.3,0h0Z"/><path d="m479.42,252.75c-.1-.6-.4-1.2-.9-1.5,2-.3,3.9-.5,5.9-.8,0,.3,0,.5.1.8v1.2c-1.7.2-3.4.5-5,.7-.1-.2-.1-.3-.1-.4h0Z"/><path d="m486.62,252.05c0-.4-.1-.8-.1-1.3,0-.2-.1-.4-.1-.6,2.1-.3,4.2-.6,6.3-.9,0,.3,0,.6-.1.9,0,.4,0,.7-.1,1.1-1.9.2-3.9.5-5.9.8h0Z"/><path d="m494.12,249.85v-.9c2.1-.3,4.2-.7,6.2-1v.5c0,.5-.1,1-.1,1.5-2,.3-4,.7-6.1,1v-1.1h0Z"/><path d="m502.12,247.75c2.6-.4,5.3-.9,7.9-1.4v.6-.1c0,.5,0,.9.1,1.4-2.6.5-5.2,1-7.9,1.4,0-.6-.1-1.3-.1-1.9h0Z"/><path d="m511.42,246.05c4.7-.9,9.4-1.8,14.1-2.9,11.6-2.7,23.1-5.7,33.9-10.4,4-1.8,8-3.8,11.3-6.4,19.1-14.7-13.1-26.1-26.4-30.1-16.5-4.8-33.5-8.2-50.6-10.8,0-.1-.2-1.9-.2-2,11,1.7,21.9,3.6,32.7,6,11.8,2.7,23.5,5.8,34.4,10.6,11,4.7,25.1,14,14.3,25.2-3.2,3.2-7.2,5.6-11.4,7.6-7.8,3.7-16.1,6.4-24.5,8.7-9,2.4-18.2,4.4-27.4,6.1,0-.3-.1-.9-.2-1.6h0Z"/><path d="m487.67,184.45c-.03-.65.09-1.26-.1-1.9,1.4.2,4.39.67,4.49.68.34.04.31,2.07.31,2.12-1.6-.5-3.1-.7-4.7-.9h0Z"/><path d="m483.77,183.85c0-.6-.1-1.3-.1-1.9,1,.1,2,.3,3,.4,0,.4,0,1.6-.1,1.8-1,0-1.9-.1-2.8-.3Z"/><path d="m478.37,183.15h0c0-.7,0-1.3-.1-1.9,1.4.2,2.7.4,4.1.5v1.9c-1.4-.2-2.7-.3-4-.5h0Z"/><path d="m472.28,182.45c0-.1,0-1.4-.1-1.9,1.7.2,3.3.4,5,.6,0,.6-.1,1.2-.1,1.9-1.5-.2-3.4-.4-4.8-.6Z"/><path d="m536.62,246.45c-.2-.5.1-1.1.6-1.3,1.4-.6,2.9-1.2,4.3-1.7,6.1-2.4,12.5-3.9,18.5-6.4,3.3-1.4,6.6-3,9.6-5,.7-.4,1.3-.9,2-1.3.4-.2.9-.7,1.2-.2.4,1.4-2.8,3.6-3.7,4.3-6.2,4.5-13.5,6.2-20.5,8.4-2.3.7-4.6,1.4-6.9,2.3-1.3.5-2.7,1-4,1.5h-.3c-.3,0-.7-.2-.8-.6h0Z"/><path d="m468.93,130.65c-.2-.5.1-1.1.6-1.3,1.4-.6,2.9-1.2,4.3-1.7,6.1-2.4,12.5-3.9,18.5-6.4,3.3-1.4,6.6-3,9.6-5,.7-.4,1.3-.9,2-1.3.4-.2.9-.7,1.2-.2.4,1.4-2.8,3.6-3.7,4.3-6.2,4.5-13.5,6.2-20.5,8.4-2.3.7-4.6,1.4-6.9,2.3-1.3.5-2.7,1-4,1.5h-.3c-.3,0-.7-.2-.8-.6h0Z"/><path class="uuid-1b9c9e2a-6dc7-410e-a156-d090c67d7cdd" d="m250.34,133.15c6.16-.17,9.63,8.82,7.35,13.45-.74,1.49-3.53,2.06-5.19,1.89-10.16-1.09-22.99,1.94-31.82-.79-2.58-.8-4.75-2.62-6.03-5-5.52-10.27,9.47-10.72,9.47-10.72,0,0,4.43-11.69,12.72-11.71,10.46-.02,10.7,13.2,13.5,12.88Z"/><path d="m271.42,142.35s.3-1.1.37-1.43c.02-.1.11-.17.21-.17,25.94.2,51.88-.3,77.72-1.6,35.3-1.9,70.9-4.9,105.3-11.6,11.2-2.3,22.2-4.8,32.6-8.8,3.8-1.5,7.7-3.2,10.9-5.4,18.3-12.5-12.6-22.2-25.3-25.6-2.58-.66-5.2-1.28-7.81-1.88l.18-1.67c7.96,1.83,15.86,4.05,23.33,6.85,10.6,4,24.1,11.9,13.7,21.4-3,2.7-6.9,4.7-10.9,6.5-7.4,3.2-15.5,5.4-23.6,7.4-38,8.8-77.7,12.1-117.1,14.3-22.7,1.2-45.5,1.7-68.2,1.7-3.9.1-7.7,0-11.4,0h0Z"/><path d="m190.82,139.25c0-.5-.1-1.1-.1-1.6,1.7.1,3.4.3,5,.4-.1.5-.1,1-.2,1.5,0-.1,0,0,0,.1-1.6-.2-3.2-.3-4.7-.4h0Z"/><path d="m186.22,138.85v-1.6c1,.1,2.1.2,3.1.2v1.6c-1.1,0-2.1-.1-3.1-.2Z"/><path d="m180.02,138.35c0-.5-.1-1.1-.1-1.6,1.7.1,3.3.3,4.9.4,0,.1,0,1.2-.1,1.6-1.6-.1-3.2-.2-4.7-.4h0Z"/><path d="m173.12,137.75v-1.6c1.7.2,3.3.3,4.9.4v1.7c-1.6-.2-3.3-.3-4.9-.5h0Z"/><path d="m166.92,137.15c0-.6-.1-1.1-.1-1.7,1.2.1,2.5.2,3.7.4v1.7c-1.3-.1-2.4-.2-3.6-.4Z"/><path d="m162.92,136.75c.1-.5.2-1.1.3-1.6.6.1,1.1.1,1.7.2,0,.5,0,.9-.1,1.4v.2c-.6,0-1.3-.1-1.9-.2h0Z"/><path d="m127.72,131.75c-14.5-2.7-29-5.8-42.4-11.4-7.9-3.4-19.6-9.7-15.2-18.5,5.5-10.3,32.2-17.3,47-19.9,0,.3,0,.6-.1.9-2.1.5-4.2,1.1-6.3,1.6-10.7,2.8-46,11.6-38.7,24.7,9.2,13.5,51.8,21.5,88.4,25.8-.1.5-.2,1.1-.3,1.6-10.8-1.4-21.6-2.9-32.4-4.8h0Z"/><path d="m204.62,141.65c0-2.8-.5-5.6-.4-8.4-.1-1,1.1-1.2,1.4-.3.4,1.4.5,2.8.8,4.2.2,1.5.8,3.1.5,4.6-.2.6-.6.8-1.1.8-.6,0-1.1-.3-1.2-.9h0Z"/><path d="m201.78,138.72c-1.98-1.83,7.42-3.42,7.42-1.08,0,1.52-1.35,1.13-3.58,1.18-.41.01-3.46.23-3.84-.1Z"/><path d="m269.78,141.24c-.3-.2-.7-.3-1-.3-.4-.05-.83-.08-1.26-.1-.18-1.55-.64-3.03-1.7-2.38-.2.3-.3.7-.3,1-.05.38-.07.79-.1,1.19-.68-.07-1.39-.09-1.94.19-.4.2-.6.6-.6,1.1,0,.8.59,1.02,1.9,1.1.1,0,.26.01.43.01-.05.6-.03,1.21.21,1.7.2.4.6.6,1.1.6.8,0,1.02-.59,1.1-1.9,0-.13.01-.32.02-.54,1.45-.2,2.76-.67,2.15-1.67Z"/><path d="m248.72,131.35c-.4-3.9-2.4-7.8-5.8-9.9-3.6-2.1-8.3-2.4-12.1-.5-3.9,2.2-6.8,6.3-7.4,10.8-2.6-1.1-5.63.24-7.75,1.85-1.98,1.5-2.65,3.96-2.71,6.46-.25,12.29,23.98,9.74,32.45,9.7,5.72-.03,10.73-.63,12.64-2.6,1.49-1.54,2.06-3.3,2.06-5.1-.2-5.2-5.9-11.3-11.4-10.7Zm9.13,11.59c-1.28,6.15-10.5,4.94-23.74,4.84-5.68.03-12.79-.51-16.62-3.51-4.06-3.18-2.51-8.96.94-10.38,3.66-1.51,5.39.51,5.49.56,1,.4,1.9-.6,1.7-1.6.1-4.6,2.9-9.4,7.2-11.2,4.4-1.8,9.9.1,12,4.5.9,1.6,1.4,3.3,1.5,5.1,0,1-.5,2.4.6,3,.7.4,1.4,0,2-.3,5.54-1.01,9.23,6.29,8.93,8.99Z"/><path d="m245.72,364.75c-27-1-54.1-2.6-80.9-5.3.1-.2.1-.3.1-.5.1-.6-.1-1.1-.5-1.6,22.1,2.3,41.6,3.6,53.1,4.2,33.7,1.8,67.5,2.5,101.2,2,.1.7.1,1.3.2,2-7,.1-14,.1-21.1.1-17.4,0-34.8-.3-52.1-.9h0Z"/><path d="m100.92,350.35c.4-.6.8-1.2,1.2-1.8.5.1,1,.2,1.5.3v.1c-.2.6-.3,1.2-.5,1.8-.7-.1-1.4-.3-2.2-.4h0Z"/><path d="m95.22,349.15c.2-.6.3-1.3.5-1.9,1.3.3,2.5.5,3.8.8-.4.6-.8,1.2-1.2,1.8-1-.2-2-.5-3.1-.7h0Z"/><path d="m89.62,347.95c.2-.3.3-.7.5-1s.3-.5.5-.8c1.3.3,2.7.6,4,.9-.2.6-.4,1.3-.6,1.9-1.5-.3-3-.7-4.4-1h0Z"/><path d="m56.12,338.05c-10.3-4.2-25.6-12.1-19.9-23.1,7.8-14,48.5-23.1,66.2-25.6,2.6-.4,5.3-.8,7.9-1.2.1,0,.2.2,0,.2-7.1,1.3-14,3.3-21.1,4.9-14,3.5-60.2,14.5-50.7,30.8,6.7,9.3,26.7,16.5,51.4,22-.1.2-.2.3-.3.5-.2.4-.5.9-.7,1.3-11.1-2.5-22.2-5.6-32.8-9.8h0Z"/><path d="m334.52,365.05c.4-.6.8-1.3,1.3-1.9h1.1v.1c-.1.6-.2,1.3-.3,1.9-.7,0-1.5,0-2.2.1,0-.1.1-.2.1-.2Z"/><path d="m340.22,363.65c0-.2.1-.4.1-.6,1.3,0,2.7-.1,4-.1-.2.7-.5,1.4-.8,2-1.2,0-2.4.1-3.5.1.1-.5.1-1,.2-1.4h0Z"/><path d="m347.32,364.55v.3h-.1l.1-.3h0Z"/><path d="m350.62,364.15c-.1-.5-.2-.9-.3-1.4,2.6-.1,5.3-.2,7.9-.3-.3.7-.6,1.4-.9,2-2.2.1-4.4.2-6.6.3,0-.2,0-.4-.1-.6h0Z"/><path d="m361.92,362.25h.3c0,.1.1.3.1.4l.4,1.1c0,.2.1.3.1.5-.6,0-1.2,0-1.8.1.4-.7.7-1.4.9-2.1Z"/><path d="m366.12,363.15c-.1-.3-.2-.6-.3-.8l-.1-.2c3.6-.2,7.2-.3,10.8-.5.6,0,1.2-.1,1.9-.1-.3.7-.7,1.4-1.1,2.1-3.6.2-7.3.4-10.9.6-.1-.5-.2-.8-.3-1.1h0Z"/><path d="m381.62,362.75s0,.1,0,0c.1.2.1.3.2.5h-.5c.1-.2.2-.3.3-.5Z"/><path d="m384.52,361.05c36.3-2.2,72.6-5.7,108-12.5,0,.1.6-.1.7-.1.2,0,.3-.1.5-.1,0,.7-.1,1.4-.2,2.1-35.4,7-71.8,10.3-108.1,12.6-.3-.7-.6-1.3-.9-2h0Z"/><path d="m511.22,346.15v-1.7c2.2-.5,4.3-1.1,6.4-1.6-.2.4-.5.9-.7,1.3-.3.4-.6.8-.9,1.2h0c-.3.1-.5.1-.7.2-1.4.3-2.7.7-4.1,1,.1-.1.1-.2,0-.4h0Z"/><path d="m522.02,342.15h0v-.4c2.4-.7,4.8-1.5,7.2-2.3-.6.8-1.2,1.6-1.9,2.3-.2.2-.3.4-.5.6-1.6.5-3.2,1-4.9,1.4.1-.5.1-1.1.1-1.6Z"/><path d="m535.92,338.65c-.1-.2-.1-.4-.2-.6-.1-.2-.2-.3-.3-.5-.1-.1-.1-.2-.2-.3,1-.4,2.1-.8,3.1-1.2,4.5-1.9,9-4.1,12.8-6.7,21.5-15.6-14.8-27.7-29.7-31.9-13.4-3.7-27-6.6-40.8-8.9h0c-.1-.4-.1-.9-.1-1.3h0c0-.1.1-.1.1-.2h0l.1-.1c.1-.1.2-.1.2-.2,6.7,1.1,13.4,2.4,20.1,3.8,13.3,2.8,26.5,6.2,38.8,11.2,12.4,5,28.3,14.9,16.1,26.7-3.6,3.4-8.1,5.9-12.8,8.1-2.3,1-4.6,2-7,2.9-.1-.4-.1-.6-.2-.8h0Z"/><path d="m73.32,293.55c.2-1.2,4.3-2.3,5.4-2.8,3.6-1.3,7.3-2.4,11-3.4,2-.6,4-1.2,6-1.8.5-.1,1-.5,1.6-.2s.5,1.3-.1,1.5c-5.6,1.9-11.2,3.5-16.9,4.9-2.2.6-4.4.9-6.5,1.8q0,.1-.1.2c-.1.1-.2.1-.2.1-.1-.1-.2-.2-.2-.3Z"/><path d="m191.32,365.75c-6.6-.6-13.1-1.6-19.6-2.7-1.9-.4-3.9-.3-5.7-1-.3-.1-.5-.5-.3-.8.1-.1.3-.2.4-.1.2.1.5.1.6.1,6.2.2,12.3,1.6,18.4,2.1,2.1.2,4.2.4,6.3.7,1,.2.9,1.8-.1,1.8v-.1Z"/><path d="m541.42,299.45c-7-3.6-14.4-6.5-21.8-9h0c-.5-.1-.5-.8,0-.9s.9.1,1.4.2c5.4,1.4,10.7,3.3,15.9,5.6h-.1c1.8.8,3.6,1.7,5.4,2.5.9.5.4,1.7-.4,1.7-.2,0-.3,0-.4-.1h0Z"/><path d="m352.62,365.85c0-1.3,0-2.7.1-4,0-.5-.1-1,0-1.5.4-.9,1.4-.4,1.6.5.3,1.7.3,3.4.3,5.1,0,.6-.4,1.1-1,1.1-.5-.1-1-.6-1-1.2Z"/><path d="m357.42,363.55v-.4h0q0-.1.1-.1s.1,0,.1.1c.3-.2.5.3.2.4,0,.1-.1.1-.2.1s-.2-.1-.2-.1h0Z"/><path d="m362.12,364.55c-1.4-.3-2-2.1-.2-2.3.6,0,1.4.3,1.5,1,.2.7-.4,1.3-1.1,1.3h-.2Z"/><path d="m335.62,365.55c-.5-.1-.9-.4-1.1-.8-.1-.3-.2-.7-.1-1,.3-.5.9-.9,1.5-.7.6.2,1.4.7,1.2,1.4-.1.6-.6,1.1-1.2,1.1-.1.1-.2.1-.3,0h0Z"/><path d="m344.02,364.75c-.1,0-.1-.1-.1-.1-.2.1-.5,0-.5-.3-.2-.1-.2-.4-.1-.6h-.1c-.1,0-.2,0-.2-.1s0-.1.1-.1h.2s.1-.1.2-.1c.1-.2.3-.2.4,0,0-.1.2-.2.3-.1.5-.4.7,1,.3,1.1,0,.2-.2.3-.3.3-.1,0-.2,0-.2,0Z"/><path d="m381.12,363.45c-1.2-.5-.4-2.6.8-2,1.1.6.8,2.1-.3,2.1-.1,0-.3-.1-.5-.1Z"/><path d="m134.38,359.28v-.02h0v-.03s0,.04,0,.05h0s0,0,0,0Z"/><path d="m134.39,359.2s0-.02,0-.03c0,.02,0,.03,0,.05v-.02h0Z"/><path d="m135.45,369.16c2.23-2.9,3.13-8.31-.1-10.76-1.8.15.26,2.18.29,3.11,1.45,5.19-3.65,10.99-9,9.95-1-.19-1.28,1.37-.27,1.54h0c3.45.68,7.04-1.07,9.09-3.85h0Z"/><path d="m137.14,374.1c.42-.41.71-.95,1.07-1.41q.24-.31,0,0c1.76-3.16,3.43-6.73,3.11-10.43-.05-4.86-4.53-9.6-9.34-6.6-3.16,2.23-1.15,6.3-1.48,9.41-2.53,6-8.58-3.04-7.58-6.55.3-7.49,7.65-12.37,14.74-10.76,4.93,1.38,8.83,5.49,10.42,10.29.58,1.03-.03,3.93,1.23,4.04.43.02.8-.33.81-.75-.22-10.49-12.1-19.11-21.82-13.83-4.82,2.35-7.4,7.88-6.93,13.1.71,3.43,3.02,7.74,6.9,8,7.04-1,1.61-7.96,4.24-11.33,5.15-3.67,8.22,3.73,7.1,8.01-.53,2.16-1.48,4.18-2.41,6.19-.53.66-2.08,3.5-.06,2.66h0Z"/><path d="m144.67,368.72c5.24-8.52-4.5-24.05-14.53-17.85-4.07,2.86-5.52,9.25-3.53,13.65,1.71.61,1.03-1.48.87-2.38-.16-1.13-.18-2.27-.05-3.4,1.3-10.29,12.38-9.75,15.91-1.08,1.15,2.66,1.49,5.69.8,8.51-.28.84-1.27,3.83.53,2.54h0Z"/><path d="m145.31,345.84c-1.78-3.13-6.38-3.92-9.76-4.08-8.93-.17-18.07,6.81-18.51,16.05-.02.43.32.8.75.81,1.36-.16.68-2.14,1.14-3.07,2.41-10.07,15.31-15.35,24.21-10.25-.03-.02,0,0-.08-.04.63.19,1.78,1.47,2.25.58h0Z"/><path d="m136.26,338.4c-1.9-1.79-5.26-1.15-7.65-.79-5.19,1.17-10.09,4.84-11.71,10.03-.3.96,1.2,1.44,1.49.46,1.62-5.1,6.69-8.45,11.81-9.21,1.19-.57,6.26.63,6.06-.5h0Z"/><path d="m131.34,334.75c.46-1.69-4.38-.79-5.31-.51-3.26.93-6.46,2.61-8.67,5.23-.48.69-1.68,2.02-.57,2.65.61.26,1.04-.25,1.21-.79,2.84-4.44,8.48-5.91,13.34-6.59h0Z"/><path class="uuid-420e0400-d109-430e-ba80-c5b2e86f3271" d="m265.66,236.04c.13-6.05-10.88-6.36-9.17,1.39.98,4.45,9,6.31,9.17-1.39Zm9.05,3.8c2.13,25.12-23.6,24.43-30.36,23.21-2.28,1.32-3.4,5.16-4.25,8.1-2.39,2.86-3.79-4.21-9.57-1.7-6.48-8.27-6.24,11.81-12.92,9.29-2.3,1.87-1.97,6.85-7.49,4.18-2.71,8.51-5.07,7.42-18.01,7.62-3.2-14.57,17.42-20.93,38.74-40.55-1.98-34.87,36.26-42.26,43.86-10.15Z"/><path d="m275.02,234.84c-.79-2.44-2-4.81-3.6-6.8,0-.1-.1-.1-.1-.2-9.54-13.86-30.93-10.79-38.8,3.4-3.13,5.64-1.83,9.05-2.24,16.76-.02.39-1.47,2.5-1.74,2.79-8.04,8.41-22.87,18.5-29.72,23.65-6.5,4.89-8.16,9.7-8.1,14.6s9.84,2.28,14.5,2.5c3.96.04,4.32-4.63,5.4-7.5,5.04,1.67,4.84-1.09,7.7-4.1,4.61,3.95,4.27-6.66,8.6-11,1.31-1.32,2.29.39,3.09.99,1.38.86,2.4-.05,3.75-.59.37-.15.79-.12,1.12.11,2.1,1.49,4.29,4.08,6.82,1.41,1.93-2.03.41-5.4,2.74-6.93.29-.19.65-.21.97-.09,17.03,6.93,35.98-11.58,29.61-29Zm-.8,10c-1.27,12.82-16.11,21.8-28,17.2-1.13-.7-2.93.43-3.8,1.3-1.85,1.85-.56,4.92-2.46,6.53-.28.24-.7.24-.99.01-2.38-1.84-4.54-2.97-7.36-1.39-.29.16-.66.14-.9-.1-1.43-1.46-3.84-1.7-5.29-.16-2.7,2.88-3.26,7.44-5.3,10.8-2.8-1.96-4.2,1.47-5.76,3.32-.21.25-.54.37-.87.34-.98-.08-2-.2-2.97-.27-1.12-.08-1.67.58-1.9,1.5-.96,3.92-1.58,5.04-3.45,5.46-2.51.57-8.81.36-11.23.25-.55-.02-.97-.48-.96-1.03.01-.42.04-.88.09-1.13,20.83-15.56,41.21-30.55,41.21-30.55l-1.65-1.48s-15.78,12.18-39.59,30.05c-.38-11.34,40.58-28.25,39.18-39.27.03,0,.06,0,.1.01.02-.48-.12-1.05-.11-1.5-3.53-20.3,22.55-32.13,36.41-17.3,2.32,2.52,4.34,5.8,5.1,9.2.7,2.56.87,5.55.5,8.2Z"/><path d="m261.22,242.24c7.94,0,6.78-12.66-1-11.4-7.06.94-6.34,11.4,1,11.4Zm-.96-9.96c6.47-.87,6.76,8.32.76,8.46-4.55.11-5.87-7.77-.76-8.46Z"/><path d="m254.42,223.14c-6.88-3.99-22.31,8.6-18.5,15.1.5.1,1-.2.9-.8,1.34-7.85,9.06-12.06,16.3-13.4.69-.07,2.83-.22,1.3-.9Z"/><path d="m272.02,243.04c-.29-.25-.63-.61-.9-.26-2.12,4.85-3.91,10.24-8.5,13.56-.7.6-2.2.9-1.7,2,4.61,2.18,13.27-11.08,11.1-15.3Z"/><path class="uuid-420e0400-d109-430e-ba80-c5b2e86f3271" d="m559.85,139.28c-1.26,6.47-21.59,14.13-23.9,12.65-2.77-1.79-4.39-9.13-6.35-19.54-1.03-5.44,16.63-9.88,22.99-10.41,3.69-.3,8.04,13.28,7.26,17.3h0Z"/><path d="m547.74,138.62c2.34-2.46.62-6.49-2.92-6.11-4.07.43-4.54,6.44-.78,7.23-.43,4.67,6.17,2.67,3.7-1.12Z"/><path d="m558.51,128.62c-.94-3.28-2.56-9.04-6.96-8.13-5.64.46-11.16,2.96-16.52,4.8-1.49-5.73-3.9-11.33-4.75-17.19-.67-4.58,1.78-9.15,6.07-10.9,1.62-.66,3.38-.57,5.06-.19.16.04.33.09.48.15,3.17,1.22,4.68,4.36,5.85,7.33.69,1.23.45,4.09,2.45,3.76.65-.18,1.05-.88.87-1.53-2.14-14.27-18.68-18.04-23.11-3.84-1.18,3.78,3.1,18.1,4.81,23.34-5.27,2.47-5.54,5.56-3.64,12.45,1.49,5.38,1.49,13.58,6.52,14.72,4.91.66,9.31-2.33,13.68-4.11,12.53-5.28,14.19-7.41,9.2-20.65h0Zm-6.9,16.71c-3.83,1.29-15.29,9.7-17.45,3.03-1.1-3.41-3.13-9.16-3.55-13.6-.26-2.7,1.23-5.29,3.67-6.46,4.25-2.04,9.28-2.59,13.54-4.62,6.71-2.89,7.43,3.22,9.14,8.06,2.69,7.36,2.79,11.02-5.34,13.6h0Z"/><path d="m526.2,117.32c-1.21-.51-3.39-13.84-.46-11.5.32,3.45,1.36,6.83,2.14,10.21.29.97-.87,1.82-1.68,1.29h0Z"/><path d="m534.95,161.26c-4.46-.4-7.84-3.56-8.7-7.93-.35-1.9-.75-3.96-.16-5.85.12-.29.56-.3.68,0,.27.78.28,1.64.55,2.42.35,1.07.61,2.17.97,3.23.78,1.99,2.06,3.97,4.07,4.89.97.48,2.04.62,3.07.91,1.35.4,1.01,2.33-.31,2.33-.05,0-.11,0-.17-.01h0Z"/><path d="m527.47,163.4c-.83-.25-1.54-.75-2.2-1.3-1.08-.84-2.07-1.83-2.56-3.13-.39-1.04-.91-2.21-.65-3.32.22-.55,1.01-.65,1.36-.17.56,1.04.88,2.24,1.56,3.23.85,1.05,2.01,1.95,3.25,2.47,1.21.5.72,2.26-.42,2.26-.11,0-.22-.01-.34-.05h0Z"/><path class="uuid-420e0400-d109-430e-ba80-c5b2e86f3271" d="m17.86,202.77c-.64-3.31,2.94-14.49,5.98-14.24,5.23.43,19.77,4.08,18.92,8.57-1.62,8.57-2.94,14.61-5.23,16.08-1.9,1.22-18.63-5.08-19.67-10.41h0Z"/><path d="m30.88,203.14c3.09-.65,2.71-5.59-.64-5.95-2.92-.31-4.33,3-2.4,5.03-2.03,3.11,3.4,4.77,3.05.92Z"/><path d="m18.97,194c-4.11,10.89-2.74,12.65,7.57,16.99,3.59,1.46,7.22,3.93,11.26,3.38,4.14-.94,4.14-7.68,5.36-12.11,1.57-5.67,1.35-8.21-2.99-10.24,1.41-4.32,4.93-16.1,3.96-19.21-3.65-11.68-17.26-8.58-19.02,3.16-.15.54.18,1.12.72,1.26,1.65.27,1.44-2.09,2.01-3.1.96-2.45,2.2-5.03,4.81-6.03.13-.05.26-.09.4-.12,1.38-.32,2.83-.39,4.17.15,3.53,1.44,5.54,5.2,4.99,8.97-.71,4.82-2.68,9.43-3.91,14.15-4.41-1.52-8.95-3.58-13.6-3.95-3.63-.75-4.96,4-5.73,6.69h0Zm5.67,13.76c-6.69-2.13-6.61-5.14-4.4-11.19,1.41-3.99,2-9.01,7.52-6.63,3.51,1.67,7.65,2.12,11.14,3.81,2.01.97,3.23,3.1,3.02,5.32-.35,3.66-2.01,8.39-2.92,11.19-1.78,5.49-11.21-1.43-14.36-2.49h0Z"/><path d="m45.55,184.7c-.67.43-1.63-.27-1.38-1.06.64-2.78,1.5-5.56,1.76-8.4,2.42-1.93.62,9.04-.38,9.46h0Z"/><path d="m38.36,220.86s-.09,0-.14,0c-1.09,0-1.37-1.59-.26-1.92.85-.24,1.73-.35,2.53-.75,1.65-.75,2.71-2.38,3.35-4.02.29-.88.51-1.78.8-2.66.23-.64.23-1.35.46-1.99.09-.24.46-.24.56,0,.48,1.56.16,3.25-.13,4.81-.71,3.6-3.49,6.2-7.16,6.53h0Z"/><path d="m44.51,222.62c-.1.03-.19.04-.28.04-.94,0-1.35-1.45-.35-1.86,1.02-.43,1.98-1.17,2.68-2.04.56-.82.82-1.8,1.28-2.66.29-.39.94-.31,1.12.14.21.91-.22,1.88-.54,2.73-.4,1.07-1.22,1.89-2.11,2.57-.54.45-1.12.86-1.81,1.07h0Z"/></g></svg>