<?xml version="1.0" encoding="UTF-8"?><svg id="uuid-298513e3-a22f-451d-8311-da6ae13429c1" xmlns="http://www.w3.org/2000/svg" xmlns:xlink="http://www.w3.org/1999/xlink" viewBox="0 0 486 364"><defs><style>.uuid-6293b7d8-ac45-413d-86b8-def72d8a9e78{fill:none;}.uuid-646aa53d-6268-4b3b-b0f3-cdb5c7bf024d{fill:#0079d0;}.uuid-09721887-a4f6-46c1-aa06-1c060b1c8548{fill:#eaf5ff;}.uuid-776f60c7-9976-4d91-823b-8aa076322325{fill:#fff;}.uuid-5ca2f582-49ac-4714-ad32-b520051f25b0{fill:#fdc82e;}.uuid-7da3b67e-6d99-4ab7-8928-7088d745439f{fill:#adddff;}.uuid-7832a0e0-1ab2-49f2-ba60-0ad28a97aa2e{fill:#a8a7b6;}.uuid-bc9ad140-10db-41df-9c68-70cf3048e6d0{clip-path:url(#uuid-37069b00-8bde-44da-acad-b6c5e5071b27);}</style><clipPath id="uuid-37069b00-8bde-44da-acad-b6c5e5071b27"><rect class="uuid-6293b7d8-ac45-413d-86b8-def72d8a9e78" width="486" height="364"/></clipPath></defs><g class="uuid-bc9ad140-10db-41df-9c68-70cf3048e6d0"><path class="uuid-09721887-a4f6-46c1-aa06-1c060b1c8548" d="m483.77,182.97c11.71,36.59-17.57,62.32-46.18,68.22-33.91,7-69.96-.88-103.46,10.56-36.01,11.23-63.91,39.16-104.25,42.8-57.91,5.23-91.71-12.73-141.69-31.04C49.27,263.33-5.58,267.67-.02,209.92c4.92-51.06,77.27-53.57,116.05-79.27,38.79-25.72,77.72-64.1,129.7-65.25,50.54-1.12,82.63,39.97,122.32,63.17,38.07,19.5,93.83,10.01,115.72,54.4h0Z"/><path class="uuid-646aa53d-6268-4b3b-b0f3-cdb5c7bf024d" d="m304.36,115.05c.47,20.75-.46,78.46-.46,78.46-59.25.73-192.48.23-192.48.23,1.21-27.05.16-58.99.27-88.02,0-1.73,2.72-4.43,4.44-4.43,3.48,0,143.73-.68,183.36-.59,5.38.01,4.75,9.54,4.86,14.35Z"/><path class="uuid-7832a0e0-1ab2-49f2-ba60-0ad28a97aa2e" d="m184.44,223.82c-.17-.02-.1.07-.03.17.01-.05.02-.11.03-.17Zm32.49-1.95c7.71-.12-13.41-.31-25.43-.3-.68,0-.72,1.03-.03,1.07,7.9.41,17.63-1.38,25.41-.77h.05Zm87.15-27.91c.24.03.43.21.46.46,1.08,8.01.14,24.99-1.99,25.47-19.56,4.43-56.69,1.97-72.21,2.24-.32,0-.56.3-.52.62.49,3.12,1.82,16.75,5.17,19.84.98.9,4.3.89,7.32.84.98-.02,2,2.63.68,2.61-16.09-.28-36.89,0-53.89,0-4.76,0-24.79,1.55-16.93-2.66.04-.02.09-.04.13-.05,3.34-.85,9.19,1.57,9.83-3.46,0-.03.01-.07.03-.11,2.41-6.53,2.3-14.74,1.82-17.24-.05-.26-.28-.45-.55-.44-7.03.34-55.56.81-65.62.49-.15,0-6.13-4.21-6.13-4.37-.31-26.61-1.19-24.28-.26-24.45.02,0,184.16-.76,192.65.22h0Z"/><path d="m143.23,100.6c-.07,0-.15-.02-.22-.04-.01,0-.03,0-.04-.01.52,0,1.04.01,1.56.02-.34,0-.67,0-1,.02-.07,0-.14.01-.2.01-.03,0-.06,0-.09,0Z"/><path d="m140.54,100.51c.48,0,.97.02,1.45.03-.07,0-.14,0-.21,0-.14,0-.29,0-.43.02-.12,0-.24.02-.36.02-.16,0-.31-.02-.45-.07h0Z"/><path d="m206.54,212.32c-.39-.05-.77-.18-1.13-.33-.75-.31-1.37-.84-1.84-1.49-.24-.32-.44-.68-.57-1.06-.15-.43-.24-.88-.26-1.34-.02-.48.06-.97.22-1.43.17-.51.42-.99.77-1.41.66-.77,1.55-1.33,2.55-1.53.96-.19,1.99-.08,2.88.33.83.38,1.5,1.05,1.93,1.86.25.48.42,1,.5,1.54.08.53.04,1.09-.08,1.61-.11.49-.31.96-.59,1.38-.25.37-.55.68-.9.95-.24.18-.5.32-.77.43-.1.04-.2.08-.3.11-.33.15-.67.25-1.03.32-.27.05-.54.08-.81.08-.18,0-.36-.01-.55-.04h0Zm1.04-.95c.12-.01.24-.03.36-.05.15-.04.3-.08.45-.13.05-.02.11-.04.16-.06.05-.03.11-.07.16-.1.13-.09.25-.18.36-.28.12-.11.23-.22.34-.34.12-.14.24-.29.35-.45.08-.13.16-.26.24-.39.06-.13.12-.26.17-.39.04-.13.08-.27.11-.4.03-.14.04-.29.06-.43,0-.13,0-.26,0-.39-.01-.15-.03-.3-.06-.46-.03-.11-.06-.22-.09-.33-.04-.12-.09-.24-.15-.36-.06-.12-.13-.23-.2-.34-.07-.1-.15-.2-.23-.3-.08-.09-.17-.18-.26-.27-.12-.11-.25-.21-.38-.3-.13-.09-.27-.16-.41-.24-.13-.06-.26-.12-.4-.17-.12-.04-.23-.07-.34-.1-.13-.02-.25-.04-.38-.05-.11,0-.22,0-.34,0-.12.01-.24.03-.36.05-.13.03-.26.07-.39.11-.13.05-.25.1-.37.16-.12.06-.23.13-.34.2-.1.07-.2.15-.29.23-.09.08-.18.17-.27.26-.09.1-.17.2-.24.31-.09.13-.17.26-.24.4-.07.14-.13.28-.18.42-.03.09-.06.19-.08.29-.04.21-.07.43-.08.64,0,.12,0,.25,0,.37.01.14.03.28.06.42.03.16.08.32.13.48.04.11.09.22.14.33.05.1.11.2.17.3.07.1.14.2.22.29.09.1.2.2.3.3.11.1.24.19.36.28.11.07.22.14.34.2.1.05.2.09.31.13.13.04.25.07.38.1.17.03.33.06.5.07.15,0,.29.01.44,0h0Z"/><path class="uuid-09721887-a4f6-46c1-aa06-1c060b1c8548" d="m209.04,120.41c-2.57-22.41,4.9-1.2,13.31-8.05-1.97,3.73-2.25,6.33-3.46,7.23-3.09,2.31-6.49-2.79-9.85.82h0Z"/><path class="uuid-7da3b67e-6d99-4ab7-8928-7088d745439f" d="m225.97,174.62c3.54,9.77-36.46,8.19-35.63-.24.43-4.32,4.44-39.18,5.71-48.62l4.87.13c.25,1.27-.36,4.53-.21,5.85,0,0,4.16.47,4.41-.3.64-1.95.82-5.92.82-5.92,3.02-.86,5.35.04,5.35.04l.28,5.71c.8,1.08,3.29.83,5.09-.04l.23-5.76,4.82-.5c.92,4.55,4.33,38.79,4.26,49.64h0Z"/><path d="m224.8,111.28c-.05-.12-.19-.18-.32-.13-.15.06-.3.13-.45.21-.07-.03-.15-.04-.25-.03-3.85.66-4.41,4.02-8.51.82-1.6-1.05-3.08-2.7-5.14-2.63-.51.01-1.04.2-1.39.59-.3-.1-.67.12-.66.48-.09,2.47.07,4.94.22,7.41.1,1.8.17,3.6.22,5.4.05.6-.04,1.25.17,1.82.48.4.4-.82.44-1.09.03-.61.04-1.22.05-1.84.04-2.73-.12-5.46-.16-8.2,0-.88,0-1.76.02-2.64-.03-.31.1-.69.02-.99.61-.29,1.3-.24,1.93-.01,1.06.35,1.88,1.14,2.75,1.82,1.09.84,2.19,1.75,3.51,2.18,1.58.52,3.02-.33,4.37-1.1-.58.82-1,1.78-1.24,2.74-.38,1.77-.37,2.35-2.07,3.28-2.76,1.42-4.02-1.32-6.46-.91-.8.13-1.65.47-2.15,1.15-.1.15-.2.31-.22.49-.03.17.19.29.32.18.43-.49,1.01-.76,1.64-.88.5-.09,1.03-.14,1.51.06.76.26,1.39.78,2.13,1.07.54.21,1.11.3,1.69.33,1.36.01,2.59-.84,3.45-1.83.63-.79.66-1.86.85-2.81.19-.9.55-1.77,1.05-2.55.26-.39.57-.73.92-1.04.31-.12.63-.23.97-.33.28-.08.38-.33.35-.55.11-.06.22-.11.33-.16.12-.06.18-.19.13-.32h0Z"/><path d="m221.9,126.06c-.28-.07-.35-.39-.5-.6-.39-.47.45-.85.56-.15.07-.03.14.05.07.1,0,.16.08.31.1.46,0,.12-.12.22-.24.19h0Z"/><path d="m226.67,173.86c-.4-15.77-2.07-31.5-3.92-47.17-.29-1.78-.61-2.67-2.61-2.23-6.01.31-3.13,2.38-4.12,6.76-.07,0-.13.03-.19.08-1.15.05-2.85.63-3.78-.22-.2-1.8.21-3.45-.03-5.25-.11-1.19-.99-1.18-1.5-1.12-7.79-.31-4.47,1.17-6.03,6.65-1.06.03-2.11-.09-3.16-.16.09-1.8.36-3.81.02-5.62-.4-.94-2.03-.36-2.85-.39-.71.23-2.99-.35-3.06.61-2.09,14.92-4.22,29.85-5.47,44.88-4.02,14.08,24.77,11.18,32.54,9.37,2.15-.5,2.02-.81,3.06-1.45,1.67-1.03.93-3.19,1.09-4.75h0Zm-1.39,3.7c-6.03,3.97-30.08,4.46-34.37-1.96-.1-.15-.14-.33-.13-.51,1.03-16.22,3.47-32.33,5.22-48.47.03-.27.26-.46.53-.44,1.15.08,2.28.02,3.43-.04.27-.01.5.19.52.46.1,1.71-.66,3.62-.04,5.22.05.14.18.24.32.28,1.18.33,3.23.56,4.3.12.07-.03.13-.07.18-.13.74-.93,1.1-4.3.89-5.77-.04-.26.14-.5.39-.55,1.4-.29,2.95-.18,4.37-.16.08,0,.15.02.22.06.03.02.07.03.1.04-.08,5.18-1.43,7.62,5.08,6.43.12-.02.24-.09.31-.18,1.18-1.6.12-4.09.55-5.93.24-.85,2.45-.56,3.61-.57.24,0,.46.17.5.41,3.12,16.79,3.87,34.21,4.23,51.28,0,.17-.07.33-.21.42h0Z"/><path class="uuid-5ca2f582-49ac-4714-ad32-b520051f25b0" d="m451.61,151.33s.04-.08.08-.08.08.04.08.08-.04.08-.08.08-.08-.04-.08-.08Z"/><path class="uuid-5ca2f582-49ac-4714-ad32-b520051f25b0" d="m452.16,152.1s.03-.07.07-.07.07.03.07.07-.03.07-.07.07-.07-.03-.07-.07Z"/><path class="uuid-5ca2f582-49ac-4714-ad32-b520051f25b0" d="m451.9,151.33s.04-.08.08-.08.08.04.08.08-.04.08-.08.08-.08-.04-.08-.08Z"/><path class="uuid-5ca2f582-49ac-4714-ad32-b520051f25b0" d="m452.44,152.1s.03-.07.07-.07.07.03.07.07-.03.07-.07.07-.07-.03-.07-.07Z"/><path d="m162.07,220.26c.02-.32.03-.65.04-.96,0-.1,0-.21,0-.31.33.02.66.04.98.06.03.43.05.86.08,1.29-.37-.02-.75-.04-1.12-.07Z"/><path d="m157.31,219.97c.01-.43.02-.86.03-1.29,1.23.08,2.41.15,3.54.22-.05.43-.1.85-.16,1.27-1.13-.07-2.27-.14-3.4-.21h0Z"/><path d="m151.49,219.58v-.04c0-.42-.02-.85-.04-1.27,1.53.11,3.01.22,4.43.32-.03.43-.06.86-.09,1.28-1.43-.1-2.87-.19-4.3-.29h0Z"/><path d="m146,219.17c-.05-.44-.1-.88-.14-1.33,1.45.11,2.87.22,4.25.33-.01.42-.02.83-.04,1.25,0,.02,0,.04,0,.06-1.36-.1-2.71-.2-4.06-.31Z"/><path d="m141.4,218.8c.04-.31.07-.62.08-.93,0-.13,0-.26.01-.39,1.01.09,2,.17,2.98.25,0,.44.02.88.03,1.32-1.04-.08-2.07-.17-3.11-.25h0Z"/><path d="m95.85,213.35c-12.75-2.15-25.56-4.63-37.4-8.96-.1-.49-.16-.99-.22-1.49,19.55,7.69,55.29,12.16,82.33,14.51-.04.44-.11.88-.2,1.31-14.93-1.27-29.79-2.99-44.51-5.36h0Z"/><path d="m57.61,204.07c-.5-.19-1.01-.4-1.53-.61-.05-.35-.09-.7-.14-1.05-.02-.17-.05-.34-.07-.51.57.25,1.16.5,1.76.74.04.46.08.93.14,1.4,0,.03,0,.06.01.09-.06-.02-.11-.04-.17-.06Z"/><path d="m54.1,202.62c-.06-.44-.12-.89-.17-1.33-.01-.1-.02-.2-.03-.29.48.23.97.47,1.49.7v.03c.02.34.03.68.05,1.02,0,.15,0,.3.01.45-.44-.19-.89-.38-1.34-.59h0Z"/><path d="m51.83,201.54c-.08-.43-.16-.86-.25-1.29-.04-.18-.08-.35-.12-.53.48.28.99.55,1.52.82.01.38.02.76.02,1.14v.43c-.39-.18-.78-.38-1.17-.57Z"/><path d="m49.89,200.48c-.03-.58-.06-1.16-.08-1.75,0,0,0-.02,0-.03.31.21.64.41.97.61.02.18.04.37.06.56.03.38.05.76.07,1.14v.05c-.35-.19-.69-.38-1.03-.58h0Z"/><path d="m78.96,174.21c.3-.06.59-.12.89-.18,0,.34-.02.68-.04,1.02-.25.06-.51.12-.79.18-.02-.34-.04-.69-.06-1.03h0Z"/><path d="m80.75,174.53c-.03-.22-.06-.44-.1-.66.36-.07.73-.14,1.08-.21,0,.32-.02.64-.03.96-.3.07-.61.13-.91.2-.01-.1-.02-.2-.04-.29Z"/><path d="m82.4,174.39s0,.03,0,.05v-.05s-.01,0-.01,0c-.05-.27-.09-.55-.13-.82.54-.1,1.08-.2,1.6-.29,0,.29,0,.57,0,.86-.48.11-.96.22-1.44.33v-.07s-.01,0-.01,0Z"/><path d="m84.34,173.64c-.01-.15-.02-.29-.03-.44,14.64-2.2,12.81-2.08.07.82-.01-.12-.02-.25-.04-.38Z"/><path d="m171.55,219.67s0,0,0-.01c0,.01.01.03.02.04,0,0-.01-.02-.02-.03h0Z"/><path d="m171.48,219.55s.02.04.03.05c-.01-.02-.02-.03-.03-.05Z"/><path d="m327.78,216.51c-.04-.43-.34-.85-.73-1.02,1.53-.18,3.06-.35,4.59-.54.02.18.03.36.04.54.01.24,0,.48,0,.73,0,.02,0,.04,0,.07-1.3.16-2.6.31-3.9.46,0-.07,0-.15,0-.22h0Z"/><path d="m333.37,216.03c-.02-.29-.05-.58-.09-.87-.02-.13-.04-.27-.07-.4,1.63-.2,3.26-.41,4.89-.64-.02.21-.04.41-.05.61-.02.25-.04.49-.05.74-1.54.21-3.08.41-4.62.6,0-.01,0-.03,0-.04h0Z"/><path d="m339.19,214.56c0-.2,0-.4-.01-.59,1.62-.22,3.23-.45,4.84-.69,0,.11,0,.22-.01.33-.02.34-.04.68-.06,1.02-1.57.23-3.14.45-4.72.67-.02-.25-.03-.49-.04-.74Z"/><path d="m345.4,213.07c2.05-.31,4.09-.63,6.14-.97.01.14.02.29.03.43v-.04c.01.31.03.62.04.93-2.03.34-4.06.66-6.1.97-.05-.44-.08-.88-.11-1.32h0Z"/><path d="m352.63,211.93c3.66-.61,7.3-1.27,10.93-1.98,9.05-1.83,17.97-3.94,26.35-7.15,3.1-1.21,6.2-2.64,8.79-4.39,14.81-10.16-10.16-18.02-20.5-20.78-12.83-3.33-25.98-5.67-39.28-7.46v-.13c0-.09-.01-.18-.02-.27-.01-.15-.03-.3-.05-.45-.02-.12-.04-.23-.07-.35-.01-.04-.02-.08-.03-.12,8.54,1.15,17.03,2.51,25.43,4.17,9.13,1.86,18.23,4.01,26.7,7.29,8.53,3.25,19.5,9.67,11.08,17.38-2.46,2.19-5.59,3.84-8.84,5.25-6.02,2.58-12.51,4.43-19.06,6.03-7.02,1.63-14.12,3.04-21.27,4.25-.05-.43-.1-.87-.16-1.3h0Z"/><path d="m334.88,169.65c-.02-.43-.03-.88-.08-1.31,1.17.14,2.38.32,3.52.46.07.14.09.3.12.46,0,0,0-.02,0-.03.02.16.04.31.05.47v-.03.27-.03c0,.07,0,.13,0,.2-1.19-.16-2.39-.31-3.59-.46h0Z"/><path d="m331.79,169.27c-.03-.44-.07-.88-.1-1.31.77.09,1.54.19,2.31.28.01.43-.02.86-.07,1.29-.71-.09-1.43-.18-2.14-.26h0Z"/><path d="m327.58,168.79c-.02-.44-.04-.88-.05-1.31,1.06.12,2.12.24,3.18.37,0,.43-.02.87-.04,1.3-1.03-.12-2.06-.24-3.08-.35Z"/><path d="m323.19,168.31c-.09-.46-.23-.91-.38-1.36,1.28.14,2.57.28,3.85.42-.04.43-.07.87-.11,1.3-1.12-.12-2.24-.24-3.36-.36Z"/><path d="m318.84,167.87c-.02-.44-.02-.88,0-1.32.91.09,1.82.18,2.72.28.11.44.19.89.25,1.34-.99-.1-1.98-.2-2.97-.3h0Z"/><path d="m312.8,167.29c0-.43.12-.89.03-1.32,1.67.16,3.33.31,4.99.48-.09.43-.14.87-.17,1.3-1.62-.16-3.23-.31-4.85-.46Z"/><path d="m204.29,148.91c.09-.29.18-.57.26-.86,0-.02.01-.05.02-.07,15.14.12,30.28-.2,45.39-.96,20.6-1.12,41.31-2.89,61.35-6.79,6.52-1.32,12.95-2.84,18.99-5.15,2.24-.87,4.47-1.9,6.33-3.16,10.67-7.32-7.32-12.98-14.77-14.97-2.86-.74-5.74-1.42-8.64-2.03,0-.21-.01-.41-.03-.62-.01-.12-.03-.25-.05-.38,6.11,1.27,12.18,2.77,17.85,4.97,6.15,2.34,14.05,6.97,7.98,12.52-1.77,1.58-4.03,2.77-6.37,3.78-4.34,1.86-9.02,3.19-13.73,4.35-22.14,5.15-45.29,7.08-68.27,8.39-13.23.69-26.49,1.02-39.75,1.02-2.19,0-4.37,0-6.56-.03h0Z"/><path d="m201.28,148.88c-.15-.32-.32-.63-.49-.94.25,0,.5,0,.75,0-.05.2-.11.4-.17.6-.03.11-.06.22-.09.32h0Z"/><path d="m160.18,146.35c-.95-.07-1.92-.14-2.93-.21.03.31.05.63.07.95.91.07,1.83.13,2.74.19,0-.05.01-.11.02-.16,0,.04-.01.08-.01.12.04-.29.08-.59.12-.88Z"/><path d="m154.63,145.93c0,.32.01.63.02.95.59.05,1.17.09,1.76.13,0-.31,0-.63,0-.94-.59-.05-1.18-.09-1.78-.14h0Z"/><path d="m151.02,146.59c.91.08,1.82.15,2.73.22.01-.23.03-.46.04-.69,0-.08,0-.17.01-.25-.93-.07-1.89-.15-2.86-.24.03.32.06.64.08.96Z"/><path d="m149.88,145.53c-.95-.08-1.91-.17-2.88-.26v.97c.96.09,1.92.17,2.88.26,0-.27,0-.53,0-.79,0-.06,0-.11,0-.17h0Z"/><path d="m143.4,145.89c.69.07,1.38.14,2.07.2,0-.15,0-.3.01-.45,0-.17,0-.34.01-.51-.71-.07-1.42-.14-2.14-.21.02.32.03.65.05.97Z"/><path d="m141.09,145.65c.37.04.74.08,1.11.12,0-.05,0-.09,0-.14.01-.27.02-.55.04-.82-.33-.04-.66-.07-.99-.1-.05.32-.11.63-.16.95h0Z"/><path d="m82.16,129.41c-4.73-7.64,18.2-12.81,25.16-14.45,1.38-.29,2.74-.61,4.11-.93.01-.17.03-.34.05-.51-9.62,1.53-26.97,5.63-30.53,11.65-2.86,5.17,4.77,8.86,9.88,10.83,8.7,3.26,18.15,5.1,27.56,6.68,6.98,1.12,14,2.05,21.06,2.81.07-.31.13-.63.19-.95-23.81-2.55-51.5-7.21-57.47-15.13h0Z"/><path d="m115.11,113.04s.08.08.12.13c-.03,0-.06.01-.1.02,0-.05-.02-.1-.03-.15Z"/><path d="m187.65,292.66c-20.65-.71-41.33-1.86-61.87-3.82-.36-.04-.64-.32-.68-.68-.01-.15-.04-.31-.07-.46-.05-.22.13-.42.34-.4,16.86,1.63,31.72,2.57,40.48,2.99,26.26,1.34,78.79,1.46,78.92,1.46s.38.55.15.88c-.23.32-10.86.69-16.98.69-13.44,0-26.87-.22-40.3-.65h0Z"/><path d="m103.38,285.35v-.02h0v-.04s0,.04,0,.06h0s0,0,0,0Z"/><path d="m103.38,285.26s0-.02,0-.03c0,.02,0,.04,0,.05v-.02h0Z"/><path d="m75.81,282.12c.32-.43.64-.85.97-1.28.39.07.78.14,1.17.21,0,.03-.02.05-.02.08-.13.43-.26.87-.39,1.3-.58-.1-1.15-.21-1.72-.31h0Z"/><path d="m71.37,281.29c.13-.46.26-.92.38-1.38.98.19,1.97.38,2.96.56-.31.43-.62.86-.93,1.28-.81-.15-1.61-.31-2.41-.46h0Z"/><path d="m67.01,280.4c.13-.25.26-.5.4-.74.12-.19.24-.38.36-.57,1.02.21,2.05.42,3.09.63-.14.46-.28.92-.44,1.37-1.14-.23-2.28-.46-3.42-.7h0Z"/><path d="m41.14,273.17c-44.88-17.63,15.98-32.31,35.81-35.52,3.62-.59,5.65-1.07,6.15-.78-42.94,7.47-93.03,25.2-15.75,42.14-.26.43-.52.86-.73,1.31-8.74-1.85-17.32-4.1-25.49-7.16h0Z"/><path d="m260.69,291.83c.02-.14.04-.27.07-.41,1.04-.03,2.08-.06,3.13-.09-.19.5-.4.99-.63,1.48-.91.03-1.82.05-2.72.08.05-.35.11-.7.16-1.05h0Z"/><path d="m268.73,292.53c-.04-.22-.09-.44-.13-.66-.03-.14.08-.27.22-.28,1.83-.06,3.65-.13,5.48-.2.17,0,.29.17.22.33-.15.34-.31.68-.47,1.01-.04.08-.12.13-.2.13-1.32.05-3.83.05-4.73,0-.19,0-.35-.15-.38-.34h0Z"/><path d="m280.7,291.5c-.08-.2-.14-.41-.21-.61-.02-.05-.04-.11-.06-.17,2.79-.12,5.57-.25,8.36-.39.49-.03.97-.05,1.45-.08-.26.5-.53,1.01-.82,1.5-2.81.14-5.63.28-8.44.4-.09-.22-.18-.43-.27-.65h0Z"/><path d="m294.92,289.99c27.12-1.59,80.66-8.78,84.15-9.26.1-.01.17.06.17.16-.02.39-.06.77-.1,1.16-.01.09-.08.17-.18.18-27.3,5.07-55.38,7.47-83.35,9.16-.24-.46-.47-.93-.7-1.4Z"/><path d="m384.67,280.24c-.06-.18-.11-.36-.17-.53,1.79-.36,3.59-.74,5.37-1.13-.11.24-.24.47-.36.71-.15.27-.31.53-.49.78-.05.07-.11.14-.16.2-1.3.27-2.59.54-3.89.8-.1-.28-.2-.55-.3-.83Z"/><path d="m392.86,279.09c-.01-.36,0-.71,0-1.07,0-.04,0-.08.02-.11,1.67-.38,3.33-.78,4.98-1.2-.17.31-.36.62-.55.93-.21.3-.43.6-.67.88,0,0-.01.02-.02.02-.19.05-.39.1-.58.14-1.05.24-2.1.48-3.16.72-.01-.1-.02-.2-.03-.3h0Z"/><path d="m401.2,276.14v.02c0-.11,0-.22,0-.33,1.88-.52,3.75-1.06,5.6-1.64-.48.57-.96,1.13-1.44,1.7-.12.14-.25.28-.37.41-1.25.37-2.51.72-3.77,1.05-.02-.4-.02-.81-.02-1.21h0Z"/><path d="m411.94,273.63c-.05-.14-.09-.28-.15-.42-.06-.13-.13-.26-.21-.38-.05-.07-.1-.14-.16-.2.81-.29,1.61-.59,2.42-.89,3.48-1.36,6.95-2.96,9.86-4.92,16.61-11.4-11.4-20.21-22.99-23.31-10.33-2.69-20.86-4.8-31.49-6.52,0,0,0,0,0-.01-.05-.33-.08-.65-.07-.98,0-.01,0-.03,0-.04,0-.01,0-.02.01-.04.02-.04.04-.09.07-.13,0,0,0-.01.01-.02.02-.02.03-.03.05-.05.06-.05.12-.1.18-.16,5.2.83,10.38,1.75,15.52,2.77,10.24,2.08,20.45,4.5,29.95,8.18,9.57,3.65,21.87,10.85,12.42,19.49-2.76,2.45-6.27,4.3-9.91,5.89-1.76.76-3.56,1.46-5.38,2.11-.03-.13-.06-.26-.1-.39h0Z"/><path d="m104.57,296.33c2.47-3.22,3.46-9.23-.11-11.95-1.99.16.28,2.42.32,3.46,1.6,5.77-4.03,12.22-9.95,11.06-1.1-.21-1.41,1.52-.3,1.71,3.82.75,7.79-1.19,10.05-4.28Z"/><path d="m106.43,301.82c.46-.46.78-1.06,1.19-1.57,1.94-3.51,3.79-7.48,3.44-11.59-.05-5.4-5-10.67-10.32-7.33-3.5,2.48-1.27,7-1.64,10.45-2.79,6.67-9.49-3.38-8.38-7.28.33-8.32,8.46-13.74,16.29-11.96,5.45,1.53,9.76,6.1,11.52,11.43.64,1.14-.04,4.37,1.36,4.49.47.02.88-.36.9-.84-.24-11.66-13.38-21.24-24.12-15.36-5.33,2.61-8.18,8.76-7.66,14.55.78,3.81,3.34,8.6,7.63,8.89,7.78-1.11,1.78-8.85,4.69-12.59,5.69-4.08,9.08,4.14,7.84,8.9-.58,2.4-1.63,4.64-2.66,6.87-.58.74-2.3,3.89-.07,2.95h0Z"/><path d="m120,287.64s-.09-.05-.14-.02c-.04.03-.06.09-.02.14.03.04.09.05.14.02.04-.03.06-.09.02-.14Z"/><path d="m114.75,295.84c5.79-9.47-4.98-26.72-16.06-19.84-4.5,3.18-6.1,10.28-3.91,15.16,1.89.67,1.14-1.64.96-2.64-.17-1.25-.2-2.52-.05-3.78,1.44-11.43,13.69-10.84,17.58-1.2,1.27,2.95,1.65,6.32.89,9.46-.31.94-1.4,4.25.59,2.82h0Z"/><path d="m115.46,270.42c-1.97-3.48-7.05-4.35-10.79-4.54-9.87-.19-19.97,7.57-20.46,17.84-.02.47.36.89.83.9,1.5-.18.75-2.38,1.26-3.41,2.67-11.19,16.93-17.06,26.76-11.4-.03-.02,0,0-.08-.04.7.22,1.97,1.63,2.49.65h0Z"/><path d="m105.45,262.15c-2.1-1.99-5.82-1.28-8.46-.87-5.73,1.3-11.15,5.38-12.95,11.15-.34,1.07,1.33,1.6,1.65.52,1.79-5.67,7.39-9.39,13.05-10.24,1.32-.63,6.92.7,6.7-.55h0Z"/><path d="m100.02,258.09c.51-1.88-4.84-.88-5.87-.56-3.6,1.03-7.14,2.9-9.58,5.81-.53.77-1.85,2.24-.63,2.95.67.29,1.15-.28,1.33-.88,3.14-4.93,9.37-6.57,14.75-7.32Z"/><path d="m278.68,76.56s-.06-.03-.09-.01c-.03.02-.03.06-.01.09s.06.03.09.01c.03-.02.04-.06.01-.09Z"/><path d="m270.2,77.3c.02-.76-1.18-3.97-1.96-2.4,1.31,2.28,1.17,5.2-.77,7.12-1.22,1.29-3.07,2.08-4.85,1.72-.7-.13-.9.97-.19,1.09,4.21.83,8.29-3.33,7.77-7.53h0Z"/><path d="m279.17,75.96c-.48-5.39-5.42-10.47-10.91-10.38-5.98.1-10.97,6.03-8.93,11.91.78,2.79,4.74,6.2,6.85,2.72,1.16-2.3-1.73-6.99,2.32-7.22,3.7.18,3.93,5.31,2.78,7.97-.49,1.55-1.52,2.9-1.98,4.43.41.99,1.18-.38,1.48-.8,6.33-9.94-2.59-16.67-5.56-10.33-.68,1.96,1.19,4.61-.64,6.09-2.31.97-3.85-2.12-4.46-3.92-.38-1.74.08-3.61.7-5.23,3.01-5.71,11.07-5.82,14.8-.8,1.41,1.71,2.44,3.84,2.45,6.09.21,1.15,1.43.39,1.09-.54h0Z"/><path d="m275.33,73.35c-4.56-9.91-16.15-4.17-12.73,5.46,1.62.39.3-2.05.52-2.88-.4-4.2,3.75-8.47,7.81-5.98,3.37,1.94,4.92,6.32,4.03,10.04-.05.65-.86,1.71-.06,2.03,2.28-1.82,1.45-6.24.43-8.67h0Z"/><path d="m261,66.58c3.66-3.01,9.1-3.74,13.25-1.39-.02-.01,0,0-.05-.03,4.17,2.22-.46-2.87-5.3-2.48-6.29-.12-12.74,4.83-13.05,11.38-.01.3.23.56.53.58.96-.11.48-1.52.81-2.18.55-2.34,1.97-4.38,3.81-5.88h0Z"/><path d="m256.11,67.54c.91.16.81-1.2,1.25-1.72.61-1.13,1.4-2.02,2.37-2.82,2.42-1.98,5.63-2.78,8.7-2.37.32.03.99.16.97-.34-3.46-2.2-8.63.05-11.34,2.74-.71.8-3.17,3.67-1.95,4.51h0Z"/><path d="m256.41,62.66c1.82-3.38,6.05-4.44,9.53-4.95.35-.5-.52-.61-.85-.66-2.78-.19-5.54,1.08-7.72,2.74-.7.7-2.69,2.16-1.69,3.15.27.12.62,0,.73-.28h0Z"/><path class="uuid-776f60c7-9976-4d91-823b-8aa076322325" d="m428.53,185.64c.68,10-21.27,1.92-24.11-3.18-1.76-2.05,1.29-7.67,4.08-5.52,4.25-4.6,14.12-7.89,13.03,1.83-.19.85-.58,1.98.7,2.05,3.09-.66,5.76,1.55,6.3,4.82Z"/><path class="uuid-7da3b67e-6d99-4ab7-8928-7088d745439f" d="m376.17,147.15c-.98,5.02-16.67,10.96-18.45,9.81-2.14-1.39-3.39-7.08-4.9-15.16-.79-4.23,12.84-7.67,17.74-8.07,2.85-.23,6.21,10.3,5.61,13.43h0Z"/><path class="uuid-09721887-a4f6-46c1-aa06-1c060b1c8548" d="m193.22,143.91c2.3.34,4.49,4.35,2.84,7.58-1.37,2.67-22.07,1.24-23.03-.72-2.94-2.64-2.45-7.73,3.57-7.28,1.45-2.04,2.71-8.32,7.72-7.39,7.31.93,4.15,8.33,8.9,7.81Z"/><path class="uuid-776f60c7-9976-4d91-823b-8aa076322325" d="m70.26,180.91c1.62,2.65-.23,8.51-1.57,11.59-3.26,6.09-13-2.04-15.69-4.1-3.08-1.99,1.46-9.88,2.61-12.94-.28-1.79,14.04,3.68,14.65,5.44h0Z"/><path d="m366.82,146.64c1.81-1.91.48-5.04-2.25-4.74-3.14.34-3.51,4.99-.6,5.61-.33,3.62,4.76,2.07,2.86-.87Z"/><path d="m375.14,138.88c-.72-2.54-1.97-7.01-5.38-6.31-4.35.35-8.61,2.3-12.75,3.73-1.15-4.45-3.01-8.79-3.67-13.34-.52-3.55,1.37-7.1,4.68-8.46,1.25-.52,2.61-.44,3.91-.14.13.03.25.07.37.11,2.45.95,3.61,3.38,4.51,5.69.54.95.34,3.17,1.89,2.92.51-.14.81-.68.67-1.19-1.65-11.07-14.42-14-17.84-2.98-.91,2.93,2.39,14.04,3.71,18.11-4.07,1.91-4.27,4.31-2.81,9.66,1.15,4.18,1.15,10.54,5.03,11.42,3.79.51,7.19-1.81,10.56-3.19,9.67-4.1,10.95-5.75,7.1-16.02h0Zm-5.33,12.97c-2.96,1-11.8,7.53-13.47,2.35-.85-2.64-2.42-7.1-2.74-10.55-.2-2.09.95-4.1,2.83-5.01,3.28-1.58,7.16-2.01,10.45-3.59,5.18-2.24,5.74,2.5,7.05,6.25,2.08,5.71,2.15,8.55-4.12,10.55h0Z"/><path d="m350.2,130.12c-.94-.4-2.62-10.74-.35-8.92.25,2.68,1.05,5.3,1.65,7.92.23.75-.67,1.41-1.3,1h0Z"/><path d="m356.95,164.21c-3.44-.31-6.05-2.76-6.72-6.15-.27-1.48-.58-3.07-.13-4.54.09-.23.43-.23.52,0,.21.61.21,1.27.43,1.88.27.83.47,1.68.75,2.51.6,1.55,1.59,3.08,3.14,3.79.75.38,1.58.48,2.37.71,1.04.31.78,1.81-.24,1.81-.04,0-.08,0-.13,0h0Z"/><path d="m351.18,165.87c-.64-.2-1.19-.58-1.69-1.01-.83-.65-1.6-1.42-1.98-2.43-.3-.8-.7-1.71-.51-2.57.17-.43.78-.5,1.05-.13.43.81.68,1.74,1.2,2.51.66.82,1.55,1.51,2.51,1.92.94.39.56,1.76-.33,1.76-.08,0-.17-.01-.26-.04h0Z"/><path d="m61.16,182.02c-1.26-.08-2.07.41-2.48,1.69-.25.8.03,1.7.57,2.32-.09.12-.15.24-.17.39-.18.36-.26.77-.1,1.15.23.56.78,1.01,1.39,1.01.07,0,.14,0,.22-.02.87-.18,1.2-1.04,1.09-1.8,2.45-.52,2.22-4.57-.51-4.75h0Z"/><path d="m69.03,177.9c1.13-3.45,1.95-7,2.65-10.58.49-1.52,1-3.18.49-4.76-2.06-6.62-11.43-8.27-13.86-.9-.55,1.09-.88,2.26-1.23,3.43-.12.43.14.89.57,1.01,1.3.21,1.15-1.66,1.6-2.47.78-2,1.79-4.33,3.97-5.08,3.34-.89,7.22,2.03,7.62,5.4-.18,4.6-2.15,8.92-3.3,13.34-3.5-1.22-7.1-2.85-10.78-3.16-2.88-.59-3.94,3.18-4.55,5.34-.95,2.91-2.98,7.4-.54,10,1.81,1.78,4.42,2.25,6.54,3.55,2.85,1.17,5.73,3.14,8.93,2.7,3.31-.79,3.14-6.92,4.26-9.66,1.18-4.53,1.3-6.43-2.38-8.16h0Zm.12,10.46c-.81,1.93-.42,6.26-3.4,5.77-3.23-.5-6.08-2.39-9.03-3.69-2.66-1.12-5.29-1.92-4.44-5.44.67-2.78,1.42-5.65,2.77-8.15,1.87-2.67,5.39.33,7.79.68,1.65.53,3.36.92,4.94,1.64,4.6,1.02,1.97,5.99,1.36,9.2h0Z"/><path d="m73.31,172.05c.79-.39,2.23-9.01.3-7.55-.21,2.27-.89,4.48-1.4,6.7-.19.64.56,1.2,1.1.85h0Z"/><path d="m67.6,200.89c2.91-.26,5.12-2.33,5.68-5.2.08-.37.33-1.78.31-2.8,0-.52-.75-.59-.87-.09-.54,2.31-1.17,4.88-3.43,5.97-.63.32-1.34.4-2,.6-.94.28-.6,1.65.31,1.52h0Z"/><path d="m72.48,202.29c1.53-.28,2.18-2.03,2.45-3.42.07-.39-.44-.6-.66-.27-.58.89-1.41,1.92-2.29,2.24-.9.38-.34,1.73.5,1.45h0Z"/><path d="m213.48,217.37s-.01,0-.02.01c0,0,.01,0,.02-.01Z"/><path d="m214.28,215.77s.02-.03.03-.04c0,.02-.01.04-.02.05,0,0,0,0,0,0h0Z"/><path d="m193.32,209.53s0,.01.01.02c0,0,0-.01-.01-.02Z"/><path d="m200.15,222.98s.01,0,.02.01c0,0-.01,0-.02-.01Z"/><path d="m100.27,167.3c-.38.25-.76.5-1.15.74-.06-.6-.3-2.98-1.12-1.75h0c-.1.8-.02,1.6.07,2.39-2.83,1.14-1.23,2.49-.1,1.61.08-.06.18-.1.27-.14.19.73-.09,1.7.45,2.28.53.44,1.36-.12,1.16-.78-.15-.73-.29-1.42-.44-2.14.54-.3,1.07-.61,1.61-.91.85-.51.09-1.8-.76-1.3h0Z"/><path d="m167.72,146.03c-.1-.35-.47-.57-.82-.47-.08.02-.27.08-.52.16-.15-.77-.23-1.57-.42-2.33-.18-.54-.87-.41-.81.16-.03.86.03,1.71.09,2.57-1.17.45-2.37,1.07-1.58,1.51.18.05.36-.03.53-.07.11,0,.23,0,.29-.09.28-.09.56-.16.84-.22.03.41.04.82.05,1.23.11.72,1.13.79,1.32.09.13-.51.05-1.03-.05-1.55.58-.1,1.25-.29,1.09-.99h0Z"/><path d="m202.04,149.55c-.23-.55.02-3.6-1.05-2.94h0c-.14.15-.15.38-.17.58-.02.27-.04.54-.06.8-.59.16-1.2.34-1.66.75-.48.3-.48,1.18.15,1.27.29.04.57-.2.56-.49.22-.14.54-.18.86-.2-.03.34-.03.69.13.99.5.83,1.73.08,1.24-.75h0Z"/><path d="m311.43,114.86c-.11-.71-.21-1.42-.36-2.12-.05-.36-.25-1.03-.72-.73-.17.14-.16.36-.17.55,0,.4,0,.8.02,1.2-.52.11-1.1.02-1.59.25-.71.39-.33,1.26.37,1.33.1.01.71,0,1.24-.17.22.63,1.3.48,1.21-.32h0Z"/><path d="m320.66,143.29c.02-.86,11.55-5.77,14.32-7.1.38-.18.88-.3,1.19-.03,1.14,1-15.54,8.31-15.51,7.13h0Z"/><path d="m79.71,214.78c-5.03-.81-9.76-2.77-14.57-4.38-1.68-.57-3.37-1.11-4.97-1.91-.44-.29-2.24-.84-1.62-1.52.1-.1.27-.14.39-.09.74.28,1.47.61,2.2.88,2.28.85,4.65,1.43,6.95,2.21,2.35.74,4.67,1.54,7.04,2.23,1.59.45,3.21.75,4.82,1.1.96.2.72,1.63-.26,1.48h0Z"/><path d="m54.42,240.67c.17-.91,3.31-1.66,4.19-2.04,2.79-.92,5.66-1.72,8.47-2.52,1.96-.4,3.91-1.39,5.87-1.5.47.22.42.97-.08,1.12-5.89,2.11-12.11,3.1-18.06,4.87-.21.04-.38.32-.4.07h0Z"/><path d="m145.6,293.41c-6.54-.66-13.11-1.51-19.56-2.73-.11-.05-.21-.14-.25-.25-.07-.16.07-.34.25-.34,4.89,0,9.93,1.18,14.87,1.55,1.62.16,3.25.33,4.86.5.82.12.67,1.38-.17,1.28h0Z"/><path d="m235.29,295.4s-.04,0-.06,0c-.06,0-.13-.01-.16-.07-.12-.35.49-.29.7-.36,3.41-.59,6.89-.32,10.31-.71,1.17-.16,2.34-.37,3.5-.56.3-.05.59.18.63.48.04.3-.18.59-.48.64-.88.13-1.76.25-2.64.37-2.24.33-4.51.12-6.76.1-1.69-.05-3.38.05-5.06.11h.02,0Z"/><path d="m372.2,212.18c-.12-.36.08-.74.43-.87,1.11-.41,2.22-.8,3.32-1.2,4.73-1.68,9.67-2.66,14.38-4.41,2.59-.94,5.09-2.1,7.48-3.47.52-.29,1.04-.59,1.56-.88.28-.13.67-.5.91-.16.27.98-2.15,2.49-2.86,3-4.8,3.08-10.5,4.26-15.92,5.81-1.79.49-3.57.99-5.33,1.58-1.04.34-2.07.68-3.1,1.02-.35.12-.74-.07-.87-.43h0Z"/><path d="m416.15,244.99c-5.44-2.62-11.11-4.72-16.86-6.54h0c-.36-.05-.37-.61,0-.67.36-.07.73.04,1.08.11,4.18,1.02,8.28,2.43,12.26,4.07-.02,0-.05-.02-.07-.03,1.4.58,2.78,1.23,4.16,1.86.77.39.22,1.55-.57,1.2h0Z"/><path d="m270.64,293.84c-.01-.98-.04-3.68.08-4.03.34-.67,1.12-.29,1.21.34.19,1.22.21,2.46.23,3.69,0,.42-.34.77-.76.77s-.76-.35-.76-.77h0Z"/><path d="m277.61,292.5c-1.08-.18-1.52-1.56-.18-1.71.49,0,1.08.22,1.2.75.15.58-.46,1.09-1.01.96Z"/><path d="m257.17,293.27c-.35-.06-.71-.27-.86-.6-.07-.23-.12-.51-.05-.75.21-.39.71-.63,1.14-.5.46.11,1.11.49.92,1.05-.13.52-.6.91-1.15.8h0Z"/><path d="m292.3,291.69c-.89-.38-.32-1.91.58-1.46.97.51.49,1.88-.58,1.46Z"/><path d="m191.23,142.55c-1.04-9.42-13.58-8.76-14.79.24-6.6-1.24-8.14,5.65-3.02,9.1.38.54,1.22.49,1.82.6,6.1.59,12.21.5,18.3,1.07,7.72-.18,3.81-11.7-2.3-11h0Zm4.92,6.79c-.24,3.82-4.77,2.37-7.34,2.5-4.11-.02-8.21-.47-12.31-.45-1.72,0-3.33-.94-4.08-2.5-.49-1.02-.76-2.11-.47-3,.54-1.78,3.33-2.57,4.81-1.51.59.24,1.08-.35.99-.92-.12-6.12,7.91-9.89,11.17-3.88,1.31,1.82.34,4.25,1.23,4.71.39.22.79-.03,1.14-.2,2.58-.31,5,2.82,4.86,5.26Z"/><path d="m428.16,182.14c-1.38-1.9-3.82-2.23-6-2.22,2.27-10.56-8.98-10.56-13.33-3.58-.13.25-.52,1.2.05,1.07.07.03.14-.03.11-.1,2.04-2.93,5.4-4.49,8.95-4.24,2.09,0,2.72,2.47,2.83,4.18.18,1.2-.54,2.37-.32,3.53,1,1.92,5.32-.86,7.27,3.89,1.32,5.63-5.29,5.86-8.99,4.44h0c-5.18-1.35-12.44-3.01-14.19-8.8-.2-1.88,1.58-3.89,3.52-3.31-.08.3-.39,1.13.11.42,1.01-.94-.67-1.55-1.46-1.49-2.5.12-4.21,2.88-3.63,5.24,2.38,6.35,10.52,7.84,16.3,9.9,6.25,2.23,13.59-2.87,8.79-8.94h0Z"/><path d="m418.25,193.81c-.28-.04-2.18-.57-2.74-1.06-.17-.15-.02-.43.2-.38.89.23,1.79.46,2.71.54.63.11.44,1.05-.18.9h0Z"/><path d="m305.27,181.74c-.15-19.48-.26-38.96-.26-58.43,0-6.07,3.64-23.57-5.87-23.57-50.72,0-101.45,0-152.16.88h.04c-.81-.01-1.62-.02-2.43-.03h0c-5.84-.05-11.68-.32-17.52-.24h0c-23.3-1.28-15.34,4.52-16.66,24.02-.6,28.52-.77,57.05-.77,85.59,0,18.16,13.87,13.44,24.79,13.62,7.15-.04,26.01-.04,48.73-.11-1.01,6.15-1.08,12.52-3.3,18.41-1.59.61-9.13-.04-9.62.95-.49.99-.77,2.43-.13,3.5.64,1.07,5,.85,6.93.82,5.82-.1,11.64-.13,17.46-.05,16.49-.12,33.19-.87,49.58-.58,1.25.02-.25-3.73-2.33-3.89-1.84-.15-3.7-.22-5.55-.22-.54,0-1.03-.29-1.28-.77-2.99-5.74-3.4-12.1-4.66-18.41,172.62-3.41-72.38-2.19-110.78-1.88h0c-6.35,0-7.74-8.35-7.74-8.33.03-1.19.12-8.4.22-18.68,63.71.56,127.48-.13,191.2.32-.42,7.13-.18,14.08.17,20.55-.36,5.74-2.14,4.58-6.54,5.6-.74.69.76,1.04,1.22,1.3,2.8.35,7.04-.29,6.88-3.97.73-12.07.23-24.26.37-36.37h0Zm-75.85,46.57c.73,5.12,1.35,11.03,4.84,15.06.87.62,6.75.17,7.85.55.38.34.56.85.76,1.32-23.83-.3-47.69.23-71.52.34.19-.64.19-1.01.26-1.83,1.25.46,8.99.63,9.86-1.23,2.77-5.88,3.32-12.65,3.46-19.08,14.1-.05,29.25-.11,43.98-.24-.16,1.59.35,3.98.49,5.11h0Zm73.6-41.72c.16,1.96.19,4.01.18,6.1-63.73.38-127.49-.37-191.21.14.24-24.4.56-64.49.52-84.19-1.82-8.61,6.18-5.3,11.62-5.66,11.1,0,22.2-.26,33.3-.24h-.02c42.82-.47,85.63-.59,128.44-1.14,21.79-1.28,17.13.47,17.15,19.81-.35,21.73.05,43.45.01,65.18h0Z"/><path d="m219.91,157.98c2.35-2.7-.52-7.12-3.92-6.04-3.27.79-3.74,5.77-.51,6.95-.17.9-5.14,7.89-.25,8.07,7.65.86,4.56-3.9,3.83-8.23.32-.21.6-.47.84-.76h0Z"/><path class="uuid-7da3b67e-6d99-4ab7-8928-7088d745439f" d="m254.69,241.89c-.13-9.11-.79-19.26-.59-28.86.25-12.2-4.54-36.57,2.97-37.6,33.3-1.52,72.55-.44,104.02-.81,1.33-.02,2.47.92,2.7,2.24,1.98,11.35-.08,54.19-.04,65.41-31.55.2-105.24.91-109.06-.38h0Z"/><path class="uuid-7832a0e0-1ab2-49f2-ba60-0ad28a97aa2e" d="m381.71,271.14c-5.09-7.95-17.26-27.94-17.32-28.47-33.96.13-75.96.82-109.47.27-28.92,43.04-21.27,31.96,23.86,32.23,26.24.16,52.44.35,78.92.32,19.53-.75,23.38,4.35,24.02-4.34Z"/><path class="uuid-646aa53d-6268-4b3b-b0f3-cdb5c7bf024d" d="m308.86,189.39c-.64-1.87-.33-5.68,0-7.69,3.61-1.13,4.81,4.87,9.6,2.31-1.94,10.93-6.09,1.83-9.6,5.39Z"/><path class="uuid-09721887-a4f6-46c1-aa06-1c060b1c8548" d="m321.87,232.16c.8,4.6-25.73,5.45-26.99-1.49-.18-1.01,1.1-16.18,2.84-26.69,1.16-6.98.82-10.14,1.54-10.21.95-.09,2.63-.53,3.35.04l.34,4.39,2.89.16c-.07-1.56.65-4.59.65-4.59l4.32-.49c-.36,2.18.56,4.86.56,4.86,0,0,2.39,1.02,3.19-.29.48-.78.33-3.69.41-4.25,0,0,3.37-1.41,3.74-.07,1.77,6.26,3.24,37.67,3.18,38.62h0Z"/><path d="m322.54,230.35c-.15-9.38-1.21-18.73-2.06-28.07-.5-3.05-.35-6.32-1.37-9.26-.42-.49-1.24-.17-1.81-.2-4.41.08-2.43,1.99-3.13,5.14-3.85,1.19-2.57-1.71-3.09-4.25.29-.75-.79-.83-1.95-.75.08-.81-.15-2.94.41-3.39,1.58-1.82,3.3.48,5.08.45,4.15.1,2.86-4.18,4.99-6.23.08-.07.16-.14.25-.2.38-.26,1.04-.83.37-.91-1.95-.23-3.01,1.62-4.28,1.66-2.26-.13-4.93-4.54-7.44-2.66-.09.07-.16.17-.2.29-.57,1.88-.24,9.67.3,11.03-.77.07-1.5.18-1.79.17-2.02.48-.48,3.49-1.43,4.91-.7,0-1.41-.08-2.11-.12-.04-2.32,1.28-5.52-2.43-4.56-.63.18-2.11-.3-2.33.46-1.07,7.83-2.3,15.63-3.05,23.51-.07,2.48-1.46,8.95-1.3,12.78.06,1.49.85,2.86,2.12,3.63,4.88,2.97,11.34,2.26,16.86,2.22,3.71-.54,9.69.1,9.37-5.63h0Zm-13.57-46.55c.07-1.47.62-1.89,1.06-1.78,2.78.7,4.6,4.92,8.18,2.45-1.14,1.51-.45,3.52-2.39,4.38-2.18,1.16-4.57-2.29-6.84.13-.03-1.39-.09-3.54-.01-5.18h0Zm1.83,9.97h0s0,0,0,0Zm8.09,40.28c-5.89,1.79-16.55,2.01-21.64-.94-1.25-.72-1.96-2.11-1.86-3.56.84-11.85,2.61-23.62,3.89-35.42,1.02.05,2.02.02,3.03-.03.42,1.36-1.26,4.67.96,4.67,2.63.47,3.65.08,3.61-2.79-.05-.64.31-1.5-.03-2.06,1.11-.31,2.51-.31,3.65-.15.18,1.66-1.13,5.12,1.54,5.03,2.22.21,3.53.18,3.24-2.49-.32-2.89.09-2.81,2.79-2.75,2.29,12.13,2.93,24.72,3.23,37.09.04,1.55-.94,2.95-2.42,3.39h0Z"/><path d="m317.41,218.21c.24-.29.41-.62.52-.98.11-.34.14-.71.12-1.07,0-.03,0-.07-.01-.11v-.13c-.03-.13-.06-.25-.11-.38-.05-.15-.1-.3-.17-.45-.08-.16-.17-.32-.29-.46-.12-.15-.25-.29-.39-.42-.43-.37-.97-.62-1.54-.69-.16-.02-.32-.02-.49-.01-.31-.01-.61.01-.91.1-.33.1-.64.24-.92.45-.29.22-.54.48-.73.78-.18.29-.3.6-.38.93-.02.1-.04.19-.05.29-.03.33-.01.67.07,1,.09.34.24.67.45.96.19.25.43.47.7.63.15.09.31.15.48.19-.28.78-.6,1.55-.94,2.31-.21.54-.4,1.1-.63,1.63-.13.39-.35.85-.29,1.26.02.07.07.11.12.13.19.58.8.9,1.53.86h.15s.09,0,.14,0h.18c.24,0,.48,0,.72,0,.96,0,1.93-.03,2.68-.68.53-.56.27-1.41.13-2.07-.2-.88-.39-1.76-.65-2.62-.04-.29-.09-.59-.15-.88.24-.16.46-.35.64-.58h0Z"/><path d="m322.01,268c-.28-1.5-.53-2.94-.99-4.41-.24-2.07-1.56-1.26-3.12-1.43-3.81.08-7.62.1-11.44.12-2.89.05-5.8,0-8.69.13-.52.19-.42.88-.58,1.31-.35,1.56-.89,3.08-1.17,4.65.08.69.94.43,1.42.44,4.97-.03,9.93-.07,14.9-.07,9.03,0,9.99.56,9.67-.75h0Zm-24.65-.04c.42-1.52.74-3.08,1.18-4.59,6.77-.32,13.85-.1,20.63-.16.4,0,.76.27.85.67.26,1.16.34,2.31.66,3.44.08.27-.12.54-.4.53-.54-.01-15.82.12-22.93.1Z"/><path d="m380.42,268.36c-.86-1.31-1.65-2.72-2.58-3.99-2.56-3.88-4.53-8.12-7.02-12.04-1.21-1.84-2.45-3.67-3.53-5.6-.79-1.23-1.32-2.62-2.34-3.7-.02-.02-.05-.05-.07-.08.02-.03.04-.06.05-.09.03-.06.03-.12.04-.19.02-.13.02-.26.02-.39,0-.14,0-.28,0-.42,0-.42,0-.83,0-1.25,0-1.12.01-2.23.02-3.35.01-1.27.02-2.54.02-3.81s-.02-2.42-.03-3.64c-.01-1.33-.02-2.67-.02-4,0-1.35-.03-2.71-.04-4.06-.01-2.72-.02-5.44-.02-8.15,0-1.31,0-2.62,0-3.93s0-2.49,0-3.74,0-2.59,0-3.88,0-2.46-.01-3.7c0-1.21-.01-2.41-.03-3.62-.01-1.12-.02-2.24-.02-3.37,0-1.26,0-2.52,0-3.77s0-2.53-.03-3.79c0-.61-.01-1.21-.05-1.82-.03-.57-.06-1.14-.09-1.71-.03-.61-.06-1.21-.1-1.82-.01-.27-.03-.54-.06-.8,0-.35.01-.69.02-1.05.04-.8-.6-1.42-1.26-1.76-.93-.38-2.08-.45-3.12-.44-.32,0-.64,0-.94.02-1.15-.1-2.32-.17-3.48-.16-.48,0-.95,0-1.43.04-1.18.09-2.35.15-3.53.25h-.05c-2.14-.02-4.28.04-6.42.07-3.36-.13-6.71-.11-10.08-.15-1.75,0-3.52-.06-5.28-.06-1.08,0-2.16.01-3.23.07-.51.03-1.02.04-1.53.04-1.29,0-2.57-.05-3.85-.04-.33,0-.65,0-.98,0-.87.02-1.75.03-2.62.03-1.79,0-3.58-.02-5.37-.03-.9,0-1.8,0-2.7.01-3.49,0-6.97.16-10.46.15-1.19,0-2.38-.04-3.56-.11-2.11-.09-4.22-.11-6.33-.1-3.51,0-7.02.08-10.53.07-2.11,0-4.21.1-6.32.1-.7,0-1.39-.01-2.09-.04-2.16-.05-4.31-.11-6.47-.11-.6-.04-1.23-.06-1.86-.05-2.68-.01-5.51.48-7.24,2.69-1.57,2.06-1.53,4.79-1.51,7.26,0,1.82-.23,3.63-.21,5.46-.06,2.49.04,4.96,0,7.45.1,3.92.47,7.83.66,11.74.18,3.95-.1,7.9-.01,11.85.13,6.07.36,12.15.61,18.22.04.98.23,1.97.15,2.94-.61,1.43-1.41,2.78-2.12,4.17-1.7,2.95-3.56,5.85-5.39,8.73-2.38,3.66-4.15,7.67-6.26,11.48-.85,1.58-1.59,3.21-2.51,4.74-.79,1.34.2,2.83.97,3.93,1.29,1.21,3.05,1.3,4.11,1.35,3.31.15,6.52-.03,9.83-.18,4.87-.2,9.77.18,14.64.01,6.44-.18,12.87-.48,19.32-.33,3.37-.11,6.74-.09,10.12.05,3.54.07,7.07.29,10.61.35,4.14.08,8.28-.06,12.42-.05,2.57-.05,5.13.13,7.7.16,3.16-.02,6.33-.07,9.5-.05,3.44-.09,6.87.07,10.31-.06,1.94-.04,3.88-.13,5.83-.12,1.29.03,2.57.1,3.86.03,3.6-.08,7.21.2,10.81.31,3.25.02,6.49.29,9.74.4.87.02,1.79.12,2.62-.14.11-.07.21-.14.3-.22.3-.19.59-.55.78-.74.68-.78,1.61-1.43,1.96-2.43.49-2.03-1.23-3.52-2.26-5.04h0Zm-126.58-80.64c.14-1.51.22-3.03.25-4.55-.09-2.99.55-6.22,3.83-7.06.86-.23,1.74-.3,2.63-.31.79,0,1.58.03,2.37.05,1.19,0,2.37.02,3.55.04,1.71.07,3.42.09,5.14.08,2.73,0,5.45-.05,8.18-.04.33,0,.67,0,1,0,2.26,0,4.54-.13,6.81-.15h.81c3.2.02,6.42.09,9.64.22h.29c8.09-.08,16.17-.29,24.26-.3.4.01.79.02,1.19.02,2.41.01,4.82-.18,7.24-.16,3.33.02,6.67-.16,10.01-.18.41,0,.81,0,1.22,0,.31,0,.61,0,.92,0,1.98,0,3.96-.16,5.94-.23.5,0,1.01-.01,1.51-.04,1.42.02,2.85.04,4.27.03,1.62,0,3.25.1,4.88.11h.29c.1,0,.19,0,.28,0,.35,0,.69.02,1.06.09.6.06,1.3-.03,1.71.52.41.4.27,1,.29,1.51.06,1.26.09,2.52.25,3.78.05.37.09.75.11,1.12,0,.05,0,.11,0,.16-.02.63-.02,1.25-.03,1.88-.03,2.53,0,5.06,0,7.59v1.68c0,.52,0,1.03-.01,1.54,0,1.26,0,2.51-.01,3.77,0,2.52.01,5.05.03,7.57.02,2.55.03,5.11.04,7.66,0,1.35.01,2.71.01,4.06s0,2.72,0,4.08c0,1.36-.01,2.71-.02,4.07,0,1.33,0,2.65,0,3.98,0,1.19-.02,2.38-.01,3.57,0,.66,0,1.32.01,1.98,0,.6.02,1.2.03,1.8.01,1.1.02,2.2.04,3.3,0,.37,0,.75.01,1.12v.07c-.16,0-.31,0-.46-.01-.22,0-.44,0-.67,0-.76-.01-1.52-.01-2.29-.01h-3.18c-1.04,0-2.07-.01-3.1-.01-1.98,0-3.95-.02-5.92-.02-2.21,0-4.42.01-6.63,0-4.08-.01-8.17,0-12.26-.01-1.99,0-3.97.02-5.96.03-2.19.01-4.38.04-6.57.07-4.24.05-8.47,0-12.71-.02-2.24-.01-4.47-.02-6.71-.02h-6.62c-2.15,0-4.29-.03-6.44-.04-2.2-.01-4.41-.03-6.61-.04-4.15-.03-8.29-.05-12.44-.05-2.06,0-4.12,0-6.18.04-1.02.02-2.03.04-3.05.1-.3.02-.6.04-.9.07.15-.89-.01-1.81-.03-2.71-.08-2.38-.13-4.76-.31-7.14-.23-4.66-.42-9.33-.44-14-.03-3.67.2-7.36-.08-11.04-.17-3.44-.5-6.88-.54-10.32.06-3.09-.09-6.21.11-9.3h0Zm-13.65,80.75c2.06-3.75,4.06-7.54,6.23-11.23,2.89-4.62,6.08-9.11,8.34-14.08.17.03.34.05.51.06.5.05.99.08,1.49.1,1.04.05,2.09.07,3.13.08,2.06.02,4.13.03,6.2.03,2.13,0,4.27,0,6.4-.01,2.05,0,4.1-.03,6.15-.03,4.33-.02,8.67-.07,13-.07,4.43,0,8.85,0,13.28-.02,4.26-.02,8.51-.05,12.77.01,2.18.03,4.36.05,6.54.07,1.95.01,3.89.03,5.84.03,2.4,0,4.8,0,7.21,0,1.71,0,3.43,0,5.15,0,2.21,0,4.42.01,6.63.01,1.94,0,3.87-.01,5.81-.02,2.11-.01,4.23,0,6.35,0,.62,0,1.24,0,1.86-.02.21,0,.42,0,.63-.01h.2c.25.85.73,1.58,1.1,2.38,0-.01-.01-.02-.02-.04,1.63,3.12,3.83,5.9,5.64,8.92.96,1.6,1.85,3.24,2.86,4.81,1.27,2.28,2.54,4.56,4.05,6.68.95,1.54,1.9,3.09,3.02,4.51.2.28.36.54.49.79-.29-.03-.57-.07-.86-.09-.75-.07-1.49-.11-2.24-.14-1.68-.07-3.36-.1-5.04-.12-2.81-.04-5.61-.05-8.42-.04h-8.75c-5.84.01-11.69.04-17.53.05-5.89.01-11.78.01-17.67.01-2.98,0-5.95,0-8.93,0-2.88,0-5.77,0-8.65,0-6.01,0-12.01.02-18.01.06-2.95.02-5.9.05-8.86.08-2.95.02-5.91.03-8.86.03-2.86,0-5.72.02-8.58.04-2.85.02-5.7.01-8.55.01-1.25,0-2.49,0-3.74,0s-2.56.01-3.84.03c-.57,0-1.13,0-1.7.02-.45,0-.91.01-1.36.02-.25,0-.5,0-.74,0,.04-.1.09-.19.14-.31.4-.89.87-1.73,1.31-2.59h0Zm140.12,6.15c-.38.39-.69.84-1.1,1.21,0,0-.02.02-.03.02-.19.03-.41-.01-.62,0-3-.05-6-.39-9-.56-4.86-.09-9.72-.45-14.58-.22-5.36-.17-10.71.14-16.07-.1-6.4.05-12.79.14-19.18.04-4.15-.01-8.29.12-12.44.06-4.19-.06-8.37-.27-12.56-.37-2.74-.07-5.48-.07-8.22.04-2.9-.03-5.79-.07-8.69-.02-4.79.08-9.58.36-14.38.39-3.84-.05-7.69.15-11.53.14-3.26,0-9.84.24-11.71-.37-.81-.27-1.37-1.47-1.57-2.07-.1-.22-.14-.39-.15-.55.39,0,.78,0,1.16.01.57,0,1.15.02,1.72.03.76,0,1.52.01,2.28.02,2.57.03,5.14,0,7.71,0,1.47,0,2.94,0,4.41,0,1.35,0,2.7.01,4.05.02,2.89.01,5.78.02,8.67.03,2.92,0,5.85.01,8.77.03,6.01.05,12.03.09,18.04.1,5.85,0,11.7-.01,17.55-.01s11.85-.01,17.77-.01c5.85,0,11.69.01,17.53.02,2.62,0,5.24.01,7.87.01h.85c2.94,0,5.88,0,8.83,0,2.85,0,5.69-.02,8.54-.08,1.42-.03,2.85-.06,4.27-.13.65-.03,1.3-.07,1.95-.14.28-.03.56-.06.84-.1h.02c.26.89-.04,1.66-1.01,2.6h0Z"/><path d="m364.08,259.02c-1.49-2.99-2.86-6.09-4.18-9.18-.84-1.88-1.42-3.46-3.77-3.09h.02c-26.38.2-52.76.16-79.14.22-5.39,0-10.79-.04-16.17.13-.88.05-1.93-.12-2.32.83-1.8,2.46-2.88,5.34-4.17,8.09-.96,1.85-2,4.33,1.16,4.27,26.93.47,53.9.03,80.84.12,6.67,0,13.35.04,20.02.03,1.85-.39,7.85,1.12,7.71-1.42h0Zm-3.41.44c-26.64.03-53.27-.08-79.9-.09-8.12.07-16.26-.25-24.37.2-2.62.14-2.26-1.15-1.23-3.01,1.27-3,3.12-5.7,4.46-8.67,24.68.34,49.37-.16,74.05-.11,7.64.04,15.34-.21,22.96.03,2.09-.53,4.98,9.17,6.31,11.18-.65.5-1.48.5-2.28.46h0Z"/><path class="uuid-7da3b67e-6d99-4ab7-8928-7088d745439f" d="m210.4,208.87c1.1-2.9-2.9-5.64-4.94-2.92-1.23,1.31-1.55,4.66,1.01,4.4,1.07,1.18,3.39-.1,3.92-1.48h0Zm5.88,1.57c.7,4.63-4.05,15.72-15.19,13.95-1.94-.31-1.18-1.36-3.72-.11-1.63,1.05-.56,6.72-4.35,3.06-1.8-1.05-3.6,1.26-4.56-1.27-2.08,1.3-3.38,9.58-5.95,7.19-1.32,1.05-2.1,3.21-4.5,2.23-.82,5.47-3.68,4.24-8.38,4.33-2.65.84-2.83-1.01-2.04-3.11.99-4.03,5.14-5.38,7.81-8.14,4.1-3.39,6.49-5.69,10.86-8.72,7.08-4.9,1.81-10.95,7.03-16.61,2.94-3.2,7.87-5.56,12.4-4.58,6.31,1.36,9.76,6.14,10.61,11.78Z"/><path d="m207.29,211.44c-4.58-.3-3.08-7.57,1.21-6.57,4.26.74,3.02,7.36-1.21,6.57Zm.53-.83c2.93-.11,2.94-4.71.02-4.85-3.24-.13-3.02,4.72-.02,4.85Z"/><path d="m215.99,207.47c-6.23-16.58-28.86-9.6-26.25,7.53-2.13,4.3-7.04,6.34-10.46,9.48-3.66,3.06-8.15,5.29-11.18,9-1.22,1.49-.94,3.84-1.23,5.52-.25,1.44.7,1.61,1.85,1.43,5.34-.9,8.09,2.63,9.64-4.25,3.23.89,2.63-.51,4.51-2.39,1.39,1.22,2.03-.04,2.5-1.32.85-1.74,1.25-3.63,2.49-5.18.64-.9,1.12.43,1.61.77.94.57,1.81-.49,2.72-.64,1.48.93,2.49,3.01,4.01,1.07,1.5-1.11.31-3.98,2.54-4.41.24.1.46.2.73.31,9.79,4.05,20.1-7.12,16.52-16.93Zm-.48,5.73c-.83,7.06-8.46,12.37-15.31,10.43,0,0,.01,0,.01,0-.27-.07-.54-.17-.8-.26-.89-.44-1.93-.14-2.61.62-1.24,1.14-.19,3.22-1.74,4.07-1.88-1.26-2.72-2.26-4.96-.94-1.2-1.63-2.18-1.49-3.15-.35l.02-.02s-.03.03-.04.04l.02-.02c-1.36,1.92-1.85,4.37-3.08,6.36-1.74-1.26-2.58,1.12-3.56,2.15-.65.04-1.34-.23-2.01-.17-.65-.1-.93.36-1.09.91-1.49,4.8-3.21,3.13-6.3,3.35-1.19.08-2.73.13-3.09.2.01-.4.08-.78.16-1.17,9.04-6.74,17.94-14.06,26.37-21.43.1-.6-.65-1.06-1.12-.66-2.03,1.66-4.05,3.32-6.08,4.97-6.29,5.24-12.77,10.23-18.89,15.67.24-1.16.3-2.57,1.27-3.37,3.1-2.7,6.43-5.11,9.65-7.65,2.41-1.86,4.78-3.76,7.2-5.59,2.18-1.54,4.88-3.43,4.62-6.46-2.43-19.25,25.99-19.74,24.52-.7h0Z"/><path d="m187.48,226.26s.01-.01.02-.02c0,0-.01.01-.02.02Z"/><path d="m193.21,209.26c-.31-.04-.56-.34-.51-.66.15-.93.39-1.85.84-2.69,1.81-3.38,4.73-5.48,9-5.81,1.69-.13,1.96.49,1.8.67-.3.14-.7.09-1.02.16-2.19.43-4.22.9-6.01,2.28-1.05.75-2.17,1.97-2.68,3.19-.37.77-.58,1.6-.79,2.42-.08.28-.36.48-.64.43Z"/><path d="m214.25,212.05c-.46-.53-.81.02-.91.53-.08.11-.15.21-.2.34-.18.52-.31,1.05-.52,1.55-.44,1.23-1.06,2.38-1.95,3.34-.62.73-1.22,1.49-1.98,2.07-.37.32-1.23.51-.96,1.16.31.59,1,.15,1.45,0,2.04-.92,3.32-2.86,4.25-4.83.38-.71.77-1.53.88-2.35.22-.6.39-1.29-.06-1.81h0Z"/></g></svg>