<svg width="180" height="180" viewBox="0 0 180 180" fill="none" xmlns="http://www.w3.org/2000/svg">
<rect x="39" y="46" width="102" height="16" fill="#EAF5FF"/>
<rect x="74" y="109" width="32" height="37" fill="#EAF5FF"/>
<path fill-rule="evenodd" clip-rule="evenodd" d="M128.25 175.5C127.009 175.5 126 174.491 126 173.25C126 172.009 127.009 171 128.25 171C129.491 171 130.5 172.009 130.5 173.25C130.5 174.491 129.491 175.5 128.25 175.5Z" fill="#EAF5FF"/>
<path fill-rule="evenodd" clip-rule="evenodd" d="M137.25 13.5C136.009 13.5 135 12.4907 135 11.25C135 10.0092 136.009 9 137.25 9C138.491 9 139.5 10.0092 139.5 11.25C139.5 12.4907 138.491 13.5 137.25 13.5Z" fill="#EAF5FF"/>
<path fill-rule="evenodd" clip-rule="evenodd" d="M60.75 175.5C59.5093 175.5 58.5 174.491 58.5 173.25C58.5 172.009 59.5093 171 60.75 171C61.9907 171 63 172.009 63 173.25C63 174.491 61.9907 175.5 60.75 175.5Z" fill="#EAF5FF"/>
<path d="M101.235 22.2376C101.105 21.1186 100.154 20.25 99 20.25C97.7574 20.25 96.75 21.2574 96.75 22.5V31.5L96.7651 31.7624C96.8951 32.8814 97.8461 33.75 99 33.75C100.243 33.75 101.25 32.7426 101.25 31.5V22.5L101.235 22.2376Z" fill="#0079D0"/>
<path d="M45 78.75C45 77.5074 43.9926 76.5 42.75 76.5H29.25L28.9876 76.5151C27.8686 76.6451 27 77.5961 27 78.75C27 79.9926 28.0074 81 29.25 81H42.75L43.0124 80.9849C44.1314 80.8549 45 79.9039 45 78.75Z" fill="#0079D0"/>
<path fill-rule="evenodd" clip-rule="evenodd" d="M90 76.5C86.2721 76.5 83.25 79.5221 83.25 83.25C83.25 86.9779 86.2721 90 90 90C93.7279 90 96.75 86.9779 96.75 83.25C96.75 79.5221 93.7279 76.5 90 76.5ZM90 81C91.2426 81 92.25 82.0074 92.25 83.25C92.25 84.4926 91.2426 85.5 90 85.5C88.7574 85.5 87.75 84.4926 87.75 83.25C87.75 82.0074 88.7574 81 90 81Z" fill="#0079D0"/>
<path d="M42.75 85.5C43.9926 85.5 45 86.5074 45 87.75C45 88.9039 44.1314 89.8549 43.0124 89.9849L42.75 90H29.25C28.0074 90 27 88.9926 27 87.75C27 86.5961 27.8686 85.6451 28.9876 85.5151L29.25 85.5H42.75Z" fill="#0079D0"/>
<path d="M72 78.75C72 77.5074 70.9926 76.5 69.75 76.5H56.25L55.9876 76.5151C54.8686 76.6451 54 77.5961 54 78.75C54 79.9926 55.0074 81 56.25 81H69.75L70.0124 80.9849C71.1314 80.8549 72 79.9039 72 78.75Z" fill="#0079D0"/>
<path d="M69.75 85.5C70.9926 85.5 72 86.5074 72 87.75C72 88.9039 71.1314 89.8549 70.0124 89.9849L69.75 90H56.25C55.0074 90 54 88.9926 54 87.75C54 86.5961 54.8686 85.6451 55.9876 85.5151L56.25 85.5H69.75Z" fill="#0079D0"/>
<path d="M126 78.75C126 77.5074 124.993 76.5 123.75 76.5H110.25L109.988 76.5151C108.869 76.6451 108 77.5961 108 78.75C108 79.9926 109.007 81 110.25 81H123.75L124.012 80.9849C125.131 80.8549 126 79.9039 126 78.75Z" fill="#0079D0"/>
<path d="M123.75 85.5C124.993 85.5 126 86.5074 126 87.75C126 88.9039 125.131 89.8549 124.012 89.9849L123.75 90H110.25C109.007 90 108 88.9926 108 87.75C108 86.5961 108.869 85.6451 109.988 85.5151L110.25 85.5H123.75Z" fill="#0079D0"/>
<path d="M153 78.75C153 77.5074 151.993 76.5 150.75 76.5H137.25L136.988 76.5151C135.869 76.6451 135 77.5961 135 78.75C135 79.9926 136.007 81 137.25 81H150.75L151.012 80.9849C152.131 80.8549 153 79.9039 153 78.75Z" fill="#0079D0"/>
<path d="M150.75 85.5C151.993 85.5 153 86.5074 153 87.75C153 88.9039 152.131 89.8549 151.012 89.9849L150.75 90H137.25C136.007 90 135 88.9926 135 87.75C135 86.5961 135.869 85.6451 136.988 85.5151L137.25 85.5H150.75Z" fill="#0079D0"/>
<path d="M92.2349 22.2376C92.1049 21.1186 91.1539 20.25 90 20.25C88.7574 20.25 87.75 21.2574 87.75 22.5V31.5L87.7651 31.7624C87.8951 32.8814 88.8461 33.75 90 33.75C91.2426 33.75 92.25 32.7426 92.25 31.5V22.5L92.2349 22.2376Z" fill="#2F3A43"/>
<path d="M92.2349 37.9876C92.1049 36.8686 91.1539 36 90 36C88.7574 36 87.75 37.0074 87.75 38.25V45H38.25L37.9876 45.0151C36.8686 45.1451 36 46.0961 36 47.25V58.5H6.75L6.4876 58.5151C5.36859 58.6451 4.5 59.5961 4.5 60.75C4.5 61.9926 5.50736 63 6.75 63H173.25L173.512 62.9849C174.631 62.8549 175.5 61.9039 175.5 60.75C175.5 59.5074 174.493 58.5 173.25 58.5H144V47.25L143.985 46.9876C143.855 45.8686 142.904 45 141.75 45C140.507 45 139.5 46.0074 139.5 47.25V58.5H40.5V49.5H119.25L119.512 49.4849C120.631 49.3549 121.5 48.4039 121.5 47.25C121.5 46.0074 120.493 45 119.25 45H92.25V38.25L92.2349 37.9876Z" fill="#2F3A43"/>
<path d="M56.25 99C57.4039 99 58.3549 99.8686 58.4849 100.988L58.5 101.25V146.25C58.5 147.493 57.4926 148.5 56.25 148.5C55.0961 148.5 54.1451 147.631 54.0151 146.512L54 146.25V101.25C54 100.007 55.0074 99 56.25 99Z" fill="#2F3A43"/>
<path d="M49.4849 109.988C49.3549 108.869 48.4039 108 47.25 108C46.0074 108 45 109.007 45 110.25V153H27V110.25L26.9849 109.988C26.8549 108.869 25.9039 108 24.75 108C23.5074 108 22.5 109.007 22.5 110.25V153H15.75L15.4876 153.015C14.3686 153.145 13.5 154.096 13.5 155.25C13.5 156.493 14.5074 157.5 15.75 157.5H47.25C47.4053 157.5 47.557 157.484 47.7035 157.454C48.7287 157.244 49.5 156.337 49.5 155.25V110.25L49.4849 109.988Z" fill="#2F3A43"/>
<path d="M33.75 99C34.9039 99 35.8549 99.8686 35.9849 100.988L36 101.25V137.25C36 138.493 34.9926 139.5 33.75 139.5C32.5961 139.5 31.6451 138.631 31.5151 137.512L31.5 137.25V101.25C31.5 100.007 32.5074 99 33.75 99Z" fill="#2F3A43"/>
<path d="M132.75 45C133.993 45 135 46.0074 135 47.25C135 48.4039 134.131 49.3549 133.012 49.4849L132.75 49.5H128.25C127.007 49.5 126 48.4926 126 47.25C126 46.0961 126.869 45.1451 127.988 45.0151L128.25 45H132.75Z" fill="#2F3A43"/>
<path d="M15.75 67.5C16.9039 67.5 17.8549 68.3686 17.9849 69.4876L18 69.75V146.25C18 147.493 16.9926 148.5 15.75 148.5C14.5961 148.5 13.6451 147.631 13.5151 146.512L13.5 146.25V69.75C13.5 68.5074 14.5074 67.5 15.75 67.5Z" fill="#2F3A43"/>
<path fill-rule="evenodd" clip-rule="evenodd" d="M107.985 109.988C107.855 108.869 106.904 108 105.75 108H74.25L73.9876 108.015C72.8686 108.145 72 109.096 72 110.25V144H65.25L64.9876 144.015C63.8686 144.145 63 145.096 63 146.25C63 147.493 64.0074 148.5 65.25 148.5H114.75L115.012 148.485C116.131 148.355 117 147.404 117 146.25C117 145.007 115.993 144 114.75 144H108V110.25L107.985 109.988ZM87.75 144H76.5V112.498H103.5V144H92.25V123.75L92.2349 123.488C92.1049 122.369 91.1539 121.5 90 121.5C88.7574 121.5 87.75 122.507 87.75 123.75V144Z" fill="#2F3A43"/>
<path d="M101.25 99C102.493 99 103.5 100.007 103.5 101.25C103.5 102.404 102.631 103.355 101.512 103.485L101.25 103.5H78.75C77.5074 103.5 76.5 102.493 76.5 101.25C76.5 100.096 77.3686 99.1451 78.4876 99.0151L78.75 99H101.25Z" fill="#2F3A43"/>
<path d="M123.75 99C122.596 99 121.645 99.8686 121.515 100.988L121.5 101.25V146.25C121.5 147.493 122.507 148.5 123.75 148.5C124.904 148.5 125.855 147.631 125.985 146.512L126 146.25V101.25C126 100.007 124.993 99 123.75 99Z" fill="#2F3A43"/>
<path d="M130.515 109.988C130.645 108.869 131.596 108 132.75 108C133.993 108 135 109.007 135 110.25V137.25L134.985 137.512C134.855 138.631 133.904 139.5 132.75 139.5C131.507 139.5 130.5 138.493 130.5 137.25V110.25L130.515 109.988Z" fill="#2F3A43"/>
<path d="M146.25 99C145.096 99 144.145 99.8686 144.015 100.988L144 101.25V146.25C144 147.493 145.007 148.5 146.25 148.5C147.404 148.5 148.355 147.631 148.485 146.512L148.5 146.25V101.25C148.5 100.007 147.493 99 146.25 99Z" fill="#2F3A43"/>
<path d="M153.015 109.988C153.145 108.869 154.096 108 155.25 108C156.493 108 157.5 109.007 157.5 110.25V155.25C157.5 155.339 157.495 155.426 157.485 155.512C157.365 156.545 156.545 157.365 155.513 157.485C155.426 157.495 155.339 157.5 155.25 157.5H56.25C55.0074 157.5 54 156.493 54 155.25C54 154.096 54.8686 153.145 55.9876 153.015L56.25 153H153V110.25L153.015 109.988Z" fill="#2F3A43"/>
<path d="M164.25 67.5C165.404 67.5 166.355 68.3686 166.485 69.4876L166.5 69.75V155.25C166.5 156.493 165.493 157.5 164.25 157.5C163.096 157.5 162.145 156.631 162.015 155.512L162 155.25V69.75C162 68.5074 163.007 67.5 164.25 67.5Z" fill="#2F3A43"/>
</svg>
